<?xml version="1.0" encoding="utf-8"?>
<svg xmlns="http://www.w3.org/2000/svg" xmlns:xlink="http://www.w3.org/1999/xlink" width="600" height="400" viewBox="0 0 2400 1600">
<defs>
  <clipPath id="clip740">
    <rect x="0" y="0" width="2400" height="1600"/>
  </clipPath>
</defs>
<path clip-path="url(#clip740)" d="M0 1600 L2400 1600 L2400 0 L0 0  Z" fill="#ffffff" fill-rule="evenodd" fill-opacity="1"/>
<defs>
  <clipPath id="clip741">
    <rect x="480" y="0" width="1681" height="1600"/>
  </clipPath>
</defs>
<path clip-path="url(#clip740)" d="M219.866 1486.45 L2352.76 1486.45 L2352.76 47.2441 L219.866 47.2441  Z" fill="#ffffff" fill-rule="evenodd" fill-opacity="1"/>
<defs>
  <clipPath id="clip742">
    <rect x="219" y="47" width="2134" height="1440"/>
  </clipPath>
</defs>
<polyline clip-path="url(#clip742)" style="stroke:#000000; stroke-linecap:round; stroke-linejoin:round; stroke-width:2; stroke-opacity:0.1; fill:none" points="468.094,1486.45 468.094,47.2441 "/>
<polyline clip-path="url(#clip742)" style="stroke:#000000; stroke-linecap:round; stroke-linejoin:round; stroke-width:2; stroke-opacity:0.1; fill:none" points="795.381,1486.45 795.381,47.2441 "/>
<polyline clip-path="url(#clip742)" style="stroke:#000000; stroke-linecap:round; stroke-linejoin:round; stroke-width:2; stroke-opacity:0.1; fill:none" points="1122.67,1486.45 1122.67,47.2441 "/>
<polyline clip-path="url(#clip742)" style="stroke:#000000; stroke-linecap:round; stroke-linejoin:round; stroke-width:2; stroke-opacity:0.1; fill:none" points="1449.95,1486.45 1449.95,47.2441 "/>
<polyline clip-path="url(#clip742)" style="stroke:#000000; stroke-linecap:round; stroke-linejoin:round; stroke-width:2; stroke-opacity:0.1; fill:none" points="1777.24,1486.45 1777.24,47.2441 "/>
<polyline clip-path="url(#clip742)" style="stroke:#000000; stroke-linecap:round; stroke-linejoin:round; stroke-width:2; stroke-opacity:0.1; fill:none" points="2104.53,1486.45 2104.53,47.2441 "/>
<polyline clip-path="url(#clip740)" style="stroke:#000000; stroke-linecap:round; stroke-linejoin:round; stroke-width:4; stroke-opacity:1; fill:none" points="219.866,1486.45 2352.76,1486.45 "/>
<polyline clip-path="url(#clip740)" style="stroke:#000000; stroke-linecap:round; stroke-linejoin:round; stroke-width:4; stroke-opacity:1; fill:none" points="468.094,1486.45 468.094,1467.55 "/>
<polyline clip-path="url(#clip740)" style="stroke:#000000; stroke-linecap:round; stroke-linejoin:round; stroke-width:4; stroke-opacity:1; fill:none" points="795.381,1486.45 795.381,1467.55 "/>
<polyline clip-path="url(#clip740)" style="stroke:#000000; stroke-linecap:round; stroke-linejoin:round; stroke-width:4; stroke-opacity:1; fill:none" points="1122.67,1486.45 1122.67,1467.55 "/>
<polyline clip-path="url(#clip740)" style="stroke:#000000; stroke-linecap:round; stroke-linejoin:round; stroke-width:4; stroke-opacity:1; fill:none" points="1449.95,1486.45 1449.95,1467.55 "/>
<polyline clip-path="url(#clip740)" style="stroke:#000000; stroke-linecap:round; stroke-linejoin:round; stroke-width:4; stroke-opacity:1; fill:none" points="1777.24,1486.45 1777.24,1467.55 "/>
<polyline clip-path="url(#clip740)" style="stroke:#000000; stroke-linecap:round; stroke-linejoin:round; stroke-width:4; stroke-opacity:1; fill:none" points="2104.53,1486.45 2104.53,1467.55 "/>
<path clip-path="url(#clip740)" d="M352.62 1526.9 Q351.902 1526.49 351.046 1526.3 Q350.212 1526.09 349.194 1526.09 Q345.583 1526.09 343.638 1528.45 Q341.717 1530.79 341.717 1535.19 L341.717 1548.85 L337.435 1548.85 L337.435 1522.92 L341.717 1522.92 L341.717 1526.95 Q343.06 1524.59 345.212 1523.45 Q347.365 1522.3 350.444 1522.3 Q350.884 1522.3 351.416 1522.37 Q351.949 1522.41 352.597 1522.53 L352.62 1526.9 Z" fill="#000000" fill-rule="nonzero" fill-opacity="1" /><path clip-path="url(#clip740)" d="M357.087 1522.92 L361.347 1522.92 L361.347 1548.85 L357.087 1548.85 L357.087 1522.92 M357.087 1512.83 L361.347 1512.83 L361.347 1518.22 L357.087 1518.22 L357.087 1512.83 Z" fill="#000000" fill-rule="nonzero" fill-opacity="1" /><path clip-path="url(#clip740)" d="M386.786 1523.69 L386.786 1527.71 Q384.981 1526.79 383.036 1526.32 Q381.092 1525.86 379.009 1525.86 Q375.837 1525.86 374.24 1526.83 Q372.666 1527.81 372.666 1529.75 Q372.666 1531.23 373.8 1532.09 Q374.935 1532.92 378.36 1533.69 L379.819 1534.01 Q384.356 1534.98 386.254 1536.76 Q388.175 1538.52 388.175 1541.7 Q388.175 1545.31 385.305 1547.41 Q382.458 1549.52 377.458 1549.52 Q375.374 1549.52 373.106 1549.1 Q370.86 1548.71 368.361 1547.9 L368.361 1543.5 Q370.722 1544.73 373.013 1545.35 Q375.305 1545.95 377.55 1545.95 Q380.56 1545.95 382.18 1544.94 Q383.8 1543.89 383.8 1542.02 Q383.8 1540.28 382.62 1539.36 Q381.462 1538.43 377.504 1537.57 L376.022 1537.23 Q372.064 1536.39 370.305 1534.68 Q368.546 1532.95 368.546 1529.94 Q368.546 1526.28 371.138 1524.29 Q373.731 1522.3 378.499 1522.3 Q380.86 1522.3 382.944 1522.64 Q385.027 1522.99 386.786 1523.69 Z" fill="#000000" fill-rule="nonzero" fill-opacity="1" /><path clip-path="url(#clip740)" d="M394.796 1512.83 L399.078 1512.83 L399.078 1534.1 L411.786 1522.92 L417.226 1522.92 L403.476 1535.05 L417.805 1548.85 L412.249 1548.85 L399.078 1536.19 L399.078 1548.85 L394.796 1548.85 L394.796 1512.83 Z" fill="#000000" fill-rule="nonzero" fill-opacity="1" /><path clip-path="url(#clip740)" d="M442.11 1556.72 L442.11 1560.03 L417.481 1560.03 L417.481 1556.72 L442.11 1556.72 Z" fill="#000000" fill-rule="nonzero" fill-opacity="1" /><path clip-path="url(#clip740)" d="M457.897 1535.82 Q452.735 1535.82 450.744 1537 Q448.754 1538.18 448.754 1541.02 Q448.754 1543.29 450.235 1544.63 Q451.74 1545.95 454.309 1545.95 Q457.851 1545.95 459.98 1543.45 Q462.133 1540.93 462.133 1536.76 L462.133 1535.82 L457.897 1535.82 M466.392 1534.06 L466.392 1548.85 L462.133 1548.85 L462.133 1544.91 Q460.675 1547.27 458.499 1548.41 Q456.323 1549.52 453.175 1549.52 Q449.193 1549.52 446.832 1547.3 Q444.494 1545.05 444.494 1541.3 Q444.494 1536.93 447.411 1534.7 Q450.351 1532.48 456.161 1532.48 L462.133 1532.48 L462.133 1532.07 Q462.133 1529.13 460.189 1527.53 Q458.267 1525.91 454.772 1525.91 Q452.55 1525.91 450.443 1526.44 Q448.337 1526.97 446.392 1528.04 L446.392 1524.1 Q448.73 1523.2 450.93 1522.76 Q453.129 1522.3 455.212 1522.3 Q460.837 1522.3 463.615 1525.21 Q466.392 1528.13 466.392 1534.06 Z" fill="#000000" fill-rule="nonzero" fill-opacity="1" /><path clip-path="url(#clip740)" d="M472.11 1522.92 L476.624 1522.92 L484.726 1544.68 L492.827 1522.92 L497.341 1522.92 L487.619 1548.85 L481.832 1548.85 L472.11 1522.92 Z" fill="#000000" fill-rule="nonzero" fill-opacity="1" /><path clip-path="url(#clip740)" d="M525.397 1534.82 L525.397 1536.9 L505.813 1536.9 Q506.091 1541.3 508.452 1543.62 Q510.837 1545.91 515.073 1545.91 Q517.526 1545.91 519.818 1545.31 Q522.133 1544.7 524.401 1543.5 L524.401 1547.53 Q522.11 1548.5 519.702 1549.01 Q517.295 1549.52 514.818 1549.52 Q508.614 1549.52 504.98 1545.91 Q501.369 1542.3 501.369 1536.14 Q501.369 1529.77 504.795 1526.05 Q508.244 1522.3 514.077 1522.3 Q519.309 1522.3 522.341 1525.68 Q525.397 1529.03 525.397 1534.82 M521.137 1533.57 Q521.091 1530.07 519.17 1527.99 Q517.272 1525.91 514.124 1525.91 Q510.559 1525.91 508.406 1527.92 Q506.276 1529.94 505.952 1533.59 L521.137 1533.57 Z" fill="#000000" fill-rule="nonzero" fill-opacity="1" /><path clip-path="url(#clip740)" d="M547.41 1526.9 Q546.693 1526.49 545.836 1526.3 Q545.003 1526.09 543.985 1526.09 Q540.373 1526.09 538.429 1528.45 Q536.508 1530.79 536.508 1535.19 L536.508 1548.85 L532.225 1548.85 L532.225 1522.92 L536.508 1522.92 L536.508 1526.95 Q537.85 1524.59 540.003 1523.45 Q542.156 1522.3 545.235 1522.3 Q545.674 1522.3 546.207 1522.37 Q546.739 1522.41 547.387 1522.53 L547.41 1526.9 Z" fill="#000000" fill-rule="nonzero" fill-opacity="1" /><path clip-path="url(#clip740)" d="M568.406 1523.69 L568.406 1527.71 Q566.6 1526.79 564.656 1526.32 Q562.711 1525.86 560.628 1525.86 Q557.457 1525.86 555.859 1526.83 Q554.285 1527.81 554.285 1529.75 Q554.285 1531.23 555.42 1532.09 Q556.554 1532.92 559.98 1533.69 L561.438 1534.01 Q565.975 1534.98 567.873 1536.76 Q569.795 1538.52 569.795 1541.7 Q569.795 1545.31 566.924 1547.41 Q564.077 1549.52 559.077 1549.52 Q556.994 1549.52 554.725 1549.1 Q552.48 1548.71 549.98 1547.9 L549.98 1543.5 Q552.341 1544.73 554.633 1545.35 Q556.924 1545.95 559.17 1545.95 Q562.179 1545.95 563.799 1544.94 Q565.42 1543.89 565.42 1542.02 Q565.42 1540.28 564.239 1539.36 Q563.082 1538.43 559.123 1537.57 L557.642 1537.23 Q553.684 1536.39 551.924 1534.68 Q550.165 1532.95 550.165 1529.94 Q550.165 1526.28 552.758 1524.29 Q555.35 1522.3 560.119 1522.3 Q562.48 1522.3 564.563 1522.64 Q566.646 1522.99 568.406 1523.69 Z" fill="#000000" fill-rule="nonzero" fill-opacity="1" /><path clip-path="url(#clip740)" d="M598.753 1534.82 L598.753 1536.9 L579.17 1536.9 Q579.447 1541.3 581.808 1543.62 Q584.193 1545.91 588.429 1545.91 Q590.882 1545.91 593.174 1545.31 Q595.489 1544.7 597.757 1543.5 L597.757 1547.53 Q595.466 1548.5 593.058 1549.01 Q590.651 1549.52 588.174 1549.52 Q581.97 1549.52 578.336 1545.91 Q574.725 1542.3 574.725 1536.14 Q574.725 1529.77 578.151 1526.05 Q581.6 1522.3 587.433 1522.3 Q592.665 1522.3 595.697 1525.68 Q598.753 1529.03 598.753 1534.82 M594.494 1533.57 Q594.447 1530.07 592.526 1527.99 Q590.628 1525.91 587.48 1525.91 Q583.915 1525.91 581.762 1527.92 Q579.633 1529.94 579.308 1533.59 L594.494 1533.57 Z" fill="#000000" fill-rule="nonzero" fill-opacity="1" /><path clip-path="url(#clip740)" d="M682.025 1535.91 Q682.025 1531.21 680.08 1528.55 Q678.159 1525.86 674.779 1525.86 Q671.4 1525.86 669.455 1528.55 Q667.534 1531.21 667.534 1535.91 Q667.534 1540.61 669.455 1543.29 Q671.4 1545.95 674.779 1545.95 Q678.159 1545.95 680.08 1543.29 Q682.025 1540.61 682.025 1535.91 M667.534 1526.86 Q668.877 1524.54 670.914 1523.43 Q672.974 1522.3 675.821 1522.3 Q680.543 1522.3 683.483 1526.05 Q686.446 1529.8 686.446 1535.91 Q686.446 1542.02 683.483 1545.77 Q680.543 1549.52 675.821 1549.52 Q672.974 1549.52 670.914 1548.41 Q668.877 1547.27 667.534 1544.96 L667.534 1548.85 L663.252 1548.85 L663.252 1512.83 L667.534 1512.83 L667.534 1526.86 Z" fill="#000000" fill-rule="nonzero" fill-opacity="1" /><path clip-path="url(#clip740)" d="M708.529 1526.9 Q707.812 1526.49 706.955 1526.3 Q706.122 1526.09 705.103 1526.09 Q701.492 1526.09 699.548 1528.45 Q697.627 1530.79 697.627 1535.19 L697.627 1548.85 L693.344 1548.85 L693.344 1522.92 L697.627 1522.92 L697.627 1526.95 Q698.969 1524.59 701.122 1523.45 Q703.275 1522.3 706.353 1522.3 Q706.793 1522.3 707.326 1522.37 Q707.858 1522.41 708.506 1522.53 L708.529 1526.9 Z" fill="#000000" fill-rule="nonzero" fill-opacity="1" /><path clip-path="url(#clip740)" d="M734.131 1534.82 L734.131 1536.9 L714.548 1536.9 Q714.826 1541.3 717.187 1543.62 Q719.571 1545.91 723.807 1545.91 Q726.261 1545.91 728.552 1545.31 Q730.867 1544.7 733.136 1543.5 L733.136 1547.53 Q730.844 1548.5 728.437 1549.01 Q726.029 1549.52 723.552 1549.52 Q717.349 1549.52 713.714 1545.91 Q710.103 1542.3 710.103 1536.14 Q710.103 1529.77 713.529 1526.05 Q716.978 1522.3 722.812 1522.3 Q728.043 1522.3 731.075 1525.68 Q734.131 1529.03 734.131 1534.82 M729.872 1533.57 Q729.825 1530.07 727.904 1527.99 Q726.006 1525.91 722.858 1525.91 Q719.293 1525.91 717.14 1527.92 Q715.011 1529.94 714.687 1533.59 L729.872 1533.57 Z" fill="#000000" fill-rule="nonzero" fill-opacity="1" /><path clip-path="url(#clip740)" d="M752.904 1535.82 Q747.742 1535.82 745.751 1537 Q743.761 1538.18 743.761 1541.02 Q743.761 1543.29 745.242 1544.63 Q746.747 1545.95 749.316 1545.95 Q752.858 1545.95 754.987 1543.45 Q757.14 1540.93 757.14 1536.76 L757.14 1535.82 L752.904 1535.82 M761.399 1534.06 L761.399 1548.85 L757.14 1548.85 L757.14 1544.91 Q755.682 1547.27 753.506 1548.41 Q751.33 1549.52 748.182 1549.52 Q744.2 1549.52 741.839 1547.3 Q739.501 1545.05 739.501 1541.3 Q739.501 1536.93 742.418 1534.7 Q745.358 1532.48 751.168 1532.48 L757.14 1532.48 L757.14 1532.07 Q757.14 1529.13 755.196 1527.53 Q753.274 1525.91 749.779 1525.91 Q747.557 1525.91 745.45 1526.44 Q743.344 1526.97 741.4 1528.04 L741.4 1524.1 Q743.737 1523.2 745.937 1522.76 Q748.136 1522.3 750.219 1522.3 Q755.844 1522.3 758.622 1525.21 Q761.399 1528.13 761.399 1534.06 Z" fill="#000000" fill-rule="nonzero" fill-opacity="1" /><path clip-path="url(#clip740)" d="M788.83 1523.92 L788.83 1527.9 Q787.024 1526.9 785.196 1526.42 Q783.39 1525.91 781.538 1525.91 Q777.395 1525.91 775.103 1528.55 Q772.811 1531.16 772.811 1535.91 Q772.811 1540.65 775.103 1543.29 Q777.395 1545.91 781.538 1545.91 Q783.39 1545.91 785.196 1545.42 Q787.024 1544.91 788.83 1543.92 L788.83 1547.85 Q787.047 1548.69 785.126 1549.1 Q783.228 1549.52 781.075 1549.52 Q775.219 1549.52 771.77 1545.84 Q768.321 1542.16 768.321 1535.91 Q768.321 1529.57 771.793 1525.93 Q775.288 1522.3 781.353 1522.3 Q783.321 1522.3 785.196 1522.71 Q787.071 1523.11 788.83 1523.92 Z" fill="#000000" fill-rule="nonzero" fill-opacity="1" /><path clip-path="url(#clip740)" d="M817.788 1533.2 L817.788 1548.85 L813.529 1548.85 L813.529 1533.34 Q813.529 1529.66 812.094 1527.83 Q810.658 1526 807.788 1526 Q804.339 1526 802.348 1528.2 Q800.358 1530.4 800.358 1534.2 L800.358 1548.85 L796.075 1548.85 L796.075 1512.83 L800.358 1512.83 L800.358 1526.95 Q801.885 1524.61 803.945 1523.45 Q806.029 1522.3 808.737 1522.3 Q813.205 1522.3 815.496 1525.07 Q817.788 1527.83 817.788 1533.2 Z" fill="#000000" fill-rule="nonzero" fill-opacity="1" /><path clip-path="url(#clip740)" d="M845.982 1556.72 L845.982 1560.03 L821.353 1560.03 L821.353 1556.72 L845.982 1556.72 Z" fill="#000000" fill-rule="nonzero" fill-opacity="1" /><path clip-path="url(#clip740)" d="M871.538 1533.2 L871.538 1548.85 L867.278 1548.85 L867.278 1533.34 Q867.278 1529.66 865.843 1527.83 Q864.408 1526 861.538 1526 Q858.089 1526 856.098 1528.2 Q854.107 1530.4 854.107 1534.2 L854.107 1548.85 L849.825 1548.85 L849.825 1522.92 L854.107 1522.92 L854.107 1526.95 Q855.635 1524.61 857.695 1523.45 Q859.778 1522.3 862.487 1522.3 Q866.954 1522.3 869.246 1525.07 Q871.538 1527.83 871.538 1533.2 Z" fill="#000000" fill-rule="nonzero" fill-opacity="1" /><path clip-path="url(#clip740)" d="M879.593 1538.62 L879.593 1522.92 L883.852 1522.92 L883.852 1538.45 Q883.852 1542.13 885.288 1543.99 Q886.723 1545.82 889.593 1545.82 Q893.042 1545.82 895.033 1543.62 Q897.047 1541.42 897.047 1537.62 L897.047 1522.92 L901.306 1522.92 L901.306 1548.85 L897.047 1548.85 L897.047 1544.87 Q895.496 1547.23 893.436 1548.38 Q891.399 1549.52 888.69 1549.52 Q884.223 1549.52 881.908 1546.74 Q879.593 1543.96 879.593 1538.62 M890.311 1522.3 L890.311 1522.3 Z" fill="#000000" fill-rule="nonzero" fill-opacity="1" /><path clip-path="url(#clip740)" d="M910.079 1512.83 L914.338 1512.83 L914.338 1548.85 L910.079 1548.85 L910.079 1512.83 Z" fill="#000000" fill-rule="nonzero" fill-opacity="1" /><path clip-path="url(#clip740)" d="M923.25 1512.83 L927.51 1512.83 L927.51 1548.85 L923.25 1548.85 L923.25 1512.83 Z" fill="#000000" fill-rule="nonzero" fill-opacity="1" /><path clip-path="url(#clip740)" d="M992.194 1544.96 L992.194 1558.71 L987.911 1558.71 L987.911 1522.92 L992.194 1522.92 L992.194 1526.86 Q993.536 1524.54 995.573 1523.43 Q997.634 1522.3 1000.48 1522.3 Q1005.2 1522.3 1008.14 1526.05 Q1011.11 1529.8 1011.11 1535.91 Q1011.11 1542.02 1008.14 1545.77 Q1005.2 1549.52 1000.48 1549.52 Q997.634 1549.52 995.573 1548.41 Q993.536 1547.27 992.194 1544.96 M1006.68 1535.91 Q1006.68 1531.21 1004.74 1528.55 Q1002.82 1525.86 999.439 1525.86 Q996.06 1525.86 994.115 1528.55 Q992.194 1531.21 992.194 1535.91 Q992.194 1540.61 994.115 1543.29 Q996.06 1545.95 999.439 1545.95 Q1002.82 1545.95 1004.74 1543.29 Q1006.68 1540.61 1006.68 1535.91 Z" fill="#000000" fill-rule="nonzero" fill-opacity="1" /><path clip-path="url(#clip740)" d="M1028.21 1525.91 Q1024.79 1525.91 1022.8 1528.59 Q1020.8 1531.26 1020.8 1535.91 Q1020.8 1540.56 1022.77 1543.25 Q1024.76 1545.91 1028.21 1545.91 Q1031.61 1545.91 1033.61 1543.22 Q1035.6 1540.54 1035.6 1535.91 Q1035.6 1531.3 1033.61 1528.62 Q1031.61 1525.91 1028.21 1525.91 M1028.21 1522.3 Q1033.77 1522.3 1036.94 1525.91 Q1040.11 1529.52 1040.11 1535.91 Q1040.11 1542.27 1036.94 1545.91 Q1033.77 1549.52 1028.21 1549.52 Q1022.63 1549.52 1019.46 1545.91 Q1016.31 1542.27 1016.31 1535.91 Q1016.31 1529.52 1019.46 1525.91 Q1022.63 1522.3 1028.21 1522.3 Z" fill="#000000" fill-rule="nonzero" fill-opacity="1" /><path clip-path="url(#clip740)" d="M1051.29 1544.96 L1051.29 1558.71 L1047.01 1558.71 L1047.01 1522.92 L1051.29 1522.92 L1051.29 1526.86 Q1052.63 1524.54 1054.67 1523.43 Q1056.73 1522.3 1059.58 1522.3 Q1064.3 1522.3 1067.24 1526.05 Q1070.2 1529.8 1070.2 1535.91 Q1070.2 1542.02 1067.24 1545.77 Q1064.3 1549.52 1059.58 1549.52 Q1056.73 1549.52 1054.67 1548.41 Q1052.63 1547.27 1051.29 1544.96 M1065.78 1535.91 Q1065.78 1531.21 1063.84 1528.55 Q1061.92 1525.86 1058.54 1525.86 Q1055.16 1525.86 1053.21 1528.55 Q1051.29 1531.21 1051.29 1535.91 Q1051.29 1540.61 1053.21 1543.29 Q1055.16 1545.95 1058.54 1545.95 Q1061.92 1545.95 1063.84 1543.29 Q1065.78 1540.61 1065.78 1535.91 Z" fill="#000000" fill-rule="nonzero" fill-opacity="1" /><path clip-path="url(#clip740)" d="M1096.96 1556.72 L1096.96 1560.03 L1072.33 1560.03 L1072.33 1556.72 L1096.96 1556.72 Z" fill="#000000" fill-rule="nonzero" fill-opacity="1" /><path clip-path="url(#clip740)" d="M1118.03 1535.58 Q1118.03 1530.95 1116.11 1528.41 Q1114.21 1525.86 1110.76 1525.86 Q1107.33 1525.86 1105.41 1528.41 Q1103.51 1530.95 1103.51 1535.58 Q1103.51 1540.19 1105.41 1542.74 Q1107.33 1545.28 1110.76 1545.28 Q1114.21 1545.28 1116.11 1542.74 Q1118.03 1540.19 1118.03 1535.58 M1122.29 1545.63 Q1122.29 1552.25 1119.35 1555.47 Q1116.41 1558.71 1110.34 1558.71 Q1108.1 1558.71 1106.11 1558.36 Q1104.11 1558.04 1102.24 1557.34 L1102.24 1553.2 Q1104.11 1554.22 1105.94 1554.7 Q1107.77 1555.19 1109.67 1555.19 Q1113.86 1555.19 1115.94 1552.99 Q1118.03 1550.82 1118.03 1546.39 L1118.03 1544.29 Q1116.71 1546.58 1114.65 1547.71 Q1112.59 1548.85 1109.72 1548.85 Q1104.95 1548.85 1102.03 1545.21 Q1099.11 1541.58 1099.11 1535.58 Q1099.11 1529.57 1102.03 1525.93 Q1104.95 1522.3 1109.72 1522.3 Q1112.59 1522.3 1114.65 1523.43 Q1116.71 1524.57 1118.03 1526.86 L1118.03 1522.92 L1122.29 1522.92 L1122.29 1545.63 Z" fill="#000000" fill-rule="nonzero" fill-opacity="1" /><path clip-path="url(#clip740)" d="M1146.08 1526.9 Q1145.36 1526.49 1144.51 1526.3 Q1143.67 1526.09 1142.66 1526.09 Q1139.04 1526.09 1137.1 1528.45 Q1135.18 1530.79 1135.18 1535.19 L1135.18 1548.85 L1130.9 1548.85 L1130.9 1522.92 L1135.18 1522.92 L1135.18 1526.95 Q1136.52 1524.59 1138.67 1523.45 Q1140.83 1522.3 1143.91 1522.3 Q1144.35 1522.3 1144.88 1522.37 Q1145.41 1522.41 1146.06 1522.53 L1146.08 1526.9 Z" fill="#000000" fill-rule="nonzero" fill-opacity="1" /><path clip-path="url(#clip740)" d="M1159.55 1525.91 Q1156.13 1525.91 1154.14 1528.59 Q1152.15 1531.26 1152.15 1535.91 Q1152.15 1540.56 1154.11 1543.25 Q1156.1 1545.91 1159.55 1545.91 Q1162.96 1545.91 1164.95 1543.22 Q1166.94 1540.54 1166.94 1535.91 Q1166.94 1531.3 1164.95 1528.62 Q1162.96 1525.91 1159.55 1525.91 M1159.55 1522.3 Q1165.11 1522.3 1168.28 1525.91 Q1171.45 1529.52 1171.45 1535.91 Q1171.45 1542.27 1168.28 1545.91 Q1165.11 1549.52 1159.55 1549.52 Q1153.98 1549.52 1150.8 1545.91 Q1147.66 1542.27 1147.66 1535.91 Q1147.66 1529.52 1150.8 1525.91 Q1153.98 1522.3 1159.55 1522.3 Z" fill="#000000" fill-rule="nonzero" fill-opacity="1" /><path clip-path="url(#clip740)" d="M1176.04 1522.92 L1180.29 1522.92 L1185.62 1543.15 L1190.92 1522.92 L1195.94 1522.92 L1201.27 1543.15 L1206.57 1522.92 L1210.83 1522.92 L1204.04 1548.85 L1199.02 1548.85 L1193.44 1527.6 L1187.84 1548.85 L1182.82 1548.85 L1176.04 1522.92 Z" fill="#000000" fill-rule="nonzero" fill-opacity="1" /><path clip-path="url(#clip740)" d="M1221.5 1515.56 L1221.5 1522.92 L1230.27 1522.92 L1230.27 1526.23 L1221.5 1526.23 L1221.5 1540.31 Q1221.5 1543.48 1222.35 1544.38 Q1223.23 1545.28 1225.9 1545.28 L1230.27 1545.28 L1230.27 1548.85 L1225.9 1548.85 Q1220.97 1548.85 1219.09 1547.02 Q1217.22 1545.17 1217.22 1540.31 L1217.22 1526.23 L1214.09 1526.23 L1214.09 1522.92 L1217.22 1522.92 L1217.22 1515.56 L1221.5 1515.56 Z" fill="#000000" fill-rule="nonzero" fill-opacity="1" /><path clip-path="url(#clip740)" d="M1257.42 1533.2 L1257.42 1548.85 L1253.16 1548.85 L1253.16 1533.34 Q1253.16 1529.66 1251.73 1527.83 Q1250.29 1526 1247.42 1526 Q1243.97 1526 1241.98 1528.2 Q1239.99 1530.4 1239.99 1534.2 L1239.99 1548.85 L1235.71 1548.85 L1235.71 1512.83 L1239.99 1512.83 L1239.99 1526.95 Q1241.52 1524.61 1243.58 1523.45 Q1245.66 1522.3 1248.37 1522.3 Q1252.84 1522.3 1255.13 1525.07 Q1257.42 1527.83 1257.42 1533.2 Z" fill="#000000" fill-rule="nonzero" fill-opacity="1" /><path clip-path="url(#clip740)" d="M1413.7 1527.9 Q1415.3 1525.03 1417.52 1523.66 Q1419.75 1522.3 1422.76 1522.3 Q1426.81 1522.3 1429.01 1525.14 Q1431.2 1527.97 1431.2 1533.2 L1431.2 1548.85 L1426.92 1548.85 L1426.92 1533.34 Q1426.92 1529.61 1425.6 1527.81 Q1424.28 1526 1421.58 1526 Q1418.26 1526 1416.34 1528.2 Q1414.42 1530.4 1414.42 1534.2 L1414.42 1548.85 L1410.14 1548.85 L1410.14 1533.34 Q1410.14 1529.59 1408.82 1527.81 Q1407.5 1526 1404.75 1526 Q1401.48 1526 1399.56 1528.22 Q1397.64 1530.42 1397.64 1534.2 L1397.64 1548.85 L1393.36 1548.85 L1393.36 1522.92 L1397.64 1522.92 L1397.64 1526.95 Q1399.1 1524.57 1401.14 1523.43 Q1403.17 1522.3 1405.97 1522.3 Q1408.8 1522.3 1410.76 1523.73 Q1412.76 1525.17 1413.7 1527.9 Z" fill="#000000" fill-rule="nonzero" fill-opacity="1" /><path clip-path="url(#clip740)" d="M1461.88 1534.82 L1461.88 1536.9 L1442.29 1536.9 Q1442.57 1541.3 1444.93 1543.62 Q1447.32 1545.91 1451.55 1545.91 Q1454.01 1545.91 1456.3 1545.31 Q1458.61 1544.7 1460.88 1543.5 L1460.88 1547.53 Q1458.59 1548.5 1456.18 1549.01 Q1453.77 1549.52 1451.3 1549.52 Q1445.09 1549.52 1441.46 1545.91 Q1437.85 1542.3 1437.85 1536.14 Q1437.85 1529.77 1441.27 1526.05 Q1444.72 1522.3 1450.56 1522.3 Q1455.79 1522.3 1458.82 1525.68 Q1461.88 1529.03 1461.88 1534.82 M1457.62 1533.57 Q1457.57 1530.07 1455.65 1527.99 Q1453.75 1525.91 1450.6 1525.91 Q1447.04 1525.91 1444.89 1527.92 Q1442.76 1529.94 1442.43 1533.59 L1457.62 1533.57 Z" fill="#000000" fill-rule="nonzero" fill-opacity="1" /><path clip-path="url(#clip740)" d="M1489.05 1527.9 Q1490.65 1525.03 1492.87 1523.66 Q1495.09 1522.3 1498.1 1522.3 Q1502.15 1522.3 1504.35 1525.14 Q1506.55 1527.97 1506.55 1533.2 L1506.55 1548.85 L1502.27 1548.85 L1502.27 1533.34 Q1502.27 1529.61 1500.95 1527.81 Q1499.63 1526 1496.92 1526 Q1493.61 1526 1491.69 1528.2 Q1489.77 1530.4 1489.77 1534.2 L1489.77 1548.85 L1485.49 1548.85 L1485.49 1533.34 Q1485.49 1529.59 1484.17 1527.81 Q1482.85 1526 1480.09 1526 Q1476.83 1526 1474.91 1528.22 Q1472.99 1530.42 1472.99 1534.2 L1472.99 1548.85 L1468.7 1548.85 L1468.7 1522.92 L1472.99 1522.92 L1472.99 1526.95 Q1474.45 1524.57 1476.48 1523.43 Q1478.52 1522.3 1481.32 1522.3 Q1484.14 1522.3 1486.11 1523.73 Q1488.1 1525.17 1489.05 1527.9 Z" fill="#000000" fill-rule="nonzero" fill-opacity="1" /><path clip-path="url(#clip740)" d="M1656.96 1512.83 L1656.96 1516.37 L1652.89 1516.37 Q1650.6 1516.37 1649.7 1517.3 Q1648.82 1518.22 1648.82 1520.63 L1648.82 1522.92 L1655.83 1522.92 L1655.83 1526.23 L1648.82 1526.23 L1648.82 1548.85 L1644.53 1548.85 L1644.53 1526.23 L1640.46 1526.23 L1640.46 1522.92 L1644.53 1522.92 L1644.53 1521.12 Q1644.53 1516.79 1646.55 1514.82 Q1648.56 1512.83 1652.94 1512.83 L1656.96 1512.83 Z" fill="#000000" fill-rule="nonzero" fill-opacity="1" /><path clip-path="url(#clip740)" d="M1660.53 1522.92 L1664.79 1522.92 L1664.79 1548.85 L1660.53 1548.85 L1660.53 1522.92 M1660.53 1512.83 L1664.79 1512.83 L1664.79 1518.22 L1660.53 1518.22 L1660.53 1512.83 Z" fill="#000000" fill-rule="nonzero" fill-opacity="1" /><path clip-path="url(#clip740)" d="M1695.25 1522.92 L1685.88 1535.54 L1695.74 1548.85 L1690.71 1548.85 L1683.17 1538.66 L1675.62 1548.85 L1670.6 1548.85 L1680.67 1535.28 L1671.46 1522.92 L1676.48 1522.92 L1683.35 1532.16 L1690.23 1522.92 L1695.25 1522.92 Z" fill="#000000" fill-rule="nonzero" fill-opacity="1" /><path clip-path="url(#clip740)" d="M1722.47 1534.82 L1722.47 1536.9 L1702.89 1536.9 Q1703.17 1541.3 1705.53 1543.62 Q1707.91 1545.91 1712.15 1545.91 Q1714.6 1545.91 1716.89 1545.31 Q1719.21 1544.7 1721.48 1543.5 L1721.48 1547.53 Q1719.19 1548.5 1716.78 1549.01 Q1714.37 1549.52 1711.89 1549.52 Q1705.69 1549.52 1702.06 1545.91 Q1698.45 1542.3 1698.45 1536.14 Q1698.45 1529.77 1701.87 1526.05 Q1705.32 1522.3 1711.15 1522.3 Q1716.39 1522.3 1719.42 1525.68 Q1722.47 1529.03 1722.47 1534.82 M1718.21 1533.57 Q1718.17 1530.07 1716.25 1527.99 Q1714.35 1525.91 1711.2 1525.91 Q1707.64 1525.91 1705.48 1527.92 Q1703.35 1529.94 1703.03 1533.59 L1718.21 1533.57 Z" fill="#000000" fill-rule="nonzero" fill-opacity="1" /><path clip-path="url(#clip740)" d="M1746.52 1526.86 L1746.52 1512.83 L1750.78 1512.83 L1750.78 1548.85 L1746.52 1548.85 L1746.52 1544.96 Q1745.18 1547.27 1743.12 1548.41 Q1741.08 1549.52 1738.21 1549.52 Q1733.51 1549.52 1730.55 1545.77 Q1727.61 1542.02 1727.61 1535.91 Q1727.61 1529.8 1730.55 1526.05 Q1733.51 1522.3 1738.21 1522.3 Q1741.08 1522.3 1743.12 1523.43 Q1745.18 1524.54 1746.52 1526.86 M1732.01 1535.91 Q1732.01 1540.61 1733.93 1543.29 Q1735.88 1545.95 1739.26 1545.95 Q1742.64 1545.95 1744.58 1543.29 Q1746.52 1540.61 1746.52 1535.91 Q1746.52 1531.21 1744.58 1528.55 Q1742.64 1525.86 1739.26 1525.86 Q1735.88 1525.86 1733.93 1528.55 Q1732.01 1531.21 1732.01 1535.91 Z" fill="#000000" fill-rule="nonzero" fill-opacity="1" /><path clip-path="url(#clip740)" d="M1779.26 1556.72 L1779.26 1560.03 L1754.63 1560.03 L1754.63 1556.72 L1779.26 1556.72 Z" fill="#000000" fill-rule="nonzero" fill-opacity="1" /><path clip-path="url(#clip740)" d="M1805.44 1534.82 L1805.44 1536.9 L1785.85 1536.9 Q1786.13 1541.3 1788.49 1543.62 Q1790.88 1545.91 1795.11 1545.91 Q1797.57 1545.91 1799.86 1545.31 Q1802.17 1544.7 1804.44 1543.5 L1804.44 1547.53 Q1802.15 1548.5 1799.74 1549.01 Q1797.33 1549.52 1794.86 1549.52 Q1788.65 1549.52 1785.02 1545.91 Q1781.41 1542.3 1781.41 1536.14 Q1781.41 1529.77 1784.83 1526.05 Q1788.28 1522.3 1794.12 1522.3 Q1799.35 1522.3 1802.38 1525.68 Q1805.44 1529.03 1805.44 1534.82 M1801.18 1533.57 Q1801.13 1530.07 1799.21 1527.99 Q1797.31 1525.91 1794.16 1525.91 Q1790.6 1525.91 1788.45 1527.92 Q1786.32 1529.94 1785.99 1533.59 L1801.18 1533.57 Z" fill="#000000" fill-rule="nonzero" fill-opacity="1" /><path clip-path="url(#clip740)" d="M1825.55 1512.83 L1825.55 1516.37 L1821.48 1516.37 Q1819.19 1516.37 1818.28 1517.3 Q1817.4 1518.22 1817.4 1520.63 L1817.4 1522.92 L1824.42 1522.92 L1824.42 1526.23 L1817.4 1526.23 L1817.4 1548.85 L1813.12 1548.85 L1813.12 1526.23 L1809.05 1526.23 L1809.05 1522.92 L1813.12 1522.92 L1813.12 1521.12 Q1813.12 1516.79 1815.13 1514.82 Q1817.15 1512.83 1821.52 1512.83 L1825.55 1512.83 Z" fill="#000000" fill-rule="nonzero" fill-opacity="1" /><path clip-path="url(#clip740)" d="M1842.24 1512.83 L1842.24 1516.37 L1838.17 1516.37 Q1835.88 1516.37 1834.97 1517.3 Q1834.09 1518.22 1834.09 1520.63 L1834.09 1522.92 L1841.11 1522.92 L1841.11 1526.23 L1834.09 1526.23 L1834.09 1548.85 L1829.81 1548.85 L1829.81 1526.23 L1825.74 1526.23 L1825.74 1522.92 L1829.81 1522.92 L1829.81 1521.12 Q1829.81 1516.79 1831.82 1514.82 Q1833.84 1512.83 1838.21 1512.83 L1842.24 1512.83 Z" fill="#000000" fill-rule="nonzero" fill-opacity="1" /><path clip-path="url(#clip740)" d="M1867.98 1534.82 L1867.98 1536.9 L1848.4 1536.9 Q1848.68 1541.3 1851.04 1543.62 Q1853.42 1545.91 1857.66 1545.91 Q1860.11 1545.91 1862.4 1545.31 Q1864.72 1544.7 1866.99 1543.5 L1866.99 1547.53 Q1864.69 1548.5 1862.29 1549.01 Q1859.88 1549.52 1857.4 1549.52 Q1851.2 1549.52 1847.57 1545.91 Q1843.95 1542.3 1843.95 1536.14 Q1843.95 1529.77 1847.38 1526.05 Q1850.83 1522.3 1856.66 1522.3 Q1861.89 1522.3 1864.93 1525.68 Q1867.98 1529.03 1867.98 1534.82 M1863.72 1533.57 Q1863.68 1530.07 1861.75 1527.99 Q1859.86 1525.91 1856.71 1525.91 Q1853.14 1525.91 1850.99 1527.92 Q1848.86 1529.94 1848.54 1533.59 L1863.72 1533.57 Z" fill="#000000" fill-rule="nonzero" fill-opacity="1" /><path clip-path="url(#clip740)" d="M1893.63 1523.92 L1893.63 1527.9 Q1891.82 1526.9 1890 1526.42 Q1888.19 1525.91 1886.34 1525.91 Q1882.19 1525.91 1879.9 1528.55 Q1877.61 1531.16 1877.61 1535.91 Q1877.61 1540.65 1879.9 1543.29 Q1882.19 1545.91 1886.34 1545.91 Q1888.19 1545.91 1890 1545.42 Q1891.82 1544.91 1893.63 1543.92 L1893.63 1547.85 Q1891.85 1548.69 1889.93 1549.1 Q1888.03 1549.52 1885.88 1549.52 Q1880.02 1549.52 1876.57 1545.84 Q1873.12 1542.16 1873.12 1535.91 Q1873.12 1529.57 1876.59 1525.93 Q1880.09 1522.3 1886.15 1522.3 Q1888.12 1522.3 1890 1522.71 Q1891.87 1523.11 1893.63 1523.92 Z" fill="#000000" fill-rule="nonzero" fill-opacity="1" /><path clip-path="url(#clip740)" d="M1905.25 1515.56 L1905.25 1522.92 L1914.02 1522.92 L1914.02 1526.23 L1905.25 1526.23 L1905.25 1540.31 Q1905.25 1543.48 1906.11 1544.38 Q1906.99 1545.28 1909.65 1545.28 L1914.02 1545.28 L1914.02 1548.85 L1909.65 1548.85 Q1904.72 1548.85 1902.84 1547.02 Q1900.97 1545.17 1900.97 1540.31 L1900.97 1526.23 L1897.84 1526.23 L1897.84 1522.92 L1900.97 1522.92 L1900.97 1515.56 L1905.25 1515.56 Z" fill="#000000" fill-rule="nonzero" fill-opacity="1" /><path clip-path="url(#clip740)" d="M1992.16 1535.91 Q1992.16 1531.21 1990.21 1528.55 Q1988.29 1525.86 1984.91 1525.86 Q1981.53 1525.86 1979.59 1528.55 Q1977.67 1531.21 1977.67 1535.91 Q1977.67 1540.61 1979.59 1543.29 Q1981.53 1545.95 1984.91 1545.95 Q1988.29 1545.95 1990.21 1543.29 Q1992.16 1540.61 1992.16 1535.91 M1977.67 1526.86 Q1979.01 1524.54 1981.05 1523.43 Q1983.11 1522.3 1985.95 1522.3 Q1990.67 1522.3 1993.61 1526.05 Q1996.58 1529.8 1996.58 1535.91 Q1996.58 1542.02 1993.61 1545.77 Q1990.67 1549.52 1985.95 1549.52 Q1983.11 1549.52 1981.05 1548.41 Q1979.01 1547.27 1977.67 1544.96 L1977.67 1548.85 L1973.38 1548.85 L1973.38 1512.83 L1977.67 1512.83 L1977.67 1526.86 Z" fill="#000000" fill-rule="nonzero" fill-opacity="1" /><path clip-path="url(#clip740)" d="M2015.42 1535.82 Q2010.26 1535.82 2008.27 1537 Q2006.28 1538.18 2006.28 1541.02 Q2006.28 1543.29 2007.76 1544.63 Q2009.26 1545.95 2011.83 1545.95 Q2015.37 1545.95 2017.5 1543.45 Q2019.66 1540.93 2019.66 1536.76 L2019.66 1535.82 L2015.42 1535.82 M2023.92 1534.06 L2023.92 1548.85 L2019.66 1548.85 L2019.66 1544.91 Q2018.2 1547.27 2016.02 1548.41 Q2013.85 1549.52 2010.7 1549.52 Q2006.72 1549.52 2004.36 1547.3 Q2002.02 1545.05 2002.02 1541.3 Q2002.02 1536.93 2004.93 1534.7 Q2007.87 1532.48 2013.68 1532.48 L2019.66 1532.48 L2019.66 1532.07 Q2019.66 1529.13 2017.71 1527.53 Q2015.79 1525.91 2012.3 1525.91 Q2010.07 1525.91 2007.97 1526.44 Q2005.86 1526.97 2003.92 1528.04 L2003.92 1524.1 Q2006.25 1523.2 2008.45 1522.76 Q2010.65 1522.3 2012.73 1522.3 Q2018.36 1522.3 2021.14 1525.21 Q2023.92 1528.13 2023.92 1534.06 Z" fill="#000000" fill-rule="nonzero" fill-opacity="1" /><path clip-path="url(#clip740)" d="M2049.22 1523.69 L2049.22 1527.71 Q2047.41 1526.79 2045.47 1526.32 Q2043.52 1525.86 2041.44 1525.86 Q2038.27 1525.86 2036.67 1526.83 Q2035.1 1527.81 2035.1 1529.75 Q2035.1 1531.23 2036.23 1532.09 Q2037.36 1532.92 2040.79 1533.69 L2042.25 1534.01 Q2046.79 1534.98 2048.68 1536.76 Q2050.61 1538.52 2050.61 1541.7 Q2050.61 1545.31 2047.73 1547.41 Q2044.89 1549.52 2039.89 1549.52 Q2037.8 1549.52 2035.54 1549.1 Q2033.29 1548.71 2030.79 1547.9 L2030.79 1543.5 Q2033.15 1544.73 2035.44 1545.35 Q2037.73 1545.95 2039.98 1545.95 Q2042.99 1545.95 2044.61 1544.94 Q2046.23 1543.89 2046.23 1542.02 Q2046.23 1540.28 2045.05 1539.36 Q2043.89 1538.43 2039.93 1537.57 L2038.45 1537.23 Q2034.49 1536.39 2032.73 1534.68 Q2030.98 1532.95 2030.98 1529.94 Q2030.98 1526.28 2033.57 1524.29 Q2036.16 1522.3 2040.93 1522.3 Q2043.29 1522.3 2045.37 1522.64 Q2047.46 1522.99 2049.22 1523.69 Z" fill="#000000" fill-rule="nonzero" fill-opacity="1" /><path clip-path="url(#clip740)" d="M2079.56 1534.82 L2079.56 1536.9 L2059.98 1536.9 Q2060.26 1541.3 2062.62 1543.62 Q2065 1545.91 2069.24 1545.91 Q2071.69 1545.91 2073.98 1545.31 Q2076.3 1544.7 2078.57 1543.5 L2078.57 1547.53 Q2076.28 1548.5 2073.87 1549.01 Q2071.46 1549.52 2068.98 1549.52 Q2062.78 1549.52 2059.15 1545.91 Q2055.54 1542.3 2055.54 1536.14 Q2055.54 1529.77 2058.96 1526.05 Q2062.41 1522.3 2068.24 1522.3 Q2073.48 1522.3 2076.51 1525.68 Q2079.56 1529.03 2079.56 1534.82 M2075.3 1533.57 Q2075.26 1530.07 2073.34 1527.99 Q2071.44 1525.91 2068.29 1525.91 Q2064.73 1525.91 2062.57 1527.92 Q2060.44 1529.94 2060.12 1533.59 L2075.3 1533.57 Z" fill="#000000" fill-rule="nonzero" fill-opacity="1" /><path clip-path="url(#clip740)" d="M2106.25 1556.72 L2106.25 1560.03 L2081.62 1560.03 L2081.62 1556.72 L2106.25 1556.72 Z" fill="#000000" fill-rule="nonzero" fill-opacity="1" /><path clip-path="url(#clip740)" d="M2130.44 1527.9 Q2132.04 1525.03 2134.26 1523.66 Q2136.48 1522.3 2139.49 1522.3 Q2143.54 1522.3 2145.74 1525.14 Q2147.94 1527.97 2147.94 1533.2 L2147.94 1548.85 L2143.66 1548.85 L2143.66 1533.34 Q2143.66 1529.61 2142.34 1527.81 Q2141.02 1526 2138.31 1526 Q2135 1526 2133.08 1528.2 Q2131.16 1530.4 2131.16 1534.2 L2131.16 1548.85 L2126.88 1548.85 L2126.88 1533.34 Q2126.88 1529.59 2125.56 1527.81 Q2124.24 1526 2121.48 1526 Q2118.22 1526 2116.3 1528.22 Q2114.38 1530.42 2114.38 1534.2 L2114.38 1548.85 L2110.1 1548.85 L2110.1 1522.92 L2114.38 1522.92 L2114.38 1526.95 Q2115.84 1524.57 2117.87 1523.43 Q2119.91 1522.3 2122.71 1522.3 Q2125.54 1522.3 2127.5 1523.73 Q2129.49 1525.17 2130.44 1527.9 Z" fill="#000000" fill-rule="nonzero" fill-opacity="1" /><path clip-path="url(#clip740)" d="M2166.48 1525.91 Q2163.06 1525.91 2161.07 1528.59 Q2159.08 1531.26 2159.08 1535.91 Q2159.08 1540.56 2161.04 1543.25 Q2163.04 1545.91 2166.48 1545.91 Q2169.89 1545.91 2171.88 1543.22 Q2173.87 1540.54 2173.87 1535.91 Q2173.87 1531.3 2171.88 1528.62 Q2169.89 1525.91 2166.48 1525.91 M2166.48 1522.3 Q2172.04 1522.3 2175.21 1525.91 Q2178.38 1529.52 2178.38 1535.91 Q2178.38 1542.27 2175.21 1545.91 Q2172.04 1549.52 2166.48 1549.52 Q2160.91 1549.52 2157.73 1545.91 Q2154.59 1542.27 2154.59 1535.91 Q2154.59 1529.52 2157.73 1525.91 Q2160.91 1522.3 2166.48 1522.3 Z" fill="#000000" fill-rule="nonzero" fill-opacity="1" /><path clip-path="url(#clip740)" d="M2182.39 1522.92 L2186.9 1522.92 L2195 1544.68 L2203.1 1522.92 L2207.62 1522.92 L2197.9 1548.85 L2192.11 1548.85 L2182.39 1522.92 Z" fill="#000000" fill-rule="nonzero" fill-opacity="1" /><path clip-path="url(#clip740)" d="M2235.67 1534.82 L2235.67 1536.9 L2216.09 1536.9 Q2216.37 1541.3 2218.73 1543.62 Q2221.11 1545.91 2225.35 1545.91 Q2227.8 1545.91 2230.09 1545.31 Q2232.41 1544.7 2234.68 1543.5 L2234.68 1547.53 Q2232.39 1548.5 2229.98 1549.01 Q2227.57 1549.52 2225.09 1549.52 Q2218.89 1549.52 2215.26 1545.91 Q2211.65 1542.3 2211.65 1536.14 Q2211.65 1529.77 2215.07 1526.05 Q2218.52 1522.3 2224.35 1522.3 Q2229.59 1522.3 2232.62 1525.68 Q2235.67 1529.03 2235.67 1534.82 M2231.41 1533.57 Q2231.37 1530.07 2229.45 1527.99 Q2227.55 1525.91 2224.4 1525.91 Q2220.84 1525.91 2218.68 1527.92 Q2216.55 1529.94 2216.23 1533.59 L2231.41 1533.57 Z" fill="#000000" fill-rule="nonzero" fill-opacity="1" /><polyline clip-path="url(#clip742)" style="stroke:#000000; stroke-linecap:round; stroke-linejoin:round; stroke-width:2; stroke-opacity:0.1; fill:none" points="219.866,1445.72 2352.76,1445.72 "/>
<polyline clip-path="url(#clip742)" style="stroke:#000000; stroke-linecap:round; stroke-linejoin:round; stroke-width:2; stroke-opacity:0.1; fill:none" points="219.866,1229.22 2352.76,1229.22 "/>
<polyline clip-path="url(#clip742)" style="stroke:#000000; stroke-linecap:round; stroke-linejoin:round; stroke-width:2; stroke-opacity:0.1; fill:none" points="219.866,1012.72 2352.76,1012.72 "/>
<polyline clip-path="url(#clip742)" style="stroke:#000000; stroke-linecap:round; stroke-linejoin:round; stroke-width:2; stroke-opacity:0.1; fill:none" points="219.866,796.228 2352.76,796.228 "/>
<polyline clip-path="url(#clip742)" style="stroke:#000000; stroke-linecap:round; stroke-linejoin:round; stroke-width:2; stroke-opacity:0.1; fill:none" points="219.866,579.732 2352.76,579.732 "/>
<polyline clip-path="url(#clip742)" style="stroke:#000000; stroke-linecap:round; stroke-linejoin:round; stroke-width:2; stroke-opacity:0.1; fill:none" points="219.866,363.237 2352.76,363.237 "/>
<polyline clip-path="url(#clip742)" style="stroke:#000000; stroke-linecap:round; stroke-linejoin:round; stroke-width:2; stroke-opacity:0.1; fill:none" points="219.866,146.741 2352.76,146.741 "/>
<polyline clip-path="url(#clip740)" style="stroke:#000000; stroke-linecap:round; stroke-linejoin:round; stroke-width:4; stroke-opacity:1; fill:none" points="219.866,1486.45 219.866,47.2441 "/>
<polyline clip-path="url(#clip740)" style="stroke:#000000; stroke-linecap:round; stroke-linejoin:round; stroke-width:4; stroke-opacity:1; fill:none" points="219.866,1445.72 238.764,1445.72 "/>
<polyline clip-path="url(#clip740)" style="stroke:#000000; stroke-linecap:round; stroke-linejoin:round; stroke-width:4; stroke-opacity:1; fill:none" points="219.866,1229.22 238.764,1229.22 "/>
<polyline clip-path="url(#clip740)" style="stroke:#000000; stroke-linecap:round; stroke-linejoin:round; stroke-width:4; stroke-opacity:1; fill:none" points="219.866,1012.72 238.764,1012.72 "/>
<polyline clip-path="url(#clip740)" style="stroke:#000000; stroke-linecap:round; stroke-linejoin:round; stroke-width:4; stroke-opacity:1; fill:none" points="219.866,796.228 238.764,796.228 "/>
<polyline clip-path="url(#clip740)" style="stroke:#000000; stroke-linecap:round; stroke-linejoin:round; stroke-width:4; stroke-opacity:1; fill:none" points="219.866,579.732 238.764,579.732 "/>
<polyline clip-path="url(#clip740)" style="stroke:#000000; stroke-linecap:round; stroke-linejoin:round; stroke-width:4; stroke-opacity:1; fill:none" points="219.866,363.237 238.764,363.237 "/>
<polyline clip-path="url(#clip740)" style="stroke:#000000; stroke-linecap:round; stroke-linejoin:round; stroke-width:4; stroke-opacity:1; fill:none" points="219.866,146.741 238.764,146.741 "/>
<path clip-path="url(#clip740)" d="M126.691 1431.51 Q123.08 1431.51 121.251 1435.08 Q119.445 1438.62 119.445 1445.75 Q119.445 1452.86 121.251 1456.42 Q123.08 1459.96 126.691 1459.96 Q130.325 1459.96 132.13 1456.42 Q133.959 1452.86 133.959 1445.75 Q133.959 1438.62 132.13 1435.08 Q130.325 1431.51 126.691 1431.51 M126.691 1427.81 Q132.501 1427.81 135.556 1432.42 Q138.635 1437 138.635 1445.75 Q138.635 1454.48 135.556 1459.08 Q132.501 1463.67 126.691 1463.67 Q120.88 1463.67 117.802 1459.08 Q114.746 1454.48 114.746 1445.75 Q114.746 1437 117.802 1432.42 Q120.88 1427.81 126.691 1427.81 Z" fill="#000000" fill-rule="nonzero" fill-opacity="1" /><path clip-path="url(#clip740)" d="M146.853 1457.12 L151.737 1457.12 L151.737 1463 L146.853 1463 L146.853 1457.12 Z" fill="#000000" fill-rule="nonzero" fill-opacity="1" /><path clip-path="url(#clip740)" d="M171.922 1431.51 Q168.311 1431.51 166.482 1435.08 Q164.677 1438.62 164.677 1445.75 Q164.677 1452.86 166.482 1456.42 Q168.311 1459.96 171.922 1459.96 Q175.556 1459.96 177.362 1456.42 Q179.19 1452.86 179.19 1445.75 Q179.19 1438.62 177.362 1435.08 Q175.556 1431.51 171.922 1431.51 M171.922 1427.81 Q177.732 1427.81 180.788 1432.42 Q183.866 1437 183.866 1445.75 Q183.866 1454.48 180.788 1459.08 Q177.732 1463.67 171.922 1463.67 Q166.112 1463.67 163.033 1459.08 Q159.978 1454.48 159.978 1445.75 Q159.978 1437 163.033 1432.42 Q166.112 1427.81 171.922 1427.81 Z" fill="#000000" fill-rule="nonzero" fill-opacity="1" /><path clip-path="url(#clip740)" d="M127.917 1215.02 Q124.306 1215.02 122.478 1218.58 Q120.672 1222.13 120.672 1229.25 Q120.672 1236.36 122.478 1239.93 Q124.306 1243.47 127.917 1243.47 Q131.552 1243.47 133.357 1239.93 Q135.186 1236.36 135.186 1229.25 Q135.186 1222.13 133.357 1218.58 Q131.552 1215.02 127.917 1215.02 M127.917 1211.31 Q133.728 1211.31 136.783 1215.92 Q139.862 1220.5 139.862 1229.25 Q139.862 1237.98 136.783 1242.59 Q133.728 1247.17 127.917 1247.17 Q122.107 1247.17 119.029 1242.59 Q115.973 1237.98 115.973 1229.25 Q115.973 1220.5 119.029 1215.92 Q122.107 1211.31 127.917 1211.31 Z" fill="#000000" fill-rule="nonzero" fill-opacity="1" /><path clip-path="url(#clip740)" d="M148.079 1240.62 L152.964 1240.62 L152.964 1246.5 L148.079 1246.5 L148.079 1240.62 Z" fill="#000000" fill-rule="nonzero" fill-opacity="1" /><path clip-path="url(#clip740)" d="M163.959 1242.56 L171.598 1242.56 L171.598 1216.2 L163.288 1217.87 L163.288 1213.61 L171.552 1211.94 L176.227 1211.94 L176.227 1242.56 L183.866 1242.56 L183.866 1246.5 L163.959 1246.5 L163.959 1242.56 Z" fill="#000000" fill-rule="nonzero" fill-opacity="1" /><path clip-path="url(#clip740)" d="M128.288 998.523 Q124.677 998.523 122.848 1002.09 Q121.043 1005.63 121.043 1012.76 Q121.043 1019.87 122.848 1023.43 Q124.677 1026.97 128.288 1026.97 Q131.922 1026.97 133.728 1023.43 Q135.556 1019.87 135.556 1012.76 Q135.556 1005.63 133.728 1002.09 Q131.922 998.523 128.288 998.523 M128.288 994.819 Q134.098 994.819 137.154 999.426 Q140.232 1004.01 140.232 1012.76 Q140.232 1021.49 137.154 1026.09 Q134.098 1030.68 128.288 1030.68 Q122.478 1030.68 119.399 1026.09 Q116.343 1021.49 116.343 1012.76 Q116.343 1004.01 119.399 999.426 Q122.478 994.819 128.288 994.819 Z" fill="#000000" fill-rule="nonzero" fill-opacity="1" /><path clip-path="url(#clip740)" d="M148.45 1024.12 L153.334 1024.12 L153.334 1030 L148.45 1030 L148.45 1024.12 Z" fill="#000000" fill-rule="nonzero" fill-opacity="1" /><path clip-path="url(#clip740)" d="M167.547 1026.07 L183.866 1026.07 L183.866 1030 L161.922 1030 L161.922 1026.07 Q164.584 1023.31 169.167 1018.68 Q173.774 1014.03 174.954 1012.69 Q177.2 1010.17 178.079 1008.43 Q178.982 1006.67 178.982 1004.98 Q178.982 1002.23 177.038 1000.49 Q175.116 998.754 172.014 998.754 Q169.815 998.754 167.362 999.518 Q164.931 1000.28 162.153 1001.83 L162.153 997.111 Q164.977 995.976 167.431 995.398 Q169.885 994.819 171.922 994.819 Q177.292 994.819 180.487 997.504 Q183.681 1000.19 183.681 1004.68 Q183.681 1006.81 182.871 1008.73 Q182.084 1010.63 179.977 1013.22 Q179.399 1013.89 176.297 1017.11 Q173.195 1020.31 167.547 1026.07 Z" fill="#000000" fill-rule="nonzero" fill-opacity="1" /><path clip-path="url(#clip740)" d="M127.339 782.027 Q123.728 782.027 121.899 785.592 Q120.093 789.133 120.093 796.263 Q120.093 803.369 121.899 806.934 Q123.728 810.476 127.339 810.476 Q130.973 810.476 132.779 806.934 Q134.607 803.369 134.607 796.263 Q134.607 789.133 132.779 785.592 Q130.973 782.027 127.339 782.027 M127.339 778.323 Q133.149 778.323 136.204 782.93 Q139.283 787.513 139.283 796.263 Q139.283 804.99 136.204 809.596 Q133.149 814.18 127.339 814.18 Q121.529 814.18 118.45 809.596 Q115.394 804.99 115.394 796.263 Q115.394 787.513 118.45 782.93 Q121.529 778.323 127.339 778.323 Z" fill="#000000" fill-rule="nonzero" fill-opacity="1" /><path clip-path="url(#clip740)" d="M147.501 807.629 L152.385 807.629 L152.385 813.508 L147.501 813.508 L147.501 807.629 Z" fill="#000000" fill-rule="nonzero" fill-opacity="1" /><path clip-path="url(#clip740)" d="M176.737 794.874 Q180.093 795.592 181.968 797.86 Q183.866 800.129 183.866 803.462 Q183.866 808.578 180.348 811.379 Q176.829 814.18 170.348 814.18 Q168.172 814.18 165.857 813.74 Q163.565 813.323 161.112 812.467 L161.112 807.953 Q163.056 809.087 165.371 809.666 Q167.686 810.244 170.209 810.244 Q174.607 810.244 176.899 808.508 Q179.214 806.772 179.214 803.462 Q179.214 800.406 177.061 798.693 Q174.931 796.957 171.112 796.957 L167.084 796.957 L167.084 793.115 L171.297 793.115 Q174.746 793.115 176.575 791.749 Q178.403 790.36 178.403 787.768 Q178.403 785.106 176.505 783.694 Q174.63 782.258 171.112 782.258 Q169.19 782.258 166.991 782.675 Q164.792 783.092 162.153 783.971 L162.153 779.805 Q164.815 779.064 167.13 778.694 Q169.468 778.323 171.528 778.323 Q176.852 778.323 179.954 780.754 Q183.056 783.161 183.056 787.282 Q183.056 790.152 181.413 792.143 Q179.769 794.11 176.737 794.874 Z" fill="#000000" fill-rule="nonzero" fill-opacity="1" /><path clip-path="url(#clip740)" d="M126.205 565.531 Q122.593 565.531 120.765 569.096 Q118.959 572.638 118.959 579.767 Q118.959 586.874 120.765 590.438 Q122.593 593.98 126.205 593.98 Q129.839 593.98 131.644 590.438 Q133.473 586.874 133.473 579.767 Q133.473 572.638 131.644 569.096 Q129.839 565.531 126.205 565.531 M126.205 561.827 Q132.015 561.827 135.07 566.434 Q138.149 571.017 138.149 579.767 Q138.149 588.494 135.07 593.1 Q132.015 597.684 126.205 597.684 Q120.394 597.684 117.316 593.1 Q114.26 588.494 114.26 579.767 Q114.26 571.017 117.316 566.434 Q120.394 561.827 126.205 561.827 Z" fill="#000000" fill-rule="nonzero" fill-opacity="1" /><path clip-path="url(#clip740)" d="M146.366 591.133 L151.251 591.133 L151.251 597.012 L146.366 597.012 L146.366 591.133 Z" fill="#000000" fill-rule="nonzero" fill-opacity="1" /><path clip-path="url(#clip740)" d="M174.283 566.526 L162.477 584.975 L174.283 584.975 L174.283 566.526 M173.056 562.452 L178.936 562.452 L178.936 584.975 L183.866 584.975 L183.866 588.864 L178.936 588.864 L178.936 597.012 L174.283 597.012 L174.283 588.864 L158.681 588.864 L158.681 584.35 L173.056 562.452 Z" fill="#000000" fill-rule="nonzero" fill-opacity="1" /><path clip-path="url(#clip740)" d="M127.686 349.035 Q124.075 349.035 122.246 352.6 Q120.441 356.142 120.441 363.271 Q120.441 370.378 122.246 373.943 Q124.075 377.484 127.686 377.484 Q131.32 377.484 133.126 373.943 Q134.954 370.378 134.954 363.271 Q134.954 356.142 133.126 352.6 Q131.32 349.035 127.686 349.035 M127.686 345.332 Q133.496 345.332 136.552 349.938 Q139.63 354.521 139.63 363.271 Q139.63 371.998 136.552 376.605 Q133.496 381.188 127.686 381.188 Q121.876 381.188 118.797 376.605 Q115.742 371.998 115.742 363.271 Q115.742 354.521 118.797 349.938 Q121.876 345.332 127.686 345.332 Z" fill="#000000" fill-rule="nonzero" fill-opacity="1" /><path clip-path="url(#clip740)" d="M147.848 374.637 L152.732 374.637 L152.732 380.517 L147.848 380.517 L147.848 374.637 Z" fill="#000000" fill-rule="nonzero" fill-opacity="1" /><path clip-path="url(#clip740)" d="M162.964 345.957 L181.32 345.957 L181.32 349.892 L167.246 349.892 L167.246 358.364 Q168.264 358.017 169.283 357.855 Q170.302 357.669 171.32 357.669 Q177.107 357.669 180.487 360.841 Q183.866 364.012 183.866 369.429 Q183.866 375.007 180.394 378.109 Q176.922 381.188 170.602 381.188 Q168.427 381.188 166.158 380.818 Q163.913 380.447 161.505 379.706 L161.505 375.007 Q163.589 376.142 165.811 376.697 Q168.033 377.253 170.51 377.253 Q174.514 377.253 176.852 375.146 Q179.19 373.04 179.19 369.429 Q179.19 365.818 176.852 363.711 Q174.514 361.605 170.51 361.605 Q168.635 361.605 166.76 362.021 Q164.908 362.438 162.964 363.318 L162.964 345.957 Z" fill="#000000" fill-rule="nonzero" fill-opacity="1" /><path clip-path="url(#clip740)" d="M126.529 132.539 Q122.918 132.539 121.089 136.104 Q119.283 139.646 119.283 146.775 Q119.283 153.882 121.089 157.447 Q122.918 160.988 126.529 160.988 Q130.163 160.988 131.968 157.447 Q133.797 153.882 133.797 146.775 Q133.797 139.646 131.968 136.104 Q130.163 132.539 126.529 132.539 M126.529 128.836 Q132.339 128.836 135.394 133.442 Q138.473 138.026 138.473 146.775 Q138.473 155.502 135.394 160.109 Q132.339 164.692 126.529 164.692 Q120.718 164.692 117.64 160.109 Q114.584 155.502 114.584 146.775 Q114.584 138.026 117.64 133.442 Q120.718 128.836 126.529 128.836 Z" fill="#000000" fill-rule="nonzero" fill-opacity="1" /><path clip-path="url(#clip740)" d="M146.691 158.141 L151.575 158.141 L151.575 164.021 L146.691 164.021 L146.691 158.141 Z" fill="#000000" fill-rule="nonzero" fill-opacity="1" /><path clip-path="url(#clip740)" d="M172.339 144.877 Q169.19 144.877 167.339 147.03 Q165.51 149.183 165.51 152.933 Q165.51 156.66 167.339 158.836 Q169.19 160.988 172.339 160.988 Q175.487 160.988 177.315 158.836 Q179.167 156.66 179.167 152.933 Q179.167 149.183 177.315 147.03 Q175.487 144.877 172.339 144.877 M181.621 130.225 L181.621 134.484 Q179.862 133.651 178.056 133.211 Q176.274 132.771 174.514 132.771 Q169.885 132.771 167.431 135.896 Q165.001 139.021 164.653 145.34 Q166.019 143.326 168.079 142.262 Q170.139 141.174 172.616 141.174 Q177.825 141.174 180.834 144.345 Q183.866 147.493 183.866 152.933 Q183.866 158.257 180.718 161.474 Q177.57 164.692 172.339 164.692 Q166.343 164.692 163.172 160.109 Q160.001 155.502 160.001 146.775 Q160.001 138.581 163.89 133.72 Q167.778 128.836 174.329 128.836 Q176.089 128.836 177.871 129.183 Q179.676 129.53 181.621 130.225 Z" fill="#000000" fill-rule="nonzero" fill-opacity="1" /><path clip-path="url(#clip740)" d="M16.4842 1216.58 L16.4842 1189.27 L21.895 1189.27 L21.895 1210.15 L35.8996 1210.15 L35.8996 1191.31 L41.3104 1191.31 L41.3104 1210.15 L64.0042 1210.15 L64.0042 1216.58 L16.4842 1216.58 Z" fill="#000000" fill-rule="nonzero" fill-opacity="1" /><path clip-path="url(#clip740)" d="M28.3562 1184.09 L28.3562 1178.23 L64.0042 1178.23 L64.0042 1184.09 L28.3562 1184.09 M14.479 1184.09 L14.479 1178.23 L21.895 1178.23 L21.895 1184.09 L14.479 1184.09 Z" fill="#000000" fill-rule="nonzero" fill-opacity="1" /><path clip-path="url(#clip740)" d="M33.8307 1145.32 Q33.2578 1146.31 33.0032 1147.48 Q32.7167 1148.63 32.7167 1150.03 Q32.7167 1154.99 35.9632 1157.67 Q39.1779 1160.31 45.2253 1160.31 L64.0042 1160.31 L64.0042 1166.2 L28.3562 1166.2 L28.3562 1160.31 L33.8944 1160.31 Q30.6479 1158.46 29.0883 1155.5 Q27.4968 1152.54 27.4968 1148.31 Q27.4968 1147.71 27.5923 1146.97 Q27.656 1146.24 27.8151 1145.35 L33.8307 1145.32 Z" fill="#000000" fill-rule="nonzero" fill-opacity="1" /><path clip-path="url(#clip740)" d="M29.4065 1116.45 L34.9447 1116.45 Q33.6716 1118.93 33.035 1121.61 Q32.3984 1124.28 32.3984 1127.14 Q32.3984 1131.51 33.7352 1133.7 Q35.072 1135.87 37.7456 1135.87 Q39.7826 1135.87 40.9603 1134.31 Q42.1061 1132.75 43.1565 1128.04 L43.6021 1126.03 Q44.9389 1119.79 47.3897 1117.18 Q49.8086 1114.54 54.1691 1114.54 Q59.1344 1114.54 62.0308 1118.49 Q64.9272 1122.4 64.9272 1129.28 Q64.9272 1132.14 64.3543 1135.26 Q63.8132 1138.35 62.6992 1141.79 L56.6518 1141.79 Q58.3387 1138.54 59.198 1135.39 Q60.0256 1132.24 60.0256 1129.15 Q60.0256 1125.01 58.6251 1122.78 Q57.1929 1120.56 54.6147 1120.56 Q52.2276 1120.56 50.9545 1122.18 Q49.6813 1123.77 48.5037 1129.21 L48.0262 1131.25 Q46.8804 1136.69 44.5251 1139.11 Q42.138 1141.53 38.0002 1141.53 Q32.9713 1141.53 30.2341 1137.97 Q27.4968 1134.4 27.4968 1127.85 Q27.4968 1124.6 27.9743 1121.73 Q28.4517 1118.87 29.4065 1116.45 Z" fill="#000000" fill-rule="nonzero" fill-opacity="1" /><path clip-path="url(#clip740)" d="M18.2347 1099.42 L28.3562 1099.42 L28.3562 1087.36 L32.9077 1087.36 L32.9077 1099.42 L52.2594 1099.42 Q56.6199 1099.42 57.8613 1098.24 Q59.1026 1097.04 59.1026 1093.37 L59.1026 1087.36 L64.0042 1087.36 L64.0042 1093.37 Q64.0042 1100.15 61.4897 1102.73 Q58.9434 1105.31 52.2594 1105.31 L32.9077 1105.31 L32.9077 1109.61 L28.3562 1109.61 L28.3562 1105.31 L18.2347 1105.31 L18.2347 1099.42 Z" fill="#000000" fill-rule="nonzero" fill-opacity="1" /><path clip-path="url(#clip740)" d="M43.5384 1082.62 L43.5384 1065.46 L48.7583 1065.46 L48.7583 1082.62 L43.5384 1082.62 Z" fill="#000000" fill-rule="nonzero" fill-opacity="1" /><path clip-path="url(#clip740)" d="M20.8447 1034.78 Q20.8447 1041.78 26.0645 1045.92 Q31.2844 1050.02 40.2919 1050.02 Q49.2675 1050.02 54.4874 1045.92 Q59.7073 1041.78 59.7073 1034.78 Q59.7073 1027.78 54.4874 1023.7 Q49.2675 1019.6 40.2919 1019.6 Q31.2844 1019.6 26.0645 1023.7 Q20.8447 1027.78 20.8447 1034.78 M15.6248 1034.78 Q15.6248 1024.78 22.3406 1018.8 Q29.0246 1012.82 40.2919 1012.82 Q51.5274 1012.82 58.2432 1018.8 Q64.9272 1024.78 64.9272 1034.78 Q64.9272 1044.8 58.2432 1050.82 Q51.5592 1056.8 40.2919 1056.8 Q29.0246 1056.8 22.3406 1050.82 Q15.6248 1044.8 15.6248 1034.78 Z" fill="#000000" fill-rule="nonzero" fill-opacity="1" /><path clip-path="url(#clip740)" d="M33.8307 982.357 Q33.2578 983.344 33.0032 984.521 Q32.7167 985.667 32.7167 987.068 Q32.7167 992.033 35.9632 994.706 Q39.1779 997.348 45.2253 997.348 L64.0042 997.348 L64.0042 1003.24 L28.3562 1003.24 L28.3562 997.348 L33.8944 997.348 Q30.6479 995.502 29.0883 992.542 Q27.4968 989.582 27.4968 985.349 Q27.4968 984.744 27.5923 984.012 Q27.656 983.28 27.8151 982.389 L33.8307 982.357 Z" fill="#000000" fill-rule="nonzero" fill-opacity="1" /><path clip-path="url(#clip740)" d="M33.7671 953.902 L14.479 953.902 L14.479 948.046 L64.0042 948.046 L64.0042 953.902 L58.657 953.902 Q61.8398 955.748 63.3994 958.581 Q64.9272 961.382 64.9272 965.329 Q64.9272 971.79 59.771 975.864 Q54.6147 979.906 46.212 979.906 Q37.8093 979.906 32.6531 975.864 Q27.4968 971.79 27.4968 965.329 Q27.4968 961.382 29.0564 958.581 Q30.5842 955.748 33.7671 953.902 M46.212 973.859 Q52.6732 973.859 56.3653 971.217 Q60.0256 968.543 60.0256 963.896 Q60.0256 959.249 56.3653 956.576 Q52.6732 953.902 46.212 953.902 Q39.7508 953.902 36.0905 956.576 Q32.3984 959.249 32.3984 963.896 Q32.3984 968.543 36.0905 971.217 Q39.7508 973.859 46.212 973.859 Z" fill="#000000" fill-rule="nonzero" fill-opacity="1" /><path clip-path="url(#clip740)" d="M44.7161 905.491 L47.5806 905.491 L47.5806 932.418 Q53.6281 932.036 56.8109 928.79 Q59.9619 925.511 59.9619 919.687 Q59.9619 916.313 59.1344 913.162 Q58.3069 909.979 56.6518 906.86 L62.1899 906.86 Q63.5267 910.011 64.227 913.321 Q64.9272 916.631 64.9272 920.037 Q64.9272 928.567 59.9619 933.564 Q54.9967 938.529 46.5303 938.529 Q37.7774 938.529 32.6531 933.818 Q27.4968 929.076 27.4968 921.055 Q27.4968 913.862 32.1438 909.692 Q36.7589 905.491 44.7161 905.491 M42.9973 911.348 Q38.1912 911.411 35.3266 914.053 Q32.4621 916.663 32.4621 920.992 Q32.4621 925.893 35.2312 928.853 Q38.0002 931.781 43.0292 932.227 L42.9973 911.348 Z" fill="#000000" fill-rule="nonzero" fill-opacity="1" /><path clip-path="url(#clip740)" d="M33.8307 875.222 Q33.2578 876.209 33.0032 877.386 Q32.7167 878.532 32.7167 879.933 Q32.7167 884.898 35.9632 887.572 Q39.1779 890.213 45.2253 890.213 L64.0042 890.213 L64.0042 896.102 L28.3562 896.102 L28.3562 890.213 L33.8944 890.213 Q30.6479 888.367 29.0883 885.407 Q27.4968 882.447 27.4968 878.214 Q27.4968 877.609 27.5923 876.877 Q27.656 876.145 27.8151 875.254 L33.8307 875.222 Z" fill="#000000" fill-rule="nonzero" fill-opacity="1" /><path clip-path="url(#clip740)" d="M18.0438 819.618 L24.314 819.618 Q22.5634 823.278 21.704 826.524 Q20.8447 829.771 20.8447 832.795 Q20.8447 838.046 22.8817 840.911 Q24.9187 843.744 28.6745 843.744 Q31.8255 843.744 33.4488 841.866 Q35.0402 839.956 36.0269 834.673 L36.8226 830.79 Q38.1912 823.596 41.6605 820.191 Q45.098 816.753 50.8908 816.753 Q57.7976 816.753 61.3624 821.4 Q64.9272 826.015 64.9272 834.959 Q64.9272 838.333 64.1633 842.152 Q63.3994 845.94 61.9035 850.014 L55.2831 850.014 Q57.4793 846.099 58.5933 842.343 Q59.7073 838.587 59.7073 834.959 Q59.7073 829.453 57.543 826.461 Q55.3786 823.469 51.3682 823.469 Q47.8671 823.469 45.8937 825.633 Q43.9204 827.766 42.9337 832.667 L42.1698 836.582 Q40.7375 843.776 37.682 846.99 Q34.6264 850.205 29.1837 850.205 Q22.8817 850.205 19.2532 845.781 Q15.6248 841.325 15.6248 833.527 Q15.6248 830.185 16.2295 826.715 Q16.8343 823.246 18.0438 819.618 Z" fill="#000000" fill-rule="nonzero" fill-opacity="1" /><path clip-path="url(#clip740)" d="M44.7161 776.49 L47.5806 776.49 L47.5806 803.417 Q53.6281 803.035 56.8109 799.789 Q59.9619 796.51 59.9619 790.686 Q59.9619 787.312 59.1344 784.161 Q58.3069 780.978 56.6518 777.859 L62.1899 777.859 Q63.5267 781.01 64.227 784.32 Q64.9272 787.63 64.9272 791.036 Q64.9272 799.566 59.9619 804.563 Q54.9967 809.528 46.5303 809.528 Q37.7774 809.528 32.6531 804.817 Q27.4968 800.075 27.4968 792.054 Q27.4968 784.861 32.1438 780.691 Q36.7589 776.49 44.7161 776.49 M42.9973 782.346 Q38.1912 782.41 35.3266 785.052 Q32.4621 787.662 32.4621 791.991 Q32.4621 796.892 35.2312 799.852 Q38.0002 802.78 43.0292 803.226 L42.9973 782.346 Z" fill="#000000" fill-rule="nonzero" fill-opacity="1" /><path clip-path="url(#clip740)" d="M42.4881 737.245 L64.0042 737.245 L64.0042 743.102 L42.679 743.102 Q37.6183 743.102 35.1038 745.075 Q32.5894 747.049 32.5894 750.995 Q32.5894 755.738 35.6131 758.475 Q38.6368 761.212 43.8567 761.212 L64.0042 761.212 L64.0042 767.101 L28.3562 767.101 L28.3562 761.212 L33.8944 761.212 Q30.6797 759.112 29.0883 756.279 Q27.4968 753.414 27.4968 749.69 Q27.4968 743.547 31.3163 740.396 Q35.1038 737.245 42.4881 737.245 Z" fill="#000000" fill-rule="nonzero" fill-opacity="1" /><path clip-path="url(#clip740)" d="M29.4065 702.839 L34.9447 702.839 Q33.6716 705.321 33.035 707.995 Q32.3984 710.669 32.3984 713.533 Q32.3984 717.894 33.7352 720.09 Q35.072 722.254 37.7456 722.254 Q39.7826 722.254 40.9603 720.695 Q42.1061 719.135 43.1565 714.424 L43.6021 712.419 Q44.9389 706.181 47.3897 703.571 Q49.8086 700.929 54.1691 700.929 Q59.1344 700.929 62.0308 704.876 Q64.9272 708.791 64.9272 715.666 Q64.9272 718.53 64.3543 721.649 Q63.8132 724.737 62.6992 728.174 L56.6518 728.174 Q58.3387 724.928 59.198 721.777 Q60.0256 718.626 60.0256 715.538 Q60.0256 711.401 58.6251 709.173 Q57.1929 706.945 54.6147 706.945 Q52.2276 706.945 50.9545 708.568 Q49.6813 710.159 48.5037 715.602 L48.0262 717.639 Q46.8804 723.082 44.5251 725.501 Q42.138 727.92 38.0002 727.92 Q32.9713 727.92 30.2341 724.355 Q27.4968 720.79 27.4968 714.233 Q27.4968 710.987 27.9743 708.122 Q28.4517 705.258 29.4065 702.839 Z" fill="#000000" fill-rule="nonzero" fill-opacity="1" /><path clip-path="url(#clip740)" d="M28.3562 691.603 L28.3562 685.747 L64.0042 685.747 L64.0042 691.603 L28.3562 691.603 M14.479 691.603 L14.479 685.747 L21.895 685.747 L21.895 691.603 L14.479 691.603 Z" fill="#000000" fill-rule="nonzero" fill-opacity="1" /><path clip-path="url(#clip740)" d="M18.2347 667.7 L28.3562 667.7 L28.3562 655.637 L32.9077 655.637 L32.9077 667.7 L52.2594 667.7 Q56.6199 667.7 57.8613 666.522 Q59.1026 665.313 59.1026 661.653 L59.1026 655.637 L64.0042 655.637 L64.0042 661.653 Q64.0042 668.432 61.4897 671.01 Q58.9434 673.588 52.2594 673.588 L32.9077 673.588 L32.9077 677.885 L28.3562 677.885 L28.3562 673.588 L18.2347 673.588 L18.2347 667.7 Z" fill="#000000" fill-rule="nonzero" fill-opacity="1" /><path clip-path="url(#clip740)" d="M28.3562 647.935 L28.3562 642.078 L64.0042 642.078 L64.0042 647.935 L28.3562 647.935 M14.479 647.935 L14.479 642.078 L21.895 642.078 L21.895 647.935 L14.479 647.935 Z" fill="#000000" fill-rule="nonzero" fill-opacity="1" /><path clip-path="url(#clip740)" d="M28.3562 634.026 L28.3562 627.819 L58.275 616.679 L28.3562 605.539 L28.3562 599.332 L64.0042 612.7 L64.0042 620.658 L28.3562 634.026 Z" fill="#000000" fill-rule="nonzero" fill-opacity="1" /><path clip-path="url(#clip740)" d="M28.3562 591.248 L28.3562 585.392 L64.0042 585.392 L64.0042 591.248 L28.3562 591.248 M14.479 591.248 L14.479 585.392 L21.895 585.392 L21.895 591.248 L14.479 591.248 Z" fill="#000000" fill-rule="nonzero" fill-opacity="1" /><path clip-path="url(#clip740)" d="M18.2347 567.345 L28.3562 567.345 L28.3562 555.282 L32.9077 555.282 L32.9077 567.345 L52.2594 567.345 Q56.6199 567.345 57.8613 566.167 Q59.1026 564.958 59.1026 561.297 L59.1026 555.282 L64.0042 555.282 L64.0042 561.297 Q64.0042 568.077 61.4897 570.655 Q58.9434 573.233 52.2594 573.233 L32.9077 573.233 L32.9077 577.53 L28.3562 577.53 L28.3562 573.233 L18.2347 573.233 L18.2347 567.345 Z" fill="#000000" fill-rule="nonzero" fill-opacity="1" /><path clip-path="url(#clip740)" d="M67.3143 532.747 Q73.68 535.23 75.6216 537.585 Q77.5631 539.94 77.5631 543.887 L77.5631 548.566 L72.6615 548.566 L72.6615 545.128 Q72.6615 542.709 71.5157 541.373 Q70.3699 540.036 66.1048 538.413 L63.4312 537.362 L28.3562 551.781 L28.3562 545.574 L56.238 534.434 L28.3562 523.294 L28.3562 517.087 L67.3143 532.747 Z" fill="#000000" fill-rule="nonzero" fill-opacity="1" /><path clip-path="url(#clip740)" d="M16.4842 488.028 L16.4842 481.599 L64.0042 481.599 L64.0042 488.028 L16.4842 488.028 Z" fill="#000000" fill-rule="nonzero" fill-opacity="1" /><path clip-path="url(#clip740)" d="M42.4881 439.426 L64.0042 439.426 L64.0042 445.282 L42.679 445.282 Q37.6183 445.282 35.1038 447.256 Q32.5894 449.229 32.5894 453.176 Q32.5894 457.918 35.6131 460.655 Q38.6368 463.393 43.8567 463.393 L64.0042 463.393 L64.0042 469.281 L28.3562 469.281 L28.3562 463.393 L33.8944 463.393 Q30.6797 461.292 29.0883 458.459 Q27.4968 455.595 27.4968 451.871 Q27.4968 445.728 31.3163 442.577 Q35.1038 439.426 42.4881 439.426 Z" fill="#000000" fill-rule="nonzero" fill-opacity="1" /><path clip-path="url(#clip740)" d="M33.7671 404.287 L14.479 404.287 L14.479 398.431 L64.0042 398.431 L64.0042 404.287 L58.657 404.287 Q61.8398 406.133 63.3994 408.966 Q64.9272 411.767 64.9272 415.714 Q64.9272 422.175 59.771 426.249 Q54.6147 430.291 46.212 430.291 Q37.8093 430.291 32.6531 426.249 Q27.4968 422.175 27.4968 415.714 Q27.4968 411.767 29.0564 408.966 Q30.5842 406.133 33.7671 404.287 M46.212 424.244 Q52.6732 424.244 56.3653 421.602 Q60.0256 418.928 60.0256 414.281 Q60.0256 409.634 56.3653 406.961 Q52.6732 404.287 46.212 404.287 Q39.7508 404.287 36.0905 406.961 Q32.3984 409.634 32.3984 414.281 Q32.3984 418.928 36.0905 421.602 Q39.7508 424.244 46.212 424.244 Z" fill="#000000" fill-rule="nonzero" fill-opacity="1" /><path clip-path="url(#clip740)" d="M44.7161 355.876 L47.5806 355.876 L47.5806 382.803 Q53.6281 382.421 56.8109 379.174 Q59.9619 375.896 59.9619 370.071 Q59.9619 366.698 59.1344 363.547 Q58.3069 360.364 56.6518 357.245 L62.1899 357.245 Q63.5267 360.396 64.227 363.706 Q64.9272 367.016 64.9272 370.422 Q64.9272 378.952 59.9619 383.949 Q54.9967 388.914 46.5303 388.914 Q37.7774 388.914 32.6531 384.203 Q27.4968 379.461 27.4968 371.44 Q27.4968 364.247 32.1438 360.077 Q36.7589 355.876 44.7161 355.876 M42.9973 361.732 Q38.1912 361.796 35.3266 364.438 Q32.4621 367.048 32.4621 371.376 Q32.4621 376.278 35.2312 379.238 Q38.0002 382.166 43.0292 382.612 L42.9973 361.732 Z" fill="#000000" fill-rule="nonzero" fill-opacity="1" /><path clip-path="url(#clip740)" d="M28.3562 317.777 L45.7028 330.668 L64.0042 317.109 L64.0042 324.016 L49.9996 334.392 L64.0042 344.768 L64.0042 351.675 L45.3526 337.829 L28.3562 350.497 L28.3562 343.59 L41.0558 334.137 L28.3562 324.684 L28.3562 317.777 Z" fill="#000000" fill-rule="nonzero" fill-opacity="1" /><path clip-path="url(#clip742)" d="M337.179 1174.53 L337.179 1445.72 L599.009 1445.72 L599.009 1174.53 L337.179 1174.53 L337.179 1174.53  Z" fill="#009af9" fill-rule="evenodd" fill-opacity="1"/>
<polyline clip-path="url(#clip742)" style="stroke:#000000; stroke-linecap:round; stroke-linejoin:round; stroke-width:4; stroke-opacity:1; fill:none" points="337.179,1174.53 337.179,1445.72 599.009,1445.72 599.009,1174.53 337.179,1174.53 "/>
<path clip-path="url(#clip742)" d="M664.466 1333.29 L664.466 1445.72 L926.295 1445.72 L926.295 1333.29 L664.466 1333.29 L664.466 1333.29  Z" fill="#009af9" fill-rule="evenodd" fill-opacity="1"/>
<polyline clip-path="url(#clip742)" style="stroke:#000000; stroke-linecap:round; stroke-linejoin:round; stroke-width:4; stroke-opacity:1; fill:none" points="664.466,1333.29 664.466,1445.72 926.295,1445.72 926.295,1333.29 664.466,1333.29 "/>
<path clip-path="url(#clip742)" d="M991.753 87.9763 L991.753 1445.72 L1253.58 1445.72 L1253.58 87.9763 L991.753 87.9763 L991.753 87.9763  Z" fill="#009af9" fill-rule="evenodd" fill-opacity="1"/>
<polyline clip-path="url(#clip742)" style="stroke:#000000; stroke-linecap:round; stroke-linejoin:round; stroke-width:4; stroke-opacity:1; fill:none" points="991.753,87.9763 991.753,1445.72 1253.58,1445.72 1253.58,87.9763 991.753,87.9763 "/>
<path clip-path="url(#clip742)" d="M1319.04 1119.76 L1319.04 1445.72 L1580.87 1445.72 L1580.87 1119.76 L1319.04 1119.76 L1319.04 1119.76  Z" fill="#009af9" fill-rule="evenodd" fill-opacity="1"/>
<polyline clip-path="url(#clip742)" style="stroke:#000000; stroke-linecap:round; stroke-linejoin:round; stroke-width:4; stroke-opacity:1; fill:none" points="1319.04,1119.76 1319.04,1445.72 1580.87,1445.72 1580.87,1119.76 1319.04,1119.76 "/>
<path clip-path="url(#clip742)" d="M1646.33 1445.72 L1646.33 1445.72 L1908.16 1445.72 L1908.16 1445.72 L1646.33 1445.72 L1646.33 1445.72  Z" fill="#009af9" fill-rule="evenodd" fill-opacity="1"/>
<polyline clip-path="url(#clip742)" style="stroke:#000000; stroke-linecap:round; stroke-linejoin:round; stroke-width:4; stroke-opacity:1; fill:none" points="1646.33,1445.72 1646.33,1445.72 1908.16,1445.72 1646.33,1445.72 "/>
<path clip-path="url(#clip742)" d="M1973.61 1445.72 L1973.61 1445.72 L2235.44 1445.72 L2235.44 1445.72 L1973.61 1445.72 L1973.61 1445.72  Z" fill="#009af9" fill-rule="evenodd" fill-opacity="1"/>
<polyline clip-path="url(#clip742)" style="stroke:#000000; stroke-linecap:round; stroke-linejoin:round; stroke-width:4; stroke-opacity:1; fill:none" points="1973.61,1445.72 1973.61,1445.72 2235.44,1445.72 1973.61,1445.72 "/>
<circle clip-path="url(#clip742)" style="fill:#009af9; stroke:none; fill-opacity:0" cx="468.094" cy="1174.53" r="2"/>
<circle clip-path="url(#clip742)" style="fill:#009af9; stroke:none; fill-opacity:0" cx="795.381" cy="1333.29" r="2"/>
<circle clip-path="url(#clip742)" style="fill:#009af9; stroke:none; fill-opacity:0" cx="1122.67" cy="87.9763" r="2"/>
<circle clip-path="url(#clip742)" style="fill:#009af9; stroke:none; fill-opacity:0" cx="1449.95" cy="1119.76" r="2"/>
<circle clip-path="url(#clip742)" style="fill:#009af9; stroke:none; fill-opacity:0" cx="1777.24" cy="1445.72" r="2"/>
<circle clip-path="url(#clip742)" style="fill:#009af9; stroke:none; fill-opacity:0" cx="2104.53" cy="1445.72" r="2"/>
</svg>
