<?xml version="1.0" encoding="utf-8"?>
<svg xmlns="http://www.w3.org/2000/svg" xmlns:xlink="http://www.w3.org/1999/xlink" width="600" height="400" viewBox="0 0 2400 1600">
<defs>
  <clipPath id="clip100">
    <rect x="0" y="0" width="2400" height="1600"/>
  </clipPath>
</defs>
<path clip-path="url(#clip100)" d="M0 1600 L2400 1600 L2400 0 L0 0  Z" fill="#ffffff" fill-rule="evenodd" fill-opacity="1"/>
<defs>
  <clipPath id="clip101">
    <rect x="480" y="0" width="1681" height="1600"/>
  </clipPath>
</defs>
<path clip-path="url(#clip100)" d="M156.598 1486.45 L2352.76 1486.45 L2352.76 47.2441 L156.598 47.2441  Z" fill="#ffffff" fill-rule="evenodd" fill-opacity="1"/>
<defs>
  <clipPath id="clip102">
    <rect x="156" y="47" width="2197" height="1440"/>
  </clipPath>
</defs>
<polyline clip-path="url(#clip102)" style="stroke:#000000; stroke-linecap:round; stroke-linejoin:round; stroke-width:2; stroke-opacity:0.1; fill:none" points="412.189,1486.45 412.189,47.2441 "/>
<polyline clip-path="url(#clip102)" style="stroke:#000000; stroke-linecap:round; stroke-linejoin:round; stroke-width:2; stroke-opacity:0.1; fill:none" points="749.184,1486.45 749.184,47.2441 "/>
<polyline clip-path="url(#clip102)" style="stroke:#000000; stroke-linecap:round; stroke-linejoin:round; stroke-width:2; stroke-opacity:0.1; fill:none" points="1086.18,1486.45 1086.18,47.2441 "/>
<polyline clip-path="url(#clip102)" style="stroke:#000000; stroke-linecap:round; stroke-linejoin:round; stroke-width:2; stroke-opacity:0.1; fill:none" points="1423.17,1486.45 1423.17,47.2441 "/>
<polyline clip-path="url(#clip102)" style="stroke:#000000; stroke-linecap:round; stroke-linejoin:round; stroke-width:2; stroke-opacity:0.1; fill:none" points="1760.17,1486.45 1760.17,47.2441 "/>
<polyline clip-path="url(#clip102)" style="stroke:#000000; stroke-linecap:round; stroke-linejoin:round; stroke-width:2; stroke-opacity:0.1; fill:none" points="2097.17,1486.45 2097.17,47.2441 "/>
<polyline clip-path="url(#clip100)" style="stroke:#000000; stroke-linecap:round; stroke-linejoin:round; stroke-width:4; stroke-opacity:1; fill:none" points="156.598,1486.45 2352.76,1486.45 "/>
<polyline clip-path="url(#clip100)" style="stroke:#000000; stroke-linecap:round; stroke-linejoin:round; stroke-width:4; stroke-opacity:1; fill:none" points="412.189,1486.45 412.189,1467.55 "/>
<polyline clip-path="url(#clip100)" style="stroke:#000000; stroke-linecap:round; stroke-linejoin:round; stroke-width:4; stroke-opacity:1; fill:none" points="749.184,1486.45 749.184,1467.55 "/>
<polyline clip-path="url(#clip100)" style="stroke:#000000; stroke-linecap:round; stroke-linejoin:round; stroke-width:4; stroke-opacity:1; fill:none" points="1086.18,1486.45 1086.18,1467.55 "/>
<polyline clip-path="url(#clip100)" style="stroke:#000000; stroke-linecap:round; stroke-linejoin:round; stroke-width:4; stroke-opacity:1; fill:none" points="1423.17,1486.45 1423.17,1467.55 "/>
<polyline clip-path="url(#clip100)" style="stroke:#000000; stroke-linecap:round; stroke-linejoin:round; stroke-width:4; stroke-opacity:1; fill:none" points="1760.17,1486.45 1760.17,1467.55 "/>
<polyline clip-path="url(#clip100)" style="stroke:#000000; stroke-linecap:round; stroke-linejoin:round; stroke-width:4; stroke-opacity:1; fill:none" points="2097.17,1486.45 2097.17,1467.55 "/>
<path clip-path="url(#clip100)" d="M296.715 1526.9 Q295.997 1526.49 295.141 1526.3 Q294.308 1526.09 293.289 1526.09 Q289.678 1526.09 287.734 1528.45 Q285.812 1530.79 285.812 1535.19 L285.812 1548.85 L281.53 1548.85 L281.53 1522.92 L285.812 1522.92 L285.812 1526.95 Q287.155 1524.59 289.308 1523.45 Q291.46 1522.3 294.539 1522.3 Q294.979 1522.3 295.511 1522.37 Q296.044 1522.41 296.692 1522.53 L296.715 1526.9 Z" fill="#000000" fill-rule="nonzero" fill-opacity="1" /><path clip-path="url(#clip100)" d="M301.183 1522.92 L305.442 1522.92 L305.442 1548.85 L301.183 1548.85 L301.183 1522.92 M301.183 1512.83 L305.442 1512.83 L305.442 1518.22 L301.183 1518.22 L301.183 1512.83 Z" fill="#000000" fill-rule="nonzero" fill-opacity="1" /><path clip-path="url(#clip100)" d="M330.881 1523.69 L330.881 1527.71 Q329.076 1526.79 327.132 1526.32 Q325.187 1525.86 323.104 1525.86 Q319.932 1525.86 318.335 1526.83 Q316.761 1527.81 316.761 1529.75 Q316.761 1531.23 317.895 1532.09 Q319.03 1532.92 322.456 1533.69 L323.914 1534.01 Q328.451 1534.98 330.349 1536.76 Q332.27 1538.52 332.27 1541.7 Q332.27 1545.31 329.4 1547.41 Q326.553 1549.52 321.553 1549.52 Q319.47 1549.52 317.201 1549.1 Q314.956 1548.71 312.456 1547.9 L312.456 1543.5 Q314.817 1544.73 317.108 1545.35 Q319.4 1545.95 321.645 1545.95 Q324.655 1545.95 326.275 1544.94 Q327.895 1543.89 327.895 1542.02 Q327.895 1540.28 326.715 1539.36 Q325.557 1538.43 321.599 1537.57 L320.118 1537.23 Q316.159 1536.39 314.4 1534.68 Q312.641 1532.95 312.641 1529.94 Q312.641 1526.28 315.233 1524.29 Q317.826 1522.3 322.594 1522.3 Q324.956 1522.3 327.039 1522.64 Q329.122 1522.99 330.881 1523.69 Z" fill="#000000" fill-rule="nonzero" fill-opacity="1" /><path clip-path="url(#clip100)" d="M338.891 1512.83 L343.173 1512.83 L343.173 1534.1 L355.881 1522.92 L361.321 1522.92 L347.571 1535.05 L361.9 1548.85 L356.344 1548.85 L343.173 1536.19 L343.173 1548.85 L338.891 1548.85 L338.891 1512.83 Z" fill="#000000" fill-rule="nonzero" fill-opacity="1" /><path clip-path="url(#clip100)" d="M386.205 1556.72 L386.205 1560.03 L361.576 1560.03 L361.576 1556.72 L386.205 1556.72 Z" fill="#000000" fill-rule="nonzero" fill-opacity="1" /><path clip-path="url(#clip100)" d="M401.992 1535.82 Q396.83 1535.82 394.839 1537 Q392.849 1538.18 392.849 1541.02 Q392.849 1543.29 394.33 1544.63 Q395.835 1545.95 398.404 1545.95 Q401.946 1545.95 404.076 1543.45 Q406.228 1540.93 406.228 1536.76 L406.228 1535.82 L401.992 1535.82 M410.488 1534.06 L410.488 1548.85 L406.228 1548.85 L406.228 1544.91 Q404.77 1547.27 402.594 1548.41 Q400.418 1549.52 397.27 1549.52 Q393.289 1549.52 390.927 1547.3 Q388.59 1545.05 388.59 1541.3 Q388.59 1536.93 391.506 1534.7 Q394.446 1532.48 400.256 1532.48 L406.228 1532.48 L406.228 1532.07 Q406.228 1529.13 404.284 1527.53 Q402.363 1525.91 398.867 1525.91 Q396.645 1525.91 394.539 1526.44 Q392.432 1526.97 390.488 1528.04 L390.488 1524.1 Q392.826 1523.2 395.025 1522.76 Q397.224 1522.3 399.307 1522.3 Q404.932 1522.3 407.71 1525.21 Q410.488 1528.13 410.488 1534.06 Z" fill="#000000" fill-rule="nonzero" fill-opacity="1" /><path clip-path="url(#clip100)" d="M416.205 1522.92 L420.719 1522.92 L428.821 1544.68 L436.923 1522.92 L441.436 1522.92 L431.714 1548.85 L425.927 1548.85 L416.205 1522.92 Z" fill="#000000" fill-rule="nonzero" fill-opacity="1" /><path clip-path="url(#clip100)" d="M469.492 1534.82 L469.492 1536.9 L449.909 1536.9 Q450.186 1541.3 452.547 1543.62 Q454.932 1545.91 459.168 1545.91 Q461.622 1545.91 463.913 1545.31 Q466.228 1544.7 468.496 1543.5 L468.496 1547.53 Q466.205 1548.5 463.797 1549.01 Q461.39 1549.52 458.913 1549.52 Q452.71 1549.52 449.075 1545.91 Q445.464 1542.3 445.464 1536.14 Q445.464 1529.77 448.89 1526.05 Q452.339 1522.3 458.172 1522.3 Q463.404 1522.3 466.436 1525.68 Q469.492 1529.03 469.492 1534.82 M465.233 1533.57 Q465.186 1530.07 463.265 1527.99 Q461.367 1525.91 458.219 1525.91 Q454.654 1525.91 452.501 1527.92 Q450.372 1529.94 450.048 1533.59 L465.233 1533.57 Z" fill="#000000" fill-rule="nonzero" fill-opacity="1" /><path clip-path="url(#clip100)" d="M491.506 1526.9 Q490.788 1526.49 489.932 1526.3 Q489.098 1526.09 488.08 1526.09 Q484.469 1526.09 482.524 1528.45 Q480.603 1530.79 480.603 1535.19 L480.603 1548.85 L476.321 1548.85 L476.321 1522.92 L480.603 1522.92 L480.603 1526.95 Q481.945 1524.59 484.098 1523.45 Q486.251 1522.3 489.33 1522.3 Q489.77 1522.3 490.302 1522.37 Q490.834 1522.41 491.482 1522.53 L491.506 1526.9 Z" fill="#000000" fill-rule="nonzero" fill-opacity="1" /><path clip-path="url(#clip100)" d="M512.501 1523.69 L512.501 1527.71 Q510.695 1526.79 508.751 1526.32 Q506.806 1525.86 504.723 1525.86 Q501.552 1525.86 499.955 1526.83 Q498.381 1527.81 498.381 1529.75 Q498.381 1531.23 499.515 1532.09 Q500.649 1532.92 504.075 1533.69 L505.533 1534.01 Q510.07 1534.98 511.968 1536.76 Q513.89 1538.52 513.89 1541.7 Q513.89 1545.31 511.019 1547.41 Q508.172 1549.52 503.172 1549.52 Q501.089 1549.52 498.82 1549.1 Q496.575 1548.71 494.075 1547.9 L494.075 1543.5 Q496.436 1544.73 498.728 1545.35 Q501.019 1545.95 503.265 1545.95 Q506.274 1545.95 507.894 1544.94 Q509.515 1543.89 509.515 1542.02 Q509.515 1540.28 508.334 1539.36 Q507.177 1538.43 503.219 1537.57 L501.737 1537.23 Q497.779 1536.39 496.019 1534.68 Q494.26 1532.95 494.26 1529.94 Q494.26 1526.28 496.853 1524.29 Q499.445 1522.3 504.214 1522.3 Q506.575 1522.3 508.658 1522.64 Q510.742 1522.99 512.501 1523.69 Z" fill="#000000" fill-rule="nonzero" fill-opacity="1" /><path clip-path="url(#clip100)" d="M542.848 1534.82 L542.848 1536.9 L523.265 1536.9 Q523.542 1541.3 525.904 1543.62 Q528.288 1545.91 532.524 1545.91 Q534.978 1545.91 537.269 1545.31 Q539.584 1544.7 541.853 1543.5 L541.853 1547.53 Q539.561 1548.5 537.154 1549.01 Q534.746 1549.52 532.269 1549.52 Q526.066 1549.52 522.431 1545.91 Q518.82 1542.3 518.82 1536.14 Q518.82 1529.77 522.246 1526.05 Q525.695 1522.3 531.529 1522.3 Q536.76 1522.3 539.792 1525.68 Q542.848 1529.03 542.848 1534.82 M538.589 1533.57 Q538.542 1530.07 536.621 1527.99 Q534.723 1525.91 531.575 1525.91 Q528.01 1525.91 525.857 1527.92 Q523.728 1529.94 523.404 1533.59 L538.589 1533.57 Z" fill="#000000" fill-rule="nonzero" fill-opacity="1" /><path clip-path="url(#clip100)" d="M635.828 1535.91 Q635.828 1531.21 633.884 1528.55 Q631.963 1525.86 628.583 1525.86 Q625.203 1525.86 623.259 1528.55 Q621.338 1531.21 621.338 1535.91 Q621.338 1540.61 623.259 1543.29 Q625.203 1545.95 628.583 1545.95 Q631.963 1545.95 633.884 1543.29 Q635.828 1540.61 635.828 1535.91 M621.338 1526.86 Q622.68 1524.54 624.717 1523.43 Q626.777 1522.3 629.625 1522.3 Q634.347 1522.3 637.287 1526.05 Q640.25 1529.8 640.25 1535.91 Q640.25 1542.02 637.287 1545.77 Q634.347 1549.52 629.625 1549.52 Q626.777 1549.52 624.717 1548.41 Q622.68 1547.27 621.338 1544.96 L621.338 1548.85 L617.055 1548.85 L617.055 1512.83 L621.338 1512.83 L621.338 1526.86 Z" fill="#000000" fill-rule="nonzero" fill-opacity="1" /><path clip-path="url(#clip100)" d="M662.333 1526.9 Q661.615 1526.49 660.759 1526.3 Q659.925 1526.09 658.907 1526.09 Q655.296 1526.09 653.351 1528.45 Q651.43 1530.79 651.43 1535.19 L651.43 1548.85 L647.148 1548.85 L647.148 1522.92 L651.43 1522.92 L651.43 1526.95 Q652.773 1524.59 654.925 1523.45 Q657.078 1522.3 660.157 1522.3 Q660.597 1522.3 661.129 1522.37 Q661.662 1522.41 662.31 1522.53 L662.333 1526.9 Z" fill="#000000" fill-rule="nonzero" fill-opacity="1" /><path clip-path="url(#clip100)" d="M687.935 1534.82 L687.935 1536.9 L668.351 1536.9 Q668.629 1541.3 670.99 1543.62 Q673.374 1545.91 677.61 1545.91 Q680.064 1545.91 682.356 1545.31 Q684.671 1544.7 686.939 1543.5 L686.939 1547.53 Q684.647 1548.5 682.24 1549.01 Q679.833 1549.52 677.356 1549.52 Q671.152 1549.52 667.518 1545.91 Q663.907 1542.3 663.907 1536.14 Q663.907 1529.77 667.333 1526.05 Q670.782 1522.3 676.615 1522.3 Q681.847 1522.3 684.879 1525.68 Q687.935 1529.03 687.935 1534.82 M683.675 1533.57 Q683.629 1530.07 681.708 1527.99 Q679.81 1525.91 676.661 1525.91 Q673.097 1525.91 670.944 1527.92 Q668.814 1529.94 668.49 1533.59 L683.675 1533.57 Z" fill="#000000" fill-rule="nonzero" fill-opacity="1" /><path clip-path="url(#clip100)" d="M706.708 1535.82 Q701.546 1535.82 699.555 1537 Q697.564 1538.18 697.564 1541.02 Q697.564 1543.29 699.046 1544.63 Q700.55 1545.95 703.12 1545.95 Q706.661 1545.95 708.791 1543.45 Q710.944 1540.93 710.944 1536.76 L710.944 1535.82 L706.708 1535.82 M715.203 1534.06 L715.203 1548.85 L710.944 1548.85 L710.944 1544.91 Q709.485 1547.27 707.309 1548.41 Q705.133 1549.52 701.985 1549.52 Q698.004 1549.52 695.643 1547.3 Q693.305 1545.05 693.305 1541.3 Q693.305 1536.93 696.222 1534.7 Q699.161 1532.48 704.971 1532.48 L710.944 1532.48 L710.944 1532.07 Q710.944 1529.13 708.999 1527.53 Q707.078 1525.91 703.583 1525.91 Q701.36 1525.91 699.254 1526.44 Q697.147 1526.97 695.203 1528.04 L695.203 1524.1 Q697.541 1523.2 699.74 1522.76 Q701.939 1522.3 704.022 1522.3 Q709.647 1522.3 712.425 1525.21 Q715.203 1528.13 715.203 1534.06 Z" fill="#000000" fill-rule="nonzero" fill-opacity="1" /><path clip-path="url(#clip100)" d="M742.633 1523.92 L742.633 1527.9 Q740.828 1526.9 738.999 1526.42 Q737.194 1525.91 735.342 1525.91 Q731.198 1525.91 728.907 1528.55 Q726.615 1531.16 726.615 1535.91 Q726.615 1540.65 728.907 1543.29 Q731.198 1545.91 735.342 1545.91 Q737.194 1545.91 738.999 1545.42 Q740.828 1544.91 742.633 1543.92 L742.633 1547.85 Q740.851 1548.69 738.93 1549.1 Q737.031 1549.52 734.879 1549.52 Q729.022 1549.52 725.573 1545.84 Q722.124 1542.16 722.124 1535.91 Q722.124 1529.57 725.596 1525.93 Q729.092 1522.3 735.156 1522.3 Q737.124 1522.3 738.999 1522.71 Q740.874 1523.11 742.633 1523.92 Z" fill="#000000" fill-rule="nonzero" fill-opacity="1" /><path clip-path="url(#clip100)" d="M771.591 1533.2 L771.591 1548.85 L767.332 1548.85 L767.332 1533.34 Q767.332 1529.66 765.897 1527.83 Q764.462 1526 761.592 1526 Q758.142 1526 756.152 1528.2 Q754.161 1530.4 754.161 1534.2 L754.161 1548.85 L749.879 1548.85 L749.879 1512.83 L754.161 1512.83 L754.161 1526.95 Q755.689 1524.61 757.749 1523.45 Q759.832 1522.3 762.541 1522.3 Q767.008 1522.3 769.3 1525.07 Q771.591 1527.83 771.591 1533.2 Z" fill="#000000" fill-rule="nonzero" fill-opacity="1" /><path clip-path="url(#clip100)" d="M799.786 1556.72 L799.786 1560.03 L775.156 1560.03 L775.156 1556.72 L799.786 1556.72 Z" fill="#000000" fill-rule="nonzero" fill-opacity="1" /><path clip-path="url(#clip100)" d="M825.341 1533.2 L825.341 1548.85 L821.082 1548.85 L821.082 1533.34 Q821.082 1529.66 819.647 1527.83 Q818.212 1526 815.341 1526 Q811.892 1526 809.901 1528.2 Q807.911 1530.4 807.911 1534.2 L807.911 1548.85 L803.628 1548.85 L803.628 1522.92 L807.911 1522.92 L807.911 1526.95 Q809.438 1524.61 811.499 1523.45 Q813.582 1522.3 816.29 1522.3 Q820.758 1522.3 823.05 1525.07 Q825.341 1527.83 825.341 1533.2 Z" fill="#000000" fill-rule="nonzero" fill-opacity="1" /><path clip-path="url(#clip100)" d="M833.397 1538.62 L833.397 1522.92 L837.656 1522.92 L837.656 1538.45 Q837.656 1542.13 839.091 1543.99 Q840.526 1545.82 843.397 1545.82 Q846.846 1545.82 848.836 1543.62 Q850.85 1541.42 850.85 1537.62 L850.85 1522.92 L855.11 1522.92 L855.11 1548.85 L850.85 1548.85 L850.85 1544.87 Q849.299 1547.23 847.239 1548.38 Q845.202 1549.52 842.494 1549.52 Q838.026 1549.52 835.711 1546.74 Q833.397 1543.96 833.397 1538.62 M844.114 1522.3 L844.114 1522.3 Z" fill="#000000" fill-rule="nonzero" fill-opacity="1" /><path clip-path="url(#clip100)" d="M863.883 1512.83 L868.142 1512.83 L868.142 1548.85 L863.883 1548.85 L863.883 1512.83 Z" fill="#000000" fill-rule="nonzero" fill-opacity="1" /><path clip-path="url(#clip100)" d="M877.054 1512.83 L881.313 1512.83 L881.313 1548.85 L877.054 1548.85 L877.054 1512.83 Z" fill="#000000" fill-rule="nonzero" fill-opacity="1" /><path clip-path="url(#clip100)" d="M955.706 1544.96 L955.706 1558.71 L951.423 1558.71 L951.423 1522.92 L955.706 1522.92 L955.706 1526.86 Q957.048 1524.54 959.085 1523.43 Q961.145 1522.3 963.993 1522.3 Q968.715 1522.3 971.655 1526.05 Q974.618 1529.8 974.618 1535.91 Q974.618 1542.02 971.655 1545.77 Q968.715 1549.52 963.993 1549.52 Q961.145 1549.52 959.085 1548.41 Q957.048 1547.27 955.706 1544.96 M970.196 1535.91 Q970.196 1531.21 968.252 1528.55 Q966.331 1525.86 962.951 1525.86 Q959.571 1525.86 957.627 1528.55 Q955.706 1531.21 955.706 1535.91 Q955.706 1540.61 957.627 1543.29 Q959.571 1545.95 962.951 1545.95 Q966.331 1545.95 968.252 1543.29 Q970.196 1540.61 970.196 1535.91 Z" fill="#000000" fill-rule="nonzero" fill-opacity="1" /><path clip-path="url(#clip100)" d="M991.724 1525.91 Q988.298 1525.91 986.307 1528.59 Q984.317 1531.26 984.317 1535.91 Q984.317 1540.56 986.284 1543.25 Q988.275 1545.91 991.724 1545.91 Q995.127 1545.91 997.117 1543.22 Q999.108 1540.54 999.108 1535.91 Q999.108 1531.3 997.117 1528.62 Q995.127 1525.91 991.724 1525.91 M991.724 1522.3 Q997.279 1522.3 1000.45 1525.91 Q1003.62 1529.52 1003.62 1535.91 Q1003.62 1542.27 1000.45 1545.91 Q997.279 1549.52 991.724 1549.52 Q986.145 1549.52 982.974 1545.91 Q979.826 1542.27 979.826 1535.91 Q979.826 1529.52 982.974 1525.91 Q986.145 1522.3 991.724 1522.3 Z" fill="#000000" fill-rule="nonzero" fill-opacity="1" /><path clip-path="url(#clip100)" d="M1014.8 1544.96 L1014.8 1558.71 L1010.52 1558.71 L1010.52 1522.92 L1014.8 1522.92 L1014.8 1526.86 Q1016.15 1524.54 1018.18 1523.43 Q1020.24 1522.3 1023.09 1522.3 Q1027.81 1522.3 1030.75 1526.05 Q1033.71 1529.8 1033.71 1535.91 Q1033.71 1542.02 1030.75 1545.77 Q1027.81 1549.52 1023.09 1549.52 Q1020.24 1549.52 1018.18 1548.41 Q1016.15 1547.27 1014.8 1544.96 M1029.29 1535.91 Q1029.29 1531.21 1027.35 1528.55 Q1025.43 1525.86 1022.05 1525.86 Q1018.67 1525.86 1016.72 1528.55 Q1014.8 1531.21 1014.8 1535.91 Q1014.8 1540.61 1016.72 1543.29 Q1018.67 1545.95 1022.05 1545.95 Q1025.43 1545.95 1027.35 1543.29 Q1029.29 1540.61 1029.29 1535.91 Z" fill="#000000" fill-rule="nonzero" fill-opacity="1" /><path clip-path="url(#clip100)" d="M1060.47 1556.72 L1060.47 1560.03 L1035.84 1560.03 L1035.84 1556.72 L1060.47 1556.72 Z" fill="#000000" fill-rule="nonzero" fill-opacity="1" /><path clip-path="url(#clip100)" d="M1081.54 1535.58 Q1081.54 1530.95 1079.62 1528.41 Q1077.72 1525.86 1074.27 1525.86 Q1070.84 1525.86 1068.92 1528.41 Q1067.02 1530.95 1067.02 1535.58 Q1067.02 1540.19 1068.92 1542.74 Q1070.84 1545.28 1074.27 1545.28 Q1077.72 1545.28 1079.62 1542.74 Q1081.54 1540.19 1081.54 1535.58 M1085.8 1545.63 Q1085.8 1552.25 1082.86 1555.47 Q1079.92 1558.71 1073.85 1558.71 Q1071.61 1558.71 1069.62 1558.36 Q1067.63 1558.04 1065.75 1557.34 L1065.75 1553.2 Q1067.63 1554.22 1069.45 1554.7 Q1071.28 1555.19 1073.18 1555.19 Q1077.37 1555.19 1079.45 1552.99 Q1081.54 1550.82 1081.54 1546.39 L1081.54 1544.29 Q1080.22 1546.58 1078.16 1547.71 Q1076.1 1548.85 1073.23 1548.85 Q1068.46 1548.85 1065.54 1545.21 Q1062.63 1541.58 1062.63 1535.58 Q1062.63 1529.57 1065.54 1525.93 Q1068.46 1522.3 1073.23 1522.3 Q1076.1 1522.3 1078.16 1523.43 Q1080.22 1524.57 1081.54 1526.86 L1081.54 1522.92 L1085.8 1522.92 L1085.8 1545.63 Z" fill="#000000" fill-rule="nonzero" fill-opacity="1" /><path clip-path="url(#clip100)" d="M1109.59 1526.9 Q1108.88 1526.49 1108.02 1526.3 Q1107.19 1526.09 1106.17 1526.09 Q1102.56 1526.09 1100.61 1528.45 Q1098.69 1530.79 1098.69 1535.19 L1098.69 1548.85 L1094.41 1548.85 L1094.41 1522.92 L1098.69 1522.92 L1098.69 1526.95 Q1100.03 1524.59 1102.19 1523.45 Q1104.34 1522.3 1107.42 1522.3 Q1107.86 1522.3 1108.39 1522.37 Q1108.92 1522.41 1109.57 1522.53 L1109.59 1526.9 Z" fill="#000000" fill-rule="nonzero" fill-opacity="1" /><path clip-path="url(#clip100)" d="M1123.07 1525.91 Q1119.64 1525.91 1117.65 1528.59 Q1115.66 1531.26 1115.66 1535.91 Q1115.66 1540.56 1117.63 1543.25 Q1119.62 1545.91 1123.07 1545.91 Q1126.47 1545.91 1128.46 1543.22 Q1130.45 1540.54 1130.45 1535.91 Q1130.45 1531.3 1128.46 1528.62 Q1126.47 1525.91 1123.07 1525.91 M1123.07 1522.3 Q1128.62 1522.3 1131.79 1525.91 Q1134.96 1529.52 1134.96 1535.91 Q1134.96 1542.27 1131.79 1545.91 Q1128.62 1549.52 1123.07 1549.52 Q1117.49 1549.52 1114.32 1545.91 Q1111.17 1542.27 1111.17 1535.91 Q1111.17 1529.52 1114.32 1525.91 Q1117.49 1522.3 1123.07 1522.3 Z" fill="#000000" fill-rule="nonzero" fill-opacity="1" /><path clip-path="url(#clip100)" d="M1139.55 1522.92 L1143.81 1522.92 L1149.13 1543.15 L1154.43 1522.92 L1159.45 1522.92 L1164.78 1543.15 L1170.08 1522.92 L1174.34 1522.92 L1167.56 1548.85 L1162.53 1548.85 L1156.95 1527.6 L1151.35 1548.85 L1146.33 1548.85 L1139.55 1522.92 Z" fill="#000000" fill-rule="nonzero" fill-opacity="1" /><path clip-path="url(#clip100)" d="M1185.01 1515.56 L1185.01 1522.92 L1193.78 1522.92 L1193.78 1526.23 L1185.01 1526.23 L1185.01 1540.31 Q1185.01 1543.48 1185.87 1544.38 Q1186.75 1545.28 1189.41 1545.28 L1193.78 1545.28 L1193.78 1548.85 L1189.41 1548.85 Q1184.48 1548.85 1182.6 1547.02 Q1180.73 1545.17 1180.73 1540.31 L1180.73 1526.23 L1177.6 1526.23 L1177.6 1522.92 L1180.73 1522.92 L1180.73 1515.56 L1185.01 1515.56 Z" fill="#000000" fill-rule="nonzero" fill-opacity="1" /><path clip-path="url(#clip100)" d="M1220.94 1533.2 L1220.94 1548.85 L1216.68 1548.85 L1216.68 1533.34 Q1216.68 1529.66 1215.24 1527.83 Q1213.81 1526 1210.94 1526 Q1207.49 1526 1205.5 1528.2 Q1203.51 1530.4 1203.51 1534.2 L1203.51 1548.85 L1199.22 1548.85 L1199.22 1512.83 L1203.51 1512.83 L1203.51 1526.95 Q1205.03 1524.61 1207.09 1523.45 Q1209.18 1522.3 1211.88 1522.3 Q1216.35 1522.3 1218.64 1525.07 Q1220.94 1527.83 1220.94 1533.2 Z" fill="#000000" fill-rule="nonzero" fill-opacity="1" /><path clip-path="url(#clip100)" d="M1386.92 1527.9 Q1388.52 1525.03 1390.74 1523.66 Q1392.97 1522.3 1395.98 1522.3 Q1400.03 1522.3 1402.23 1525.14 Q1404.42 1527.97 1404.42 1533.2 L1404.42 1548.85 L1400.14 1548.85 L1400.14 1533.34 Q1400.14 1529.61 1398.82 1527.81 Q1397.5 1526 1394.8 1526 Q1391.49 1526 1389.56 1528.2 Q1387.64 1530.4 1387.64 1534.2 L1387.64 1548.85 L1383.36 1548.85 L1383.36 1533.34 Q1383.36 1529.59 1382.04 1527.81 Q1380.72 1526 1377.97 1526 Q1374.7 1526 1372.78 1528.22 Q1370.86 1530.42 1370.86 1534.2 L1370.86 1548.85 L1366.58 1548.85 L1366.58 1522.92 L1370.86 1522.92 L1370.86 1526.95 Q1372.32 1524.57 1374.36 1523.43 Q1376.39 1522.3 1379.19 1522.3 Q1382.02 1522.3 1383.99 1523.73 Q1385.98 1525.17 1386.92 1527.9 Z" fill="#000000" fill-rule="nonzero" fill-opacity="1" /><path clip-path="url(#clip100)" d="M1435.1 1534.82 L1435.1 1536.9 L1415.51 1536.9 Q1415.79 1541.3 1418.15 1543.62 Q1420.54 1545.91 1424.77 1545.91 Q1427.23 1545.91 1429.52 1545.31 Q1431.83 1544.7 1434.1 1543.5 L1434.1 1547.53 Q1431.81 1548.5 1429.4 1549.01 Q1426.99 1549.52 1424.52 1549.52 Q1418.31 1549.52 1414.68 1545.91 Q1411.07 1542.3 1411.07 1536.14 Q1411.07 1529.77 1414.49 1526.05 Q1417.94 1522.3 1423.78 1522.3 Q1429.01 1522.3 1432.04 1525.68 Q1435.1 1529.03 1435.1 1534.82 M1430.84 1533.57 Q1430.79 1530.07 1428.87 1527.99 Q1426.97 1525.91 1423.82 1525.91 Q1420.26 1525.91 1418.11 1527.92 Q1415.98 1529.94 1415.65 1533.59 L1430.84 1533.57 Z" fill="#000000" fill-rule="nonzero" fill-opacity="1" /><path clip-path="url(#clip100)" d="M1462.27 1527.9 Q1463.87 1525.03 1466.09 1523.66 Q1468.31 1522.3 1471.32 1522.3 Q1475.37 1522.3 1477.57 1525.14 Q1479.77 1527.97 1479.77 1533.2 L1479.77 1548.85 L1475.49 1548.85 L1475.49 1533.34 Q1475.49 1529.61 1474.17 1527.81 Q1472.85 1526 1470.14 1526 Q1466.83 1526 1464.91 1528.2 Q1462.99 1530.4 1462.99 1534.2 L1462.99 1548.85 L1458.71 1548.85 L1458.71 1533.34 Q1458.71 1529.59 1457.39 1527.81 Q1456.07 1526 1453.31 1526 Q1450.05 1526 1448.13 1528.22 Q1446.21 1530.42 1446.21 1534.2 L1446.21 1548.85 L1441.92 1548.85 L1441.92 1522.92 L1446.21 1522.92 L1446.21 1526.95 Q1447.67 1524.57 1449.7 1523.43 Q1451.74 1522.3 1454.54 1522.3 Q1457.36 1522.3 1459.33 1523.73 Q1461.32 1525.17 1462.27 1527.9 Z" fill="#000000" fill-rule="nonzero" fill-opacity="1" /><path clip-path="url(#clip100)" d="M1639.89 1512.83 L1639.89 1516.37 L1635.82 1516.37 Q1633.53 1516.37 1632.62 1517.3 Q1631.74 1518.22 1631.74 1520.63 L1631.74 1522.92 L1638.76 1522.92 L1638.76 1526.23 L1631.74 1526.23 L1631.74 1548.85 L1627.46 1548.85 L1627.46 1526.23 L1623.39 1526.23 L1623.39 1522.92 L1627.46 1522.92 L1627.46 1521.12 Q1627.46 1516.79 1629.48 1514.82 Q1631.49 1512.83 1635.87 1512.83 L1639.89 1512.83 Z" fill="#000000" fill-rule="nonzero" fill-opacity="1" /><path clip-path="url(#clip100)" d="M1643.46 1522.92 L1647.72 1522.92 L1647.72 1548.85 L1643.46 1548.85 L1643.46 1522.92 M1643.46 1512.83 L1647.72 1512.83 L1647.72 1518.22 L1643.46 1518.22 L1643.46 1512.83 Z" fill="#000000" fill-rule="nonzero" fill-opacity="1" /><path clip-path="url(#clip100)" d="M1678.18 1522.92 L1668.8 1535.54 L1678.67 1548.85 L1673.64 1548.85 L1666.1 1538.66 L1658.55 1548.85 L1653.53 1548.85 L1663.6 1535.28 L1654.38 1522.92 L1659.41 1522.92 L1666.28 1532.16 L1673.16 1522.92 L1678.18 1522.92 Z" fill="#000000" fill-rule="nonzero" fill-opacity="1" /><path clip-path="url(#clip100)" d="M1705.4 1534.82 L1705.4 1536.9 L1685.82 1536.9 Q1686.1 1541.3 1688.46 1543.62 Q1690.84 1545.91 1695.08 1545.91 Q1697.53 1545.91 1699.82 1545.31 Q1702.14 1544.7 1704.41 1543.5 L1704.41 1547.53 Q1702.11 1548.5 1699.71 1549.01 Q1697.3 1549.52 1694.82 1549.52 Q1688.62 1549.52 1684.99 1545.91 Q1681.37 1542.3 1681.37 1536.14 Q1681.37 1529.77 1684.8 1526.05 Q1688.25 1522.3 1694.08 1522.3 Q1699.31 1522.3 1702.35 1525.68 Q1705.4 1529.03 1705.4 1534.82 M1701.14 1533.57 Q1701.1 1530.07 1699.17 1527.99 Q1697.28 1525.91 1694.13 1525.91 Q1690.56 1525.91 1688.41 1527.92 Q1686.28 1529.94 1685.96 1533.59 L1701.14 1533.57 Z" fill="#000000" fill-rule="nonzero" fill-opacity="1" /><path clip-path="url(#clip100)" d="M1729.45 1526.86 L1729.45 1512.83 L1733.71 1512.83 L1733.71 1548.85 L1729.45 1548.85 L1729.45 1544.96 Q1728.11 1547.27 1726.05 1548.41 Q1724.01 1549.52 1721.14 1549.52 Q1716.44 1549.52 1713.48 1545.77 Q1710.54 1542.02 1710.54 1535.91 Q1710.54 1529.8 1713.48 1526.05 Q1716.44 1522.3 1721.14 1522.3 Q1724.01 1522.3 1726.05 1523.43 Q1728.11 1524.54 1729.45 1526.86 M1714.94 1535.91 Q1714.94 1540.61 1716.86 1543.29 Q1718.8 1545.95 1722.18 1545.95 Q1725.56 1545.95 1727.51 1543.29 Q1729.45 1540.61 1729.45 1535.91 Q1729.45 1531.21 1727.51 1528.55 Q1725.56 1525.86 1722.18 1525.86 Q1718.8 1525.86 1716.86 1528.55 Q1714.94 1531.21 1714.94 1535.91 Z" fill="#000000" fill-rule="nonzero" fill-opacity="1" /><path clip-path="url(#clip100)" d="M1762.18 1556.72 L1762.18 1560.03 L1737.55 1560.03 L1737.55 1556.72 L1762.18 1556.72 Z" fill="#000000" fill-rule="nonzero" fill-opacity="1" /><path clip-path="url(#clip100)" d="M1788.36 1534.82 L1788.36 1536.9 L1768.78 1536.9 Q1769.06 1541.3 1771.42 1543.62 Q1773.8 1545.91 1778.04 1545.91 Q1780.49 1545.91 1782.79 1545.31 Q1785.1 1544.7 1787.37 1543.5 L1787.37 1547.53 Q1785.08 1548.5 1782.67 1549.01 Q1780.26 1549.52 1777.79 1549.52 Q1771.58 1549.52 1767.95 1545.91 Q1764.34 1542.3 1764.34 1536.14 Q1764.34 1529.77 1767.76 1526.05 Q1771.21 1522.3 1777.04 1522.3 Q1782.28 1522.3 1785.31 1525.68 Q1788.36 1529.03 1788.36 1534.82 M1784.11 1533.57 Q1784.06 1530.07 1782.14 1527.99 Q1780.24 1525.91 1777.09 1525.91 Q1773.53 1525.91 1771.37 1527.92 Q1769.24 1529.94 1768.92 1533.59 L1784.11 1533.57 Z" fill="#000000" fill-rule="nonzero" fill-opacity="1" /><path clip-path="url(#clip100)" d="M1808.48 1512.83 L1808.48 1516.37 L1804.41 1516.37 Q1802.11 1516.37 1801.21 1517.3 Q1800.33 1518.22 1800.33 1520.63 L1800.33 1522.92 L1807.35 1522.92 L1807.35 1526.23 L1800.33 1526.23 L1800.33 1548.85 L1796.05 1548.85 L1796.05 1526.23 L1791.98 1526.23 L1791.98 1522.92 L1796.05 1522.92 L1796.05 1521.12 Q1796.05 1516.79 1798.06 1514.82 Q1800.08 1512.83 1804.45 1512.83 L1808.48 1512.83 Z" fill="#000000" fill-rule="nonzero" fill-opacity="1" /><path clip-path="url(#clip100)" d="M1825.17 1512.83 L1825.17 1516.37 L1821.1 1516.37 Q1818.8 1516.37 1817.9 1517.3 Q1817.02 1518.22 1817.02 1520.63 L1817.02 1522.92 L1824.04 1522.92 L1824.04 1526.23 L1817.02 1526.23 L1817.02 1548.85 L1812.74 1548.85 L1812.74 1526.23 L1808.67 1526.23 L1808.67 1522.92 L1812.74 1522.92 L1812.74 1521.12 Q1812.74 1516.79 1814.75 1514.82 Q1816.77 1512.83 1821.14 1512.83 L1825.17 1512.83 Z" fill="#000000" fill-rule="nonzero" fill-opacity="1" /><path clip-path="url(#clip100)" d="M1850.91 1534.82 L1850.91 1536.9 L1831.33 1536.9 Q1831.6 1541.3 1833.97 1543.62 Q1836.35 1545.91 1840.59 1545.91 Q1843.04 1545.91 1845.33 1545.31 Q1847.65 1544.7 1849.91 1543.5 L1849.91 1547.53 Q1847.62 1548.5 1845.22 1549.01 Q1842.81 1549.52 1840.33 1549.52 Q1834.13 1549.52 1830.49 1545.91 Q1826.88 1542.3 1826.88 1536.14 Q1826.88 1529.77 1830.31 1526.05 Q1833.76 1522.3 1839.59 1522.3 Q1844.82 1522.3 1847.85 1525.68 Q1850.91 1529.03 1850.91 1534.82 M1846.65 1533.57 Q1846.6 1530.07 1844.68 1527.99 Q1842.79 1525.91 1839.64 1525.91 Q1836.07 1525.91 1833.92 1527.92 Q1831.79 1529.94 1831.47 1533.59 L1846.65 1533.57 Z" fill="#000000" fill-rule="nonzero" fill-opacity="1" /><path clip-path="url(#clip100)" d="M1876.56 1523.92 L1876.56 1527.9 Q1874.75 1526.9 1872.92 1526.42 Q1871.12 1525.91 1869.27 1525.91 Q1865.12 1525.91 1862.83 1528.55 Q1860.54 1531.16 1860.54 1535.91 Q1860.54 1540.65 1862.83 1543.29 Q1865.12 1545.91 1869.27 1545.91 Q1871.12 1545.91 1872.92 1545.42 Q1874.75 1544.91 1876.56 1543.92 L1876.56 1547.85 Q1874.78 1548.69 1872.85 1549.1 Q1870.96 1549.52 1868.8 1549.52 Q1862.95 1549.52 1859.5 1545.84 Q1856.05 1542.16 1856.05 1535.91 Q1856.05 1529.57 1859.52 1525.93 Q1863.02 1522.3 1869.08 1522.3 Q1871.05 1522.3 1872.92 1522.71 Q1874.8 1523.11 1876.56 1523.92 Z" fill="#000000" fill-rule="nonzero" fill-opacity="1" /><path clip-path="url(#clip100)" d="M1888.18 1515.56 L1888.18 1522.92 L1896.95 1522.92 L1896.95 1526.23 L1888.18 1526.23 L1888.18 1540.31 Q1888.18 1543.48 1889.04 1544.38 Q1889.91 1545.28 1892.58 1545.28 L1896.95 1545.28 L1896.95 1548.85 L1892.58 1548.85 Q1887.65 1548.85 1885.77 1547.02 Q1883.9 1545.17 1883.9 1540.31 L1883.9 1526.23 L1880.77 1526.23 L1880.77 1522.92 L1883.9 1522.92 L1883.9 1515.56 L1888.18 1515.56 Z" fill="#000000" fill-rule="nonzero" fill-opacity="1" /><path clip-path="url(#clip100)" d="M1984.79 1535.91 Q1984.79 1531.21 1982.85 1528.55 Q1980.93 1525.86 1977.55 1525.86 Q1974.17 1525.86 1972.22 1528.55 Q1970.3 1531.21 1970.3 1535.91 Q1970.3 1540.61 1972.22 1543.29 Q1974.17 1545.95 1977.55 1545.95 Q1980.93 1545.95 1982.85 1543.29 Q1984.79 1540.61 1984.79 1535.91 M1970.3 1526.86 Q1971.65 1524.54 1973.68 1523.43 Q1975.74 1522.3 1978.59 1522.3 Q1983.31 1522.3 1986.25 1526.05 Q1989.21 1529.8 1989.21 1535.91 Q1989.21 1542.02 1986.25 1545.77 Q1983.31 1549.52 1978.59 1549.52 Q1975.74 1549.52 1973.68 1548.41 Q1971.65 1547.27 1970.3 1544.96 L1970.3 1548.85 L1966.02 1548.85 L1966.02 1512.83 L1970.3 1512.83 L1970.3 1526.86 Z" fill="#000000" fill-rule="nonzero" fill-opacity="1" /><path clip-path="url(#clip100)" d="M2008.06 1535.82 Q2002.89 1535.82 2000.9 1537 Q1998.91 1538.18 1998.91 1541.02 Q1998.91 1543.29 2000.39 1544.63 Q2001.9 1545.95 2004.47 1545.95 Q2008.01 1545.95 2010.14 1543.45 Q2012.29 1540.93 2012.29 1536.76 L2012.29 1535.82 L2008.06 1535.82 M2016.55 1534.06 L2016.55 1548.85 L2012.29 1548.85 L2012.29 1544.91 Q2010.83 1547.27 2008.66 1548.41 Q2006.48 1549.52 2003.33 1549.52 Q1999.35 1549.52 1996.99 1547.3 Q1994.65 1545.05 1994.65 1541.3 Q1994.65 1536.93 1997.57 1534.7 Q2000.51 1532.48 2006.32 1532.48 L2012.29 1532.48 L2012.29 1532.07 Q2012.29 1529.13 2010.35 1527.53 Q2008.43 1525.91 2004.93 1525.91 Q2002.71 1525.91 2000.6 1526.44 Q1998.5 1526.97 1996.55 1528.04 L1996.55 1524.1 Q1998.89 1523.2 2001.09 1522.76 Q2003.29 1522.3 2005.37 1522.3 Q2011 1522.3 2013.77 1525.21 Q2016.55 1528.13 2016.55 1534.06 Z" fill="#000000" fill-rule="nonzero" fill-opacity="1" /><path clip-path="url(#clip100)" d="M2041.85 1523.69 L2041.85 1527.71 Q2040.05 1526.79 2038.1 1526.32 Q2036.16 1525.86 2034.08 1525.86 Q2030.9 1525.86 2029.31 1526.83 Q2027.73 1527.81 2027.73 1529.75 Q2027.73 1531.23 2028.87 1532.09 Q2030 1532.92 2033.43 1533.69 L2034.89 1534.01 Q2039.42 1534.98 2041.32 1536.76 Q2043.24 1538.52 2043.24 1541.7 Q2043.24 1545.31 2040.37 1547.41 Q2037.52 1549.52 2032.52 1549.52 Q2030.44 1549.52 2028.17 1549.1 Q2025.93 1548.71 2023.43 1547.9 L2023.43 1543.5 Q2025.79 1544.73 2028.08 1545.35 Q2030.37 1545.95 2032.62 1545.95 Q2035.63 1545.95 2037.25 1544.94 Q2038.87 1543.89 2038.87 1542.02 Q2038.87 1540.28 2037.69 1539.36 Q2036.53 1538.43 2032.57 1537.57 L2031.09 1537.23 Q2027.13 1536.39 2025.37 1534.68 Q2023.61 1532.95 2023.61 1529.94 Q2023.61 1526.28 2026.2 1524.29 Q2028.8 1522.3 2033.57 1522.3 Q2035.93 1522.3 2038.01 1522.64 Q2040.09 1522.99 2041.85 1523.69 Z" fill="#000000" fill-rule="nonzero" fill-opacity="1" /><path clip-path="url(#clip100)" d="M2072.2 1534.82 L2072.2 1536.9 L2052.62 1536.9 Q2052.89 1541.3 2055.26 1543.62 Q2057.64 1545.91 2061.88 1545.91 Q2064.33 1545.91 2066.62 1545.31 Q2068.94 1544.7 2071.2 1543.5 L2071.2 1547.53 Q2068.91 1548.5 2066.51 1549.01 Q2064.1 1549.52 2061.62 1549.52 Q2055.42 1549.52 2051.78 1545.91 Q2048.17 1542.3 2048.17 1536.14 Q2048.17 1529.77 2051.6 1526.05 Q2055.05 1522.3 2060.88 1522.3 Q2066.11 1522.3 2069.14 1525.68 Q2072.2 1529.03 2072.2 1534.82 M2067.94 1533.57 Q2067.89 1530.07 2065.97 1527.99 Q2064.08 1525.91 2060.93 1525.91 Q2057.36 1525.91 2055.21 1527.92 Q2053.08 1529.94 2052.76 1533.59 L2067.94 1533.57 Z" fill="#000000" fill-rule="nonzero" fill-opacity="1" /><path clip-path="url(#clip100)" d="M2098.89 1556.72 L2098.89 1560.03 L2074.26 1560.03 L2074.26 1556.72 L2098.89 1556.72 Z" fill="#000000" fill-rule="nonzero" fill-opacity="1" /><path clip-path="url(#clip100)" d="M2123.08 1527.9 Q2124.68 1525.03 2126.9 1523.66 Q2129.12 1522.3 2132.13 1522.3 Q2136.18 1522.3 2138.38 1525.14 Q2140.58 1527.97 2140.58 1533.2 L2140.58 1548.85 L2136.3 1548.85 L2136.3 1533.34 Q2136.3 1529.61 2134.98 1527.81 Q2133.66 1526 2130.95 1526 Q2127.64 1526 2125.72 1528.2 Q2123.8 1530.4 2123.8 1534.2 L2123.8 1548.85 L2119.51 1548.85 L2119.51 1533.34 Q2119.51 1529.59 2118.2 1527.81 Q2116.88 1526 2114.12 1526 Q2110.86 1526 2108.94 1528.22 Q2107.01 1530.42 2107.01 1534.2 L2107.01 1548.85 L2102.73 1548.85 L2102.73 1522.92 L2107.01 1522.92 L2107.01 1526.95 Q2108.47 1524.57 2110.51 1523.43 Q2112.55 1522.3 2115.35 1522.3 Q2118.17 1522.3 2120.14 1523.73 Q2122.13 1525.17 2123.08 1527.9 Z" fill="#000000" fill-rule="nonzero" fill-opacity="1" /><path clip-path="url(#clip100)" d="M2159.12 1525.91 Q2155.69 1525.91 2153.7 1528.59 Q2151.71 1531.26 2151.71 1535.91 Q2151.71 1540.56 2153.68 1543.25 Q2155.67 1545.91 2159.12 1545.91 Q2162.52 1545.91 2164.51 1543.22 Q2166.51 1540.54 2166.51 1535.91 Q2166.51 1531.3 2164.51 1528.62 Q2162.52 1525.91 2159.12 1525.91 M2159.12 1522.3 Q2164.68 1522.3 2167.85 1525.91 Q2171.02 1529.52 2171.02 1535.91 Q2171.02 1542.27 2167.85 1545.91 Q2164.68 1549.52 2159.12 1549.52 Q2153.54 1549.52 2150.37 1545.91 Q2147.22 1542.27 2147.22 1535.91 Q2147.22 1529.52 2150.37 1525.91 Q2153.54 1522.3 2159.12 1522.3 Z" fill="#000000" fill-rule="nonzero" fill-opacity="1" /><path clip-path="url(#clip100)" d="M2175.02 1522.92 L2179.54 1522.92 L2187.64 1544.68 L2195.74 1522.92 L2200.25 1522.92 L2190.53 1548.85 L2184.75 1548.85 L2175.02 1522.92 Z" fill="#000000" fill-rule="nonzero" fill-opacity="1" /><path clip-path="url(#clip100)" d="M2228.31 1534.82 L2228.31 1536.9 L2208.73 1536.9 Q2209 1541.3 2211.37 1543.62 Q2213.75 1545.91 2217.99 1545.91 Q2220.44 1545.91 2222.73 1545.31 Q2225.05 1544.7 2227.31 1543.5 L2227.31 1547.53 Q2225.02 1548.5 2222.62 1549.01 Q2220.21 1549.52 2217.73 1549.52 Q2211.53 1549.52 2207.89 1545.91 Q2204.28 1542.3 2204.28 1536.14 Q2204.28 1529.77 2207.71 1526.05 Q2211.16 1522.3 2216.99 1522.3 Q2222.22 1522.3 2225.25 1525.68 Q2228.31 1529.03 2228.31 1534.82 M2224.05 1533.57 Q2224 1530.07 2222.08 1527.99 Q2220.19 1525.91 2217.04 1525.91 Q2213.47 1525.91 2211.32 1527.92 Q2209.19 1529.94 2208.87 1533.59 L2224.05 1533.57 Z" fill="#000000" fill-rule="nonzero" fill-opacity="1" /><polyline clip-path="url(#clip102)" style="stroke:#000000; stroke-linecap:round; stroke-linejoin:round; stroke-width:2; stroke-opacity:0.1; fill:none" points="156.598,1445.72 2352.76,1445.72 "/>
<polyline clip-path="url(#clip102)" style="stroke:#000000; stroke-linecap:round; stroke-linejoin:round; stroke-width:2; stroke-opacity:0.1; fill:none" points="156.598,1229.22 2352.76,1229.22 "/>
<polyline clip-path="url(#clip102)" style="stroke:#000000; stroke-linecap:round; stroke-linejoin:round; stroke-width:2; stroke-opacity:0.1; fill:none" points="156.598,1012.72 2352.76,1012.72 "/>
<polyline clip-path="url(#clip102)" style="stroke:#000000; stroke-linecap:round; stroke-linejoin:round; stroke-width:2; stroke-opacity:0.1; fill:none" points="156.598,796.228 2352.76,796.228 "/>
<polyline clip-path="url(#clip102)" style="stroke:#000000; stroke-linecap:round; stroke-linejoin:round; stroke-width:2; stroke-opacity:0.1; fill:none" points="156.598,579.732 2352.76,579.732 "/>
<polyline clip-path="url(#clip102)" style="stroke:#000000; stroke-linecap:round; stroke-linejoin:round; stroke-width:2; stroke-opacity:0.1; fill:none" points="156.598,363.237 2352.76,363.237 "/>
<polyline clip-path="url(#clip102)" style="stroke:#000000; stroke-linecap:round; stroke-linejoin:round; stroke-width:2; stroke-opacity:0.1; fill:none" points="156.598,146.741 2352.76,146.741 "/>
<polyline clip-path="url(#clip100)" style="stroke:#000000; stroke-linecap:round; stroke-linejoin:round; stroke-width:4; stroke-opacity:1; fill:none" points="156.598,1486.45 156.598,47.2441 "/>
<polyline clip-path="url(#clip100)" style="stroke:#000000; stroke-linecap:round; stroke-linejoin:round; stroke-width:4; stroke-opacity:1; fill:none" points="156.598,1445.72 175.496,1445.72 "/>
<polyline clip-path="url(#clip100)" style="stroke:#000000; stroke-linecap:round; stroke-linejoin:round; stroke-width:4; stroke-opacity:1; fill:none" points="156.598,1229.22 175.496,1229.22 "/>
<polyline clip-path="url(#clip100)" style="stroke:#000000; stroke-linecap:round; stroke-linejoin:round; stroke-width:4; stroke-opacity:1; fill:none" points="156.598,1012.72 175.496,1012.72 "/>
<polyline clip-path="url(#clip100)" style="stroke:#000000; stroke-linecap:round; stroke-linejoin:round; stroke-width:4; stroke-opacity:1; fill:none" points="156.598,796.228 175.496,796.228 "/>
<polyline clip-path="url(#clip100)" style="stroke:#000000; stroke-linecap:round; stroke-linejoin:round; stroke-width:4; stroke-opacity:1; fill:none" points="156.598,579.732 175.496,579.732 "/>
<polyline clip-path="url(#clip100)" style="stroke:#000000; stroke-linecap:round; stroke-linejoin:round; stroke-width:4; stroke-opacity:1; fill:none" points="156.598,363.237 175.496,363.237 "/>
<polyline clip-path="url(#clip100)" style="stroke:#000000; stroke-linecap:round; stroke-linejoin:round; stroke-width:4; stroke-opacity:1; fill:none" points="156.598,146.741 175.496,146.741 "/>
<path clip-path="url(#clip100)" d="M63.4226 1431.51 Q59.8115 1431.51 57.9828 1435.08 Q56.1773 1438.62 56.1773 1445.75 Q56.1773 1452.86 57.9828 1456.42 Q59.8115 1459.96 63.4226 1459.96 Q67.0569 1459.96 68.8624 1456.42 Q70.6911 1452.86 70.6911 1445.75 Q70.6911 1438.62 68.8624 1435.08 Q67.0569 1431.51 63.4226 1431.51 M63.4226 1427.81 Q69.2328 1427.81 72.2883 1432.42 Q75.367 1437 75.367 1445.75 Q75.367 1454.48 72.2883 1459.08 Q69.2328 1463.67 63.4226 1463.67 Q57.6125 1463.67 54.5338 1459.08 Q51.4782 1454.48 51.4782 1445.75 Q51.4782 1437 54.5338 1432.42 Q57.6125 1427.81 63.4226 1427.81 Z" fill="#000000" fill-rule="nonzero" fill-opacity="1" /><path clip-path="url(#clip100)" d="M83.5845 1457.12 L88.4688 1457.12 L88.4688 1463 L83.5845 1463 L83.5845 1457.12 Z" fill="#000000" fill-rule="nonzero" fill-opacity="1" /><path clip-path="url(#clip100)" d="M108.654 1431.51 Q105.043 1431.51 103.214 1435.08 Q101.409 1438.62 101.409 1445.75 Q101.409 1452.86 103.214 1456.42 Q105.043 1459.96 108.654 1459.96 Q112.288 1459.96 114.094 1456.42 Q115.922 1452.86 115.922 1445.75 Q115.922 1438.62 114.094 1435.08 Q112.288 1431.51 108.654 1431.51 M108.654 1427.81 Q114.464 1427.81 117.52 1432.42 Q120.598 1437 120.598 1445.75 Q120.598 1454.48 117.52 1459.08 Q114.464 1463.67 108.654 1463.67 Q102.844 1463.67 99.765 1459.08 Q96.7095 1454.48 96.7095 1445.75 Q96.7095 1437 99.765 1432.42 Q102.844 1427.81 108.654 1427.81 Z" fill="#000000" fill-rule="nonzero" fill-opacity="1" /><path clip-path="url(#clip100)" d="M64.6495 1215.02 Q61.0384 1215.02 59.2097 1218.58 Q57.4041 1222.13 57.4041 1229.25 Q57.4041 1236.36 59.2097 1239.93 Q61.0384 1243.47 64.6495 1243.47 Q68.2837 1243.47 70.0892 1239.93 Q71.9179 1236.36 71.9179 1229.25 Q71.9179 1222.13 70.0892 1218.58 Q68.2837 1215.02 64.6495 1215.02 M64.6495 1211.31 Q70.4596 1211.31 73.5152 1215.92 Q76.5938 1220.5 76.5938 1229.25 Q76.5938 1237.98 73.5152 1242.59 Q70.4596 1247.17 64.6495 1247.17 Q58.8393 1247.17 55.7606 1242.59 Q52.7051 1237.98 52.7051 1229.25 Q52.7051 1220.5 55.7606 1215.92 Q58.8393 1211.31 64.6495 1211.31 Z" fill="#000000" fill-rule="nonzero" fill-opacity="1" /><path clip-path="url(#clip100)" d="M84.8114 1240.62 L89.6956 1240.62 L89.6956 1246.5 L84.8114 1246.5 L84.8114 1240.62 Z" fill="#000000" fill-rule="nonzero" fill-opacity="1" /><path clip-path="url(#clip100)" d="M100.691 1242.56 L108.33 1242.56 L108.33 1216.2 L100.02 1217.87 L100.02 1213.61 L108.283 1211.94 L112.959 1211.94 L112.959 1242.56 L120.598 1242.56 L120.598 1246.5 L100.691 1246.5 L100.691 1242.56 Z" fill="#000000" fill-rule="nonzero" fill-opacity="1" /><path clip-path="url(#clip100)" d="M65.0198 998.523 Q61.4087 998.523 59.58 1002.09 Q57.7745 1005.63 57.7745 1012.76 Q57.7745 1019.87 59.58 1023.43 Q61.4087 1026.97 65.0198 1026.97 Q68.6541 1026.97 70.4596 1023.43 Q72.2883 1019.87 72.2883 1012.76 Q72.2883 1005.63 70.4596 1002.09 Q68.6541 998.523 65.0198 998.523 M65.0198 994.819 Q70.83 994.819 73.8855 999.426 Q76.9642 1004.01 76.9642 1012.76 Q76.9642 1021.49 73.8855 1026.09 Q70.83 1030.68 65.0198 1030.68 Q59.2097 1030.68 56.131 1026.09 Q53.0754 1021.49 53.0754 1012.76 Q53.0754 1004.01 56.131 999.426 Q59.2097 994.819 65.0198 994.819 Z" fill="#000000" fill-rule="nonzero" fill-opacity="1" /><path clip-path="url(#clip100)" d="M85.1818 1024.12 L90.066 1024.12 L90.066 1030 L85.1818 1030 L85.1818 1024.12 Z" fill="#000000" fill-rule="nonzero" fill-opacity="1" /><path clip-path="url(#clip100)" d="M104.279 1026.07 L120.598 1026.07 L120.598 1030 L98.6539 1030 L98.6539 1026.07 Q101.316 1023.31 105.899 1018.68 Q110.506 1014.03 111.686 1012.69 Q113.932 1010.17 114.811 1008.43 Q115.714 1006.67 115.714 1004.98 Q115.714 1002.23 113.77 1000.49 Q111.848 998.754 108.746 998.754 Q106.547 998.754 104.094 999.518 Q101.663 1000.28 98.8854 1001.83 L98.8854 997.111 Q101.709 995.976 104.163 995.398 Q106.617 994.819 108.654 994.819 Q114.024 994.819 117.219 997.504 Q120.413 1000.19 120.413 1004.68 Q120.413 1006.81 119.603 1008.73 Q118.816 1010.63 116.709 1013.22 Q116.131 1013.89 113.029 1017.11 Q109.927 1020.31 104.279 1026.07 Z" fill="#000000" fill-rule="nonzero" fill-opacity="1" /><path clip-path="url(#clip100)" d="M64.0708 782.027 Q60.4597 782.027 58.631 785.592 Q56.8254 789.133 56.8254 796.263 Q56.8254 803.369 58.631 806.934 Q60.4597 810.476 64.0708 810.476 Q67.705 810.476 69.5105 806.934 Q71.3392 803.369 71.3392 796.263 Q71.3392 789.133 69.5105 785.592 Q67.705 782.027 64.0708 782.027 M64.0708 778.323 Q69.8809 778.323 72.9365 782.93 Q76.0151 787.513 76.0151 796.263 Q76.0151 804.99 72.9365 809.596 Q69.8809 814.18 64.0708 814.18 Q58.2606 814.18 55.1819 809.596 Q52.1264 804.99 52.1264 796.263 Q52.1264 787.513 55.1819 782.93 Q58.2606 778.323 64.0708 778.323 Z" fill="#000000" fill-rule="nonzero" fill-opacity="1" /><path clip-path="url(#clip100)" d="M84.2327 807.629 L89.1169 807.629 L89.1169 813.508 L84.2327 813.508 L84.2327 807.629 Z" fill="#000000" fill-rule="nonzero" fill-opacity="1" /><path clip-path="url(#clip100)" d="M113.469 794.874 Q116.825 795.592 118.7 797.86 Q120.598 800.129 120.598 803.462 Q120.598 808.578 117.08 811.379 Q113.561 814.18 107.08 814.18 Q104.904 814.18 102.589 813.74 Q100.297 813.323 97.8437 812.467 L97.8437 807.953 Q99.7882 809.087 102.103 809.666 Q104.418 810.244 106.941 810.244 Q111.339 810.244 113.631 808.508 Q115.945 806.772 115.945 803.462 Q115.945 800.406 113.793 798.693 Q111.663 796.957 107.844 796.957 L103.816 796.957 L103.816 793.115 L108.029 793.115 Q111.478 793.115 113.307 791.749 Q115.135 790.36 115.135 787.768 Q115.135 785.106 113.237 783.694 Q111.362 782.258 107.844 782.258 Q105.922 782.258 103.723 782.675 Q101.524 783.092 98.8854 783.971 L98.8854 779.805 Q101.547 779.064 103.862 778.694 Q106.2 778.323 108.26 778.323 Q113.584 778.323 116.686 780.754 Q119.788 783.161 119.788 787.282 Q119.788 790.152 118.145 792.143 Q116.501 794.11 113.469 794.874 Z" fill="#000000" fill-rule="nonzero" fill-opacity="1" /><path clip-path="url(#clip100)" d="M62.9365 565.531 Q59.3254 565.531 57.4967 569.096 Q55.6912 572.638 55.6912 579.767 Q55.6912 586.874 57.4967 590.438 Q59.3254 593.98 62.9365 593.98 Q66.5707 593.98 68.3763 590.438 Q70.205 586.874 70.205 579.767 Q70.205 572.638 68.3763 569.096 Q66.5707 565.531 62.9365 565.531 M62.9365 561.827 Q68.7467 561.827 71.8022 566.434 Q74.8809 571.017 74.8809 579.767 Q74.8809 588.494 71.8022 593.1 Q68.7467 597.684 62.9365 597.684 Q57.1264 597.684 54.0477 593.1 Q50.9921 588.494 50.9921 579.767 Q50.9921 571.017 54.0477 566.434 Q57.1264 561.827 62.9365 561.827 Z" fill="#000000" fill-rule="nonzero" fill-opacity="1" /><path clip-path="url(#clip100)" d="M83.0984 591.133 L87.9827 591.133 L87.9827 597.012 L83.0984 597.012 L83.0984 591.133 Z" fill="#000000" fill-rule="nonzero" fill-opacity="1" /><path clip-path="url(#clip100)" d="M111.015 566.526 L99.2095 584.975 L111.015 584.975 L111.015 566.526 M109.788 562.452 L115.668 562.452 L115.668 584.975 L120.598 584.975 L120.598 588.864 L115.668 588.864 L115.668 597.012 L111.015 597.012 L111.015 588.864 L95.4132 588.864 L95.4132 584.35 L109.788 562.452 Z" fill="#000000" fill-rule="nonzero" fill-opacity="1" /><path clip-path="url(#clip100)" d="M64.418 349.035 Q60.8069 349.035 58.9782 352.6 Q57.1726 356.142 57.1726 363.271 Q57.1726 370.378 58.9782 373.943 Q60.8069 377.484 64.418 377.484 Q68.0522 377.484 69.8578 373.943 Q71.6865 370.378 71.6865 363.271 Q71.6865 356.142 69.8578 352.6 Q68.0522 349.035 64.418 349.035 M64.418 345.332 Q70.2281 345.332 73.2837 349.938 Q76.3624 354.521 76.3624 363.271 Q76.3624 371.998 73.2837 376.605 Q70.2281 381.188 64.418 381.188 Q58.6078 381.188 55.5291 376.605 Q52.4736 371.998 52.4736 363.271 Q52.4736 354.521 55.5291 349.938 Q58.6078 345.332 64.418 345.332 Z" fill="#000000" fill-rule="nonzero" fill-opacity="1" /><path clip-path="url(#clip100)" d="M84.5799 374.637 L89.4641 374.637 L89.4641 380.517 L84.5799 380.517 L84.5799 374.637 Z" fill="#000000" fill-rule="nonzero" fill-opacity="1" /><path clip-path="url(#clip100)" d="M99.6956 345.957 L118.052 345.957 L118.052 349.892 L103.978 349.892 L103.978 358.364 Q104.996 358.017 106.015 357.855 Q107.033 357.669 108.052 357.669 Q113.839 357.669 117.219 360.841 Q120.598 364.012 120.598 369.429 Q120.598 375.007 117.126 378.109 Q113.654 381.188 107.334 381.188 Q105.159 381.188 102.89 380.818 Q100.645 380.447 98.2372 379.706 L98.2372 375.007 Q100.321 376.142 102.543 376.697 Q104.765 377.253 107.242 377.253 Q111.246 377.253 113.584 375.146 Q115.922 373.04 115.922 369.429 Q115.922 365.818 113.584 363.711 Q111.246 361.605 107.242 361.605 Q105.367 361.605 103.492 362.021 Q101.64 362.438 99.6956 363.318 L99.6956 345.957 Z" fill="#000000" fill-rule="nonzero" fill-opacity="1" /><path clip-path="url(#clip100)" d="M63.2606 132.539 Q59.6495 132.539 57.8208 136.104 Q56.0152 139.646 56.0152 146.775 Q56.0152 153.882 57.8208 157.447 Q59.6495 160.988 63.2606 160.988 Q66.8948 160.988 68.7004 157.447 Q70.5291 153.882 70.5291 146.775 Q70.5291 139.646 68.7004 136.104 Q66.8948 132.539 63.2606 132.539 M63.2606 128.836 Q69.0707 128.836 72.1263 133.442 Q75.205 138.026 75.205 146.775 Q75.205 155.502 72.1263 160.109 Q69.0707 164.692 63.2606 164.692 Q57.4504 164.692 54.3717 160.109 Q51.3162 155.502 51.3162 146.775 Q51.3162 138.026 54.3717 133.442 Q57.4504 128.836 63.2606 128.836 Z" fill="#000000" fill-rule="nonzero" fill-opacity="1" /><path clip-path="url(#clip100)" d="M83.4225 158.141 L88.3067 158.141 L88.3067 164.021 L83.4225 164.021 L83.4225 158.141 Z" fill="#000000" fill-rule="nonzero" fill-opacity="1" /><path clip-path="url(#clip100)" d="M109.071 144.877 Q105.922 144.877 104.071 147.03 Q102.242 149.183 102.242 152.933 Q102.242 156.66 104.071 158.836 Q105.922 160.988 109.071 160.988 Q112.219 160.988 114.047 158.836 Q115.899 156.66 115.899 152.933 Q115.899 149.183 114.047 147.03 Q112.219 144.877 109.071 144.877 M118.353 130.225 L118.353 134.484 Q116.594 133.651 114.788 133.211 Q113.006 132.771 111.246 132.771 Q106.617 132.771 104.163 135.896 Q101.733 139.021 101.385 145.34 Q102.751 143.326 104.811 142.262 Q106.871 141.174 109.348 141.174 Q114.557 141.174 117.566 144.345 Q120.598 147.493 120.598 152.933 Q120.598 158.257 117.45 161.474 Q114.302 164.692 109.071 164.692 Q103.075 164.692 99.9039 160.109 Q96.7326 155.502 96.7326 146.775 Q96.7326 138.581 100.621 133.72 Q104.51 128.836 111.061 128.836 Q112.82 128.836 114.603 129.183 Q116.408 129.53 118.353 130.225 Z" fill="#000000" fill-rule="nonzero" fill-opacity="1" /><path clip-path="url(#clip102)" d="M277.391 1174.53 L277.391 1445.72 L546.987 1445.72 L546.987 1174.53 L277.391 1174.53 L277.391 1174.53  Z" fill="#005f73" fill-rule="evenodd" fill-opacity="1"/>
<polyline clip-path="url(#clip102)" style="stroke:#000000; stroke-linecap:round; stroke-linejoin:round; stroke-width:4; stroke-opacity:1; fill:none" points="277.391,1174.53 277.391,1445.72 546.987,1445.72 546.987,1174.53 277.391,1174.53 "/>
<path clip-path="url(#clip102)" d="M614.386 1333.29 L614.386 1445.72 L883.982 1445.72 L883.982 1333.29 L614.386 1333.29 L614.386 1333.29  Z" fill="#005f73" fill-rule="evenodd" fill-opacity="1"/>
<polyline clip-path="url(#clip102)" style="stroke:#000000; stroke-linecap:round; stroke-linejoin:round; stroke-width:4; stroke-opacity:1; fill:none" points="614.386,1333.29 614.386,1445.72 883.982,1445.72 883.982,1333.29 614.386,1333.29 "/>
<path clip-path="url(#clip102)" d="M951.381 87.9763 L951.381 1445.72 L1220.98 1445.72 L1220.98 87.9763 L951.381 87.9763 L951.381 87.9763  Z" fill="#005f73" fill-rule="evenodd" fill-opacity="1"/>
<polyline clip-path="url(#clip102)" style="stroke:#000000; stroke-linecap:round; stroke-linejoin:round; stroke-width:4; stroke-opacity:1; fill:none" points="951.381,87.9763 951.381,1445.72 1220.98,1445.72 1220.98,87.9763 951.381,87.9763 "/>
<path clip-path="url(#clip102)" d="M1288.38 1119.76 L1288.38 1445.72 L1557.97 1445.72 L1557.97 1119.76 L1288.38 1119.76 L1288.38 1119.76  Z" fill="#005f73" fill-rule="evenodd" fill-opacity="1"/>
<polyline clip-path="url(#clip102)" style="stroke:#000000; stroke-linecap:round; stroke-linejoin:round; stroke-width:4; stroke-opacity:1; fill:none" points="1288.38,1119.76 1288.38,1445.72 1557.97,1445.72 1557.97,1119.76 1288.38,1119.76 "/>
<path clip-path="url(#clip102)" d="M1625.37 1445.72 L1625.37 1445.72 L1894.97 1445.72 L1894.97 1445.72 L1625.37 1445.72 L1625.37 1445.72  Z" fill="#005f73" fill-rule="evenodd" fill-opacity="1"/>
<polyline clip-path="url(#clip102)" style="stroke:#000000; stroke-linecap:round; stroke-linejoin:round; stroke-width:4; stroke-opacity:1; fill:none" points="1625.37,1445.72 1625.37,1445.72 1894.97,1445.72 1625.37,1445.72 "/>
<path clip-path="url(#clip102)" d="M1962.37 1445.72 L1962.37 1445.72 L2231.96 1445.72 L2231.96 1445.72 L1962.37 1445.72 L1962.37 1445.72  Z" fill="#005f73" fill-rule="evenodd" fill-opacity="1"/>
<polyline clip-path="url(#clip102)" style="stroke:#000000; stroke-linecap:round; stroke-linejoin:round; stroke-width:4; stroke-opacity:1; fill:none" points="1962.37,1445.72 1962.37,1445.72 2231.96,1445.72 1962.37,1445.72 "/>
<circle clip-path="url(#clip102)" style="fill:#009af9; stroke:none; fill-opacity:0" cx="412.189" cy="1174.53" r="2"/>
<circle clip-path="url(#clip102)" style="fill:#009af9; stroke:none; fill-opacity:0" cx="749.184" cy="1333.29" r="2"/>
<circle clip-path="url(#clip102)" style="fill:#009af9; stroke:none; fill-opacity:0" cx="1086.18" cy="87.9763" r="2"/>
<circle clip-path="url(#clip102)" style="fill:#009af9; stroke:none; fill-opacity:0" cx="1423.17" cy="1119.76" r="2"/>
<circle clip-path="url(#clip102)" style="fill:#009af9; stroke:none; fill-opacity:0" cx="1760.17" cy="1445.72" r="2"/>
<circle clip-path="url(#clip102)" style="fill:#009af9; stroke:none; fill-opacity:0" cx="2097.17" cy="1445.72" r="2"/>
</svg>
