<?xml version="1.0" encoding="utf-8"?>
<svg xmlns="http://www.w3.org/2000/svg" xmlns:xlink="http://www.w3.org/1999/xlink" width="600" height="400" viewBox="0 0 2400 1600">
<defs>
  <clipPath id="clip750">
    <rect x="0" y="0" width="2400" height="1600"/>
  </clipPath>
</defs>
<path clip-path="url(#clip750)" d="M0 1600 L2400 1600 L2400 0 L0 0  Z" fill="#ffffff" fill-rule="evenodd" fill-opacity="1"/>
<defs>
  <clipPath id="clip751">
    <rect x="480" y="0" width="1681" height="1600"/>
  </clipPath>
</defs>
<path clip-path="url(#clip750)" d="M340.508 1414.54 L2352.76 1414.54 L2352.76 47.2441 L340.508 47.2441  Z" fill="#ffffff" fill-rule="evenodd" fill-opacity="1"/>
<defs>
  <clipPath id="clip752">
    <rect x="340" y="47" width="2013" height="1368"/>
  </clipPath>
</defs>
<polyline clip-path="url(#clip752)" style="stroke:#000000; stroke-linecap:round; stroke-linejoin:round; stroke-width:2; stroke-opacity:0.1; fill:none" points="397.458,1414.54 397.458,47.2441 "/>
<polyline clip-path="url(#clip752)" style="stroke:#000000; stroke-linecap:round; stroke-linejoin:round; stroke-width:2; stroke-opacity:0.1; fill:none" points="1346.63,1414.54 1346.63,47.2441 "/>
<polyline clip-path="url(#clip752)" style="stroke:#000000; stroke-linecap:round; stroke-linejoin:round; stroke-width:2; stroke-opacity:0.1; fill:none" points="2295.81,1414.54 2295.81,47.2441 "/>
<polyline clip-path="url(#clip750)" style="stroke:#000000; stroke-linecap:round; stroke-linejoin:round; stroke-width:4; stroke-opacity:1; fill:none" points="340.508,1414.54 2352.76,1414.54 "/>
<polyline clip-path="url(#clip750)" style="stroke:#000000; stroke-linecap:round; stroke-linejoin:round; stroke-width:4; stroke-opacity:1; fill:none" points="397.458,1414.54 397.458,1395.64 "/>
<polyline clip-path="url(#clip750)" style="stroke:#000000; stroke-linecap:round; stroke-linejoin:round; stroke-width:4; stroke-opacity:1; fill:none" points="1346.63,1414.54 1346.63,1395.64 "/>
<polyline clip-path="url(#clip750)" style="stroke:#000000; stroke-linecap:round; stroke-linejoin:round; stroke-width:4; stroke-opacity:1; fill:none" points="2295.81,1414.54 2295.81,1395.64 "/>
<path clip-path="url(#clip750)" d="M365.818 1482.82 L375.366 1482.82 L375.366 1449.86 L364.979 1451.95 L364.979 1446.62 L375.309 1444.54 L381.154 1444.54 L381.154 1482.82 L390.702 1482.82 L390.702 1487.74 L365.818 1487.74 L365.818 1482.82 Z" fill="#000000" fill-rule="nonzero" fill-opacity="1" /><path clip-path="url(#clip750)" d="M415.007 1448.39 Q410.494 1448.39 408.208 1452.84 Q405.951 1457.27 405.951 1466.18 Q405.951 1475.07 408.208 1479.52 Q410.494 1483.95 415.007 1483.95 Q419.55 1483.95 421.807 1479.52 Q424.093 1475.07 424.093 1466.18 Q424.093 1457.27 421.807 1452.84 Q419.55 1448.39 415.007 1448.39 M415.007 1443.76 Q422.27 1443.76 426.09 1449.52 Q429.938 1455.25 429.938 1466.18 Q429.938 1477.09 426.09 1482.85 Q422.27 1488.58 415.007 1488.58 Q407.745 1488.58 403.896 1482.85 Q400.077 1477.09 400.077 1466.18 Q400.077 1455.25 403.896 1449.52 Q407.745 1443.76 415.007 1443.76 Z" fill="#000000" fill-rule="nonzero" fill-opacity="1" /><path clip-path="url(#clip750)" d="M1296.14 1482.82 L1305.69 1482.82 L1305.69 1449.86 L1295.3 1451.95 L1295.3 1446.62 L1305.63 1444.54 L1311.48 1444.54 L1311.48 1482.82 L1321.02 1482.82 L1321.02 1487.74 L1296.14 1487.74 L1296.14 1482.82 Z" fill="#000000" fill-rule="nonzero" fill-opacity="1" /><path clip-path="url(#clip750)" d="M1345.33 1448.39 Q1340.82 1448.39 1338.53 1452.84 Q1336.27 1457.27 1336.27 1466.18 Q1336.27 1475.07 1338.53 1479.52 Q1340.82 1483.95 1345.33 1483.95 Q1349.87 1483.95 1352.13 1479.52 Q1354.42 1475.07 1354.42 1466.18 Q1354.42 1457.27 1352.13 1452.84 Q1349.87 1448.39 1345.33 1448.39 M1345.33 1443.76 Q1352.59 1443.76 1356.41 1449.52 Q1360.26 1455.25 1360.26 1466.18 Q1360.26 1477.09 1356.41 1482.85 Q1352.59 1488.58 1345.33 1488.58 Q1338.07 1488.58 1334.22 1482.85 Q1330.4 1477.09 1330.4 1466.18 Q1330.4 1455.25 1334.22 1449.52 Q1338.07 1443.76 1345.33 1443.76 Z" fill="#000000" fill-rule="nonzero" fill-opacity="1" /><path clip-path="url(#clip750)" d="M1383.03 1448.39 Q1378.52 1448.39 1376.23 1452.84 Q1373.98 1457.27 1373.98 1466.18 Q1373.98 1475.07 1376.23 1479.52 Q1378.52 1483.95 1383.03 1483.95 Q1387.58 1483.95 1389.83 1479.52 Q1392.12 1475.07 1392.12 1466.18 Q1392.12 1457.27 1389.83 1452.84 Q1387.58 1448.39 1383.03 1448.39 M1383.03 1443.76 Q1390.29 1443.76 1394.11 1449.52 Q1397.96 1455.25 1397.96 1466.18 Q1397.96 1477.09 1394.11 1482.85 Q1390.29 1488.58 1383.03 1488.58 Q1375.77 1488.58 1371.92 1482.85 Q1368.1 1477.09 1368.1 1466.18 Q1368.1 1455.25 1371.92 1449.52 Q1375.77 1443.76 1383.03 1443.76 Z" fill="#000000" fill-rule="nonzero" fill-opacity="1" /><path clip-path="url(#clip750)" d="M2226.46 1482.82 L2236.01 1482.82 L2236.01 1449.86 L2225.62 1451.95 L2225.62 1446.62 L2235.95 1444.54 L2241.8 1444.54 L2241.8 1482.82 L2251.35 1482.82 L2251.35 1487.74 L2226.46 1487.74 L2226.46 1482.82 Z" fill="#000000" fill-rule="nonzero" fill-opacity="1" /><path clip-path="url(#clip750)" d="M2275.65 1448.39 Q2271.14 1448.39 2268.85 1452.84 Q2266.6 1457.27 2266.6 1466.18 Q2266.6 1475.07 2268.85 1479.52 Q2271.14 1483.95 2275.65 1483.95 Q2280.2 1483.95 2282.45 1479.52 Q2284.74 1475.07 2284.74 1466.18 Q2284.74 1457.27 2282.45 1452.84 Q2280.2 1448.39 2275.65 1448.39 M2275.65 1443.76 Q2282.91 1443.76 2286.73 1449.52 Q2290.58 1455.25 2290.58 1466.18 Q2290.58 1477.09 2286.73 1482.85 Q2282.91 1488.58 2275.65 1488.58 Q2268.39 1488.58 2264.54 1482.85 Q2260.72 1477.09 2260.72 1466.18 Q2260.72 1455.25 2264.54 1449.52 Q2268.39 1443.76 2275.65 1443.76 Z" fill="#000000" fill-rule="nonzero" fill-opacity="1" /><path clip-path="url(#clip750)" d="M2313.35 1448.39 Q2308.84 1448.39 2306.55 1452.84 Q2304.3 1457.27 2304.3 1466.18 Q2304.3 1475.07 2306.55 1479.52 Q2308.84 1483.95 2313.35 1483.95 Q2317.9 1483.95 2320.15 1479.52 Q2322.44 1475.07 2322.44 1466.18 Q2322.44 1457.27 2320.15 1452.84 Q2317.9 1448.39 2313.35 1448.39 M2313.35 1443.76 Q2320.62 1443.76 2324.44 1449.52 Q2328.29 1455.25 2328.29 1466.18 Q2328.29 1477.09 2324.44 1482.85 Q2320.62 1488.58 2313.35 1488.58 Q2306.09 1488.58 2302.24 1482.85 Q2298.42 1477.09 2298.42 1466.18 Q2298.42 1455.25 2302.24 1449.52 Q2306.09 1443.76 2313.35 1443.76 Z" fill="#000000" fill-rule="nonzero" fill-opacity="1" /><path clip-path="url(#clip750)" d="M2351.06 1448.39 Q2346.54 1448.39 2344.26 1452.84 Q2342 1457.27 2342 1466.18 Q2342 1475.07 2344.26 1479.52 Q2346.54 1483.95 2351.06 1483.95 Q2355.6 1483.95 2357.86 1479.52 Q2360.14 1475.07 2360.14 1466.18 Q2360.14 1457.27 2357.86 1452.84 Q2355.6 1448.39 2351.06 1448.39 M2351.06 1443.76 Q2358.32 1443.76 2362.14 1449.52 Q2365.99 1455.25 2365.99 1466.18 Q2365.99 1477.09 2362.14 1482.85 Q2358.32 1488.58 2351.06 1488.58 Q2343.79 1488.58 2339.95 1482.85 Q2336.13 1477.09 2336.13 1466.18 Q2336.13 1455.25 2339.95 1449.52 Q2343.79 1443.76 2351.06 1443.76 Z" fill="#000000" fill-rule="nonzero" fill-opacity="1" /><path clip-path="url(#clip750)" d="M1155.18 1550.08 Q1157.25 1550.78 1159.19 1553.08 Q1161.17 1555.37 1163.14 1559.38 L1169.67 1572.36 L1162.76 1572.36 L1156.68 1560.17 Q1154.32 1555.4 1152.1 1553.84 Q1149.9 1552.28 1146.08 1552.28 L1139.08 1552.28 L1139.08 1572.36 L1132.65 1572.36 L1132.65 1524.84 L1147.16 1524.84 Q1155.31 1524.84 1159.32 1528.25 Q1163.33 1531.66 1163.33 1538.53 Q1163.33 1543.02 1161.23 1545.98 Q1159.16 1548.94 1155.18 1550.08 M1139.08 1530.13 L1139.08 1547 L1147.16 1547 Q1151.81 1547 1154.16 1544.86 Q1156.55 1542.7 1156.55 1538.53 Q1156.55 1534.36 1154.16 1532.26 Q1151.81 1530.13 1147.16 1530.13 L1139.08 1530.13 Z" fill="#000000" fill-rule="nonzero" fill-opacity="1" /><path clip-path="url(#clip750)" d="M1205.25 1553.08 L1205.25 1555.94 L1178.32 1555.94 Q1178.7 1561.99 1181.95 1565.17 Q1185.23 1568.32 1191.05 1568.32 Q1194.43 1568.32 1197.58 1567.49 Q1200.76 1566.67 1203.88 1565.01 L1203.88 1570.55 Q1200.73 1571.89 1197.42 1572.59 Q1194.11 1573.29 1190.7 1573.29 Q1182.17 1573.29 1177.18 1568.32 Q1172.21 1563.36 1172.21 1554.89 Q1172.21 1546.14 1176.92 1541.01 Q1181.66 1535.86 1189.69 1535.86 Q1196.88 1535.86 1201.05 1540.5 Q1205.25 1545.12 1205.25 1553.08 M1199.39 1551.36 Q1199.33 1546.55 1196.69 1543.69 Q1194.08 1540.82 1189.75 1540.82 Q1184.85 1540.82 1181.89 1543.59 Q1178.96 1546.36 1178.51 1551.39 L1199.39 1551.36 Z" fill="#000000" fill-rule="nonzero" fill-opacity="1" /><path clip-path="url(#clip750)" d="M1220.65 1526.59 L1220.65 1536.72 L1232.72 1536.72 L1232.72 1541.27 L1220.65 1541.27 L1220.65 1560.62 Q1220.65 1564.98 1221.83 1566.22 Q1223.04 1567.46 1226.7 1567.46 L1232.72 1567.46 L1232.72 1572.36 L1226.7 1572.36 Q1219.92 1572.36 1217.34 1569.85 Q1214.77 1567.3 1214.77 1560.62 L1214.77 1541.27 L1210.47 1541.27 L1210.47 1536.72 L1214.77 1536.72 L1214.77 1526.59 L1220.65 1526.59 Z" fill="#000000" fill-rule="nonzero" fill-opacity="1" /><path clip-path="url(#clip750)" d="M1239.82 1558.3 L1239.82 1536.72 L1245.67 1536.72 L1245.67 1558.07 Q1245.67 1563.13 1247.65 1565.68 Q1249.62 1568.19 1253.57 1568.19 Q1258.31 1568.19 1261.05 1565.17 Q1263.81 1562.15 1263.81 1556.93 L1263.81 1536.72 L1269.67 1536.72 L1269.67 1572.36 L1263.81 1572.36 L1263.81 1566.89 Q1261.68 1570.14 1258.85 1571.73 Q1256.05 1573.29 1252.32 1573.29 Q1246.18 1573.29 1243 1569.47 Q1239.82 1565.65 1239.82 1558.3 M1254.55 1535.86 L1254.55 1535.86 Z" fill="#000000" fill-rule="nonzero" fill-opacity="1" /><path clip-path="url(#clip750)" d="M1302.39 1542.19 Q1301.4 1541.62 1300.23 1541.36 Q1299.08 1541.08 1297.68 1541.08 Q1292.71 1541.08 1290.04 1544.32 Q1287.4 1547.54 1287.4 1553.59 L1287.4 1572.36 L1281.51 1572.36 L1281.51 1536.72 L1287.4 1536.72 L1287.4 1542.25 Q1289.25 1539.01 1292.21 1537.45 Q1295.17 1535.86 1299.4 1535.86 Q1300 1535.86 1300.74 1535.95 Q1301.47 1536.02 1302.36 1536.17 L1302.39 1542.19 Z" fill="#000000" fill-rule="nonzero" fill-opacity="1" /><path clip-path="url(#clip750)" d="M1337.02 1550.85 L1337.02 1572.36 L1331.16 1572.36 L1331.16 1551.04 Q1331.16 1545.98 1329.19 1543.46 Q1327.22 1540.95 1323.27 1540.95 Q1318.53 1540.95 1315.79 1543.97 Q1313.05 1547 1313.05 1552.22 L1313.05 1572.36 L1307.16 1572.36 L1307.16 1536.72 L1313.05 1536.72 L1313.05 1542.25 Q1315.15 1539.04 1317.99 1537.45 Q1320.85 1535.86 1324.57 1535.86 Q1330.72 1535.86 1333.87 1539.68 Q1337.02 1543.46 1337.02 1550.85 Z" fill="#000000" fill-rule="nonzero" fill-opacity="1" /><path clip-path="url(#clip750)" d="M1376.11 1530.13 L1376.11 1547.98 L1384.19 1547.98 Q1388.68 1547.98 1391.13 1545.66 Q1393.58 1543.34 1393.58 1539.04 Q1393.58 1534.77 1391.13 1532.45 Q1388.68 1530.13 1384.19 1530.13 L1376.11 1530.13 M1369.68 1524.84 L1384.19 1524.84 Q1392.18 1524.84 1396.25 1528.47 Q1400.36 1532.07 1400.36 1539.04 Q1400.36 1546.07 1396.25 1549.67 Q1392.18 1553.27 1384.19 1553.27 L1376.11 1553.27 L1376.11 1572.36 L1369.68 1572.36 L1369.68 1524.84 Z" fill="#000000" fill-rule="nonzero" fill-opacity="1" /><path clip-path="url(#clip750)" d="M1436.9 1553.08 L1436.9 1555.94 L1409.97 1555.94 Q1410.35 1561.99 1413.6 1565.17 Q1416.88 1568.32 1422.7 1568.32 Q1426.08 1568.32 1429.23 1567.49 Q1432.41 1566.67 1435.53 1565.01 L1435.53 1570.55 Q1432.38 1571.89 1429.07 1572.59 Q1425.76 1573.29 1422.35 1573.29 Q1413.82 1573.29 1408.82 1568.32 Q1403.86 1563.36 1403.86 1554.89 Q1403.86 1546.14 1408.57 1541.01 Q1413.31 1535.86 1421.33 1535.86 Q1428.53 1535.86 1432.7 1540.5 Q1436.9 1545.12 1436.9 1553.08 M1431.04 1551.36 Q1430.98 1546.55 1428.34 1543.69 Q1425.73 1540.82 1421.4 1540.82 Q1416.5 1540.82 1413.54 1543.59 Q1410.61 1546.36 1410.16 1551.39 L1431.04 1551.36 Z" fill="#000000" fill-rule="nonzero" fill-opacity="1" /><path clip-path="url(#clip750)" d="M1467.17 1542.19 Q1466.18 1541.62 1465 1541.36 Q1463.86 1541.08 1462.46 1541.08 Q1457.49 1541.08 1454.82 1544.32 Q1452.18 1547.54 1452.18 1553.59 L1452.18 1572.36 L1446.29 1572.36 L1446.29 1536.72 L1452.18 1536.72 L1452.18 1542.25 Q1454.02 1539.01 1456.98 1537.45 Q1459.94 1535.86 1464.17 1535.86 Q1464.78 1535.86 1465.51 1535.95 Q1466.24 1536.02 1467.13 1536.17 L1467.17 1542.19 Z" fill="#000000" fill-rule="nonzero" fill-opacity="1" /><path clip-path="url(#clip750)" d="M1473.31 1536.72 L1479.17 1536.72 L1479.17 1572.36 L1473.31 1572.36 L1473.31 1536.72 M1473.31 1522.84 L1479.17 1522.84 L1479.17 1530.25 L1473.31 1530.25 L1473.31 1522.84 Z" fill="#000000" fill-rule="nonzero" fill-opacity="1" /><path clip-path="url(#clip750)" d="M1505.23 1540.82 Q1500.52 1540.82 1497.79 1544.51 Q1495.05 1548.17 1495.05 1554.57 Q1495.05 1560.97 1497.75 1564.66 Q1500.49 1568.32 1505.23 1568.32 Q1509.91 1568.32 1512.65 1564.63 Q1515.39 1560.94 1515.39 1554.57 Q1515.39 1548.24 1512.65 1544.55 Q1509.91 1540.82 1505.23 1540.82 M1505.23 1535.86 Q1512.87 1535.86 1517.23 1540.82 Q1521.59 1545.79 1521.59 1554.57 Q1521.59 1563.32 1517.23 1568.32 Q1512.87 1573.29 1505.23 1573.29 Q1497.56 1573.29 1493.2 1568.32 Q1488.87 1563.32 1488.87 1554.57 Q1488.87 1545.79 1493.2 1540.82 Q1497.56 1535.86 1505.23 1535.86 Z" fill="#000000" fill-rule="nonzero" fill-opacity="1" /><path clip-path="url(#clip750)" d="M1554.76 1542.13 L1554.76 1522.84 L1560.62 1522.84 L1560.62 1572.36 L1554.76 1572.36 L1554.76 1567.02 Q1552.91 1570.2 1550.08 1571.76 Q1547.28 1573.29 1543.33 1573.29 Q1536.87 1573.29 1532.8 1568.13 Q1528.75 1562.97 1528.75 1554.57 Q1528.75 1546.17 1532.8 1541.01 Q1536.87 1535.86 1543.33 1535.86 Q1547.28 1535.86 1550.08 1537.42 Q1552.91 1538.94 1554.76 1542.13 M1534.8 1554.57 Q1534.8 1561.03 1537.44 1564.72 Q1540.12 1568.39 1544.76 1568.39 Q1549.41 1568.39 1552.09 1564.72 Q1554.76 1561.03 1554.76 1554.57 Q1554.76 1548.11 1552.09 1544.45 Q1549.41 1540.76 1544.76 1540.76 Q1540.12 1540.76 1537.44 1544.45 Q1534.8 1548.11 1534.8 1554.57 Z" fill="#000000" fill-rule="nonzero" fill-opacity="1" /><polyline clip-path="url(#clip752)" style="stroke:#000000; stroke-linecap:round; stroke-linejoin:round; stroke-width:2; stroke-opacity:0.1; fill:none" points="340.508,1410.01 2352.76,1410.01 "/>
<polyline clip-path="url(#clip752)" style="stroke:#000000; stroke-linecap:round; stroke-linejoin:round; stroke-width:2; stroke-opacity:0.1; fill:none" points="340.508,1186.73 2352.76,1186.73 "/>
<polyline clip-path="url(#clip752)" style="stroke:#000000; stroke-linecap:round; stroke-linejoin:round; stroke-width:2; stroke-opacity:0.1; fill:none" points="340.508,963.445 2352.76,963.445 "/>
<polyline clip-path="url(#clip752)" style="stroke:#000000; stroke-linecap:round; stroke-linejoin:round; stroke-width:2; stroke-opacity:0.1; fill:none" points="340.508,740.161 2352.76,740.161 "/>
<polyline clip-path="url(#clip752)" style="stroke:#000000; stroke-linecap:round; stroke-linejoin:round; stroke-width:2; stroke-opacity:0.1; fill:none" points="340.508,516.878 2352.76,516.878 "/>
<polyline clip-path="url(#clip752)" style="stroke:#000000; stroke-linecap:round; stroke-linejoin:round; stroke-width:2; stroke-opacity:0.1; fill:none" points="340.508,293.595 2352.76,293.595 "/>
<polyline clip-path="url(#clip752)" style="stroke:#000000; stroke-linecap:round; stroke-linejoin:round; stroke-width:2; stroke-opacity:0.1; fill:none" points="340.508,70.3113 2352.76,70.3113 "/>
<polyline clip-path="url(#clip750)" style="stroke:#000000; stroke-linecap:round; stroke-linejoin:round; stroke-width:4; stroke-opacity:1; fill:none" points="340.508,1414.54 340.508,47.2441 "/>
<polyline clip-path="url(#clip750)" style="stroke:#000000; stroke-linecap:round; stroke-linejoin:round; stroke-width:4; stroke-opacity:1; fill:none" points="340.508,1410.01 359.406,1410.01 "/>
<polyline clip-path="url(#clip750)" style="stroke:#000000; stroke-linecap:round; stroke-linejoin:round; stroke-width:4; stroke-opacity:1; fill:none" points="340.508,1186.73 359.406,1186.73 "/>
<polyline clip-path="url(#clip750)" style="stroke:#000000; stroke-linecap:round; stroke-linejoin:round; stroke-width:4; stroke-opacity:1; fill:none" points="340.508,963.445 359.406,963.445 "/>
<polyline clip-path="url(#clip750)" style="stroke:#000000; stroke-linecap:round; stroke-linejoin:round; stroke-width:4; stroke-opacity:1; fill:none" points="340.508,740.161 359.406,740.161 "/>
<polyline clip-path="url(#clip750)" style="stroke:#000000; stroke-linecap:round; stroke-linejoin:round; stroke-width:4; stroke-opacity:1; fill:none" points="340.508,516.878 359.406,516.878 "/>
<polyline clip-path="url(#clip750)" style="stroke:#000000; stroke-linecap:round; stroke-linejoin:round; stroke-width:4; stroke-opacity:1; fill:none" points="340.508,293.595 359.406,293.595 "/>
<polyline clip-path="url(#clip750)" style="stroke:#000000; stroke-linecap:round; stroke-linejoin:round; stroke-width:4; stroke-opacity:1; fill:none" points="340.508,70.3113 359.406,70.3113 "/>
<path clip-path="url(#clip750)" d="M114.26 1410.58 L151.355 1410.58 L151.355 1415.49 L114.26 1415.49 L114.26 1410.58 Z" fill="#000000" fill-rule="nonzero" fill-opacity="1" /><path clip-path="url(#clip750)" d="M169.005 1426.69 L189.404 1426.69 L189.404 1431.61 L161.974 1431.61 L161.974 1426.69 Q165.302 1423.25 171.031 1417.46 Q176.789 1411.65 178.264 1409.97 Q181.071 1406.81 182.171 1404.64 Q183.299 1402.44 183.299 1400.33 Q183.299 1396.89 180.869 1394.72 Q178.467 1392.55 174.59 1392.55 Q171.841 1392.55 168.774 1393.5 Q165.736 1394.46 162.263 1396.4 L162.263 1390.49 Q165.793 1389.08 168.861 1388.35 Q171.928 1387.63 174.474 1387.63 Q181.187 1387.63 185.18 1390.99 Q189.173 1394.34 189.173 1399.96 Q189.173 1402.62 188.16 1405.02 Q187.176 1407.39 184.543 1410.63 Q183.82 1411.47 179.943 1415.49 Q176.065 1419.49 169.005 1426.69 Z" fill="#000000" fill-rule="nonzero" fill-opacity="1" /><path clip-path="url(#clip750)" d="M214.173 1392.26 Q209.659 1392.26 207.373 1396.72 Q205.116 1401.14 205.116 1410.05 Q205.116 1418.94 207.373 1423.39 Q209.659 1427.82 214.173 1427.82 Q218.716 1427.82 220.973 1423.39 Q223.258 1418.94 223.258 1410.05 Q223.258 1401.14 220.973 1396.72 Q218.716 1392.26 214.173 1392.26 M214.173 1387.63 Q221.436 1387.63 225.255 1393.39 Q229.103 1399.12 229.103 1410.05 Q229.103 1420.96 225.255 1426.72 Q221.436 1432.45 214.173 1432.45 Q206.91 1432.45 203.062 1426.72 Q199.242 1420.96 199.242 1410.05 Q199.242 1399.12 203.062 1393.39 Q206.91 1387.63 214.173 1387.63 Z" fill="#000000" fill-rule="nonzero" fill-opacity="1" /><path clip-path="url(#clip750)" d="M251.875 1392.26 Q247.361 1392.26 245.075 1396.72 Q242.818 1401.14 242.818 1410.05 Q242.818 1418.94 245.075 1423.39 Q247.361 1427.82 251.875 1427.82 Q256.418 1427.82 258.675 1423.39 Q260.961 1418.94 260.961 1410.05 Q260.961 1401.14 258.675 1396.72 Q256.418 1392.26 251.875 1392.26 M251.875 1387.63 Q259.138 1387.63 262.957 1393.39 Q266.806 1399.12 266.806 1410.05 Q266.806 1420.96 262.957 1426.72 Q259.138 1432.45 251.875 1432.45 Q244.612 1432.45 240.764 1426.72 Q236.945 1420.96 236.945 1410.05 Q236.945 1399.12 240.764 1393.39 Q244.612 1387.63 251.875 1387.63 Z" fill="#000000" fill-rule="nonzero" fill-opacity="1" /><path clip-path="url(#clip750)" d="M289.578 1392.26 Q285.064 1392.26 282.778 1396.72 Q280.521 1401.14 280.521 1410.05 Q280.521 1418.94 282.778 1423.39 Q285.064 1427.82 289.578 1427.82 Q294.12 1427.82 296.377 1423.39 Q298.663 1418.94 298.663 1410.05 Q298.663 1401.14 296.377 1396.72 Q294.12 1392.26 289.578 1392.26 M289.578 1387.63 Q296.84 1387.63 300.66 1393.39 Q304.508 1399.12 304.508 1410.05 Q304.508 1420.96 300.66 1426.72 Q296.84 1432.45 289.578 1432.45 Q282.315 1432.45 278.466 1426.72 Q274.647 1420.96 274.647 1410.05 Q274.647 1399.12 278.466 1393.39 Q282.315 1387.63 289.578 1387.63 Z" fill="#000000" fill-rule="nonzero" fill-opacity="1" /><path clip-path="url(#clip750)" d="M114.26 1187.29 L151.355 1187.29 L151.355 1192.21 L114.26 1192.21 L114.26 1187.29 Z" fill="#000000" fill-rule="nonzero" fill-opacity="1" /><path clip-path="url(#clip750)" d="M164.983 1203.41 L174.532 1203.41 L174.532 1170.45 L164.144 1172.54 L164.144 1167.21 L174.474 1165.13 L180.319 1165.13 L180.319 1203.41 L189.867 1203.41 L189.867 1208.33 L164.983 1208.33 L164.983 1203.41 Z" fill="#000000" fill-rule="nonzero" fill-opacity="1" /><path clip-path="url(#clip750)" d="M214.173 1168.98 Q209.659 1168.98 207.373 1173.43 Q205.116 1177.86 205.116 1186.77 Q205.116 1195.65 207.373 1200.11 Q209.659 1204.54 214.173 1204.54 Q218.716 1204.54 220.973 1200.11 Q223.258 1195.65 223.258 1186.77 Q223.258 1177.86 220.973 1173.43 Q218.716 1168.98 214.173 1168.98 M214.173 1164.35 Q221.436 1164.35 225.255 1170.1 Q229.103 1175.83 229.103 1186.77 Q229.103 1197.68 225.255 1203.44 Q221.436 1209.17 214.173 1209.17 Q206.91 1209.17 203.062 1203.44 Q199.242 1197.68 199.242 1186.77 Q199.242 1175.83 203.062 1170.1 Q206.91 1164.35 214.173 1164.35 Z" fill="#000000" fill-rule="nonzero" fill-opacity="1" /><path clip-path="url(#clip750)" d="M251.875 1168.98 Q247.361 1168.98 245.075 1173.43 Q242.818 1177.86 242.818 1186.77 Q242.818 1195.65 245.075 1200.11 Q247.361 1204.54 251.875 1204.54 Q256.418 1204.54 258.675 1200.11 Q260.961 1195.65 260.961 1186.77 Q260.961 1177.86 258.675 1173.43 Q256.418 1168.98 251.875 1168.98 M251.875 1164.35 Q259.138 1164.35 262.957 1170.1 Q266.806 1175.83 266.806 1186.77 Q266.806 1197.68 262.957 1203.44 Q259.138 1209.17 251.875 1209.17 Q244.612 1209.17 240.764 1203.44 Q236.945 1197.68 236.945 1186.77 Q236.945 1175.83 240.764 1170.1 Q244.612 1164.35 251.875 1164.35 Z" fill="#000000" fill-rule="nonzero" fill-opacity="1" /><path clip-path="url(#clip750)" d="M289.578 1168.98 Q285.064 1168.98 282.778 1173.43 Q280.521 1177.86 280.521 1186.77 Q280.521 1195.65 282.778 1200.11 Q285.064 1204.54 289.578 1204.54 Q294.12 1204.54 296.377 1200.11 Q298.663 1195.65 298.663 1186.77 Q298.663 1177.86 296.377 1173.43 Q294.12 1168.98 289.578 1168.98 M289.578 1164.35 Q296.84 1164.35 300.66 1170.1 Q304.508 1175.83 304.508 1186.77 Q304.508 1197.68 300.66 1203.44 Q296.84 1209.17 289.578 1209.17 Q282.315 1209.17 278.466 1203.44 Q274.647 1197.68 274.647 1186.77 Q274.647 1175.83 278.466 1170.1 Q282.315 1164.35 289.578 1164.35 Z" fill="#000000" fill-rule="nonzero" fill-opacity="1" /><path clip-path="url(#clip750)" d="M289.578 945.693 Q285.064 945.693 282.778 950.149 Q280.521 954.576 280.521 963.488 Q280.521 972.371 282.778 976.827 Q285.064 981.254 289.578 981.254 Q294.12 981.254 296.377 976.827 Q298.663 972.371 298.663 963.488 Q298.663 954.576 296.377 950.149 Q294.12 945.693 289.578 945.693 M289.578 941.063 Q296.84 941.063 300.66 946.821 Q304.508 952.55 304.508 963.488 Q304.508 974.396 300.66 980.154 Q296.84 985.884 289.578 985.884 Q282.315 985.884 278.466 980.154 Q274.647 974.396 274.647 963.488 Q274.647 952.55 278.466 946.821 Q282.315 941.063 289.578 941.063 Z" fill="#000000" fill-rule="nonzero" fill-opacity="1" /><path clip-path="url(#clip750)" d="M164.983 756.842 L174.532 756.842 L174.532 723.885 L164.144 725.969 L164.144 720.645 L174.474 718.561 L180.319 718.561 L180.319 756.842 L189.867 756.842 L189.867 761.761 L164.983 761.761 L164.983 756.842 Z" fill="#000000" fill-rule="nonzero" fill-opacity="1" /><path clip-path="url(#clip750)" d="M214.173 722.41 Q209.659 722.41 207.373 726.866 Q205.116 731.293 205.116 740.205 Q205.116 749.088 207.373 753.544 Q209.659 757.971 214.173 757.971 Q218.716 757.971 220.973 753.544 Q223.258 749.088 223.258 740.205 Q223.258 731.293 220.973 726.866 Q218.716 722.41 214.173 722.41 M214.173 717.78 Q221.436 717.78 225.255 723.538 Q229.103 729.267 229.103 740.205 Q229.103 751.113 225.255 756.871 Q221.436 762.6 214.173 762.6 Q206.91 762.6 203.062 756.871 Q199.242 751.113 199.242 740.205 Q199.242 729.267 203.062 723.538 Q206.91 717.78 214.173 717.78 Z" fill="#000000" fill-rule="nonzero" fill-opacity="1" /><path clip-path="url(#clip750)" d="M251.875 722.41 Q247.361 722.41 245.075 726.866 Q242.818 731.293 242.818 740.205 Q242.818 749.088 245.075 753.544 Q247.361 757.971 251.875 757.971 Q256.418 757.971 258.675 753.544 Q260.961 749.088 260.961 740.205 Q260.961 731.293 258.675 726.866 Q256.418 722.41 251.875 722.41 M251.875 717.78 Q259.138 717.78 262.957 723.538 Q266.806 729.267 266.806 740.205 Q266.806 751.113 262.957 756.871 Q259.138 762.6 251.875 762.6 Q244.612 762.6 240.764 756.871 Q236.945 751.113 236.945 740.205 Q236.945 729.267 240.764 723.538 Q244.612 717.78 251.875 717.78 Z" fill="#000000" fill-rule="nonzero" fill-opacity="1" /><path clip-path="url(#clip750)" d="M289.578 722.41 Q285.064 722.41 282.778 726.866 Q280.521 731.293 280.521 740.205 Q280.521 749.088 282.778 753.544 Q285.064 757.971 289.578 757.971 Q294.12 757.971 296.377 753.544 Q298.663 749.088 298.663 740.205 Q298.663 731.293 296.377 726.866 Q294.12 722.41 289.578 722.41 M289.578 717.78 Q296.84 717.78 300.66 723.538 Q304.508 729.267 304.508 740.205 Q304.508 751.113 300.66 756.871 Q296.84 762.6 289.578 762.6 Q282.315 762.6 278.466 756.871 Q274.647 751.113 274.647 740.205 Q274.647 729.267 278.466 723.538 Q282.315 717.78 289.578 717.78 Z" fill="#000000" fill-rule="nonzero" fill-opacity="1" /><path clip-path="url(#clip750)" d="M169.005 533.559 L189.404 533.559 L189.404 538.478 L161.974 538.478 L161.974 533.559 Q165.302 530.116 171.031 524.329 Q176.789 518.513 178.264 516.835 Q181.071 513.681 182.171 511.51 Q183.299 509.311 183.299 507.199 Q183.299 503.756 180.869 501.586 Q178.467 499.416 174.59 499.416 Q171.841 499.416 168.774 500.37 Q165.736 501.325 162.263 503.264 L162.263 497.361 Q165.793 495.943 168.861 495.22 Q171.928 494.497 174.474 494.497 Q181.187 494.497 185.18 497.853 Q189.173 501.21 189.173 506.823 Q189.173 509.485 188.16 511.887 Q187.176 514.259 184.543 517.5 Q183.82 518.339 179.943 522.361 Q176.065 526.354 169.005 533.559 Z" fill="#000000" fill-rule="nonzero" fill-opacity="1" /><path clip-path="url(#clip750)" d="M214.173 499.126 Q209.659 499.126 207.373 503.582 Q205.116 508.009 205.116 516.921 Q205.116 525.804 207.373 530.26 Q209.659 534.687 214.173 534.687 Q218.716 534.687 220.973 530.26 Q223.258 525.804 223.258 516.921 Q223.258 508.009 220.973 503.582 Q218.716 499.126 214.173 499.126 M214.173 494.497 Q221.436 494.497 225.255 500.255 Q229.103 505.984 229.103 516.921 Q229.103 527.83 225.255 533.588 Q221.436 539.317 214.173 539.317 Q206.91 539.317 203.062 533.588 Q199.242 527.83 199.242 516.921 Q199.242 505.984 203.062 500.255 Q206.91 494.497 214.173 494.497 Z" fill="#000000" fill-rule="nonzero" fill-opacity="1" /><path clip-path="url(#clip750)" d="M251.875 499.126 Q247.361 499.126 245.075 503.582 Q242.818 508.009 242.818 516.921 Q242.818 525.804 245.075 530.26 Q247.361 534.687 251.875 534.687 Q256.418 534.687 258.675 530.26 Q260.961 525.804 260.961 516.921 Q260.961 508.009 258.675 503.582 Q256.418 499.126 251.875 499.126 M251.875 494.497 Q259.138 494.497 262.957 500.255 Q266.806 505.984 266.806 516.921 Q266.806 527.83 262.957 533.588 Q259.138 539.317 251.875 539.317 Q244.612 539.317 240.764 533.588 Q236.945 527.83 236.945 516.921 Q236.945 505.984 240.764 500.255 Q244.612 494.497 251.875 494.497 Z" fill="#000000" fill-rule="nonzero" fill-opacity="1" /><path clip-path="url(#clip750)" d="M289.578 499.126 Q285.064 499.126 282.778 503.582 Q280.521 508.009 280.521 516.921 Q280.521 525.804 282.778 530.26 Q285.064 534.687 289.578 534.687 Q294.12 534.687 296.377 530.26 Q298.663 525.804 298.663 516.921 Q298.663 508.009 296.377 503.582 Q294.12 499.126 289.578 499.126 M289.578 494.497 Q296.84 494.497 300.66 500.255 Q304.508 505.984 304.508 516.921 Q304.508 527.83 300.66 533.588 Q296.84 539.317 289.578 539.317 Q282.315 539.317 278.466 533.588 Q274.647 527.83 274.647 516.921 Q274.647 505.984 278.466 500.255 Q282.315 494.497 289.578 494.497 Z" fill="#000000" fill-rule="nonzero" fill-opacity="1" /><path clip-path="url(#clip750)" d="M181.679 291.902 Q185.874 292.799 188.218 295.635 Q190.591 298.47 190.591 302.637 Q190.591 309.031 186.193 312.533 Q181.795 316.034 173.693 316.034 Q170.973 316.034 168.079 315.484 Q165.215 314.963 162.148 313.893 L162.148 308.25 Q164.578 309.668 167.472 310.391 Q170.365 311.115 173.519 311.115 Q179.017 311.115 181.881 308.945 Q184.775 306.775 184.775 302.637 Q184.775 298.817 182.084 296.676 Q179.422 294.506 174.648 294.506 L169.613 294.506 L169.613 289.703 L174.879 289.703 Q179.19 289.703 181.476 287.996 Q183.762 286.26 183.762 283.019 Q183.762 279.691 181.389 277.926 Q179.046 276.132 174.648 276.132 Q172.246 276.132 169.497 276.653 Q166.748 277.174 163.45 278.274 L163.45 273.065 Q166.777 272.139 169.671 271.676 Q172.593 271.213 175.168 271.213 Q181.823 271.213 185.701 274.252 Q189.578 277.261 189.578 282.411 Q189.578 285.999 187.524 288.488 Q185.469 290.947 181.679 291.902 Z" fill="#000000" fill-rule="nonzero" fill-opacity="1" /><path clip-path="url(#clip750)" d="M214.173 275.843 Q209.659 275.843 207.373 280.299 Q205.116 284.726 205.116 293.638 Q205.116 302.521 207.373 306.977 Q209.659 311.404 214.173 311.404 Q218.716 311.404 220.973 306.977 Q223.258 302.521 223.258 293.638 Q223.258 284.726 220.973 280.299 Q218.716 275.843 214.173 275.843 M214.173 271.213 Q221.436 271.213 225.255 276.971 Q229.103 282.701 229.103 293.638 Q229.103 304.547 225.255 310.305 Q221.436 316.034 214.173 316.034 Q206.91 316.034 203.062 310.305 Q199.242 304.547 199.242 293.638 Q199.242 282.701 203.062 276.971 Q206.91 271.213 214.173 271.213 Z" fill="#000000" fill-rule="nonzero" fill-opacity="1" /><path clip-path="url(#clip750)" d="M251.875 275.843 Q247.361 275.843 245.075 280.299 Q242.818 284.726 242.818 293.638 Q242.818 302.521 245.075 306.977 Q247.361 311.404 251.875 311.404 Q256.418 311.404 258.675 306.977 Q260.961 302.521 260.961 293.638 Q260.961 284.726 258.675 280.299 Q256.418 275.843 251.875 275.843 M251.875 271.213 Q259.138 271.213 262.957 276.971 Q266.806 282.701 266.806 293.638 Q266.806 304.547 262.957 310.305 Q259.138 316.034 251.875 316.034 Q244.612 316.034 240.764 310.305 Q236.945 304.547 236.945 293.638 Q236.945 282.701 240.764 276.971 Q244.612 271.213 251.875 271.213 Z" fill="#000000" fill-rule="nonzero" fill-opacity="1" /><path clip-path="url(#clip750)" d="M289.578 275.843 Q285.064 275.843 282.778 280.299 Q280.521 284.726 280.521 293.638 Q280.521 302.521 282.778 306.977 Q285.064 311.404 289.578 311.404 Q294.12 311.404 296.377 306.977 Q298.663 302.521 298.663 293.638 Q298.663 284.726 296.377 280.299 Q294.12 275.843 289.578 275.843 M289.578 271.213 Q296.84 271.213 300.66 276.971 Q304.508 282.701 304.508 293.638 Q304.508 304.547 300.66 310.305 Q296.84 316.034 289.578 316.034 Q282.315 316.034 278.466 310.305 Q274.647 304.547 274.647 293.638 Q274.647 282.701 278.466 276.971 Q282.315 271.213 289.578 271.213 Z" fill="#000000" fill-rule="nonzero" fill-opacity="1" /><path clip-path="url(#clip750)" d="M180.029 53.8039 L165.273 76.8651 L180.029 76.8651 L180.029 53.8039 M178.496 48.7113 L185.845 48.7113 L185.845 76.8651 L192.009 76.8651 L192.009 81.7262 L185.845 81.7262 L185.845 91.9113 L180.029 91.9113 L180.029 81.7262 L160.527 81.7262 L160.527 76.0839 L178.496 48.7113 Z" fill="#000000" fill-rule="nonzero" fill-opacity="1" /><path clip-path="url(#clip750)" d="M214.173 52.5597 Q209.659 52.5597 207.373 57.0157 Q205.116 61.4427 205.116 70.3547 Q205.116 79.2378 207.373 83.6938 Q209.659 88.1208 214.173 88.1208 Q218.716 88.1208 220.973 83.6938 Q223.258 79.2378 223.258 70.3547 Q223.258 61.4427 220.973 57.0157 Q218.716 52.5597 214.173 52.5597 M214.173 47.9301 Q221.436 47.9301 225.255 53.6881 Q229.103 59.4173 229.103 70.3547 Q229.103 81.2632 225.255 87.0213 Q221.436 92.7504 214.173 92.7504 Q206.91 92.7504 203.062 87.0213 Q199.242 81.2632 199.242 70.3547 Q199.242 59.4173 203.062 53.6881 Q206.91 47.9301 214.173 47.9301 Z" fill="#000000" fill-rule="nonzero" fill-opacity="1" /><path clip-path="url(#clip750)" d="M251.875 52.5597 Q247.361 52.5597 245.075 57.0157 Q242.818 61.4427 242.818 70.3547 Q242.818 79.2378 245.075 83.6938 Q247.361 88.1208 251.875 88.1208 Q256.418 88.1208 258.675 83.6938 Q260.961 79.2378 260.961 70.3547 Q260.961 61.4427 258.675 57.0157 Q256.418 52.5597 251.875 52.5597 M251.875 47.9301 Q259.138 47.9301 262.957 53.6881 Q266.806 59.4173 266.806 70.3547 Q266.806 81.2632 262.957 87.0213 Q259.138 92.7504 251.875 92.7504 Q244.612 92.7504 240.764 87.0213 Q236.945 81.2632 236.945 70.3547 Q236.945 59.4173 240.764 53.6881 Q244.612 47.9301 251.875 47.9301 Z" fill="#000000" fill-rule="nonzero" fill-opacity="1" /><path clip-path="url(#clip750)" d="M289.578 52.5597 Q285.064 52.5597 282.778 57.0157 Q280.521 61.4427 280.521 70.3547 Q280.521 79.2378 282.778 83.6938 Q285.064 88.1208 289.578 88.1208 Q294.12 88.1208 296.377 83.6938 Q298.663 79.2378 298.663 70.3547 Q298.663 61.4427 296.377 57.0157 Q294.12 52.5597 289.578 52.5597 M289.578 47.9301 Q296.84 47.9301 300.66 53.6881 Q304.508 59.4173 304.508 70.3547 Q304.508 81.2632 300.66 87.0213 Q296.84 92.7504 289.578 92.7504 Q282.315 92.7504 278.466 87.0213 Q274.647 81.2632 274.647 70.3547 Q274.647 59.4173 278.466 53.6881 Q282.315 47.9301 289.578 47.9301 Z" fill="#000000" fill-rule="nonzero" fill-opacity="1" /><path clip-path="url(#clip750)" d="M21.7677 1253.76 L58.7206 1253.76 L58.7206 1245.99 Q58.7206 1236.15 54.2646 1231.6 Q49.8086 1227.02 40.1964 1227.02 Q30.6479 1227.02 26.2237 1231.6 Q21.7677 1236.15 21.7677 1245.99 L21.7677 1253.76 M16.4842 1260.18 L16.4842 1246.98 Q16.4842 1233.16 22.2451 1226.7 Q27.9743 1220.24 40.1964 1220.24 Q52.4822 1220.24 58.2432 1226.73 Q64.0042 1233.23 64.0042 1246.98 L64.0042 1260.18 L16.4842 1260.18 Z" fill="#000000" fill-rule="nonzero" fill-opacity="1" /><path clip-path="url(#clip750)" d="M28.3562 1210.25 L28.3562 1204.39 L64.0042 1204.39 L64.0042 1210.25 L28.3562 1210.25 M14.479 1210.25 L14.479 1204.39 L21.895 1204.39 L21.895 1210.25 L14.479 1210.25 Z" fill="#000000" fill-rule="nonzero" fill-opacity="1" /><path clip-path="url(#clip750)" d="M14.479 1174.09 L19.3487 1174.09 L19.3487 1179.69 Q19.3487 1182.84 20.6219 1184.08 Q21.895 1185.29 25.2052 1185.29 L28.3562 1185.29 L28.3562 1175.65 L32.9077 1175.65 L32.9077 1185.29 L64.0042 1185.29 L64.0042 1191.18 L32.9077 1191.18 L32.9077 1196.78 L28.3562 1196.78 L28.3562 1191.18 L25.8736 1191.18 Q19.9216 1191.18 17.2162 1188.41 Q14.479 1185.64 14.479 1179.63 L14.479 1174.09 Z" fill="#000000" fill-rule="nonzero" fill-opacity="1" /><path clip-path="url(#clip750)" d="M14.479 1151.14 L19.3487 1151.14 L19.3487 1156.74 Q19.3487 1159.89 20.6219 1161.13 Q21.895 1162.34 25.2052 1162.34 L28.3562 1162.34 L28.3562 1152.7 L32.9077 1152.7 L32.9077 1162.34 L64.0042 1162.34 L64.0042 1168.23 L32.9077 1168.23 L32.9077 1173.83 L28.3562 1173.83 L28.3562 1168.23 L25.8736 1168.23 Q19.9216 1168.23 17.2162 1165.46 Q14.479 1162.69 14.479 1156.68 L14.479 1151.14 Z" fill="#000000" fill-rule="nonzero" fill-opacity="1" /><path clip-path="url(#clip750)" d="M44.7161 1115.75 L47.5806 1115.75 L47.5806 1142.67 Q53.6281 1142.29 56.8109 1139.05 Q59.9619 1135.77 59.9619 1129.94 Q59.9619 1126.57 59.1344 1123.42 Q58.3069 1120.23 56.6518 1117.12 L62.1899 1117.12 Q63.5267 1120.27 64.227 1123.58 Q64.9272 1126.89 64.9272 1130.29 Q64.9272 1138.82 59.9619 1143.82 Q54.9967 1148.78 46.5303 1148.78 Q37.7774 1148.78 32.6531 1144.07 Q27.4968 1139.33 27.4968 1131.31 Q27.4968 1124.12 32.1438 1119.95 Q36.7589 1115.75 44.7161 1115.75 M42.9973 1121.6 Q38.1912 1121.67 35.3266 1124.31 Q32.4621 1126.92 32.4621 1131.25 Q32.4621 1136.15 35.2312 1139.11 Q38.0002 1142.04 43.0292 1142.48 L42.9973 1121.6 Z" fill="#000000" fill-rule="nonzero" fill-opacity="1" /><path clip-path="url(#clip750)" d="M33.8307 1085.48 Q33.2578 1086.46 33.0032 1087.64 Q32.7167 1088.79 32.7167 1090.19 Q32.7167 1095.15 35.9632 1097.83 Q39.1779 1100.47 45.2253 1100.47 L64.0042 1100.47 L64.0042 1106.36 L28.3562 1106.36 L28.3562 1100.47 L33.8944 1100.47 Q30.6479 1098.62 29.0883 1095.66 Q27.4968 1092.7 27.4968 1088.47 Q27.4968 1087.86 27.5923 1087.13 Q27.656 1086.4 27.8151 1085.51 L33.8307 1085.48 Z" fill="#000000" fill-rule="nonzero" fill-opacity="1" /><path clip-path="url(#clip750)" d="M44.7161 1050.28 L47.5806 1050.28 L47.5806 1077.2 Q53.6281 1076.82 56.8109 1073.57 Q59.9619 1070.3 59.9619 1064.47 Q59.9619 1061.1 59.1344 1057.95 Q58.3069 1054.76 56.6518 1051.64 L62.1899 1051.64 Q63.5267 1054.8 64.227 1058.11 Q64.9272 1061.42 64.9272 1064.82 Q64.9272 1073.35 59.9619 1078.35 Q54.9967 1083.31 46.5303 1083.31 Q37.7774 1083.31 32.6531 1078.6 Q27.4968 1073.86 27.4968 1065.84 Q27.4968 1058.65 32.1438 1054.48 Q36.7589 1050.28 44.7161 1050.28 M42.9973 1056.13 Q38.1912 1056.2 35.3266 1058.84 Q32.4621 1061.45 32.4621 1065.78 Q32.4621 1070.68 35.2312 1073.64 Q38.0002 1076.57 43.0292 1077.01 L42.9973 1056.13 Z" fill="#000000" fill-rule="nonzero" fill-opacity="1" /><path clip-path="url(#clip750)" d="M42.4881 1011.03 L64.0042 1011.03 L64.0042 1016.89 L42.679 1016.89 Q37.6183 1016.89 35.1038 1018.86 Q32.5894 1020.83 32.5894 1024.78 Q32.5894 1029.52 35.6131 1032.26 Q38.6368 1035 43.8567 1035 L64.0042 1035 L64.0042 1040.89 L28.3562 1040.89 L28.3562 1035 L33.8944 1035 Q30.6797 1032.9 29.0883 1030.06 Q27.4968 1027.2 27.4968 1023.48 Q27.4968 1017.33 31.3163 1014.18 Q35.1038 1011.03 42.4881 1011.03 Z" fill="#000000" fill-rule="nonzero" fill-opacity="1" /><path clip-path="url(#clip750)" d="M29.7248 973.696 L35.1993 973.696 Q33.8307 976.179 33.1623 978.693 Q32.4621 981.176 32.4621 983.722 Q32.4621 989.419 36.0905 992.57 Q39.6872 995.721 46.212 995.721 Q52.7369 995.721 56.3653 992.57 Q59.9619 989.419 59.9619 983.722 Q59.9619 981.176 59.2935 978.693 Q58.5933 976.179 57.2247 973.696 L62.6355 973.696 Q63.7814 976.147 64.3543 978.788 Q64.9272 981.398 64.9272 984.358 Q64.9272 992.411 59.8664 997.154 Q54.8057 1001.9 46.212 1001.9 Q37.491 1001.9 32.4939 997.122 Q27.4968 992.316 27.4968 983.977 Q27.4968 981.271 28.0697 978.693 Q28.6108 976.115 29.7248 973.696 Z" fill="#000000" fill-rule="nonzero" fill-opacity="1" /><path clip-path="url(#clip750)" d="M44.7161 933.019 L47.5806 933.019 L47.5806 959.946 Q53.6281 959.564 56.8109 956.318 Q59.9619 953.039 59.9619 947.215 Q59.9619 943.841 59.1344 940.69 Q58.3069 937.507 56.6518 934.388 L62.1899 934.388 Q63.5267 937.539 64.227 940.849 Q64.9272 944.159 64.9272 947.565 Q64.9272 956.095 59.9619 961.092 Q54.9967 966.057 46.5303 966.057 Q37.7774 966.057 32.6531 961.346 Q27.4968 956.604 27.4968 948.583 Q27.4968 941.39 32.1438 937.22 Q36.7589 933.019 44.7161 933.019 M42.9973 938.876 Q38.1912 938.939 35.3266 941.581 Q32.4621 944.191 32.4621 948.52 Q32.4621 953.421 35.2312 956.381 Q38.0002 959.309 43.0292 959.755 L42.9973 938.876 Z" fill="#000000" fill-rule="nonzero" fill-opacity="1" /><path clip-path="url(#clip750)" d="M28.3562 902.686 L28.3562 896.83 L64.0042 896.83 L64.0042 902.686 L28.3562 902.686 M14.479 902.686 L14.479 896.83 L21.895 896.83 L21.895 902.686 L14.479 902.686 Z" fill="#000000" fill-rule="nonzero" fill-opacity="1" /><path clip-path="url(#clip750)" d="M42.4881 854.944 L64.0042 854.944 L64.0042 860.8 L42.679 860.8 Q37.6183 860.8 35.1038 862.773 Q32.5894 864.747 32.5894 868.694 Q32.5894 873.436 35.6131 876.173 Q38.6368 878.911 43.8567 878.911 L64.0042 878.911 L64.0042 884.799 L28.3562 884.799 L28.3562 878.911 L33.8944 878.911 Q30.6797 876.81 29.0883 873.977 Q27.4968 871.113 27.4968 867.389 Q27.4968 861.246 31.3163 858.095 Q35.1038 854.944 42.4881 854.944 Z" fill="#000000" fill-rule="nonzero" fill-opacity="1" /><path clip-path="url(#clip750)" d="M20.8447 803 Q20.8447 810.002 26.0645 814.139 Q31.2844 818.245 40.2919 818.245 Q49.2675 818.245 54.4874 814.139 Q59.7073 810.002 59.7073 803 Q59.7073 795.997 54.4874 791.923 Q49.2675 787.817 40.2919 787.817 Q31.2844 787.817 26.0645 791.923 Q20.8447 795.997 20.8447 803 M15.6248 803 Q15.6248 793.005 22.3406 787.022 Q29.0246 781.038 40.2919 781.038 Q51.5274 781.038 58.2432 787.022 Q64.9272 793.005 64.9272 803 Q64.9272 813.025 58.2432 819.041 Q51.5592 825.025 40.2919 825.025 Q29.0246 825.025 22.3406 819.041 Q15.6248 813.025 15.6248 803 Z" fill="#000000" fill-rule="nonzero" fill-opacity="1" /><path clip-path="url(#clip750)" d="M29.7248 745.581 L35.1993 745.581 Q33.8307 748.063 33.1623 750.578 Q32.4621 753.061 32.4621 755.607 Q32.4621 761.304 36.0905 764.455 Q39.6872 767.606 46.212 767.606 Q52.7369 767.606 56.3653 764.455 Q59.9619 761.304 59.9619 755.607 Q59.9619 753.061 59.2935 750.578 Q58.5933 748.063 57.2247 745.581 L62.6355 745.581 Q63.7814 748.032 64.3543 750.673 Q64.9272 753.283 64.9272 756.243 Q64.9272 764.296 59.8664 769.038 Q54.8057 773.781 46.212 773.781 Q37.491 773.781 32.4939 769.007 Q27.4968 764.201 27.4968 755.861 Q27.4968 753.156 28.0697 750.578 Q28.6108 748 29.7248 745.581 Z" fill="#000000" fill-rule="nonzero" fill-opacity="1" /><path clip-path="url(#clip750)" d="M29.7248 709.742 L35.1993 709.742 Q33.8307 712.225 33.1623 714.739 Q32.4621 717.222 32.4621 719.768 Q32.4621 725.465 36.0905 728.616 Q39.6872 731.767 46.212 731.767 Q52.7369 731.767 56.3653 728.616 Q59.9619 725.465 59.9619 719.768 Q59.9619 717.222 59.2935 714.739 Q58.5933 712.225 57.2247 709.742 L62.6355 709.742 Q63.7814 712.193 64.3543 714.834 Q64.9272 717.444 64.9272 720.404 Q64.9272 728.457 59.8664 733.2 Q54.8057 737.942 46.212 737.942 Q37.491 737.942 32.4939 733.168 Q27.4968 728.362 27.4968 720.023 Q27.4968 717.317 28.0697 714.739 Q28.6108 712.161 29.7248 709.742 Z" fill="#000000" fill-rule="nonzero" fill-opacity="1" /><path clip-path="url(#clip750)" d="M49.9359 700.162 L28.3562 700.162 L28.3562 694.305 L49.7131 694.305 Q54.7739 694.305 57.3202 692.332 Q59.8346 690.358 59.8346 686.412 Q59.8346 681.669 56.8109 678.932 Q53.7872 676.163 48.5673 676.163 L28.3562 676.163 L28.3562 670.306 L64.0042 670.306 L64.0042 676.163 L58.5296 676.163 Q61.7762 678.295 63.3676 681.128 Q64.9272 683.929 64.9272 687.653 Q64.9272 693.796 61.1078 696.979 Q57.2883 700.162 49.9359 700.162 M27.4968 685.425 L27.4968 685.425 Z" fill="#000000" fill-rule="nonzero" fill-opacity="1" /><path clip-path="url(#clip750)" d="M58.657 652.578 L77.5631 652.578 L77.5631 658.466 L28.3562 658.466 L28.3562 652.578 L33.7671 652.578 Q30.5842 650.732 29.0564 647.931 Q27.4968 645.098 27.4968 641.183 Q27.4968 634.69 32.6531 630.648 Q37.8093 626.574 46.212 626.574 Q54.6147 626.574 59.771 630.648 Q64.9272 634.69 64.9272 641.183 Q64.9272 645.098 63.3994 647.931 Q61.8398 650.732 58.657 652.578 M46.212 632.653 Q39.7508 632.653 36.0905 635.327 Q32.3984 637.969 32.3984 642.616 Q32.3984 647.262 36.0905 649.936 Q39.7508 652.578 46.212 652.578 Q52.6732 652.578 56.3653 649.936 Q60.0256 647.262 60.0256 642.616 Q60.0256 637.969 56.3653 635.327 Q52.6732 632.653 46.212 632.653 Z" fill="#000000" fill-rule="nonzero" fill-opacity="1" /><path clip-path="url(#clip750)" d="M28.3562 616.866 L28.3562 611.01 L64.0042 611.01 L64.0042 616.866 L28.3562 616.866 M14.479 616.866 L14.479 611.01 L21.895 611.01 L21.895 616.866 L14.479 616.866 Z" fill="#000000" fill-rule="nonzero" fill-opacity="1" /><path clip-path="url(#clip750)" d="M44.7161 568.264 L47.5806 568.264 L47.5806 595.191 Q53.6281 594.809 56.8109 591.563 Q59.9619 588.284 59.9619 582.46 Q59.9619 579.086 59.1344 575.935 Q58.3069 572.752 56.6518 569.633 L62.1899 569.633 Q63.5267 572.784 64.227 576.094 Q64.9272 579.404 64.9272 582.81 Q64.9272 591.34 59.9619 596.337 Q54.9967 601.302 46.5303 601.302 Q37.7774 601.302 32.6531 596.591 Q27.4968 591.849 27.4968 583.828 Q27.4968 576.635 32.1438 572.465 Q36.7589 568.264 44.7161 568.264 M42.9973 574.121 Q38.1912 574.184 35.3266 576.826 Q32.4621 579.436 32.4621 583.765 Q32.4621 588.666 35.2312 591.626 Q38.0002 594.554 43.0292 595 L42.9973 574.121 Z" fill="#000000" fill-rule="nonzero" fill-opacity="1" /><path clip-path="url(#clip750)" d="M33.7671 535.194 L14.479 535.194 L14.479 529.338 L64.0042 529.338 L64.0042 535.194 L58.657 535.194 Q61.8398 537.04 63.3994 539.873 Q64.9272 542.674 64.9272 546.621 Q64.9272 553.082 59.771 557.156 Q54.6147 561.198 46.212 561.198 Q37.8093 561.198 32.6531 557.156 Q27.4968 553.082 27.4968 546.621 Q27.4968 542.674 29.0564 539.873 Q30.5842 537.04 33.7671 535.194 M46.212 555.151 Q52.6732 555.151 56.3653 552.509 Q60.0256 549.835 60.0256 545.188 Q60.0256 540.541 56.3653 537.868 Q52.6732 535.194 46.212 535.194 Q39.7508 535.194 36.0905 537.868 Q32.3984 540.541 32.3984 545.188 Q32.3984 549.835 36.0905 552.509 Q39.7508 555.151 46.212 555.151 Z" fill="#000000" fill-rule="nonzero" fill-opacity="1" /><path clip-path="url(#clip750)" d="M43.5384 520.235 L43.5384 503.079 L48.7583 503.079 L48.7583 520.235 L43.5384 520.235 Z" fill="#000000" fill-rule="nonzero" fill-opacity="1" /><path clip-path="url(#clip750)" d="M16.4842 493.499 L16.4842 463.453 L21.895 463.453 L21.895 487.069 L35.9632 487.069 L35.9632 464.439 L41.3741 464.439 L41.3741 487.069 L58.5933 487.069 L58.5933 462.88 L64.0042 462.88 L64.0042 493.499 L16.4842 493.499 Z" fill="#000000" fill-rule="nonzero" fill-opacity="1" /><path clip-path="url(#clip750)" d="M28.3562 422.935 L45.7028 435.826 L64.0042 422.267 L64.0042 429.173 L49.9996 439.549 L64.0042 449.926 L64.0042 456.832 L45.3526 442.987 L28.3562 455.655 L28.3562 448.748 L41.0558 439.295 L28.3562 429.842 L28.3562 422.935 Z" fill="#000000" fill-rule="nonzero" fill-opacity="1" /><path clip-path="url(#clip750)" d="M58.657 408.326 L77.5631 408.326 L77.5631 414.214 L28.3562 414.214 L28.3562 408.326 L33.7671 408.326 Q30.5842 406.48 29.0564 403.679 Q27.4968 400.846 27.4968 396.931 Q27.4968 390.438 32.6531 386.396 Q37.8093 382.322 46.212 382.322 Q54.6147 382.322 59.771 386.396 Q64.9272 390.438 64.9272 396.931 Q64.9272 400.846 63.3994 403.679 Q61.8398 406.48 58.657 408.326 M46.212 388.401 Q39.7508 388.401 36.0905 391.075 Q32.3984 393.716 32.3984 398.363 Q32.3984 403.01 36.0905 405.684 Q39.7508 408.326 46.212 408.326 Q52.6732 408.326 56.3653 405.684 Q60.0256 403.01 60.0256 398.363 Q60.0256 393.716 56.3653 391.075 Q52.6732 388.401 46.212 388.401 Z" fill="#000000" fill-rule="nonzero" fill-opacity="1" /><path clip-path="url(#clip750)" d="M32.4621 358.801 Q32.4621 363.511 36.1542 366.248 Q39.8145 368.986 46.212 368.986 Q52.6095 368.986 56.3017 366.28 Q59.9619 363.543 59.9619 358.801 Q59.9619 354.122 56.2698 351.384 Q52.5777 348.647 46.212 348.647 Q39.8781 348.647 36.186 351.384 Q32.4621 354.122 32.4621 358.801 M27.4968 358.801 Q27.4968 351.162 32.4621 346.801 Q37.4273 342.441 46.212 342.441 Q54.9649 342.441 59.9619 346.801 Q64.9272 351.162 64.9272 358.801 Q64.9272 366.471 59.9619 370.832 Q54.9649 375.16 46.212 375.16 Q37.4273 375.16 32.4621 370.832 Q27.4968 366.471 27.4968 358.801 Z" fill="#000000" fill-rule="nonzero" fill-opacity="1" /><path clip-path="url(#clip750)" d="M29.4065 310.007 L34.9447 310.007 Q33.6716 312.49 33.035 315.164 Q32.3984 317.837 32.3984 320.702 Q32.3984 325.062 33.7352 327.258 Q35.072 329.423 37.7456 329.423 Q39.7826 329.423 40.9603 327.863 Q42.1061 326.304 43.1565 321.593 L43.6021 319.588 Q44.9389 313.349 47.3897 310.739 Q49.8086 308.098 54.1691 308.098 Q59.1344 308.098 62.0308 312.044 Q64.9272 315.959 64.9272 322.834 Q64.9272 325.699 64.3543 328.818 Q63.8132 331.905 62.6992 335.343 L56.6518 335.343 Q58.3387 332.096 59.198 328.945 Q60.0256 325.794 60.0256 322.707 Q60.0256 318.569 58.6251 316.341 Q57.1929 314.113 54.6147 314.113 Q52.2276 314.113 50.9545 315.736 Q49.6813 317.328 48.5037 322.771 L48.0262 324.808 Q46.8804 330.25 44.5251 332.669 Q42.138 335.088 38.0002 335.088 Q32.9713 335.088 30.2341 331.523 Q27.4968 327.959 27.4968 321.402 Q27.4968 318.155 27.9743 315.291 Q28.4517 312.426 29.4065 310.007 Z" fill="#000000" fill-rule="nonzero" fill-opacity="1" /><path clip-path="url(#clip750)" d="M49.9359 299.377 L28.3562 299.377 L28.3562 293.52 L49.7131 293.52 Q54.7739 293.52 57.3202 291.547 Q59.8346 289.573 59.8346 285.627 Q59.8346 280.884 56.8109 278.147 Q53.7872 275.378 48.5673 275.378 L28.3562 275.378 L28.3562 269.521 L64.0042 269.521 L64.0042 275.378 L58.5296 275.378 Q61.7762 277.51 63.3676 280.343 Q64.9272 283.144 64.9272 286.868 Q64.9272 293.011 61.1078 296.194 Q57.2883 299.377 49.9359 299.377 M27.4968 284.64 L27.4968 284.64 Z" fill="#000000" fill-rule="nonzero" fill-opacity="1" /><path clip-path="url(#clip750)" d="M33.8307 236.802 Q33.2578 237.788 33.0032 238.966 Q32.7167 240.112 32.7167 241.512 Q32.7167 246.478 35.9632 249.151 Q39.1779 251.793 45.2253 251.793 L64.0042 251.793 L64.0042 257.681 L28.3562 257.681 L28.3562 251.793 L33.8944 251.793 Q30.6479 249.947 29.0883 246.987 Q27.4968 244.027 27.4968 239.794 Q27.4968 239.189 27.5923 238.457 Q27.656 237.725 27.8151 236.834 L33.8307 236.802 Z" fill="#000000" fill-rule="nonzero" fill-opacity="1" /><path clip-path="url(#clip750)" d="M44.7161 201.599 L47.5806 201.599 L47.5806 228.526 Q53.6281 228.144 56.8109 224.898 Q59.9619 221.62 59.9619 215.795 Q59.9619 212.421 59.1344 209.27 Q58.3069 206.087 56.6518 202.968 L62.1899 202.968 Q63.5267 206.119 64.227 209.429 Q64.9272 212.739 64.9272 216.145 Q64.9272 224.675 59.9619 229.672 Q54.9967 234.637 46.5303 234.637 Q37.7774 234.637 32.6531 229.927 Q27.4968 225.184 27.4968 217.164 Q27.4968 209.97 32.1438 205.801 Q36.7589 201.599 44.7161 201.599 M42.9973 207.456 Q38.1912 207.519 35.3266 210.161 Q32.4621 212.771 32.4621 217.1 Q32.4621 222.001 35.2312 224.962 Q38.0002 227.89 43.0292 228.335 L42.9973 207.456 Z" fill="#000000" fill-rule="nonzero" fill-opacity="1" /><polyline clip-path="url(#clip752)" style="stroke:#0000ff; stroke-linecap:round; stroke-linejoin:round; stroke-width:10; stroke-opacity:1; fill:none" points="397.458,980.679 683.188,1008.06 850.329,1034.53 968.918,1048.72 1060.9,1052.53 1136.06,1044.98 1199.6,1034.84 1254.65,1023.73 1303.2,1014.22 1346.63,1004.18 1385.92,993.472 1421.79,984.054 1454.78,975.045 1485.33,966.2 1513.77,958.484 1540.38,950.703 1565.37,943.485 1588.93,936.478 1611.22,929.971 1632.36,923.841 1652.47,918.177 1671.65,913.144 1689.97,908.37 1707.52,904.131 1724.35,900.119 1740.51,896.209 1756.07,892.445 1771.06,889.151 1785.53,886.053 1799.5,883.217 1813.02,880.656 1826.11,878.246 1838.79,876.096 1851.1,874.113 1863.05,872.377 1874.66,871.075 1885.95,869.575 1896.95,868.078 1907.65,866.966 1918.09,865.982 1928.27,865.212 1938.2,864.534 1947.9,863.888 1957.38,863.4 1966.64,862.823 1975.7,862.439 1984.57,862.052 1993.25,861.553 2001.75,860.937 2010.08,860.534 2018.24,860.085 2026.24,859.992 2034.1,859.479 2041.8,859.232 2049.36,858.987 2056.79,858.67 2064.09,858.405 2071.26,858.066 2078.3,857.801 2085.23,857.422 2092.05,856.963 2098.75,856.588 2105.34,856.588 2111.84,856.4 2118.23,856.115 2124.52,855.969 2130.72,855.65 2136.83,855.399 2142.85,855.173 2148.78,854.962 2154.62,854.752 2160.39,854.607 2166.08,854.333 2171.68,854.06 2177.22,853.79 2182.68,853.564 2188.07,853.3 2193.38,853.079 2198.64,853.079 2203.82,853.017 2208.94,852.862 2214,852.798 2219,852.734 2223.93,852.645 2228.81,852.609 2233.63,852.546 2238.4,852.485 2243.11,852.423 2247.77,852.362 2252.37,852.302 2256.93,852.242 2261.43,852.182 2265.89,852.122 2270.3,852.063 2274.66,852.005 2278.98,851.947 2283.25,851.889 2287.48,851.831 2291.66,851.803 2295.81,851.803 "/>
<polyline clip-path="url(#clip752)" style="stroke:#ffa500; stroke-linecap:round; stroke-linejoin:round; stroke-width:10; stroke-opacity:1; fill:none" points="397.458,987.397 683.188,1025.29 850.329,1061.7 968.918,1081.23 1060.9,1086.69 1136.06,1077.2 1199.6,1063.72 1254.65,1049.06 1303.2,1036.47 1346.63,1023.11 1385.92,1008.85 1421.79,996.096 1454.78,983.922 1485.33,971.787 1513.77,961.453 1540.38,951.752 1565.37,942.192 1588.93,932.87 1611.22,924.76 1632.36,916.924 1652.47,909.546 1671.65,902.864 1689.97,896.461 1707.52,890.669 1724.35,885.314 1740.51,880.057 1756.07,875.172 1771.06,870.994 1785.53,866.699 1799.5,863.216 1813.02,860.179 1826.11,857.108 1838.79,854.557 1851.1,852.021 1863.05,849.704 1874.66,847.665 1885.95,845.688 1896.95,843.829 1907.65,842.161 1918.09,840.953 1928.27,840.064 1938.2,839.124 1947.9,838.257 1957.38,837.653 1966.64,837.202 1975.7,836.866 1984.57,836.534 1993.25,836.07 2001.75,835.782 2010.08,835.424 2018.24,834.954 2026.24,834.514 2034.1,834.181 2041.8,833.851 2049.36,833.525 2056.79,833.202 2064.09,832.883 2071.26,832.432 2078.3,831.902 2085.23,831.595 2092.05,831.223 2098.75,830.844 2105.34,830.468 2111.84,830.27 2118.23,830.233 2124.52,830 2130.72,829.745 2136.83,829.624 2142.85,829.359 2148.78,829.183 2154.62,829.062 2160.39,828.706 2166.08,828.35 2171.68,828.248 2177.22,828.146 2182.68,828.046 2188.07,827.946 2193.38,827.836 2198.64,827.705 2203.82,827.575 2208.94,827.44 2214,827.216 2219,826.993 2223.93,826.772 2228.81,826.553 2233.63,826.335 2238.4,826.184 2243.11,826.001 2247.77,826.088 2252.37,826.105 2256.93,826.026 2261.43,825.757 2265.89,825.647 2270.3,825.588 2274.66,825.53 2278.98,825.472 2283.25,825.432 2287.48,825.385 2291.66,825.328 2295.81,825.328 "/>
<polyline clip-path="url(#clip752)" style="stroke:#008000; stroke-linecap:round; stroke-linejoin:round; stroke-width:10; stroke-opacity:1; fill:none" points="397.458,1010.35 683.188,1079.99 850.329,1146.4 968.918,1182.57 1060.9,1193.88 1136.06,1178.33 1199.6,1155.32 1254.65,1130.36 1303.2,1108.32 1346.63,1085.47 1385.92,1061.36 1421.79,1039.54 1454.78,1018.96 1485.33,998.186 1513.77,979.736 1540.38,962.348 1565.37,945.843 1588.93,929.909 1611.22,915.732 1632.36,902.666 1652.47,889.958 1671.65,877.989 1689.97,866.899 1707.52,856.778 1724.35,847.65 1740.51,838.833 1756.07,830.442 1771.06,823.124 1785.53,816.268 1799.5,809.785 1813.02,803.767 1826.11,798.579 1838.79,793.968 1851.1,789.729 1863.05,785.655 1874.66,782.065 1885.95,778.684 1896.95,775.674 1907.65,773.69 1918.09,771.39 1928.27,769.534 1938.2,767.894 1947.9,766.749 1957.38,765.525 1966.64,764.65 1975.7,763.786 1984.57,762.934 1993.25,762.102 2001.75,761.262 2010.08,760.607 2018.24,759.881 2026.24,759.156 2034.1,758.405 2041.8,757.845 2049.36,757.193 2056.79,756.669 2064.09,756.018 2071.26,755.626 2078.3,755.353 2085.23,754.793 2092.05,754.107 2098.75,753.678 2105.34,753.453 2111.84,753.078 2118.23,752.546 2124.52,752.067 2130.72,751.886 2136.83,751.707 2142.85,751.437 2148.78,751.03 2154.62,750.579 2160.39,750.302 2166.08,750.016 2171.68,749.755 2177.22,749.485 2182.68,749.272 2188.07,748.985 2193.38,748.664 2198.64,748.394 2203.82,748.226 2208.94,748.129 2214,747.995 2219,747.664 2223.93,747.285 2228.81,746.909 2233.63,746.752 2238.4,746.628 2243.11,746.488 2247.77,746.305 2252.37,746.123 2256.93,745.943 2261.43,745.833 2265.89,745.744 2270.3,745.656 2274.66,745.568 2278.98,745.481 2283.25,745.394 2287.48,745.307 2291.66,745.265 2295.81,745.265 "/>
<polyline clip-path="url(#clip752)" style="stroke:#800080; stroke-linecap:round; stroke-linejoin:round; stroke-width:10; stroke-opacity:1; fill:none" points="397.458,1080.83 683.188,1192.84 850.329,1292.73 968.918,1351.11 1060.9,1375.84 1136.06,1365.79 1199.6,1345.68 1254.65,1322.01 1303.2,1301.2 1346.63,1278.94 1385.92,1254.53 1421.79,1232.58 1454.78,1211.34 1485.33,1189.82 1513.77,1170.69 1540.38,1152.64 1565.37,1135.36 1588.93,1119.09 1611.22,1104.33 1632.36,1090.58 1652.47,1077.68 1671.65,1065.52 1689.97,1054.57 1707.52,1044.46 1724.35,1035.12 1740.51,1026.42 1756.07,1018.46 1771.06,1011.27 1785.53,1004.71 1799.5,998.745 1813.02,993.321 1826.11,988.407 1838.79,984.07 1851.1,980.213 1863.05,976.814 1874.66,973.849 1885.95,971.289 1896.95,969.121 1907.65,967.341 1918.09,965.916 1928.27,964.829 1938.2,964.065 1947.9,963.608 1957.38,963.445 1966.64,963.445 1975.7,963.445 1984.57,963.445 1993.25,963.445 2001.75,963.445 2010.08,963.445 2018.24,963.445 2026.24,963.445 2034.1,963.445 2041.8,963.445 2049.36,963.445 2056.79,963.445 2064.09,963.445 2071.26,963.445 2078.3,963.445 2085.23,963.445 2092.05,963.445 2098.75,963.445 2105.34,963.445 2111.84,963.445 2118.23,963.445 2124.52,963.445 2130.72,963.445 2136.83,963.445 2142.85,963.445 2148.78,963.445 2154.62,963.445 2160.39,963.445 2166.08,963.445 2171.68,963.445 2177.22,963.445 2182.68,963.445 2188.07,963.445 2193.38,963.445 2198.64,963.445 2203.82,963.445 2208.94,963.445 2214,963.445 2219,963.445 2223.93,963.445 2228.81,963.445 2233.63,963.445 2238.4,963.445 2243.11,963.445 2247.77,963.445 2252.37,963.445 2256.93,963.445 2261.43,963.445 2265.89,963.445 2270.3,963.445 2274.66,963.445 2278.98,963.445 2283.25,963.445 2287.48,963.445 2291.66,963.445 2295.81,963.445 "/>
<path clip-path="url(#clip752)" d="M397.458 1003.66 L683.188 1041.59 L850.329 1075.57 L968.918 1095.45 L1060.9 1104.5 L1136.06 1101.85 L1199.6 1096.06 L1254.65 1089.21 L1303.2 1082.78 L1346.63 1076.24 L1385.92 1068.91 L1421.79 1061.65 L1454.78 1055.26 L1485.33 1048.65 L1513.77 1042.79 L1540.38 1037.3 L1565.37 1031.86 L1588.93 1026.78 L1611.22 1022.14 L1632.36 1017.81 L1652.47 1013.75 L1671.65 1010.02 L1689.97 1006.65 L1707.52 1003.54 L1724.35 1000.66 L1740.51 998.192 L1756.07 995.847 L1771.06 993.715 L1785.53 991.704 L1799.5 989.877 L1813.02 988.219 L1826.11 986.72 L1838.79 985.534 L1851.1 984.878 L1863.05 984.357 L1874.66 983.665 L1885.95 982.909 L1896.95 982.284 L1907.65 981.834 L1918.09 981.5 L1928.27 981.277 L1938.2 981.161 L1947.9 981.044 L1957.38 980.988 L1966.64 981.071 L1975.7 981.252 L1984.57 981.418 L1993.25 981.462 L2001.75 981.506 L2010.08 981.638 L2018.24 981.808 L2026.24 981.977 L2034.1 982.144 L2041.8 982.309 L2049.36 982.472 L2056.79 982.633 L2064.09 982.793 L2071.26 982.951 L2078.3 983.107 L2085.23 983.252 L2092.05 983.366 L2098.75 983.48 L2105.34 983.593 L2111.84 983.704 L2118.23 983.815 L2124.52 983.924 L2130.72 984.11 L2136.83 984.397 L2142.85 984.497 L2148.78 984.497 L2154.62 984.644 L2160.39 984.817 L2166.08 984.989 L2171.68 985.159 L2177.22 985.328 L2182.68 985.496 L2188.07 985.662 L2193.38 985.784 L2198.64 985.817 L2203.82 985.849 L2208.94 985.881 L2214 985.913 L2219 985.945 L2223.93 985.977 L2228.81 986.008 L2233.63 986.039 L2238.4 986.07 L2243.11 986.092 L2247.77 986.092 L2252.37 986.092 L2256.93 986.092 L2261.43 986.092 L2265.89 986.092 L2270.3 986.092 L2274.66 986.092 L2278.98 986.123 L2283.25 986.239 L2287.48 986.354 L2291.66 986.411 L2295.81 986.411 L2295.81 580.992 L2291.66 580.992 L2287.48 581.092 L2283.25 581.293 L2278.98 581.495 L2274.66 581.699 L2270.3 581.904 L2265.89 582.111 L2261.43 582.318 L2256.93 582.528 L2252.37 582.697 L2247.77 582.788 L2243.11 582.88 L2238.4 583.234 L2233.63 583.697 L2228.81 584.164 L2223.93 584.634 L2219 585.107 L2214 585.584 L2208.94 586.064 L2203.82 586.548 L2198.64 587.022 L2193.38 587.284 L2188.07 587.57 L2182.68 587.87 L2177.22 588.172 L2171.68 588.476 L2166.08 588.782 L2160.39 589.091 L2154.62 589.403 L2148.78 589.718 L2142.85 590.035 L2136.83 590.492 L2130.72 591.209 L2124.52 592.036 L2118.23 592.948 L2111.84 593.87 L2105.34 594.8 L2098.75 595.738 L2092.05 596.686 L2085.23 597.644 L2078.3 598.725 L2071.26 599.858 L2064.09 601.003 L2056.79 602.16 L2049.36 603.329 L2041.8 604.512 L2034.1 605.707 L2026.24 606.916 L2018.24 608.276 L2010.08 609.631 L2001.75 610.668 L1993.25 612.114 L1984.57 613.974 L1975.7 615.495 L1966.64 616.994 L1957.38 618.641 L1947.9 620.47 L1938.2 622.424 L1928.27 624.506 L1918.09 626.722 L1907.65 629.078 L1896.95 631.636 L1885.95 634.766 L1874.66 638.084 L1863.05 641.579 L1851.1 645.263 L1838.79 649.143 L1826.11 653.228 L1813.02 657.563 L1799.5 662.12 L1785.53 666.911 L1771.06 671.957 L1756.07 677.27 L1740.51 683.094 L1724.35 689.382 L1707.52 695.964 L1689.97 702.893 L1671.65 710.188 L1652.47 718.416 L1632.36 727.144 L1611.22 736.298 L1588.93 745.946 L1565.37 756.873 L1540.38 768.769 L1513.77 781.168 L1485.33 794.179 L1454.78 808.776 L1421.79 823.741 L1385.92 839.35 L1346.63 856.752 L1303.2 874.068 L1254.65 891.834 L1199.6 912.434 L1136.06 932.194 L1060.9 951.868 L968.918 962.447 L850.329 964.414 L683.188 963.445 L397.458 963.445  Z" fill="#0000ff" fill-rule="evenodd" fill-opacity="0.35"/>
<polyline clip-path="url(#clip752)" style="stroke:#0000ff; stroke-linecap:round; stroke-linejoin:round; stroke-width:4; stroke-opacity:0.35; fill:none" points="397.458,1003.66 683.188,1041.59 850.329,1075.57 968.918,1095.45 1060.9,1104.5 1136.06,1101.85 1199.6,1096.06 1254.65,1089.21 1303.2,1082.78 1346.63,1076.24 1385.92,1068.91 1421.79,1061.65 1454.78,1055.26 1485.33,1048.65 1513.77,1042.79 1540.38,1037.3 1565.37,1031.86 1588.93,1026.78 1611.22,1022.14 1632.36,1017.81 1652.47,1013.75 1671.65,1010.02 1689.97,1006.65 1707.52,1003.54 1724.35,1000.66 1740.51,998.192 1756.07,995.847 1771.06,993.715 1785.53,991.704 1799.5,989.877 1813.02,988.219 1826.11,986.72 1838.79,985.534 1851.1,984.878 1863.05,984.357 1874.66,983.665 1885.95,982.909 1896.95,982.284 1907.65,981.834 1918.09,981.5 1928.27,981.277 1938.2,981.161 1947.9,981.044 1957.38,980.988 1966.64,981.071 1975.7,981.252 1984.57,981.418 1993.25,981.462 2001.75,981.506 2010.08,981.638 2018.24,981.808 2026.24,981.977 2034.1,982.144 2041.8,982.309 2049.36,982.472 2056.79,982.633 2064.09,982.793 2071.26,982.951 2078.3,983.107 2085.23,983.252 2092.05,983.366 2098.75,983.48 2105.34,983.593 2111.84,983.704 2118.23,983.815 2124.52,983.924 2130.72,984.11 2136.83,984.397 2142.85,984.497 2148.78,984.497 2154.62,984.644 2160.39,984.817 2166.08,984.989 2171.68,985.159 2177.22,985.328 2182.68,985.496 2188.07,985.662 2193.38,985.784 2198.64,985.817 2203.82,985.849 2208.94,985.881 2214,985.913 2219,985.945 2223.93,985.977 2228.81,986.008 2233.63,986.039 2238.4,986.07 2243.11,986.092 2247.77,986.092 2252.37,986.092 2256.93,986.092 2261.43,986.092 2265.89,986.092 2270.3,986.092 2274.66,986.092 2278.98,986.123 2283.25,986.239 2287.48,986.354 2291.66,986.411 2295.81,986.411 "/>
<path clip-path="url(#clip752)" d="M397.458 1018.65 L683.188 1070.44 L850.329 1116.75 L968.918 1143.51 L1060.9 1155.04 L1136.06 1150.56 L1199.6 1142.27 L1254.65 1132.82 L1303.2 1124.61 L1346.63 1116.41 L1385.92 1105.38 L1421.79 1096.38 L1454.78 1087.47 L1485.33 1077.83 L1513.77 1069.07 L1540.38 1061.52 L1565.37 1054.29 L1588.93 1046.87 L1611.22 1041.07 L1632.36 1035.44 L1652.47 1029.82 L1671.65 1024.55 L1689.97 1019.72 L1707.52 1016.1 L1724.35 1012.36 L1740.51 1008.84 L1756.07 1005.62 L1771.06 1002.72 L1785.53 1000.09 L1799.5 997.724 L1813.02 995.596 L1826.11 993.739 L1838.79 992.035 L1851.1 990.41 L1863.05 989.151 L1874.66 988.185 L1885.95 987.394 L1896.95 986.757 L1907.65 985.49 L1918.09 984.646 L1928.27 984.443 L1938.2 984.383 L1947.9 984.458 L1957.38 984.664 L1966.64 985.001 L1975.7 985.322 L1984.57 985.232 L1993.25 985.144 L2001.75 985.056 L2010.08 984.97 L2018.24 985.146 L2026.24 985.478 L2034.1 985.603 L2041.8 985.727 L2049.36 986.022 L2056.79 986.586 L2064.09 987.145 L2071.26 987.697 L2078.3 988.245 L2085.23 988.745 L2092.05 988.914 L2098.75 988.876 L2105.34 988.839 L2111.84 988.801 L2118.23 988.765 L2124.52 988.728 L2130.72 988.692 L2136.83 988.656 L2142.85 988.621 L2148.78 988.585 L2154.62 988.55 L2160.39 988.516 L2166.08 988.492 L2171.68 988.595 L2177.22 988.696 L2182.68 988.797 L2188.07 988.896 L2193.38 989.017 L2198.64 989.181 L2203.82 989.343 L2208.94 989.505 L2214 989.665 L2219 989.747 L2223.93 989.716 L2228.81 989.684 L2233.63 989.653 L2238.4 989.622 L2243.11 989.645 L2247.77 989.797 L2252.37 989.948 L2256.93 990.099 L2261.43 990.248 L2265.89 990.396 L2270.3 990.544 L2274.66 990.69 L2278.98 990.836 L2283.25 990.919 L2287.48 990.891 L2291.66 990.876 L2295.81 990.876 L2295.81 448.617 L2291.66 448.617 L2287.48 448.66 L2283.25 448.746 L2278.98 448.833 L2274.66 448.92 L2270.3 449.008 L2265.89 449.098 L2261.43 449.365 L2256.93 449.634 L2252.37 449.905 L2247.77 450.177 L2243.11 450.451 L2238.4 450.924 L2233.63 451.48 L2228.81 452.04 L2223.93 452.604 L2219 453.172 L2214 453.745 L2208.94 454.321 L2203.82 454.902 L2198.64 455.487 L2193.38 456.076 L2188.07 456.781 L2182.68 457.669 L2177.22 458.709 L2171.68 459.756 L2166.08 460.812 L2160.39 461.877 L2154.62 462.951 L2148.78 464.034 L2142.85 465.126 L2136.83 466.303 L2130.72 467.629 L2124.52 468.968 L2118.23 470.187 L2111.84 471.218 L2105.34 472.26 L2098.75 473.311 L2092.05 474.373 L2085.23 475.445 L2078.3 476.614 L2071.26 477.825 L2064.09 479.049 L2056.79 480.286 L2049.36 481.536 L2041.8 482.8 L2034.1 484.078 L2026.24 485.37 L2018.24 486.849 L2010.08 488.528 L2001.75 490.342 L1993.25 492.179 L1984.57 494.039 L1975.7 495.922 L1966.64 497.831 L1957.38 499.969 L1947.9 502.378 L1938.2 505.198 L1928.27 508.436 L1918.09 511.867 L1907.65 515.498 L1896.95 519.339 L1885.95 523.454 L1874.66 527.805 L1863.05 532.394 L1851.1 537.237 L1838.79 542.347 L1826.11 547.735 L1813.02 553.94 L1799.5 560.584 L1785.53 567.5 L1771.06 574.769 L1756.07 582.411 L1740.51 590.864 L1724.35 600.033 L1707.52 608.776 L1689.97 617.838 L1671.65 627.388 L1652.47 639.075 L1632.36 651.596 L1611.22 664.679 L1588.93 678.411 L1565.37 693.185 L1540.38 708.904 L1513.77 725.167 L1485.33 741.32 L1454.78 760.677 L1421.79 781.143 L1385.92 801.529 L1346.63 824.729 L1303.2 848.452 L1254.65 872.048 L1199.6 897.169 L1136.06 924.068 L1060.9 950.512 L968.918 963.859 L850.329 967.409 L683.188 965.067 L397.458 963.57  Z" fill="#ffa500" fill-rule="evenodd" fill-opacity="0.35"/>
<polyline clip-path="url(#clip752)" style="stroke:#ffa500; stroke-linecap:round; stroke-linejoin:round; stroke-width:4; stroke-opacity:0.35; fill:none" points="397.458,1018.65 683.188,1070.44 850.329,1116.75 968.918,1143.51 1060.9,1155.04 1136.06,1150.56 1199.6,1142.27 1254.65,1132.82 1303.2,1124.61 1346.63,1116.41 1385.92,1105.38 1421.79,1096.38 1454.78,1087.47 1485.33,1077.83 1513.77,1069.07 1540.38,1061.52 1565.37,1054.29 1588.93,1046.87 1611.22,1041.07 1632.36,1035.44 1652.47,1029.82 1671.65,1024.55 1689.97,1019.72 1707.52,1016.1 1724.35,1012.36 1740.51,1008.84 1756.07,1005.62 1771.06,1002.72 1785.53,1000.09 1799.5,997.724 1813.02,995.596 1826.11,993.739 1838.79,992.035 1851.1,990.41 1863.05,989.151 1874.66,988.185 1885.95,987.394 1896.95,986.757 1907.65,985.49 1918.09,984.646 1928.27,984.443 1938.2,984.383 1947.9,984.458 1957.38,984.664 1966.64,985.001 1975.7,985.322 1984.57,985.232 1993.25,985.144 2001.75,985.056 2010.08,984.97 2018.24,985.146 2026.24,985.478 2034.1,985.603 2041.8,985.727 2049.36,986.022 2056.79,986.586 2064.09,987.145 2071.26,987.697 2078.3,988.245 2085.23,988.745 2092.05,988.914 2098.75,988.876 2105.34,988.839 2111.84,988.801 2118.23,988.765 2124.52,988.728 2130.72,988.692 2136.83,988.656 2142.85,988.621 2148.78,988.585 2154.62,988.55 2160.39,988.516 2166.08,988.492 2171.68,988.595 2177.22,988.696 2182.68,988.797 2188.07,988.896 2193.38,989.017 2198.64,989.181 2203.82,989.343 2208.94,989.505 2214,989.665 2219,989.747 2223.93,989.716 2228.81,989.684 2233.63,989.653 2238.4,989.622 2243.11,989.645 2247.77,989.797 2252.37,989.948 2256.93,990.099 2261.43,990.248 2265.89,990.396 2270.3,990.544 2274.66,990.69 2278.98,990.836 2283.25,990.919 2287.48,990.891 2291.66,990.876 2295.81,990.876 "/>
<path clip-path="url(#clip752)" d="M397.458 1060.32 L683.188 1151.94 L850.329 1234.23 L968.918 1282.2 L1060.9 1303.64 L1136.06 1297.05 L1199.6 1281.81 L1254.65 1264.08 L1303.2 1248.18 L1346.63 1231.21 L1385.92 1212.4 L1421.79 1196 L1454.78 1179.06 L1485.33 1163.02 L1513.77 1148.29 L1540.38 1134.38 L1565.37 1120.99 L1588.93 1108.37 L1611.22 1096.89 L1632.36 1086.58 L1652.47 1077.04 L1671.65 1068.2 L1689.97 1059.74 L1707.52 1051.31 L1724.35 1043.89 L1740.51 1037.56 L1756.07 1031.17 L1771.06 1025.51 L1785.53 1020.19 L1799.5 1015.06 L1813.02 1010.36 L1826.11 1006.95 L1838.79 1003.6 L1851.1 1000.17 L1863.05 997.988 L1874.66 996.211 L1885.95 994.085 L1896.95 992.279 L1907.65 990.787 L1918.09 989.584 L1928.27 988.72 L1938.2 988.586 L1947.9 988.692 L1957.38 989.028 L1966.64 989.446 L1975.7 989.81 L1984.57 990.169 L1993.25 990.523 L2001.75 990.873 L2010.08 991.218 L2018.24 991.56 L2026.24 991.873 L2034.1 992.082 L2041.8 992.288 L2049.36 992.492 L2056.79 992.769 L2064.09 993.208 L2071.26 993.642 L2078.3 994.072 L2085.23 994.324 L2092.05 994.094 L2098.75 994.206 L2105.34 994.261 L2111.84 994.224 L2118.23 994.187 L2124.52 994.151 L2130.72 994.115 L2136.83 994.079 L2142.85 994.043 L2148.78 994.008 L2154.62 993.973 L2160.39 993.938 L2166.08 993.904 L2171.68 993.87 L2177.22 993.836 L2182.68 993.76 L2188.07 993.561 L2193.38 993.494 L2198.64 993.69 L2203.82 993.747 L2208.94 993.747 L2214 993.747 L2219 993.747 L2223.93 993.667 L2228.81 993.747 L2233.63 993.747 L2238.4 993.747 L2243.11 993.747 L2247.77 993.747 L2252.37 993.747 L2256.93 993.747 L2261.43 993.747 L2265.89 993.747 L2270.3 993.747 L2274.66 993.747 L2278.98 993.747 L2283.25 993.747 L2287.48 993.747 L2291.66 993.747 L2295.81 993.747 L2295.81 85.9411 L2291.66 85.9411 L2287.48 86.0691 L2283.25 86.3279 L2278.98 86.5883 L2274.66 86.8503 L2270.3 87.1139 L2265.89 87.3793 L2261.43 87.6464 L2256.93 87.9152 L2252.37 88.1858 L2247.77 88.4583 L2243.11 88.7325 L2238.4 89.2929 L2233.63 89.9725 L2228.81 90.657 L2223.93 91.3463 L2219 92.0406 L2214 92.7398 L2208.94 93.4443 L2203.82 94.1539 L2198.64 94.869 L2193.38 95.5894 L2188.07 96.6027 L2182.68 97.7668 L2177.22 98.9401 L2171.68 100.123 L2166.08 101.315 L2160.39 102.518 L2154.62 103.941 L2148.78 105.443 L2142.85 106.958 L2136.83 108.673 L2130.72 110.753 L2124.52 112.851 L2118.23 114.969 L2111.84 117.106 L2105.34 119.263 L2098.75 121.441 L2092.05 123.64 L2085.23 125.861 L2078.3 128.475 L2071.26 131.249 L2064.09 134.052 L2056.79 136.885 L2049.36 139.749 L2041.8 142.643 L2034.1 145.57 L2026.24 148.531 L2018.24 151.833 L2010.08 155.248 L2001.75 158.704 L1993.25 162.202 L1984.57 165.745 L1975.7 169.036 L1966.64 172.217 L1957.38 175.874 L1947.9 180.067 L1938.2 184.757 L1928.27 190.279 L1918.09 196.136 L1907.65 202.344 L1896.95 208.915 L1885.95 215.902 L1874.66 223.323 L1863.05 231.163 L1851.1 239.452 L1838.79 248.212 L1826.11 257.713 L1813.02 268.633 L1799.5 280.137 L1785.53 292.226 L1771.06 305.076 L1756.07 318.628 L1740.51 333.423 L1724.35 349.344 L1707.52 365.997 L1689.97 383.519 L1671.65 401.961 L1652.47 422.474 L1632.36 444.06 L1611.22 466.312 L1588.93 489.996 L1565.37 516.149 L1540.38 543.463 L1513.77 571.914 L1485.33 601.836 L1454.78 635.87 L1421.79 670.876 L1385.92 707.066 L1346.63 747.93 L1303.2 789.001 L1254.65 830.08 L1199.6 877.724 L1136.06 925.479 L1060.9 970.797 L968.918 992.341 L850.329 996.622 L683.188 982.011 L397.458 970.81  Z" fill="#008000" fill-rule="evenodd" fill-opacity="0.35"/>
<polyline clip-path="url(#clip752)" style="stroke:#008000; stroke-linecap:round; stroke-linejoin:round; stroke-width:4; stroke-opacity:0.35; fill:none" points="397.458,1060.32 683.188,1151.94 850.329,1234.23 968.918,1282.2 1060.9,1303.64 1136.06,1297.05 1199.6,1281.81 1254.65,1264.08 1303.2,1248.18 1346.63,1231.21 1385.92,1212.4 1421.79,1196 1454.78,1179.06 1485.33,1163.02 1513.77,1148.29 1540.38,1134.38 1565.37,1120.99 1588.93,1108.37 1611.22,1096.89 1632.36,1086.58 1652.47,1077.04 1671.65,1068.2 1689.97,1059.74 1707.52,1051.31 1724.35,1043.89 1740.51,1037.56 1756.07,1031.17 1771.06,1025.51 1785.53,1020.19 1799.5,1015.06 1813.02,1010.36 1826.11,1006.95 1838.79,1003.6 1851.1,1000.17 1863.05,997.988 1874.66,996.211 1885.95,994.085 1896.95,992.279 1907.65,990.787 1918.09,989.584 1928.27,988.72 1938.2,988.586 1947.9,988.692 1957.38,989.028 1966.64,989.446 1975.7,989.81 1984.57,990.169 1993.25,990.523 2001.75,990.873 2010.08,991.218 2018.24,991.56 2026.24,991.873 2034.1,992.082 2041.8,992.288 2049.36,992.492 2056.79,992.769 2064.09,993.208 2071.26,993.642 2078.3,994.072 2085.23,994.324 2092.05,994.094 2098.75,994.206 2105.34,994.261 2111.84,994.224 2118.23,994.187 2124.52,994.151 2130.72,994.115 2136.83,994.079 2142.85,994.043 2148.78,994.008 2154.62,993.973 2160.39,993.938 2166.08,993.904 2171.68,993.87 2177.22,993.836 2182.68,993.76 2188.07,993.561 2193.38,993.494 2198.64,993.69 2203.82,993.747 2208.94,993.747 2214,993.747 2219,993.747 2223.93,993.667 2228.81,993.747 2233.63,993.747 2238.4,993.747 2243.11,993.747 2247.77,993.747 2252.37,993.747 2256.93,993.747 2261.43,993.747 2265.89,993.747 2270.3,993.747 2274.66,993.747 2278.98,993.747 2283.25,993.747 2287.48,993.747 2291.66,993.747 2295.81,993.747 "/>
<path clip-path="url(#clip752)" d="M397.458 1080.83 L683.188 1192.84 L850.329 1292.73 L968.918 1351.11 L1060.9 1375.84 L1136.06 1365.79 L1199.6 1345.68 L1254.65 1322.01 L1303.2 1301.2 L1346.63 1278.94 L1385.92 1254.53 L1421.79 1232.58 L1454.78 1211.34 L1485.33 1189.82 L1513.77 1170.69 L1540.38 1152.64 L1565.37 1135.36 L1588.93 1119.09 L1611.22 1104.33 L1632.36 1090.58 L1652.47 1077.68 L1671.65 1065.52 L1689.97 1054.57 L1707.52 1044.46 L1724.35 1035.12 L1740.51 1026.42 L1756.07 1018.46 L1771.06 1011.27 L1785.53 1004.71 L1799.5 998.745 L1813.02 993.321 L1826.11 988.407 L1838.79 984.07 L1851.1 980.213 L1863.05 976.814 L1874.66 973.849 L1885.95 971.289 L1896.95 969.121 L1907.65 967.341 L1918.09 965.916 L1928.27 964.829 L1938.2 964.065 L1947.9 963.608 L1957.38 963.445 L1966.64 963.445 L1975.7 963.445 L1984.57 963.445 L1993.25 963.445 L2001.75 963.445 L2010.08 963.445 L2018.24 963.445 L2026.24 963.445 L2034.1 963.445 L2041.8 963.445 L2049.36 963.445 L2056.79 963.445 L2064.09 963.445 L2071.26 963.445 L2078.3 963.445 L2085.23 963.445 L2092.05 963.445 L2098.75 963.445 L2105.34 963.445 L2111.84 963.445 L2118.23 963.445 L2124.52 963.445 L2130.72 963.445 L2136.83 963.445 L2142.85 963.445 L2148.78 963.445 L2154.62 963.445 L2160.39 963.445 L2166.08 963.445 L2171.68 963.445 L2177.22 963.445 L2182.68 963.445 L2188.07 963.445 L2193.38 963.445 L2198.64 963.445 L2203.82 963.445 L2208.94 963.445 L2214 963.445 L2219 963.445 L2223.93 963.445 L2228.81 963.445 L2233.63 963.445 L2238.4 963.445 L2243.11 963.445 L2247.77 963.445 L2252.37 963.445 L2256.93 963.445 L2261.43 963.445 L2265.89 963.445 L2270.3 963.445 L2274.66 963.445 L2278.98 963.445 L2283.25 963.445 L2287.48 963.445 L2291.66 963.445 L2295.81 963.445 L2295.81 963.445 L2291.66 963.445 L2287.48 963.445 L2283.25 963.445 L2278.98 963.445 L2274.66 963.445 L2270.3 963.445 L2265.89 963.445 L2261.43 963.445 L2256.93 963.445 L2252.37 963.445 L2247.77 963.445 L2243.11 963.445 L2238.4 963.445 L2233.63 963.445 L2228.81 963.445 L2223.93 963.445 L2219 963.445 L2214 963.445 L2208.94 963.445 L2203.82 963.445 L2198.64 963.445 L2193.38 963.445 L2188.07 963.445 L2182.68 963.445 L2177.22 963.445 L2171.68 963.445 L2166.08 963.445 L2160.39 963.445 L2154.62 963.445 L2148.78 963.445 L2142.85 963.445 L2136.83 963.445 L2130.72 963.445 L2124.52 963.445 L2118.23 963.445 L2111.84 963.445 L2105.34 963.445 L2098.75 963.445 L2092.05 963.445 L2085.23 963.445 L2078.3 963.445 L2071.26 963.445 L2064.09 963.445 L2056.79 963.445 L2049.36 963.445 L2041.8 963.445 L2034.1 963.445 L2026.24 963.445 L2018.24 963.445 L2010.08 963.445 L2001.75 963.445 L1993.25 963.445 L1984.57 963.445 L1975.7 963.445 L1966.64 963.445 L1957.38 963.445 L1947.9 963.608 L1938.2 964.065 L1928.27 964.829 L1918.09 965.916 L1907.65 967.341 L1896.95 969.121 L1885.95 971.289 L1874.66 973.849 L1863.05 976.814 L1851.1 980.213 L1838.79 984.07 L1826.11 988.407 L1813.02 993.321 L1799.5 998.745 L1785.53 1004.71 L1771.06 1011.27 L1756.07 1018.46 L1740.51 1026.42 L1724.35 1035.12 L1707.52 1044.46 L1689.97 1054.57 L1671.65 1065.52 L1652.47 1077.68 L1632.36 1090.58 L1611.22 1104.33 L1588.93 1119.09 L1565.37 1135.36 L1540.38 1152.64 L1513.77 1170.69 L1485.33 1189.82 L1454.78 1211.34 L1421.79 1232.58 L1385.92 1254.53 L1346.63 1278.94 L1303.2 1301.2 L1254.65 1322.01 L1199.6 1345.68 L1136.06 1365.79 L1060.9 1375.84 L968.918 1351.11 L850.329 1292.73 L683.188 1192.84 L397.458 1080.83  Z" fill="#800080" fill-rule="evenodd" fill-opacity="0.35"/>
<polyline clip-path="url(#clip752)" style="stroke:#800080; stroke-linecap:round; stroke-linejoin:round; stroke-width:4; stroke-opacity:0.35; fill:none" points="397.458,1080.83 683.188,1192.84 850.329,1292.73 968.918,1351.11 1060.9,1375.84 1136.06,1365.79 1199.6,1345.68 1254.65,1322.01 1303.2,1301.2 1346.63,1278.94 1385.92,1254.53 1421.79,1232.58 1454.78,1211.34 1485.33,1189.82 1513.77,1170.69 1540.38,1152.64 1565.37,1135.36 1588.93,1119.09 1611.22,1104.33 1632.36,1090.58 1652.47,1077.68 1671.65,1065.52 1689.97,1054.57 1707.52,1044.46 1724.35,1035.12 1740.51,1026.42 1756.07,1018.46 1771.06,1011.27 1785.53,1004.71 1799.5,998.745 1813.02,993.321 1826.11,988.407 1838.79,984.07 1851.1,980.213 1863.05,976.814 1874.66,973.849 1885.95,971.289 1896.95,969.121 1907.65,967.341 1918.09,965.916 1928.27,964.829 1938.2,964.065 1947.9,963.608 1957.38,963.445 1966.64,963.445 1975.7,963.445 1984.57,963.445 1993.25,963.445 2001.75,963.445 2010.08,963.445 2018.24,963.445 2026.24,963.445 2034.1,963.445 2041.8,963.445 2049.36,963.445 2056.79,963.445 2064.09,963.445 2071.26,963.445 2078.3,963.445 2085.23,963.445 2092.05,963.445 2098.75,963.445 2105.34,963.445 2111.84,963.445 2118.23,963.445 2124.52,963.445 2130.72,963.445 2136.83,963.445 2142.85,963.445 2148.78,963.445 2154.62,963.445 2160.39,963.445 2166.08,963.445 2171.68,963.445 2177.22,963.445 2182.68,963.445 2188.07,963.445 2193.38,963.445 2198.64,963.445 2203.82,963.445 2208.94,963.445 2214,963.445 2219,963.445 2223.93,963.445 2228.81,963.445 2233.63,963.445 2238.4,963.445 2243.11,963.445 2247.77,963.445 2252.37,963.445 2256.93,963.445 2261.43,963.445 2265.89,963.445 2270.3,963.445 2274.66,963.445 2278.98,963.445 2283.25,963.445 2287.48,963.445 2291.66,963.445 2295.81,963.445 "/>
<polyline clip-path="url(#clip752)" style="stroke:#000000; stroke-linecap:round; stroke-linejoin:round; stroke-width:8; stroke-opacity:1; fill:none" stroke-dasharray="32, 20" points="397.458,963.445 683.188,963.445 850.329,963.445 968.918,963.445 1060.9,963.445 1136.06,963.445 1199.6,963.445 1254.65,963.445 1303.2,963.445 1346.63,963.445 1385.92,963.445 1421.79,963.445 1454.78,963.445 1485.33,963.445 1513.77,963.445 1540.38,963.445 1565.37,963.445 1588.93,963.445 1611.22,963.445 1632.36,963.445 1652.47,963.445 1671.65,963.445 1689.97,963.445 1707.52,963.445 1724.35,963.445 1740.51,963.445 1756.07,963.445 1771.06,963.445 1785.53,963.445 1799.5,963.445 1813.02,963.445 1826.11,963.445 1838.79,963.445 1851.1,963.445 1863.05,963.445 1874.66,963.445 1885.95,963.445 1896.95,963.445 1907.65,963.445 1918.09,963.445 1928.27,963.445 1938.2,963.445 1947.9,963.445 1957.38,963.445 1966.64,963.445 1975.7,963.445 1984.57,963.445 1993.25,963.445 2001.75,963.445 2010.08,963.445 2018.24,963.445 2026.24,963.445 2034.1,963.445 2041.8,963.445 2049.36,963.445 2056.79,963.445 2064.09,963.445 2071.26,963.445 2078.3,963.445 2085.23,963.445 2092.05,963.445 2098.75,963.445 2105.34,963.445 2111.84,963.445 2118.23,963.445 2124.52,963.445 2130.72,963.445 2136.83,963.445 2142.85,963.445 2148.78,963.445 2154.62,963.445 2160.39,963.445 2166.08,963.445 2171.68,963.445 2177.22,963.445 2182.68,963.445 2188.07,963.445 2193.38,963.445 2198.64,963.445 2203.82,963.445 2208.94,963.445 2214,963.445 2219,963.445 2223.93,963.445 2228.81,963.445 2233.63,963.445 2238.4,963.445 2243.11,963.445 2247.77,963.445 2252.37,963.445 2256.93,963.445 2261.43,963.445 2265.89,963.445 2270.3,963.445 2274.66,963.445 2278.98,963.445 2283.25,963.445 2287.48,963.445 2291.66,963.445 2295.81,963.445 "/>
<path clip-path="url(#clip750)" d="M2015.68 352.021 L2285.68 352.021 L2285.68 92.8206 L2015.68 92.8206  Z" fill="#ffffff" fill-rule="evenodd" fill-opacity="1"/>
<polyline clip-path="url(#clip750)" style="stroke:#000000; stroke-linecap:round; stroke-linejoin:round; stroke-width:4; stroke-opacity:1; fill:none" points="2015.68,352.021 2285.68,352.021 2285.68,92.8206 2015.68,92.8206 2015.68,352.021 "/>
<polyline clip-path="url(#clip750)" style="stroke:#0000ff; stroke-linecap:round; stroke-linejoin:round; stroke-width:10; stroke-opacity:1; fill:none" points="2038.04,144.661 2172.19,144.661 "/>
<path clip-path="url(#clip750)" d="M2206.49 130.459 Q2202.88 130.459 2201.05 134.024 Q2199.25 137.566 2199.25 144.695 Q2199.25 151.802 2201.05 155.367 Q2202.88 158.908 2206.49 158.908 Q2210.13 158.908 2211.93 155.367 Q2213.76 151.802 2213.76 144.695 Q2213.76 137.566 2211.93 134.024 Q2210.13 130.459 2206.49 130.459 M2206.49 126.756 Q2212.3 126.756 2215.36 131.362 Q2218.44 135.945 2218.44 144.695 Q2218.44 153.422 2215.36 158.029 Q2212.3 162.612 2206.49 162.612 Q2200.68 162.612 2197.61 158.029 Q2194.55 153.422 2194.55 144.695 Q2194.55 135.945 2197.61 131.362 Q2200.68 126.756 2206.49 126.756 Z" fill="#000000" fill-rule="nonzero" fill-opacity="1" /><path clip-path="url(#clip750)" d="M2226.66 156.061 L2231.54 156.061 L2231.54 161.941 L2226.66 161.941 L2226.66 156.061 Z" fill="#000000" fill-rule="nonzero" fill-opacity="1" /><path clip-path="url(#clip750)" d="M2241.77 127.381 L2260.13 127.381 L2260.13 131.316 L2246.05 131.316 L2246.05 139.788 Q2247.07 139.441 2248.09 139.279 Q2249.11 139.094 2250.13 139.094 Q2255.92 139.094 2259.29 142.265 Q2262.67 145.436 2262.67 150.853 Q2262.67 156.431 2259.2 159.533 Q2255.73 162.612 2249.41 162.612 Q2247.23 162.612 2244.97 162.242 Q2242.72 161.871 2240.31 161.13 L2240.31 156.431 Q2242.4 157.566 2244.62 158.121 Q2246.84 158.677 2249.32 158.677 Q2253.32 158.677 2255.66 156.57 Q2258 154.464 2258 150.853 Q2258 147.242 2255.66 145.135 Q2253.32 143.029 2249.32 143.029 Q2247.44 143.029 2245.57 143.445 Q2243.72 143.862 2241.77 144.742 L2241.77 127.381 Z" fill="#000000" fill-rule="nonzero" fill-opacity="1" /><polyline clip-path="url(#clip750)" style="stroke:#ffa500; stroke-linecap:round; stroke-linejoin:round; stroke-width:10; stroke-opacity:1; fill:none" points="2038.04,196.501 2172.19,196.501 "/>
<path clip-path="url(#clip750)" d="M2195.22 209.845 L2202.86 209.845 L2202.86 183.48 L2194.55 185.147 L2194.55 180.887 L2202.81 179.221 L2207.49 179.221 L2207.49 209.845 L2215.13 209.845 L2215.13 213.781 L2195.22 213.781 L2195.22 209.845 Z" fill="#000000" fill-rule="nonzero" fill-opacity="1" /><path clip-path="url(#clip750)" d="M2224.57 207.901 L2229.46 207.901 L2229.46 213.781 L2224.57 213.781 L2224.57 207.901 Z" fill="#000000" fill-rule="nonzero" fill-opacity="1" /><path clip-path="url(#clip750)" d="M2249.64 182.299 Q2246.03 182.299 2244.2 185.864 Q2242.4 189.406 2242.4 196.535 Q2242.4 203.642 2244.2 207.207 Q2246.03 210.748 2249.64 210.748 Q2253.28 210.748 2255.08 207.207 Q2256.91 203.642 2256.91 196.535 Q2256.91 189.406 2255.08 185.864 Q2253.28 182.299 2249.64 182.299 M2249.64 178.596 Q2255.45 178.596 2258.51 183.202 Q2261.59 187.785 2261.59 196.535 Q2261.59 205.262 2258.51 209.869 Q2255.45 214.452 2249.64 214.452 Q2243.83 214.452 2240.75 209.869 Q2237.7 205.262 2237.7 196.535 Q2237.7 187.785 2240.75 183.202 Q2243.83 178.596 2249.64 178.596 Z" fill="#000000" fill-rule="nonzero" fill-opacity="1" /><polyline clip-path="url(#clip750)" style="stroke:#008000; stroke-linecap:round; stroke-linejoin:round; stroke-width:10; stroke-opacity:1; fill:none" points="2038.04,248.341 2172.19,248.341 "/>
<path clip-path="url(#clip750)" d="M2200.17 261.685 L2216.49 261.685 L2216.49 265.621 L2194.55 265.621 L2194.55 261.685 Q2197.21 258.931 2201.8 254.301 Q2206.4 249.648 2207.58 248.306 Q2209.83 245.783 2210.71 244.047 Q2211.61 242.287 2211.61 240.598 Q2211.61 237.843 2209.67 236.107 Q2207.74 234.371 2204.64 234.371 Q2202.44 234.371 2199.99 235.135 Q2197.56 235.899 2194.78 237.449 L2194.78 232.727 Q2197.61 231.593 2200.06 231.014 Q2202.51 230.436 2204.55 230.436 Q2209.92 230.436 2213.11 233.121 Q2216.31 235.806 2216.31 240.297 Q2216.31 242.426 2215.5 244.348 Q2214.71 246.246 2212.61 248.838 Q2212.03 249.51 2208.92 252.727 Q2205.82 255.922 2200.17 261.685 Z" fill="#000000" fill-rule="nonzero" fill-opacity="1" /><path clip-path="url(#clip750)" d="M2226.31 259.741 L2231.19 259.741 L2231.19 265.621 L2226.31 265.621 L2226.31 259.741 Z" fill="#000000" fill-rule="nonzero" fill-opacity="1" /><path clip-path="url(#clip750)" d="M2251.38 234.139 Q2247.77 234.139 2245.94 237.704 Q2244.13 241.246 2244.13 248.375 Q2244.13 255.482 2245.94 259.047 Q2247.77 262.588 2251.38 262.588 Q2255.01 262.588 2256.82 259.047 Q2258.65 255.482 2258.65 248.375 Q2258.65 241.246 2256.82 237.704 Q2255.01 234.139 2251.38 234.139 M2251.38 230.436 Q2257.19 230.436 2260.24 235.042 Q2263.32 239.625 2263.32 248.375 Q2263.32 257.102 2260.24 261.709 Q2257.19 266.292 2251.38 266.292 Q2245.57 266.292 2242.49 261.709 Q2239.43 257.102 2239.43 248.375 Q2239.43 239.625 2242.49 235.042 Q2245.57 230.436 2251.38 230.436 Z" fill="#000000" fill-rule="nonzero" fill-opacity="1" /><polyline clip-path="url(#clip750)" style="stroke:#800080; stroke-linecap:round; stroke-linejoin:round; stroke-width:10; stroke-opacity:1; fill:none" points="2038.04,300.181 2172.19,300.181 "/>
<path clip-path="url(#clip750)" d="M2196.01 282.901 L2214.36 282.901 L2214.36 286.836 L2200.29 286.836 L2200.29 295.308 Q2201.31 294.961 2202.33 294.799 Q2203.35 294.614 2204.36 294.614 Q2210.15 294.614 2213.53 297.785 Q2216.91 300.956 2216.91 306.373 Q2216.91 311.951 2213.44 315.053 Q2209.97 318.132 2203.65 318.132 Q2201.47 318.132 2199.2 317.762 Q2196.96 317.391 2194.55 316.65 L2194.55 311.951 Q2196.63 313.086 2198.86 313.641 Q2201.08 314.197 2203.55 314.197 Q2207.56 314.197 2209.9 312.09 Q2212.23 309.984 2212.23 306.373 Q2212.23 302.762 2209.9 300.655 Q2207.56 298.549 2203.55 298.549 Q2201.68 298.549 2199.8 298.965 Q2197.95 299.382 2196.01 300.262 L2196.01 282.901 Z" fill="#000000" fill-rule="nonzero" fill-opacity="1" /><path clip-path="url(#clip750)" d="M2226.12 311.581 L2231.01 311.581 L2231.01 317.461 L2226.12 317.461 L2226.12 311.581 Z" fill="#000000" fill-rule="nonzero" fill-opacity="1" /><path clip-path="url(#clip750)" d="M2251.19 285.979 Q2247.58 285.979 2245.75 289.544 Q2243.95 293.086 2243.95 300.215 Q2243.95 307.322 2245.75 310.887 Q2247.58 314.428 2251.19 314.428 Q2254.83 314.428 2256.63 310.887 Q2258.46 307.322 2258.46 300.215 Q2258.46 293.086 2256.63 289.544 Q2254.83 285.979 2251.19 285.979 M2251.19 282.276 Q2257 282.276 2260.06 286.882 Q2263.14 291.465 2263.14 300.215 Q2263.14 308.942 2260.06 313.549 Q2257 318.132 2251.19 318.132 Q2245.38 318.132 2242.3 313.549 Q2239.25 308.942 2239.25 300.215 Q2239.25 291.465 2242.3 286.882 Q2245.38 282.276 2251.19 282.276 Z" fill="#000000" fill-rule="nonzero" fill-opacity="1" /></svg>
