<?xml version="1.0" encoding="utf-8"?>
<svg xmlns="http://www.w3.org/2000/svg" xmlns:xlink="http://www.w3.org/1999/xlink" width="600" height="400" viewBox="0 0 2400 1600">
<defs>
  <clipPath id="clip860">
    <rect x="0" y="0" width="2400" height="1600"/>
  </clipPath>
</defs>
<path clip-path="url(#clip860)" d="M0 1600 L2400 1600 L2400 0 L0 0  Z" fill="#ffffff" fill-rule="evenodd" fill-opacity="1"/>
<defs>
  <clipPath id="clip861">
    <rect x="480" y="0" width="1681" height="1600"/>
  </clipPath>
</defs>
<path clip-path="url(#clip860)" d="M340.508 1414.54 L2352.76 1414.54 L2352.76 47.2441 L340.508 47.2441  Z" fill="#ffffff" fill-rule="evenodd" fill-opacity="1"/>
<defs>
  <clipPath id="clip862">
    <rect x="340" y="47" width="2013" height="1368"/>
  </clipPath>
</defs>
<polyline clip-path="url(#clip862)" style="stroke:#000000; stroke-linecap:round; stroke-linejoin:round; stroke-width:2; stroke-opacity:0.1; fill:none" points="397.458,1414.54 397.458,47.2441 "/>
<polyline clip-path="url(#clip862)" style="stroke:#000000; stroke-linecap:round; stroke-linejoin:round; stroke-width:2; stroke-opacity:0.1; fill:none" points="1346.63,1414.54 1346.63,47.2441 "/>
<polyline clip-path="url(#clip862)" style="stroke:#000000; stroke-linecap:round; stroke-linejoin:round; stroke-width:2; stroke-opacity:0.1; fill:none" points="2295.81,1414.54 2295.81,47.2441 "/>
<polyline clip-path="url(#clip860)" style="stroke:#000000; stroke-linecap:round; stroke-linejoin:round; stroke-width:4; stroke-opacity:1; fill:none" points="340.508,1414.54 2352.76,1414.54 "/>
<polyline clip-path="url(#clip860)" style="stroke:#000000; stroke-linecap:round; stroke-linejoin:round; stroke-width:4; stroke-opacity:1; fill:none" points="397.458,1414.54 397.458,1395.64 "/>
<polyline clip-path="url(#clip860)" style="stroke:#000000; stroke-linecap:round; stroke-linejoin:round; stroke-width:4; stroke-opacity:1; fill:none" points="1346.63,1414.54 1346.63,1395.64 "/>
<polyline clip-path="url(#clip860)" style="stroke:#000000; stroke-linecap:round; stroke-linejoin:round; stroke-width:4; stroke-opacity:1; fill:none" points="2295.81,1414.54 2295.81,1395.64 "/>
<path clip-path="url(#clip860)" d="M365.818 1482.82 L375.366 1482.82 L375.366 1449.86 L364.979 1451.95 L364.979 1446.62 L375.309 1444.54 L381.154 1444.54 L381.154 1482.82 L390.702 1482.82 L390.702 1487.74 L365.818 1487.74 L365.818 1482.82 Z" fill="#000000" fill-rule="nonzero" fill-opacity="1" /><path clip-path="url(#clip860)" d="M415.007 1448.39 Q410.494 1448.39 408.208 1452.84 Q405.951 1457.27 405.951 1466.18 Q405.951 1475.07 408.208 1479.52 Q410.494 1483.95 415.007 1483.95 Q419.55 1483.95 421.807 1479.52 Q424.093 1475.07 424.093 1466.18 Q424.093 1457.27 421.807 1452.84 Q419.55 1448.39 415.007 1448.39 M415.007 1443.76 Q422.27 1443.76 426.09 1449.52 Q429.938 1455.25 429.938 1466.18 Q429.938 1477.09 426.09 1482.85 Q422.27 1488.58 415.007 1488.58 Q407.745 1488.58 403.896 1482.85 Q400.077 1477.09 400.077 1466.18 Q400.077 1455.25 403.896 1449.52 Q407.745 1443.76 415.007 1443.76 Z" fill="#000000" fill-rule="nonzero" fill-opacity="1" /><path clip-path="url(#clip860)" d="M1296.14 1482.82 L1305.69 1482.82 L1305.69 1449.86 L1295.3 1451.95 L1295.3 1446.62 L1305.63 1444.54 L1311.48 1444.54 L1311.48 1482.82 L1321.02 1482.82 L1321.02 1487.74 L1296.14 1487.74 L1296.14 1482.82 Z" fill="#000000" fill-rule="nonzero" fill-opacity="1" /><path clip-path="url(#clip860)" d="M1345.33 1448.39 Q1340.82 1448.39 1338.53 1452.84 Q1336.27 1457.27 1336.27 1466.18 Q1336.27 1475.07 1338.53 1479.52 Q1340.82 1483.95 1345.33 1483.95 Q1349.87 1483.95 1352.13 1479.52 Q1354.42 1475.07 1354.42 1466.18 Q1354.42 1457.27 1352.13 1452.84 Q1349.87 1448.39 1345.33 1448.39 M1345.33 1443.76 Q1352.59 1443.76 1356.41 1449.52 Q1360.26 1455.25 1360.26 1466.18 Q1360.26 1477.09 1356.41 1482.85 Q1352.59 1488.58 1345.33 1488.58 Q1338.07 1488.58 1334.22 1482.85 Q1330.4 1477.09 1330.4 1466.18 Q1330.4 1455.25 1334.22 1449.52 Q1338.07 1443.76 1345.33 1443.76 Z" fill="#000000" fill-rule="nonzero" fill-opacity="1" /><path clip-path="url(#clip860)" d="M1383.03 1448.39 Q1378.52 1448.39 1376.23 1452.84 Q1373.98 1457.27 1373.98 1466.18 Q1373.98 1475.07 1376.23 1479.52 Q1378.52 1483.95 1383.03 1483.95 Q1387.58 1483.95 1389.83 1479.52 Q1392.12 1475.07 1392.12 1466.18 Q1392.12 1457.27 1389.83 1452.84 Q1387.58 1448.39 1383.03 1448.39 M1383.03 1443.76 Q1390.29 1443.76 1394.11 1449.52 Q1397.96 1455.25 1397.96 1466.18 Q1397.96 1477.09 1394.11 1482.85 Q1390.29 1488.58 1383.03 1488.58 Q1375.77 1488.58 1371.92 1482.85 Q1368.1 1477.09 1368.1 1466.18 Q1368.1 1455.25 1371.92 1449.52 Q1375.77 1443.76 1383.03 1443.76 Z" fill="#000000" fill-rule="nonzero" fill-opacity="1" /><path clip-path="url(#clip860)" d="M2226.46 1482.82 L2236.01 1482.82 L2236.01 1449.86 L2225.62 1451.95 L2225.62 1446.62 L2235.95 1444.54 L2241.8 1444.54 L2241.8 1482.82 L2251.35 1482.82 L2251.35 1487.74 L2226.46 1487.74 L2226.46 1482.82 Z" fill="#000000" fill-rule="nonzero" fill-opacity="1" /><path clip-path="url(#clip860)" d="M2275.65 1448.39 Q2271.14 1448.39 2268.85 1452.84 Q2266.6 1457.27 2266.6 1466.18 Q2266.6 1475.07 2268.85 1479.52 Q2271.14 1483.95 2275.65 1483.95 Q2280.2 1483.95 2282.45 1479.52 Q2284.74 1475.07 2284.74 1466.18 Q2284.74 1457.27 2282.45 1452.84 Q2280.2 1448.39 2275.65 1448.39 M2275.65 1443.76 Q2282.91 1443.76 2286.73 1449.52 Q2290.58 1455.25 2290.58 1466.18 Q2290.58 1477.09 2286.73 1482.85 Q2282.91 1488.58 2275.65 1488.58 Q2268.39 1488.58 2264.54 1482.85 Q2260.72 1477.09 2260.72 1466.18 Q2260.72 1455.25 2264.54 1449.52 Q2268.39 1443.76 2275.65 1443.76 Z" fill="#000000" fill-rule="nonzero" fill-opacity="1" /><path clip-path="url(#clip860)" d="M2313.35 1448.39 Q2308.84 1448.39 2306.55 1452.84 Q2304.3 1457.27 2304.3 1466.18 Q2304.3 1475.07 2306.55 1479.52 Q2308.84 1483.95 2313.35 1483.95 Q2317.9 1483.95 2320.15 1479.52 Q2322.44 1475.07 2322.44 1466.18 Q2322.44 1457.27 2320.15 1452.84 Q2317.9 1448.39 2313.35 1448.39 M2313.35 1443.76 Q2320.62 1443.76 2324.44 1449.52 Q2328.29 1455.25 2328.29 1466.18 Q2328.29 1477.09 2324.44 1482.85 Q2320.62 1488.58 2313.35 1488.58 Q2306.09 1488.58 2302.24 1482.85 Q2298.42 1477.09 2298.42 1466.18 Q2298.42 1455.25 2302.24 1449.52 Q2306.09 1443.76 2313.35 1443.76 Z" fill="#000000" fill-rule="nonzero" fill-opacity="1" /><path clip-path="url(#clip860)" d="M2351.06 1448.39 Q2346.54 1448.39 2344.26 1452.84 Q2342 1457.27 2342 1466.18 Q2342 1475.07 2344.26 1479.52 Q2346.54 1483.95 2351.06 1483.95 Q2355.6 1483.95 2357.86 1479.52 Q2360.14 1475.07 2360.14 1466.18 Q2360.14 1457.27 2357.86 1452.84 Q2355.6 1448.39 2351.06 1448.39 M2351.06 1443.76 Q2358.32 1443.76 2362.14 1449.52 Q2365.99 1455.25 2365.99 1466.18 Q2365.99 1477.09 2362.14 1482.85 Q2358.32 1488.58 2351.06 1488.58 Q2343.79 1488.58 2339.95 1482.85 Q2336.13 1477.09 2336.13 1466.18 Q2336.13 1455.25 2339.95 1449.52 Q2343.79 1443.76 2351.06 1443.76 Z" fill="#000000" fill-rule="nonzero" fill-opacity="1" /><path clip-path="url(#clip860)" d="M1155.18 1550.08 Q1157.25 1550.78 1159.19 1553.08 Q1161.17 1555.37 1163.14 1559.38 L1169.67 1572.36 L1162.76 1572.36 L1156.68 1560.17 Q1154.32 1555.4 1152.1 1553.84 Q1149.9 1552.28 1146.08 1552.28 L1139.08 1552.28 L1139.08 1572.36 L1132.65 1572.36 L1132.65 1524.84 L1147.16 1524.84 Q1155.31 1524.84 1159.32 1528.25 Q1163.33 1531.66 1163.33 1538.53 Q1163.33 1543.02 1161.23 1545.98 Q1159.16 1548.94 1155.18 1550.08 M1139.08 1530.13 L1139.08 1547 L1147.16 1547 Q1151.81 1547 1154.16 1544.86 Q1156.55 1542.7 1156.55 1538.53 Q1156.55 1534.36 1154.16 1532.26 Q1151.81 1530.13 1147.16 1530.13 L1139.08 1530.13 Z" fill="#000000" fill-rule="nonzero" fill-opacity="1" /><path clip-path="url(#clip860)" d="M1205.25 1553.08 L1205.25 1555.94 L1178.32 1555.94 Q1178.7 1561.99 1181.95 1565.17 Q1185.23 1568.32 1191.05 1568.32 Q1194.43 1568.32 1197.58 1567.49 Q1200.76 1566.67 1203.88 1565.01 L1203.88 1570.55 Q1200.73 1571.89 1197.42 1572.59 Q1194.11 1573.29 1190.7 1573.29 Q1182.17 1573.29 1177.18 1568.32 Q1172.21 1563.36 1172.21 1554.89 Q1172.21 1546.14 1176.92 1541.01 Q1181.66 1535.86 1189.69 1535.86 Q1196.88 1535.86 1201.05 1540.5 Q1205.25 1545.12 1205.25 1553.08 M1199.39 1551.36 Q1199.33 1546.55 1196.69 1543.69 Q1194.08 1540.82 1189.75 1540.82 Q1184.85 1540.82 1181.89 1543.59 Q1178.96 1546.36 1178.51 1551.39 L1199.39 1551.36 Z" fill="#000000" fill-rule="nonzero" fill-opacity="1" /><path clip-path="url(#clip860)" d="M1220.65 1526.59 L1220.65 1536.72 L1232.72 1536.72 L1232.72 1541.27 L1220.65 1541.27 L1220.65 1560.62 Q1220.65 1564.98 1221.83 1566.22 Q1223.04 1567.46 1226.7 1567.46 L1232.72 1567.46 L1232.72 1572.36 L1226.7 1572.36 Q1219.92 1572.36 1217.34 1569.85 Q1214.77 1567.3 1214.77 1560.62 L1214.77 1541.27 L1210.47 1541.27 L1210.47 1536.72 L1214.77 1536.72 L1214.77 1526.59 L1220.65 1526.59 Z" fill="#000000" fill-rule="nonzero" fill-opacity="1" /><path clip-path="url(#clip860)" d="M1239.82 1558.3 L1239.82 1536.72 L1245.67 1536.72 L1245.67 1558.07 Q1245.67 1563.13 1247.65 1565.68 Q1249.62 1568.19 1253.57 1568.19 Q1258.31 1568.19 1261.05 1565.17 Q1263.81 1562.15 1263.81 1556.93 L1263.81 1536.72 L1269.67 1536.72 L1269.67 1572.36 L1263.81 1572.36 L1263.81 1566.89 Q1261.68 1570.14 1258.85 1571.73 Q1256.05 1573.29 1252.32 1573.29 Q1246.18 1573.29 1243 1569.47 Q1239.82 1565.65 1239.82 1558.3 M1254.55 1535.86 L1254.55 1535.86 Z" fill="#000000" fill-rule="nonzero" fill-opacity="1" /><path clip-path="url(#clip860)" d="M1302.39 1542.19 Q1301.4 1541.62 1300.23 1541.36 Q1299.08 1541.08 1297.68 1541.08 Q1292.71 1541.08 1290.04 1544.32 Q1287.4 1547.54 1287.4 1553.59 L1287.4 1572.36 L1281.51 1572.36 L1281.51 1536.72 L1287.4 1536.72 L1287.4 1542.25 Q1289.25 1539.01 1292.21 1537.45 Q1295.17 1535.86 1299.4 1535.86 Q1300 1535.86 1300.74 1535.95 Q1301.47 1536.02 1302.36 1536.17 L1302.39 1542.19 Z" fill="#000000" fill-rule="nonzero" fill-opacity="1" /><path clip-path="url(#clip860)" d="M1337.02 1550.85 L1337.02 1572.36 L1331.16 1572.36 L1331.16 1551.04 Q1331.16 1545.98 1329.19 1543.46 Q1327.22 1540.95 1323.27 1540.95 Q1318.53 1540.95 1315.79 1543.97 Q1313.05 1547 1313.05 1552.22 L1313.05 1572.36 L1307.16 1572.36 L1307.16 1536.72 L1313.05 1536.72 L1313.05 1542.25 Q1315.15 1539.04 1317.99 1537.45 Q1320.85 1535.86 1324.57 1535.86 Q1330.72 1535.86 1333.87 1539.68 Q1337.02 1543.46 1337.02 1550.85 Z" fill="#000000" fill-rule="nonzero" fill-opacity="1" /><path clip-path="url(#clip860)" d="M1376.11 1530.13 L1376.11 1547.98 L1384.19 1547.98 Q1388.68 1547.98 1391.13 1545.66 Q1393.58 1543.34 1393.58 1539.04 Q1393.58 1534.77 1391.13 1532.45 Q1388.68 1530.13 1384.19 1530.13 L1376.11 1530.13 M1369.68 1524.84 L1384.19 1524.84 Q1392.18 1524.84 1396.25 1528.47 Q1400.36 1532.07 1400.36 1539.04 Q1400.36 1546.07 1396.25 1549.67 Q1392.18 1553.27 1384.19 1553.27 L1376.11 1553.27 L1376.11 1572.36 L1369.68 1572.36 L1369.68 1524.84 Z" fill="#000000" fill-rule="nonzero" fill-opacity="1" /><path clip-path="url(#clip860)" d="M1436.9 1553.08 L1436.9 1555.94 L1409.97 1555.94 Q1410.35 1561.99 1413.6 1565.17 Q1416.88 1568.32 1422.7 1568.32 Q1426.08 1568.32 1429.23 1567.49 Q1432.41 1566.67 1435.53 1565.01 L1435.53 1570.55 Q1432.38 1571.89 1429.07 1572.59 Q1425.76 1573.29 1422.35 1573.29 Q1413.82 1573.29 1408.82 1568.32 Q1403.86 1563.36 1403.86 1554.89 Q1403.86 1546.14 1408.57 1541.01 Q1413.31 1535.86 1421.33 1535.86 Q1428.53 1535.86 1432.7 1540.5 Q1436.9 1545.12 1436.9 1553.08 M1431.04 1551.36 Q1430.98 1546.55 1428.34 1543.69 Q1425.73 1540.82 1421.4 1540.82 Q1416.5 1540.82 1413.54 1543.59 Q1410.61 1546.36 1410.16 1551.39 L1431.04 1551.36 Z" fill="#000000" fill-rule="nonzero" fill-opacity="1" /><path clip-path="url(#clip860)" d="M1467.17 1542.19 Q1466.18 1541.62 1465 1541.36 Q1463.86 1541.08 1462.46 1541.08 Q1457.49 1541.08 1454.82 1544.32 Q1452.18 1547.54 1452.18 1553.59 L1452.18 1572.36 L1446.29 1572.36 L1446.29 1536.72 L1452.18 1536.72 L1452.18 1542.25 Q1454.02 1539.01 1456.98 1537.45 Q1459.94 1535.86 1464.17 1535.86 Q1464.78 1535.86 1465.51 1535.95 Q1466.24 1536.02 1467.13 1536.17 L1467.17 1542.19 Z" fill="#000000" fill-rule="nonzero" fill-opacity="1" /><path clip-path="url(#clip860)" d="M1473.31 1536.72 L1479.17 1536.72 L1479.17 1572.36 L1473.31 1572.36 L1473.31 1536.72 M1473.31 1522.84 L1479.17 1522.84 L1479.17 1530.25 L1473.31 1530.25 L1473.31 1522.84 Z" fill="#000000" fill-rule="nonzero" fill-opacity="1" /><path clip-path="url(#clip860)" d="M1505.23 1540.82 Q1500.52 1540.82 1497.79 1544.51 Q1495.05 1548.17 1495.05 1554.57 Q1495.05 1560.97 1497.75 1564.66 Q1500.49 1568.32 1505.23 1568.32 Q1509.91 1568.32 1512.65 1564.63 Q1515.39 1560.94 1515.39 1554.57 Q1515.39 1548.24 1512.65 1544.55 Q1509.91 1540.82 1505.23 1540.82 M1505.23 1535.86 Q1512.87 1535.86 1517.23 1540.82 Q1521.59 1545.79 1521.59 1554.57 Q1521.59 1563.32 1517.23 1568.32 Q1512.87 1573.29 1505.23 1573.29 Q1497.56 1573.29 1493.2 1568.32 Q1488.87 1563.32 1488.87 1554.57 Q1488.87 1545.79 1493.2 1540.82 Q1497.56 1535.86 1505.23 1535.86 Z" fill="#000000" fill-rule="nonzero" fill-opacity="1" /><path clip-path="url(#clip860)" d="M1554.76 1542.13 L1554.76 1522.84 L1560.62 1522.84 L1560.62 1572.36 L1554.76 1572.36 L1554.76 1567.02 Q1552.91 1570.2 1550.08 1571.76 Q1547.28 1573.29 1543.33 1573.29 Q1536.87 1573.29 1532.8 1568.13 Q1528.75 1562.97 1528.75 1554.57 Q1528.75 1546.17 1532.8 1541.01 Q1536.87 1535.86 1543.33 1535.86 Q1547.28 1535.86 1550.08 1537.42 Q1552.91 1538.94 1554.76 1542.13 M1534.8 1554.57 Q1534.8 1561.03 1537.44 1564.72 Q1540.12 1568.39 1544.76 1568.39 Q1549.41 1568.39 1552.09 1564.72 Q1554.76 1561.03 1554.76 1554.57 Q1554.76 1548.11 1552.09 1544.45 Q1549.41 1540.76 1544.76 1540.76 Q1540.12 1540.76 1537.44 1544.45 Q1534.8 1548.11 1534.8 1554.57 Z" fill="#000000" fill-rule="nonzero" fill-opacity="1" /><polyline clip-path="url(#clip862)" style="stroke:#000000; stroke-linecap:round; stroke-linejoin:round; stroke-width:2; stroke-opacity:0.1; fill:none" points="340.508,1175.92 2352.76,1175.92 "/>
<polyline clip-path="url(#clip862)" style="stroke:#000000; stroke-linecap:round; stroke-linejoin:round; stroke-width:2; stroke-opacity:0.1; fill:none" points="340.508,815.809 2352.76,815.809 "/>
<polyline clip-path="url(#clip862)" style="stroke:#000000; stroke-linecap:round; stroke-linejoin:round; stroke-width:2; stroke-opacity:0.1; fill:none" points="340.508,455.7 2352.76,455.7 "/>
<polyline clip-path="url(#clip862)" style="stroke:#000000; stroke-linecap:round; stroke-linejoin:round; stroke-width:2; stroke-opacity:0.1; fill:none" points="340.508,95.5921 2352.76,95.5921 "/>
<polyline clip-path="url(#clip860)" style="stroke:#000000; stroke-linecap:round; stroke-linejoin:round; stroke-width:4; stroke-opacity:1; fill:none" points="340.508,1414.54 340.508,47.2441 "/>
<polyline clip-path="url(#clip860)" style="stroke:#000000; stroke-linecap:round; stroke-linejoin:round; stroke-width:4; stroke-opacity:1; fill:none" points="340.508,1175.92 359.406,1175.92 "/>
<polyline clip-path="url(#clip860)" style="stroke:#000000; stroke-linecap:round; stroke-linejoin:round; stroke-width:4; stroke-opacity:1; fill:none" points="340.508,815.809 359.406,815.809 "/>
<polyline clip-path="url(#clip860)" style="stroke:#000000; stroke-linecap:round; stroke-linejoin:round; stroke-width:4; stroke-opacity:1; fill:none" points="340.508,455.7 359.406,455.7 "/>
<polyline clip-path="url(#clip860)" style="stroke:#000000; stroke-linecap:round; stroke-linejoin:round; stroke-width:4; stroke-opacity:1; fill:none" points="340.508,95.5921 359.406,95.5921 "/>
<path clip-path="url(#clip860)" d="M114.26 1176.48 L151.355 1176.48 L151.355 1181.4 L114.26 1181.4 L114.26 1176.48 Z" fill="#000000" fill-rule="nonzero" fill-opacity="1" /><path clip-path="url(#clip860)" d="M180.029 1159.41 L165.273 1182.47 L180.029 1182.47 L180.029 1159.41 M178.496 1154.32 L185.845 1154.32 L185.845 1182.47 L192.009 1182.47 L192.009 1187.33 L185.845 1187.33 L185.845 1197.52 L180.029 1197.52 L180.029 1187.33 L160.527 1187.33 L160.527 1181.69 L178.496 1154.32 Z" fill="#000000" fill-rule="nonzero" fill-opacity="1" /><path clip-path="url(#clip860)" d="M214.173 1158.17 Q209.659 1158.17 207.373 1162.62 Q205.116 1167.05 205.116 1175.96 Q205.116 1184.84 207.373 1189.3 Q209.659 1193.73 214.173 1193.73 Q218.716 1193.73 220.973 1189.3 Q223.258 1184.84 223.258 1175.96 Q223.258 1167.05 220.973 1162.62 Q218.716 1158.17 214.173 1158.17 M214.173 1153.54 Q221.436 1153.54 225.255 1159.29 Q229.103 1165.02 229.103 1175.96 Q229.103 1186.87 225.255 1192.63 Q221.436 1198.36 214.173 1198.36 Q206.91 1198.36 203.062 1192.63 Q199.242 1186.87 199.242 1175.96 Q199.242 1165.02 203.062 1159.29 Q206.91 1153.54 214.173 1153.54 Z" fill="#000000" fill-rule="nonzero" fill-opacity="1" /><path clip-path="url(#clip860)" d="M251.875 1158.17 Q247.361 1158.17 245.075 1162.62 Q242.818 1167.05 242.818 1175.96 Q242.818 1184.84 245.075 1189.3 Q247.361 1193.73 251.875 1193.73 Q256.418 1193.73 258.675 1189.3 Q260.961 1184.84 260.961 1175.96 Q260.961 1167.05 258.675 1162.62 Q256.418 1158.17 251.875 1158.17 M251.875 1153.54 Q259.138 1153.54 262.957 1159.29 Q266.806 1165.02 266.806 1175.96 Q266.806 1186.87 262.957 1192.63 Q259.138 1198.36 251.875 1198.36 Q244.612 1198.36 240.764 1192.63 Q236.945 1186.87 236.945 1175.96 Q236.945 1165.02 240.764 1159.29 Q244.612 1153.54 251.875 1153.54 Z" fill="#000000" fill-rule="nonzero" fill-opacity="1" /><path clip-path="url(#clip860)" d="M289.578 1158.17 Q285.064 1158.17 282.778 1162.62 Q280.521 1167.05 280.521 1175.96 Q280.521 1184.84 282.778 1189.3 Q285.064 1193.73 289.578 1193.73 Q294.12 1193.73 296.377 1189.3 Q298.663 1184.84 298.663 1175.96 Q298.663 1167.05 296.377 1162.62 Q294.12 1158.17 289.578 1158.17 M289.578 1153.54 Q296.84 1153.54 300.66 1159.29 Q304.508 1165.02 304.508 1175.96 Q304.508 1186.87 300.66 1192.63 Q296.84 1198.36 289.578 1198.36 Q282.315 1198.36 278.466 1192.63 Q274.647 1186.87 274.647 1175.96 Q274.647 1165.02 278.466 1159.29 Q282.315 1153.54 289.578 1153.54 Z" fill="#000000" fill-rule="nonzero" fill-opacity="1" /><path clip-path="url(#clip860)" d="M114.26 816.373 L151.355 816.373 L151.355 821.292 L114.26 821.292 L114.26 816.373 Z" fill="#000000" fill-rule="nonzero" fill-opacity="1" /><path clip-path="url(#clip860)" d="M169.005 832.49 L189.404 832.49 L189.404 837.409 L161.974 837.409 L161.974 832.49 Q165.302 829.046 171.031 823.259 Q176.789 817.443 178.264 815.765 Q181.071 812.611 182.171 810.441 Q183.299 808.242 183.299 806.13 Q183.299 802.686 180.869 800.516 Q178.467 798.346 174.59 798.346 Q171.841 798.346 168.774 799.301 Q165.736 800.256 162.263 802.195 L162.263 796.292 Q165.793 794.874 168.861 794.151 Q171.928 793.427 174.474 793.427 Q181.187 793.427 185.18 796.784 Q189.173 800.14 189.173 805.754 Q189.173 808.416 188.16 810.817 Q187.176 813.19 184.543 816.431 Q183.82 817.27 179.943 821.292 Q176.065 825.285 169.005 832.49 Z" fill="#000000" fill-rule="nonzero" fill-opacity="1" /><path clip-path="url(#clip860)" d="M214.173 798.057 Q209.659 798.057 207.373 802.513 Q205.116 806.94 205.116 815.852 Q205.116 824.735 207.373 829.191 Q209.659 833.618 214.173 833.618 Q218.716 833.618 220.973 829.191 Q223.258 824.735 223.258 815.852 Q223.258 806.94 220.973 802.513 Q218.716 798.057 214.173 798.057 M214.173 793.427 Q221.436 793.427 225.255 799.185 Q229.103 804.914 229.103 815.852 Q229.103 826.76 225.255 832.519 Q221.436 838.248 214.173 838.248 Q206.91 838.248 203.062 832.519 Q199.242 826.76 199.242 815.852 Q199.242 804.914 203.062 799.185 Q206.91 793.427 214.173 793.427 Z" fill="#000000" fill-rule="nonzero" fill-opacity="1" /><path clip-path="url(#clip860)" d="M251.875 798.057 Q247.361 798.057 245.075 802.513 Q242.818 806.94 242.818 815.852 Q242.818 824.735 245.075 829.191 Q247.361 833.618 251.875 833.618 Q256.418 833.618 258.675 829.191 Q260.961 824.735 260.961 815.852 Q260.961 806.94 258.675 802.513 Q256.418 798.057 251.875 798.057 M251.875 793.427 Q259.138 793.427 262.957 799.185 Q266.806 804.914 266.806 815.852 Q266.806 826.76 262.957 832.519 Q259.138 838.248 251.875 838.248 Q244.612 838.248 240.764 832.519 Q236.945 826.76 236.945 815.852 Q236.945 804.914 240.764 799.185 Q244.612 793.427 251.875 793.427 Z" fill="#000000" fill-rule="nonzero" fill-opacity="1" /><path clip-path="url(#clip860)" d="M289.578 798.057 Q285.064 798.057 282.778 802.513 Q280.521 806.94 280.521 815.852 Q280.521 824.735 282.778 829.191 Q285.064 833.618 289.578 833.618 Q294.12 833.618 296.377 829.191 Q298.663 824.735 298.663 815.852 Q298.663 806.94 296.377 802.513 Q294.12 798.057 289.578 798.057 M289.578 793.427 Q296.84 793.427 300.66 799.185 Q304.508 804.914 304.508 815.852 Q304.508 826.76 300.66 832.519 Q296.84 838.248 289.578 838.248 Q282.315 838.248 278.466 832.519 Q274.647 826.76 274.647 815.852 Q274.647 804.914 278.466 799.185 Q282.315 793.427 289.578 793.427 Z" fill="#000000" fill-rule="nonzero" fill-opacity="1" /><path clip-path="url(#clip860)" d="M289.578 437.949 Q285.064 437.949 282.778 442.405 Q280.521 446.832 280.521 455.744 Q280.521 464.627 282.778 469.083 Q285.064 473.51 289.578 473.51 Q294.12 473.51 296.377 469.083 Q298.663 464.627 298.663 455.744 Q298.663 446.832 296.377 442.405 Q294.12 437.949 289.578 437.949 M289.578 433.319 Q296.84 433.319 300.66 439.077 Q304.508 444.806 304.508 455.744 Q304.508 466.652 300.66 472.41 Q296.84 478.139 289.578 478.139 Q282.315 478.139 278.466 472.41 Q274.647 466.652 274.647 455.744 Q274.647 444.806 278.466 439.077 Q282.315 433.319 289.578 433.319 Z" fill="#000000" fill-rule="nonzero" fill-opacity="1" /><path clip-path="url(#clip860)" d="M169.005 112.273 L189.404 112.273 L189.404 117.192 L161.974 117.192 L161.974 112.273 Q165.302 108.83 171.031 103.043 Q176.789 97.227 178.264 95.5487 Q181.071 92.3948 182.171 90.2247 Q183.299 88.0256 183.299 85.9134 Q183.299 82.4701 180.869 80.3 Q178.467 78.1299 174.59 78.1299 Q171.841 78.1299 168.774 79.0847 Q165.736 80.0396 162.263 81.9782 L162.263 76.0755 Q165.793 74.6576 168.861 73.9343 Q171.928 73.2109 174.474 73.2109 Q181.187 73.2109 185.18 76.5674 Q189.173 79.9238 189.173 85.5372 Q189.173 88.1992 188.16 90.6009 Q187.176 92.9735 184.543 96.2142 Q183.82 97.0534 179.943 101.075 Q176.065 105.068 169.005 112.273 Z" fill="#000000" fill-rule="nonzero" fill-opacity="1" /><path clip-path="url(#clip860)" d="M214.173 77.8405 Q209.659 77.8405 207.373 82.2965 Q205.116 86.7236 205.116 95.6355 Q205.116 104.519 207.373 108.975 Q209.659 113.402 214.173 113.402 Q218.716 113.402 220.973 108.975 Q223.258 104.519 223.258 95.6355 Q223.258 86.7236 220.973 82.2965 Q218.716 77.8405 214.173 77.8405 M214.173 73.2109 Q221.436 73.2109 225.255 78.969 Q229.103 84.6981 229.103 95.6355 Q229.103 106.544 225.255 112.302 Q221.436 118.031 214.173 118.031 Q206.91 118.031 203.062 112.302 Q199.242 106.544 199.242 95.6355 Q199.242 84.6981 203.062 78.969 Q206.91 73.2109 214.173 73.2109 Z" fill="#000000" fill-rule="nonzero" fill-opacity="1" /><path clip-path="url(#clip860)" d="M251.875 77.8405 Q247.361 77.8405 245.075 82.2965 Q242.818 86.7236 242.818 95.6355 Q242.818 104.519 245.075 108.975 Q247.361 113.402 251.875 113.402 Q256.418 113.402 258.675 108.975 Q260.961 104.519 260.961 95.6355 Q260.961 86.7236 258.675 82.2965 Q256.418 77.8405 251.875 77.8405 M251.875 73.2109 Q259.138 73.2109 262.957 78.969 Q266.806 84.6981 266.806 95.6355 Q266.806 106.544 262.957 112.302 Q259.138 118.031 251.875 118.031 Q244.612 118.031 240.764 112.302 Q236.945 106.544 236.945 95.6355 Q236.945 84.6981 240.764 78.969 Q244.612 73.2109 251.875 73.2109 Z" fill="#000000" fill-rule="nonzero" fill-opacity="1" /><path clip-path="url(#clip860)" d="M289.578 77.8405 Q285.064 77.8405 282.778 82.2965 Q280.521 86.7236 280.521 95.6355 Q280.521 104.519 282.778 108.975 Q285.064 113.402 289.578 113.402 Q294.12 113.402 296.377 108.975 Q298.663 104.519 298.663 95.6355 Q298.663 86.7236 296.377 82.2965 Q294.12 77.8405 289.578 77.8405 M289.578 73.2109 Q296.84 73.2109 300.66 78.969 Q304.508 84.6981 304.508 95.6355 Q304.508 106.544 300.66 112.302 Q296.84 118.031 289.578 118.031 Q282.315 118.031 278.466 112.302 Q274.647 106.544 274.647 95.6355 Q274.647 84.6981 278.466 78.969 Q282.315 73.2109 289.578 73.2109 Z" fill="#000000" fill-rule="nonzero" fill-opacity="1" /><path clip-path="url(#clip860)" d="M21.7677 1253.76 L58.7206 1253.76 L58.7206 1245.99 Q58.7206 1236.15 54.2646 1231.6 Q49.8086 1227.02 40.1964 1227.02 Q30.6479 1227.02 26.2237 1231.6 Q21.7677 1236.15 21.7677 1245.99 L21.7677 1253.76 M16.4842 1260.18 L16.4842 1246.98 Q16.4842 1233.16 22.2451 1226.7 Q27.9743 1220.24 40.1964 1220.24 Q52.4822 1220.24 58.2432 1226.73 Q64.0042 1233.23 64.0042 1246.98 L64.0042 1260.18 L16.4842 1260.18 Z" fill="#000000" fill-rule="nonzero" fill-opacity="1" /><path clip-path="url(#clip860)" d="M28.3562 1210.25 L28.3562 1204.39 L64.0042 1204.39 L64.0042 1210.25 L28.3562 1210.25 M14.479 1210.25 L14.479 1204.39 L21.895 1204.39 L21.895 1210.25 L14.479 1210.25 Z" fill="#000000" fill-rule="nonzero" fill-opacity="1" /><path clip-path="url(#clip860)" d="M14.479 1174.09 L19.3487 1174.09 L19.3487 1179.69 Q19.3487 1182.84 20.6219 1184.08 Q21.895 1185.29 25.2052 1185.29 L28.3562 1185.29 L28.3562 1175.65 L32.9077 1175.65 L32.9077 1185.29 L64.0042 1185.29 L64.0042 1191.18 L32.9077 1191.18 L32.9077 1196.78 L28.3562 1196.78 L28.3562 1191.18 L25.8736 1191.18 Q19.9216 1191.18 17.2162 1188.41 Q14.479 1185.64 14.479 1179.63 L14.479 1174.09 Z" fill="#000000" fill-rule="nonzero" fill-opacity="1" /><path clip-path="url(#clip860)" d="M14.479 1151.14 L19.3487 1151.14 L19.3487 1156.74 Q19.3487 1159.89 20.6219 1161.13 Q21.895 1162.34 25.2052 1162.34 L28.3562 1162.34 L28.3562 1152.7 L32.9077 1152.7 L32.9077 1162.34 L64.0042 1162.34 L64.0042 1168.23 L32.9077 1168.23 L32.9077 1173.83 L28.3562 1173.83 L28.3562 1168.23 L25.8736 1168.23 Q19.9216 1168.23 17.2162 1165.46 Q14.479 1162.69 14.479 1156.68 L14.479 1151.14 Z" fill="#000000" fill-rule="nonzero" fill-opacity="1" /><path clip-path="url(#clip860)" d="M44.7161 1115.75 L47.5806 1115.75 L47.5806 1142.67 Q53.6281 1142.29 56.8109 1139.05 Q59.9619 1135.77 59.9619 1129.94 Q59.9619 1126.57 59.1344 1123.42 Q58.3069 1120.23 56.6518 1117.12 L62.1899 1117.12 Q63.5267 1120.27 64.227 1123.58 Q64.9272 1126.89 64.9272 1130.29 Q64.9272 1138.82 59.9619 1143.82 Q54.9967 1148.78 46.5303 1148.78 Q37.7774 1148.78 32.6531 1144.07 Q27.4968 1139.33 27.4968 1131.31 Q27.4968 1124.12 32.1438 1119.95 Q36.7589 1115.75 44.7161 1115.75 M42.9973 1121.6 Q38.1912 1121.67 35.3266 1124.31 Q32.4621 1126.92 32.4621 1131.25 Q32.4621 1136.15 35.2312 1139.11 Q38.0002 1142.04 43.0292 1142.48 L42.9973 1121.6 Z" fill="#000000" fill-rule="nonzero" fill-opacity="1" /><path clip-path="url(#clip860)" d="M33.8307 1085.48 Q33.2578 1086.46 33.0032 1087.64 Q32.7167 1088.79 32.7167 1090.19 Q32.7167 1095.15 35.9632 1097.83 Q39.1779 1100.47 45.2253 1100.47 L64.0042 1100.47 L64.0042 1106.36 L28.3562 1106.36 L28.3562 1100.47 L33.8944 1100.47 Q30.6479 1098.62 29.0883 1095.66 Q27.4968 1092.7 27.4968 1088.47 Q27.4968 1087.86 27.5923 1087.13 Q27.656 1086.4 27.8151 1085.51 L33.8307 1085.48 Z" fill="#000000" fill-rule="nonzero" fill-opacity="1" /><path clip-path="url(#clip860)" d="M44.7161 1050.28 L47.5806 1050.28 L47.5806 1077.2 Q53.6281 1076.82 56.8109 1073.57 Q59.9619 1070.3 59.9619 1064.47 Q59.9619 1061.1 59.1344 1057.95 Q58.3069 1054.76 56.6518 1051.64 L62.1899 1051.64 Q63.5267 1054.8 64.227 1058.11 Q64.9272 1061.42 64.9272 1064.82 Q64.9272 1073.35 59.9619 1078.35 Q54.9967 1083.31 46.5303 1083.31 Q37.7774 1083.31 32.6531 1078.6 Q27.4968 1073.86 27.4968 1065.84 Q27.4968 1058.65 32.1438 1054.48 Q36.7589 1050.28 44.7161 1050.28 M42.9973 1056.13 Q38.1912 1056.2 35.3266 1058.84 Q32.4621 1061.45 32.4621 1065.78 Q32.4621 1070.68 35.2312 1073.64 Q38.0002 1076.57 43.0292 1077.01 L42.9973 1056.13 Z" fill="#000000" fill-rule="nonzero" fill-opacity="1" /><path clip-path="url(#clip860)" d="M42.4881 1011.03 L64.0042 1011.03 L64.0042 1016.89 L42.679 1016.89 Q37.6183 1016.89 35.1038 1018.86 Q32.5894 1020.83 32.5894 1024.78 Q32.5894 1029.52 35.6131 1032.26 Q38.6368 1035 43.8567 1035 L64.0042 1035 L64.0042 1040.89 L28.3562 1040.89 L28.3562 1035 L33.8944 1035 Q30.6797 1032.9 29.0883 1030.06 Q27.4968 1027.2 27.4968 1023.48 Q27.4968 1017.33 31.3163 1014.18 Q35.1038 1011.03 42.4881 1011.03 Z" fill="#000000" fill-rule="nonzero" fill-opacity="1" /><path clip-path="url(#clip860)" d="M29.7248 973.696 L35.1993 973.696 Q33.8307 976.179 33.1623 978.693 Q32.4621 981.176 32.4621 983.722 Q32.4621 989.419 36.0905 992.57 Q39.6872 995.721 46.212 995.721 Q52.7369 995.721 56.3653 992.57 Q59.9619 989.419 59.9619 983.722 Q59.9619 981.176 59.2935 978.693 Q58.5933 976.179 57.2247 973.696 L62.6355 973.696 Q63.7814 976.147 64.3543 978.788 Q64.9272 981.398 64.9272 984.358 Q64.9272 992.411 59.8664 997.154 Q54.8057 1001.9 46.212 1001.9 Q37.491 1001.9 32.4939 997.122 Q27.4968 992.316 27.4968 983.977 Q27.4968 981.271 28.0697 978.693 Q28.6108 976.115 29.7248 973.696 Z" fill="#000000" fill-rule="nonzero" fill-opacity="1" /><path clip-path="url(#clip860)" d="M44.7161 933.019 L47.5806 933.019 L47.5806 959.946 Q53.6281 959.564 56.8109 956.318 Q59.9619 953.039 59.9619 947.215 Q59.9619 943.841 59.1344 940.69 Q58.3069 937.507 56.6518 934.388 L62.1899 934.388 Q63.5267 937.539 64.227 940.849 Q64.9272 944.159 64.9272 947.565 Q64.9272 956.095 59.9619 961.092 Q54.9967 966.057 46.5303 966.057 Q37.7774 966.057 32.6531 961.346 Q27.4968 956.604 27.4968 948.583 Q27.4968 941.39 32.1438 937.22 Q36.7589 933.019 44.7161 933.019 M42.9973 938.876 Q38.1912 938.939 35.3266 941.581 Q32.4621 944.191 32.4621 948.52 Q32.4621 953.421 35.2312 956.381 Q38.0002 959.309 43.0292 959.755 L42.9973 938.876 Z" fill="#000000" fill-rule="nonzero" fill-opacity="1" /><path clip-path="url(#clip860)" d="M28.3562 902.686 L28.3562 896.83 L64.0042 896.83 L64.0042 902.686 L28.3562 902.686 M14.479 902.686 L14.479 896.83 L21.895 896.83 L21.895 902.686 L14.479 902.686 Z" fill="#000000" fill-rule="nonzero" fill-opacity="1" /><path clip-path="url(#clip860)" d="M42.4881 854.944 L64.0042 854.944 L64.0042 860.8 L42.679 860.8 Q37.6183 860.8 35.1038 862.773 Q32.5894 864.747 32.5894 868.694 Q32.5894 873.436 35.6131 876.173 Q38.6368 878.911 43.8567 878.911 L64.0042 878.911 L64.0042 884.799 L28.3562 884.799 L28.3562 878.911 L33.8944 878.911 Q30.6797 876.81 29.0883 873.977 Q27.4968 871.113 27.4968 867.389 Q27.4968 861.246 31.3163 858.095 Q35.1038 854.944 42.4881 854.944 Z" fill="#000000" fill-rule="nonzero" fill-opacity="1" /><path clip-path="url(#clip860)" d="M20.8447 803 Q20.8447 810.002 26.0645 814.139 Q31.2844 818.245 40.2919 818.245 Q49.2675 818.245 54.4874 814.139 Q59.7073 810.002 59.7073 803 Q59.7073 795.997 54.4874 791.923 Q49.2675 787.817 40.2919 787.817 Q31.2844 787.817 26.0645 791.923 Q20.8447 795.997 20.8447 803 M15.6248 803 Q15.6248 793.005 22.3406 787.022 Q29.0246 781.038 40.2919 781.038 Q51.5274 781.038 58.2432 787.022 Q64.9272 793.005 64.9272 803 Q64.9272 813.025 58.2432 819.041 Q51.5592 825.025 40.2919 825.025 Q29.0246 825.025 22.3406 819.041 Q15.6248 813.025 15.6248 803 Z" fill="#000000" fill-rule="nonzero" fill-opacity="1" /><path clip-path="url(#clip860)" d="M29.7248 745.581 L35.1993 745.581 Q33.8307 748.063 33.1623 750.578 Q32.4621 753.061 32.4621 755.607 Q32.4621 761.304 36.0905 764.455 Q39.6872 767.606 46.212 767.606 Q52.7369 767.606 56.3653 764.455 Q59.9619 761.304 59.9619 755.607 Q59.9619 753.061 59.2935 750.578 Q58.5933 748.063 57.2247 745.581 L62.6355 745.581 Q63.7814 748.032 64.3543 750.673 Q64.9272 753.283 64.9272 756.243 Q64.9272 764.296 59.8664 769.038 Q54.8057 773.781 46.212 773.781 Q37.491 773.781 32.4939 769.007 Q27.4968 764.201 27.4968 755.861 Q27.4968 753.156 28.0697 750.578 Q28.6108 748 29.7248 745.581 Z" fill="#000000" fill-rule="nonzero" fill-opacity="1" /><path clip-path="url(#clip860)" d="M29.7248 709.742 L35.1993 709.742 Q33.8307 712.225 33.1623 714.739 Q32.4621 717.222 32.4621 719.768 Q32.4621 725.465 36.0905 728.616 Q39.6872 731.767 46.212 731.767 Q52.7369 731.767 56.3653 728.616 Q59.9619 725.465 59.9619 719.768 Q59.9619 717.222 59.2935 714.739 Q58.5933 712.225 57.2247 709.742 L62.6355 709.742 Q63.7814 712.193 64.3543 714.834 Q64.9272 717.444 64.9272 720.404 Q64.9272 728.457 59.8664 733.2 Q54.8057 737.942 46.212 737.942 Q37.491 737.942 32.4939 733.168 Q27.4968 728.362 27.4968 720.023 Q27.4968 717.317 28.0697 714.739 Q28.6108 712.161 29.7248 709.742 Z" fill="#000000" fill-rule="nonzero" fill-opacity="1" /><path clip-path="url(#clip860)" d="M49.9359 700.162 L28.3562 700.162 L28.3562 694.305 L49.7131 694.305 Q54.7739 694.305 57.3202 692.332 Q59.8346 690.358 59.8346 686.412 Q59.8346 681.669 56.8109 678.932 Q53.7872 676.163 48.5673 676.163 L28.3562 676.163 L28.3562 670.306 L64.0042 670.306 L64.0042 676.163 L58.5296 676.163 Q61.7762 678.295 63.3676 681.128 Q64.9272 683.929 64.9272 687.653 Q64.9272 693.796 61.1078 696.979 Q57.2883 700.162 49.9359 700.162 M27.4968 685.425 L27.4968 685.425 Z" fill="#000000" fill-rule="nonzero" fill-opacity="1" /><path clip-path="url(#clip860)" d="M58.657 652.578 L77.5631 652.578 L77.5631 658.466 L28.3562 658.466 L28.3562 652.578 L33.7671 652.578 Q30.5842 650.732 29.0564 647.931 Q27.4968 645.098 27.4968 641.183 Q27.4968 634.69 32.6531 630.648 Q37.8093 626.574 46.212 626.574 Q54.6147 626.574 59.771 630.648 Q64.9272 634.69 64.9272 641.183 Q64.9272 645.098 63.3994 647.931 Q61.8398 650.732 58.657 652.578 M46.212 632.653 Q39.7508 632.653 36.0905 635.327 Q32.3984 637.969 32.3984 642.616 Q32.3984 647.262 36.0905 649.936 Q39.7508 652.578 46.212 652.578 Q52.6732 652.578 56.3653 649.936 Q60.0256 647.262 60.0256 642.616 Q60.0256 637.969 56.3653 635.327 Q52.6732 632.653 46.212 632.653 Z" fill="#000000" fill-rule="nonzero" fill-opacity="1" /><path clip-path="url(#clip860)" d="M28.3562 616.866 L28.3562 611.01 L64.0042 611.01 L64.0042 616.866 L28.3562 616.866 M14.479 616.866 L14.479 611.01 L21.895 611.01 L21.895 616.866 L14.479 616.866 Z" fill="#000000" fill-rule="nonzero" fill-opacity="1" /><path clip-path="url(#clip860)" d="M44.7161 568.264 L47.5806 568.264 L47.5806 595.191 Q53.6281 594.809 56.8109 591.563 Q59.9619 588.284 59.9619 582.46 Q59.9619 579.086 59.1344 575.935 Q58.3069 572.752 56.6518 569.633 L62.1899 569.633 Q63.5267 572.784 64.227 576.094 Q64.9272 579.404 64.9272 582.81 Q64.9272 591.34 59.9619 596.337 Q54.9967 601.302 46.5303 601.302 Q37.7774 601.302 32.6531 596.591 Q27.4968 591.849 27.4968 583.828 Q27.4968 576.635 32.1438 572.465 Q36.7589 568.264 44.7161 568.264 M42.9973 574.121 Q38.1912 574.184 35.3266 576.826 Q32.4621 579.436 32.4621 583.765 Q32.4621 588.666 35.2312 591.626 Q38.0002 594.554 43.0292 595 L42.9973 574.121 Z" fill="#000000" fill-rule="nonzero" fill-opacity="1" /><path clip-path="url(#clip860)" d="M33.7671 535.194 L14.479 535.194 L14.479 529.338 L64.0042 529.338 L64.0042 535.194 L58.657 535.194 Q61.8398 537.04 63.3994 539.873 Q64.9272 542.674 64.9272 546.621 Q64.9272 553.082 59.771 557.156 Q54.6147 561.198 46.212 561.198 Q37.8093 561.198 32.6531 557.156 Q27.4968 553.082 27.4968 546.621 Q27.4968 542.674 29.0564 539.873 Q30.5842 537.04 33.7671 535.194 M46.212 555.151 Q52.6732 555.151 56.3653 552.509 Q60.0256 549.835 60.0256 545.188 Q60.0256 540.541 56.3653 537.868 Q52.6732 535.194 46.212 535.194 Q39.7508 535.194 36.0905 537.868 Q32.3984 540.541 32.3984 545.188 Q32.3984 549.835 36.0905 552.509 Q39.7508 555.151 46.212 555.151 Z" fill="#000000" fill-rule="nonzero" fill-opacity="1" /><path clip-path="url(#clip860)" d="M43.5384 520.235 L43.5384 503.079 L48.7583 503.079 L48.7583 520.235 L43.5384 520.235 Z" fill="#000000" fill-rule="nonzero" fill-opacity="1" /><path clip-path="url(#clip860)" d="M16.4842 493.499 L16.4842 463.453 L21.895 463.453 L21.895 487.069 L35.9632 487.069 L35.9632 464.439 L41.3741 464.439 L41.3741 487.069 L58.5933 487.069 L58.5933 462.88 L64.0042 462.88 L64.0042 493.499 L16.4842 493.499 Z" fill="#000000" fill-rule="nonzero" fill-opacity="1" /><path clip-path="url(#clip860)" d="M28.3562 422.935 L45.7028 435.826 L64.0042 422.267 L64.0042 429.173 L49.9996 439.549 L64.0042 449.926 L64.0042 456.832 L45.3526 442.987 L28.3562 455.655 L28.3562 448.748 L41.0558 439.295 L28.3562 429.842 L28.3562 422.935 Z" fill="#000000" fill-rule="nonzero" fill-opacity="1" /><path clip-path="url(#clip860)" d="M58.657 408.326 L77.5631 408.326 L77.5631 414.214 L28.3562 414.214 L28.3562 408.326 L33.7671 408.326 Q30.5842 406.48 29.0564 403.679 Q27.4968 400.846 27.4968 396.931 Q27.4968 390.438 32.6531 386.396 Q37.8093 382.322 46.212 382.322 Q54.6147 382.322 59.771 386.396 Q64.9272 390.438 64.9272 396.931 Q64.9272 400.846 63.3994 403.679 Q61.8398 406.48 58.657 408.326 M46.212 388.401 Q39.7508 388.401 36.0905 391.075 Q32.3984 393.716 32.3984 398.363 Q32.3984 403.01 36.0905 405.684 Q39.7508 408.326 46.212 408.326 Q52.6732 408.326 56.3653 405.684 Q60.0256 403.01 60.0256 398.363 Q60.0256 393.716 56.3653 391.075 Q52.6732 388.401 46.212 388.401 Z" fill="#000000" fill-rule="nonzero" fill-opacity="1" /><path clip-path="url(#clip860)" d="M32.4621 358.801 Q32.4621 363.511 36.1542 366.248 Q39.8145 368.986 46.212 368.986 Q52.6095 368.986 56.3017 366.28 Q59.9619 363.543 59.9619 358.801 Q59.9619 354.122 56.2698 351.384 Q52.5777 348.647 46.212 348.647 Q39.8781 348.647 36.186 351.384 Q32.4621 354.122 32.4621 358.801 M27.4968 358.801 Q27.4968 351.162 32.4621 346.801 Q37.4273 342.441 46.212 342.441 Q54.9649 342.441 59.9619 346.801 Q64.9272 351.162 64.9272 358.801 Q64.9272 366.471 59.9619 370.832 Q54.9649 375.16 46.212 375.16 Q37.4273 375.16 32.4621 370.832 Q27.4968 366.471 27.4968 358.801 Z" fill="#000000" fill-rule="nonzero" fill-opacity="1" /><path clip-path="url(#clip860)" d="M29.4065 310.007 L34.9447 310.007 Q33.6716 312.49 33.035 315.164 Q32.3984 317.837 32.3984 320.702 Q32.3984 325.062 33.7352 327.258 Q35.072 329.423 37.7456 329.423 Q39.7826 329.423 40.9603 327.863 Q42.1061 326.304 43.1565 321.593 L43.6021 319.588 Q44.9389 313.349 47.3897 310.739 Q49.8086 308.098 54.1691 308.098 Q59.1344 308.098 62.0308 312.044 Q64.9272 315.959 64.9272 322.834 Q64.9272 325.699 64.3543 328.818 Q63.8132 331.905 62.6992 335.343 L56.6518 335.343 Q58.3387 332.096 59.198 328.945 Q60.0256 325.794 60.0256 322.707 Q60.0256 318.569 58.6251 316.341 Q57.1929 314.113 54.6147 314.113 Q52.2276 314.113 50.9545 315.736 Q49.6813 317.328 48.5037 322.771 L48.0262 324.808 Q46.8804 330.25 44.5251 332.669 Q42.138 335.088 38.0002 335.088 Q32.9713 335.088 30.2341 331.523 Q27.4968 327.959 27.4968 321.402 Q27.4968 318.155 27.9743 315.291 Q28.4517 312.426 29.4065 310.007 Z" fill="#000000" fill-rule="nonzero" fill-opacity="1" /><path clip-path="url(#clip860)" d="M49.9359 299.377 L28.3562 299.377 L28.3562 293.52 L49.7131 293.52 Q54.7739 293.52 57.3202 291.547 Q59.8346 289.573 59.8346 285.627 Q59.8346 280.884 56.8109 278.147 Q53.7872 275.378 48.5673 275.378 L28.3562 275.378 L28.3562 269.521 L64.0042 269.521 L64.0042 275.378 L58.5296 275.378 Q61.7762 277.51 63.3676 280.343 Q64.9272 283.144 64.9272 286.868 Q64.9272 293.011 61.1078 296.194 Q57.2883 299.377 49.9359 299.377 M27.4968 284.64 L27.4968 284.64 Z" fill="#000000" fill-rule="nonzero" fill-opacity="1" /><path clip-path="url(#clip860)" d="M33.8307 236.802 Q33.2578 237.788 33.0032 238.966 Q32.7167 240.112 32.7167 241.512 Q32.7167 246.478 35.9632 249.151 Q39.1779 251.793 45.2253 251.793 L64.0042 251.793 L64.0042 257.681 L28.3562 257.681 L28.3562 251.793 L33.8944 251.793 Q30.6479 249.947 29.0883 246.987 Q27.4968 244.027 27.4968 239.794 Q27.4968 239.189 27.5923 238.457 Q27.656 237.725 27.8151 236.834 L33.8307 236.802 Z" fill="#000000" fill-rule="nonzero" fill-opacity="1" /><path clip-path="url(#clip860)" d="M44.7161 201.599 L47.5806 201.599 L47.5806 228.526 Q53.6281 228.144 56.8109 224.898 Q59.9619 221.62 59.9619 215.795 Q59.9619 212.421 59.1344 209.27 Q58.3069 206.087 56.6518 202.968 L62.1899 202.968 Q63.5267 206.119 64.227 209.429 Q64.9272 212.739 64.9272 216.145 Q64.9272 224.675 59.9619 229.672 Q54.9967 234.637 46.5303 234.637 Q37.7774 234.637 32.6531 229.927 Q27.4968 225.184 27.4968 217.164 Q27.4968 209.97 32.1438 205.801 Q36.7589 201.599 44.7161 201.599 M42.9973 207.456 Q38.1912 207.519 35.3266 210.161 Q32.4621 212.771 32.4621 217.1 Q32.4621 222.001 35.2312 224.962 Q38.0002 227.89 43.0292 228.335 L42.9973 207.456 Z" fill="#000000" fill-rule="nonzero" fill-opacity="1" /><polyline clip-path="url(#clip862)" style="stroke:#0000ff; stroke-linecap:round; stroke-linejoin:round; stroke-width:10; stroke-opacity:1; fill:none" points="397.458,469.193 683.188,494.003 850.329,517.947 968.918,545.516 1060.9,570.642 1136.06,594.639 1199.6,621.388 1254.65,645.914 1303.2,668.651 1346.63,693.737 1385.92,714.51 1421.79,734.072 1454.78,752.789 1485.33,771.175 1513.77,791.512 1540.38,808.155 1565.37,824.267 1588.93,839.658 1611.22,854.657 1632.36,870.546 1652.47,887.117 1671.65,900.975 1689.97,914.476 1707.52,927.625 1724.35,940.495 1740.51,952.916 1756.07,962.036 1771.06,967.199 1785.53,965.169 1799.5,958.932 1813.02,949.027 1826.11,936.007 1838.79,919.785 1851.1,901.213 1863.05,880.514 1874.66,858.887 1885.95,834.515 1896.95,809.373 1907.65,785.533 1918.09,762.982 1928.27,741.751 1938.2,721.575 1947.9,702.328 1957.38,684.025 1966.64,667.149 1975.7,651.506 1984.57,636.033 1993.25,621.039 2001.75,606.815 2010.08,593.232 2018.24,580.344 2026.24,567.962 2034.1,556.121 2041.8,544.861 2049.36,534.05 2056.79,523.925 2064.09,514.535 2071.26,505.538 2078.3,496.542 2085.23,487.894 2092.05,479.768 2098.75,471.866 2105.34,464.279 2111.84,457.021 2118.23,450.214 2124.52,443.725 2130.72,437.465 2136.83,431.411 2142.85,425.713 2148.78,420.453 2154.62,415.381 2160.39,410.356 2166.08,405.524 2171.68,400.898 2177.22,396.469 2182.68,392.229 2188.07,388.297 2193.38,384.542 2198.64,380.906 2203.82,377.404 2208.94,373.933 2214,370.662 2219,367.512 2223.93,364.695 2228.81,362.047 2233.63,359.516 2238.4,357.098 2243.11,354.8 2247.77,352.617 2252.37,350.544 2256.93,348.577 2261.43,346.715 2265.89,344.871 2270.3,343.214 2274.66,341.593 2278.98,340.055 2283.25,338.59 2287.48,337.209 2291.66,335.962 2295.81,334.843 "/>
<polyline clip-path="url(#clip862)" style="stroke:#ffa500; stroke-linecap:round; stroke-linejoin:round; stroke-width:10; stroke-opacity:1; fill:none" points="397.458,509.818 683.188,557.232 850.329,598.202 968.918,639.728 1060.9,676.969 1136.06,711.971 1199.6,748.728 1254.65,782.563 1303.2,813.852 1346.63,847.275 1385.92,874.814 1421.79,900.786 1454.78,925.538 1485.33,949.899 1513.77,975.939 1540.38,997.581 1565.37,1018.55 1588.93,1038.71 1611.22,1058.25 1632.36,1078.61 1652.47,1099.57 1671.65,1117.35 1689.97,1134.64 1707.52,1151.48 1724.35,1167.91 1740.51,1183.76 1756.07,1195.91 1771.06,1203.33 1785.53,1202.36 1799.5,1196.57 1813.02,1186.35 1826.11,1172.32 1838.79,1154.77 1851.1,1134.14 1863.05,1110.92 1874.66,1086.95 1885.95,1059.47 1896.95,1030.99 1907.65,1003.91 1918.09,978.264 1928.27,954.256 1938.2,931.399 1947.9,909.856 1957.38,889.334 1966.64,870.269 1975.7,852.487 1984.57,834.995 1993.25,818.022 2001.75,801.88 2010.08,786.566 2018.24,771.889 2026.24,757.917 2034.1,744.712 2041.8,731.904 2049.36,719.721 2056.79,708.12 2064.09,697.411 2071.26,687.052 2078.3,676.862 2085.23,667.111 2092.05,657.793 2098.75,648.881 2105.34,640.357 2111.84,632.203 2118.23,624.387 2124.52,616.939 2130.72,609.778 2136.83,602.837 2142.85,596.334 2148.78,590.056 2154.62,583.991 2160.39,578.05 2166.08,572.396 2171.68,566.961 2177.22,561.756 2182.68,556.887 2188.07,552.304 2193.38,547.842 2198.64,543.803 2203.82,539.674 2208.94,535.713 2214,531.9 2219,528.306 2223.93,524.831 2228.81,521.506 2233.63,518.293 2238.4,515.213 2243.11,512.313 2247.77,509.602 2252.37,506.92 2256.93,504.366 2261.43,501.937 2265.89,499.875 2270.3,497.794 2274.66,495.731 2278.98,493.778 2283.25,491.931 2287.48,490.196 2291.66,488.569 2295.81,487.179 "/>
<polyline clip-path="url(#clip862)" style="stroke:#008000; stroke-linecap:round; stroke-linejoin:round; stroke-width:10; stroke-opacity:1; fill:none" points="397.458,514.448 683.188,566.938 850.329,611.526 968.918,655.881 1060.9,695.458 1136.06,732.49 1199.6,771.358 1254.65,806.911 1303.2,839.754 1346.63,874.717 1385.92,903.476 1421.79,930.743 1454.78,956.646 1485.33,982.147 1513.77,1009.4 1540.38,1031.93 1565.37,1053.92 1588.93,1074.86 1611.22,1095.16 1632.36,1116.37 1652.47,1138.29 1671.65,1156.75 1689.97,1174.97 1707.52,1192.47 1724.35,1209.55 1740.51,1226.13 1756.07,1238.77 1771.06,1246.71 1785.53,1246.01 1799.5,1240.4 1813.02,1230.22 1826.11,1216.17 1838.79,1198.43 1851.1,1177.78 1863.05,1154.48 1874.66,1130.16 1885.95,1102.69 1896.95,1074 1907.65,1046.81 1918.09,1021.03 1928.27,996.588 1938.2,973.382 1947.9,951.605 1957.38,930.641 1966.64,911.077 1975.7,893.143 1984.57,875.571 1993.25,858.313 2001.75,841.724 2010.08,826.538 2018.24,811.472 2026.24,797.293 2034.1,783.779 2041.8,770.686 2049.36,758.174 2056.79,746.314 2064.09,735.17 2071.26,724.65 2078.3,713.953 2085.23,704.327 2092.05,694.865 2098.75,685.556 2105.34,676.496 2111.84,667.932 2118.23,660.008 2124.52,652.216 2130.72,644.66 2136.83,637.845 2142.85,630.998 2148.78,624.58 2154.62,618.415 2160.39,612.306 2166.08,606.319 2171.68,600.67 2177.22,595.077 2182.68,589.958 2188.07,584.862 2193.38,579.975 2198.64,575.699 2203.82,571.417 2208.94,567.126 2214,563.018 2219,559.05 2223.93,555.235 2228.81,551.994 2233.63,548.868 2238.4,545.737 2243.11,542.77 2247.77,540.236 2252.37,537.362 2256.93,534.622 2261.43,532.009 2265.89,529.547 2270.3,527.71 2274.66,525.423 2278.98,523.327 2283.25,521.431 2287.48,519.571 2291.66,517.708 2295.81,515.934 "/>
<polyline clip-path="url(#clip862)" style="stroke:#800080; stroke-linecap:round; stroke-linejoin:round; stroke-width:10; stroke-opacity:1; fill:none" points="397.458,541.386 683.188,602.241 850.329,652.968 968.918,702.537 1060.9,747.007 1136.06,788.164 1199.6,831.212 1254.65,870.388 1303.2,906.708 1346.63,945.152 1385.92,976.705 1421.79,1006.88 1454.78,1035.48 1485.33,1063.35 1513.77,1092.81 1540.38,1117.78 1565.37,1141.79 1588.93,1165.11 1611.22,1187.44 1632.36,1210.71 1652.47,1234.26 1671.65,1254.5 1689.97,1274.33 1707.52,1293.62 1724.35,1312.38 1740.51,1330.42 1756.07,1344.52 1771.06,1353.42 1785.53,1353.43 1799.5,1348.27 1813.02,1338.21 1826.11,1324.2 1838.79,1306.86 1851.1,1285.79 1863.05,1262.05 1874.66,1237.47 1885.95,1208.84 1896.95,1179.28 1907.65,1151.17 1918.09,1124.74 1928.27,1099.96 1938.2,1076.31 1947.9,1054.12 1957.38,1032.94 1966.64,1013.29 1975.7,995.02 1984.57,976.877 1993.25,959.437 2001.75,942.819 2010.08,927.099 2018.24,912.1 2026.24,897.623 2034.1,883.895 2041.8,870.767 2049.36,858.507 2056.79,846.956 2064.09,836.072 2071.26,825.426 2078.3,815.02 2085.23,804.75 2092.05,795.202 2098.75,785.698 2105.34,776.599 2111.84,768.288 2118.23,760.388 2124.52,752.797 2130.72,745.614 2136.83,738.363 2142.85,731.905 2148.78,725.58 2154.62,719.531 2160.39,713.525 2166.08,707.945 2171.68,702.512 2177.22,697.593 2182.68,692.563 2188.07,687.646 2193.38,683.438 2198.64,678.804 2203.82,674.572 2208.94,670.637 2214,666.692 2219,663.139 2223.93,659.813 2228.81,656.524 2233.63,653.476 2238.4,650.252 2243.11,647.347 2247.77,644.6 2252.37,642.005 2256.93,639.604 2261.43,637.326 2265.89,635.179 2270.3,632.923 2274.66,630.825 2278.98,628.731 2283.25,626.952 2287.48,625.389 2291.66,623.66 2295.81,621.873 "/>
<path clip-path="url(#clip862)" d="M397.458 498.216 L683.188 535.859 L850.329 568.954 L968.918 602.868 L1060.9 633.455 L1136.06 662.144 L1199.6 692.968 L1254.65 721.359 L1303.2 747.618 L1346.63 775.654 L1385.92 799.188 L1421.79 821.401 L1454.78 842.524 L1485.33 863.244 L1513.77 885.543 L1540.38 904.096 L1565.37 922.107 L1588.93 939.484 L1611.22 956.29 L1632.36 973.552 L1652.47 991.568 L1671.65 1007.04 L1689.97 1022 L1707.52 1036.53 L1724.35 1051.04 L1740.51 1064.8 L1756.07 1075.28 L1771.06 1081.6 L1785.53 1080.79 L1799.5 1075.88 L1813.02 1067.26 L1826.11 1055.13 L1838.79 1040.13 L1851.1 1023.22 L1863.05 1003.66 L1874.66 982.491 L1885.95 959.409 L1896.95 934.393 L1907.65 911.47 L1918.09 889.906 L1928.27 869.606 L1938.2 850.424 L1947.9 832.258 L1957.38 814.53 L1966.64 798.405 L1975.7 783.473 L1984.57 768.852 L1993.25 754.633 L2001.75 740.803 L2010.08 728.101 L2018.24 716.138 L2026.24 704.491 L2034.1 693.388 L2041.8 682.8 L2049.36 672.577 L2056.79 662.924 L2064.09 653.926 L2071.26 645.667 L2078.3 637.2 L2085.23 629.113 L2092.05 621.389 L2098.75 614.009 L2105.34 606.958 L2111.84 600.219 L2118.23 593.779 L2124.52 587.624 L2130.72 581.74 L2136.83 576.116 L2142.85 570.791 L2148.78 565.747 L2154.62 560.821 L2160.39 556.047 L2166.08 551.483 L2171.68 547.123 L2177.22 542.956 L2182.68 538.976 L2188.07 535.175 L2193.38 531.546 L2198.64 528.082 L2203.82 524.777 L2208.94 521.625 L2214 518.62 L2219 515.754 L2223.93 513.017 L2228.81 510.405 L2233.63 507.889 L2238.4 505.485 L2243.11 503.2 L2247.77 501.029 L2252.37 498.968 L2256.93 497.014 L2261.43 495.163 L2265.89 493.411 L2270.3 491.755 L2274.66 490.192 L2278.98 488.719 L2283.25 487.333 L2287.48 486.084 L2291.66 484.904 L2295.81 483.784 L2295.81 85.9411 L2291.66 87.0548 L2287.48 88.3426 L2283.25 89.8112 L2278.98 91.3656 L2274.66 93.0086 L2270.3 94.7432 L2265.89 96.5726 L2261.43 98.5 L2256.93 100.529 L2252.37 102.663 L2247.77 104.905 L2243.11 107.326 L2238.4 109.878 L2233.63 112.551 L2228.81 115.339 L2223.93 118.226 L2219 121.242 L2214 124.605 L2208.94 128.257 L2203.82 132.063 L2198.64 136.037 L2193.38 140.203 L2188.07 144.54 L2182.68 149.055 L2177.22 153.755 L2171.68 158.649 L2166.08 163.743 L2160.39 169.046 L2154.62 174.568 L2148.78 180.216 L2142.85 186.054 L2136.83 192.288 L2130.72 199.09 L2124.52 206.164 L2118.23 213.52 L2111.84 221.173 L2105.34 229.136 L2098.75 237.425 L2092.05 246.054 L2085.23 255.041 L2078.3 264.403 L2071.26 274.178 L2064.09 284.125 L2056.79 294.413 L2049.36 305.641 L2041.8 317.585 L2034.1 330.041 L2026.24 342.977 L2018.24 356.452 L2010.08 370.564 L2001.75 385.386 L1993.25 400.892 L1984.57 417.123 L1975.7 433.824 L1966.64 450.849 L1957.38 469.33 L1947.9 489.274 L1938.2 510.177 L1928.27 532.185 L1918.09 555.296 L1907.65 579.401 L1896.95 604.963 L1885.95 631.864 L1874.66 657.972 L1863.05 681.324 L1851.1 704.097 L1838.79 725.083 L1826.11 743.42 L1813.02 758.985 L1799.5 771.348 L1785.53 779.999 L1771.06 784.602 L1756.07 782.233 L1740.51 776.091 L1724.35 766.981 L1707.52 757.572 L1689.97 747.925 L1671.65 738.021 L1652.47 727.844 L1632.36 715.075 L1611.22 703.317 L1588.93 692.68 L1565.37 681.681 L1540.38 670.2 L1513.77 658.127 L1485.33 642.692 L1454.78 629.739 L1421.79 616.77 L1385.92 603.232 L1346.63 588.887 L1303.2 570.677 L1254.65 555.586 L1199.6 539.307 L1136.06 521.554 L1060.9 507.807 L968.918 494.483 L850.329 478.328 L683.188 465.133 L397.458 456.16  Z" fill="#0000ff" fill-rule="evenodd" fill-opacity="0.35"/>
<polyline clip-path="url(#clip862)" style="stroke:#0000ff; stroke-linecap:round; stroke-linejoin:round; stroke-width:4; stroke-opacity:0.35; fill:none" points="397.458,498.216 683.188,535.859 850.329,568.954 968.918,602.868 1060.9,633.455 1136.06,662.144 1199.6,692.968 1254.65,721.359 1303.2,747.618 1346.63,775.654 1385.92,799.188 1421.79,821.401 1454.78,842.524 1485.33,863.244 1513.77,885.543 1540.38,904.096 1565.37,922.107 1588.93,939.484 1611.22,956.29 1632.36,973.552 1652.47,991.568 1671.65,1007.04 1689.97,1022 1707.52,1036.53 1724.35,1051.04 1740.51,1064.8 1756.07,1075.28 1771.06,1081.6 1785.53,1080.79 1799.5,1075.88 1813.02,1067.26 1826.11,1055.13 1838.79,1040.13 1851.1,1023.22 1863.05,1003.66 1874.66,982.491 1885.95,959.409 1896.95,934.393 1907.65,911.47 1918.09,889.906 1928.27,869.606 1938.2,850.424 1947.9,832.258 1957.38,814.53 1966.64,798.405 1975.7,783.473 1984.57,768.852 1993.25,754.633 2001.75,740.803 2010.08,728.101 2018.24,716.138 2026.24,704.491 2034.1,693.388 2041.8,682.8 2049.36,672.577 2056.79,662.924 2064.09,653.926 2071.26,645.667 2078.3,637.2 2085.23,629.113 2092.05,621.389 2098.75,614.009 2105.34,606.958 2111.84,600.219 2118.23,593.779 2124.52,587.624 2130.72,581.74 2136.83,576.116 2142.85,570.791 2148.78,565.747 2154.62,560.821 2160.39,556.047 2166.08,551.483 2171.68,547.123 2177.22,542.956 2182.68,538.976 2188.07,535.175 2193.38,531.546 2198.64,528.082 2203.82,524.777 2208.94,521.625 2214,518.62 2219,515.754 2223.93,513.017 2228.81,510.405 2233.63,507.889 2238.4,505.485 2243.11,503.2 2247.77,501.029 2252.37,498.968 2256.93,497.014 2261.43,495.163 2265.89,493.411 2270.3,491.755 2274.66,490.192 2278.98,488.719 2283.25,487.333 2287.48,486.084 2291.66,484.904 2295.81,483.784 "/>
<path clip-path="url(#clip862)" d="M397.458 514.448 L683.188 562.142 L850.329 603.218 L968.918 644.916 L1060.9 682.371 L1136.06 717.47 L1199.6 754.516 L1254.65 788.483 L1303.2 819.974 L1346.63 853.517 L1385.92 881.233 L1421.79 907.468 L1454.78 932.417 L1485.33 956.876 L1513.77 983.149 L1540.38 1005.07 L1565.37 1026.17 L1588.93 1046.54 L1611.22 1066.24 L1632.36 1086.78 L1652.47 1107.95 L1671.65 1125.95 L1689.97 1143.46 L1707.52 1160.52 L1724.35 1177.16 L1740.51 1193.21 L1756.07 1205.51 L1771.06 1213.07 L1785.53 1212.24 L1799.5 1206.59 L1813.02 1196.62 L1826.11 1182.84 L1838.79 1165.54 L1851.1 1145.25 L1863.05 1122.51 L1874.66 1098.75 L1885.95 1071.65 L1896.95 1043.4 L1907.65 1016.89 L1918.09 991.823 L1928.27 968.018 L1938.2 945.592 L1947.9 924.284 L1957.38 904.04 L1966.64 885.231 L1975.7 867.857 L1984.57 850.822 L1993.25 834.348 L2001.75 818.633 L2010.08 803.599 L2018.24 789.331 L2026.24 775.701 L2034.1 762.807 L2041.8 750.471 L2049.36 738.71 L2056.79 727.716 L2064.09 717.42 L2071.26 707.487 L2078.3 697.605 L2085.23 688.107 L2092.05 679.089 L2098.75 670.527 L2105.34 662.254 L2111.84 654.202 L2118.23 646.715 L2124.52 639.558 L2130.72 632.611 L2136.83 625.89 L2142.85 619.816 L2148.78 614.016 L2154.62 608.118 L2160.39 602.728 L2166.08 597.396 L2171.68 592.243 L2177.22 587.368 L2182.68 582.843 L2188.07 578.526 L2193.38 574.408 L2198.64 570.482 L2203.82 566.689 L2208.94 563.042 L2214 559.566 L2219 556.239 L2223.93 553.093 L2228.81 550.036 L2233.63 547.089 L2238.4 544.272 L2243.11 541.594 L2247.77 539.051 L2252.37 536.708 L2256.93 534.501 L2261.43 532.415 L2265.89 530.446 L2270.3 528.59 L2274.66 526.843 L2278.98 525.202 L2283.25 523.664 L2287.48 522.225 L2291.66 520.842 L2295.81 519.511 L2295.81 438.075 L2291.66 439.845 L2287.48 441.716 L2283.25 443.695 L2278.98 445.711 L2274.66 447.752 L2270.3 449.903 L2265.89 452.095 L2261.43 454.172 L2256.93 456.368 L2252.37 458.689 L2247.77 461.586 L2243.11 464.634 L2238.4 467.822 L2233.63 471.155 L2228.81 474.625 L2223.93 478.211 L2219 481.769 L2214 485.431 L2208.94 489.286 L2203.82 493.318 L2198.64 497.534 L2193.38 501.941 L2188.07 506.556 L2182.68 511.532 L2177.22 516.726 L2171.68 522.146 L2166.08 527.802 L2160.39 533.644 L2154.62 539.408 L2148.78 545.674 L2142.85 552.16 L2136.83 558.953 L2130.72 566.117 L2124.52 573.592 L2118.23 581.357 L2111.84 589.302 L2105.34 597.682 L2098.75 606.576 L2092.05 615.908 L2085.23 625.568 L2078.3 635.698 L2071.26 646.28 L2064.09 657.023 L2056.79 668.15 L2049.36 680.044 L2041.8 692.375 L2034.1 705.62 L2026.24 719.452 L2018.24 733.804 L2010.08 748.853 L2001.75 764.555 L1993.25 780.81 L1984.57 798.106 L1975.7 815.978 L1966.64 834.199 L1957.38 853.815 L1947.9 874.472 L1938.2 896.667 L1928.27 920.115 L1918.09 944.654 L1907.65 970.453 L1896.95 997.76 L1885.95 1026.45 L1874.66 1053.98 L1863.05 1078.18 L1851.1 1101.52 L1838.79 1122.54 L1826.11 1140.35 L1813.02 1154.53 L1799.5 1164.99 L1785.53 1171.15 L1771.06 1172.55 L1756.07 1165.58 L1740.51 1153.89 L1724.35 1138.46 L1707.52 1122.46 L1689.97 1106.06 L1671.65 1089.29 L1652.47 1071.92 L1632.36 1051.45 L1611.22 1031.68 L1588.93 1012.8 L1565.37 993.271 L1540.38 973.042 L1513.77 952.037 L1485.33 926.664 L1454.78 903.173 L1421.79 879.26 L1385.92 854.114 L1346.63 827.549 L1303.2 795.229 L1254.65 765.047 L1199.6 732.49 L1136.06 696.983 L1060.9 663.587 L968.918 628.056 L850.329 588.604 L683.188 550.294 L397.458 506.443  Z" fill="#ffa500" fill-rule="evenodd" fill-opacity="0.35"/>
<polyline clip-path="url(#clip862)" style="stroke:#ffa500; stroke-linecap:round; stroke-linejoin:round; stroke-width:4; stroke-opacity:0.35; fill:none" points="397.458,514.448 683.188,562.142 850.329,603.218 968.918,644.916 1060.9,682.371 1136.06,717.47 1199.6,754.516 1254.65,788.483 1303.2,819.974 1346.63,853.517 1385.92,881.233 1421.79,907.468 1454.78,932.417 1485.33,956.876 1513.77,983.149 1540.38,1005.07 1565.37,1026.17 1588.93,1046.54 1611.22,1066.24 1632.36,1086.78 1652.47,1107.95 1671.65,1125.95 1689.97,1143.46 1707.52,1160.52 1724.35,1177.16 1740.51,1193.21 1756.07,1205.51 1771.06,1213.07 1785.53,1212.24 1799.5,1206.59 1813.02,1196.62 1826.11,1182.84 1838.79,1165.54 1851.1,1145.25 1863.05,1122.51 1874.66,1098.75 1885.95,1071.65 1896.95,1043.4 1907.65,1016.89 1918.09,991.823 1928.27,968.018 1938.2,945.592 1947.9,924.284 1957.38,904.04 1966.64,885.231 1975.7,867.857 1984.57,850.822 1993.25,834.348 2001.75,818.633 2010.08,803.599 2018.24,789.331 2026.24,775.701 2034.1,762.807 2041.8,750.471 2049.36,738.71 2056.79,727.716 2064.09,717.42 2071.26,707.487 2078.3,697.605 2085.23,688.107 2092.05,679.089 2098.75,670.527 2105.34,662.254 2111.84,654.202 2118.23,646.715 2124.52,639.558 2130.72,632.611 2136.83,625.89 2142.85,619.816 2148.78,614.016 2154.62,608.118 2160.39,602.728 2166.08,597.396 2171.68,592.243 2177.22,587.368 2182.68,582.843 2188.07,578.526 2193.38,574.408 2198.64,570.482 2203.82,566.689 2208.94,563.042 2214,559.566 2219,556.239 2223.93,553.093 2228.81,550.036 2233.63,547.089 2238.4,544.272 2243.11,541.594 2247.77,539.051 2252.37,536.708 2256.93,534.501 2261.43,532.415 2265.89,530.446 2270.3,528.59 2274.66,526.843 2278.98,525.202 2283.25,523.664 2287.48,522.225 2291.66,520.842 2295.81,519.511 "/>
<path clip-path="url(#clip862)" d="M397.458 524.301 L683.188 576.863 L850.329 621.558 L968.918 666.192 L1060.9 706.163 L1136.06 743.489 L1199.6 782.547 L1254.65 818.36 L1303.2 851.56 L1346.63 886.702 L1385.92 915.658 L1421.79 943.198 L1454.78 969.4 L1485.33 994.984 L1513.77 1022.42 L1540.38 1045.39 L1565.37 1067.5 L1588.93 1088.85 L1611.22 1109.5 L1632.36 1130.92 L1652.47 1152.91 L1671.65 1171.65 L1689.97 1189.89 L1707.52 1207.66 L1724.35 1225.08 L1740.51 1241.87 L1756.07 1254.96 L1771.06 1263.15 L1785.53 1262.85 L1799.5 1257.54 L1813.02 1248.01 L1826.11 1234.58 L1838.79 1217.88 L1851.1 1198.07 L1863.05 1175.71 L1874.66 1152.3 L1885.95 1125.46 L1896.95 1097.53 L1907.65 1071.18 L1918.09 1046.24 L1928.27 1022.79 L1938.2 1000.59 L1947.9 979.511 L1957.38 959.633 L1966.64 940.99 L1975.7 923.438 L1984.57 906.442 L1993.25 890.011 L2001.75 874.34 L2010.08 859.548 L2018.24 845.561 L2026.24 832.049 L2034.1 819.264 L2041.8 807.077 L2049.36 795.421 L2056.79 784.314 L2064.09 773.881 L2071.26 764.026 L2078.3 754.32 L2085.23 745.103 L2092.05 736.434 L2098.75 727.952 L2105.34 719.849 L2111.84 712.109 L2118.23 704.689 L2124.52 697.609 L2130.72 690.899 L2136.83 684.457 L2142.85 678.323 L2148.78 672.46 L2154.62 666.808 L2160.39 661.296 L2166.08 655.884 L2171.68 650.682 L2177.22 645.706 L2182.68 641.099 L2188.07 636.723 L2193.38 632.352 L2198.64 628.391 L2203.82 624.659 L2208.94 620.973 L2214 617.446 L2219 614.213 L2223.93 611.14 L2228.81 608.214 L2233.63 605.396 L2238.4 602.696 L2243.11 600.082 L2247.77 597.603 L2252.37 595.256 L2256.93 593.035 L2261.43 590.937 L2265.89 588.957 L2270.3 587.093 L2274.66 585.339 L2278.98 583.693 L2283.25 582.15 L2287.48 580.709 L2291.66 579.313 L2295.81 577.96 L2295.81 422.935 L2291.66 424.935 L2287.48 427.237 L2283.25 429.629 L2278.98 432.129 L2274.66 434.742 L2270.3 437.471 L2265.89 440.32 L2261.43 443.293 L2256.93 446.264 L2252.37 449.114 L2247.77 452.1 L2243.11 455.225 L2238.4 458.393 L2233.63 461.707 L2228.81 465.159 L2223.93 468.729 L2219 472.454 L2214 476.375 L2208.94 480.461 L2203.82 484.793 L2198.64 489.28 L2193.38 493.963 L2188.07 498.848 L2182.68 503.944 L2177.22 509.26 L2171.68 514.803 L2166.08 520.584 L2160.39 526.513 L2154.62 532.454 L2148.78 538.814 L2142.85 545.432 L2136.83 552.391 L2130.72 559.856 L2124.52 568.002 L2118.23 576.088 L2111.84 584.756 L2105.34 593.327 L2098.75 602.571 L2092.05 612.219 L2085.23 622.216 L2078.3 632.596 L2071.26 643.251 L2064.09 654.049 L2056.79 665.884 L2049.36 677.944 L2041.8 690.379 L2034.1 703.807 L2026.24 717.938 L2018.24 732.725 L2010.08 748.435 L2001.75 764.423 L1993.25 781.123 L1984.57 798.978 L1975.7 817.334 L1966.64 835.752 L1957.38 855.591 L1947.9 877.003 L1938.2 899.361 L1928.27 922.826 L1918.09 947.635 L1907.65 973.496 L1896.95 1000.74 L1885.95 1029.86 L1874.66 1057.54 L1863.05 1082.06 L1851.1 1106.13 L1838.79 1127.17 L1826.11 1144.97 L1813.02 1159.91 L1799.5 1170.46 L1785.53 1176.69 L1771.06 1178.24 L1756.07 1171.07 L1740.51 1159.2 L1724.35 1143.62 L1707.52 1127.46 L1689.97 1110.9 L1671.65 1093.95 L1652.47 1076.52 L1632.36 1056.08 L1611.22 1036.27 L1588.93 1017.38 L1565.37 997.857 L1540.38 977.628 L1513.77 956.737 L1485.33 931.181 L1454.78 907.625 L1421.79 883.605 L1385.92 858.403 L1346.63 831.613 L1303.2 798.959 L1254.65 768.273 L1199.6 735.174 L1136.06 699.206 L1060.9 665.319 L968.918 629.493 L850.329 589.728 L683.188 551.205 L397.458 506.673  Z" fill="#008000" fill-rule="evenodd" fill-opacity="0.35"/>
<polyline clip-path="url(#clip862)" style="stroke:#008000; stroke-linecap:round; stroke-linejoin:round; stroke-width:4; stroke-opacity:0.35; fill:none" points="397.458,524.301 683.188,576.863 850.329,621.558 968.918,666.192 1060.9,706.163 1136.06,743.489 1199.6,782.547 1254.65,818.36 1303.2,851.56 1346.63,886.702 1385.92,915.658 1421.79,943.198 1454.78,969.4 1485.33,994.984 1513.77,1022.42 1540.38,1045.39 1565.37,1067.5 1588.93,1088.85 1611.22,1109.5 1632.36,1130.92 1652.47,1152.91 1671.65,1171.65 1689.97,1189.89 1707.52,1207.66 1724.35,1225.08 1740.51,1241.87 1756.07,1254.96 1771.06,1263.15 1785.53,1262.85 1799.5,1257.54 1813.02,1248.01 1826.11,1234.58 1838.79,1217.88 1851.1,1198.07 1863.05,1175.71 1874.66,1152.3 1885.95,1125.46 1896.95,1097.53 1907.65,1071.18 1918.09,1046.24 1928.27,1022.79 1938.2,1000.59 1947.9,979.511 1957.38,959.633 1966.64,940.99 1975.7,923.438 1984.57,906.442 1993.25,890.011 2001.75,874.34 2010.08,859.548 2018.24,845.561 2026.24,832.049 2034.1,819.264 2041.8,807.077 2049.36,795.421 2056.79,784.314 2064.09,773.881 2071.26,764.026 2078.3,754.32 2085.23,745.103 2092.05,736.434 2098.75,727.952 2105.34,719.849 2111.84,712.109 2118.23,704.689 2124.52,697.609 2130.72,690.899 2136.83,684.457 2142.85,678.323 2148.78,672.46 2154.62,666.808 2160.39,661.296 2166.08,655.884 2171.68,650.682 2177.22,645.706 2182.68,641.099 2188.07,636.723 2193.38,632.352 2198.64,628.391 2203.82,624.659 2208.94,620.973 2214,617.446 2219,614.213 2223.93,611.14 2228.81,608.214 2233.63,605.396 2238.4,602.696 2243.11,600.082 2247.77,597.603 2252.37,595.256 2256.93,593.035 2261.43,590.937 2265.89,588.957 2270.3,587.093 2274.66,585.339 2278.98,583.693 2283.25,582.15 2287.48,580.709 2291.66,579.313 2295.81,577.96 "/>
<path clip-path="url(#clip862)" d="M397.458 546.698 L683.188 610.197 L850.329 662.767 L968.918 713.652 L1060.9 759.142 L1136.06 801.478 L1199.6 845.152 L1254.65 885.064 L1303.2 921.987 L1346.63 960.678 L1385.92 992.701 L1421.79 1022.83 L1454.78 1051.65 L1485.33 1080.23 L1513.77 1110.08 L1540.38 1135.38 L1565.37 1159.72 L1588.93 1183.08 L1611.22 1205.57 L1632.36 1228.86 L1652.47 1252.87 L1671.65 1273.7 L1689.97 1293.9 L1707.52 1313.55 L1724.35 1332.76 L1740.51 1351.29 L1756.07 1365.78 L1771.06 1375.16 L1785.53 1375.84 L1799.5 1371.17 L1813.02 1361.91 L1826.11 1348.77 L1838.79 1332.61 L1851.1 1312.43 L1863.05 1289.64 L1874.66 1265.4 L1885.95 1238 L1896.95 1209.64 L1907.65 1183 L1918.09 1157.8 L1928.27 1134.31 L1938.2 1111.9 L1947.9 1090.78 L1957.38 1070.7 L1966.64 1052.38 L1975.7 1035.12 L1984.57 1018.09 L1993.25 1001.48 L2001.75 985.694 L2010.08 970.933 L2018.24 956.993 L2026.24 943.378 L2034.1 930.954 L2041.8 919.036 L2049.36 907.273 L2056.79 895.752 L2064.09 885.634 L2071.26 875.894 L2078.3 865.787 L2085.23 856.458 L2092.05 847.606 L2098.75 839 L2105.34 830.767 L2111.84 822.904 L2118.23 815.463 L2124.52 808.516 L2130.72 801.502 L2136.83 794.836 L2142.85 788.514 L2148.78 782.416 L2154.62 776.531 L2160.39 770.944 L2166.08 765.913 L2171.68 761.167 L2177.22 756.653 L2182.68 752.364 L2188.07 748.289 L2193.38 743.714 L2198.64 738.869 L2203.82 735.367 L2208.94 732.049 L2214 728.595 L2219 725.023 L2223.93 721.629 L2228.81 718.386 L2233.63 715.351 L2238.4 712.564 L2243.11 709.921 L2247.77 707.417 L2252.37 705.049 L2256.93 702.811 L2261.43 700.698 L2265.89 698.709 L2270.3 696.837 L2274.66 695.079 L2278.98 693.433 L2283.25 691.893 L2287.48 690.458 L2291.66 689.037 L2295.81 687.628 L2295.81 402.174 L2291.66 404.749 L2287.48 407.392 L2283.25 409.23 L2278.98 411.007 L2274.66 413.537 L2270.3 416.873 L2265.89 419.248 L2261.43 421.536 L2256.93 424.214 L2252.37 427.888 L2247.77 431.712 L2243.11 435.693 L2238.4 439.835 L2233.63 444.146 L2228.81 448.613 L2223.93 453.215 L2219 457.919 L2214 462.208 L2208.94 466.955 L2203.82 471.894 L2198.64 477.032 L2193.38 482.376 L2188.07 487.788 L2182.68 493.327 L2177.22 499.099 L2171.68 505.112 L2166.08 510.928 L2160.39 517.901 L2154.62 524.699 L2148.78 531.665 L2142.85 539.179 L2136.83 547.241 L2130.72 554.906 L2124.52 562.787 L2118.23 571 L2111.84 579.58 L2105.34 588.546 L2098.75 597.917 L2092.05 607.711 L2085.23 618.288 L2078.3 629.695 L2071.26 641.046 L2064.09 652.117 L2056.79 663.584 L2049.36 675.822 L2041.8 689.351 L2034.1 703.516 L2026.24 718.354 L2018.24 733.555 L2010.08 749.05 L2001.75 765.315 L1993.25 782.395 L1984.57 800.418 L1975.7 819.835 L1966.64 839.097 L1957.38 860.087 L1947.9 882.362 L1938.2 905.743 L1928.27 930.391 L1918.09 956.397 L1907.65 983.981 L1896.95 1013.46 L1885.95 1046.41 L1874.66 1076.81 L1863.05 1103.47 L1851.1 1128.12 L1838.79 1150.68 L1826.11 1169.58 L1813.02 1184.83 L1799.5 1196.03 L1785.53 1202.46 L1771.06 1204.14 L1756.07 1196.64 L1740.51 1184.64 L1724.35 1168.75 L1707.52 1152.38 L1689.97 1135.67 L1671.65 1118.81 L1652.47 1101.28 L1632.36 1080.17 L1611.22 1059.39 L1588.93 1039.56 L1565.37 1019.06 L1540.38 997.817 L1513.77 975.761 L1485.33 949.226 L1454.78 925.817 L1421.79 901.462 L1385.92 875.346 L1346.63 847.187 L1303.2 812.874 L1254.65 781.153 L1199.6 746.698 L1136.06 708.857 L1060.9 673.694 L968.918 636.181 L850.329 594.897 L683.188 554.778 L397.458 508.824  Z" fill="#800080" fill-rule="evenodd" fill-opacity="0.35"/>
<polyline clip-path="url(#clip862)" style="stroke:#800080; stroke-linecap:round; stroke-linejoin:round; stroke-width:4; stroke-opacity:0.35; fill:none" points="397.458,546.698 683.188,610.197 850.329,662.767 968.918,713.652 1060.9,759.142 1136.06,801.478 1199.6,845.152 1254.65,885.064 1303.2,921.987 1346.63,960.678 1385.92,992.701 1421.79,1022.83 1454.78,1051.65 1485.33,1080.23 1513.77,1110.08 1540.38,1135.38 1565.37,1159.72 1588.93,1183.08 1611.22,1205.57 1632.36,1228.86 1652.47,1252.87 1671.65,1273.7 1689.97,1293.9 1707.52,1313.55 1724.35,1332.76 1740.51,1351.29 1756.07,1365.78 1771.06,1375.16 1785.53,1375.84 1799.5,1371.17 1813.02,1361.91 1826.11,1348.77 1838.79,1332.61 1851.1,1312.43 1863.05,1289.64 1874.66,1265.4 1885.95,1238 1896.95,1209.64 1907.65,1183 1918.09,1157.8 1928.27,1134.31 1938.2,1111.9 1947.9,1090.78 1957.38,1070.7 1966.64,1052.38 1975.7,1035.12 1984.57,1018.09 1993.25,1001.48 2001.75,985.694 2010.08,970.933 2018.24,956.993 2026.24,943.378 2034.1,930.954 2041.8,919.036 2049.36,907.273 2056.79,895.752 2064.09,885.634 2071.26,875.894 2078.3,865.787 2085.23,856.458 2092.05,847.606 2098.75,839 2105.34,830.767 2111.84,822.904 2118.23,815.463 2124.52,808.516 2130.72,801.502 2136.83,794.836 2142.85,788.514 2148.78,782.416 2154.62,776.531 2160.39,770.944 2166.08,765.913 2171.68,761.167 2177.22,756.653 2182.68,752.364 2188.07,748.289 2193.38,743.714 2198.64,738.869 2203.82,735.367 2208.94,732.049 2214,728.595 2219,725.023 2223.93,721.629 2228.81,718.386 2233.63,715.351 2238.4,712.564 2243.11,709.921 2247.77,707.417 2252.37,705.049 2256.93,702.811 2261.43,700.698 2265.89,698.709 2270.3,696.837 2274.66,695.079 2278.98,693.433 2283.25,691.893 2287.48,690.458 2291.66,689.037 2295.81,687.628 "/>
<polyline clip-path="url(#clip862)" style="stroke:#000000; stroke-linecap:round; stroke-linejoin:round; stroke-width:8; stroke-opacity:1; fill:none" stroke-dasharray="32, 20" points="397.458,455.7 683.188,455.7 850.329,455.7 968.918,455.7 1060.9,455.7 1136.06,455.7 1199.6,455.7 1254.65,455.7 1303.2,455.7 1346.63,455.7 1385.92,455.7 1421.79,455.7 1454.78,455.7 1485.33,455.7 1513.77,455.7 1540.38,455.7 1565.37,455.7 1588.93,455.7 1611.22,455.7 1632.36,455.7 1652.47,455.7 1671.65,455.7 1689.97,455.7 1707.52,455.7 1724.35,455.7 1740.51,455.7 1756.07,455.7 1771.06,455.7 1785.53,455.7 1799.5,455.7 1813.02,455.7 1826.11,455.7 1838.79,455.7 1851.1,455.7 1863.05,455.7 1874.66,455.7 1885.95,455.7 1896.95,455.7 1907.65,455.7 1918.09,455.7 1928.27,455.7 1938.2,455.7 1947.9,455.7 1957.38,455.7 1966.64,455.7 1975.7,455.7 1984.57,455.7 1993.25,455.7 2001.75,455.7 2010.08,455.7 2018.24,455.7 2026.24,455.7 2034.1,455.7 2041.8,455.7 2049.36,455.7 2056.79,455.7 2064.09,455.7 2071.26,455.7 2078.3,455.7 2085.23,455.7 2092.05,455.7 2098.75,455.7 2105.34,455.7 2111.84,455.7 2118.23,455.7 2124.52,455.7 2130.72,455.7 2136.83,455.7 2142.85,455.7 2148.78,455.7 2154.62,455.7 2160.39,455.7 2166.08,455.7 2171.68,455.7 2177.22,455.7 2182.68,455.7 2188.07,455.7 2193.38,455.7 2198.64,455.7 2203.82,455.7 2208.94,455.7 2214,455.7 2219,455.7 2223.93,455.7 2228.81,455.7 2233.63,455.7 2238.4,455.7 2243.11,455.7 2247.77,455.7 2252.37,455.7 2256.93,455.7 2261.43,455.7 2265.89,455.7 2270.3,455.7 2274.66,455.7 2278.98,455.7 2283.25,455.7 2287.48,455.7 2291.66,455.7 2295.81,455.7 "/>
<path clip-path="url(#clip860)" d="M407.583 352.021 L677.58 352.021 L677.58 92.8206 L407.583 92.8206  Z" fill="#ffffff" fill-rule="evenodd" fill-opacity="1"/>
<polyline clip-path="url(#clip860)" style="stroke:#000000; stroke-linecap:round; stroke-linejoin:round; stroke-width:4; stroke-opacity:1; fill:none" points="407.583,352.021 677.58,352.021 677.58,92.8206 407.583,92.8206 407.583,352.021 "/>
<polyline clip-path="url(#clip860)" style="stroke:#0000ff; stroke-linecap:round; stroke-linejoin:round; stroke-width:10; stroke-opacity:1; fill:none" points="429.941,144.661 564.091,144.661 "/>
<path clip-path="url(#clip860)" d="M598.394 130.459 Q594.783 130.459 592.954 134.024 Q591.148 137.566 591.148 144.695 Q591.148 151.802 592.954 155.367 Q594.783 158.908 598.394 158.908 Q602.028 158.908 603.834 155.367 Q605.662 151.802 605.662 144.695 Q605.662 137.566 603.834 134.024 Q602.028 130.459 598.394 130.459 M598.394 126.756 Q604.204 126.756 607.259 131.362 Q610.338 135.945 610.338 144.695 Q610.338 153.422 607.259 158.029 Q604.204 162.612 598.394 162.612 Q592.584 162.612 589.505 158.029 Q586.449 153.422 586.449 144.695 Q586.449 135.945 589.505 131.362 Q592.584 126.756 598.394 126.756 Z" fill="#000000" fill-rule="nonzero" fill-opacity="1" /><path clip-path="url(#clip860)" d="M618.556 156.061 L623.44 156.061 L623.44 161.941 L618.556 161.941 L618.556 156.061 Z" fill="#000000" fill-rule="nonzero" fill-opacity="1" /><path clip-path="url(#clip860)" d="M633.671 127.381 L652.028 127.381 L652.028 131.316 L637.954 131.316 L637.954 139.788 Q638.972 139.441 639.991 139.279 Q641.009 139.094 642.028 139.094 Q647.815 139.094 651.194 142.265 Q654.574 145.436 654.574 150.853 Q654.574 156.431 651.102 159.533 Q647.63 162.612 641.31 162.612 Q639.134 162.612 636.866 162.242 Q634.62 161.871 632.213 161.13 L632.213 156.431 Q634.296 157.566 636.519 158.121 Q638.741 158.677 641.218 158.677 Q645.222 158.677 647.56 156.57 Q649.898 154.464 649.898 150.853 Q649.898 147.242 647.56 145.135 Q645.222 143.029 641.218 143.029 Q639.343 143.029 637.468 143.445 Q635.616 143.862 633.671 144.742 L633.671 127.381 Z" fill="#000000" fill-rule="nonzero" fill-opacity="1" /><polyline clip-path="url(#clip860)" style="stroke:#ffa500; stroke-linecap:round; stroke-linejoin:round; stroke-width:10; stroke-opacity:1; fill:none" points="429.941,196.501 564.091,196.501 "/>
<path clip-path="url(#clip860)" d="M587.121 209.845 L594.76 209.845 L594.76 183.48 L586.449 185.147 L586.449 180.887 L594.713 179.221 L599.389 179.221 L599.389 209.845 L607.028 209.845 L607.028 213.781 L587.121 213.781 L587.121 209.845 Z" fill="#000000" fill-rule="nonzero" fill-opacity="1" /><path clip-path="url(#clip860)" d="M616.472 207.901 L621.357 207.901 L621.357 213.781 L616.472 213.781 L616.472 207.901 Z" fill="#000000" fill-rule="nonzero" fill-opacity="1" /><path clip-path="url(#clip860)" d="M641.542 182.299 Q637.931 182.299 636.102 185.864 Q634.296 189.406 634.296 196.535 Q634.296 203.642 636.102 207.207 Q637.931 210.748 641.542 210.748 Q645.176 210.748 646.981 207.207 Q648.81 203.642 648.81 196.535 Q648.81 189.406 646.981 185.864 Q645.176 182.299 641.542 182.299 M641.542 178.596 Q647.352 178.596 650.407 183.202 Q653.486 187.785 653.486 196.535 Q653.486 205.262 650.407 209.869 Q647.352 214.452 641.542 214.452 Q635.732 214.452 632.653 209.869 Q629.597 205.262 629.597 196.535 Q629.597 187.785 632.653 183.202 Q635.732 178.596 641.542 178.596 Z" fill="#000000" fill-rule="nonzero" fill-opacity="1" /><polyline clip-path="url(#clip860)" style="stroke:#008000; stroke-linecap:round; stroke-linejoin:round; stroke-width:10; stroke-opacity:1; fill:none" points="429.941,248.341 564.091,248.341 "/>
<path clip-path="url(#clip860)" d="M592.074 261.685 L608.394 261.685 L608.394 265.621 L586.449 265.621 L586.449 261.685 Q589.111 258.931 593.695 254.301 Q598.301 249.648 599.482 248.306 Q601.727 245.783 602.607 244.047 Q603.509 242.287 603.509 240.598 Q603.509 237.843 601.565 236.107 Q599.644 234.371 596.542 234.371 Q594.343 234.371 591.889 235.135 Q589.459 235.899 586.681 237.449 L586.681 232.727 Q589.505 231.593 591.959 231.014 Q594.412 230.436 596.449 230.436 Q601.82 230.436 605.014 233.121 Q608.209 235.806 608.209 240.297 Q608.209 242.426 607.398 244.348 Q606.611 246.246 604.505 248.838 Q603.926 249.51 600.824 252.727 Q597.722 255.922 592.074 261.685 Z" fill="#000000" fill-rule="nonzero" fill-opacity="1" /><path clip-path="url(#clip860)" d="M618.208 259.741 L623.093 259.741 L623.093 265.621 L618.208 265.621 L618.208 259.741 Z" fill="#000000" fill-rule="nonzero" fill-opacity="1" /><path clip-path="url(#clip860)" d="M643.278 234.139 Q639.667 234.139 637.838 237.704 Q636.032 241.246 636.032 248.375 Q636.032 255.482 637.838 259.047 Q639.667 262.588 643.278 262.588 Q646.912 262.588 648.718 259.047 Q650.546 255.482 650.546 248.375 Q650.546 241.246 648.718 237.704 Q646.912 234.139 643.278 234.139 M643.278 230.436 Q649.088 230.436 652.143 235.042 Q655.222 239.625 655.222 248.375 Q655.222 257.102 652.143 261.709 Q649.088 266.292 643.278 266.292 Q637.468 266.292 634.389 261.709 Q631.333 257.102 631.333 248.375 Q631.333 239.625 634.389 235.042 Q637.468 230.436 643.278 230.436 Z" fill="#000000" fill-rule="nonzero" fill-opacity="1" /><polyline clip-path="url(#clip860)" style="stroke:#800080; stroke-linecap:round; stroke-linejoin:round; stroke-width:10; stroke-opacity:1; fill:none" points="429.941,300.181 564.091,300.181 "/>
<path clip-path="url(#clip860)" d="M587.908 282.901 L606.264 282.901 L606.264 286.836 L592.19 286.836 L592.19 295.308 Q593.209 294.961 594.227 294.799 Q595.246 294.614 596.264 294.614 Q602.051 294.614 605.431 297.785 Q608.81 300.956 608.81 306.373 Q608.81 311.951 605.338 315.053 Q601.866 318.132 595.547 318.132 Q593.371 318.132 591.102 317.762 Q588.857 317.391 586.449 316.65 L586.449 311.951 Q588.533 313.086 590.755 313.641 Q592.977 314.197 595.454 314.197 Q599.459 314.197 601.797 312.09 Q604.134 309.984 604.134 306.373 Q604.134 302.762 601.797 300.655 Q599.459 298.549 595.454 298.549 Q593.579 298.549 591.704 298.965 Q589.852 299.382 587.908 300.262 L587.908 282.901 Z" fill="#000000" fill-rule="nonzero" fill-opacity="1" /><path clip-path="url(#clip860)" d="M618.023 311.581 L622.908 311.581 L622.908 317.461 L618.023 317.461 L618.023 311.581 Z" fill="#000000" fill-rule="nonzero" fill-opacity="1" /><path clip-path="url(#clip860)" d="M643.093 285.979 Q639.482 285.979 637.653 289.544 Q635.847 293.086 635.847 300.215 Q635.847 307.322 637.653 310.887 Q639.482 314.428 643.093 314.428 Q646.727 314.428 648.532 310.887 Q650.361 307.322 650.361 300.215 Q650.361 293.086 648.532 289.544 Q646.727 285.979 643.093 285.979 M643.093 282.276 Q648.903 282.276 651.958 286.882 Q655.037 291.465 655.037 300.215 Q655.037 308.942 651.958 313.549 Q648.903 318.132 643.093 318.132 Q637.282 318.132 634.204 313.549 Q631.148 308.942 631.148 300.215 Q631.148 291.465 634.204 286.882 Q637.282 282.276 643.093 282.276 Z" fill="#000000" fill-rule="nonzero" fill-opacity="1" /></svg>
