<?xml version="1.0" encoding="utf-8"?>
<svg xmlns="http://www.w3.org/2000/svg" xmlns:xlink="http://www.w3.org/1999/xlink" width="600" height="400" viewBox="0 0 2400 1600">
<defs>
  <clipPath id="clip530">
    <rect x="0" y="0" width="2400" height="1600"/>
  </clipPath>
</defs>
<path clip-path="url(#clip530)" d="M0 1600 L2400 1600 L2400 0 L0 0  Z" fill="#ffffff" fill-rule="evenodd" fill-opacity="1"/>
<defs>
  <clipPath id="clip531">
    <rect x="480" y="0" width="1681" height="1600"/>
  </clipPath>
</defs>
<path clip-path="url(#clip530)" d="M340.508 1477.81 L2352.76 1477.81 L2352.76 47.2441 L340.508 47.2441  Z" fill="#ffffff" fill-rule="evenodd" fill-opacity="1"/>
<defs>
  <clipPath id="clip532">
    <rect x="340" y="47" width="2013" height="1432"/>
  </clipPath>
</defs>
<polyline clip-path="url(#clip532)" style="stroke:#000000; stroke-linecap:round; stroke-linejoin:round; stroke-width:2; stroke-opacity:0.1; fill:none" points="397.458,1477.81 397.458,47.2441 "/>
<polyline clip-path="url(#clip532)" style="stroke:#000000; stroke-linecap:round; stroke-linejoin:round; stroke-width:2; stroke-opacity:0.1; fill:none" points="1346.63,1477.81 1346.63,47.2441 "/>
<polyline clip-path="url(#clip532)" style="stroke:#000000; stroke-linecap:round; stroke-linejoin:round; stroke-width:2; stroke-opacity:0.1; fill:none" points="2295.81,1477.81 2295.81,47.2441 "/>
<polyline clip-path="url(#clip530)" style="stroke:#000000; stroke-linecap:round; stroke-linejoin:round; stroke-width:4; stroke-opacity:1; fill:none" points="340.508,1477.81 2352.76,1477.81 "/>
<polyline clip-path="url(#clip530)" style="stroke:#000000; stroke-linecap:round; stroke-linejoin:round; stroke-width:4; stroke-opacity:1; fill:none" points="397.458,1477.81 397.458,1458.91 "/>
<polyline clip-path="url(#clip530)" style="stroke:#000000; stroke-linecap:round; stroke-linejoin:round; stroke-width:4; stroke-opacity:1; fill:none" points="1346.63,1477.81 1346.63,1458.91 "/>
<polyline clip-path="url(#clip530)" style="stroke:#000000; stroke-linecap:round; stroke-linejoin:round; stroke-width:4; stroke-opacity:1; fill:none" points="2295.81,1477.81 2295.81,1458.91 "/>
<path clip-path="url(#clip530)" d="M365.818 1546.09 L375.366 1546.09 L375.366 1513.13 L364.979 1515.22 L364.979 1509.89 L375.309 1507.81 L381.154 1507.81 L381.154 1546.09 L390.702 1546.09 L390.702 1551.01 L365.818 1551.01 L365.818 1546.09 Z" fill="#000000" fill-rule="nonzero" fill-opacity="1" /><path clip-path="url(#clip530)" d="M415.007 1511.66 Q410.494 1511.66 408.208 1516.11 Q405.951 1520.54 405.951 1529.45 Q405.951 1538.33 408.208 1542.79 Q410.494 1547.22 415.007 1547.22 Q419.55 1547.22 421.807 1542.79 Q424.093 1538.33 424.093 1529.45 Q424.093 1520.54 421.807 1516.11 Q419.55 1511.66 415.007 1511.66 M415.007 1507.03 Q422.27 1507.03 426.09 1512.78 Q429.938 1518.51 429.938 1529.45 Q429.938 1540.36 426.09 1546.12 Q422.27 1551.85 415.007 1551.85 Q407.745 1551.85 403.896 1546.12 Q400.077 1540.36 400.077 1529.45 Q400.077 1518.51 403.896 1512.78 Q407.745 1507.03 415.007 1507.03 Z" fill="#000000" fill-rule="nonzero" fill-opacity="1" /><path clip-path="url(#clip530)" d="M1296.14 1546.09 L1305.69 1546.09 L1305.69 1513.13 L1295.3 1515.22 L1295.3 1509.89 L1305.63 1507.81 L1311.48 1507.81 L1311.48 1546.09 L1321.02 1546.09 L1321.02 1551.01 L1296.14 1551.01 L1296.14 1546.09 Z" fill="#000000" fill-rule="nonzero" fill-opacity="1" /><path clip-path="url(#clip530)" d="M1345.33 1511.66 Q1340.82 1511.66 1338.53 1516.11 Q1336.27 1520.54 1336.27 1529.45 Q1336.27 1538.33 1338.53 1542.79 Q1340.82 1547.22 1345.33 1547.22 Q1349.87 1547.22 1352.13 1542.79 Q1354.42 1538.33 1354.42 1529.45 Q1354.42 1520.54 1352.13 1516.11 Q1349.87 1511.66 1345.33 1511.66 M1345.33 1507.03 Q1352.59 1507.03 1356.41 1512.78 Q1360.26 1518.51 1360.26 1529.45 Q1360.26 1540.36 1356.41 1546.12 Q1352.59 1551.85 1345.33 1551.85 Q1338.07 1551.85 1334.22 1546.12 Q1330.4 1540.36 1330.4 1529.45 Q1330.4 1518.51 1334.22 1512.78 Q1338.07 1507.03 1345.33 1507.03 Z" fill="#000000" fill-rule="nonzero" fill-opacity="1" /><path clip-path="url(#clip530)" d="M1383.03 1511.66 Q1378.52 1511.66 1376.23 1516.11 Q1373.98 1520.54 1373.98 1529.45 Q1373.98 1538.33 1376.23 1542.79 Q1378.52 1547.22 1383.03 1547.22 Q1387.58 1547.22 1389.83 1542.79 Q1392.12 1538.33 1392.12 1529.45 Q1392.12 1520.54 1389.83 1516.11 Q1387.58 1511.66 1383.03 1511.66 M1383.03 1507.03 Q1390.29 1507.03 1394.11 1512.78 Q1397.96 1518.51 1397.96 1529.45 Q1397.96 1540.36 1394.11 1546.12 Q1390.29 1551.85 1383.03 1551.85 Q1375.77 1551.85 1371.92 1546.12 Q1368.1 1540.36 1368.1 1529.45 Q1368.1 1518.51 1371.92 1512.78 Q1375.77 1507.03 1383.03 1507.03 Z" fill="#000000" fill-rule="nonzero" fill-opacity="1" /><path clip-path="url(#clip530)" d="M2226.46 1546.09 L2236.01 1546.09 L2236.01 1513.13 L2225.62 1515.22 L2225.62 1509.89 L2235.95 1507.81 L2241.8 1507.81 L2241.8 1546.09 L2251.35 1546.09 L2251.35 1551.01 L2226.46 1551.01 L2226.46 1546.09 Z" fill="#000000" fill-rule="nonzero" fill-opacity="1" /><path clip-path="url(#clip530)" d="M2275.65 1511.66 Q2271.14 1511.66 2268.85 1516.11 Q2266.6 1520.54 2266.6 1529.45 Q2266.6 1538.33 2268.85 1542.79 Q2271.14 1547.22 2275.65 1547.22 Q2280.2 1547.22 2282.45 1542.79 Q2284.74 1538.33 2284.74 1529.45 Q2284.74 1520.54 2282.45 1516.11 Q2280.2 1511.66 2275.65 1511.66 M2275.65 1507.03 Q2282.91 1507.03 2286.73 1512.78 Q2290.58 1518.51 2290.58 1529.45 Q2290.58 1540.36 2286.73 1546.12 Q2282.91 1551.85 2275.65 1551.85 Q2268.39 1551.85 2264.54 1546.12 Q2260.72 1540.36 2260.72 1529.45 Q2260.72 1518.51 2264.54 1512.78 Q2268.39 1507.03 2275.65 1507.03 Z" fill="#000000" fill-rule="nonzero" fill-opacity="1" /><path clip-path="url(#clip530)" d="M2313.35 1511.66 Q2308.84 1511.66 2306.55 1516.11 Q2304.3 1520.54 2304.3 1529.45 Q2304.3 1538.33 2306.55 1542.79 Q2308.84 1547.22 2313.35 1547.22 Q2317.9 1547.22 2320.15 1542.79 Q2322.44 1538.33 2322.44 1529.45 Q2322.44 1520.54 2320.15 1516.11 Q2317.9 1511.66 2313.35 1511.66 M2313.35 1507.03 Q2320.62 1507.03 2324.44 1512.78 Q2328.29 1518.51 2328.29 1529.45 Q2328.29 1540.36 2324.44 1546.12 Q2320.62 1551.85 2313.35 1551.85 Q2306.09 1551.85 2302.24 1546.12 Q2298.42 1540.36 2298.42 1529.45 Q2298.42 1518.51 2302.24 1512.78 Q2306.09 1507.03 2313.35 1507.03 Z" fill="#000000" fill-rule="nonzero" fill-opacity="1" /><path clip-path="url(#clip530)" d="M2351.06 1511.66 Q2346.54 1511.66 2344.26 1516.11 Q2342 1520.54 2342 1529.45 Q2342 1538.33 2344.26 1542.79 Q2346.54 1547.22 2351.06 1547.22 Q2355.6 1547.22 2357.86 1542.79 Q2360.14 1538.33 2360.14 1529.45 Q2360.14 1520.54 2357.86 1516.11 Q2355.6 1511.66 2351.06 1511.66 M2351.06 1507.03 Q2358.32 1507.03 2362.14 1512.78 Q2365.99 1518.51 2365.99 1529.45 Q2365.99 1540.36 2362.14 1546.12 Q2358.32 1551.85 2351.06 1551.85 Q2343.79 1551.85 2339.95 1546.12 Q2336.13 1540.36 2336.13 1529.45 Q2336.13 1518.51 2339.95 1512.78 Q2343.79 1507.03 2351.06 1507.03 Z" fill="#000000" fill-rule="nonzero" fill-opacity="1" /><polyline clip-path="url(#clip532)" style="stroke:#000000; stroke-linecap:round; stroke-linejoin:round; stroke-width:2; stroke-opacity:0.1; fill:none" points="340.508,1214.2 2352.76,1214.2 "/>
<polyline clip-path="url(#clip532)" style="stroke:#000000; stroke-linecap:round; stroke-linejoin:round; stroke-width:2; stroke-opacity:0.1; fill:none" points="340.508,911.977 2352.76,911.977 "/>
<polyline clip-path="url(#clip532)" style="stroke:#000000; stroke-linecap:round; stroke-linejoin:round; stroke-width:2; stroke-opacity:0.1; fill:none" points="340.508,609.751 2352.76,609.751 "/>
<polyline clip-path="url(#clip532)" style="stroke:#000000; stroke-linecap:round; stroke-linejoin:round; stroke-width:2; stroke-opacity:0.1; fill:none" points="340.508,307.524 2352.76,307.524 "/>
<polyline clip-path="url(#clip530)" style="stroke:#000000; stroke-linecap:round; stroke-linejoin:round; stroke-width:4; stroke-opacity:1; fill:none" points="340.508,1477.81 340.508,47.2441 "/>
<polyline clip-path="url(#clip530)" style="stroke:#000000; stroke-linecap:round; stroke-linejoin:round; stroke-width:4; stroke-opacity:1; fill:none" points="340.508,1214.2 359.406,1214.2 "/>
<polyline clip-path="url(#clip530)" style="stroke:#000000; stroke-linecap:round; stroke-linejoin:round; stroke-width:4; stroke-opacity:1; fill:none" points="340.508,911.977 359.406,911.977 "/>
<polyline clip-path="url(#clip530)" style="stroke:#000000; stroke-linecap:round; stroke-linejoin:round; stroke-width:4; stroke-opacity:1; fill:none" points="340.508,609.751 359.406,609.751 "/>
<polyline clip-path="url(#clip530)" style="stroke:#000000; stroke-linecap:round; stroke-linejoin:round; stroke-width:4; stroke-opacity:1; fill:none" points="340.508,307.524 359.406,307.524 "/>
<path clip-path="url(#clip530)" d="M114.26 1214.77 L151.355 1214.77 L151.355 1219.69 L114.26 1219.69 L114.26 1214.77 Z" fill="#000000" fill-rule="nonzero" fill-opacity="1" /><path clip-path="url(#clip530)" d="M169.005 1230.88 L189.404 1230.88 L189.404 1235.8 L161.974 1235.8 L161.974 1230.88 Q165.302 1227.44 171.031 1221.65 Q176.789 1215.84 178.264 1214.16 Q181.071 1211.01 182.171 1208.84 Q183.299 1206.64 183.299 1204.53 Q183.299 1201.08 180.869 1198.91 Q178.467 1196.74 174.59 1196.74 Q171.841 1196.74 168.774 1197.7 Q165.736 1198.65 162.263 1200.59 L162.263 1194.69 Q165.793 1193.27 168.861 1192.55 Q171.928 1191.82 174.474 1191.82 Q181.187 1191.82 185.18 1195.18 Q189.173 1198.54 189.173 1204.15 Q189.173 1206.81 188.16 1209.21 Q187.176 1211.59 184.543 1214.83 Q183.82 1215.67 179.943 1219.69 Q176.065 1223.68 169.005 1230.88 Z" fill="#000000" fill-rule="nonzero" fill-opacity="1" /><path clip-path="url(#clip530)" d="M214.173 1196.45 Q209.659 1196.45 207.373 1200.91 Q205.116 1205.34 205.116 1214.25 Q205.116 1223.13 207.373 1227.59 Q209.659 1232.01 214.173 1232.01 Q218.716 1232.01 220.973 1227.59 Q223.258 1223.13 223.258 1214.25 Q223.258 1205.34 220.973 1200.91 Q218.716 1196.45 214.173 1196.45 M214.173 1191.82 Q221.436 1191.82 225.255 1197.58 Q229.103 1203.31 229.103 1214.25 Q229.103 1225.16 225.255 1230.91 Q221.436 1236.64 214.173 1236.64 Q206.91 1236.64 203.062 1230.91 Q199.242 1225.16 199.242 1214.25 Q199.242 1203.31 203.062 1197.58 Q206.91 1191.82 214.173 1191.82 Z" fill="#000000" fill-rule="nonzero" fill-opacity="1" /><path clip-path="url(#clip530)" d="M251.875 1196.45 Q247.361 1196.45 245.075 1200.91 Q242.818 1205.34 242.818 1214.25 Q242.818 1223.13 245.075 1227.59 Q247.361 1232.01 251.875 1232.01 Q256.418 1232.01 258.675 1227.59 Q260.961 1223.13 260.961 1214.25 Q260.961 1205.34 258.675 1200.91 Q256.418 1196.45 251.875 1196.45 M251.875 1191.82 Q259.138 1191.82 262.957 1197.58 Q266.806 1203.31 266.806 1214.25 Q266.806 1225.16 262.957 1230.91 Q259.138 1236.64 251.875 1236.64 Q244.612 1236.64 240.764 1230.91 Q236.945 1225.16 236.945 1214.25 Q236.945 1203.31 240.764 1197.58 Q244.612 1191.82 251.875 1191.82 Z" fill="#000000" fill-rule="nonzero" fill-opacity="1" /><path clip-path="url(#clip530)" d="M289.578 1196.45 Q285.064 1196.45 282.778 1200.91 Q280.521 1205.34 280.521 1214.25 Q280.521 1223.13 282.778 1227.59 Q285.064 1232.01 289.578 1232.01 Q294.12 1232.01 296.377 1227.59 Q298.663 1223.13 298.663 1214.25 Q298.663 1205.34 296.377 1200.91 Q294.12 1196.45 289.578 1196.45 M289.578 1191.82 Q296.84 1191.82 300.66 1197.58 Q304.508 1203.31 304.508 1214.25 Q304.508 1225.16 300.66 1230.91 Q296.84 1236.64 289.578 1236.64 Q282.315 1236.64 278.466 1230.91 Q274.647 1225.16 274.647 1214.25 Q274.647 1203.31 278.466 1197.58 Q282.315 1191.82 289.578 1191.82 Z" fill="#000000" fill-rule="nonzero" fill-opacity="1" /><path clip-path="url(#clip530)" d="M114.26 912.541 L151.355 912.541 L151.355 917.46 L114.26 917.46 L114.26 912.541 Z" fill="#000000" fill-rule="nonzero" fill-opacity="1" /><path clip-path="url(#clip530)" d="M164.983 928.658 L174.532 928.658 L174.532 895.701 L164.144 897.785 L164.144 892.461 L174.474 890.377 L180.319 890.377 L180.319 928.658 L189.867 928.658 L189.867 933.577 L164.983 933.577 L164.983 928.658 Z" fill="#000000" fill-rule="nonzero" fill-opacity="1" /><path clip-path="url(#clip530)" d="M214.173 894.226 Q209.659 894.226 207.373 898.682 Q205.116 903.109 205.116 912.021 Q205.116 920.904 207.373 925.36 Q209.659 929.787 214.173 929.787 Q218.716 929.787 220.973 925.36 Q223.258 920.904 223.258 912.021 Q223.258 903.109 220.973 898.682 Q218.716 894.226 214.173 894.226 M214.173 889.596 Q221.436 889.596 225.255 895.354 Q229.103 901.083 229.103 912.021 Q229.103 922.929 225.255 928.687 Q221.436 934.416 214.173 934.416 Q206.91 934.416 203.062 928.687 Q199.242 922.929 199.242 912.021 Q199.242 901.083 203.062 895.354 Q206.91 889.596 214.173 889.596 Z" fill="#000000" fill-rule="nonzero" fill-opacity="1" /><path clip-path="url(#clip530)" d="M251.875 894.226 Q247.361 894.226 245.075 898.682 Q242.818 903.109 242.818 912.021 Q242.818 920.904 245.075 925.36 Q247.361 929.787 251.875 929.787 Q256.418 929.787 258.675 925.36 Q260.961 920.904 260.961 912.021 Q260.961 903.109 258.675 898.682 Q256.418 894.226 251.875 894.226 M251.875 889.596 Q259.138 889.596 262.957 895.354 Q266.806 901.083 266.806 912.021 Q266.806 922.929 262.957 928.687 Q259.138 934.416 251.875 934.416 Q244.612 934.416 240.764 928.687 Q236.945 922.929 236.945 912.021 Q236.945 901.083 240.764 895.354 Q244.612 889.596 251.875 889.596 Z" fill="#000000" fill-rule="nonzero" fill-opacity="1" /><path clip-path="url(#clip530)" d="M289.578 894.226 Q285.064 894.226 282.778 898.682 Q280.521 903.109 280.521 912.021 Q280.521 920.904 282.778 925.36 Q285.064 929.787 289.578 929.787 Q294.12 929.787 296.377 925.36 Q298.663 920.904 298.663 912.021 Q298.663 903.109 296.377 898.682 Q294.12 894.226 289.578 894.226 M289.578 889.596 Q296.84 889.596 300.66 895.354 Q304.508 901.083 304.508 912.021 Q304.508 922.929 300.66 928.687 Q296.84 934.416 289.578 934.416 Q282.315 934.416 278.466 928.687 Q274.647 922.929 274.647 912.021 Q274.647 901.083 278.466 895.354 Q282.315 889.596 289.578 889.596 Z" fill="#000000" fill-rule="nonzero" fill-opacity="1" /><path clip-path="url(#clip530)" d="M289.578 591.999 Q285.064 591.999 282.778 596.455 Q280.521 600.882 280.521 609.794 Q280.521 618.677 282.778 623.133 Q285.064 627.56 289.578 627.56 Q294.12 627.56 296.377 623.133 Q298.663 618.677 298.663 609.794 Q298.663 600.882 296.377 596.455 Q294.12 591.999 289.578 591.999 M289.578 587.369 Q296.84 587.369 300.66 593.128 Q304.508 598.857 304.508 609.794 Q304.508 620.703 300.66 626.461 Q296.84 632.19 289.578 632.19 Q282.315 632.19 278.466 626.461 Q274.647 620.703 274.647 609.794 Q274.647 598.857 278.466 593.128 Q282.315 587.369 289.578 587.369 Z" fill="#000000" fill-rule="nonzero" fill-opacity="1" /><path clip-path="url(#clip530)" d="M164.983 324.205 L174.532 324.205 L174.532 291.248 L164.144 293.331 L164.144 288.007 L174.474 285.924 L180.319 285.924 L180.319 324.205 L189.867 324.205 L189.867 329.124 L164.983 329.124 L164.983 324.205 Z" fill="#000000" fill-rule="nonzero" fill-opacity="1" /><path clip-path="url(#clip530)" d="M214.173 289.772 Q209.659 289.772 207.373 294.228 Q205.116 298.656 205.116 307.568 Q205.116 316.451 207.373 320.907 Q209.659 325.334 214.173 325.334 Q218.716 325.334 220.973 320.907 Q223.258 316.451 223.258 307.568 Q223.258 298.656 220.973 294.228 Q218.716 289.772 214.173 289.772 M214.173 285.143 Q221.436 285.143 225.255 290.901 Q229.103 296.63 229.103 307.568 Q229.103 318.476 225.255 324.234 Q221.436 329.963 214.173 329.963 Q206.91 329.963 203.062 324.234 Q199.242 318.476 199.242 307.568 Q199.242 296.63 203.062 290.901 Q206.91 285.143 214.173 285.143 Z" fill="#000000" fill-rule="nonzero" fill-opacity="1" /><path clip-path="url(#clip530)" d="M251.875 289.772 Q247.361 289.772 245.075 294.228 Q242.818 298.656 242.818 307.568 Q242.818 316.451 245.075 320.907 Q247.361 325.334 251.875 325.334 Q256.418 325.334 258.675 320.907 Q260.961 316.451 260.961 307.568 Q260.961 298.656 258.675 294.228 Q256.418 289.772 251.875 289.772 M251.875 285.143 Q259.138 285.143 262.957 290.901 Q266.806 296.63 266.806 307.568 Q266.806 318.476 262.957 324.234 Q259.138 329.963 251.875 329.963 Q244.612 329.963 240.764 324.234 Q236.945 318.476 236.945 307.568 Q236.945 296.63 240.764 290.901 Q244.612 285.143 251.875 285.143 Z" fill="#000000" fill-rule="nonzero" fill-opacity="1" /><path clip-path="url(#clip530)" d="M289.578 289.772 Q285.064 289.772 282.778 294.228 Q280.521 298.656 280.521 307.568 Q280.521 316.451 282.778 320.907 Q285.064 325.334 289.578 325.334 Q294.12 325.334 296.377 320.907 Q298.663 316.451 298.663 307.568 Q298.663 298.656 296.377 294.228 Q294.12 289.772 289.578 289.772 M289.578 285.143 Q296.84 285.143 300.66 290.901 Q304.508 296.63 304.508 307.568 Q304.508 318.476 300.66 324.234 Q296.84 329.963 289.578 329.963 Q282.315 329.963 278.466 324.234 Q274.647 318.476 274.647 307.568 Q274.647 296.63 278.466 290.901 Q282.315 285.143 289.578 285.143 Z" fill="#000000" fill-rule="nonzero" fill-opacity="1" /><path clip-path="url(#clip530)" d="M21.7677 1285.39 L58.7206 1285.39 L58.7206 1277.62 Q58.7206 1267.79 54.2646 1263.24 Q49.8086 1258.65 40.1964 1258.65 Q30.6479 1258.65 26.2237 1263.24 Q21.7677 1267.79 21.7677 1277.62 L21.7677 1285.39 M16.4842 1291.82 L16.4842 1278.61 Q16.4842 1264.8 22.2451 1258.33 Q27.9743 1251.87 40.1964 1251.87 Q52.4822 1251.87 58.2432 1258.37 Q64.0042 1264.86 64.0042 1278.61 L64.0042 1291.82 L16.4842 1291.82 Z" fill="#000000" fill-rule="nonzero" fill-opacity="1" /><path clip-path="url(#clip530)" d="M28.3562 1241.88 L28.3562 1236.02 L64.0042 1236.02 L64.0042 1241.88 L28.3562 1241.88 M14.479 1241.88 L14.479 1236.02 L21.895 1236.02 L21.895 1241.88 L14.479 1241.88 Z" fill="#000000" fill-rule="nonzero" fill-opacity="1" /><path clip-path="url(#clip530)" d="M14.479 1205.72 L19.3487 1205.72 L19.3487 1211.32 Q19.3487 1214.48 20.6219 1215.72 Q21.895 1216.93 25.2052 1216.93 L28.3562 1216.93 L28.3562 1207.28 L32.9077 1207.28 L32.9077 1216.93 L64.0042 1216.93 L64.0042 1222.81 L32.9077 1222.81 L32.9077 1228.42 L28.3562 1228.42 L28.3562 1222.81 L25.8736 1222.81 Q19.9216 1222.81 17.2162 1220.05 Q14.479 1217.28 14.479 1211.26 L14.479 1205.72 Z" fill="#000000" fill-rule="nonzero" fill-opacity="1" /><path clip-path="url(#clip530)" d="M14.479 1182.77 L19.3487 1182.77 L19.3487 1188.38 Q19.3487 1191.53 20.6219 1192.77 Q21.895 1193.98 25.2052 1193.98 L28.3562 1193.98 L28.3562 1184.33 L32.9077 1184.33 L32.9077 1193.98 L64.0042 1193.98 L64.0042 1199.87 L32.9077 1199.87 L32.9077 1205.47 L28.3562 1205.47 L28.3562 1199.87 L25.8736 1199.87 Q19.9216 1199.87 17.2162 1197.1 Q14.479 1194.33 14.479 1188.31 L14.479 1182.77 Z" fill="#000000" fill-rule="nonzero" fill-opacity="1" /><path clip-path="url(#clip530)" d="M44.7161 1147.38 L47.5806 1147.38 L47.5806 1174.31 Q53.6281 1173.93 56.8109 1170.68 Q59.9619 1167.4 59.9619 1161.58 Q59.9619 1158.2 59.1344 1155.05 Q58.3069 1151.87 56.6518 1148.75 L62.1899 1148.75 Q63.5267 1151.9 64.227 1155.21 Q64.9272 1158.52 64.9272 1161.93 Q64.9272 1170.46 59.9619 1175.45 Q54.9967 1180.42 46.5303 1180.42 Q37.7774 1180.42 32.6531 1175.71 Q27.4968 1170.97 27.4968 1162.94 Q27.4968 1155.75 32.1438 1151.58 Q36.7589 1147.38 44.7161 1147.38 M42.9973 1153.24 Q38.1912 1153.3 35.3266 1155.94 Q32.4621 1158.55 32.4621 1162.88 Q32.4621 1167.78 35.2312 1170.74 Q38.0002 1173.67 43.0292 1174.12 L42.9973 1153.24 Z" fill="#000000" fill-rule="nonzero" fill-opacity="1" /><path clip-path="url(#clip530)" d="M33.8307 1117.11 Q33.2578 1118.1 33.0032 1119.28 Q32.7167 1120.42 32.7167 1121.82 Q32.7167 1126.79 35.9632 1129.46 Q39.1779 1132.1 45.2253 1132.1 L64.0042 1132.1 L64.0042 1137.99 L28.3562 1137.99 L28.3562 1132.1 L33.8944 1132.1 Q30.6479 1130.26 29.0883 1127.3 Q27.4968 1124.34 27.4968 1120.1 Q27.4968 1119.5 27.5923 1118.77 Q27.656 1118.03 27.8151 1117.14 L33.8307 1117.11 Z" fill="#000000" fill-rule="nonzero" fill-opacity="1" /><path clip-path="url(#clip530)" d="M44.7161 1081.91 L47.5806 1081.91 L47.5806 1108.84 Q53.6281 1108.45 56.8109 1105.21 Q59.9619 1101.93 59.9619 1096.1 Q59.9619 1092.73 59.1344 1089.58 Q58.3069 1086.4 56.6518 1083.28 L62.1899 1083.28 Q63.5267 1086.43 64.227 1089.74 Q64.9272 1093.05 64.9272 1096.46 Q64.9272 1104.99 59.9619 1109.98 Q54.9967 1114.95 46.5303 1114.95 Q37.7774 1114.95 32.6531 1110.24 Q27.4968 1105.49 27.4968 1097.47 Q27.4968 1090.28 32.1438 1086.11 Q36.7589 1081.91 44.7161 1081.91 M42.9973 1087.77 Q38.1912 1087.83 35.3266 1090.47 Q32.4621 1093.08 32.4621 1097.41 Q32.4621 1102.31 35.2312 1105.27 Q38.0002 1108.2 43.0292 1108.65 L42.9973 1087.77 Z" fill="#000000" fill-rule="nonzero" fill-opacity="1" /><path clip-path="url(#clip530)" d="M42.4881 1042.66 L64.0042 1042.66 L64.0042 1048.52 L42.679 1048.52 Q37.6183 1048.52 35.1038 1050.49 Q32.5894 1052.47 32.5894 1056.41 Q32.5894 1061.16 35.6131 1063.89 Q38.6368 1066.63 43.8567 1066.63 L64.0042 1066.63 L64.0042 1072.52 L28.3562 1072.52 L28.3562 1066.63 L33.8944 1066.63 Q30.6797 1064.53 29.0883 1061.7 Q27.4968 1058.83 27.4968 1055.11 Q27.4968 1048.97 31.3163 1045.82 Q35.1038 1042.66 42.4881 1042.66 Z" fill="#000000" fill-rule="nonzero" fill-opacity="1" /><path clip-path="url(#clip530)" d="M29.7248 1005.33 L35.1993 1005.33 Q33.8307 1007.81 33.1623 1010.33 Q32.4621 1012.81 32.4621 1015.36 Q32.4621 1021.05 36.0905 1024.2 Q39.6872 1027.36 46.212 1027.36 Q52.7369 1027.36 56.3653 1024.2 Q59.9619 1021.05 59.9619 1015.36 Q59.9619 1012.81 59.2935 1010.33 Q58.5933 1007.81 57.2247 1005.33 L62.6355 1005.33 Q63.7814 1007.78 64.3543 1010.42 Q64.9272 1013.03 64.9272 1015.99 Q64.9272 1024.05 59.8664 1028.79 Q54.8057 1033.53 46.212 1033.53 Q37.491 1033.53 32.4939 1028.76 Q27.4968 1023.95 27.4968 1015.61 Q27.4968 1012.91 28.0697 1010.33 Q28.6108 1007.75 29.7248 1005.33 Z" fill="#000000" fill-rule="nonzero" fill-opacity="1" /><path clip-path="url(#clip530)" d="M44.7161 964.653 L47.5806 964.653 L47.5806 991.58 Q53.6281 991.198 56.8109 987.952 Q59.9619 984.673 59.9619 978.849 Q59.9619 975.475 59.1344 972.324 Q58.3069 969.141 56.6518 966.022 L62.1899 966.022 Q63.5267 969.173 64.227 972.483 Q64.9272 975.793 64.9272 979.199 Q64.9272 987.729 59.9619 992.726 Q54.9967 997.691 46.5303 997.691 Q37.7774 997.691 32.6531 992.98 Q27.4968 988.238 27.4968 980.217 Q27.4968 973.024 32.1438 968.854 Q36.7589 964.653 44.7161 964.653 M42.9973 970.51 Q38.1912 970.573 35.3266 973.215 Q32.4621 975.825 32.4621 980.154 Q32.4621 985.055 35.2312 988.015 Q38.0002 990.943 43.0292 991.389 L42.9973 970.51 Z" fill="#000000" fill-rule="nonzero" fill-opacity="1" /><path clip-path="url(#clip530)" d="M28.3562 934.32 L28.3562 928.464 L64.0042 928.464 L64.0042 934.32 L28.3562 934.32 M14.479 934.32 L14.479 928.464 L21.895 928.464 L21.895 934.32 L14.479 934.32 Z" fill="#000000" fill-rule="nonzero" fill-opacity="1" /><path clip-path="url(#clip530)" d="M42.4881 886.578 L64.0042 886.578 L64.0042 892.434 L42.679 892.434 Q37.6183 892.434 35.1038 894.408 Q32.5894 896.381 32.5894 900.328 Q32.5894 905.07 35.6131 907.807 Q38.6368 910.545 43.8567 910.545 L64.0042 910.545 L64.0042 916.433 L28.3562 916.433 L28.3562 910.545 L33.8944 910.545 Q30.6797 908.444 29.0883 905.611 Q27.4968 902.747 27.4968 899.023 Q27.4968 892.88 31.3163 889.729 Q35.1038 886.578 42.4881 886.578 Z" fill="#000000" fill-rule="nonzero" fill-opacity="1" /><path clip-path="url(#clip530)" d="M20.8447 834.634 Q20.8447 841.636 26.0645 845.774 Q31.2844 849.879 40.2919 849.879 Q49.2675 849.879 54.4874 845.774 Q59.7073 841.636 59.7073 834.634 Q59.7073 827.631 54.4874 823.557 Q49.2675 819.451 40.2919 819.451 Q31.2844 819.451 26.0645 823.557 Q20.8447 827.631 20.8447 834.634 M15.6248 834.634 Q15.6248 824.639 22.3406 818.656 Q29.0246 812.672 40.2919 812.672 Q51.5274 812.672 58.2432 818.656 Q64.9272 824.639 64.9272 834.634 Q64.9272 844.66 58.2432 850.675 Q51.5592 856.659 40.2919 856.659 Q29.0246 856.659 22.3406 850.675 Q15.6248 844.66 15.6248 834.634 Z" fill="#000000" fill-rule="nonzero" fill-opacity="1" /><path clip-path="url(#clip530)" d="M29.7248 777.215 L35.1993 777.215 Q33.8307 779.697 33.1623 782.212 Q32.4621 784.695 32.4621 787.241 Q32.4621 792.938 36.0905 796.089 Q39.6872 799.24 46.212 799.24 Q52.7369 799.24 56.3653 796.089 Q59.9619 792.938 59.9619 787.241 Q59.9619 784.695 59.2935 782.212 Q58.5933 779.697 57.2247 777.215 L62.6355 777.215 Q63.7814 779.666 64.3543 782.307 Q64.9272 784.917 64.9272 787.877 Q64.9272 795.93 59.8664 800.672 Q54.8057 805.415 46.212 805.415 Q37.491 805.415 32.4939 800.641 Q27.4968 795.835 27.4968 787.495 Q27.4968 784.79 28.0697 782.212 Q28.6108 779.634 29.7248 777.215 Z" fill="#000000" fill-rule="nonzero" fill-opacity="1" /><path clip-path="url(#clip530)" d="M29.7248 741.376 L35.1993 741.376 Q33.8307 743.859 33.1623 746.373 Q32.4621 748.856 32.4621 751.402 Q32.4621 757.099 36.0905 760.25 Q39.6872 763.401 46.212 763.401 Q52.7369 763.401 56.3653 760.25 Q59.9619 757.099 59.9619 751.402 Q59.9619 748.856 59.2935 746.373 Q58.5933 743.859 57.2247 741.376 L62.6355 741.376 Q63.7814 743.827 64.3543 746.468 Q64.9272 749.078 64.9272 752.038 Q64.9272 760.091 59.8664 764.834 Q54.8057 769.576 46.212 769.576 Q37.491 769.576 32.4939 764.802 Q27.4968 759.996 27.4968 751.657 Q27.4968 748.951 28.0697 746.373 Q28.6108 743.795 29.7248 741.376 Z" fill="#000000" fill-rule="nonzero" fill-opacity="1" /><path clip-path="url(#clip530)" d="M49.9359 731.796 L28.3562 731.796 L28.3562 725.939 L49.7131 725.939 Q54.7739 725.939 57.3202 723.966 Q59.8346 721.992 59.8346 718.046 Q59.8346 713.303 56.8109 710.566 Q53.7872 707.797 48.5673 707.797 L28.3562 707.797 L28.3562 701.94 L64.0042 701.94 L64.0042 707.797 L58.5296 707.797 Q61.7762 709.929 63.3676 712.762 Q64.9272 715.563 64.9272 719.287 Q64.9272 725.43 61.1078 728.613 Q57.2883 731.796 49.9359 731.796 M27.4968 717.059 L27.4968 717.059 Z" fill="#000000" fill-rule="nonzero" fill-opacity="1" /><path clip-path="url(#clip530)" d="M58.657 684.212 L77.5631 684.212 L77.5631 690.1 L28.3562 690.1 L28.3562 684.212 L33.7671 684.212 Q30.5842 682.366 29.0564 679.565 Q27.4968 676.732 27.4968 672.817 Q27.4968 666.324 32.6531 662.282 Q37.8093 658.208 46.212 658.208 Q54.6147 658.208 59.771 662.282 Q64.9272 666.324 64.9272 672.817 Q64.9272 676.732 63.3994 679.565 Q61.8398 682.366 58.657 684.212 M46.212 664.287 Q39.7508 664.287 36.0905 666.961 Q32.3984 669.603 32.3984 674.25 Q32.3984 678.897 36.0905 681.57 Q39.7508 684.212 46.212 684.212 Q52.6732 684.212 56.3653 681.57 Q60.0256 678.897 60.0256 674.25 Q60.0256 669.603 56.3653 666.961 Q52.6732 664.287 46.212 664.287 Z" fill="#000000" fill-rule="nonzero" fill-opacity="1" /><path clip-path="url(#clip530)" d="M28.3562 648.5 L28.3562 642.644 L64.0042 642.644 L64.0042 648.5 L28.3562 648.5 M14.479 648.5 L14.479 642.644 L21.895 642.644 L21.895 648.5 L14.479 648.5 Z" fill="#000000" fill-rule="nonzero" fill-opacity="1" /><path clip-path="url(#clip530)" d="M44.7161 599.898 L47.5806 599.898 L47.5806 626.825 Q53.6281 626.443 56.8109 623.197 Q59.9619 619.918 59.9619 614.094 Q59.9619 610.72 59.1344 607.569 Q58.3069 604.386 56.6518 601.267 L62.1899 601.267 Q63.5267 604.418 64.227 607.728 Q64.9272 611.038 64.9272 614.444 Q64.9272 622.974 59.9619 627.971 Q54.9967 632.936 46.5303 632.936 Q37.7774 632.936 32.6531 628.225 Q27.4968 623.483 27.4968 615.462 Q27.4968 608.269 32.1438 604.099 Q36.7589 599.898 44.7161 599.898 M42.9973 605.755 Q38.1912 605.818 35.3266 608.46 Q32.4621 611.07 32.4621 615.399 Q32.4621 620.3 35.2312 623.26 Q38.0002 626.188 43.0292 626.634 L42.9973 605.755 Z" fill="#000000" fill-rule="nonzero" fill-opacity="1" /><path clip-path="url(#clip530)" d="M33.7671 566.828 L14.479 566.828 L14.479 560.972 L64.0042 560.972 L64.0042 566.828 L58.657 566.828 Q61.8398 568.674 63.3994 571.507 Q64.9272 574.308 64.9272 578.255 Q64.9272 584.716 59.771 588.79 Q54.6147 592.832 46.212 592.832 Q37.8093 592.832 32.6531 588.79 Q27.4968 584.716 27.4968 578.255 Q27.4968 574.308 29.0564 571.507 Q30.5842 568.674 33.7671 566.828 M46.212 586.785 Q52.6732 586.785 56.3653 584.143 Q60.0256 581.469 60.0256 576.822 Q60.0256 572.175 56.3653 569.502 Q52.6732 566.828 46.212 566.828 Q39.7508 566.828 36.0905 569.502 Q32.3984 572.175 32.3984 576.822 Q32.3984 581.469 36.0905 584.143 Q39.7508 586.785 46.212 586.785 Z" fill="#000000" fill-rule="nonzero" fill-opacity="1" /><path clip-path="url(#clip530)" d="M43.5384 551.869 L43.5384 534.713 L48.7583 534.713 L48.7583 551.869 L43.5384 551.869 Z" fill="#000000" fill-rule="nonzero" fill-opacity="1" /><path clip-path="url(#clip530)" d="M16.4842 525.133 L16.4842 495.087 L21.895 495.087 L21.895 518.704 L35.9632 518.704 L35.9632 496.073 L41.3741 496.073 L41.3741 518.704 L58.5933 518.704 L58.5933 494.514 L64.0042 494.514 L64.0042 525.133 L16.4842 525.133 Z" fill="#000000" fill-rule="nonzero" fill-opacity="1" /><path clip-path="url(#clip530)" d="M28.3562 454.569 L45.7028 467.46 L64.0042 453.901 L64.0042 460.807 L49.9996 471.184 L64.0042 481.56 L64.0042 488.466 L45.3526 474.621 L28.3562 487.289 L28.3562 480.382 L41.0558 470.929 L28.3562 461.476 L28.3562 454.569 Z" fill="#000000" fill-rule="nonzero" fill-opacity="1" /><path clip-path="url(#clip530)" d="M58.657 439.96 L77.5631 439.96 L77.5631 445.848 L28.3562 445.848 L28.3562 439.96 L33.7671 439.96 Q30.5842 438.114 29.0564 435.313 Q27.4968 432.48 27.4968 428.565 Q27.4968 422.072 32.6531 418.03 Q37.8093 413.956 46.212 413.956 Q54.6147 413.956 59.771 418.03 Q64.9272 422.072 64.9272 428.565 Q64.9272 432.48 63.3994 435.313 Q61.8398 438.114 58.657 439.96 M46.212 420.035 Q39.7508 420.035 36.0905 422.709 Q32.3984 425.35 32.3984 429.997 Q32.3984 434.644 36.0905 437.318 Q39.7508 439.96 46.212 439.96 Q52.6732 439.96 56.3653 437.318 Q60.0256 434.644 60.0256 429.997 Q60.0256 425.35 56.3653 422.709 Q52.6732 420.035 46.212 420.035 Z" fill="#000000" fill-rule="nonzero" fill-opacity="1" /><path clip-path="url(#clip530)" d="M32.4621 390.435 Q32.4621 395.145 36.1542 397.882 Q39.8145 400.62 46.212 400.62 Q52.6095 400.62 56.3017 397.914 Q59.9619 395.177 59.9619 390.435 Q59.9619 385.756 56.2698 383.018 Q52.5777 380.281 46.212 380.281 Q39.8781 380.281 36.186 383.018 Q32.4621 385.756 32.4621 390.435 M27.4968 390.435 Q27.4968 382.796 32.4621 378.435 Q37.4273 374.075 46.212 374.075 Q54.9649 374.075 59.9619 378.435 Q64.9272 382.796 64.9272 390.435 Q64.9272 398.105 59.9619 402.466 Q54.9649 406.794 46.212 406.794 Q37.4273 406.794 32.4621 402.466 Q27.4968 398.105 27.4968 390.435 Z" fill="#000000" fill-rule="nonzero" fill-opacity="1" /><path clip-path="url(#clip530)" d="M29.4065 341.641 L34.9447 341.641 Q33.6716 344.124 33.035 346.798 Q32.3984 349.471 32.3984 352.336 Q32.3984 356.696 33.7352 358.892 Q35.072 361.057 37.7456 361.057 Q39.7826 361.057 40.9603 359.497 Q42.1061 357.938 43.1565 353.227 L43.6021 351.222 Q44.9389 344.983 47.3897 342.373 Q49.8086 339.732 54.1691 339.732 Q59.1344 339.732 62.0308 343.678 Q64.9272 347.593 64.9272 354.468 Q64.9272 357.333 64.3543 360.452 Q63.8132 363.539 62.6992 366.977 L56.6518 366.977 Q58.3387 363.73 59.198 360.579 Q60.0256 357.428 60.0256 354.341 Q60.0256 350.203 58.6251 347.975 Q57.1929 345.747 54.6147 345.747 Q52.2276 345.747 50.9545 347.371 Q49.6813 348.962 48.5037 354.405 L48.0262 356.442 Q46.8804 361.884 44.5251 364.303 Q42.138 366.722 38.0002 366.722 Q32.9713 366.722 30.2341 363.157 Q27.4968 359.593 27.4968 353.036 Q27.4968 349.789 27.9743 346.925 Q28.4517 344.06 29.4065 341.641 Z" fill="#000000" fill-rule="nonzero" fill-opacity="1" /><path clip-path="url(#clip530)" d="M49.9359 331.011 L28.3562 331.011 L28.3562 325.154 L49.7131 325.154 Q54.7739 325.154 57.3202 323.181 Q59.8346 321.207 59.8346 317.261 Q59.8346 312.518 56.8109 309.781 Q53.7872 307.012 48.5673 307.012 L28.3562 307.012 L28.3562 301.155 L64.0042 301.155 L64.0042 307.012 L58.5296 307.012 Q61.7762 309.144 63.3676 311.977 Q64.9272 314.778 64.9272 318.502 Q64.9272 324.645 61.1078 327.828 Q57.2883 331.011 49.9359 331.011 M27.4968 316.274 L27.4968 316.274 Z" fill="#000000" fill-rule="nonzero" fill-opacity="1" /><path clip-path="url(#clip530)" d="M33.8307 268.436 Q33.2578 269.422 33.0032 270.6 Q32.7167 271.746 32.7167 273.146 Q32.7167 278.112 35.9632 280.785 Q39.1779 283.427 45.2253 283.427 L64.0042 283.427 L64.0042 289.315 L28.3562 289.315 L28.3562 283.427 L33.8944 283.427 Q30.6479 281.581 29.0883 278.621 Q27.4968 275.661 27.4968 271.428 Q27.4968 270.823 27.5923 270.091 Q27.656 269.359 27.8151 268.468 L33.8307 268.436 Z" fill="#000000" fill-rule="nonzero" fill-opacity="1" /><path clip-path="url(#clip530)" d="M44.7161 233.233 L47.5806 233.233 L47.5806 260.16 Q53.6281 259.778 56.8109 256.532 Q59.9619 253.254 59.9619 247.429 Q59.9619 244.055 59.1344 240.904 Q58.3069 237.721 56.6518 234.602 L62.1899 234.602 Q63.5267 237.753 64.227 241.063 Q64.9272 244.373 64.9272 247.779 Q64.9272 256.309 59.9619 261.306 Q54.9967 266.271 46.5303 266.271 Q37.7774 266.271 32.6531 261.561 Q27.4968 256.818 27.4968 248.798 Q27.4968 241.604 32.1438 237.435 Q36.7589 233.233 44.7161 233.233 M42.9973 239.09 Q38.1912 239.153 35.3266 241.795 Q32.4621 244.405 32.4621 248.734 Q32.4621 253.635 35.2312 256.596 Q38.0002 259.524 43.0292 259.969 L42.9973 239.09 Z" fill="#000000" fill-rule="nonzero" fill-opacity="1" /><polyline clip-path="url(#clip532)" style="stroke:#ffa500; stroke-linecap:round; stroke-linejoin:round; stroke-width:10; stroke-opacity:1; fill:none" points="397.458,627.119 683.188,659.997 850.329,692.149 968.918,729.004 1060.9,762.799 1136.06,795.112 1199.6,830.872 1254.65,863.66 1303.2,894.058 1346.63,927.64 1385.92,955.881 1421.79,982.613 1454.78,1008.03 1485.33,1033.11 1513.77,1060.76 1540.38,1083.35 1565.37,1105.41 1588.93,1126.6 1611.22,1146.97 1632.36,1168.65 1652.47,1191.57 1671.65,1210.75 1689.97,1229.27 1707.52,1247.4 1724.35,1265.14 1740.51,1282.18 1756.07,1295.07 1771.06,1302.5 1785.53,1300.37 1799.5,1292.7 1813.02,1280.32 1826.11,1263.42 1838.79,1242.54 1851.1,1218.29 1863.05,1191.2 1874.66,1162.94 1885.95,1130.87 1896.95,1097.74 1907.65,1066.47 1918.09,1036.75 1928.27,1008.67 1938.2,981.998 1947.9,956.839 1957.38,932.824 1966.64,910.614 1975.7,890.034 1984.57,869.696 1993.25,849.952 2001.75,831.131 2010.08,813.534 2018.24,796.581 2026.24,780.299 2034.1,764.679 2041.8,749.823 2049.36,735.598 2056.79,722.331 2064.09,709.756 2071.26,697.649 2078.3,685.782 2085.23,674.518 2092.05,663.649 2098.75,653.222 2105.34,643.398 2111.84,633.916 2118.23,624.837 2124.52,616.142 2130.72,607.808 2136.83,599.895 2142.85,592.406 2148.78,585.373 2154.62,578.518 2160.39,571.821 2166.08,565.437 2171.68,559.215 2177.22,553.285 2182.68,547.668 2188.07,542.376 2193.38,537.239 2198.64,532.295 2203.82,527.567 2208.94,523.054 2214,518.854 2219,514.807 2223.93,511.055 2228.81,507.511 2233.63,503.993 2238.4,500.626 2243.11,497.419 2247.77,494.485 2252.37,491.643 2256.93,488.865 2261.43,486.338 2265.89,483.82 2270.3,481.65 2274.66,479.537 2278.98,477.462 2283.25,475.506 2287.48,473.667 2291.66,472.034 2295.81,470.53 "/>
<path clip-path="url(#clip532)" d="M397.458 664.466 L683.188 713.013 L850.329 755.882 L968.918 800.732 L1060.9 841.237 L1136.06 879.377 L1199.6 920.103 L1254.65 957.234 L1303.2 992.022 L1346.63 1029.25 L1385.92 1060.76 L1421.79 1090.59 L1454.78 1118.95 L1485.33 1146.47 L1513.77 1175.92 L1540.38 1200.37 L1565.37 1224.13 L1588.93 1247.39 L1611.22 1269.67 L1632.36 1292.79 L1652.47 1317.38 L1671.65 1337.42 L1689.97 1357.47 L1707.52 1377.19 L1724.35 1396.2 L1740.51 1414.8 L1756.07 1428.97 L1771.06 1437.32 L1785.53 1436.75 L1799.5 1430.34 L1813.02 1418.89 L1826.11 1403.04 L1838.79 1383.87 L1851.1 1361.22 L1863.05 1334.47 L1874.66 1307.4 L1885.95 1276.86 L1896.95 1243.73 L1907.65 1212.91 L1918.09 1184.57 L1928.27 1157.53 L1938.2 1131.41 L1947.9 1106.73 L1957.38 1083.43 L1966.64 1061.9 L1975.7 1042.2 L1984.57 1022.38 L1993.25 1003.09 L2001.75 984.676 L2010.08 967.137 L2018.24 950.422 L2026.24 934.486 L2034.1 919.309 L2041.8 904.909 L2049.36 891.165 L2056.79 878.427 L2064.09 866.631 L2071.26 855.249 L2078.3 844.157 L2085.23 833.296 L2092.05 823.038 L2098.75 813.228 L2105.34 803.846 L2111.84 794.871 L2118.23 786.286 L2124.52 778.073 L2130.72 770.215 L2136.83 762.757 L2142.85 755.866 L2148.78 749.043 L2154.62 742.642 L2160.39 736.388 L2166.08 730.414 L2171.68 724.706 L2177.22 719.255 L2182.68 714.051 L2188.07 709.083 L2193.38 704.342 L2198.64 699.819 L2203.82 695.507 L2208.94 691.639 L2214 687.573 L2219 683.744 L2223.93 680.166 L2228.81 676.755 L2233.63 673.47 L2238.4 670.334 L2243.11 667.354 L2247.77 664.526 L2252.37 661.845 L2256.93 659.304 L2261.43 656.901 L2265.89 654.639 L2270.3 652.511 L2274.66 650.507 L2278.98 648.625 L2283.25 646.86 L2287.48 645.209 L2291.66 643.635 L2295.81 642.133 L2295.81 87.7317 L2291.66 89.2283 L2287.48 90.9888 L2283.25 93.0224 L2278.98 95.171 L2274.66 97.4383 L2270.3 99.8283 L2265.89 102.345 L2261.43 104.993 L2256.93 107.777 L2252.37 110.701 L2247.77 113.77 L2243.11 116.989 L2238.4 120.364 L2233.63 123.9 L2228.81 127.589 L2223.93 131.41 L2219 135.402 L2214 139.841 L2208.94 144.655 L2203.82 149.671 L2198.64 155.008 L2193.38 160.608 L2188.07 166.438 L2182.68 172.506 L2177.22 178.823 L2171.68 185.399 L2166.08 192.245 L2160.39 199.371 L2154.62 206.79 L2148.78 214.258 L2142.85 221.935 L2136.83 230.116 L2130.72 239.009 L2124.52 248.262 L2118.23 257.891 L2111.84 267.914 L2105.34 278.35 L2098.75 289.219 L2092.05 300.54 L2085.23 312.337 L2078.3 324.633 L2071.26 337.454 L2064.09 350.466 L2056.79 363.924 L2049.36 378.594 L2041.8 394.197 L2034.1 410.478 L2026.24 427.548 L2018.24 445.417 L2010.08 464.096 L2001.75 483.548 L1993.25 504.008 L1984.57 525.349 L1975.7 547.227 L1966.64 569.539 L1957.38 593.71 L1947.9 619.764 L1938.2 647.124 L1928.27 675.883 L1918.09 706.14 L1907.65 738.007 L1896.95 771.607 L1885.95 807.123 L1874.66 841.521 L1863.05 871.944 L1851.1 900.201 L1838.79 924.089 L1826.11 948.175 L1813.02 968.064 L1799.5 983.756 L1785.53 994.484 L1771.06 999.233 L1756.07 993.197 L1740.51 983.829 L1724.35 971.16 L1707.52 957.955 L1689.97 944.414 L1671.65 930.515 L1652.47 916.23 L1632.36 898.345 L1611.22 882.19 L1588.93 867.822 L1565.37 852.964 L1540.38 837.571 L1513.77 821.587 L1485.33 800.884 L1454.78 783.967 L1421.79 767.243 L1385.92 749.656 L1346.63 731.077 L1303.2 708.146 L1254.65 690.245 L1199.6 670.936 L1136.06 649.878 L1060.9 635.323 L968.918 622.152 L850.329 609.751 L683.188 609.751 L397.458 609.751  Z" fill="#ffa500" fill-rule="evenodd" fill-opacity="0.35"/>
<polyline clip-path="url(#clip532)" style="stroke:#ffa500; stroke-linecap:round; stroke-linejoin:round; stroke-width:4; stroke-opacity:0.35; fill:none" points="397.458,664.466 683.188,713.013 850.329,755.882 968.918,800.732 1060.9,841.237 1136.06,879.377 1199.6,920.103 1254.65,957.234 1303.2,992.022 1346.63,1029.25 1385.92,1060.76 1421.79,1090.59 1454.78,1118.95 1485.33,1146.47 1513.77,1175.92 1540.38,1200.37 1565.37,1224.13 1588.93,1247.39 1611.22,1269.67 1632.36,1292.79 1652.47,1317.38 1671.65,1337.42 1689.97,1357.47 1707.52,1377.19 1724.35,1396.2 1740.51,1414.8 1756.07,1428.97 1771.06,1437.32 1785.53,1436.75 1799.5,1430.34 1813.02,1418.89 1826.11,1403.04 1838.79,1383.87 1851.1,1361.22 1863.05,1334.47 1874.66,1307.4 1885.95,1276.86 1896.95,1243.73 1907.65,1212.91 1918.09,1184.57 1928.27,1157.53 1938.2,1131.41 1947.9,1106.73 1957.38,1083.43 1966.64,1061.9 1975.7,1042.2 1984.57,1022.38 1993.25,1003.09 2001.75,984.676 2010.08,967.137 2018.24,950.422 2026.24,934.486 2034.1,919.309 2041.8,904.909 2049.36,891.165 2056.79,878.427 2064.09,866.631 2071.26,855.249 2078.3,844.157 2085.23,833.296 2092.05,823.038 2098.75,813.228 2105.34,803.846 2111.84,794.871 2118.23,786.286 2124.52,778.073 2130.72,770.215 2136.83,762.757 2142.85,755.866 2148.78,749.043 2154.62,742.642 2160.39,736.388 2166.08,730.414 2171.68,724.706 2177.22,719.255 2182.68,714.051 2188.07,709.083 2193.38,704.342 2198.64,699.819 2203.82,695.507 2208.94,691.639 2214,687.573 2219,683.744 2223.93,680.166 2228.81,676.755 2233.63,673.47 2238.4,670.334 2243.11,667.354 2247.77,664.526 2252.37,661.845 2256.93,659.304 2261.43,656.901 2265.89,654.639 2270.3,652.511 2274.66,650.507 2278.98,648.625 2283.25,646.86 2287.48,645.209 2291.66,643.635 2295.81,642.133 "/>
<polyline clip-path="url(#clip532)" style="stroke:#000000; stroke-linecap:round; stroke-linejoin:round; stroke-width:8; stroke-opacity:1; fill:none" stroke-dasharray="32, 20" points="397.458,609.751 683.188,609.751 850.329,609.751 968.918,609.751 1060.9,609.751 1136.06,609.751 1199.6,609.751 1254.65,609.751 1303.2,609.751 1346.63,609.751 1385.92,609.751 1421.79,609.751 1454.78,609.751 1485.33,609.751 1513.77,609.751 1540.38,609.751 1565.37,609.751 1588.93,609.751 1611.22,609.751 1632.36,609.751 1652.47,609.751 1671.65,609.751 1689.97,609.751 1707.52,609.751 1724.35,609.751 1740.51,609.751 1756.07,609.751 1771.06,609.751 1785.53,609.751 1799.5,609.751 1813.02,609.751 1826.11,609.751 1838.79,609.751 1851.1,609.751 1863.05,609.751 1874.66,609.751 1885.95,609.751 1896.95,609.751 1907.65,609.751 1918.09,609.751 1928.27,609.751 1938.2,609.751 1947.9,609.751 1957.38,609.751 1966.64,609.751 1975.7,609.751 1984.57,609.751 1993.25,609.751 2001.75,609.751 2010.08,609.751 2018.24,609.751 2026.24,609.751 2034.1,609.751 2041.8,609.751 2049.36,609.751 2056.79,609.751 2064.09,609.751 2071.26,609.751 2078.3,609.751 2085.23,609.751 2092.05,609.751 2098.75,609.751 2105.34,609.751 2111.84,609.751 2118.23,609.751 2124.52,609.751 2130.72,609.751 2136.83,609.751 2142.85,609.751 2148.78,609.751 2154.62,609.751 2160.39,609.751 2166.08,609.751 2171.68,609.751 2177.22,609.751 2182.68,609.751 2188.07,609.751 2193.38,609.751 2198.64,609.751 2203.82,609.751 2208.94,609.751 2214,609.751 2219,609.751 2223.93,609.751 2228.81,609.751 2233.63,609.751 2238.4,609.751 2243.11,609.751 2247.77,609.751 2252.37,609.751 2256.93,609.751 2261.43,609.751 2265.89,609.751 2270.3,609.751 2274.66,609.751 2278.98,609.751 2283.25,609.751 2287.48,609.751 2291.66,609.751 2295.81,609.751 "/>
</svg>
