<?xml version="1.0" encoding="utf-8"?>
<svg xmlns="http://www.w3.org/2000/svg" xmlns:xlink="http://www.w3.org/1999/xlink" width="600" height="400" viewBox="0 0 2400 1600">
<defs>
  <clipPath id="clip430">
    <rect x="0" y="0" width="2400" height="1600"/>
  </clipPath>
</defs>
<path clip-path="url(#clip430)" d="M0 1600 L2400 1600 L2400 0 L0 0  Z" fill="#ffffff" fill-rule="evenodd" fill-opacity="1"/>
<defs>
  <clipPath id="clip431">
    <rect x="480" y="0" width="1681" height="1600"/>
  </clipPath>
</defs>
<path clip-path="url(#clip430)" d="M302.806 1414.54 L2352.76 1414.54 L2352.76 47.2441 L302.806 47.2441  Z" fill="#ffffff" fill-rule="evenodd" fill-opacity="1"/>
<defs>
  <clipPath id="clip432">
    <rect x="302" y="47" width="2051" height="1368"/>
  </clipPath>
</defs>
<polyline clip-path="url(#clip432)" style="stroke:#000000; stroke-linecap:round; stroke-linejoin:round; stroke-width:2; stroke-opacity:0.1; fill:none" points="360.823,1414.54 360.823,47.2441 "/>
<polyline clip-path="url(#clip432)" style="stroke:#000000; stroke-linecap:round; stroke-linejoin:round; stroke-width:2; stroke-opacity:0.1; fill:none" points="1327.78,1414.54 1327.78,47.2441 "/>
<polyline clip-path="url(#clip432)" style="stroke:#000000; stroke-linecap:round; stroke-linejoin:round; stroke-width:2; stroke-opacity:0.1; fill:none" points="2294.74,1414.54 2294.74,47.2441 "/>
<polyline clip-path="url(#clip430)" style="stroke:#000000; stroke-linecap:round; stroke-linejoin:round; stroke-width:4; stroke-opacity:1; fill:none" points="302.806,1414.54 2352.76,1414.54 "/>
<polyline clip-path="url(#clip430)" style="stroke:#000000; stroke-linecap:round; stroke-linejoin:round; stroke-width:4; stroke-opacity:1; fill:none" points="360.823,1414.54 360.823,1395.64 "/>
<polyline clip-path="url(#clip430)" style="stroke:#000000; stroke-linecap:round; stroke-linejoin:round; stroke-width:4; stroke-opacity:1; fill:none" points="1327.78,1414.54 1327.78,1395.64 "/>
<polyline clip-path="url(#clip430)" style="stroke:#000000; stroke-linecap:round; stroke-linejoin:round; stroke-width:4; stroke-opacity:1; fill:none" points="2294.74,1414.54 2294.74,1395.64 "/>
<path clip-path="url(#clip430)" d="M329.183 1482.82 L338.731 1482.82 L338.731 1449.86 L328.344 1451.95 L328.344 1446.62 L338.673 1444.54 L344.518 1444.54 L344.518 1482.82 L354.067 1482.82 L354.067 1487.74 L329.183 1487.74 L329.183 1482.82 Z" fill="#000000" fill-rule="nonzero" fill-opacity="1" /><path clip-path="url(#clip430)" d="M378.372 1448.39 Q373.858 1448.39 371.572 1452.84 Q369.316 1457.27 369.316 1466.18 Q369.316 1475.07 371.572 1479.52 Q373.858 1483.95 378.372 1483.95 Q382.915 1483.95 385.172 1479.52 Q387.458 1475.07 387.458 1466.18 Q387.458 1457.27 385.172 1452.84 Q382.915 1448.39 378.372 1448.39 M378.372 1443.76 Q385.635 1443.76 389.454 1449.52 Q393.303 1455.25 393.303 1466.18 Q393.303 1477.09 389.454 1482.85 Q385.635 1488.58 378.372 1488.58 Q371.11 1488.58 367.261 1482.85 Q363.442 1477.09 363.442 1466.18 Q363.442 1455.25 367.261 1449.52 Q371.11 1443.76 378.372 1443.76 Z" fill="#000000" fill-rule="nonzero" fill-opacity="1" /><path clip-path="url(#clip430)" d="M1277.29 1482.82 L1286.84 1482.82 L1286.84 1449.86 L1276.45 1451.95 L1276.45 1446.62 L1286.78 1444.54 L1292.62 1444.54 L1292.62 1482.82 L1302.17 1482.82 L1302.17 1487.74 L1277.29 1487.74 L1277.29 1482.82 Z" fill="#000000" fill-rule="nonzero" fill-opacity="1" /><path clip-path="url(#clip430)" d="M1326.48 1448.39 Q1321.96 1448.39 1319.68 1452.84 Q1317.42 1457.27 1317.42 1466.18 Q1317.42 1475.07 1319.68 1479.52 Q1321.96 1483.95 1326.48 1483.95 Q1331.02 1483.95 1333.28 1479.52 Q1335.56 1475.07 1335.56 1466.18 Q1335.56 1457.27 1333.28 1452.84 Q1331.02 1448.39 1326.48 1448.39 M1326.48 1443.76 Q1333.74 1443.76 1337.56 1449.52 Q1341.41 1455.25 1341.41 1466.18 Q1341.41 1477.09 1337.56 1482.85 Q1333.74 1488.58 1326.48 1488.58 Q1319.22 1488.58 1315.37 1482.85 Q1311.55 1477.09 1311.55 1466.18 Q1311.55 1455.25 1315.37 1449.52 Q1319.22 1443.76 1326.48 1443.76 Z" fill="#000000" fill-rule="nonzero" fill-opacity="1" /><path clip-path="url(#clip430)" d="M1364.18 1448.39 Q1359.67 1448.39 1357.38 1452.84 Q1355.12 1457.27 1355.12 1466.18 Q1355.12 1475.07 1357.38 1479.52 Q1359.67 1483.95 1364.18 1483.95 Q1368.72 1483.95 1370.98 1479.52 Q1373.27 1475.07 1373.27 1466.18 Q1373.27 1457.27 1370.98 1452.84 Q1368.72 1448.39 1364.18 1448.39 M1364.18 1443.76 Q1371.44 1443.76 1375.26 1449.52 Q1379.11 1455.25 1379.11 1466.18 Q1379.11 1477.09 1375.26 1482.85 Q1371.44 1488.58 1364.18 1488.58 Q1356.92 1488.58 1353.07 1482.85 Q1349.25 1477.09 1349.25 1466.18 Q1349.25 1455.25 1353.07 1449.52 Q1356.92 1443.76 1364.18 1443.76 Z" fill="#000000" fill-rule="nonzero" fill-opacity="1" /><path clip-path="url(#clip430)" d="M2225.4 1482.82 L2234.94 1482.82 L2234.94 1449.86 L2224.56 1451.95 L2224.56 1446.62 L2234.89 1444.54 L2240.73 1444.54 L2240.73 1482.82 L2250.28 1482.82 L2250.28 1487.74 L2225.4 1487.74 L2225.4 1482.82 Z" fill="#000000" fill-rule="nonzero" fill-opacity="1" /><path clip-path="url(#clip430)" d="M2274.59 1448.39 Q2270.07 1448.39 2267.79 1452.84 Q2265.53 1457.27 2265.53 1466.18 Q2265.53 1475.07 2267.79 1479.52 Q2270.07 1483.95 2274.59 1483.95 Q2279.13 1483.95 2281.38 1479.52 Q2283.67 1475.07 2283.67 1466.18 Q2283.67 1457.27 2281.38 1452.84 Q2279.13 1448.39 2274.59 1448.39 M2274.59 1443.76 Q2281.85 1443.76 2285.67 1449.52 Q2289.52 1455.25 2289.52 1466.18 Q2289.52 1477.09 2285.67 1482.85 Q2281.85 1488.58 2274.59 1488.58 Q2267.32 1488.58 2263.47 1482.85 Q2259.65 1477.09 2259.65 1466.18 Q2259.65 1455.25 2263.47 1449.52 Q2267.32 1443.76 2274.59 1443.76 Z" fill="#000000" fill-rule="nonzero" fill-opacity="1" /><path clip-path="url(#clip430)" d="M2312.29 1448.39 Q2307.77 1448.39 2305.49 1452.84 Q2303.23 1457.27 2303.23 1466.18 Q2303.23 1475.07 2305.49 1479.52 Q2307.77 1483.95 2312.29 1483.95 Q2316.83 1483.95 2319.09 1479.52 Q2321.37 1475.07 2321.37 1466.18 Q2321.37 1457.27 2319.09 1452.84 Q2316.83 1448.39 2312.29 1448.39 M2312.29 1443.76 Q2319.55 1443.76 2323.37 1449.52 Q2327.22 1455.25 2327.22 1466.18 Q2327.22 1477.09 2323.37 1482.85 Q2319.55 1488.58 2312.29 1488.58 Q2305.02 1488.58 2301.18 1482.85 Q2297.36 1477.09 2297.36 1466.18 Q2297.36 1455.25 2301.18 1449.52 Q2305.02 1443.76 2312.29 1443.76 Z" fill="#000000" fill-rule="nonzero" fill-opacity="1" /><path clip-path="url(#clip430)" d="M2349.99 1448.39 Q2345.48 1448.39 2343.19 1452.84 Q2340.93 1457.27 2340.93 1466.18 Q2340.93 1475.07 2343.19 1479.52 Q2345.48 1483.95 2349.99 1483.95 Q2354.53 1483.95 2356.79 1479.52 Q2359.08 1475.07 2359.08 1466.18 Q2359.08 1457.27 2356.79 1452.84 Q2354.53 1448.39 2349.99 1448.39 M2349.99 1443.76 Q2357.25 1443.76 2361.07 1449.52 Q2364.92 1455.25 2364.92 1466.18 Q2364.92 1477.09 2361.07 1482.85 Q2357.25 1488.58 2349.99 1488.58 Q2342.73 1488.58 2338.88 1482.85 Q2335.06 1477.09 2335.06 1466.18 Q2335.06 1455.25 2338.88 1449.52 Q2342.73 1443.76 2349.99 1443.76 Z" fill="#000000" fill-rule="nonzero" fill-opacity="1" /><path clip-path="url(#clip430)" d="M1136.33 1550.08 Q1138.4 1550.78 1140.34 1553.08 Q1142.32 1555.37 1144.29 1559.38 L1150.81 1572.36 L1143.91 1572.36 L1137.83 1560.17 Q1135.47 1555.4 1133.24 1553.84 Q1131.05 1552.28 1127.23 1552.28 L1120.23 1552.28 L1120.23 1572.36 L1113.8 1572.36 L1113.8 1524.84 L1128.31 1524.84 Q1136.46 1524.84 1140.47 1528.25 Q1144.48 1531.66 1144.48 1538.53 Q1144.48 1543.02 1142.38 1545.98 Q1140.31 1548.94 1136.33 1550.08 M1120.23 1530.13 L1120.23 1547 L1128.31 1547 Q1132.96 1547 1135.31 1544.86 Q1137.7 1542.7 1137.7 1538.53 Q1137.7 1534.36 1135.31 1532.26 Q1132.96 1530.13 1128.31 1530.13 L1120.23 1530.13 Z" fill="#000000" fill-rule="nonzero" fill-opacity="1" /><path clip-path="url(#clip430)" d="M1186.4 1553.08 L1186.4 1555.94 L1159.47 1555.94 Q1159.85 1561.99 1163.1 1565.17 Q1166.38 1568.32 1172.2 1568.32 Q1175.58 1568.32 1178.73 1567.49 Q1181.91 1566.67 1185.03 1565.01 L1185.03 1570.55 Q1181.88 1571.89 1178.57 1572.59 Q1175.26 1573.29 1171.85 1573.29 Q1163.32 1573.29 1158.33 1568.32 Q1153.36 1563.36 1153.36 1554.89 Q1153.36 1546.14 1158.07 1541.01 Q1162.81 1535.86 1170.83 1535.86 Q1178.03 1535.86 1182.2 1540.5 Q1186.4 1545.12 1186.4 1553.08 M1180.54 1551.36 Q1180.48 1546.55 1177.84 1543.69 Q1175.23 1540.82 1170.9 1540.82 Q1166 1540.82 1163.04 1543.59 Q1160.11 1546.36 1159.66 1551.39 L1180.54 1551.36 Z" fill="#000000" fill-rule="nonzero" fill-opacity="1" /><path clip-path="url(#clip430)" d="M1201.8 1526.59 L1201.8 1536.72 L1213.87 1536.72 L1213.87 1541.27 L1201.8 1541.27 L1201.8 1560.62 Q1201.8 1564.98 1202.98 1566.22 Q1204.19 1567.46 1207.85 1567.46 L1213.87 1567.46 L1213.87 1572.36 L1207.85 1572.36 Q1201.07 1572.36 1198.49 1569.85 Q1195.92 1567.3 1195.92 1560.62 L1195.92 1541.27 L1191.62 1541.27 L1191.62 1536.72 L1195.92 1536.72 L1195.92 1526.59 L1201.8 1526.59 Z" fill="#000000" fill-rule="nonzero" fill-opacity="1" /><path clip-path="url(#clip430)" d="M1220.96 1558.3 L1220.96 1536.72 L1226.82 1536.72 L1226.82 1558.07 Q1226.82 1563.13 1228.79 1565.68 Q1230.77 1568.19 1234.71 1568.19 Q1239.46 1568.19 1242.19 1565.17 Q1244.96 1562.15 1244.96 1556.93 L1244.96 1536.72 L1250.82 1536.72 L1250.82 1572.36 L1244.96 1572.36 L1244.96 1566.89 Q1242.83 1570.14 1240 1571.73 Q1237.2 1573.29 1233.47 1573.29 Q1227.33 1573.29 1224.15 1569.47 Q1220.96 1565.65 1220.96 1558.3 M1235.7 1535.86 L1235.7 1535.86 Z" fill="#000000" fill-rule="nonzero" fill-opacity="1" /><path clip-path="url(#clip430)" d="M1283.54 1542.19 Q1282.55 1541.62 1281.37 1541.36 Q1280.23 1541.08 1278.83 1541.08 Q1273.86 1541.08 1271.19 1544.32 Q1268.55 1547.54 1268.55 1553.59 L1268.55 1572.36 L1262.66 1572.36 L1262.66 1536.72 L1268.55 1536.72 L1268.55 1542.25 Q1270.39 1539.01 1273.35 1537.45 Q1276.31 1535.86 1280.55 1535.86 Q1281.15 1535.86 1281.88 1535.95 Q1282.62 1536.02 1283.51 1536.17 L1283.54 1542.19 Z" fill="#000000" fill-rule="nonzero" fill-opacity="1" /><path clip-path="url(#clip430)" d="M1318.17 1550.85 L1318.17 1572.36 L1312.31 1572.36 L1312.31 1551.04 Q1312.31 1545.98 1310.34 1543.46 Q1308.37 1540.95 1304.42 1540.95 Q1299.68 1540.95 1296.94 1543.97 Q1294.2 1547 1294.2 1552.22 L1294.2 1572.36 L1288.31 1572.36 L1288.31 1536.72 L1294.2 1536.72 L1294.2 1542.25 Q1296.3 1539.04 1299.14 1537.45 Q1302 1535.86 1305.72 1535.86 Q1311.87 1535.86 1315.02 1539.68 Q1318.17 1543.46 1318.17 1550.85 Z" fill="#000000" fill-rule="nonzero" fill-opacity="1" /><path clip-path="url(#clip430)" d="M1357.25 1530.13 L1357.25 1547.98 L1365.34 1547.98 Q1369.83 1547.98 1372.28 1545.66 Q1374.73 1543.34 1374.73 1539.04 Q1374.73 1534.77 1372.28 1532.45 Q1369.83 1530.13 1365.34 1530.13 L1357.25 1530.13 M1350.82 1524.84 L1365.34 1524.84 Q1373.33 1524.84 1377.4 1528.47 Q1381.51 1532.07 1381.51 1539.04 Q1381.51 1546.07 1377.4 1549.67 Q1373.33 1553.27 1365.34 1553.27 L1357.25 1553.27 L1357.25 1572.36 L1350.82 1572.36 L1350.82 1524.84 Z" fill="#000000" fill-rule="nonzero" fill-opacity="1" /><path clip-path="url(#clip430)" d="M1418.05 1553.08 L1418.05 1555.94 L1391.12 1555.94 Q1391.5 1561.99 1394.75 1565.17 Q1398.03 1568.32 1403.85 1568.32 Q1407.22 1568.32 1410.38 1567.49 Q1413.56 1566.67 1416.68 1565.01 L1416.68 1570.55 Q1413.53 1571.89 1410.22 1572.59 Q1406.91 1573.29 1403.5 1573.29 Q1394.97 1573.29 1389.97 1568.32 Q1385.01 1563.36 1385.01 1554.89 Q1385.01 1546.14 1389.72 1541.01 Q1394.46 1535.86 1402.48 1535.86 Q1409.68 1535.86 1413.85 1540.5 Q1418.05 1545.12 1418.05 1553.08 M1412.19 1551.36 Q1412.13 1546.55 1409.48 1543.69 Q1406.87 1540.82 1402.55 1540.82 Q1397.64 1540.82 1394.68 1543.59 Q1391.76 1546.36 1391.31 1551.39 L1412.19 1551.36 Z" fill="#000000" fill-rule="nonzero" fill-opacity="1" /><path clip-path="url(#clip430)" d="M1448.32 1542.19 Q1447.33 1541.62 1446.15 1541.36 Q1445.01 1541.08 1443.6 1541.08 Q1438.64 1541.08 1435.97 1544.32 Q1433.32 1547.54 1433.32 1553.59 L1433.32 1572.36 L1427.44 1572.36 L1427.44 1536.72 L1433.32 1536.72 L1433.32 1542.25 Q1435.17 1539.01 1438.13 1537.45 Q1441.09 1535.86 1445.32 1535.86 Q1445.93 1535.86 1446.66 1535.95 Q1447.39 1536.02 1448.28 1536.17 L1448.32 1542.19 Z" fill="#000000" fill-rule="nonzero" fill-opacity="1" /><path clip-path="url(#clip430)" d="M1454.46 1536.72 L1460.31 1536.72 L1460.31 1572.36 L1454.46 1572.36 L1454.46 1536.72 M1454.46 1522.84 L1460.31 1522.84 L1460.31 1530.25 L1454.46 1530.25 L1454.46 1522.84 Z" fill="#000000" fill-rule="nonzero" fill-opacity="1" /><path clip-path="url(#clip430)" d="M1486.38 1540.82 Q1481.67 1540.82 1478.93 1544.51 Q1476.2 1548.17 1476.2 1554.57 Q1476.2 1560.97 1478.9 1564.66 Q1481.64 1568.32 1486.38 1568.32 Q1491.06 1568.32 1493.8 1564.63 Q1496.54 1560.94 1496.54 1554.57 Q1496.54 1548.24 1493.8 1544.55 Q1491.06 1540.82 1486.38 1540.82 M1486.38 1535.86 Q1494.02 1535.86 1498.38 1540.82 Q1502.74 1545.79 1502.74 1554.57 Q1502.74 1563.32 1498.38 1568.32 Q1494.02 1573.29 1486.38 1573.29 Q1478.71 1573.29 1474.35 1568.32 Q1470.02 1563.32 1470.02 1554.57 Q1470.02 1545.79 1474.35 1540.82 Q1478.71 1535.86 1486.38 1535.86 Z" fill="#000000" fill-rule="nonzero" fill-opacity="1" /><path clip-path="url(#clip430)" d="M1535.91 1542.13 L1535.91 1522.84 L1541.76 1522.84 L1541.76 1572.36 L1535.91 1572.36 L1535.91 1567.02 Q1534.06 1570.2 1531.23 1571.76 Q1528.43 1573.29 1524.48 1573.29 Q1518.02 1573.29 1513.95 1568.13 Q1509.9 1562.97 1509.9 1554.57 Q1509.9 1546.17 1513.95 1541.01 Q1518.02 1535.86 1524.48 1535.86 Q1528.43 1535.86 1531.23 1537.42 Q1534.06 1538.94 1535.91 1542.13 M1515.95 1554.57 Q1515.95 1561.03 1518.59 1564.72 Q1521.27 1568.39 1525.91 1568.39 Q1530.56 1568.39 1533.23 1564.72 Q1535.91 1561.03 1535.91 1554.57 Q1535.91 1548.11 1533.23 1544.45 Q1530.56 1540.76 1525.91 1540.76 Q1521.27 1540.76 1518.59 1544.45 Q1515.95 1548.11 1515.95 1554.57 Z" fill="#000000" fill-rule="nonzero" fill-opacity="1" /><polyline clip-path="url(#clip432)" style="stroke:#000000; stroke-linecap:round; stroke-linejoin:round; stroke-width:2; stroke-opacity:0.1; fill:none" points="302.806,1342.93 2352.76,1342.93 "/>
<polyline clip-path="url(#clip432)" style="stroke:#000000; stroke-linecap:round; stroke-linejoin:round; stroke-width:2; stroke-opacity:0.1; fill:none" points="302.806,1116.04 2352.76,1116.04 "/>
<polyline clip-path="url(#clip432)" style="stroke:#000000; stroke-linecap:round; stroke-linejoin:round; stroke-width:2; stroke-opacity:0.1; fill:none" points="302.806,889.145 2352.76,889.145 "/>
<polyline clip-path="url(#clip432)" style="stroke:#000000; stroke-linecap:round; stroke-linejoin:round; stroke-width:2; stroke-opacity:0.1; fill:none" points="302.806,662.251 2352.76,662.251 "/>
<polyline clip-path="url(#clip432)" style="stroke:#000000; stroke-linecap:round; stroke-linejoin:round; stroke-width:2; stroke-opacity:0.1; fill:none" points="302.806,435.357 2352.76,435.357 "/>
<polyline clip-path="url(#clip432)" style="stroke:#000000; stroke-linecap:round; stroke-linejoin:round; stroke-width:2; stroke-opacity:0.1; fill:none" points="302.806,208.464 2352.76,208.464 "/>
<polyline clip-path="url(#clip430)" style="stroke:#000000; stroke-linecap:round; stroke-linejoin:round; stroke-width:4; stroke-opacity:1; fill:none" points="302.806,1414.54 302.806,47.2441 "/>
<polyline clip-path="url(#clip430)" style="stroke:#000000; stroke-linecap:round; stroke-linejoin:round; stroke-width:4; stroke-opacity:1; fill:none" points="302.806,1342.93 321.703,1342.93 "/>
<polyline clip-path="url(#clip430)" style="stroke:#000000; stroke-linecap:round; stroke-linejoin:round; stroke-width:4; stroke-opacity:1; fill:none" points="302.806,1116.04 321.703,1116.04 "/>
<polyline clip-path="url(#clip430)" style="stroke:#000000; stroke-linecap:round; stroke-linejoin:round; stroke-width:4; stroke-opacity:1; fill:none" points="302.806,889.145 321.703,889.145 "/>
<polyline clip-path="url(#clip430)" style="stroke:#000000; stroke-linecap:round; stroke-linejoin:round; stroke-width:4; stroke-opacity:1; fill:none" points="302.806,662.251 321.703,662.251 "/>
<polyline clip-path="url(#clip430)" style="stroke:#000000; stroke-linecap:round; stroke-linejoin:round; stroke-width:4; stroke-opacity:1; fill:none" points="302.806,435.357 321.703,435.357 "/>
<polyline clip-path="url(#clip430)" style="stroke:#000000; stroke-linecap:round; stroke-linejoin:round; stroke-width:4; stroke-opacity:1; fill:none" points="302.806,208.464 321.703,208.464 "/>
<path clip-path="url(#clip430)" d="M114.26 1343.5 L151.355 1343.5 L151.355 1348.42 L114.26 1348.42 L114.26 1343.5 Z" fill="#000000" fill-rule="nonzero" fill-opacity="1" /><path clip-path="url(#clip430)" d="M164.028 1321.33 L186.974 1321.33 L186.974 1326.25 L169.381 1326.25 L169.381 1336.84 Q170.655 1336.41 171.928 1336.2 Q173.201 1335.97 174.474 1335.97 Q181.708 1335.97 185.932 1339.94 Q190.157 1343.9 190.157 1350.67 Q190.157 1357.65 185.816 1361.52 Q181.476 1365.37 173.577 1365.37 Q170.857 1365.37 168.021 1364.91 Q165.215 1364.45 162.206 1363.52 L162.206 1357.65 Q164.81 1359.06 167.587 1359.76 Q170.365 1360.45 173.461 1360.45 Q178.467 1360.45 181.389 1357.82 Q184.312 1355.19 184.312 1350.67 Q184.312 1346.16 181.389 1343.53 Q178.467 1340.89 173.461 1340.89 Q171.117 1340.89 168.774 1341.41 Q166.459 1341.93 164.028 1343.03 L164.028 1321.33 Z" fill="#000000" fill-rule="nonzero" fill-opacity="1" /><path clip-path="url(#clip430)" d="M214.173 1325.18 Q209.659 1325.18 207.373 1329.64 Q205.116 1334.06 205.116 1342.98 Q205.116 1351.86 207.373 1356.31 Q209.659 1360.74 214.173 1360.74 Q218.716 1360.74 220.973 1356.31 Q223.258 1351.86 223.258 1342.98 Q223.258 1334.06 220.973 1329.64 Q218.716 1325.18 214.173 1325.18 M214.173 1320.55 Q221.436 1320.55 225.255 1326.31 Q229.103 1332.04 229.103 1342.98 Q229.103 1353.88 225.255 1359.64 Q221.436 1365.37 214.173 1365.37 Q206.91 1365.37 203.062 1359.64 Q199.242 1353.88 199.242 1342.98 Q199.242 1332.04 203.062 1326.31 Q206.91 1320.55 214.173 1320.55 Z" fill="#000000" fill-rule="nonzero" fill-opacity="1" /><path clip-path="url(#clip430)" d="M251.875 1325.18 Q247.361 1325.18 245.075 1329.64 Q242.818 1334.06 242.818 1342.98 Q242.818 1351.86 245.075 1356.31 Q247.361 1360.74 251.875 1360.74 Q256.418 1360.74 258.675 1356.31 Q260.961 1351.86 260.961 1342.98 Q260.961 1334.06 258.675 1329.64 Q256.418 1325.18 251.875 1325.18 M251.875 1320.55 Q259.138 1320.55 262.957 1326.31 Q266.806 1332.04 266.806 1342.98 Q266.806 1353.88 262.957 1359.64 Q259.138 1365.37 251.875 1365.37 Q244.612 1365.37 240.764 1359.64 Q236.945 1353.88 236.945 1342.98 Q236.945 1332.04 240.764 1326.31 Q244.612 1320.55 251.875 1320.55 Z" fill="#000000" fill-rule="nonzero" fill-opacity="1" /><path clip-path="url(#clip430)" d="M251.875 1098.29 Q247.361 1098.29 245.075 1102.74 Q242.818 1107.17 242.818 1116.08 Q242.818 1124.96 245.075 1129.42 Q247.361 1133.85 251.875 1133.85 Q256.418 1133.85 258.675 1129.42 Q260.961 1124.96 260.961 1116.08 Q260.961 1107.17 258.675 1102.74 Q256.418 1098.29 251.875 1098.29 M251.875 1093.66 Q259.138 1093.66 262.957 1099.42 Q266.806 1105.14 266.806 1116.08 Q266.806 1126.99 262.957 1132.75 Q259.138 1138.48 251.875 1138.48 Q244.612 1138.48 240.764 1132.75 Q236.945 1126.99 236.945 1116.08 Q236.945 1105.14 240.764 1099.42 Q244.612 1093.66 251.875 1093.66 Z" fill="#000000" fill-rule="nonzero" fill-opacity="1" /><path clip-path="url(#clip430)" d="M164.028 867.545 L186.974 867.545 L186.974 872.464 L169.381 872.464 L169.381 883.054 Q170.655 882.62 171.928 882.417 Q173.201 882.186 174.474 882.186 Q181.708 882.186 185.932 886.15 Q190.157 890.114 190.157 896.885 Q190.157 903.858 185.816 907.736 Q181.476 911.584 173.577 911.584 Q170.857 911.584 168.021 911.121 Q165.215 910.658 162.206 909.732 L162.206 903.858 Q164.81 905.276 167.587 905.971 Q170.365 906.665 173.461 906.665 Q178.467 906.665 181.389 904.032 Q184.312 901.399 184.312 896.885 Q184.312 892.371 181.389 889.738 Q178.467 887.105 173.461 887.105 Q171.117 887.105 168.774 887.626 Q166.459 888.147 164.028 889.246 L164.028 867.545 Z" fill="#000000" fill-rule="nonzero" fill-opacity="1" /><path clip-path="url(#clip430)" d="M214.173 871.393 Q209.659 871.393 207.373 875.849 Q205.116 880.276 205.116 889.188 Q205.116 898.071 207.373 902.527 Q209.659 906.954 214.173 906.954 Q218.716 906.954 220.973 902.527 Q223.258 898.071 223.258 889.188 Q223.258 880.276 220.973 875.849 Q218.716 871.393 214.173 871.393 M214.173 866.764 Q221.436 866.764 225.255 872.522 Q229.103 878.251 229.103 889.188 Q229.103 900.097 225.255 905.855 Q221.436 911.584 214.173 911.584 Q206.91 911.584 203.062 905.855 Q199.242 900.097 199.242 889.188 Q199.242 878.251 203.062 872.522 Q206.91 866.764 214.173 866.764 Z" fill="#000000" fill-rule="nonzero" fill-opacity="1" /><path clip-path="url(#clip430)" d="M251.875 871.393 Q247.361 871.393 245.075 875.849 Q242.818 880.276 242.818 889.188 Q242.818 898.071 245.075 902.527 Q247.361 906.954 251.875 906.954 Q256.418 906.954 258.675 902.527 Q260.961 898.071 260.961 889.188 Q260.961 880.276 258.675 875.849 Q256.418 871.393 251.875 871.393 M251.875 866.764 Q259.138 866.764 262.957 872.522 Q266.806 878.251 266.806 889.188 Q266.806 900.097 262.957 905.855 Q259.138 911.584 251.875 911.584 Q244.612 911.584 240.764 905.855 Q236.945 900.097 236.945 889.188 Q236.945 878.251 240.764 872.522 Q244.612 866.764 251.875 866.764 Z" fill="#000000" fill-rule="nonzero" fill-opacity="1" /><path clip-path="url(#clip430)" d="M127.281 678.932 L136.829 678.932 L136.829 645.975 L126.442 648.058 L126.442 642.734 L136.772 640.651 L142.616 640.651 L142.616 678.932 L152.165 678.932 L152.165 683.851 L127.281 683.851 L127.281 678.932 Z" fill="#000000" fill-rule="nonzero" fill-opacity="1" /><path clip-path="url(#clip430)" d="M176.47 644.499 Q171.957 644.499 169.671 648.955 Q167.414 653.383 167.414 662.295 Q167.414 671.178 169.671 675.634 Q171.957 680.061 176.47 680.061 Q181.013 680.061 183.27 675.634 Q185.556 671.178 185.556 662.295 Q185.556 653.383 183.27 648.955 Q181.013 644.499 176.47 644.499 M176.47 639.87 Q183.733 639.87 187.553 645.628 Q191.401 651.357 191.401 662.295 Q191.401 673.203 187.553 678.961 Q183.733 684.69 176.47 684.69 Q169.208 684.69 165.359 678.961 Q161.54 673.203 161.54 662.295 Q161.54 651.357 165.359 645.628 Q169.208 639.87 176.47 639.87 Z" fill="#000000" fill-rule="nonzero" fill-opacity="1" /><path clip-path="url(#clip430)" d="M214.173 644.499 Q209.659 644.499 207.373 648.955 Q205.116 653.383 205.116 662.295 Q205.116 671.178 207.373 675.634 Q209.659 680.061 214.173 680.061 Q218.716 680.061 220.973 675.634 Q223.258 671.178 223.258 662.295 Q223.258 653.383 220.973 648.955 Q218.716 644.499 214.173 644.499 M214.173 639.87 Q221.436 639.87 225.255 645.628 Q229.103 651.357 229.103 662.295 Q229.103 673.203 225.255 678.961 Q221.436 684.69 214.173 684.69 Q206.91 684.69 203.062 678.961 Q199.242 673.203 199.242 662.295 Q199.242 651.357 203.062 645.628 Q206.91 639.87 214.173 639.87 Z" fill="#000000" fill-rule="nonzero" fill-opacity="1" /><path clip-path="url(#clip430)" d="M251.875 644.499 Q247.361 644.499 245.075 648.955 Q242.818 653.383 242.818 662.295 Q242.818 671.178 245.075 675.634 Q247.361 680.061 251.875 680.061 Q256.418 680.061 258.675 675.634 Q260.961 671.178 260.961 662.295 Q260.961 653.383 258.675 648.955 Q256.418 644.499 251.875 644.499 M251.875 639.87 Q259.138 639.87 262.957 645.628 Q266.806 651.357 266.806 662.295 Q266.806 673.203 262.957 678.961 Q259.138 684.69 251.875 684.69 Q244.612 684.69 240.764 678.961 Q236.945 673.203 236.945 662.295 Q236.945 651.357 240.764 645.628 Q244.612 639.87 251.875 639.87 Z" fill="#000000" fill-rule="nonzero" fill-opacity="1" /><path clip-path="url(#clip430)" d="M127.281 452.038 L136.829 452.038 L136.829 419.081 L126.442 421.165 L126.442 415.841 L136.772 413.757 L142.616 413.757 L142.616 452.038 L152.165 452.038 L152.165 456.957 L127.281 456.957 L127.281 452.038 Z" fill="#000000" fill-rule="nonzero" fill-opacity="1" /><path clip-path="url(#clip430)" d="M164.028 413.757 L186.974 413.757 L186.974 418.676 L169.381 418.676 L169.381 429.267 Q170.655 428.833 171.928 428.63 Q173.201 428.399 174.474 428.399 Q181.708 428.399 185.932 432.363 Q190.157 436.327 190.157 443.098 Q190.157 450.071 185.816 453.948 Q181.476 457.797 173.577 457.797 Q170.857 457.797 168.021 457.334 Q165.215 456.871 162.206 455.945 L162.206 450.071 Q164.81 451.489 167.587 452.183 Q170.365 452.878 173.461 452.878 Q178.467 452.878 181.389 450.244 Q184.312 447.611 184.312 443.098 Q184.312 438.584 181.389 435.951 Q178.467 433.318 173.461 433.318 Q171.117 433.318 168.774 433.838 Q166.459 434.359 164.028 435.459 L164.028 413.757 Z" fill="#000000" fill-rule="nonzero" fill-opacity="1" /><path clip-path="url(#clip430)" d="M214.173 417.606 Q209.659 417.606 207.373 422.062 Q205.116 426.489 205.116 435.401 Q205.116 444.284 207.373 448.74 Q209.659 453.167 214.173 453.167 Q218.716 453.167 220.973 448.74 Q223.258 444.284 223.258 435.401 Q223.258 426.489 220.973 422.062 Q218.716 417.606 214.173 417.606 M214.173 412.976 Q221.436 412.976 225.255 418.734 Q229.103 424.463 229.103 435.401 Q229.103 446.309 225.255 452.067 Q221.436 457.797 214.173 457.797 Q206.91 457.797 203.062 452.067 Q199.242 446.309 199.242 435.401 Q199.242 424.463 203.062 418.734 Q206.91 412.976 214.173 412.976 Z" fill="#000000" fill-rule="nonzero" fill-opacity="1" /><path clip-path="url(#clip430)" d="M251.875 417.606 Q247.361 417.606 245.075 422.062 Q242.818 426.489 242.818 435.401 Q242.818 444.284 245.075 448.74 Q247.361 453.167 251.875 453.167 Q256.418 453.167 258.675 448.74 Q260.961 444.284 260.961 435.401 Q260.961 426.489 258.675 422.062 Q256.418 417.606 251.875 417.606 M251.875 412.976 Q259.138 412.976 262.957 418.734 Q266.806 424.463 266.806 435.401 Q266.806 446.309 262.957 452.067 Q259.138 457.797 251.875 457.797 Q244.612 457.797 240.764 452.067 Q236.945 446.309 236.945 435.401 Q236.945 424.463 240.764 418.734 Q244.612 412.976 251.875 412.976 Z" fill="#000000" fill-rule="nonzero" fill-opacity="1" /><path clip-path="url(#clip430)" d="M131.303 225.145 L151.702 225.145 L151.702 230.064 L124.272 230.064 L124.272 225.145 Q127.599 221.702 133.328 215.915 Q139.086 210.099 140.562 208.42 Q143.369 205.266 144.468 203.096 Q145.597 200.897 145.597 198.785 Q145.597 195.342 143.166 193.172 Q140.765 191.001 136.887 191.001 Q134.139 191.001 131.071 191.956 Q128.033 192.911 124.561 194.85 L124.561 188.947 Q128.091 187.529 131.158 186.806 Q134.225 186.082 136.772 186.082 Q143.485 186.082 147.478 189.439 Q151.471 192.795 151.471 198.409 Q151.471 201.071 150.458 203.472 Q149.474 205.845 146.841 209.086 Q146.118 209.925 142.24 213.947 Q138.363 217.94 131.303 225.145 Z" fill="#000000" fill-rule="nonzero" fill-opacity="1" /><path clip-path="url(#clip430)" d="M176.47 190.712 Q171.957 190.712 169.671 195.168 Q167.414 199.595 167.414 208.507 Q167.414 217.39 169.671 221.846 Q171.957 226.273 176.47 226.273 Q181.013 226.273 183.27 221.846 Q185.556 217.39 185.556 208.507 Q185.556 199.595 183.27 195.168 Q181.013 190.712 176.47 190.712 M176.47 186.082 Q183.733 186.082 187.553 191.841 Q191.401 197.57 191.401 208.507 Q191.401 219.416 187.553 225.174 Q183.733 230.903 176.47 230.903 Q169.208 230.903 165.359 225.174 Q161.54 219.416 161.54 208.507 Q161.54 197.57 165.359 191.841 Q169.208 186.082 176.47 186.082 Z" fill="#000000" fill-rule="nonzero" fill-opacity="1" /><path clip-path="url(#clip430)" d="M214.173 190.712 Q209.659 190.712 207.373 195.168 Q205.116 199.595 205.116 208.507 Q205.116 217.39 207.373 221.846 Q209.659 226.273 214.173 226.273 Q218.716 226.273 220.973 221.846 Q223.258 217.39 223.258 208.507 Q223.258 199.595 220.973 195.168 Q218.716 190.712 214.173 190.712 M214.173 186.082 Q221.436 186.082 225.255 191.841 Q229.103 197.57 229.103 208.507 Q229.103 219.416 225.255 225.174 Q221.436 230.903 214.173 230.903 Q206.91 230.903 203.062 225.174 Q199.242 219.416 199.242 208.507 Q199.242 197.57 203.062 191.841 Q206.91 186.082 214.173 186.082 Z" fill="#000000" fill-rule="nonzero" fill-opacity="1" /><path clip-path="url(#clip430)" d="M251.875 190.712 Q247.361 190.712 245.075 195.168 Q242.818 199.595 242.818 208.507 Q242.818 217.39 245.075 221.846 Q247.361 226.273 251.875 226.273 Q256.418 226.273 258.675 221.846 Q260.961 217.39 260.961 208.507 Q260.961 199.595 258.675 195.168 Q256.418 190.712 251.875 190.712 M251.875 186.082 Q259.138 186.082 262.957 191.841 Q266.806 197.57 266.806 208.507 Q266.806 219.416 262.957 225.174 Q259.138 230.903 251.875 230.903 Q244.612 230.903 240.764 225.174 Q236.945 219.416 236.945 208.507 Q236.945 197.57 240.764 191.841 Q244.612 186.082 251.875 186.082 Z" fill="#000000" fill-rule="nonzero" fill-opacity="1" /><path clip-path="url(#clip430)" d="M21.7677 1253.76 L58.7206 1253.76 L58.7206 1245.99 Q58.7206 1236.15 54.2646 1231.6 Q49.8086 1227.02 40.1964 1227.02 Q30.6479 1227.02 26.2237 1231.6 Q21.7677 1236.15 21.7677 1245.99 L21.7677 1253.76 M16.4842 1260.18 L16.4842 1246.98 Q16.4842 1233.16 22.2451 1226.7 Q27.9743 1220.24 40.1964 1220.24 Q52.4822 1220.24 58.2432 1226.73 Q64.0042 1233.23 64.0042 1246.98 L64.0042 1260.18 L16.4842 1260.18 Z" fill="#000000" fill-rule="nonzero" fill-opacity="1" /><path clip-path="url(#clip430)" d="M28.3562 1210.25 L28.3562 1204.39 L64.0042 1204.39 L64.0042 1210.25 L28.3562 1210.25 M14.479 1210.25 L14.479 1204.39 L21.895 1204.39 L21.895 1210.25 L14.479 1210.25 Z" fill="#000000" fill-rule="nonzero" fill-opacity="1" /><path clip-path="url(#clip430)" d="M14.479 1174.09 L19.3487 1174.09 L19.3487 1179.69 Q19.3487 1182.84 20.6219 1184.08 Q21.895 1185.29 25.2052 1185.29 L28.3562 1185.29 L28.3562 1175.65 L32.9077 1175.65 L32.9077 1185.29 L64.0042 1185.29 L64.0042 1191.18 L32.9077 1191.18 L32.9077 1196.78 L28.3562 1196.78 L28.3562 1191.18 L25.8736 1191.18 Q19.9216 1191.18 17.2162 1188.41 Q14.479 1185.64 14.479 1179.63 L14.479 1174.09 Z" fill="#000000" fill-rule="nonzero" fill-opacity="1" /><path clip-path="url(#clip430)" d="M14.479 1151.14 L19.3487 1151.14 L19.3487 1156.74 Q19.3487 1159.89 20.6219 1161.13 Q21.895 1162.34 25.2052 1162.34 L28.3562 1162.34 L28.3562 1152.7 L32.9077 1152.7 L32.9077 1162.34 L64.0042 1162.34 L64.0042 1168.23 L32.9077 1168.23 L32.9077 1173.83 L28.3562 1173.83 L28.3562 1168.23 L25.8736 1168.23 Q19.9216 1168.23 17.2162 1165.46 Q14.479 1162.69 14.479 1156.68 L14.479 1151.14 Z" fill="#000000" fill-rule="nonzero" fill-opacity="1" /><path clip-path="url(#clip430)" d="M44.7161 1115.75 L47.5806 1115.75 L47.5806 1142.67 Q53.6281 1142.29 56.8109 1139.05 Q59.9619 1135.77 59.9619 1129.94 Q59.9619 1126.57 59.1344 1123.42 Q58.3069 1120.23 56.6518 1117.12 L62.1899 1117.12 Q63.5267 1120.27 64.227 1123.58 Q64.9272 1126.89 64.9272 1130.29 Q64.9272 1138.82 59.9619 1143.82 Q54.9967 1148.78 46.5303 1148.78 Q37.7774 1148.78 32.6531 1144.07 Q27.4968 1139.33 27.4968 1131.31 Q27.4968 1124.12 32.1438 1119.95 Q36.7589 1115.75 44.7161 1115.75 M42.9973 1121.6 Q38.1912 1121.67 35.3266 1124.31 Q32.4621 1126.92 32.4621 1131.25 Q32.4621 1136.15 35.2312 1139.11 Q38.0002 1142.04 43.0292 1142.48 L42.9973 1121.6 Z" fill="#000000" fill-rule="nonzero" fill-opacity="1" /><path clip-path="url(#clip430)" d="M33.8307 1085.48 Q33.2578 1086.46 33.0032 1087.64 Q32.7167 1088.79 32.7167 1090.19 Q32.7167 1095.15 35.9632 1097.83 Q39.1779 1100.47 45.2253 1100.47 L64.0042 1100.47 L64.0042 1106.36 L28.3562 1106.36 L28.3562 1100.47 L33.8944 1100.47 Q30.6479 1098.62 29.0883 1095.66 Q27.4968 1092.7 27.4968 1088.47 Q27.4968 1087.86 27.5923 1087.13 Q27.656 1086.4 27.8151 1085.51 L33.8307 1085.48 Z" fill="#000000" fill-rule="nonzero" fill-opacity="1" /><path clip-path="url(#clip430)" d="M44.7161 1050.28 L47.5806 1050.28 L47.5806 1077.2 Q53.6281 1076.82 56.8109 1073.57 Q59.9619 1070.3 59.9619 1064.47 Q59.9619 1061.1 59.1344 1057.95 Q58.3069 1054.76 56.6518 1051.64 L62.1899 1051.64 Q63.5267 1054.8 64.227 1058.11 Q64.9272 1061.42 64.9272 1064.82 Q64.9272 1073.35 59.9619 1078.35 Q54.9967 1083.31 46.5303 1083.31 Q37.7774 1083.31 32.6531 1078.6 Q27.4968 1073.86 27.4968 1065.84 Q27.4968 1058.65 32.1438 1054.48 Q36.7589 1050.28 44.7161 1050.28 M42.9973 1056.13 Q38.1912 1056.2 35.3266 1058.84 Q32.4621 1061.45 32.4621 1065.78 Q32.4621 1070.68 35.2312 1073.64 Q38.0002 1076.57 43.0292 1077.01 L42.9973 1056.13 Z" fill="#000000" fill-rule="nonzero" fill-opacity="1" /><path clip-path="url(#clip430)" d="M42.4881 1011.03 L64.0042 1011.03 L64.0042 1016.89 L42.679 1016.89 Q37.6183 1016.89 35.1038 1018.86 Q32.5894 1020.83 32.5894 1024.78 Q32.5894 1029.52 35.6131 1032.26 Q38.6368 1035 43.8567 1035 L64.0042 1035 L64.0042 1040.89 L28.3562 1040.89 L28.3562 1035 L33.8944 1035 Q30.6797 1032.9 29.0883 1030.06 Q27.4968 1027.2 27.4968 1023.48 Q27.4968 1017.33 31.3163 1014.18 Q35.1038 1011.03 42.4881 1011.03 Z" fill="#000000" fill-rule="nonzero" fill-opacity="1" /><path clip-path="url(#clip430)" d="M29.7248 973.696 L35.1993 973.696 Q33.8307 976.179 33.1623 978.693 Q32.4621 981.176 32.4621 983.722 Q32.4621 989.419 36.0905 992.57 Q39.6872 995.721 46.212 995.721 Q52.7369 995.721 56.3653 992.57 Q59.9619 989.419 59.9619 983.722 Q59.9619 981.176 59.2935 978.693 Q58.5933 976.179 57.2247 973.696 L62.6355 973.696 Q63.7814 976.147 64.3543 978.788 Q64.9272 981.398 64.9272 984.358 Q64.9272 992.411 59.8664 997.154 Q54.8057 1001.9 46.212 1001.9 Q37.491 1001.9 32.4939 997.122 Q27.4968 992.316 27.4968 983.977 Q27.4968 981.271 28.0697 978.693 Q28.6108 976.115 29.7248 973.696 Z" fill="#000000" fill-rule="nonzero" fill-opacity="1" /><path clip-path="url(#clip430)" d="M44.7161 933.019 L47.5806 933.019 L47.5806 959.946 Q53.6281 959.564 56.8109 956.318 Q59.9619 953.039 59.9619 947.215 Q59.9619 943.841 59.1344 940.69 Q58.3069 937.507 56.6518 934.388 L62.1899 934.388 Q63.5267 937.539 64.227 940.849 Q64.9272 944.159 64.9272 947.565 Q64.9272 956.095 59.9619 961.092 Q54.9967 966.057 46.5303 966.057 Q37.7774 966.057 32.6531 961.346 Q27.4968 956.604 27.4968 948.583 Q27.4968 941.39 32.1438 937.22 Q36.7589 933.019 44.7161 933.019 M42.9973 938.876 Q38.1912 938.939 35.3266 941.581 Q32.4621 944.191 32.4621 948.52 Q32.4621 953.421 35.2312 956.381 Q38.0002 959.309 43.0292 959.755 L42.9973 938.876 Z" fill="#000000" fill-rule="nonzero" fill-opacity="1" /><path clip-path="url(#clip430)" d="M28.3562 902.686 L28.3562 896.83 L64.0042 896.83 L64.0042 902.686 L28.3562 902.686 M14.479 902.686 L14.479 896.83 L21.895 896.83 L21.895 902.686 L14.479 902.686 Z" fill="#000000" fill-rule="nonzero" fill-opacity="1" /><path clip-path="url(#clip430)" d="M42.4881 854.944 L64.0042 854.944 L64.0042 860.8 L42.679 860.8 Q37.6183 860.8 35.1038 862.773 Q32.5894 864.747 32.5894 868.694 Q32.5894 873.436 35.6131 876.173 Q38.6368 878.911 43.8567 878.911 L64.0042 878.911 L64.0042 884.799 L28.3562 884.799 L28.3562 878.911 L33.8944 878.911 Q30.6797 876.81 29.0883 873.977 Q27.4968 871.113 27.4968 867.389 Q27.4968 861.246 31.3163 858.095 Q35.1038 854.944 42.4881 854.944 Z" fill="#000000" fill-rule="nonzero" fill-opacity="1" /><path clip-path="url(#clip430)" d="M20.8447 803 Q20.8447 810.002 26.0645 814.139 Q31.2844 818.245 40.2919 818.245 Q49.2675 818.245 54.4874 814.139 Q59.7073 810.002 59.7073 803 Q59.7073 795.997 54.4874 791.923 Q49.2675 787.817 40.2919 787.817 Q31.2844 787.817 26.0645 791.923 Q20.8447 795.997 20.8447 803 M15.6248 803 Q15.6248 793.005 22.3406 787.022 Q29.0246 781.038 40.2919 781.038 Q51.5274 781.038 58.2432 787.022 Q64.9272 793.005 64.9272 803 Q64.9272 813.025 58.2432 819.041 Q51.5592 825.025 40.2919 825.025 Q29.0246 825.025 22.3406 819.041 Q15.6248 813.025 15.6248 803 Z" fill="#000000" fill-rule="nonzero" fill-opacity="1" /><path clip-path="url(#clip430)" d="M29.7248 745.581 L35.1993 745.581 Q33.8307 748.063 33.1623 750.578 Q32.4621 753.061 32.4621 755.607 Q32.4621 761.304 36.0905 764.455 Q39.6872 767.606 46.212 767.606 Q52.7369 767.606 56.3653 764.455 Q59.9619 761.304 59.9619 755.607 Q59.9619 753.061 59.2935 750.578 Q58.5933 748.063 57.2247 745.581 L62.6355 745.581 Q63.7814 748.032 64.3543 750.673 Q64.9272 753.283 64.9272 756.243 Q64.9272 764.296 59.8664 769.038 Q54.8057 773.781 46.212 773.781 Q37.491 773.781 32.4939 769.007 Q27.4968 764.201 27.4968 755.861 Q27.4968 753.156 28.0697 750.578 Q28.6108 748 29.7248 745.581 Z" fill="#000000" fill-rule="nonzero" fill-opacity="1" /><path clip-path="url(#clip430)" d="M29.7248 709.742 L35.1993 709.742 Q33.8307 712.225 33.1623 714.739 Q32.4621 717.222 32.4621 719.768 Q32.4621 725.465 36.0905 728.616 Q39.6872 731.767 46.212 731.767 Q52.7369 731.767 56.3653 728.616 Q59.9619 725.465 59.9619 719.768 Q59.9619 717.222 59.2935 714.739 Q58.5933 712.225 57.2247 709.742 L62.6355 709.742 Q63.7814 712.193 64.3543 714.834 Q64.9272 717.444 64.9272 720.404 Q64.9272 728.457 59.8664 733.2 Q54.8057 737.942 46.212 737.942 Q37.491 737.942 32.4939 733.168 Q27.4968 728.362 27.4968 720.023 Q27.4968 717.317 28.0697 714.739 Q28.6108 712.161 29.7248 709.742 Z" fill="#000000" fill-rule="nonzero" fill-opacity="1" /><path clip-path="url(#clip430)" d="M49.9359 700.162 L28.3562 700.162 L28.3562 694.305 L49.7131 694.305 Q54.7739 694.305 57.3202 692.332 Q59.8346 690.358 59.8346 686.412 Q59.8346 681.669 56.8109 678.932 Q53.7872 676.163 48.5673 676.163 L28.3562 676.163 L28.3562 670.306 L64.0042 670.306 L64.0042 676.163 L58.5296 676.163 Q61.7762 678.295 63.3676 681.128 Q64.9272 683.929 64.9272 687.653 Q64.9272 693.796 61.1078 696.979 Q57.2883 700.162 49.9359 700.162 M27.4968 685.425 L27.4968 685.425 Z" fill="#000000" fill-rule="nonzero" fill-opacity="1" /><path clip-path="url(#clip430)" d="M58.657 652.578 L77.5631 652.578 L77.5631 658.466 L28.3562 658.466 L28.3562 652.578 L33.7671 652.578 Q30.5842 650.732 29.0564 647.931 Q27.4968 645.098 27.4968 641.183 Q27.4968 634.69 32.6531 630.648 Q37.8093 626.574 46.212 626.574 Q54.6147 626.574 59.771 630.648 Q64.9272 634.69 64.9272 641.183 Q64.9272 645.098 63.3994 647.931 Q61.8398 650.732 58.657 652.578 M46.212 632.653 Q39.7508 632.653 36.0905 635.327 Q32.3984 637.969 32.3984 642.616 Q32.3984 647.262 36.0905 649.936 Q39.7508 652.578 46.212 652.578 Q52.6732 652.578 56.3653 649.936 Q60.0256 647.262 60.0256 642.616 Q60.0256 637.969 56.3653 635.327 Q52.6732 632.653 46.212 632.653 Z" fill="#000000" fill-rule="nonzero" fill-opacity="1" /><path clip-path="url(#clip430)" d="M28.3562 616.866 L28.3562 611.01 L64.0042 611.01 L64.0042 616.866 L28.3562 616.866 M14.479 616.866 L14.479 611.01 L21.895 611.01 L21.895 616.866 L14.479 616.866 Z" fill="#000000" fill-rule="nonzero" fill-opacity="1" /><path clip-path="url(#clip430)" d="M44.7161 568.264 L47.5806 568.264 L47.5806 595.191 Q53.6281 594.809 56.8109 591.563 Q59.9619 588.284 59.9619 582.46 Q59.9619 579.086 59.1344 575.935 Q58.3069 572.752 56.6518 569.633 L62.1899 569.633 Q63.5267 572.784 64.227 576.094 Q64.9272 579.404 64.9272 582.81 Q64.9272 591.34 59.9619 596.337 Q54.9967 601.302 46.5303 601.302 Q37.7774 601.302 32.6531 596.591 Q27.4968 591.849 27.4968 583.828 Q27.4968 576.635 32.1438 572.465 Q36.7589 568.264 44.7161 568.264 M42.9973 574.121 Q38.1912 574.184 35.3266 576.826 Q32.4621 579.436 32.4621 583.765 Q32.4621 588.666 35.2312 591.626 Q38.0002 594.554 43.0292 595 L42.9973 574.121 Z" fill="#000000" fill-rule="nonzero" fill-opacity="1" /><path clip-path="url(#clip430)" d="M33.7671 535.194 L14.479 535.194 L14.479 529.338 L64.0042 529.338 L64.0042 535.194 L58.657 535.194 Q61.8398 537.04 63.3994 539.873 Q64.9272 542.674 64.9272 546.621 Q64.9272 553.082 59.771 557.156 Q54.6147 561.198 46.212 561.198 Q37.8093 561.198 32.6531 557.156 Q27.4968 553.082 27.4968 546.621 Q27.4968 542.674 29.0564 539.873 Q30.5842 537.04 33.7671 535.194 M46.212 555.151 Q52.6732 555.151 56.3653 552.509 Q60.0256 549.835 60.0256 545.188 Q60.0256 540.541 56.3653 537.868 Q52.6732 535.194 46.212 535.194 Q39.7508 535.194 36.0905 537.868 Q32.3984 540.541 32.3984 545.188 Q32.3984 549.835 36.0905 552.509 Q39.7508 555.151 46.212 555.151 Z" fill="#000000" fill-rule="nonzero" fill-opacity="1" /><path clip-path="url(#clip430)" d="M43.5384 520.235 L43.5384 503.079 L48.7583 503.079 L48.7583 520.235 L43.5384 520.235 Z" fill="#000000" fill-rule="nonzero" fill-opacity="1" /><path clip-path="url(#clip430)" d="M16.4842 493.499 L16.4842 463.453 L21.895 463.453 L21.895 487.069 L35.9632 487.069 L35.9632 464.439 L41.3741 464.439 L41.3741 487.069 L58.5933 487.069 L58.5933 462.88 L64.0042 462.88 L64.0042 493.499 L16.4842 493.499 Z" fill="#000000" fill-rule="nonzero" fill-opacity="1" /><path clip-path="url(#clip430)" d="M28.3562 422.935 L45.7028 435.826 L64.0042 422.267 L64.0042 429.173 L49.9996 439.549 L64.0042 449.926 L64.0042 456.832 L45.3526 442.987 L28.3562 455.655 L28.3562 448.748 L41.0558 439.295 L28.3562 429.842 L28.3562 422.935 Z" fill="#000000" fill-rule="nonzero" fill-opacity="1" /><path clip-path="url(#clip430)" d="M58.657 408.326 L77.5631 408.326 L77.5631 414.214 L28.3562 414.214 L28.3562 408.326 L33.7671 408.326 Q30.5842 406.48 29.0564 403.679 Q27.4968 400.846 27.4968 396.931 Q27.4968 390.438 32.6531 386.396 Q37.8093 382.322 46.212 382.322 Q54.6147 382.322 59.771 386.396 Q64.9272 390.438 64.9272 396.931 Q64.9272 400.846 63.3994 403.679 Q61.8398 406.48 58.657 408.326 M46.212 388.401 Q39.7508 388.401 36.0905 391.075 Q32.3984 393.716 32.3984 398.363 Q32.3984 403.01 36.0905 405.684 Q39.7508 408.326 46.212 408.326 Q52.6732 408.326 56.3653 405.684 Q60.0256 403.01 60.0256 398.363 Q60.0256 393.716 56.3653 391.075 Q52.6732 388.401 46.212 388.401 Z" fill="#000000" fill-rule="nonzero" fill-opacity="1" /><path clip-path="url(#clip430)" d="M32.4621 358.801 Q32.4621 363.511 36.1542 366.248 Q39.8145 368.986 46.212 368.986 Q52.6095 368.986 56.3017 366.28 Q59.9619 363.543 59.9619 358.801 Q59.9619 354.122 56.2698 351.384 Q52.5777 348.647 46.212 348.647 Q39.8781 348.647 36.186 351.384 Q32.4621 354.122 32.4621 358.801 M27.4968 358.801 Q27.4968 351.162 32.4621 346.801 Q37.4273 342.441 46.212 342.441 Q54.9649 342.441 59.9619 346.801 Q64.9272 351.162 64.9272 358.801 Q64.9272 366.471 59.9619 370.832 Q54.9649 375.16 46.212 375.16 Q37.4273 375.16 32.4621 370.832 Q27.4968 366.471 27.4968 358.801 Z" fill="#000000" fill-rule="nonzero" fill-opacity="1" /><path clip-path="url(#clip430)" d="M29.4065 310.007 L34.9447 310.007 Q33.6716 312.49 33.035 315.164 Q32.3984 317.837 32.3984 320.702 Q32.3984 325.062 33.7352 327.258 Q35.072 329.423 37.7456 329.423 Q39.7826 329.423 40.9603 327.863 Q42.1061 326.304 43.1565 321.593 L43.6021 319.588 Q44.9389 313.349 47.3897 310.739 Q49.8086 308.098 54.1691 308.098 Q59.1344 308.098 62.0308 312.044 Q64.9272 315.959 64.9272 322.834 Q64.9272 325.699 64.3543 328.818 Q63.8132 331.905 62.6992 335.343 L56.6518 335.343 Q58.3387 332.096 59.198 328.945 Q60.0256 325.794 60.0256 322.707 Q60.0256 318.569 58.6251 316.341 Q57.1929 314.113 54.6147 314.113 Q52.2276 314.113 50.9545 315.736 Q49.6813 317.328 48.5037 322.771 L48.0262 324.808 Q46.8804 330.25 44.5251 332.669 Q42.138 335.088 38.0002 335.088 Q32.9713 335.088 30.2341 331.523 Q27.4968 327.959 27.4968 321.402 Q27.4968 318.155 27.9743 315.291 Q28.4517 312.426 29.4065 310.007 Z" fill="#000000" fill-rule="nonzero" fill-opacity="1" /><path clip-path="url(#clip430)" d="M49.9359 299.377 L28.3562 299.377 L28.3562 293.52 L49.7131 293.52 Q54.7739 293.52 57.3202 291.547 Q59.8346 289.573 59.8346 285.627 Q59.8346 280.884 56.8109 278.147 Q53.7872 275.378 48.5673 275.378 L28.3562 275.378 L28.3562 269.521 L64.0042 269.521 L64.0042 275.378 L58.5296 275.378 Q61.7762 277.51 63.3676 280.343 Q64.9272 283.144 64.9272 286.868 Q64.9272 293.011 61.1078 296.194 Q57.2883 299.377 49.9359 299.377 M27.4968 284.64 L27.4968 284.64 Z" fill="#000000" fill-rule="nonzero" fill-opacity="1" /><path clip-path="url(#clip430)" d="M33.8307 236.802 Q33.2578 237.788 33.0032 238.966 Q32.7167 240.112 32.7167 241.512 Q32.7167 246.478 35.9632 249.151 Q39.1779 251.793 45.2253 251.793 L64.0042 251.793 L64.0042 257.681 L28.3562 257.681 L28.3562 251.793 L33.8944 251.793 Q30.6479 249.947 29.0883 246.987 Q27.4968 244.027 27.4968 239.794 Q27.4968 239.189 27.5923 238.457 Q27.656 237.725 27.8151 236.834 L33.8307 236.802 Z" fill="#000000" fill-rule="nonzero" fill-opacity="1" /><path clip-path="url(#clip430)" d="M44.7161 201.599 L47.5806 201.599 L47.5806 228.526 Q53.6281 228.144 56.8109 224.898 Q59.9619 221.62 59.9619 215.795 Q59.9619 212.421 59.1344 209.27 Q58.3069 206.087 56.6518 202.968 L62.1899 202.968 Q63.5267 206.119 64.227 209.429 Q64.9272 212.739 64.9272 216.145 Q64.9272 224.675 59.9619 229.672 Q54.9967 234.637 46.5303 234.637 Q37.7774 234.637 32.6531 229.927 Q27.4968 225.184 27.4968 217.164 Q27.4968 209.97 32.1438 205.801 Q36.7589 201.599 44.7161 201.599 M42.9973 207.456 Q38.1912 207.519 35.3266 210.161 Q32.4621 212.771 32.4621 217.1 Q32.4621 222.001 35.2312 224.962 Q38.0002 227.89 43.0292 228.335 L42.9973 207.456 Z" fill="#000000" fill-rule="nonzero" fill-opacity="1" /><polyline clip-path="url(#clip432)" style="stroke:#009af9; stroke-linecap:round; stroke-linejoin:round; stroke-width:10; stroke-opacity:1; fill:none" points="360.823,1141.79 651.906,1183.06 822.179,1222.9 942.99,1244.7 1036.7,1251.99 1113.26,1242.68 1178,1229.27 1234.07,1214.46 1283.54,1201.82 1327.78,1188.47 1367.81,1174.29 1404.35,1161.76 1437.96,1149.78 1469.08,1137.68 1498.05,1127.45 1525.16,1118.08 1550.62,1108.99 1574.62,1100.06 1597.32,1092 1618.86,1084.63 1639.35,1077.71 1658.89,1070.78 1677.56,1065.08 1695.43,1059.8 1712.57,1054.79 1729.04,1050.26 1744.89,1046.1 1760.16,1042.08 1774.9,1038.56 1789.14,1035.09 1802.91,1031.8 1816.24,1029.01 1829.16,1026.03 1841.7,1023.63 1853.87,1021.6 1865.7,1019.87 1877.21,1018.38 1888.41,1017.11 1899.32,1016.12 1909.95,1014.89 1920.32,1014.04 1930.44,1013.36 1940.32,1013.05 1949.97,1012.73 1959.41,1012.19 1968.64,1011.91 1977.67,1011.64 1986.51,1011.33 1995.17,1010.94 2003.66,1010.68 2011.97,1010.51 2020.13,1010.29 2028.12,1009.97 2035.97,1009.63 2043.68,1009.34 2051.25,1009.32 2058.68,1009.08 2065.98,1009.31 2073.16,1009.19 2080.22,1009.09 2087.16,1009.17 2093.99,1009.25 2100.71,1009.33 2107.32,1009.06 2113.83,1008.76 2120.25,1008.6 2126.56,1008.43 2132.78,1008.01 2138.91,1007.59 2144.95,1007.3 2150.91,1007.02 2156.79,1006.74 2162.58,1006.82 2168.29,1007.03 2173.93,1007.02 2179.49,1006.62 2184.98,1006.48 2190.4,1006.39 2195.75,1006.13 2201.03,1005.86 2206.25,1005.63 2211.4,1005.76 2216.49,1005.88 2221.52,1006.01 2226.49,1006.14 2231.4,1006.15 2236.26,1005.97 2241.06,1005.82 2245.8,1005.75 2250.49,1005.69 2255.13,1005.63 2259.72,1005.71 2264.26,1005.83 2268.75,1005.71 2273.2,1005.6 2277.6,1005.48 2281.95,1005.36 2286.25,1005.24 2290.52,1005.18 2294.74,1005.18 "/>
<polyline clip-path="url(#clip432)" style="stroke:#e26f46; stroke-linecap:round; stroke-linejoin:round; stroke-width:10; stroke-opacity:1; fill:none" points="360.823,1144.25 651.906,1190.29 822.179,1234.74 942.99,1257.56 1036.7,1261.97 1113.26,1247.74 1178,1227.77 1234.07,1206.3 1283.54,1186.79 1327.78,1166.44 1367.81,1144.97 1404.35,1125.91 1437.96,1107.92 1469.08,1089.29 1498.05,1071.73 1525.16,1055.29 1550.62,1039.98 1574.62,1025.23 1597.32,1011.68 1618.86,998.876 1639.35,986.909 1658.89,975.425 1677.56,965.533 1695.43,956.218 1712.57,946.693 1729.04,937.84 1744.89,930.215 1760.16,923.166 1774.9,916.04 1789.14,909.904 1802.91,903.783 1816.24,898.192 1829.16,893.626 1841.7,889.31 1853.87,885.152 1865.7,881.157 1877.21,877.279 1888.41,873.694 1899.32,870.719 1909.95,867.921 1920.32,865.361 1930.44,863.029 1940.32,860.966 1949.97,859.452 1959.41,857.713 1968.64,856.149 1977.67,854.873 1986.51,853.613 1995.17,852.048 2003.66,850.647 2011.97,849.346 2020.13,848.077 2028.12,846.89 2035.97,845.717 2043.68,844.557 2051.25,843.41 2058.68,842.274 2065.98,841.387 2073.16,840.155 2080.22,839.042 2087.16,838.342 2093.99,837.648 2100.71,836.961 2107.32,836.281 2113.83,835.607 2120.25,834.939 2126.56,834.277 2132.78,833.622 2138.91,833.065 2144.95,832.564 2150.91,832.067 2156.79,831.443 2162.58,830.767 2168.29,830.352 2173.93,829.94 2179.49,829.333 2184.98,828.657 2190.4,828.119 2195.75,827.853 2201.03,827.589 2206.25,827.314 2211.4,826.858 2216.49,826.406 2221.52,825.957 2226.49,825.511 2231.4,825.069 2236.26,824.629 2241.06,824.3 2245.8,824.238 2250.49,824.177 2255.13,824.116 2259.72,824.055 2264.26,823.995 2268.75,823.697 2273.2,823.4 2277.6,823.104 2281.95,822.81 2286.25,822.518 2290.52,822.373 2294.74,822.373 "/>
<path clip-path="url(#clip432)" d="M360.823 1175.17 L651.906 1230.24 L822.179 1279.73 L942.99 1309.53 L1036.7 1323.09 L1113.26 1319.46 L1178 1311.07 L1234.07 1301.04 L1283.54 1291.24 L1327.78 1281.42 L1367.81 1270.66 L1404.35 1260.45 L1437.96 1251.46 L1469.08 1242.07 L1498.05 1233.83 L1525.16 1226.25 L1550.62 1219.19 L1574.62 1211.83 L1597.32 1205.75 L1618.86 1198.96 L1639.35 1193.36 L1658.89 1188.48 L1677.56 1183.66 L1695.43 1179.55 L1712.57 1175.77 L1729.04 1172.24 L1744.89 1169.06 L1760.16 1166.23 L1774.9 1163.66 L1789.14 1161.56 L1802.91 1159.48 L1816.24 1158.24 L1829.16 1156.94 L1841.7 1155.44 L1853.87 1154.16 L1865.7 1153.47 L1877.21 1152.96 L1888.41 1152.6 L1899.32 1152.24 L1909.95 1152.03 L1920.32 1151.99 L1930.44 1152.09 L1940.32 1152.34 L1949.97 1152.73 L1959.41 1153.12 L1968.64 1153.39 L1977.67 1153.69 L1986.51 1154.23 L1995.17 1154.77 L2003.66 1155.11 L2011.97 1155.37 L2020.13 1155.6 L2028.12 1155.68 L2035.97 1155.77 L2043.68 1156.01 L2051.25 1156.33 L2058.68 1156.66 L2065.98 1156.74 L2073.16 1156.46 L2080.22 1156.25 L2087.16 1156.33 L2093.99 1156.41 L2100.71 1156.48 L2107.32 1156.56 L2113.83 1156.63 L2120.25 1156.71 L2126.56 1156.78 L2132.78 1156.85 L2138.91 1156.93 L2144.95 1157 L2150.91 1157.07 L2156.79 1157.14 L2162.58 1157.21 L2168.29 1157.28 L2173.93 1157.35 L2179.49 1157.42 L2184.98 1157.48 L2190.4 1157.55 L2195.75 1157.62 L2201.03 1157.68 L2206.25 1157.75 L2211.4 1157.81 L2216.49 1157.88 L2221.52 1157.94 L2226.49 1158.01 L2231.4 1158.07 L2236.26 1158.13 L2241.06 1158.19 L2245.8 1158.26 L2250.49 1158.32 L2255.13 1158.38 L2259.72 1158.44 L2264.26 1158.5 L2268.75 1158.56 L2273.2 1158.62 L2277.6 1158.68 L2281.95 1158.74 L2286.25 1158.8 L2290.52 1158.82 L2294.74 1158.82 L2294.74 552.046 L2290.52 552.046 L2286.25 552.19 L2281.95 552.482 L2277.6 552.776 L2273.2 553.072 L2268.75 553.37 L2264.26 553.669 L2259.72 553.971 L2255.13 554.274 L2250.49 554.58 L2245.8 554.888 L2241.06 555.197 L2236.26 555.509 L2231.4 555.823 L2226.49 556.139 L2221.52 556.458 L2216.49 556.778 L2211.4 557.179 L2206.25 558.037 L2201.03 558.954 L2195.75 559.879 L2190.4 560.811 L2184.98 561.705 L2179.49 562.584 L2173.93 563.47 L2168.29 564.362 L2162.58 565.262 L2156.79 566.17 L2150.91 567.085 L2144.95 568.008 L2138.91 568.939 L2132.78 569.954 L2126.56 571.12 L2120.25 572.296 L2113.83 573.483 L2107.32 574.682 L2100.71 575.891 L2093.99 577.112 L2087.16 578.345 L2080.22 579.59 L2073.16 581.08 L2065.98 582.668 L2058.68 584.273 L2051.25 585.895 L2043.68 587.534 L2035.97 589.191 L2028.12 590.867 L2020.13 592.562 L2011.97 594.415 L2003.66 596.323 L1995.17 598.339 L1986.51 600.56 L1977.67 602.81 L1968.64 605.089 L1959.41 607.398 L1949.97 609.996 L1940.32 612.928 L1930.44 616.052 L1920.32 619.376 L1909.95 622.908 L1899.32 626.655 L1888.41 630.564 L1877.21 635.039 L1865.7 639.785 L1853.87 644.783 L1841.7 650.049 L1829.16 655.592 L1816.24 661.426 L1802.91 667.837 L1789.14 674.576 L1774.9 681.646 L1760.16 689.582 L1744.89 697.97 L1729.04 707.147 L1712.57 717.028 L1695.43 727.324 L1677.56 738.122 L1658.89 749.445 L1639.35 761.825 L1618.86 774.849 L1597.32 788.488 L1574.62 802.83 L1550.62 818.779 L1525.16 836.041 L1498.05 854.011 L1469.08 872.192 L1437.96 892.77 L1404.35 913.675 L1367.81 935.249 L1327.78 959.903 L1283.54 985.229 L1234.07 1010.67 L1178 1040.77 L1113.26 1070.61 L1036.7 1098.95 L942.99 1113.98 L822.179 1116.04 L651.906 1116.04 L360.823 1116.04  Z" fill="#0000ff" fill-rule="evenodd" fill-opacity="0.35"/>
<polyline clip-path="url(#clip432)" style="stroke:#0000ff; stroke-linecap:round; stroke-linejoin:round; stroke-width:4; stroke-opacity:0.35; fill:none" points="360.823,1175.17 651.906,1230.24 822.179,1279.73 942.99,1309.53 1036.7,1323.09 1113.26,1319.46 1178,1311.07 1234.07,1301.04 1283.54,1291.24 1327.78,1281.42 1367.81,1270.66 1404.35,1260.45 1437.96,1251.46 1469.08,1242.07 1498.05,1233.83 1525.16,1226.25 1550.62,1219.19 1574.62,1211.83 1597.32,1205.75 1618.86,1198.96 1639.35,1193.36 1658.89,1188.48 1677.56,1183.66 1695.43,1179.55 1712.57,1175.77 1729.04,1172.24 1744.89,1169.06 1760.16,1166.23 1774.9,1163.66 1789.14,1161.56 1802.91,1159.48 1816.24,1158.24 1829.16,1156.94 1841.7,1155.44 1853.87,1154.16 1865.7,1153.47 1877.21,1152.96 1888.41,1152.6 1899.32,1152.24 1909.95,1152.03 1920.32,1151.99 1930.44,1152.09 1940.32,1152.34 1949.97,1152.73 1959.41,1153.12 1968.64,1153.39 1977.67,1153.69 1986.51,1154.23 1995.17,1154.77 2003.66,1155.11 2011.97,1155.37 2020.13,1155.6 2028.12,1155.68 2035.97,1155.77 2043.68,1156.01 2051.25,1156.33 2058.68,1156.66 2065.98,1156.74 2073.16,1156.46 2080.22,1156.25 2087.16,1156.33 2093.99,1156.41 2100.71,1156.48 2107.32,1156.56 2113.83,1156.63 2120.25,1156.71 2126.56,1156.78 2132.78,1156.85 2138.91,1156.93 2144.95,1157 2150.91,1157.07 2156.79,1157.14 2162.58,1157.21 2168.29,1157.28 2173.93,1157.35 2179.49,1157.42 2184.98,1157.48 2190.4,1157.55 2195.75,1157.62 2201.03,1157.68 2206.25,1157.75 2211.4,1157.81 2216.49,1157.88 2221.52,1157.94 2226.49,1158.01 2231.4,1158.07 2236.26,1158.13 2241.06,1158.19 2245.8,1158.26 2250.49,1158.32 2255.13,1158.38 2259.72,1158.44 2264.26,1158.5 2268.75,1158.56 2273.2,1158.62 2277.6,1158.68 2281.95,1158.74 2286.25,1158.8 2290.52,1158.82 2294.74,1158.82 "/>
<path clip-path="url(#clip432)" d="M360.823 1191.69 L651.906 1262.03 L822.179 1324.95 L942.99 1361.17 L1036.7 1375.84 L1113.26 1370.82 L1178 1356.82 L1234.07 1341.84 L1283.54 1330.02 L1327.78 1316.68 L1367.81 1301.95 L1404.35 1289.27 L1437.96 1277.08 L1469.08 1264.74 L1498.05 1253.17 L1525.16 1243.73 L1550.62 1234.17 L1574.62 1224.38 L1597.32 1215.88 L1618.86 1208.22 L1639.35 1201.39 L1658.89 1194.71 L1677.56 1188.59 L1695.43 1182.88 L1712.57 1177.59 L1729.04 1172.05 L1744.89 1167.51 L1760.16 1163.69 L1774.9 1159.76 L1789.14 1156.15 L1802.91 1152.84 L1816.24 1149.83 L1829.16 1147.25 L1841.7 1144.94 L1853.87 1142.88 L1865.7 1141.21 L1877.21 1139.74 L1888.41 1138.17 L1899.32 1136.92 L1909.95 1135.88 L1920.32 1135.04 L1930.44 1134.39 L1940.32 1133.93 L1949.97 1133.65 L1959.41 1133.46 L1968.64 1133.27 L1977.67 1133.09 L1986.51 1132.91 L1995.17 1132.73 L2003.66 1132.56 L2011.97 1132.38 L2020.13 1132.28 L2028.12 1132.45 L2035.97 1132.61 L2043.68 1132.78 L2051.25 1132.94 L2058.68 1133.11 L2065.98 1133.27 L2073.16 1133.43 L2080.22 1133.58 L2087.16 1133.74 L2093.99 1133.89 L2100.71 1134.05 L2107.32 1134.2 L2113.83 1134.5 L2120.25 1134.8 L2126.56 1135.09 L2132.78 1135.39 L2138.91 1135.53 L2144.95 1135.61 L2150.91 1135.68 L2156.79 1135.75 L2162.58 1135.82 L2168.29 1135.89 L2173.93 1135.95 L2179.49 1136.02 L2184.98 1136.09 L2190.4 1136.13 L2195.75 1136.13 L2201.03 1136.13 L2206.25 1136.13 L2211.4 1136.13 L2216.49 1136.13 L2221.52 1136.13 L2226.49 1136.13 L2231.4 1136.13 L2236.26 1136.13 L2241.06 1136.17 L2245.8 1136.29 L2250.49 1136.42 L2255.13 1136.54 L2259.72 1136.66 L2264.26 1136.78 L2268.75 1136.66 L2273.2 1136.55 L2277.6 1136.43 L2281.95 1136.31 L2286.25 1136.19 L2290.52 1136.13 L2294.74 1136.13 L2294.74 85.9411 L2290.52 85.9411 L2286.25 86.2301 L2281.95 86.8145 L2277.6 87.4024 L2273.2 87.9941 L2268.75 88.5895 L2264.26 89.1888 L2259.72 89.7919 L2255.13 90.3989 L2250.49 91.01 L2245.8 91.6252 L2241.06 92.2445 L2236.26 93.2679 L2231.4 94.4609 L2226.49 95.6623 L2221.52 96.8722 L2216.49 98.0907 L2211.4 99.3181 L2206.25 100.555 L2201.03 101.8 L2195.75 103.055 L2190.4 104.32 L2184.98 106.043 L2179.49 108.003 L2173.93 109.979 L2168.29 111.971 L2162.58 113.979 L2156.79 116.003 L2150.91 118.045 L2144.95 120.104 L2138.91 122.18 L2132.78 124.553 L2126.56 127.468 L2120.25 130.409 L2113.83 133.377 L2107.32 136.373 L2100.71 139.397 L2093.99 142.449 L2087.16 145.532 L2080.22 148.645 L2073.16 152.252 L2065.98 156.064 L2058.68 159.915 L2051.25 163.808 L2043.68 167.742 L2035.97 172.092 L2028.12 176.532 L2020.13 181.024 L2011.97 186.332 L2003.66 191.883 L1995.17 197.502 L1986.51 202.804 L1977.67 207.934 L1968.64 213.129 L1959.41 218.393 L1949.97 224.245 L1940.32 230.701 L1930.44 237.424 L1920.32 244.425 L1909.95 251.718 L1899.32 259.315 L1888.41 267.23 L1877.21 276.463 L1865.7 286.126 L1853.87 296.172 L1841.7 306.624 L1829.16 317.399 L1816.24 328.47 L1802.91 342.013 L1789.14 355.953 L1774.9 370.345 L1760.16 385.325 L1744.89 400.925 L1729.04 417.857 L1712.57 435.98 L1695.43 454.81 L1677.56 474.464 L1658.89 494.614 L1639.35 517.075 L1618.86 540.808 L1597.32 565.591 L1574.62 591.581 L1550.62 619.374 L1525.16 648.885 L1498.05 679.658 L1469.08 711.974 L1437.96 746.997 L1404.35 781.593 L1367.81 817 L1327.78 855.581 L1283.54 896.911 L1234.07 937.115 L1178 981.808 L1113.26 1030.73 L1036.7 1075.35 L942.99 1103.66 L822.179 1115.63 L651.906 1116.04 L360.823 1116.04  Z" fill="#ffa500" fill-rule="evenodd" fill-opacity="0.35"/>
<polyline clip-path="url(#clip432)" style="stroke:#ffa500; stroke-linecap:round; stroke-linejoin:round; stroke-width:4; stroke-opacity:0.35; fill:none" points="360.823,1191.69 651.906,1262.03 822.179,1324.95 942.99,1361.17 1036.7,1375.84 1113.26,1370.82 1178,1356.82 1234.07,1341.84 1283.54,1330.02 1327.78,1316.68 1367.81,1301.95 1404.35,1289.27 1437.96,1277.08 1469.08,1264.74 1498.05,1253.17 1525.16,1243.73 1550.62,1234.17 1574.62,1224.38 1597.32,1215.88 1618.86,1208.22 1639.35,1201.39 1658.89,1194.71 1677.56,1188.59 1695.43,1182.88 1712.57,1177.59 1729.04,1172.05 1744.89,1167.51 1760.16,1163.69 1774.9,1159.76 1789.14,1156.15 1802.91,1152.84 1816.24,1149.83 1829.16,1147.25 1841.7,1144.94 1853.87,1142.88 1865.7,1141.21 1877.21,1139.74 1888.41,1138.17 1899.32,1136.92 1909.95,1135.88 1920.32,1135.04 1930.44,1134.39 1940.32,1133.93 1949.97,1133.65 1959.41,1133.46 1968.64,1133.27 1977.67,1133.09 1986.51,1132.91 1995.17,1132.73 2003.66,1132.56 2011.97,1132.38 2020.13,1132.28 2028.12,1132.45 2035.97,1132.61 2043.68,1132.78 2051.25,1132.94 2058.68,1133.11 2065.98,1133.27 2073.16,1133.43 2080.22,1133.58 2087.16,1133.74 2093.99,1133.89 2100.71,1134.05 2107.32,1134.2 2113.83,1134.5 2120.25,1134.8 2126.56,1135.09 2132.78,1135.39 2138.91,1135.53 2144.95,1135.61 2150.91,1135.68 2156.79,1135.75 2162.58,1135.82 2168.29,1135.89 2173.93,1135.95 2179.49,1136.02 2184.98,1136.09 2190.4,1136.13 2195.75,1136.13 2201.03,1136.13 2206.25,1136.13 2211.4,1136.13 2216.49,1136.13 2221.52,1136.13 2226.49,1136.13 2231.4,1136.13 2236.26,1136.13 2241.06,1136.17 2245.8,1136.29 2250.49,1136.42 2255.13,1136.54 2259.72,1136.66 2264.26,1136.78 2268.75,1136.66 2273.2,1136.55 2277.6,1136.43 2281.95,1136.31 2286.25,1136.19 2290.52,1136.13 2294.74,1136.13 "/>
<polyline clip-path="url(#clip432)" style="stroke:#000000; stroke-linecap:round; stroke-linejoin:round; stroke-width:8; stroke-opacity:1; fill:none" stroke-dasharray="32, 20" points="360.823,1116.04 651.906,1116.04 822.179,1116.04 942.99,1116.04 1036.7,1116.04 1113.26,1116.04 1178,1116.04 1234.07,1116.04 1283.54,1116.04 1327.78,1116.04 1367.81,1116.04 1404.35,1116.04 1437.96,1116.04 1469.08,1116.04 1498.05,1116.04 1525.16,1116.04 1550.62,1116.04 1574.62,1116.04 1597.32,1116.04 1618.86,1116.04 1639.35,1116.04 1658.89,1116.04 1677.56,1116.04 1695.43,1116.04 1712.57,1116.04 1729.04,1116.04 1744.89,1116.04 1760.16,1116.04 1774.9,1116.04 1789.14,1116.04 1802.91,1116.04 1816.24,1116.04 1829.16,1116.04 1841.7,1116.04 1853.87,1116.04 1865.7,1116.04 1877.21,1116.04 1888.41,1116.04 1899.32,1116.04 1909.95,1116.04 1920.32,1116.04 1930.44,1116.04 1940.32,1116.04 1949.97,1116.04 1959.41,1116.04 1968.64,1116.04 1977.67,1116.04 1986.51,1116.04 1995.17,1116.04 2003.66,1116.04 2011.97,1116.04 2020.13,1116.04 2028.12,1116.04 2035.97,1116.04 2043.68,1116.04 2051.25,1116.04 2058.68,1116.04 2065.98,1116.04 2073.16,1116.04 2080.22,1116.04 2087.16,1116.04 2093.99,1116.04 2100.71,1116.04 2107.32,1116.04 2113.83,1116.04 2120.25,1116.04 2126.56,1116.04 2132.78,1116.04 2138.91,1116.04 2144.95,1116.04 2150.91,1116.04 2156.79,1116.04 2162.58,1116.04 2168.29,1116.04 2173.93,1116.04 2179.49,1116.04 2184.98,1116.04 2190.4,1116.04 2195.75,1116.04 2201.03,1116.04 2206.25,1116.04 2211.4,1116.04 2216.49,1116.04 2221.52,1116.04 2226.49,1116.04 2231.4,1116.04 2236.26,1116.04 2241.06,1116.04 2245.8,1116.04 2250.49,1116.04 2255.13,1116.04 2259.72,1116.04 2264.26,1116.04 2268.75,1116.04 2273.2,1116.04 2277.6,1116.04 2281.95,1116.04 2286.25,1116.04 2290.52,1116.04 2294.74,1116.04 "/>
<path clip-path="url(#clip430)" d="M1984.41 248.341 L2284.42 248.341 L2284.42 92.8206 L1984.41 92.8206  Z" fill="#ffffff" fill-rule="evenodd" fill-opacity="1"/>
<polyline clip-path="url(#clip430)" style="stroke:#000000; stroke-linecap:round; stroke-linejoin:round; stroke-width:4; stroke-opacity:1; fill:none" points="1984.41,248.341 2284.42,248.341 2284.42,92.8206 1984.41,92.8206 1984.41,248.341 "/>
<polyline clip-path="url(#clip430)" style="stroke:#009af9; stroke-linecap:round; stroke-linejoin:round; stroke-width:10; stroke-opacity:1; fill:none" points="2007.18,144.661 2143.85,144.661 "/>
<path clip-path="url(#clip430)" d="M2188.34 146.293 L2188.34 161.941 L2184.08 161.941 L2184.08 146.431 Q2184.08 142.751 2182.64 140.922 Q2181.21 139.094 2178.34 139.094 Q2174.89 139.094 2172.9 141.293 Q2170.91 143.492 2170.91 147.288 L2170.91 161.941 L2166.62 161.941 L2166.62 125.922 L2170.91 125.922 L2170.91 140.043 Q2172.43 137.705 2174.49 136.547 Q2176.58 135.39 2179.29 135.39 Q2183.75 135.39 2186.05 138.168 Q2188.34 140.922 2188.34 146.293 Z" fill="#000000" fill-rule="nonzero" fill-opacity="1" /><path clip-path="url(#clip430)" d="M2196.83 136.015 L2201.09 136.015 L2201.09 161.941 L2196.83 161.941 L2196.83 136.015 M2196.83 125.922 L2201.09 125.922 L2201.09 131.316 L2196.83 131.316 L2196.83 125.922 Z" fill="#000000" fill-rule="nonzero" fill-opacity="1" /><path clip-path="url(#clip430)" d="M2227.06 148.677 Q2227.06 144.047 2225.14 141.501 Q2223.24 138.955 2219.8 138.955 Q2216.37 138.955 2214.45 141.501 Q2212.55 144.047 2212.55 148.677 Q2212.55 153.283 2214.45 155.83 Q2216.37 158.376 2219.8 158.376 Q2223.24 158.376 2225.14 155.83 Q2227.06 153.283 2227.06 148.677 M2231.32 158.723 Q2231.32 165.343 2228.38 168.561 Q2225.44 171.802 2219.38 171.802 Q2217.13 171.802 2215.14 171.454 Q2213.15 171.13 2211.28 170.436 L2211.28 166.292 Q2213.15 167.311 2214.98 167.797 Q2216.81 168.283 2218.71 168.283 Q2222.9 168.283 2224.98 166.084 Q2227.06 163.908 2227.06 159.487 L2227.06 157.38 Q2225.74 159.672 2223.68 160.806 Q2221.62 161.941 2218.75 161.941 Q2213.99 161.941 2211.07 158.306 Q2208.15 154.672 2208.15 148.677 Q2208.15 142.658 2211.07 139.024 Q2213.99 135.39 2218.75 135.39 Q2221.62 135.39 2223.68 136.524 Q2225.74 137.658 2227.06 139.95 L2227.06 136.015 L2231.32 136.015 L2231.32 158.723 Z" fill="#000000" fill-rule="nonzero" fill-opacity="1" /><path clip-path="url(#clip430)" d="M2261.65 146.293 L2261.65 161.941 L2257.39 161.941 L2257.39 146.431 Q2257.39 142.751 2255.95 140.922 Q2254.52 139.094 2251.65 139.094 Q2248.2 139.094 2246.21 141.293 Q2244.22 143.492 2244.22 147.288 L2244.22 161.941 L2239.93 161.941 L2239.93 125.922 L2244.22 125.922 L2244.22 140.043 Q2245.74 137.705 2247.8 136.547 Q2249.89 135.39 2252.6 135.39 Q2257.06 135.39 2259.36 138.168 Q2261.65 140.922 2261.65 146.293 Z" fill="#000000" fill-rule="nonzero" fill-opacity="1" /><polyline clip-path="url(#clip430)" style="stroke:#e26f46; stroke-linecap:round; stroke-linejoin:round; stroke-width:10; stroke-opacity:1; fill:none" points="2007.18,196.501 2143.85,196.501 "/>
<path clip-path="url(#clip430)" d="M2166.62 177.762 L2170.88 177.762 L2170.88 213.781 L2166.62 213.781 L2166.62 177.762 Z" fill="#000000" fill-rule="nonzero" fill-opacity="1" /><path clip-path="url(#clip430)" d="M2189.84 190.841 Q2186.42 190.841 2184.43 193.526 Q2182.43 196.188 2182.43 200.841 Q2182.43 205.494 2184.4 208.179 Q2186.39 210.841 2189.84 210.841 Q2193.24 210.841 2195.24 208.156 Q2197.23 205.47 2197.23 200.841 Q2197.23 196.234 2195.24 193.549 Q2193.24 190.841 2189.84 190.841 M2189.84 187.23 Q2195.4 187.23 2198.57 190.841 Q2201.74 194.452 2201.74 200.841 Q2201.74 207.207 2198.57 210.841 Q2195.4 214.452 2189.84 214.452 Q2184.26 214.452 2181.09 210.841 Q2177.94 207.207 2177.94 200.841 Q2177.94 194.452 2181.09 190.841 Q2184.26 187.23 2189.84 187.23 Z" fill="#000000" fill-rule="nonzero" fill-opacity="1" /><path clip-path="url(#clip430)" d="M2206.32 187.855 L2210.58 187.855 L2215.91 208.086 L2221.21 187.855 L2226.23 187.855 L2231.55 208.086 L2236.86 187.855 L2241.11 187.855 L2234.33 213.781 L2229.31 213.781 L2223.73 192.531 L2218.13 213.781 L2213.11 213.781 L2206.32 187.855 Z" fill="#000000" fill-rule="nonzero" fill-opacity="1" /></svg>
