<?xml version="1.0" encoding="utf-8"?>
<svg xmlns="http://www.w3.org/2000/svg" xmlns:xlink="http://www.w3.org/1999/xlink" width="600" height="400" viewBox="0 0 2400 1600">
<defs>
  <clipPath id="clip360">
    <rect x="0" y="0" width="2400" height="1600"/>
  </clipPath>
</defs>
<path clip-path="url(#clip360)" d="M0 1600 L2400 1600 L2400 0 L0 0  Z" fill="#ffffff" fill-rule="evenodd" fill-opacity="1"/>
<defs>
  <clipPath id="clip361">
    <rect x="480" y="0" width="1681" height="1600"/>
  </clipPath>
</defs>
<path clip-path="url(#clip360)" d="M340.508 1414.54 L2352.76 1414.54 L2352.76 47.2441 L340.508 47.2441  Z" fill="#ffffff" fill-rule="evenodd" fill-opacity="1"/>
<defs>
  <clipPath id="clip362">
    <rect x="340" y="47" width="2013" height="1368"/>
  </clipPath>
</defs>
<polyline clip-path="url(#clip362)" style="stroke:#000000; stroke-linecap:round; stroke-linejoin:round; stroke-width:2; stroke-opacity:0.1; fill:none" points="397.458,1414.54 397.458,47.2441 "/>
<polyline clip-path="url(#clip362)" style="stroke:#000000; stroke-linecap:round; stroke-linejoin:round; stroke-width:2; stroke-opacity:0.1; fill:none" points="1346.63,1414.54 1346.63,47.2441 "/>
<polyline clip-path="url(#clip362)" style="stroke:#000000; stroke-linecap:round; stroke-linejoin:round; stroke-width:2; stroke-opacity:0.1; fill:none" points="2295.81,1414.54 2295.81,47.2441 "/>
<polyline clip-path="url(#clip360)" style="stroke:#000000; stroke-linecap:round; stroke-linejoin:round; stroke-width:4; stroke-opacity:1; fill:none" points="340.508,1414.54 2352.76,1414.54 "/>
<polyline clip-path="url(#clip360)" style="stroke:#000000; stroke-linecap:round; stroke-linejoin:round; stroke-width:4; stroke-opacity:1; fill:none" points="397.458,1414.54 397.458,1395.64 "/>
<polyline clip-path="url(#clip360)" style="stroke:#000000; stroke-linecap:round; stroke-linejoin:round; stroke-width:4; stroke-opacity:1; fill:none" points="1346.63,1414.54 1346.63,1395.64 "/>
<polyline clip-path="url(#clip360)" style="stroke:#000000; stroke-linecap:round; stroke-linejoin:round; stroke-width:4; stroke-opacity:1; fill:none" points="2295.81,1414.54 2295.81,1395.64 "/>
<path clip-path="url(#clip360)" d="M365.818 1482.82 L375.366 1482.82 L375.366 1449.86 L364.979 1451.95 L364.979 1446.62 L375.309 1444.54 L381.154 1444.54 L381.154 1482.82 L390.702 1482.82 L390.702 1487.74 L365.818 1487.74 L365.818 1482.82 Z" fill="#000000" fill-rule="nonzero" fill-opacity="1" /><path clip-path="url(#clip360)" d="M415.007 1448.39 Q410.494 1448.39 408.208 1452.84 Q405.951 1457.27 405.951 1466.18 Q405.951 1475.07 408.208 1479.52 Q410.494 1483.95 415.007 1483.95 Q419.55 1483.95 421.807 1479.52 Q424.093 1475.07 424.093 1466.18 Q424.093 1457.27 421.807 1452.84 Q419.55 1448.39 415.007 1448.39 M415.007 1443.76 Q422.27 1443.76 426.09 1449.52 Q429.938 1455.25 429.938 1466.18 Q429.938 1477.09 426.09 1482.85 Q422.27 1488.58 415.007 1488.58 Q407.745 1488.58 403.896 1482.85 Q400.077 1477.09 400.077 1466.18 Q400.077 1455.25 403.896 1449.52 Q407.745 1443.76 415.007 1443.76 Z" fill="#000000" fill-rule="nonzero" fill-opacity="1" /><path clip-path="url(#clip360)" d="M1296.14 1482.82 L1305.69 1482.82 L1305.69 1449.86 L1295.3 1451.95 L1295.3 1446.62 L1305.63 1444.54 L1311.48 1444.54 L1311.48 1482.82 L1321.02 1482.82 L1321.02 1487.74 L1296.14 1487.74 L1296.14 1482.82 Z" fill="#000000" fill-rule="nonzero" fill-opacity="1" /><path clip-path="url(#clip360)" d="M1345.33 1448.39 Q1340.82 1448.39 1338.53 1452.84 Q1336.27 1457.27 1336.27 1466.18 Q1336.27 1475.07 1338.53 1479.52 Q1340.82 1483.95 1345.33 1483.95 Q1349.87 1483.95 1352.13 1479.52 Q1354.42 1475.07 1354.42 1466.18 Q1354.42 1457.27 1352.13 1452.84 Q1349.87 1448.39 1345.33 1448.39 M1345.33 1443.76 Q1352.59 1443.76 1356.41 1449.52 Q1360.26 1455.25 1360.26 1466.18 Q1360.26 1477.09 1356.41 1482.85 Q1352.59 1488.58 1345.33 1488.58 Q1338.07 1488.58 1334.22 1482.85 Q1330.4 1477.09 1330.4 1466.18 Q1330.4 1455.25 1334.22 1449.52 Q1338.07 1443.76 1345.33 1443.76 Z" fill="#000000" fill-rule="nonzero" fill-opacity="1" /><path clip-path="url(#clip360)" d="M1383.03 1448.39 Q1378.52 1448.39 1376.23 1452.84 Q1373.98 1457.27 1373.98 1466.18 Q1373.98 1475.07 1376.23 1479.52 Q1378.52 1483.95 1383.03 1483.95 Q1387.58 1483.95 1389.83 1479.52 Q1392.12 1475.07 1392.12 1466.18 Q1392.12 1457.27 1389.83 1452.84 Q1387.58 1448.39 1383.03 1448.39 M1383.03 1443.76 Q1390.29 1443.76 1394.11 1449.52 Q1397.96 1455.25 1397.96 1466.18 Q1397.96 1477.09 1394.11 1482.85 Q1390.29 1488.58 1383.03 1488.58 Q1375.77 1488.58 1371.92 1482.85 Q1368.1 1477.09 1368.1 1466.18 Q1368.1 1455.25 1371.92 1449.52 Q1375.77 1443.76 1383.03 1443.76 Z" fill="#000000" fill-rule="nonzero" fill-opacity="1" /><path clip-path="url(#clip360)" d="M2226.46 1482.82 L2236.01 1482.82 L2236.01 1449.86 L2225.62 1451.95 L2225.62 1446.62 L2235.95 1444.54 L2241.8 1444.54 L2241.8 1482.82 L2251.35 1482.82 L2251.35 1487.74 L2226.46 1487.74 L2226.46 1482.82 Z" fill="#000000" fill-rule="nonzero" fill-opacity="1" /><path clip-path="url(#clip360)" d="M2275.65 1448.39 Q2271.14 1448.39 2268.85 1452.84 Q2266.6 1457.27 2266.6 1466.18 Q2266.6 1475.07 2268.85 1479.52 Q2271.14 1483.95 2275.65 1483.95 Q2280.2 1483.95 2282.45 1479.52 Q2284.74 1475.07 2284.74 1466.18 Q2284.74 1457.27 2282.45 1452.84 Q2280.2 1448.39 2275.65 1448.39 M2275.65 1443.76 Q2282.91 1443.76 2286.73 1449.52 Q2290.58 1455.25 2290.58 1466.18 Q2290.58 1477.09 2286.73 1482.85 Q2282.91 1488.58 2275.65 1488.58 Q2268.39 1488.58 2264.54 1482.85 Q2260.72 1477.09 2260.72 1466.18 Q2260.72 1455.25 2264.54 1449.52 Q2268.39 1443.76 2275.65 1443.76 Z" fill="#000000" fill-rule="nonzero" fill-opacity="1" /><path clip-path="url(#clip360)" d="M2313.35 1448.39 Q2308.84 1448.39 2306.55 1452.84 Q2304.3 1457.27 2304.3 1466.18 Q2304.3 1475.07 2306.55 1479.52 Q2308.84 1483.95 2313.35 1483.95 Q2317.9 1483.95 2320.15 1479.52 Q2322.44 1475.07 2322.44 1466.18 Q2322.44 1457.27 2320.15 1452.84 Q2317.9 1448.39 2313.35 1448.39 M2313.35 1443.76 Q2320.62 1443.76 2324.44 1449.52 Q2328.29 1455.25 2328.29 1466.18 Q2328.29 1477.09 2324.44 1482.85 Q2320.62 1488.58 2313.35 1488.58 Q2306.09 1488.58 2302.24 1482.85 Q2298.42 1477.09 2298.42 1466.18 Q2298.42 1455.25 2302.24 1449.52 Q2306.09 1443.76 2313.35 1443.76 Z" fill="#000000" fill-rule="nonzero" fill-opacity="1" /><path clip-path="url(#clip360)" d="M2351.06 1448.39 Q2346.54 1448.39 2344.26 1452.84 Q2342 1457.27 2342 1466.18 Q2342 1475.07 2344.26 1479.52 Q2346.54 1483.95 2351.06 1483.95 Q2355.6 1483.95 2357.86 1479.52 Q2360.14 1475.07 2360.14 1466.18 Q2360.14 1457.27 2357.86 1452.84 Q2355.6 1448.39 2351.06 1448.39 M2351.06 1443.76 Q2358.32 1443.76 2362.14 1449.52 Q2365.99 1455.25 2365.99 1466.18 Q2365.99 1477.09 2362.14 1482.85 Q2358.32 1488.58 2351.06 1488.58 Q2343.79 1488.58 2339.95 1482.85 Q2336.13 1477.09 2336.13 1466.18 Q2336.13 1455.25 2339.95 1449.52 Q2343.79 1443.76 2351.06 1443.76 Z" fill="#000000" fill-rule="nonzero" fill-opacity="1" /><path clip-path="url(#clip360)" d="M1033.25 1550.08 Q1035.32 1550.78 1037.26 1553.08 Q1039.23 1555.37 1041.21 1559.38 L1047.73 1572.36 L1040.82 1572.36 L1034.74 1560.17 Q1032.39 1555.4 1030.16 1553.84 Q1027.96 1552.28 1024.15 1552.28 L1017.14 1552.28 L1017.14 1572.36 L1010.71 1572.36 L1010.71 1524.84 L1025.23 1524.84 Q1033.38 1524.84 1037.39 1528.25 Q1041.4 1531.66 1041.4 1538.53 Q1041.4 1543.02 1039.3 1545.98 Q1037.23 1548.94 1033.25 1550.08 M1017.14 1530.13 L1017.14 1547 L1025.23 1547 Q1029.87 1547 1032.23 1544.86 Q1034.62 1542.7 1034.62 1538.53 Q1034.62 1534.36 1032.23 1532.26 Q1029.87 1530.13 1025.23 1530.13 L1017.14 1530.13 Z" fill="#000000" fill-rule="nonzero" fill-opacity="1" /><path clip-path="url(#clip360)" d="M1083.31 1553.08 L1083.31 1555.94 L1056.39 1555.94 Q1056.77 1561.99 1060.02 1565.17 Q1063.29 1568.32 1069.12 1568.32 Q1072.49 1568.32 1075.64 1567.49 Q1078.83 1566.67 1081.95 1565.01 L1081.95 1570.55 Q1078.79 1571.89 1075.48 1572.59 Q1072.17 1573.29 1068.77 1573.29 Q1060.24 1573.29 1055.24 1568.32 Q1050.28 1563.36 1050.28 1554.89 Q1050.28 1546.14 1054.99 1541.01 Q1059.73 1535.86 1067.75 1535.86 Q1074.94 1535.86 1079.11 1540.5 Q1083.31 1545.12 1083.31 1553.08 M1077.46 1551.36 Q1077.39 1546.55 1074.75 1543.69 Q1072.14 1540.82 1067.81 1540.82 Q1062.91 1540.82 1059.95 1543.59 Q1057.02 1546.36 1056.58 1551.39 L1077.46 1551.36 Z" fill="#000000" fill-rule="nonzero" fill-opacity="1" /><path clip-path="url(#clip360)" d="M1098.72 1526.59 L1098.72 1536.72 L1110.78 1536.72 L1110.78 1541.27 L1098.72 1541.27 L1098.72 1560.62 Q1098.72 1564.98 1099.9 1566.22 Q1101.11 1567.46 1104.77 1567.46 L1110.78 1567.46 L1110.78 1572.36 L1104.77 1572.36 Q1097.99 1572.36 1095.41 1569.85 Q1092.83 1567.3 1092.83 1560.62 L1092.83 1541.27 L1088.53 1541.27 L1088.53 1536.72 L1092.83 1536.72 L1092.83 1526.59 L1098.72 1526.59 Z" fill="#000000" fill-rule="nonzero" fill-opacity="1" /><path clip-path="url(#clip360)" d="M1117.88 1558.3 L1117.88 1536.72 L1123.74 1536.72 L1123.74 1558.07 Q1123.74 1563.13 1125.71 1565.68 Q1127.68 1568.19 1131.63 1568.19 Q1136.37 1568.19 1139.11 1565.17 Q1141.88 1562.15 1141.88 1556.93 L1141.88 1536.72 L1147.74 1536.72 L1147.74 1572.36 L1141.88 1572.36 L1141.88 1566.89 Q1139.75 1570.14 1136.91 1571.73 Q1134.11 1573.29 1130.39 1573.29 Q1124.25 1573.29 1121.06 1569.47 Q1117.88 1565.65 1117.88 1558.3 M1132.62 1535.86 L1132.62 1535.86 Z" fill="#000000" fill-rule="nonzero" fill-opacity="1" /><path clip-path="url(#clip360)" d="M1180.46 1542.19 Q1179.47 1541.62 1178.29 1541.36 Q1177.15 1541.08 1175.74 1541.08 Q1170.78 1541.08 1168.11 1544.32 Q1165.46 1547.54 1165.46 1553.59 L1165.46 1572.36 L1159.58 1572.36 L1159.58 1536.72 L1165.46 1536.72 L1165.46 1542.25 Q1167.31 1539.01 1170.27 1537.45 Q1173.23 1535.86 1177.46 1535.86 Q1178.07 1535.86 1178.8 1535.95 Q1179.53 1536.02 1180.42 1536.17 L1180.46 1542.19 Z" fill="#000000" fill-rule="nonzero" fill-opacity="1" /><path clip-path="url(#clip360)" d="M1215.08 1550.85 L1215.08 1572.36 L1209.23 1572.36 L1209.23 1551.04 Q1209.23 1545.98 1207.25 1543.46 Q1205.28 1540.95 1201.33 1540.95 Q1196.59 1540.95 1193.85 1543.97 Q1191.12 1547 1191.12 1552.22 L1191.12 1572.36 L1185.23 1572.36 L1185.23 1536.72 L1191.12 1536.72 L1191.12 1542.25 Q1193.22 1539.04 1196.05 1537.45 Q1198.92 1535.86 1202.64 1535.86 Q1208.78 1535.86 1211.93 1539.68 Q1215.08 1543.46 1215.08 1550.85 Z" fill="#000000" fill-rule="nonzero" fill-opacity="1" /><path clip-path="url(#clip360)" d="M1254.17 1530.13 L1254.17 1547.98 L1262.25 1547.98 Q1266.74 1547.98 1269.19 1545.66 Q1271.64 1543.34 1271.64 1539.04 Q1271.64 1534.77 1269.19 1532.45 Q1266.74 1530.13 1262.25 1530.13 L1254.17 1530.13 M1247.74 1524.84 L1262.25 1524.84 Q1270.24 1524.84 1274.32 1528.47 Q1278.42 1532.07 1278.42 1539.04 Q1278.42 1546.07 1274.32 1549.67 Q1270.24 1553.27 1262.25 1553.27 L1254.17 1553.27 L1254.17 1572.36 L1247.74 1572.36 L1247.74 1524.84 Z" fill="#000000" fill-rule="nonzero" fill-opacity="1" /><path clip-path="url(#clip360)" d="M1314.96 1553.08 L1314.96 1555.94 L1288.04 1555.94 Q1288.42 1561.99 1291.66 1565.17 Q1294.94 1568.32 1300.77 1568.32 Q1304.14 1568.32 1307.29 1567.49 Q1310.47 1566.67 1313.59 1565.01 L1313.59 1570.55 Q1310.44 1571.89 1307.13 1572.59 Q1303.82 1573.29 1300.42 1573.29 Q1291.89 1573.29 1286.89 1568.32 Q1281.92 1563.36 1281.92 1554.89 Q1281.92 1546.14 1286.64 1541.01 Q1291.38 1535.86 1299.4 1535.86 Q1306.59 1535.86 1310.76 1540.5 Q1314.96 1545.12 1314.96 1553.08 M1309.11 1551.36 Q1309.04 1546.55 1306.4 1543.69 Q1303.79 1540.82 1299.46 1540.82 Q1294.56 1540.82 1291.6 1543.59 Q1288.67 1546.36 1288.23 1551.39 L1309.11 1551.36 Z" fill="#000000" fill-rule="nonzero" fill-opacity="1" /><path clip-path="url(#clip360)" d="M1345.23 1542.19 Q1344.24 1541.62 1343.07 1541.36 Q1341.92 1541.08 1340.52 1541.08 Q1335.56 1541.08 1332.88 1544.32 Q1330.24 1547.54 1330.24 1553.59 L1330.24 1572.36 L1324.35 1572.36 L1324.35 1536.72 L1330.24 1536.72 L1330.24 1542.25 Q1332.09 1539.01 1335.05 1537.45 Q1338.01 1535.86 1342.24 1535.86 Q1342.84 1535.86 1343.58 1535.95 Q1344.31 1536.02 1345.2 1536.17 L1345.23 1542.19 Z" fill="#000000" fill-rule="nonzero" fill-opacity="1" /><path clip-path="url(#clip360)" d="M1351.37 1536.72 L1357.23 1536.72 L1357.23 1572.36 L1351.37 1572.36 L1351.37 1536.72 M1351.37 1522.84 L1357.23 1522.84 L1357.23 1530.25 L1351.37 1530.25 L1351.37 1522.84 Z" fill="#000000" fill-rule="nonzero" fill-opacity="1" /><path clip-path="url(#clip360)" d="M1383.3 1540.82 Q1378.59 1540.82 1375.85 1544.51 Q1373.11 1548.17 1373.11 1554.57 Q1373.11 1560.97 1375.82 1564.66 Q1378.56 1568.32 1383.3 1568.32 Q1387.98 1568.32 1390.71 1564.63 Q1393.45 1560.94 1393.45 1554.57 Q1393.45 1548.24 1390.71 1544.55 Q1387.98 1540.82 1383.3 1540.82 M1383.3 1535.86 Q1390.94 1535.86 1395.3 1540.82 Q1399.66 1545.79 1399.66 1554.57 Q1399.66 1563.32 1395.3 1568.32 Q1390.94 1573.29 1383.3 1573.29 Q1375.63 1573.29 1371.27 1568.32 Q1366.94 1563.32 1366.94 1554.57 Q1366.94 1545.79 1371.27 1540.82 Q1375.63 1535.86 1383.3 1535.86 Z" fill="#000000" fill-rule="nonzero" fill-opacity="1" /><path clip-path="url(#clip360)" d="M1432.82 1542.13 L1432.82 1522.84 L1438.68 1522.84 L1438.68 1572.36 L1432.82 1572.36 L1432.82 1567.02 Q1430.98 1570.2 1428.14 1571.76 Q1425.34 1573.29 1421.4 1573.29 Q1414.94 1573.29 1410.86 1568.13 Q1406.82 1562.97 1406.82 1554.57 Q1406.82 1546.17 1410.86 1541.01 Q1414.94 1535.86 1421.4 1535.86 Q1425.34 1535.86 1428.14 1537.42 Q1430.98 1538.94 1432.82 1542.13 M1412.87 1554.57 Q1412.87 1561.03 1415.51 1564.72 Q1418.18 1568.39 1422.83 1568.39 Q1427.48 1568.39 1430.15 1564.72 Q1432.82 1561.03 1432.82 1554.57 Q1432.82 1548.11 1430.15 1544.45 Q1427.48 1540.76 1422.83 1540.76 Q1418.18 1540.76 1415.51 1544.45 Q1412.87 1548.11 1412.87 1554.57 Z" fill="#000000" fill-rule="nonzero" fill-opacity="1" /><path clip-path="url(#clip360)" d="M1485.53 1522.9 Q1481.27 1530.22 1479.2 1537.38 Q1477.13 1544.55 1477.13 1551.9 Q1477.13 1559.25 1479.2 1566.48 Q1481.3 1573.67 1485.53 1580.96 L1480.44 1580.96 Q1475.66 1573.48 1473.28 1566.25 Q1470.92 1559.03 1470.92 1551.9 Q1470.92 1544.8 1473.28 1537.61 Q1475.63 1530.41 1480.44 1522.9 L1485.53 1522.9 Z" fill="#000000" fill-rule="nonzero" fill-opacity="1" /><path clip-path="url(#clip360)" d="M1490.62 1524.84 L1497.53 1524.84 L1510.71 1544.39 L1523.79 1524.84 L1530.7 1524.84 L1513.89 1549.73 L1513.89 1572.36 L1507.43 1572.36 L1507.43 1549.73 L1490.62 1524.84 Z" fill="#000000" fill-rule="nonzero" fill-opacity="1" /><path clip-path="url(#clip360)" d="M1558.55 1553.08 L1558.55 1555.94 L1531.62 1555.94 Q1532 1561.99 1535.25 1565.17 Q1538.53 1568.32 1544.35 1568.32 Q1547.72 1568.32 1550.88 1567.49 Q1554.06 1566.67 1557.18 1565.01 L1557.18 1570.55 Q1554.03 1571.89 1550.72 1572.59 Q1547.41 1573.29 1544 1573.29 Q1535.47 1573.29 1530.47 1568.32 Q1525.51 1563.36 1525.51 1554.89 Q1525.51 1546.14 1530.22 1541.01 Q1534.96 1535.86 1542.98 1535.86 Q1550.18 1535.86 1554.34 1540.5 Q1558.55 1545.12 1558.55 1553.08 M1552.69 1551.36 Q1552.63 1546.55 1549.98 1543.69 Q1547.37 1540.82 1543.05 1540.82 Q1538.14 1540.82 1535.18 1543.59 Q1532.26 1546.36 1531.81 1551.39 L1552.69 1551.36 Z" fill="#000000" fill-rule="nonzero" fill-opacity="1" /><path clip-path="url(#clip360)" d="M1584.36 1554.44 Q1577.26 1554.44 1574.52 1556.07 Q1571.79 1557.69 1571.79 1561.61 Q1571.79 1564.72 1573.82 1566.57 Q1575.89 1568.39 1579.43 1568.39 Q1584.3 1568.39 1587.22 1564.95 Q1590.18 1561.48 1590.18 1555.75 L1590.18 1554.44 L1584.36 1554.44 M1596.04 1552.03 L1596.04 1572.36 L1590.18 1572.36 L1590.18 1566.95 Q1588.18 1570.2 1585.19 1571.76 Q1582.19 1573.29 1577.87 1573.29 Q1572.39 1573.29 1569.15 1570.23 Q1565.93 1567.14 1565.93 1561.99 Q1565.93 1555.97 1569.94 1552.92 Q1573.98 1549.86 1581.97 1549.86 L1590.18 1549.86 L1590.18 1549.29 Q1590.18 1545.25 1587.51 1543.05 Q1584.87 1540.82 1580.06 1540.82 Q1577.01 1540.82 1574.11 1541.55 Q1571.21 1542.29 1568.54 1543.75 L1568.54 1538.34 Q1571.76 1537.1 1574.78 1536.49 Q1577.8 1535.86 1580.67 1535.86 Q1588.4 1535.86 1592.22 1539.87 Q1596.04 1543.88 1596.04 1552.03 Z" fill="#000000" fill-rule="nonzero" fill-opacity="1" /><path clip-path="url(#clip360)" d="M1628.76 1542.19 Q1627.77 1541.62 1626.6 1541.36 Q1625.45 1541.08 1624.05 1541.08 Q1619.08 1541.08 1616.41 1544.32 Q1613.77 1547.54 1613.77 1553.59 L1613.77 1572.36 L1607.88 1572.36 L1607.88 1536.72 L1613.77 1536.72 L1613.77 1542.25 Q1615.61 1539.01 1618.57 1537.45 Q1621.53 1535.86 1625.77 1535.86 Q1626.37 1535.86 1627.1 1535.95 Q1627.84 1536.02 1628.73 1536.17 L1628.76 1542.19 Z" fill="#000000" fill-rule="nonzero" fill-opacity="1" /><path clip-path="url(#clip360)" d="M1657.63 1537.77 L1657.63 1543.3 Q1655.15 1542.03 1652.47 1541.39 Q1649.8 1540.76 1646.93 1540.76 Q1642.57 1540.76 1640.38 1542.09 Q1638.21 1543.43 1638.21 1546.11 Q1638.21 1548.14 1639.77 1549.32 Q1641.33 1550.47 1646.04 1551.52 L1648.05 1551.96 Q1654.29 1553.3 1656.9 1555.75 Q1659.54 1558.17 1659.54 1562.53 Q1659.54 1567.49 1655.59 1570.39 Q1651.68 1573.29 1644.8 1573.29 Q1641.94 1573.29 1638.82 1572.71 Q1635.73 1572.17 1632.29 1571.06 L1632.29 1565.01 Q1635.54 1566.7 1638.69 1567.56 Q1641.84 1568.39 1644.93 1568.39 Q1649.07 1568.39 1651.29 1566.98 Q1653.52 1565.55 1653.52 1562.97 Q1653.52 1560.59 1651.9 1559.31 Q1650.31 1558.04 1644.87 1556.86 L1642.83 1556.39 Q1637.39 1555.24 1634.97 1552.88 Q1632.55 1550.5 1632.55 1546.36 Q1632.55 1541.33 1636.11 1538.59 Q1639.68 1535.86 1646.23 1535.86 Q1649.48 1535.86 1652.35 1536.33 Q1655.21 1536.81 1657.63 1537.77 Z" fill="#000000" fill-rule="nonzero" fill-opacity="1" /><path clip-path="url(#clip360)" d="M1667.94 1522.9 L1673.03 1522.9 Q1677.81 1530.41 1680.16 1537.61 Q1682.55 1544.8 1682.55 1551.9 Q1682.55 1559.03 1680.16 1566.25 Q1677.81 1573.48 1673.03 1580.96 L1667.94 1580.96 Q1672.17 1573.67 1674.24 1566.48 Q1676.34 1559.25 1676.34 1551.9 Q1676.34 1544.55 1674.24 1537.38 Q1672.17 1530.22 1667.94 1522.9 Z" fill="#000000" fill-rule="nonzero" fill-opacity="1" /><polyline clip-path="url(#clip362)" style="stroke:#000000; stroke-linecap:round; stroke-linejoin:round; stroke-width:2; stroke-opacity:0.1; fill:none" points="340.508,1264.92 2352.76,1264.92 "/>
<polyline clip-path="url(#clip362)" style="stroke:#000000; stroke-linecap:round; stroke-linejoin:round; stroke-width:2; stroke-opacity:0.1; fill:none" points="340.508,1071.67 2352.76,1071.67 "/>
<polyline clip-path="url(#clip362)" style="stroke:#000000; stroke-linecap:round; stroke-linejoin:round; stroke-width:2; stroke-opacity:0.1; fill:none" points="340.508,878.415 2352.76,878.415 "/>
<polyline clip-path="url(#clip362)" style="stroke:#000000; stroke-linecap:round; stroke-linejoin:round; stroke-width:2; stroke-opacity:0.1; fill:none" points="340.508,685.163 2352.76,685.163 "/>
<polyline clip-path="url(#clip362)" style="stroke:#000000; stroke-linecap:round; stroke-linejoin:round; stroke-width:2; stroke-opacity:0.1; fill:none" points="340.508,491.912 2352.76,491.912 "/>
<polyline clip-path="url(#clip362)" style="stroke:#000000; stroke-linecap:round; stroke-linejoin:round; stroke-width:2; stroke-opacity:0.1; fill:none" points="340.508,298.661 2352.76,298.661 "/>
<polyline clip-path="url(#clip362)" style="stroke:#000000; stroke-linecap:round; stroke-linejoin:round; stroke-width:2; stroke-opacity:0.1; fill:none" points="340.508,105.41 2352.76,105.41 "/>
<polyline clip-path="url(#clip360)" style="stroke:#000000; stroke-linecap:round; stroke-linejoin:round; stroke-width:4; stroke-opacity:1; fill:none" points="340.508,1414.54 340.508,47.2441 "/>
<polyline clip-path="url(#clip360)" style="stroke:#000000; stroke-linecap:round; stroke-linejoin:round; stroke-width:4; stroke-opacity:1; fill:none" points="340.508,1264.92 359.406,1264.92 "/>
<polyline clip-path="url(#clip360)" style="stroke:#000000; stroke-linecap:round; stroke-linejoin:round; stroke-width:4; stroke-opacity:1; fill:none" points="340.508,1071.67 359.406,1071.67 "/>
<polyline clip-path="url(#clip360)" style="stroke:#000000; stroke-linecap:round; stroke-linejoin:round; stroke-width:4; stroke-opacity:1; fill:none" points="340.508,878.415 359.406,878.415 "/>
<polyline clip-path="url(#clip360)" style="stroke:#000000; stroke-linecap:round; stroke-linejoin:round; stroke-width:4; stroke-opacity:1; fill:none" points="340.508,685.163 359.406,685.163 "/>
<polyline clip-path="url(#clip360)" style="stroke:#000000; stroke-linecap:round; stroke-linejoin:round; stroke-width:4; stroke-opacity:1; fill:none" points="340.508,491.912 359.406,491.912 "/>
<polyline clip-path="url(#clip360)" style="stroke:#000000; stroke-linecap:round; stroke-linejoin:round; stroke-width:4; stroke-opacity:1; fill:none" points="340.508,298.661 359.406,298.661 "/>
<polyline clip-path="url(#clip360)" style="stroke:#000000; stroke-linecap:round; stroke-linejoin:round; stroke-width:4; stroke-opacity:1; fill:none" points="340.508,105.41 359.406,105.41 "/>
<path clip-path="url(#clip360)" d="M114.26 1265.48 L151.355 1265.48 L151.355 1270.4 L114.26 1270.4 L114.26 1265.48 Z" fill="#000000" fill-rule="nonzero" fill-opacity="1" /><path clip-path="url(#clip360)" d="M169.005 1281.6 L189.404 1281.6 L189.404 1286.52 L161.974 1286.52 L161.974 1281.6 Q165.302 1278.15 171.031 1272.37 Q176.789 1266.55 178.264 1264.87 Q181.071 1261.72 182.171 1259.55 Q183.299 1257.35 183.299 1255.24 Q183.299 1251.79 180.869 1249.62 Q178.467 1247.45 174.59 1247.45 Q171.841 1247.45 168.774 1248.41 Q165.736 1249.36 162.263 1251.3 L162.263 1245.4 Q165.793 1243.98 168.861 1243.26 Q171.928 1242.54 174.474 1242.54 Q181.187 1242.54 185.18 1245.89 Q189.173 1249.25 189.173 1254.86 Q189.173 1257.52 188.16 1259.93 Q187.176 1262.3 184.543 1265.54 Q183.82 1266.38 179.943 1270.4 Q176.065 1274.39 169.005 1281.6 Z" fill="#000000" fill-rule="nonzero" fill-opacity="1" /><path clip-path="url(#clip360)" d="M214.173 1247.16 Q209.659 1247.16 207.373 1251.62 Q205.116 1256.05 205.116 1264.96 Q205.116 1273.84 207.373 1278.3 Q209.659 1282.73 214.173 1282.73 Q218.716 1282.73 220.973 1278.3 Q223.258 1273.84 223.258 1264.96 Q223.258 1256.05 220.973 1251.62 Q218.716 1247.16 214.173 1247.16 M214.173 1242.54 Q221.436 1242.54 225.255 1248.29 Q229.103 1254.02 229.103 1264.96 Q229.103 1275.87 225.255 1281.63 Q221.436 1287.36 214.173 1287.36 Q206.91 1287.36 203.062 1281.63 Q199.242 1275.87 199.242 1264.96 Q199.242 1254.02 203.062 1248.29 Q206.91 1242.54 214.173 1242.54 Z" fill="#000000" fill-rule="nonzero" fill-opacity="1" /><path clip-path="url(#clip360)" d="M251.875 1247.16 Q247.361 1247.16 245.075 1251.62 Q242.818 1256.05 242.818 1264.96 Q242.818 1273.84 245.075 1278.3 Q247.361 1282.73 251.875 1282.73 Q256.418 1282.73 258.675 1278.3 Q260.961 1273.84 260.961 1264.96 Q260.961 1256.05 258.675 1251.62 Q256.418 1247.16 251.875 1247.16 M251.875 1242.54 Q259.138 1242.54 262.957 1248.29 Q266.806 1254.02 266.806 1264.96 Q266.806 1275.87 262.957 1281.63 Q259.138 1287.36 251.875 1287.36 Q244.612 1287.36 240.764 1281.63 Q236.945 1275.87 236.945 1264.96 Q236.945 1254.02 240.764 1248.29 Q244.612 1242.54 251.875 1242.54 Z" fill="#000000" fill-rule="nonzero" fill-opacity="1" /><path clip-path="url(#clip360)" d="M289.578 1247.16 Q285.064 1247.16 282.778 1251.62 Q280.521 1256.05 280.521 1264.96 Q280.521 1273.84 282.778 1278.3 Q285.064 1282.73 289.578 1282.73 Q294.12 1282.73 296.377 1278.3 Q298.663 1273.84 298.663 1264.96 Q298.663 1256.05 296.377 1251.62 Q294.12 1247.16 289.578 1247.16 M289.578 1242.54 Q296.84 1242.54 300.66 1248.29 Q304.508 1254.02 304.508 1264.96 Q304.508 1275.87 300.66 1281.63 Q296.84 1287.36 289.578 1287.36 Q282.315 1287.36 278.466 1281.63 Q274.647 1275.87 274.647 1264.96 Q274.647 1254.02 278.466 1248.29 Q282.315 1242.54 289.578 1242.54 Z" fill="#000000" fill-rule="nonzero" fill-opacity="1" /><path clip-path="url(#clip360)" d="M114.26 1072.23 L151.355 1072.23 L151.355 1077.15 L114.26 1077.15 L114.26 1072.23 Z" fill="#000000" fill-rule="nonzero" fill-opacity="1" /><path clip-path="url(#clip360)" d="M164.983 1088.35 L174.532 1088.35 L174.532 1055.39 L164.144 1057.47 L164.144 1052.15 L174.474 1050.07 L180.319 1050.07 L180.319 1088.35 L189.867 1088.35 L189.867 1093.27 L164.983 1093.27 L164.983 1088.35 Z" fill="#000000" fill-rule="nonzero" fill-opacity="1" /><path clip-path="url(#clip360)" d="M214.173 1053.91 Q209.659 1053.91 207.373 1058.37 Q205.116 1062.8 205.116 1071.71 Q205.116 1080.59 207.373 1085.05 Q209.659 1089.48 214.173 1089.48 Q218.716 1089.48 220.973 1085.05 Q223.258 1080.59 223.258 1071.71 Q223.258 1062.8 220.973 1058.37 Q218.716 1053.91 214.173 1053.91 M214.173 1049.28 Q221.436 1049.28 225.255 1055.04 Q229.103 1060.77 229.103 1071.71 Q229.103 1082.62 225.255 1088.38 Q221.436 1094.1 214.173 1094.1 Q206.91 1094.1 203.062 1088.38 Q199.242 1082.62 199.242 1071.71 Q199.242 1060.77 203.062 1055.04 Q206.91 1049.28 214.173 1049.28 Z" fill="#000000" fill-rule="nonzero" fill-opacity="1" /><path clip-path="url(#clip360)" d="M251.875 1053.91 Q247.361 1053.91 245.075 1058.37 Q242.818 1062.8 242.818 1071.71 Q242.818 1080.59 245.075 1085.05 Q247.361 1089.48 251.875 1089.48 Q256.418 1089.48 258.675 1085.05 Q260.961 1080.59 260.961 1071.71 Q260.961 1062.8 258.675 1058.37 Q256.418 1053.91 251.875 1053.91 M251.875 1049.28 Q259.138 1049.28 262.957 1055.04 Q266.806 1060.77 266.806 1071.71 Q266.806 1082.62 262.957 1088.38 Q259.138 1094.1 251.875 1094.1 Q244.612 1094.1 240.764 1088.38 Q236.945 1082.62 236.945 1071.71 Q236.945 1060.77 240.764 1055.04 Q244.612 1049.28 251.875 1049.28 Z" fill="#000000" fill-rule="nonzero" fill-opacity="1" /><path clip-path="url(#clip360)" d="M289.578 1053.91 Q285.064 1053.91 282.778 1058.37 Q280.521 1062.8 280.521 1071.71 Q280.521 1080.59 282.778 1085.05 Q285.064 1089.48 289.578 1089.48 Q294.12 1089.48 296.377 1085.05 Q298.663 1080.59 298.663 1071.71 Q298.663 1062.8 296.377 1058.37 Q294.12 1053.91 289.578 1053.91 M289.578 1049.28 Q296.84 1049.28 300.66 1055.04 Q304.508 1060.77 304.508 1071.71 Q304.508 1082.62 300.66 1088.38 Q296.84 1094.1 289.578 1094.1 Q282.315 1094.1 278.466 1088.38 Q274.647 1082.62 274.647 1071.71 Q274.647 1060.77 278.466 1055.04 Q282.315 1049.28 289.578 1049.28 Z" fill="#000000" fill-rule="nonzero" fill-opacity="1" /><path clip-path="url(#clip360)" d="M289.578 860.663 Q285.064 860.663 282.778 865.119 Q280.521 869.546 280.521 878.458 Q280.521 887.341 282.778 891.797 Q285.064 896.224 289.578 896.224 Q294.12 896.224 296.377 891.797 Q298.663 887.341 298.663 878.458 Q298.663 869.546 296.377 865.119 Q294.12 860.663 289.578 860.663 M289.578 856.033 Q296.84 856.033 300.66 861.791 Q304.508 867.52 304.508 878.458 Q304.508 889.366 300.66 895.124 Q296.84 900.854 289.578 900.854 Q282.315 900.854 278.466 895.124 Q274.647 889.366 274.647 878.458 Q274.647 867.52 278.466 861.791 Q282.315 856.033 289.578 856.033 Z" fill="#000000" fill-rule="nonzero" fill-opacity="1" /><path clip-path="url(#clip360)" d="M164.983 701.845 L174.532 701.845 L174.532 668.888 L164.144 670.971 L164.144 665.647 L174.474 663.563 L180.319 663.563 L180.319 701.845 L189.867 701.845 L189.867 706.763 L164.983 706.763 L164.983 701.845 Z" fill="#000000" fill-rule="nonzero" fill-opacity="1" /><path clip-path="url(#clip360)" d="M214.173 667.412 Q209.659 667.412 207.373 671.868 Q205.116 676.295 205.116 685.207 Q205.116 694.09 207.373 698.546 Q209.659 702.973 214.173 702.973 Q218.716 702.973 220.973 698.546 Q223.258 694.09 223.258 685.207 Q223.258 676.295 220.973 671.868 Q218.716 667.412 214.173 667.412 M214.173 662.782 Q221.436 662.782 225.255 668.54 Q229.103 674.269 229.103 685.207 Q229.103 696.115 225.255 701.873 Q221.436 707.603 214.173 707.603 Q206.91 707.603 203.062 701.873 Q199.242 696.115 199.242 685.207 Q199.242 674.269 203.062 668.54 Q206.91 662.782 214.173 662.782 Z" fill="#000000" fill-rule="nonzero" fill-opacity="1" /><path clip-path="url(#clip360)" d="M251.875 667.412 Q247.361 667.412 245.075 671.868 Q242.818 676.295 242.818 685.207 Q242.818 694.09 245.075 698.546 Q247.361 702.973 251.875 702.973 Q256.418 702.973 258.675 698.546 Q260.961 694.09 260.961 685.207 Q260.961 676.295 258.675 671.868 Q256.418 667.412 251.875 667.412 M251.875 662.782 Q259.138 662.782 262.957 668.54 Q266.806 674.269 266.806 685.207 Q266.806 696.115 262.957 701.873 Q259.138 707.603 251.875 707.603 Q244.612 707.603 240.764 701.873 Q236.945 696.115 236.945 685.207 Q236.945 674.269 240.764 668.54 Q244.612 662.782 251.875 662.782 Z" fill="#000000" fill-rule="nonzero" fill-opacity="1" /><path clip-path="url(#clip360)" d="M289.578 667.412 Q285.064 667.412 282.778 671.868 Q280.521 676.295 280.521 685.207 Q280.521 694.09 282.778 698.546 Q285.064 702.973 289.578 702.973 Q294.12 702.973 296.377 698.546 Q298.663 694.09 298.663 685.207 Q298.663 676.295 296.377 671.868 Q294.12 667.412 289.578 667.412 M289.578 662.782 Q296.84 662.782 300.66 668.54 Q304.508 674.269 304.508 685.207 Q304.508 696.115 300.66 701.873 Q296.84 707.603 289.578 707.603 Q282.315 707.603 278.466 701.873 Q274.647 696.115 274.647 685.207 Q274.647 674.269 278.466 668.54 Q282.315 662.782 289.578 662.782 Z" fill="#000000" fill-rule="nonzero" fill-opacity="1" /><path clip-path="url(#clip360)" d="M169.005 508.593 L189.404 508.593 L189.404 513.512 L161.974 513.512 L161.974 508.593 Q165.302 505.15 171.031 499.363 Q176.789 493.547 178.264 491.869 Q181.071 488.715 182.171 486.545 Q183.299 484.346 183.299 482.234 Q183.299 478.79 180.869 476.62 Q178.467 474.45 174.59 474.45 Q171.841 474.45 168.774 475.405 Q165.736 476.36 162.263 478.298 L162.263 472.396 Q165.793 470.978 168.861 470.255 Q171.928 469.531 174.474 469.531 Q181.187 469.531 185.18 472.888 Q189.173 476.244 189.173 481.857 Q189.173 484.52 188.16 486.921 Q187.176 489.294 184.543 492.535 Q183.82 493.374 179.943 497.396 Q176.065 501.389 169.005 508.593 Z" fill="#000000" fill-rule="nonzero" fill-opacity="1" /><path clip-path="url(#clip360)" d="M214.173 474.161 Q209.659 474.161 207.373 478.617 Q205.116 483.044 205.116 491.956 Q205.116 500.839 207.373 505.295 Q209.659 509.722 214.173 509.722 Q218.716 509.722 220.973 505.295 Q223.258 500.839 223.258 491.956 Q223.258 483.044 220.973 478.617 Q218.716 474.161 214.173 474.161 M214.173 469.531 Q221.436 469.531 225.255 475.289 Q229.103 481.018 229.103 491.956 Q229.103 502.864 225.255 508.622 Q221.436 514.352 214.173 514.352 Q206.91 514.352 203.062 508.622 Q199.242 502.864 199.242 491.956 Q199.242 481.018 203.062 475.289 Q206.91 469.531 214.173 469.531 Z" fill="#000000" fill-rule="nonzero" fill-opacity="1" /><path clip-path="url(#clip360)" d="M251.875 474.161 Q247.361 474.161 245.075 478.617 Q242.818 483.044 242.818 491.956 Q242.818 500.839 245.075 505.295 Q247.361 509.722 251.875 509.722 Q256.418 509.722 258.675 505.295 Q260.961 500.839 260.961 491.956 Q260.961 483.044 258.675 478.617 Q256.418 474.161 251.875 474.161 M251.875 469.531 Q259.138 469.531 262.957 475.289 Q266.806 481.018 266.806 491.956 Q266.806 502.864 262.957 508.622 Q259.138 514.352 251.875 514.352 Q244.612 514.352 240.764 508.622 Q236.945 502.864 236.945 491.956 Q236.945 481.018 240.764 475.289 Q244.612 469.531 251.875 469.531 Z" fill="#000000" fill-rule="nonzero" fill-opacity="1" /><path clip-path="url(#clip360)" d="M289.578 474.161 Q285.064 474.161 282.778 478.617 Q280.521 483.044 280.521 491.956 Q280.521 500.839 282.778 505.295 Q285.064 509.722 289.578 509.722 Q294.12 509.722 296.377 505.295 Q298.663 500.839 298.663 491.956 Q298.663 483.044 296.377 478.617 Q294.12 474.161 289.578 474.161 M289.578 469.531 Q296.84 469.531 300.66 475.289 Q304.508 481.018 304.508 491.956 Q304.508 502.864 300.66 508.622 Q296.84 514.352 289.578 514.352 Q282.315 514.352 278.466 508.622 Q274.647 502.864 274.647 491.956 Q274.647 481.018 278.466 475.289 Q282.315 469.531 289.578 469.531 Z" fill="#000000" fill-rule="nonzero" fill-opacity="1" /><path clip-path="url(#clip360)" d="M181.679 296.969 Q185.874 297.866 188.218 300.701 Q190.591 303.537 190.591 307.704 Q190.591 314.098 186.193 317.599 Q181.795 321.1 173.693 321.1 Q170.973 321.1 168.079 320.551 Q165.215 320.03 162.148 318.959 L162.148 313.317 Q164.578 314.735 167.472 315.458 Q170.365 316.182 173.519 316.182 Q179.017 316.182 181.881 314.011 Q184.775 311.841 184.775 307.704 Q184.775 303.884 182.084 301.743 Q179.422 299.573 174.648 299.573 L169.613 299.573 L169.613 294.77 L174.879 294.77 Q179.19 294.77 181.476 293.062 Q183.762 291.326 183.762 288.086 Q183.762 284.758 181.389 282.993 Q179.046 281.199 174.648 281.199 Q172.246 281.199 169.497 281.72 Q166.748 282.241 163.45 283.34 L163.45 278.132 Q166.777 277.206 169.671 276.743 Q172.593 276.28 175.168 276.28 Q181.823 276.28 185.701 279.318 Q189.578 282.328 189.578 287.478 Q189.578 291.066 187.524 293.554 Q185.469 296.014 181.679 296.969 Z" fill="#000000" fill-rule="nonzero" fill-opacity="1" /><path clip-path="url(#clip360)" d="M214.173 280.91 Q209.659 280.91 207.373 285.366 Q205.116 289.793 205.116 298.705 Q205.116 307.588 207.373 312.044 Q209.659 316.471 214.173 316.471 Q218.716 316.471 220.973 312.044 Q223.258 307.588 223.258 298.705 Q223.258 289.793 220.973 285.366 Q218.716 280.91 214.173 280.91 M214.173 276.28 Q221.436 276.28 225.255 282.038 Q229.103 287.767 229.103 298.705 Q229.103 309.613 225.255 315.371 Q221.436 321.1 214.173 321.1 Q206.91 321.1 203.062 315.371 Q199.242 309.613 199.242 298.705 Q199.242 287.767 203.062 282.038 Q206.91 276.28 214.173 276.28 Z" fill="#000000" fill-rule="nonzero" fill-opacity="1" /><path clip-path="url(#clip360)" d="M251.875 280.91 Q247.361 280.91 245.075 285.366 Q242.818 289.793 242.818 298.705 Q242.818 307.588 245.075 312.044 Q247.361 316.471 251.875 316.471 Q256.418 316.471 258.675 312.044 Q260.961 307.588 260.961 298.705 Q260.961 289.793 258.675 285.366 Q256.418 280.91 251.875 280.91 M251.875 276.28 Q259.138 276.28 262.957 282.038 Q266.806 287.767 266.806 298.705 Q266.806 309.613 262.957 315.371 Q259.138 321.1 251.875 321.1 Q244.612 321.1 240.764 315.371 Q236.945 309.613 236.945 298.705 Q236.945 287.767 240.764 282.038 Q244.612 276.28 251.875 276.28 Z" fill="#000000" fill-rule="nonzero" fill-opacity="1" /><path clip-path="url(#clip360)" d="M289.578 280.91 Q285.064 280.91 282.778 285.366 Q280.521 289.793 280.521 298.705 Q280.521 307.588 282.778 312.044 Q285.064 316.471 289.578 316.471 Q294.12 316.471 296.377 312.044 Q298.663 307.588 298.663 298.705 Q298.663 289.793 296.377 285.366 Q294.12 280.91 289.578 280.91 M289.578 276.28 Q296.84 276.28 300.66 282.038 Q304.508 287.767 304.508 298.705 Q304.508 309.613 300.66 315.371 Q296.84 321.1 289.578 321.1 Q282.315 321.1 278.466 315.371 Q274.647 309.613 274.647 298.705 Q274.647 287.767 278.466 282.038 Q282.315 276.28 289.578 276.28 Z" fill="#000000" fill-rule="nonzero" fill-opacity="1" /><path clip-path="url(#clip360)" d="M180.029 88.9029 L165.273 111.964 L180.029 111.964 L180.029 88.9029 M178.496 83.8103 L185.845 83.8103 L185.845 111.964 L192.009 111.964 L192.009 116.825 L185.845 116.825 L185.845 127.01 L180.029 127.01 L180.029 116.825 L160.527 116.825 L160.527 111.183 L178.496 83.8103 Z" fill="#000000" fill-rule="nonzero" fill-opacity="1" /><path clip-path="url(#clip360)" d="M214.173 87.6587 Q209.659 87.6587 207.373 92.1147 Q205.116 96.5417 205.116 105.454 Q205.116 114.337 207.373 118.793 Q209.659 123.22 214.173 123.22 Q218.716 123.22 220.973 118.793 Q223.258 114.337 223.258 105.454 Q223.258 96.5417 220.973 92.1147 Q218.716 87.6587 214.173 87.6587 M214.173 83.0291 Q221.436 83.0291 225.255 88.7871 Q229.103 94.5163 229.103 105.454 Q229.103 116.362 225.255 122.12 Q221.436 127.849 214.173 127.849 Q206.91 127.849 203.062 122.12 Q199.242 116.362 199.242 105.454 Q199.242 94.5163 203.062 88.7871 Q206.91 83.0291 214.173 83.0291 Z" fill="#000000" fill-rule="nonzero" fill-opacity="1" /><path clip-path="url(#clip360)" d="M251.875 87.6587 Q247.361 87.6587 245.075 92.1147 Q242.818 96.5417 242.818 105.454 Q242.818 114.337 245.075 118.793 Q247.361 123.22 251.875 123.22 Q256.418 123.22 258.675 118.793 Q260.961 114.337 260.961 105.454 Q260.961 96.5417 258.675 92.1147 Q256.418 87.6587 251.875 87.6587 M251.875 83.0291 Q259.138 83.0291 262.957 88.7871 Q266.806 94.5163 266.806 105.454 Q266.806 116.362 262.957 122.12 Q259.138 127.849 251.875 127.849 Q244.612 127.849 240.764 122.12 Q236.945 116.362 236.945 105.454 Q236.945 94.5163 240.764 88.7871 Q244.612 83.0291 251.875 83.0291 Z" fill="#000000" fill-rule="nonzero" fill-opacity="1" /><path clip-path="url(#clip360)" d="M289.578 87.6587 Q285.064 87.6587 282.778 92.1147 Q280.521 96.5417 280.521 105.454 Q280.521 114.337 282.778 118.793 Q285.064 123.22 289.578 123.22 Q294.12 123.22 296.377 118.793 Q298.663 114.337 298.663 105.454 Q298.663 96.5417 296.377 92.1147 Q294.12 87.6587 289.578 87.6587 M289.578 83.0291 Q296.84 83.0291 300.66 88.7871 Q304.508 94.5163 304.508 105.454 Q304.508 116.362 300.66 122.12 Q296.84 127.849 289.578 127.849 Q282.315 127.849 278.466 122.12 Q274.647 116.362 274.647 105.454 Q274.647 94.5163 278.466 88.7871 Q282.315 83.0291 289.578 83.0291 Z" fill="#000000" fill-rule="nonzero" fill-opacity="1" /><path clip-path="url(#clip360)" d="M21.7677 1253.76 L58.7206 1253.76 L58.7206 1245.99 Q58.7206 1236.15 54.2646 1231.6 Q49.8086 1227.02 40.1964 1227.02 Q30.6479 1227.02 26.2237 1231.6 Q21.7677 1236.15 21.7677 1245.99 L21.7677 1253.76 M16.4842 1260.18 L16.4842 1246.98 Q16.4842 1233.16 22.2451 1226.7 Q27.9743 1220.24 40.1964 1220.24 Q52.4822 1220.24 58.2432 1226.73 Q64.0042 1233.23 64.0042 1246.98 L64.0042 1260.18 L16.4842 1260.18 Z" fill="#000000" fill-rule="nonzero" fill-opacity="1" /><path clip-path="url(#clip360)" d="M28.3562 1210.25 L28.3562 1204.39 L64.0042 1204.39 L64.0042 1210.25 L28.3562 1210.25 M14.479 1210.25 L14.479 1204.39 L21.895 1204.39 L21.895 1210.25 L14.479 1210.25 Z" fill="#000000" fill-rule="nonzero" fill-opacity="1" /><path clip-path="url(#clip360)" d="M14.479 1174.09 L19.3487 1174.09 L19.3487 1179.69 Q19.3487 1182.84 20.6219 1184.08 Q21.895 1185.29 25.2052 1185.29 L28.3562 1185.29 L28.3562 1175.65 L32.9077 1175.65 L32.9077 1185.29 L64.0042 1185.29 L64.0042 1191.18 L32.9077 1191.18 L32.9077 1196.78 L28.3562 1196.78 L28.3562 1191.18 L25.8736 1191.18 Q19.9216 1191.18 17.2162 1188.41 Q14.479 1185.64 14.479 1179.63 L14.479 1174.09 Z" fill="#000000" fill-rule="nonzero" fill-opacity="1" /><path clip-path="url(#clip360)" d="M14.479 1151.14 L19.3487 1151.14 L19.3487 1156.74 Q19.3487 1159.89 20.6219 1161.13 Q21.895 1162.34 25.2052 1162.34 L28.3562 1162.34 L28.3562 1152.7 L32.9077 1152.7 L32.9077 1162.34 L64.0042 1162.34 L64.0042 1168.23 L32.9077 1168.23 L32.9077 1173.83 L28.3562 1173.83 L28.3562 1168.23 L25.8736 1168.23 Q19.9216 1168.23 17.2162 1165.46 Q14.479 1162.69 14.479 1156.68 L14.479 1151.14 Z" fill="#000000" fill-rule="nonzero" fill-opacity="1" /><path clip-path="url(#clip360)" d="M44.7161 1115.75 L47.5806 1115.75 L47.5806 1142.67 Q53.6281 1142.29 56.8109 1139.05 Q59.9619 1135.77 59.9619 1129.94 Q59.9619 1126.57 59.1344 1123.42 Q58.3069 1120.23 56.6518 1117.12 L62.1899 1117.12 Q63.5267 1120.27 64.227 1123.58 Q64.9272 1126.89 64.9272 1130.29 Q64.9272 1138.82 59.9619 1143.82 Q54.9967 1148.78 46.5303 1148.78 Q37.7774 1148.78 32.6531 1144.07 Q27.4968 1139.33 27.4968 1131.31 Q27.4968 1124.12 32.1438 1119.95 Q36.7589 1115.75 44.7161 1115.75 M42.9973 1121.6 Q38.1912 1121.67 35.3266 1124.31 Q32.4621 1126.92 32.4621 1131.25 Q32.4621 1136.15 35.2312 1139.11 Q38.0002 1142.04 43.0292 1142.48 L42.9973 1121.6 Z" fill="#000000" fill-rule="nonzero" fill-opacity="1" /><path clip-path="url(#clip360)" d="M33.8307 1085.48 Q33.2578 1086.46 33.0032 1087.64 Q32.7167 1088.79 32.7167 1090.19 Q32.7167 1095.15 35.9632 1097.83 Q39.1779 1100.47 45.2253 1100.47 L64.0042 1100.47 L64.0042 1106.36 L28.3562 1106.36 L28.3562 1100.47 L33.8944 1100.47 Q30.6479 1098.62 29.0883 1095.66 Q27.4968 1092.7 27.4968 1088.47 Q27.4968 1087.86 27.5923 1087.13 Q27.656 1086.4 27.8151 1085.51 L33.8307 1085.48 Z" fill="#000000" fill-rule="nonzero" fill-opacity="1" /><path clip-path="url(#clip360)" d="M44.7161 1050.28 L47.5806 1050.28 L47.5806 1077.2 Q53.6281 1076.82 56.8109 1073.57 Q59.9619 1070.3 59.9619 1064.47 Q59.9619 1061.1 59.1344 1057.95 Q58.3069 1054.76 56.6518 1051.64 L62.1899 1051.64 Q63.5267 1054.8 64.227 1058.11 Q64.9272 1061.42 64.9272 1064.82 Q64.9272 1073.35 59.9619 1078.35 Q54.9967 1083.31 46.5303 1083.31 Q37.7774 1083.31 32.6531 1078.6 Q27.4968 1073.86 27.4968 1065.84 Q27.4968 1058.65 32.1438 1054.48 Q36.7589 1050.28 44.7161 1050.28 M42.9973 1056.13 Q38.1912 1056.2 35.3266 1058.84 Q32.4621 1061.45 32.4621 1065.78 Q32.4621 1070.68 35.2312 1073.64 Q38.0002 1076.57 43.0292 1077.01 L42.9973 1056.13 Z" fill="#000000" fill-rule="nonzero" fill-opacity="1" /><path clip-path="url(#clip360)" d="M42.4881 1011.03 L64.0042 1011.03 L64.0042 1016.89 L42.679 1016.89 Q37.6183 1016.89 35.1038 1018.86 Q32.5894 1020.83 32.5894 1024.78 Q32.5894 1029.52 35.6131 1032.26 Q38.6368 1035 43.8567 1035 L64.0042 1035 L64.0042 1040.89 L28.3562 1040.89 L28.3562 1035 L33.8944 1035 Q30.6797 1032.9 29.0883 1030.06 Q27.4968 1027.2 27.4968 1023.48 Q27.4968 1017.33 31.3163 1014.18 Q35.1038 1011.03 42.4881 1011.03 Z" fill="#000000" fill-rule="nonzero" fill-opacity="1" /><path clip-path="url(#clip360)" d="M29.7248 973.696 L35.1993 973.696 Q33.8307 976.179 33.1623 978.693 Q32.4621 981.176 32.4621 983.722 Q32.4621 989.419 36.0905 992.57 Q39.6872 995.721 46.212 995.721 Q52.7369 995.721 56.3653 992.57 Q59.9619 989.419 59.9619 983.722 Q59.9619 981.176 59.2935 978.693 Q58.5933 976.179 57.2247 973.696 L62.6355 973.696 Q63.7814 976.147 64.3543 978.788 Q64.9272 981.398 64.9272 984.358 Q64.9272 992.411 59.8664 997.154 Q54.8057 1001.9 46.212 1001.9 Q37.491 1001.9 32.4939 997.122 Q27.4968 992.316 27.4968 983.977 Q27.4968 981.271 28.0697 978.693 Q28.6108 976.115 29.7248 973.696 Z" fill="#000000" fill-rule="nonzero" fill-opacity="1" /><path clip-path="url(#clip360)" d="M44.7161 933.019 L47.5806 933.019 L47.5806 959.946 Q53.6281 959.564 56.8109 956.318 Q59.9619 953.039 59.9619 947.215 Q59.9619 943.841 59.1344 940.69 Q58.3069 937.507 56.6518 934.388 L62.1899 934.388 Q63.5267 937.539 64.227 940.849 Q64.9272 944.159 64.9272 947.565 Q64.9272 956.095 59.9619 961.092 Q54.9967 966.057 46.5303 966.057 Q37.7774 966.057 32.6531 961.346 Q27.4968 956.604 27.4968 948.583 Q27.4968 941.39 32.1438 937.22 Q36.7589 933.019 44.7161 933.019 M42.9973 938.876 Q38.1912 938.939 35.3266 941.581 Q32.4621 944.191 32.4621 948.52 Q32.4621 953.421 35.2312 956.381 Q38.0002 959.309 43.0292 959.755 L42.9973 938.876 Z" fill="#000000" fill-rule="nonzero" fill-opacity="1" /><path clip-path="url(#clip360)" d="M28.3562 902.686 L28.3562 896.83 L64.0042 896.83 L64.0042 902.686 L28.3562 902.686 M14.479 902.686 L14.479 896.83 L21.895 896.83 L21.895 902.686 L14.479 902.686 Z" fill="#000000" fill-rule="nonzero" fill-opacity="1" /><path clip-path="url(#clip360)" d="M42.4881 854.944 L64.0042 854.944 L64.0042 860.8 L42.679 860.8 Q37.6183 860.8 35.1038 862.773 Q32.5894 864.747 32.5894 868.694 Q32.5894 873.436 35.6131 876.173 Q38.6368 878.911 43.8567 878.911 L64.0042 878.911 L64.0042 884.799 L28.3562 884.799 L28.3562 878.911 L33.8944 878.911 Q30.6797 876.81 29.0883 873.977 Q27.4968 871.113 27.4968 867.389 Q27.4968 861.246 31.3163 858.095 Q35.1038 854.944 42.4881 854.944 Z" fill="#000000" fill-rule="nonzero" fill-opacity="1" /><path clip-path="url(#clip360)" d="M20.8447 803 Q20.8447 810.002 26.0645 814.139 Q31.2844 818.245 40.2919 818.245 Q49.2675 818.245 54.4874 814.139 Q59.7073 810.002 59.7073 803 Q59.7073 795.997 54.4874 791.923 Q49.2675 787.817 40.2919 787.817 Q31.2844 787.817 26.0645 791.923 Q20.8447 795.997 20.8447 803 M15.6248 803 Q15.6248 793.005 22.3406 787.022 Q29.0246 781.038 40.2919 781.038 Q51.5274 781.038 58.2432 787.022 Q64.9272 793.005 64.9272 803 Q64.9272 813.025 58.2432 819.041 Q51.5592 825.025 40.2919 825.025 Q29.0246 825.025 22.3406 819.041 Q15.6248 813.025 15.6248 803 Z" fill="#000000" fill-rule="nonzero" fill-opacity="1" /><path clip-path="url(#clip360)" d="M29.7248 745.581 L35.1993 745.581 Q33.8307 748.063 33.1623 750.578 Q32.4621 753.061 32.4621 755.607 Q32.4621 761.304 36.0905 764.455 Q39.6872 767.606 46.212 767.606 Q52.7369 767.606 56.3653 764.455 Q59.9619 761.304 59.9619 755.607 Q59.9619 753.061 59.2935 750.578 Q58.5933 748.063 57.2247 745.581 L62.6355 745.581 Q63.7814 748.032 64.3543 750.673 Q64.9272 753.283 64.9272 756.243 Q64.9272 764.296 59.8664 769.038 Q54.8057 773.781 46.212 773.781 Q37.491 773.781 32.4939 769.007 Q27.4968 764.201 27.4968 755.861 Q27.4968 753.156 28.0697 750.578 Q28.6108 748 29.7248 745.581 Z" fill="#000000" fill-rule="nonzero" fill-opacity="1" /><path clip-path="url(#clip360)" d="M29.7248 709.742 L35.1993 709.742 Q33.8307 712.225 33.1623 714.739 Q32.4621 717.222 32.4621 719.768 Q32.4621 725.465 36.0905 728.616 Q39.6872 731.767 46.212 731.767 Q52.7369 731.767 56.3653 728.616 Q59.9619 725.465 59.9619 719.768 Q59.9619 717.222 59.2935 714.739 Q58.5933 712.225 57.2247 709.742 L62.6355 709.742 Q63.7814 712.193 64.3543 714.834 Q64.9272 717.444 64.9272 720.404 Q64.9272 728.457 59.8664 733.2 Q54.8057 737.942 46.212 737.942 Q37.491 737.942 32.4939 733.168 Q27.4968 728.362 27.4968 720.023 Q27.4968 717.317 28.0697 714.739 Q28.6108 712.161 29.7248 709.742 Z" fill="#000000" fill-rule="nonzero" fill-opacity="1" /><path clip-path="url(#clip360)" d="M49.9359 700.162 L28.3562 700.162 L28.3562 694.305 L49.7131 694.305 Q54.7739 694.305 57.3202 692.332 Q59.8346 690.358 59.8346 686.412 Q59.8346 681.669 56.8109 678.932 Q53.7872 676.163 48.5673 676.163 L28.3562 676.163 L28.3562 670.306 L64.0042 670.306 L64.0042 676.163 L58.5296 676.163 Q61.7762 678.295 63.3676 681.128 Q64.9272 683.929 64.9272 687.653 Q64.9272 693.796 61.1078 696.979 Q57.2883 700.162 49.9359 700.162 M27.4968 685.425 L27.4968 685.425 Z" fill="#000000" fill-rule="nonzero" fill-opacity="1" /><path clip-path="url(#clip360)" d="M58.657 652.578 L77.5631 652.578 L77.5631 658.466 L28.3562 658.466 L28.3562 652.578 L33.7671 652.578 Q30.5842 650.732 29.0564 647.931 Q27.4968 645.098 27.4968 641.183 Q27.4968 634.69 32.6531 630.648 Q37.8093 626.574 46.212 626.574 Q54.6147 626.574 59.771 630.648 Q64.9272 634.69 64.9272 641.183 Q64.9272 645.098 63.3994 647.931 Q61.8398 650.732 58.657 652.578 M46.212 632.653 Q39.7508 632.653 36.0905 635.327 Q32.3984 637.969 32.3984 642.616 Q32.3984 647.262 36.0905 649.936 Q39.7508 652.578 46.212 652.578 Q52.6732 652.578 56.3653 649.936 Q60.0256 647.262 60.0256 642.616 Q60.0256 637.969 56.3653 635.327 Q52.6732 632.653 46.212 632.653 Z" fill="#000000" fill-rule="nonzero" fill-opacity="1" /><path clip-path="url(#clip360)" d="M28.3562 616.866 L28.3562 611.01 L64.0042 611.01 L64.0042 616.866 L28.3562 616.866 M14.479 616.866 L14.479 611.01 L21.895 611.01 L21.895 616.866 L14.479 616.866 Z" fill="#000000" fill-rule="nonzero" fill-opacity="1" /><path clip-path="url(#clip360)" d="M44.7161 568.264 L47.5806 568.264 L47.5806 595.191 Q53.6281 594.809 56.8109 591.563 Q59.9619 588.284 59.9619 582.46 Q59.9619 579.086 59.1344 575.935 Q58.3069 572.752 56.6518 569.633 L62.1899 569.633 Q63.5267 572.784 64.227 576.094 Q64.9272 579.404 64.9272 582.81 Q64.9272 591.34 59.9619 596.337 Q54.9967 601.302 46.5303 601.302 Q37.7774 601.302 32.6531 596.591 Q27.4968 591.849 27.4968 583.828 Q27.4968 576.635 32.1438 572.465 Q36.7589 568.264 44.7161 568.264 M42.9973 574.121 Q38.1912 574.184 35.3266 576.826 Q32.4621 579.436 32.4621 583.765 Q32.4621 588.666 35.2312 591.626 Q38.0002 594.554 43.0292 595 L42.9973 574.121 Z" fill="#000000" fill-rule="nonzero" fill-opacity="1" /><path clip-path="url(#clip360)" d="M33.7671 535.194 L14.479 535.194 L14.479 529.338 L64.0042 529.338 L64.0042 535.194 L58.657 535.194 Q61.8398 537.04 63.3994 539.873 Q64.9272 542.674 64.9272 546.621 Q64.9272 553.082 59.771 557.156 Q54.6147 561.198 46.212 561.198 Q37.8093 561.198 32.6531 557.156 Q27.4968 553.082 27.4968 546.621 Q27.4968 542.674 29.0564 539.873 Q30.5842 537.04 33.7671 535.194 M46.212 555.151 Q52.6732 555.151 56.3653 552.509 Q60.0256 549.835 60.0256 545.188 Q60.0256 540.541 56.3653 537.868 Q52.6732 535.194 46.212 535.194 Q39.7508 535.194 36.0905 537.868 Q32.3984 540.541 32.3984 545.188 Q32.3984 549.835 36.0905 552.509 Q39.7508 555.151 46.212 555.151 Z" fill="#000000" fill-rule="nonzero" fill-opacity="1" /><path clip-path="url(#clip360)" d="M43.5384 520.235 L43.5384 503.079 L48.7583 503.079 L48.7583 520.235 L43.5384 520.235 Z" fill="#000000" fill-rule="nonzero" fill-opacity="1" /><path clip-path="url(#clip360)" d="M16.4842 493.499 L16.4842 463.453 L21.895 463.453 L21.895 487.069 L35.9632 487.069 L35.9632 464.439 L41.3741 464.439 L41.3741 487.069 L58.5933 487.069 L58.5933 462.88 L64.0042 462.88 L64.0042 493.499 L16.4842 493.499 Z" fill="#000000" fill-rule="nonzero" fill-opacity="1" /><path clip-path="url(#clip360)" d="M28.3562 422.935 L45.7028 435.826 L64.0042 422.267 L64.0042 429.173 L49.9996 439.549 L64.0042 449.926 L64.0042 456.832 L45.3526 442.987 L28.3562 455.655 L28.3562 448.748 L41.0558 439.295 L28.3562 429.842 L28.3562 422.935 Z" fill="#000000" fill-rule="nonzero" fill-opacity="1" /><path clip-path="url(#clip360)" d="M58.657 408.326 L77.5631 408.326 L77.5631 414.214 L28.3562 414.214 L28.3562 408.326 L33.7671 408.326 Q30.5842 406.48 29.0564 403.679 Q27.4968 400.846 27.4968 396.931 Q27.4968 390.438 32.6531 386.396 Q37.8093 382.322 46.212 382.322 Q54.6147 382.322 59.771 386.396 Q64.9272 390.438 64.9272 396.931 Q64.9272 400.846 63.3994 403.679 Q61.8398 406.48 58.657 408.326 M46.212 388.401 Q39.7508 388.401 36.0905 391.075 Q32.3984 393.716 32.3984 398.363 Q32.3984 403.01 36.0905 405.684 Q39.7508 408.326 46.212 408.326 Q52.6732 408.326 56.3653 405.684 Q60.0256 403.01 60.0256 398.363 Q60.0256 393.716 56.3653 391.075 Q52.6732 388.401 46.212 388.401 Z" fill="#000000" fill-rule="nonzero" fill-opacity="1" /><path clip-path="url(#clip360)" d="M32.4621 358.801 Q32.4621 363.511 36.1542 366.248 Q39.8145 368.986 46.212 368.986 Q52.6095 368.986 56.3017 366.28 Q59.9619 363.543 59.9619 358.801 Q59.9619 354.122 56.2698 351.384 Q52.5777 348.647 46.212 348.647 Q39.8781 348.647 36.186 351.384 Q32.4621 354.122 32.4621 358.801 M27.4968 358.801 Q27.4968 351.162 32.4621 346.801 Q37.4273 342.441 46.212 342.441 Q54.9649 342.441 59.9619 346.801 Q64.9272 351.162 64.9272 358.801 Q64.9272 366.471 59.9619 370.832 Q54.9649 375.16 46.212 375.16 Q37.4273 375.16 32.4621 370.832 Q27.4968 366.471 27.4968 358.801 Z" fill="#000000" fill-rule="nonzero" fill-opacity="1" /><path clip-path="url(#clip360)" d="M29.4065 310.007 L34.9447 310.007 Q33.6716 312.49 33.035 315.164 Q32.3984 317.837 32.3984 320.702 Q32.3984 325.062 33.7352 327.258 Q35.072 329.423 37.7456 329.423 Q39.7826 329.423 40.9603 327.863 Q42.1061 326.304 43.1565 321.593 L43.6021 319.588 Q44.9389 313.349 47.3897 310.739 Q49.8086 308.098 54.1691 308.098 Q59.1344 308.098 62.0308 312.044 Q64.9272 315.959 64.9272 322.834 Q64.9272 325.699 64.3543 328.818 Q63.8132 331.905 62.6992 335.343 L56.6518 335.343 Q58.3387 332.096 59.198 328.945 Q60.0256 325.794 60.0256 322.707 Q60.0256 318.569 58.6251 316.341 Q57.1929 314.113 54.6147 314.113 Q52.2276 314.113 50.9545 315.736 Q49.6813 317.328 48.5037 322.771 L48.0262 324.808 Q46.8804 330.25 44.5251 332.669 Q42.138 335.088 38.0002 335.088 Q32.9713 335.088 30.2341 331.523 Q27.4968 327.959 27.4968 321.402 Q27.4968 318.155 27.9743 315.291 Q28.4517 312.426 29.4065 310.007 Z" fill="#000000" fill-rule="nonzero" fill-opacity="1" /><path clip-path="url(#clip360)" d="M49.9359 299.377 L28.3562 299.377 L28.3562 293.52 L49.7131 293.52 Q54.7739 293.52 57.3202 291.547 Q59.8346 289.573 59.8346 285.627 Q59.8346 280.884 56.8109 278.147 Q53.7872 275.378 48.5673 275.378 L28.3562 275.378 L28.3562 269.521 L64.0042 269.521 L64.0042 275.378 L58.5296 275.378 Q61.7762 277.51 63.3676 280.343 Q64.9272 283.144 64.9272 286.868 Q64.9272 293.011 61.1078 296.194 Q57.2883 299.377 49.9359 299.377 M27.4968 284.64 L27.4968 284.64 Z" fill="#000000" fill-rule="nonzero" fill-opacity="1" /><path clip-path="url(#clip360)" d="M33.8307 236.802 Q33.2578 237.788 33.0032 238.966 Q32.7167 240.112 32.7167 241.512 Q32.7167 246.478 35.9632 249.151 Q39.1779 251.793 45.2253 251.793 L64.0042 251.793 L64.0042 257.681 L28.3562 257.681 L28.3562 251.793 L33.8944 251.793 Q30.6479 249.947 29.0883 246.987 Q27.4968 244.027 27.4968 239.794 Q27.4968 239.189 27.5923 238.457 Q27.656 237.725 27.8151 236.834 L33.8307 236.802 Z" fill="#000000" fill-rule="nonzero" fill-opacity="1" /><path clip-path="url(#clip360)" d="M44.7161 201.599 L47.5806 201.599 L47.5806 228.526 Q53.6281 228.144 56.8109 224.898 Q59.9619 221.62 59.9619 215.795 Q59.9619 212.421 59.1344 209.27 Q58.3069 206.087 56.6518 202.968 L62.1899 202.968 Q63.5267 206.119 64.227 209.429 Q64.9272 212.739 64.9272 216.145 Q64.9272 224.675 59.9619 229.672 Q54.9967 234.637 46.5303 234.637 Q37.7774 234.637 32.6531 229.927 Q27.4968 225.184 27.4968 217.164 Q27.4968 209.97 32.1438 205.801 Q36.7589 201.599 44.7161 201.599 M42.9973 207.456 Q38.1912 207.519 35.3266 210.161 Q32.4621 212.771 32.4621 217.1 Q32.4621 222.001 35.2312 224.962 Q38.0002 227.89 43.0292 228.335 L42.9973 207.456 Z" fill="#000000" fill-rule="nonzero" fill-opacity="1" /><polyline clip-path="url(#clip362)" style="stroke:#0000ff; stroke-linecap:round; stroke-linejoin:round; stroke-width:10; stroke-opacity:1; fill:none" points="397.458,889.52 683.188,910.543 850.329,931.102 968.918,954.668 1060.9,976.278 1136.06,996.939 1199.6,1019.8 1254.65,1040.77 1303.2,1060.21 1346.63,1081.68 1385.92,1098.65 1421.79,1114.63 1454.78,1129.72 1485.33,1144.82 1513.77,1161.38 1540.38,1174.08 1565.37,1186.45 1588.93,1198.27 1611.22,1209.76 1632.36,1222.01 1652.47,1234.84 1671.65,1244.97 1689.97,1254.88 1707.52,1264.55 1724.35,1273.93 1740.51,1282.9 1756.07,1288.39 1771.06,1289.21 1785.53,1282.41 1799.5,1271.34 1813.02,1256.42 1826.11,1238.06 1838.79,1216.65 1851.1,1192.49 1863.05,1166.08 1874.66,1138.47 1885.95,1107.85 1896.95,1076.35 1907.65,1046.51 1918.09,1018.14 1928.27,991.199 1938.2,965.417 1947.9,940.753 1957.38,917.234 1966.64,894.998 1975.7,873.855 1984.57,853.159 1993.25,832.937 2001.75,813.681 2010.08,795.041 2018.24,777.185 2026.24,759.872 2034.1,743.313 2041.8,727.402 2049.36,712.026 2056.79,697.267 2064.09,683.18 2071.26,669.396 2078.3,655.768 2085.23,642.589 2092.05,629.826 2098.75,617.494 2105.34,605.536 2111.84,594.005 2118.23,582.823 2124.52,572.018 2130.72,561.473 2136.83,551.33 2142.85,541.356 2148.78,531.66 2154.62,522.331 2160.39,513.099 2166.08,504.185 2171.68,495.468 2177.22,486.971 2182.68,478.694 2188.07,470.645 2193.38,462.889 2198.64,455.292 2203.82,447.882 2208.94,440.749 2214,433.78 2219,426.763 2223.93,419.874 2228.81,413.15 2233.63,406.609 2238.4,400.216 2243.11,394.006 2247.77,387.959 2252.37,381.987 2256.93,376.211 2261.43,370.693 2265.89,365.223 2270.3,359.815 2274.66,354.5 2278.98,349.321 2283.25,344.294 2287.48,339.511 2291.66,334.68 2295.81,329.8 "/>
<path clip-path="url(#clip362)" d="M397.458 913.401 L683.188 944.443 L850.329 971.855 L968.918 1000.53 L1060.9 1026.43 L1136.06 1050.82 L1199.6 1076.86 L1254.65 1100.6 L1303.2 1122.85 L1346.63 1146.65 L1385.92 1165.57 L1421.79 1183.47 L1454.78 1200.62 L1485.33 1217.26 L1513.77 1235.23 L1540.38 1249.34 L1565.37 1262.92 L1588.93 1276.06 L1611.22 1288.9 L1632.36 1302.15 L1652.47 1315.84 L1671.65 1326.71 L1689.97 1337.64 L1707.52 1348.28 L1724.35 1358.67 L1740.51 1368.51 L1756.07 1374.58 L1771.06 1375.84 L1785.53 1370.01 L1799.5 1359.6 L1813.02 1345.43 L1826.11 1327.83 L1838.79 1307.57 L1851.1 1284.28 L1863.05 1258.51 L1874.66 1231.4 L1885.95 1201.43 L1896.95 1170.29 L1907.65 1140.88 L1918.09 1113.35 L1928.27 1086.92 L1938.2 1061.74 L1947.9 1037.97 L1957.38 1015.26 L1966.64 993.389 L1975.7 972.575 L1984.57 952.229 L1993.25 932.326 L2001.75 913.223 L2010.08 894.875 L2018.24 877.449 L2026.24 860.912 L2034.1 844.957 L2041.8 829.549 L2049.36 814.706 L2056.79 800.395 L2064.09 786.554 L2071.26 773.101 L2078.3 759.744 L2085.23 747.007 L2092.05 734.611 L2098.75 722.621 L2105.34 711.019 L2111.84 699.789 L2118.23 688.914 L2124.52 678.378 L2130.72 668.167 L2136.83 658.268 L2142.85 648.632 L2148.78 639.219 L2154.62 629.879 L2160.39 620.799 L2166.08 611.978 L2171.68 603.407 L2177.22 595.075 L2182.68 586.974 L2188.07 579.095 L2193.38 571.429 L2198.64 563.97 L2203.82 556.709 L2208.94 549.64 L2214 542.755 L2219 535.948 L2223.93 529.159 L2228.81 522.532 L2233.63 516.035 L2238.4 509.683 L2243.11 503.485 L2247.77 497.434 L2252.37 491.527 L2256.93 485.758 L2261.43 480.125 L2265.89 474.69 L2270.3 469.382 L2274.66 464.197 L2278.98 459.131 L2283.25 454.18 L2287.48 449.341 L2291.66 444.48 L2295.81 439.594 L2295.81 85.9411 L2291.66 90.8268 L2287.48 95.8719 L2283.25 101.083 L2278.98 106.408 L2274.66 111.85 L2270.3 117.414 L2265.89 123.102 L2261.43 128.919 L2256.93 134.869 L2252.37 140.956 L2247.77 147.184 L2243.11 153.557 L2238.4 160.081 L2233.63 166.734 L2228.81 173.461 L2223.93 180.32 L2219 187.342 L2214 194.47 L2208.94 201.762 L2203.82 209.243 L2198.64 216.921 L2193.38 224.803 L2188.07 232.896 L2182.68 241.209 L2177.22 249.749 L2171.68 258.526 L2166.08 267.549 L2160.39 276.827 L2154.62 286.372 L2148.78 296.086 L2142.85 306.035 L2136.83 316.324 L2130.72 327.029 L2124.52 338.056 L2118.23 349.42 L2111.84 361.136 L2105.34 373.006 L2098.75 384.91 L2092.05 397.842 L2085.23 411.197 L2078.3 424.998 L2071.26 439.266 L2064.09 453.728 L2056.79 468.685 L2049.36 484.439 L2041.8 500.805 L2034.1 517.628 L2026.24 535.074 L2018.24 553.034 L2010.08 571.629 L2001.75 589.711 L1993.25 609.185 L1984.57 630.461 L1975.7 652.266 L1966.64 674.312 L1957.38 697.763 L1947.9 722.956 L1938.2 749.109 L1928.27 776.368 L1918.09 804.35 L1907.65 833.592 L1896.95 865.052 L1885.95 897.997 L1874.66 929.043 L1863.05 958.315 L1851.1 986.738 L1838.79 1013 L1826.11 1035.81 L1813.02 1056.65 L1799.5 1072.38 L1785.53 1082.41 L1771.06 1091.71 L1756.07 1093.49 L1740.51 1090.92 L1724.35 1084.89 L1707.52 1078.38 L1689.97 1071.71 L1671.65 1064.87 L1652.47 1057.83 L1632.36 1048.03 L1611.22 1039.25 L1588.93 1031.68 L1565.37 1023.87 L1540.38 1015.91 L1513.77 1007.65 L1485.33 995.698 L1454.78 986.025 L1421.79 976.529 L1385.92 966.543 L1346.63 955.993 L1303.2 941.331 L1254.65 929.885 L1199.6 917.538 L1136.06 904.073 L1060.9 894.766 L968.918 886.345 L850.329 878.415 L683.188 878.415 L397.458 878.415  Z" fill="#0000ff" fill-rule="evenodd" fill-opacity="0.35"/>
<polyline clip-path="url(#clip362)" style="stroke:#0000ff; stroke-linecap:round; stroke-linejoin:round; stroke-width:4; stroke-opacity:0.35; fill:none" points="397.458,913.401 683.188,944.443 850.329,971.855 968.918,1000.53 1060.9,1026.43 1136.06,1050.82 1199.6,1076.86 1254.65,1100.6 1303.2,1122.85 1346.63,1146.65 1385.92,1165.57 1421.79,1183.47 1454.78,1200.62 1485.33,1217.26 1513.77,1235.23 1540.38,1249.34 1565.37,1262.92 1588.93,1276.06 1611.22,1288.9 1632.36,1302.15 1652.47,1315.84 1671.65,1326.71 1689.97,1337.64 1707.52,1348.28 1724.35,1358.67 1740.51,1368.51 1756.07,1374.58 1771.06,1375.84 1785.53,1370.01 1799.5,1359.6 1813.02,1345.43 1826.11,1327.83 1838.79,1307.57 1851.1,1284.28 1863.05,1258.51 1874.66,1231.4 1885.95,1201.43 1896.95,1170.29 1907.65,1140.88 1918.09,1113.35 1928.27,1086.92 1938.2,1061.74 1947.9,1037.97 1957.38,1015.26 1966.64,993.389 1975.7,972.575 1984.57,952.229 1993.25,932.326 2001.75,913.223 2010.08,894.875 2018.24,877.449 2026.24,860.912 2034.1,844.957 2041.8,829.549 2049.36,814.706 2056.79,800.395 2064.09,786.554 2071.26,773.101 2078.3,759.744 2085.23,747.007 2092.05,734.611 2098.75,722.621 2105.34,711.019 2111.84,699.789 2118.23,688.914 2124.52,678.378 2130.72,668.167 2136.83,658.268 2142.85,648.632 2148.78,639.219 2154.62,629.879 2160.39,620.799 2166.08,611.978 2171.68,603.407 2177.22,595.075 2182.68,586.974 2188.07,579.095 2193.38,571.429 2198.64,563.97 2203.82,556.709 2208.94,549.64 2214,542.755 2219,535.948 2223.93,529.159 2228.81,522.532 2233.63,516.035 2238.4,509.683 2243.11,503.485 2247.77,497.434 2252.37,491.527 2256.93,485.758 2261.43,480.125 2265.89,474.69 2270.3,469.382 2274.66,464.197 2278.98,459.131 2283.25,454.18 2287.48,449.341 2291.66,444.48 2295.81,439.594 "/>
<polyline clip-path="url(#clip362)" style="stroke:#000000; stroke-linecap:round; stroke-linejoin:round; stroke-width:8; stroke-opacity:1; fill:none" stroke-dasharray="32, 20" points="397.458,878.415 683.188,878.415 850.329,878.415 968.918,878.415 1060.9,878.415 1136.06,878.415 1199.6,878.415 1254.65,878.415 1303.2,878.415 1346.63,878.415 1385.92,878.415 1421.79,878.415 1454.78,878.415 1485.33,878.415 1513.77,878.415 1540.38,878.415 1565.37,878.415 1588.93,878.415 1611.22,878.415 1632.36,878.415 1652.47,878.415 1671.65,878.415 1689.97,878.415 1707.52,878.415 1724.35,878.415 1740.51,878.415 1756.07,878.415 1771.06,878.415 1785.53,878.415 1799.5,878.415 1813.02,878.415 1826.11,878.415 1838.79,878.415 1851.1,878.415 1863.05,878.415 1874.66,878.415 1885.95,878.415 1896.95,878.415 1907.65,878.415 1918.09,878.415 1928.27,878.415 1938.2,878.415 1947.9,878.415 1957.38,878.415 1966.64,878.415 1975.7,878.415 1984.57,878.415 1993.25,878.415 2001.75,878.415 2010.08,878.415 2018.24,878.415 2026.24,878.415 2034.1,878.415 2041.8,878.415 2049.36,878.415 2056.79,878.415 2064.09,878.415 2071.26,878.415 2078.3,878.415 2085.23,878.415 2092.05,878.415 2098.75,878.415 2105.34,878.415 2111.84,878.415 2118.23,878.415 2124.52,878.415 2130.72,878.415 2136.83,878.415 2142.85,878.415 2148.78,878.415 2154.62,878.415 2160.39,878.415 2166.08,878.415 2171.68,878.415 2177.22,878.415 2182.68,878.415 2188.07,878.415 2193.38,878.415 2198.64,878.415 2203.82,878.415 2208.94,878.415 2214,878.415 2219,878.415 2223.93,878.415 2228.81,878.415 2233.63,878.415 2238.4,878.415 2243.11,878.415 2247.77,878.415 2252.37,878.415 2256.93,878.415 2261.43,878.415 2265.89,878.415 2270.3,878.415 2274.66,878.415 2278.98,878.415 2283.25,878.415 2287.48,878.415 2291.66,878.415 2295.81,878.415 "/>
</svg>
