<svg xmlns="http://www.w3.org/2000/svg" xmlns:xlink="http://www.w3.org/1999/xlink" width="600" height="400" viewBox="0 0 2400 1600">
<defs>
  <clipPath id="clip350">
    <rect x="0" y="0" width="2400" height="1600"></rect>
  </clipPath>
</defs>
<path clip-path="url(#clip350)" d="M0 1600 L2400 1600 L2400 0 L0 0  Z" fill="#ffffff" fill-rule="evenodd" fill-opacity="1"></path>
<defs>
  <clipPath id="clip351">
    <rect x="480" y="0" width="1681" height="1600"></rect>
  </clipPath>
</defs>
<path clip-path="url(#clip350)" d="M302.806 1414.54 L2352.76 1414.54 L2352.76 47.2441 L302.806 47.2441  Z" fill="#ffffff" fill-rule="evenodd" fill-opacity="1"></path>
<defs>
  <clipPath id="clip352">
    <rect x="302" y="47" width="2051" height="1368"></rect>
  </clipPath>
</defs>
<polyline clip-path="url(#clip352)" style="stroke:#000000; stroke-linecap:round; stroke-linejoin:round; stroke-width:2; stroke-opacity:0.1; fill:none" points="360.823,1414.54 360.823,47.2441 "></polyline>
<polyline clip-path="url(#clip352)" style="stroke:#000000; stroke-linecap:round; stroke-linejoin:round; stroke-width:2; stroke-opacity:0.1; fill:none" points="1327.78,1414.54 1327.78,47.2441 "></polyline>
<polyline clip-path="url(#clip352)" style="stroke:#000000; stroke-linecap:round; stroke-linejoin:round; stroke-width:2; stroke-opacity:0.1; fill:none" points="2294.74,1414.54 2294.74,47.2441 "></polyline>
<polyline clip-path="url(#clip350)" style="stroke:#000000; stroke-linecap:round; stroke-linejoin:round; stroke-width:4; stroke-opacity:1; fill:none" points="302.806,1414.54 2352.76,1414.54 "></polyline>
<polyline clip-path="url(#clip350)" style="stroke:#000000; stroke-linecap:round; stroke-linejoin:round; stroke-width:4; stroke-opacity:1; fill:none" points="360.823,1414.54 360.823,1395.64 "></polyline>
<polyline clip-path="url(#clip350)" style="stroke:#000000; stroke-linecap:round; stroke-linejoin:round; stroke-width:4; stroke-opacity:1; fill:none" points="1327.78,1414.54 1327.78,1395.64 "></polyline>
<polyline clip-path="url(#clip350)" style="stroke:#000000; stroke-linecap:round; stroke-linejoin:round; stroke-width:4; stroke-opacity:1; fill:none" points="2294.74,1414.54 2294.74,1395.64 "></polyline>
<path clip-path="url(#clip350)" d="M329.183 1482.82 L338.731 1482.82 L338.731 1449.86 L328.344 1451.95 L328.344 1446.62 L338.673 1444.54 L344.518 1444.54 L344.518 1482.82 L354.067 1482.82 L354.067 1487.74 L329.183 1487.74 L329.183 1482.82 Z" fill="#000000" fill-rule="nonzero" fill-opacity="1"></path><path clip-path="url(#clip350)" d="M378.372 1448.39 Q373.858 1448.39 371.572 1452.84 Q369.316 1457.27 369.316 1466.18 Q369.316 1475.07 371.572 1479.52 Q373.858 1483.95 378.372 1483.95 Q382.915 1483.95 385.172 1479.52 Q387.458 1475.07 387.458 1466.18 Q387.458 1457.27 385.172 1452.84 Q382.915 1448.39 378.372 1448.39 M378.372 1443.76 Q385.635 1443.76 389.454 1449.52 Q393.303 1455.25 393.303 1466.18 Q393.303 1477.09 389.454 1482.85 Q385.635 1488.58 378.372 1488.58 Q371.11 1488.58 367.261 1482.85 Q363.442 1477.09 363.442 1466.18 Q363.442 1455.25 367.261 1449.52 Q371.11 1443.76 378.372 1443.76 Z" fill="#000000" fill-rule="nonzero" fill-opacity="1"></path><path clip-path="url(#clip350)" d="M1277.29 1482.82 L1286.84 1482.82 L1286.84 1449.86 L1276.45 1451.95 L1276.45 1446.62 L1286.78 1444.54 L1292.62 1444.54 L1292.62 1482.82 L1302.17 1482.82 L1302.17 1487.74 L1277.29 1487.74 L1277.29 1482.82 Z" fill="#000000" fill-rule="nonzero" fill-opacity="1"></path><path clip-path="url(#clip350)" d="M1326.48 1448.39 Q1321.96 1448.39 1319.68 1452.84 Q1317.42 1457.27 1317.42 1466.18 Q1317.42 1475.07 1319.68 1479.52 Q1321.96 1483.95 1326.48 1483.95 Q1331.02 1483.95 1333.28 1479.52 Q1335.56 1475.07 1335.56 1466.18 Q1335.56 1457.27 1333.28 1452.84 Q1331.02 1448.39 1326.48 1448.39 M1326.48 1443.76 Q1333.74 1443.76 1337.56 1449.52 Q1341.41 1455.25 1341.41 1466.18 Q1341.41 1477.09 1337.56 1482.85 Q1333.74 1488.58 1326.48 1488.58 Q1319.22 1488.58 1315.37 1482.85 Q1311.55 1477.09 1311.55 1466.18 Q1311.55 1455.25 1315.37 1449.52 Q1319.22 1443.76 1326.48 1443.76 Z" fill="#000000" fill-rule="nonzero" fill-opacity="1"></path><path clip-path="url(#clip350)" d="M1364.18 1448.39 Q1359.67 1448.39 1357.38 1452.84 Q1355.12 1457.27 1355.12 1466.18 Q1355.12 1475.07 1357.38 1479.52 Q1359.67 1483.95 1364.18 1483.95 Q1368.72 1483.95 1370.98 1479.52 Q1373.27 1475.07 1373.27 1466.18 Q1373.27 1457.27 1370.98 1452.84 Q1368.72 1448.39 1364.18 1448.39 M1364.18 1443.76 Q1371.44 1443.76 1375.26 1449.52 Q1379.11 1455.25 1379.11 1466.18 Q1379.11 1477.09 1375.26 1482.85 Q1371.44 1488.58 1364.18 1488.58 Q1356.92 1488.58 1353.07 1482.85 Q1349.25 1477.09 1349.25 1466.18 Q1349.25 1455.25 1353.07 1449.52 Q1356.92 1443.76 1364.18 1443.76 Z" fill="#000000" fill-rule="nonzero" fill-opacity="1"></path><path clip-path="url(#clip350)" d="M2225.4 1482.82 L2234.94 1482.82 L2234.94 1449.86 L2224.56 1451.95 L2224.56 1446.62 L2234.89 1444.54 L2240.73 1444.54 L2240.73 1482.82 L2250.28 1482.82 L2250.28 1487.74 L2225.4 1487.74 L2225.4 1482.82 Z" fill="#000000" fill-rule="nonzero" fill-opacity="1"></path><path clip-path="url(#clip350)" d="M2274.59 1448.39 Q2270.07 1448.39 2267.79 1452.84 Q2265.53 1457.27 2265.53 1466.18 Q2265.53 1475.07 2267.79 1479.52 Q2270.07 1483.95 2274.59 1483.95 Q2279.13 1483.95 2281.38 1479.52 Q2283.67 1475.07 2283.67 1466.18 Q2283.67 1457.27 2281.38 1452.84 Q2279.13 1448.39 2274.59 1448.39 M2274.59 1443.76 Q2281.85 1443.76 2285.67 1449.52 Q2289.52 1455.25 2289.52 1466.18 Q2289.52 1477.09 2285.67 1482.85 Q2281.85 1488.58 2274.59 1488.58 Q2267.32 1488.58 2263.47 1482.85 Q2259.65 1477.09 2259.65 1466.18 Q2259.65 1455.25 2263.47 1449.52 Q2267.32 1443.76 2274.59 1443.76 Z" fill="#000000" fill-rule="nonzero" fill-opacity="1"></path><path clip-path="url(#clip350)" d="M2312.29 1448.39 Q2307.77 1448.39 2305.49 1452.84 Q2303.23 1457.27 2303.23 1466.18 Q2303.23 1475.07 2305.49 1479.52 Q2307.77 1483.95 2312.29 1483.95 Q2316.83 1483.95 2319.09 1479.52 Q2321.37 1475.07 2321.37 1466.18 Q2321.37 1457.27 2319.09 1452.84 Q2316.83 1448.39 2312.29 1448.39 M2312.29 1443.76 Q2319.55 1443.76 2323.37 1449.52 Q2327.22 1455.25 2327.22 1466.18 Q2327.22 1477.09 2323.37 1482.85 Q2319.55 1488.58 2312.29 1488.58 Q2305.02 1488.58 2301.18 1482.85 Q2297.36 1477.09 2297.36 1466.18 Q2297.36 1455.25 2301.18 1449.52 Q2305.02 1443.76 2312.29 1443.76 Z" fill="#000000" fill-rule="nonzero" fill-opacity="1"></path><path clip-path="url(#clip350)" d="M2349.99 1448.39 Q2345.48 1448.39 2343.19 1452.84 Q2340.93 1457.27 2340.93 1466.18 Q2340.93 1475.07 2343.19 1479.52 Q2345.48 1483.95 2349.99 1483.95 Q2354.53 1483.95 2356.79 1479.52 Q2359.08 1475.07 2359.08 1466.18 Q2359.08 1457.27 2356.79 1452.84 Q2354.53 1448.39 2349.99 1448.39 M2349.99 1443.76 Q2357.25 1443.76 2361.07 1449.52 Q2364.92 1455.25 2364.92 1466.18 Q2364.92 1477.09 2361.07 1482.85 Q2357.25 1488.58 2349.99 1488.58 Q2342.73 1488.58 2338.88 1482.85 Q2335.06 1477.09 2335.06 1466.18 Q2335.06 1455.25 2338.88 1449.52 Q2342.73 1443.76 2349.99 1443.76 Z" fill="#000000" fill-rule="nonzero" fill-opacity="1"></path><path clip-path="url(#clip350)" d="M1136.33 1550.08 Q1138.4 1550.78 1140.34 1553.08 Q1142.32 1555.37 1144.29 1559.38 L1150.81 1572.36 L1143.91 1572.36 L1137.83 1560.17 Q1135.47 1555.4 1133.24 1553.84 Q1131.05 1552.28 1127.23 1552.28 L1120.23 1552.28 L1120.23 1572.36 L1113.8 1572.36 L1113.8 1524.84 L1128.31 1524.84 Q1136.46 1524.84 1140.47 1528.25 Q1144.48 1531.66 1144.48 1538.53 Q1144.48 1543.02 1142.38 1545.98 Q1140.31 1548.94 1136.33 1550.08 M1120.23 1530.13 L1120.23 1547 L1128.31 1547 Q1132.96 1547 1135.31 1544.86 Q1137.7 1542.7 1137.7 1538.53 Q1137.7 1534.36 1135.31 1532.26 Q1132.96 1530.13 1128.31 1530.13 L1120.23 1530.13 Z" fill="#000000" fill-rule="nonzero" fill-opacity="1"></path><path clip-path="url(#clip350)" d="M1186.4 1553.08 L1186.4 1555.94 L1159.47 1555.94 Q1159.85 1561.99 1163.1 1565.17 Q1166.38 1568.32 1172.2 1568.32 Q1175.58 1568.32 1178.73 1567.49 Q1181.91 1566.67 1185.03 1565.01 L1185.03 1570.55 Q1181.88 1571.89 1178.57 1572.59 Q1175.26 1573.29 1171.85 1573.29 Q1163.32 1573.29 1158.33 1568.32 Q1153.36 1563.36 1153.36 1554.89 Q1153.36 1546.14 1158.07 1541.01 Q1162.81 1535.86 1170.83 1535.86 Q1178.03 1535.86 1182.2 1540.5 Q1186.4 1545.12 1186.4 1553.08 M1180.54 1551.36 Q1180.48 1546.55 1177.84 1543.69 Q1175.23 1540.82 1170.9 1540.82 Q1166 1540.82 1163.04 1543.59 Q1160.11 1546.36 1159.66 1551.39 L1180.54 1551.36 Z" fill="#000000" fill-rule="nonzero" fill-opacity="1"></path><path clip-path="url(#clip350)" d="M1201.8 1526.59 L1201.8 1536.72 L1213.87 1536.72 L1213.87 1541.27 L1201.8 1541.27 L1201.8 1560.62 Q1201.8 1564.98 1202.98 1566.22 Q1204.19 1567.46 1207.85 1567.46 L1213.87 1567.46 L1213.87 1572.36 L1207.85 1572.36 Q1201.07 1572.36 1198.49 1569.85 Q1195.92 1567.3 1195.92 1560.62 L1195.92 1541.27 L1191.62 1541.27 L1191.62 1536.72 L1195.92 1536.72 L1195.92 1526.59 L1201.8 1526.59 Z" fill="#000000" fill-rule="nonzero" fill-opacity="1"></path><path clip-path="url(#clip350)" d="M1220.96 1558.3 L1220.96 1536.72 L1226.82 1536.72 L1226.82 1558.07 Q1226.82 1563.13 1228.79 1565.68 Q1230.77 1568.19 1234.71 1568.19 Q1239.46 1568.19 1242.19 1565.17 Q1244.96 1562.15 1244.96 1556.93 L1244.96 1536.72 L1250.82 1536.72 L1250.82 1572.36 L1244.96 1572.36 L1244.96 1566.89 Q1242.83 1570.14 1240 1571.73 Q1237.2 1573.29 1233.47 1573.29 Q1227.33 1573.29 1224.15 1569.47 Q1220.96 1565.65 1220.96 1558.3 M1235.7 1535.86 L1235.7 1535.86 Z" fill="#000000" fill-rule="nonzero" fill-opacity="1"></path><path clip-path="url(#clip350)" d="M1283.54 1542.19 Q1282.55 1541.62 1281.37 1541.36 Q1280.23 1541.08 1278.83 1541.08 Q1273.86 1541.08 1271.19 1544.32 Q1268.55 1547.54 1268.55 1553.59 L1268.55 1572.36 L1262.66 1572.36 L1262.66 1536.72 L1268.55 1536.72 L1268.55 1542.25 Q1270.39 1539.01 1273.35 1537.45 Q1276.31 1535.86 1280.55 1535.86 Q1281.15 1535.86 1281.88 1535.95 Q1282.62 1536.02 1283.51 1536.17 L1283.54 1542.19 Z" fill="#000000" fill-rule="nonzero" fill-opacity="1"></path><path clip-path="url(#clip350)" d="M1318.17 1550.85 L1318.17 1572.36 L1312.31 1572.36 L1312.31 1551.04 Q1312.31 1545.98 1310.34 1543.46 Q1308.37 1540.95 1304.42 1540.95 Q1299.68 1540.95 1296.94 1543.97 Q1294.2 1547 1294.2 1552.22 L1294.2 1572.36 L1288.31 1572.36 L1288.31 1536.72 L1294.2 1536.72 L1294.2 1542.25 Q1296.3 1539.04 1299.14 1537.45 Q1302 1535.86 1305.72 1535.86 Q1311.87 1535.86 1315.02 1539.68 Q1318.17 1543.46 1318.17 1550.85 Z" fill="#000000" fill-rule="nonzero" fill-opacity="1"></path><path clip-path="url(#clip350)" d="M1357.25 1530.13 L1357.25 1547.98 L1365.34 1547.98 Q1369.83 1547.98 1372.28 1545.66 Q1374.73 1543.34 1374.73 1539.04 Q1374.73 1534.77 1372.28 1532.45 Q1369.83 1530.13 1365.34 1530.13 L1357.25 1530.13 M1350.82 1524.84 L1365.34 1524.84 Q1373.33 1524.84 1377.4 1528.47 Q1381.51 1532.07 1381.51 1539.04 Q1381.51 1546.07 1377.4 1549.67 Q1373.33 1553.27 1365.34 1553.27 L1357.25 1553.27 L1357.25 1572.36 L1350.82 1572.36 L1350.82 1524.84 Z" fill="#000000" fill-rule="nonzero" fill-opacity="1"></path><path clip-path="url(#clip350)" d="M1418.05 1553.08 L1418.05 1555.94 L1391.12 1555.94 Q1391.5 1561.99 1394.75 1565.17 Q1398.03 1568.32 1403.85 1568.32 Q1407.22 1568.32 1410.38 1567.49 Q1413.56 1566.67 1416.68 1565.01 L1416.68 1570.55 Q1413.53 1571.89 1410.22 1572.59 Q1406.91 1573.29 1403.5 1573.29 Q1394.97 1573.29 1389.97 1568.32 Q1385.01 1563.36 1385.01 1554.89 Q1385.01 1546.14 1389.72 1541.01 Q1394.46 1535.86 1402.48 1535.86 Q1409.68 1535.86 1413.85 1540.5 Q1418.05 1545.12 1418.05 1553.08 M1412.19 1551.36 Q1412.13 1546.55 1409.48 1543.69 Q1406.87 1540.82 1402.55 1540.82 Q1397.64 1540.82 1394.68 1543.59 Q1391.76 1546.36 1391.31 1551.39 L1412.19 1551.36 Z" fill="#000000" fill-rule="nonzero" fill-opacity="1"></path><path clip-path="url(#clip350)" d="M1448.32 1542.19 Q1447.33 1541.62 1446.15 1541.36 Q1445.01 1541.08 1443.6 1541.08 Q1438.64 1541.08 1435.97 1544.32 Q1433.32 1547.54 1433.32 1553.59 L1433.32 1572.36 L1427.44 1572.36 L1427.44 1536.72 L1433.32 1536.72 L1433.32 1542.25 Q1435.17 1539.01 1438.13 1537.45 Q1441.09 1535.86 1445.32 1535.86 Q1445.93 1535.86 1446.66 1535.95 Q1447.39 1536.02 1448.28 1536.17 L1448.32 1542.19 Z" fill="#000000" fill-rule="nonzero" fill-opacity="1"></path><path clip-path="url(#clip350)" d="M1454.46 1536.72 L1460.31 1536.72 L1460.31 1572.36 L1454.46 1572.36 L1454.46 1536.72 M1454.46 1522.84 L1460.31 1522.84 L1460.31 1530.25 L1454.46 1530.25 L1454.46 1522.84 Z" fill="#000000" fill-rule="nonzero" fill-opacity="1"></path><path clip-path="url(#clip350)" d="M1486.38 1540.82 Q1481.67 1540.82 1478.93 1544.51 Q1476.2 1548.17 1476.2 1554.57 Q1476.2 1560.97 1478.9 1564.66 Q1481.64 1568.32 1486.38 1568.32 Q1491.06 1568.32 1493.8 1564.63 Q1496.54 1560.94 1496.54 1554.57 Q1496.54 1548.24 1493.8 1544.55 Q1491.06 1540.82 1486.38 1540.82 M1486.38 1535.86 Q1494.02 1535.86 1498.38 1540.82 Q1502.74 1545.79 1502.74 1554.57 Q1502.74 1563.32 1498.38 1568.32 Q1494.02 1573.29 1486.38 1573.29 Q1478.71 1573.29 1474.35 1568.32 Q1470.02 1563.32 1470.02 1554.57 Q1470.02 1545.79 1474.35 1540.82 Q1478.71 1535.86 1486.38 1535.86 Z" fill="#000000" fill-rule="nonzero" fill-opacity="1"></path><path clip-path="url(#clip350)" d="M1535.91 1542.13 L1535.91 1522.84 L1541.76 1522.84 L1541.76 1572.36 L1535.91 1572.36 L1535.91 1567.02 Q1534.06 1570.2 1531.23 1571.76 Q1528.43 1573.29 1524.48 1573.29 Q1518.02 1573.29 1513.95 1568.13 Q1509.9 1562.97 1509.9 1554.57 Q1509.9 1546.17 1513.95 1541.01 Q1518.02 1535.86 1524.48 1535.86 Q1528.43 1535.86 1531.23 1537.42 Q1534.06 1538.94 1535.91 1542.13 M1515.95 1554.57 Q1515.95 1561.03 1518.59 1564.72 Q1521.27 1568.39 1525.91 1568.39 Q1530.56 1568.39 1533.23 1564.72 Q1535.91 1561.03 1535.91 1554.57 Q1535.91 1548.11 1533.23 1544.45 Q1530.56 1540.76 1525.91 1540.76 Q1521.27 1540.76 1518.59 1544.45 Q1515.95 1548.11 1515.95 1554.57 Z" fill="#000000" fill-rule="nonzero" fill-opacity="1"></path><polyline clip-path="url(#clip352)" style="stroke:#000000; stroke-linecap:round; stroke-linejoin:round; stroke-width:2; stroke-opacity:0.1; fill:none" points="302.806,1274.03 2352.76,1274.03 "></polyline>
<polyline clip-path="url(#clip352)" style="stroke:#000000; stroke-linecap:round; stroke-linejoin:round; stroke-width:2; stroke-opacity:0.1; fill:none" points="302.806,1018.13 2352.76,1018.13 "></polyline>
<polyline clip-path="url(#clip352)" style="stroke:#000000; stroke-linecap:round; stroke-linejoin:round; stroke-width:2; stroke-opacity:0.1; fill:none" points="302.806,762.239 2352.76,762.239 "></polyline>
<polyline clip-path="url(#clip352)" style="stroke:#000000; stroke-linecap:round; stroke-linejoin:round; stroke-width:2; stroke-opacity:0.1; fill:none" points="302.806,506.342 2352.76,506.342 "></polyline>
<polyline clip-path="url(#clip352)" style="stroke:#000000; stroke-linecap:round; stroke-linejoin:round; stroke-width:2; stroke-opacity:0.1; fill:none" points="302.806,250.446 2352.76,250.446 "></polyline>
<polyline clip-path="url(#clip350)" style="stroke:#000000; stroke-linecap:round; stroke-linejoin:round; stroke-width:4; stroke-opacity:1; fill:none" points="302.806,1414.54 302.806,47.2441 "></polyline>
<polyline clip-path="url(#clip350)" style="stroke:#000000; stroke-linecap:round; stroke-linejoin:round; stroke-width:4; stroke-opacity:1; fill:none" points="302.806,1274.03 321.703,1274.03 "></polyline>
<polyline clip-path="url(#clip350)" style="stroke:#000000; stroke-linecap:round; stroke-linejoin:round; stroke-width:4; stroke-opacity:1; fill:none" points="302.806,1018.13 321.703,1018.13 "></polyline>
<polyline clip-path="url(#clip350)" style="stroke:#000000; stroke-linecap:round; stroke-linejoin:round; stroke-width:4; stroke-opacity:1; fill:none" points="302.806,762.239 321.703,762.239 "></polyline>
<polyline clip-path="url(#clip350)" style="stroke:#000000; stroke-linecap:round; stroke-linejoin:round; stroke-width:4; stroke-opacity:1; fill:none" points="302.806,506.342 321.703,506.342 "></polyline>
<polyline clip-path="url(#clip350)" style="stroke:#000000; stroke-linecap:round; stroke-linejoin:round; stroke-width:4; stroke-opacity:1; fill:none" points="302.806,250.446 321.703,250.446 "></polyline>
<path clip-path="url(#clip350)" d="M114.26 1274.6 L151.355 1274.6 L151.355 1279.51 L114.26 1279.51 L114.26 1274.6 Z" fill="#000000" fill-rule="nonzero" fill-opacity="1"></path><path clip-path="url(#clip350)" d="M164.028 1252.43 L186.974 1252.43 L186.974 1257.35 L169.381 1257.35 L169.381 1267.94 Q170.655 1267.51 171.928 1267.3 Q173.201 1267.07 174.474 1267.07 Q181.708 1267.07 185.932 1271.04 Q190.157 1275 190.157 1281.77 Q190.157 1288.74 185.816 1292.62 Q181.476 1296.47 173.577 1296.47 Q170.857 1296.47 168.021 1296.01 Q165.215 1295.54 162.206 1294.62 L162.206 1288.74 Q164.81 1290.16 167.587 1290.86 Q170.365 1291.55 173.461 1291.55 Q178.467 1291.55 181.389 1288.92 Q184.312 1286.29 184.312 1281.77 Q184.312 1277.26 181.389 1274.62 Q178.467 1271.99 173.461 1271.99 Q171.117 1271.99 168.774 1272.51 Q166.459 1273.03 164.028 1274.13 L164.028 1252.43 Z" fill="#000000" fill-rule="nonzero" fill-opacity="1"></path><path clip-path="url(#clip350)" d="M214.173 1256.28 Q209.659 1256.28 207.373 1260.74 Q205.116 1265.16 205.116 1274.07 Q205.116 1282.96 207.373 1287.41 Q209.659 1291.84 214.173 1291.84 Q218.716 1291.84 220.973 1287.41 Q223.258 1282.96 223.258 1274.07 Q223.258 1265.16 220.973 1260.74 Q218.716 1256.28 214.173 1256.28 M214.173 1251.65 Q221.436 1251.65 225.255 1257.41 Q229.103 1263.14 229.103 1274.07 Q229.103 1284.98 225.255 1290.74 Q221.436 1296.47 214.173 1296.47 Q206.91 1296.47 203.062 1290.74 Q199.242 1284.98 199.242 1274.07 Q199.242 1263.14 203.062 1257.41 Q206.91 1251.65 214.173 1251.65 Z" fill="#000000" fill-rule="nonzero" fill-opacity="1"></path><path clip-path="url(#clip350)" d="M251.875 1256.28 Q247.361 1256.28 245.075 1260.74 Q242.818 1265.16 242.818 1274.07 Q242.818 1282.96 245.075 1287.41 Q247.361 1291.84 251.875 1291.84 Q256.418 1291.84 258.675 1287.41 Q260.961 1282.96 260.961 1274.07 Q260.961 1265.16 258.675 1260.74 Q256.418 1256.28 251.875 1256.28 M251.875 1251.65 Q259.138 1251.65 262.957 1257.41 Q266.806 1263.14 266.806 1274.07 Q266.806 1284.98 262.957 1290.74 Q259.138 1296.47 251.875 1296.47 Q244.612 1296.47 240.764 1290.74 Q236.945 1284.98 236.945 1274.07 Q236.945 1263.14 240.764 1257.41 Q244.612 1251.65 251.875 1251.65 Z" fill="#000000" fill-rule="nonzero" fill-opacity="1"></path><path clip-path="url(#clip350)" d="M251.875 1000.38 Q247.361 1000.38 245.075 1004.84 Q242.818 1009.27 242.818 1018.18 Q242.818 1027.06 245.075 1031.52 Q247.361 1035.94 251.875 1035.94 Q256.418 1035.94 258.675 1031.52 Q260.961 1027.06 260.961 1018.18 Q260.961 1009.27 258.675 1004.84 Q256.418 1000.38 251.875 1000.38 M251.875 995.754 Q259.138 995.754 262.957 1001.51 Q266.806 1007.24 266.806 1018.18 Q266.806 1029.09 262.957 1034.84 Q259.138 1040.57 251.875 1040.57 Q244.612 1040.57 240.764 1034.84 Q236.945 1029.09 236.945 1018.18 Q236.945 1007.24 240.764 1001.51 Q244.612 995.754 251.875 995.754 Z" fill="#000000" fill-rule="nonzero" fill-opacity="1"></path><path clip-path="url(#clip350)" d="M164.028 740.639 L186.974 740.639 L186.974 745.558 L169.381 745.558 L169.381 756.148 Q170.655 755.714 171.928 755.511 Q173.201 755.28 174.474 755.28 Q181.708 755.28 185.932 759.244 Q190.157 763.208 190.157 769.979 Q190.157 776.952 185.816 780.829 Q181.476 784.678 173.577 784.678 Q170.857 784.678 168.021 784.215 Q165.215 783.752 162.206 782.826 L162.206 776.952 Q164.81 778.37 167.587 779.064 Q170.365 779.759 173.461 779.759 Q178.467 779.759 181.389 777.126 Q184.312 774.493 184.312 769.979 Q184.312 765.465 181.389 762.832 Q178.467 760.199 173.461 760.199 Q171.117 760.199 168.774 760.72 Q166.459 761.24 164.028 762.34 L164.028 740.639 Z" fill="#000000" fill-rule="nonzero" fill-opacity="1"></path><path clip-path="url(#clip350)" d="M214.173 744.487 Q209.659 744.487 207.373 748.943 Q205.116 753.37 205.116 762.282 Q205.116 771.165 207.373 775.621 Q209.659 780.048 214.173 780.048 Q218.716 780.048 220.973 775.621 Q223.258 771.165 223.258 762.282 Q223.258 753.37 220.973 748.943 Q218.716 744.487 214.173 744.487 M214.173 739.857 Q221.436 739.857 225.255 745.615 Q229.103 751.345 229.103 762.282 Q229.103 773.191 225.255 778.949 Q221.436 784.678 214.173 784.678 Q206.91 784.678 203.062 778.949 Q199.242 773.191 199.242 762.282 Q199.242 751.345 203.062 745.615 Q206.91 739.857 214.173 739.857 Z" fill="#000000" fill-rule="nonzero" fill-opacity="1"></path><path clip-path="url(#clip350)" d="M251.875 744.487 Q247.361 744.487 245.075 748.943 Q242.818 753.37 242.818 762.282 Q242.818 771.165 245.075 775.621 Q247.361 780.048 251.875 780.048 Q256.418 780.048 258.675 775.621 Q260.961 771.165 260.961 762.282 Q260.961 753.37 258.675 748.943 Q256.418 744.487 251.875 744.487 M251.875 739.857 Q259.138 739.857 262.957 745.615 Q266.806 751.345 266.806 762.282 Q266.806 773.191 262.957 778.949 Q259.138 784.678 251.875 784.678 Q244.612 784.678 240.764 778.949 Q236.945 773.191 236.945 762.282 Q236.945 751.345 240.764 745.615 Q244.612 739.857 251.875 739.857 Z" fill="#000000" fill-rule="nonzero" fill-opacity="1"></path><path clip-path="url(#clip350)" d="M127.281 523.023 L136.829 523.023 L136.829 490.066 L126.442 492.15 L126.442 486.826 L136.772 484.742 L142.616 484.742 L142.616 523.023 L152.165 523.023 L152.165 527.942 L127.281 527.942 L127.281 523.023 Z" fill="#000000" fill-rule="nonzero" fill-opacity="1"></path><path clip-path="url(#clip350)" d="M176.47 488.591 Q171.957 488.591 169.671 493.047 Q167.414 497.474 167.414 506.386 Q167.414 515.269 169.671 519.725 Q171.957 524.152 176.47 524.152 Q181.013 524.152 183.27 519.725 Q185.556 515.269 185.556 506.386 Q185.556 497.474 183.27 493.047 Q181.013 488.591 176.47 488.591 M176.47 483.961 Q183.733 483.961 187.553 489.719 Q191.401 495.448 191.401 506.386 Q191.401 517.294 187.553 523.052 Q183.733 528.781 176.47 528.781 Q169.208 528.781 165.359 523.052 Q161.54 517.294 161.54 506.386 Q161.54 495.448 165.359 489.719 Q169.208 483.961 176.47 483.961 Z" fill="#000000" fill-rule="nonzero" fill-opacity="1"></path><path clip-path="url(#clip350)" d="M214.173 488.591 Q209.659 488.591 207.373 493.047 Q205.116 497.474 205.116 506.386 Q205.116 515.269 207.373 519.725 Q209.659 524.152 214.173 524.152 Q218.716 524.152 220.973 519.725 Q223.258 515.269 223.258 506.386 Q223.258 497.474 220.973 493.047 Q218.716 488.591 214.173 488.591 M214.173 483.961 Q221.436 483.961 225.255 489.719 Q229.103 495.448 229.103 506.386 Q229.103 517.294 225.255 523.052 Q221.436 528.781 214.173 528.781 Q206.91 528.781 203.062 523.052 Q199.242 517.294 199.242 506.386 Q199.242 495.448 203.062 489.719 Q206.91 483.961 214.173 483.961 Z" fill="#000000" fill-rule="nonzero" fill-opacity="1"></path><path clip-path="url(#clip350)" d="M251.875 488.591 Q247.361 488.591 245.075 493.047 Q242.818 497.474 242.818 506.386 Q242.818 515.269 245.075 519.725 Q247.361 524.152 251.875 524.152 Q256.418 524.152 258.675 519.725 Q260.961 515.269 260.961 506.386 Q260.961 497.474 258.675 493.047 Q256.418 488.591 251.875 488.591 M251.875 483.961 Q259.138 483.961 262.957 489.719 Q266.806 495.448 266.806 506.386 Q266.806 517.294 262.957 523.052 Q259.138 528.781 251.875 528.781 Q244.612 528.781 240.764 523.052 Q236.945 517.294 236.945 506.386 Q236.945 495.448 240.764 489.719 Q244.612 483.961 251.875 483.961 Z" fill="#000000" fill-rule="nonzero" fill-opacity="1"></path><path clip-path="url(#clip350)" d="M127.281 267.127 L136.829 267.127 L136.829 234.17 L126.442 236.253 L126.442 230.929 L136.772 228.846 L142.616 228.846 L142.616 267.127 L152.165 267.127 L152.165 272.046 L127.281 272.046 L127.281 267.127 Z" fill="#000000" fill-rule="nonzero" fill-opacity="1"></path><path clip-path="url(#clip350)" d="M164.028 228.846 L186.974 228.846 L186.974 233.765 L169.381 233.765 L169.381 244.355 Q170.655 243.921 171.928 243.719 Q173.201 243.487 174.474 243.487 Q181.708 243.487 185.932 247.451 Q190.157 251.415 190.157 258.186 Q190.157 265.159 185.816 269.037 Q181.476 272.885 173.577 272.885 Q170.857 272.885 168.021 272.422 Q165.215 271.959 162.206 271.033 L162.206 265.159 Q164.81 266.577 167.587 267.272 Q170.365 267.966 173.461 267.966 Q178.467 267.966 181.389 265.333 Q184.312 262.7 184.312 258.186 Q184.312 253.672 181.389 251.039 Q178.467 248.406 173.461 248.406 Q171.117 248.406 168.774 248.927 Q166.459 249.448 164.028 250.547 L164.028 228.846 Z" fill="#000000" fill-rule="nonzero" fill-opacity="1"></path><path clip-path="url(#clip350)" d="M214.173 232.694 Q209.659 232.694 207.373 237.15 Q205.116 241.577 205.116 250.489 Q205.116 259.372 207.373 263.828 Q209.659 268.255 214.173 268.255 Q218.716 268.255 220.973 263.828 Q223.258 259.372 223.258 250.489 Q223.258 241.577 220.973 237.15 Q218.716 232.694 214.173 232.694 M214.173 228.065 Q221.436 228.065 225.255 233.823 Q229.103 239.552 229.103 250.489 Q229.103 261.398 225.255 267.156 Q221.436 272.885 214.173 272.885 Q206.91 272.885 203.062 267.156 Q199.242 261.398 199.242 250.489 Q199.242 239.552 203.062 233.823 Q206.91 228.065 214.173 228.065 Z" fill="#000000" fill-rule="nonzero" fill-opacity="1"></path><path clip-path="url(#clip350)" d="M251.875 232.694 Q247.361 232.694 245.075 237.15 Q242.818 241.577 242.818 250.489 Q242.818 259.372 245.075 263.828 Q247.361 268.255 251.875 268.255 Q256.418 268.255 258.675 263.828 Q260.961 259.372 260.961 250.489 Q260.961 241.577 258.675 237.15 Q256.418 232.694 251.875 232.694 M251.875 228.065 Q259.138 228.065 262.957 233.823 Q266.806 239.552 266.806 250.489 Q266.806 261.398 262.957 267.156 Q259.138 272.885 251.875 272.885 Q244.612 272.885 240.764 267.156 Q236.945 261.398 236.945 250.489 Q236.945 239.552 240.764 233.823 Q244.612 228.065 251.875 228.065 Z" fill="#000000" fill-rule="nonzero" fill-opacity="1"></path><path clip-path="url(#clip350)" d="M21.7677 1253.76 L58.7206 1253.76 L58.7206 1245.99 Q58.7206 1236.15 54.2646 1231.6 Q49.8086 1227.02 40.1964 1227.02 Q30.6479 1227.02 26.2237 1231.6 Q21.7677 1236.15 21.7677 1245.99 L21.7677 1253.76 M16.4842 1260.18 L16.4842 1246.98 Q16.4842 1233.16 22.2451 1226.7 Q27.9743 1220.24 40.1964 1220.24 Q52.4822 1220.24 58.2432 1226.73 Q64.0042 1233.23 64.0042 1246.98 L64.0042 1260.18 L16.4842 1260.18 Z" fill="#000000" fill-rule="nonzero" fill-opacity="1"></path><path clip-path="url(#clip350)" d="M28.3562 1210.25 L28.3562 1204.39 L64.0042 1204.39 L64.0042 1210.25 L28.3562 1210.25 M14.479 1210.25 L14.479 1204.39 L21.895 1204.39 L21.895 1210.25 L14.479 1210.25 Z" fill="#000000" fill-rule="nonzero" fill-opacity="1"></path><path clip-path="url(#clip350)" d="M14.479 1174.09 L19.3487 1174.09 L19.3487 1179.69 Q19.3487 1182.84 20.6219 1184.08 Q21.895 1185.29 25.2052 1185.29 L28.3562 1185.29 L28.3562 1175.65 L32.9077 1175.65 L32.9077 1185.29 L64.0042 1185.29 L64.0042 1191.18 L32.9077 1191.18 L32.9077 1196.78 L28.3562 1196.78 L28.3562 1191.18 L25.8736 1191.18 Q19.9216 1191.18 17.2162 1188.41 Q14.479 1185.64 14.479 1179.63 L14.479 1174.09 Z" fill="#000000" fill-rule="nonzero" fill-opacity="1"></path><path clip-path="url(#clip350)" d="M14.479 1151.14 L19.3487 1151.14 L19.3487 1156.74 Q19.3487 1159.89 20.6219 1161.13 Q21.895 1162.34 25.2052 1162.34 L28.3562 1162.34 L28.3562 1152.7 L32.9077 1152.7 L32.9077 1162.34 L64.0042 1162.34 L64.0042 1168.23 L32.9077 1168.23 L32.9077 1173.83 L28.3562 1173.83 L28.3562 1168.23 L25.8736 1168.23 Q19.9216 1168.23 17.2162 1165.46 Q14.479 1162.69 14.479 1156.68 L14.479 1151.14 Z" fill="#000000" fill-rule="nonzero" fill-opacity="1"></path><path clip-path="url(#clip350)" d="M44.7161 1115.75 L47.5806 1115.75 L47.5806 1142.67 Q53.6281 1142.29 56.8109 1139.05 Q59.9619 1135.77 59.9619 1129.94 Q59.9619 1126.57 59.1344 1123.42 Q58.3069 1120.23 56.6518 1117.12 L62.1899 1117.12 Q63.5267 1120.27 64.227 1123.58 Q64.9272 1126.89 64.9272 1130.29 Q64.9272 1138.82 59.9619 1143.82 Q54.9967 1148.78 46.5303 1148.78 Q37.7774 1148.78 32.6531 1144.07 Q27.4968 1139.33 27.4968 1131.31 Q27.4968 1124.12 32.1438 1119.95 Q36.7589 1115.75 44.7161 1115.75 M42.9973 1121.6 Q38.1912 1121.67 35.3266 1124.31 Q32.4621 1126.92 32.4621 1131.25 Q32.4621 1136.15 35.2312 1139.11 Q38.0002 1142.04 43.0292 1142.48 L42.9973 1121.6 Z" fill="#000000" fill-rule="nonzero" fill-opacity="1"></path><path clip-path="url(#clip350)" d="M33.8307 1085.48 Q33.2578 1086.46 33.0032 1087.64 Q32.7167 1088.79 32.7167 1090.19 Q32.7167 1095.15 35.9632 1097.83 Q39.1779 1100.47 45.2253 1100.47 L64.0042 1100.47 L64.0042 1106.36 L28.3562 1106.36 L28.3562 1100.47 L33.8944 1100.47 Q30.6479 1098.62 29.0883 1095.66 Q27.4968 1092.7 27.4968 1088.47 Q27.4968 1087.86 27.5923 1087.13 Q27.656 1086.4 27.8151 1085.51 L33.8307 1085.48 Z" fill="#000000" fill-rule="nonzero" fill-opacity="1"></path><path clip-path="url(#clip350)" d="M44.7161 1050.28 L47.5806 1050.28 L47.5806 1077.2 Q53.6281 1076.82 56.8109 1073.57 Q59.9619 1070.3 59.9619 1064.47 Q59.9619 1061.1 59.1344 1057.95 Q58.3069 1054.76 56.6518 1051.64 L62.1899 1051.64 Q63.5267 1054.8 64.227 1058.11 Q64.9272 1061.42 64.9272 1064.82 Q64.9272 1073.35 59.9619 1078.35 Q54.9967 1083.31 46.5303 1083.31 Q37.7774 1083.31 32.6531 1078.6 Q27.4968 1073.86 27.4968 1065.84 Q27.4968 1058.65 32.1438 1054.48 Q36.7589 1050.28 44.7161 1050.28 M42.9973 1056.13 Q38.1912 1056.2 35.3266 1058.84 Q32.4621 1061.45 32.4621 1065.78 Q32.4621 1070.68 35.2312 1073.64 Q38.0002 1076.57 43.0292 1077.01 L42.9973 1056.13 Z" fill="#000000" fill-rule="nonzero" fill-opacity="1"></path><path clip-path="url(#clip350)" d="M42.4881 1011.03 L64.0042 1011.03 L64.0042 1016.89 L42.679 1016.89 Q37.6183 1016.89 35.1038 1018.86 Q32.5894 1020.83 32.5894 1024.78 Q32.5894 1029.52 35.6131 1032.26 Q38.6368 1035 43.8567 1035 L64.0042 1035 L64.0042 1040.89 L28.3562 1040.89 L28.3562 1035 L33.8944 1035 Q30.6797 1032.9 29.0883 1030.06 Q27.4968 1027.2 27.4968 1023.48 Q27.4968 1017.33 31.3163 1014.18 Q35.1038 1011.03 42.4881 1011.03 Z" fill="#000000" fill-rule="nonzero" fill-opacity="1"></path><path clip-path="url(#clip350)" d="M29.7248 973.696 L35.1993 973.696 Q33.8307 976.179 33.1623 978.693 Q32.4621 981.176 32.4621 983.722 Q32.4621 989.419 36.0905 992.57 Q39.6872 995.721 46.212 995.721 Q52.7369 995.721 56.3653 992.57 Q59.9619 989.419 59.9619 983.722 Q59.9619 981.176 59.2935 978.693 Q58.5933 976.179 57.2247 973.696 L62.6355 973.696 Q63.7814 976.147 64.3543 978.788 Q64.9272 981.398 64.9272 984.358 Q64.9272 992.411 59.8664 997.154 Q54.8057 1001.9 46.212 1001.9 Q37.491 1001.9 32.4939 997.122 Q27.4968 992.316 27.4968 983.977 Q27.4968 981.271 28.0697 978.693 Q28.6108 976.115 29.7248 973.696 Z" fill="#000000" fill-rule="nonzero" fill-opacity="1"></path><path clip-path="url(#clip350)" d="M44.7161 933.019 L47.5806 933.019 L47.5806 959.946 Q53.6281 959.564 56.8109 956.318 Q59.9619 953.039 59.9619 947.215 Q59.9619 943.841 59.1344 940.69 Q58.3069 937.507 56.6518 934.388 L62.1899 934.388 Q63.5267 937.539 64.227 940.849 Q64.9272 944.159 64.9272 947.565 Q64.9272 956.095 59.9619 961.092 Q54.9967 966.057 46.5303 966.057 Q37.7774 966.057 32.6531 961.346 Q27.4968 956.604 27.4968 948.583 Q27.4968 941.39 32.1438 937.22 Q36.7589 933.019 44.7161 933.019 M42.9973 938.876 Q38.1912 938.939 35.3266 941.581 Q32.4621 944.191 32.4621 948.52 Q32.4621 953.421 35.2312 956.381 Q38.0002 959.309 43.0292 959.755 L42.9973 938.876 Z" fill="#000000" fill-rule="nonzero" fill-opacity="1"></path><path clip-path="url(#clip350)" d="M28.3562 902.686 L28.3562 896.83 L64.0042 896.83 L64.0042 902.686 L28.3562 902.686 M14.479 902.686 L14.479 896.83 L21.895 896.83 L21.895 902.686 L14.479 902.686 Z" fill="#000000" fill-rule="nonzero" fill-opacity="1"></path><path clip-path="url(#clip350)" d="M42.4881 854.944 L64.0042 854.944 L64.0042 860.8 L42.679 860.8 Q37.6183 860.8 35.1038 862.773 Q32.5894 864.747 32.5894 868.694 Q32.5894 873.436 35.6131 876.173 Q38.6368 878.911 43.8567 878.911 L64.0042 878.911 L64.0042 884.799 L28.3562 884.799 L28.3562 878.911 L33.8944 878.911 Q30.6797 876.81 29.0883 873.977 Q27.4968 871.113 27.4968 867.389 Q27.4968 861.246 31.3163 858.095 Q35.1038 854.944 42.4881 854.944 Z" fill="#000000" fill-rule="nonzero" fill-opacity="1"></path><path clip-path="url(#clip350)" d="M20.8447 803 Q20.8447 810.002 26.0645 814.139 Q31.2844 818.245 40.2919 818.245 Q49.2675 818.245 54.4874 814.139 Q59.7073 810.002 59.7073 803 Q59.7073 795.997 54.4874 791.923 Q49.2675 787.817 40.2919 787.817 Q31.2844 787.817 26.0645 791.923 Q20.8447 795.997 20.8447 803 M15.6248 803 Q15.6248 793.005 22.3406 787.022 Q29.0246 781.038 40.2919 781.038 Q51.5274 781.038 58.2432 787.022 Q64.9272 793.005 64.9272 803 Q64.9272 813.025 58.2432 819.041 Q51.5592 825.025 40.2919 825.025 Q29.0246 825.025 22.3406 819.041 Q15.6248 813.025 15.6248 803 Z" fill="#000000" fill-rule="nonzero" fill-opacity="1"></path><path clip-path="url(#clip350)" d="M29.7248 745.581 L35.1993 745.581 Q33.8307 748.063 33.1623 750.578 Q32.4621 753.061 32.4621 755.607 Q32.4621 761.304 36.0905 764.455 Q39.6872 767.606 46.212 767.606 Q52.7369 767.606 56.3653 764.455 Q59.9619 761.304 59.9619 755.607 Q59.9619 753.061 59.2935 750.578 Q58.5933 748.063 57.2247 745.581 L62.6355 745.581 Q63.7814 748.032 64.3543 750.673 Q64.9272 753.283 64.9272 756.243 Q64.9272 764.296 59.8664 769.038 Q54.8057 773.781 46.212 773.781 Q37.491 773.781 32.4939 769.007 Q27.4968 764.201 27.4968 755.861 Q27.4968 753.156 28.0697 750.578 Q28.6108 748 29.7248 745.581 Z" fill="#000000" fill-rule="nonzero" fill-opacity="1"></path><path clip-path="url(#clip350)" d="M29.7248 709.742 L35.1993 709.742 Q33.8307 712.225 33.1623 714.739 Q32.4621 717.222 32.4621 719.768 Q32.4621 725.465 36.0905 728.616 Q39.6872 731.767 46.212 731.767 Q52.7369 731.767 56.3653 728.616 Q59.9619 725.465 59.9619 719.768 Q59.9619 717.222 59.2935 714.739 Q58.5933 712.225 57.2247 709.742 L62.6355 709.742 Q63.7814 712.193 64.3543 714.834 Q64.9272 717.444 64.9272 720.404 Q64.9272 728.457 59.8664 733.2 Q54.8057 737.942 46.212 737.942 Q37.491 737.942 32.4939 733.168 Q27.4968 728.362 27.4968 720.023 Q27.4968 717.317 28.0697 714.739 Q28.6108 712.161 29.7248 709.742 Z" fill="#000000" fill-rule="nonzero" fill-opacity="1"></path><path clip-path="url(#clip350)" d="M49.9359 700.162 L28.3562 700.162 L28.3562 694.305 L49.7131 694.305 Q54.7739 694.305 57.3202 692.332 Q59.8346 690.358 59.8346 686.412 Q59.8346 681.669 56.8109 678.932 Q53.7872 676.163 48.5673 676.163 L28.3562 676.163 L28.3562 670.306 L64.0042 670.306 L64.0042 676.163 L58.5296 676.163 Q61.7762 678.295 63.3676 681.128 Q64.9272 683.929 64.9272 687.653 Q64.9272 693.796 61.1078 696.979 Q57.2883 700.162 49.9359 700.162 M27.4968 685.425 L27.4968 685.425 Z" fill="#000000" fill-rule="nonzero" fill-opacity="1"></path><path clip-path="url(#clip350)" d="M58.657 652.578 L77.5631 652.578 L77.5631 658.466 L28.3562 658.466 L28.3562 652.578 L33.7671 652.578 Q30.5842 650.732 29.0564 647.931 Q27.4968 645.098 27.4968 641.183 Q27.4968 634.69 32.6531 630.648 Q37.8093 626.574 46.212 626.574 Q54.6147 626.574 59.771 630.648 Q64.9272 634.69 64.9272 641.183 Q64.9272 645.098 63.3994 647.931 Q61.8398 650.732 58.657 652.578 M46.212 632.653 Q39.7508 632.653 36.0905 635.327 Q32.3984 637.969 32.3984 642.616 Q32.3984 647.262 36.0905 649.936 Q39.7508 652.578 46.212 652.578 Q52.6732 652.578 56.3653 649.936 Q60.0256 647.262 60.0256 642.616 Q60.0256 637.969 56.3653 635.327 Q52.6732 632.653 46.212 632.653 Z" fill="#000000" fill-rule="nonzero" fill-opacity="1"></path><path clip-path="url(#clip350)" d="M28.3562 616.866 L28.3562 611.01 L64.0042 611.01 L64.0042 616.866 L28.3562 616.866 M14.479 616.866 L14.479 611.01 L21.895 611.01 L21.895 616.866 L14.479 616.866 Z" fill="#000000" fill-rule="nonzero" fill-opacity="1"></path><path clip-path="url(#clip350)" d="M44.7161 568.264 L47.5806 568.264 L47.5806 595.191 Q53.6281 594.809 56.8109 591.563 Q59.9619 588.284 59.9619 582.46 Q59.9619 579.086 59.1344 575.935 Q58.3069 572.752 56.6518 569.633 L62.1899 569.633 Q63.5267 572.784 64.227 576.094 Q64.9272 579.404 64.9272 582.81 Q64.9272 591.34 59.9619 596.337 Q54.9967 601.302 46.5303 601.302 Q37.7774 601.302 32.6531 596.591 Q27.4968 591.849 27.4968 583.828 Q27.4968 576.635 32.1438 572.465 Q36.7589 568.264 44.7161 568.264 M42.9973 574.121 Q38.1912 574.184 35.3266 576.826 Q32.4621 579.436 32.4621 583.765 Q32.4621 588.666 35.2312 591.626 Q38.0002 594.554 43.0292 595 L42.9973 574.121 Z" fill="#000000" fill-rule="nonzero" fill-opacity="1"></path><path clip-path="url(#clip350)" d="M33.7671 535.194 L14.479 535.194 L14.479 529.338 L64.0042 529.338 L64.0042 535.194 L58.657 535.194 Q61.8398 537.04 63.3994 539.873 Q64.9272 542.674 64.9272 546.621 Q64.9272 553.082 59.771 557.156 Q54.6147 561.198 46.212 561.198 Q37.8093 561.198 32.6531 557.156 Q27.4968 553.082 27.4968 546.621 Q27.4968 542.674 29.0564 539.873 Q30.5842 537.04 33.7671 535.194 M46.212 555.151 Q52.6732 555.151 56.3653 552.509 Q60.0256 549.835 60.0256 545.188 Q60.0256 540.541 56.3653 537.868 Q52.6732 535.194 46.212 535.194 Q39.7508 535.194 36.0905 537.868 Q32.3984 540.541 32.3984 545.188 Q32.3984 549.835 36.0905 552.509 Q39.7508 555.151 46.212 555.151 Z" fill="#000000" fill-rule="nonzero" fill-opacity="1"></path><path clip-path="url(#clip350)" d="M43.5384 520.235 L43.5384 503.079 L48.7583 503.079 L48.7583 520.235 L43.5384 520.235 Z" fill="#000000" fill-rule="nonzero" fill-opacity="1"></path><path clip-path="url(#clip350)" d="M16.4842 493.499 L16.4842 463.453 L21.895 463.453 L21.895 487.069 L35.9632 487.069 L35.9632 464.439 L41.3741 464.439 L41.3741 487.069 L58.5933 487.069 L58.5933 462.88 L64.0042 462.88 L64.0042 493.499 L16.4842 493.499 Z" fill="#000000" fill-rule="nonzero" fill-opacity="1"></path><path clip-path="url(#clip350)" d="M28.3562 422.935 L45.7028 435.826 L64.0042 422.267 L64.0042 429.173 L49.9996 439.549 L64.0042 449.926 L64.0042 456.832 L45.3526 442.987 L28.3562 455.655 L28.3562 448.748 L41.0558 439.295 L28.3562 429.842 L28.3562 422.935 Z" fill="#000000" fill-rule="nonzero" fill-opacity="1"></path><path clip-path="url(#clip350)" d="M58.657 408.326 L77.5631 408.326 L77.5631 414.214 L28.3562 414.214 L28.3562 408.326 L33.7671 408.326 Q30.5842 406.48 29.0564 403.679 Q27.4968 400.846 27.4968 396.931 Q27.4968 390.438 32.6531 386.396 Q37.8093 382.322 46.212 382.322 Q54.6147 382.322 59.771 386.396 Q64.9272 390.438 64.9272 396.931 Q64.9272 400.846 63.3994 403.679 Q61.8398 406.48 58.657 408.326 M46.212 388.401 Q39.7508 388.401 36.0905 391.075 Q32.3984 393.716 32.3984 398.363 Q32.3984 403.01 36.0905 405.684 Q39.7508 408.326 46.212 408.326 Q52.6732 408.326 56.3653 405.684 Q60.0256 403.01 60.0256 398.363 Q60.0256 393.716 56.3653 391.075 Q52.6732 388.401 46.212 388.401 Z" fill="#000000" fill-rule="nonzero" fill-opacity="1"></path><path clip-path="url(#clip350)" d="M32.4621 358.801 Q32.4621 363.511 36.1542 366.248 Q39.8145 368.986 46.212 368.986 Q52.6095 368.986 56.3017 366.28 Q59.9619 363.543 59.9619 358.801 Q59.9619 354.122 56.2698 351.384 Q52.5777 348.647 46.212 348.647 Q39.8781 348.647 36.186 351.384 Q32.4621 354.122 32.4621 358.801 M27.4968 358.801 Q27.4968 351.162 32.4621 346.801 Q37.4273 342.441 46.212 342.441 Q54.9649 342.441 59.9619 346.801 Q64.9272 351.162 64.9272 358.801 Q64.9272 366.471 59.9619 370.832 Q54.9649 375.16 46.212 375.16 Q37.4273 375.16 32.4621 370.832 Q27.4968 366.471 27.4968 358.801 Z" fill="#000000" fill-rule="nonzero" fill-opacity="1"></path><path clip-path="url(#clip350)" d="M29.4065 310.007 L34.9447 310.007 Q33.6716 312.49 33.035 315.164 Q32.3984 317.837 32.3984 320.702 Q32.3984 325.062 33.7352 327.258 Q35.072 329.423 37.7456 329.423 Q39.7826 329.423 40.9603 327.863 Q42.1061 326.304 43.1565 321.593 L43.6021 319.588 Q44.9389 313.349 47.3897 310.739 Q49.8086 308.098 54.1691 308.098 Q59.1344 308.098 62.0308 312.044 Q64.9272 315.959 64.9272 322.834 Q64.9272 325.699 64.3543 328.818 Q63.8132 331.905 62.6992 335.343 L56.6518 335.343 Q58.3387 332.096 59.198 328.945 Q60.0256 325.794 60.0256 322.707 Q60.0256 318.569 58.6251 316.341 Q57.1929 314.113 54.6147 314.113 Q52.2276 314.113 50.9545 315.736 Q49.6813 317.328 48.5037 322.771 L48.0262 324.808 Q46.8804 330.25 44.5251 332.669 Q42.138 335.088 38.0002 335.088 Q32.9713 335.088 30.2341 331.523 Q27.4968 327.959 27.4968 321.402 Q27.4968 318.155 27.9743 315.291 Q28.4517 312.426 29.4065 310.007 Z" fill="#000000" fill-rule="nonzero" fill-opacity="1"></path><path clip-path="url(#clip350)" d="M49.9359 299.377 L28.3562 299.377 L28.3562 293.52 L49.7131 293.52 Q54.7739 293.52 57.3202 291.547 Q59.8346 289.573 59.8346 285.627 Q59.8346 280.884 56.8109 278.147 Q53.7872 275.378 48.5673 275.378 L28.3562 275.378 L28.3562 269.521 L64.0042 269.521 L64.0042 275.378 L58.5296 275.378 Q61.7762 277.51 63.3676 280.343 Q64.9272 283.144 64.9272 286.868 Q64.9272 293.011 61.1078 296.194 Q57.2883 299.377 49.9359 299.377 M27.4968 284.64 L27.4968 284.64 Z" fill="#000000" fill-rule="nonzero" fill-opacity="1"></path><path clip-path="url(#clip350)" d="M33.8307 236.802 Q33.2578 237.788 33.0032 238.966 Q32.7167 240.112 32.7167 241.512 Q32.7167 246.478 35.9632 249.151 Q39.1779 251.793 45.2253 251.793 L64.0042 251.793 L64.0042 257.681 L28.3562 257.681 L28.3562 251.793 L33.8944 251.793 Q30.6479 249.947 29.0883 246.987 Q27.4968 244.027 27.4968 239.794 Q27.4968 239.189 27.5923 238.457 Q27.656 237.725 27.8151 236.834 L33.8307 236.802 Z" fill="#000000" fill-rule="nonzero" fill-opacity="1"></path><path clip-path="url(#clip350)" d="M44.7161 201.599 L47.5806 201.599 L47.5806 228.526 Q53.6281 228.144 56.8109 224.898 Q59.9619 221.62 59.9619 215.795 Q59.9619 212.421 59.1344 209.27 Q58.3069 206.087 56.6518 202.968 L62.1899 202.968 Q63.5267 206.119 64.227 209.429 Q64.9272 212.739 64.9272 216.145 Q64.9272 224.675 59.9619 229.672 Q54.9967 234.637 46.5303 234.637 Q37.7774 234.637 32.6531 229.927 Q27.4968 225.184 27.4968 217.164 Q27.4968 209.97 32.1438 205.801 Q36.7589 201.599 44.7161 201.599 M42.9973 207.456 Q38.1912 207.519 35.3266 210.161 Q32.4621 212.771 32.4621 217.1 Q32.4621 222.001 35.2312 224.962 Q38.0002 227.89 43.0292 228.335 L42.9973 207.456 Z" fill="#000000" fill-rule="nonzero" fill-opacity="1"></path><polyline clip-path="url(#clip352)" style="stroke:#0000ff; stroke-linecap:round; stroke-linejoin:round; stroke-width:10; stroke-opacity:1; fill:none" points="360.823,1018.42 651.906,1022.9 822.179,1031.16 942.99,1028.44 1036.7,1017.57 1113.26,997.127 1178,972.975 1234.07,949.858 1283.54,928.332 1327.78,906.556 1367.81,883.945 1404.35,864.613 1437.96,844.965 1469.08,826.149 1498.05,809.979 1525.16,793.449 1550.62,778.476 1574.62,764.807 1597.32,752.02 1618.86,739.506 1639.35,728.235 1658.89,717.386 1677.56,706.776 1695.43,697.515 1712.57,688.814 1729.04,680.508 1744.89,672.696 1760.16,665.047 1774.9,658.194 1789.14,651.819 1802.91,646.031 1816.24,640.638 1829.16,635.55 1841.7,630.862 1853.87,626.389 1865.7,622.18 1877.21,618.22 1888.41,613.036 1899.32,609.242 1909.95,606.635 1920.32,603.819 1930.44,601.288 1940.32,599.178 1949.97,596.999 1959.41,594.454 1968.64,592.261 1977.67,591.028 1986.51,589.197 1995.17,586.792 2003.66,584.415 2011.97,582.589 2020.13,581.282 2028.12,579.371 2035.97,577.481 2043.68,575.612 2051.25,573.763 2058.68,571.934 2065.98,570.347 2073.16,569.13 2080.22,567.594 2087.16,566.98 2093.99,566.173 2100.71,565.485 2107.32,564.803 2113.83,564.127 2120.25,562.814 2126.56,561.487 2132.78,560.172 2138.91,559.503 2144.95,559.18 2150.91,558.86 2156.79,558.542 2162.58,557.484 2168.29,557.015 2173.93,556.55 2179.49,556.089 2184.98,555.632 2190.4,555.078 2195.75,554.397 2201.03,554.248 2206.25,554.086 2211.4,553.719 2216.49,553.296 2221.52,552.79 2226.49,552.287 2231.4,551.793 2236.26,551.723 2241.06,551.571 2245.8,551.222 2250.49,550.875 2255.13,550.531 2259.72,550.507 2264.26,550.575 2268.75,550.375 2273.2,550.174 2277.6,549.974 2281.95,550.013 2286.25,550.145 2290.52,550.21 2294.74,550.21 "></polyline>
<polyline clip-path="url(#clip352)" style="stroke:#ffa500; stroke-linecap:round; stroke-linejoin:round; stroke-width:10; stroke-opacity:1; fill:none" points="360.823,1019.55 651.906,1041.9 822.179,1099.43 942.99,1143.91 1036.7,1156.47 1113.26,1137.65 1178,1104.18 1234.07,1074.82 1283.54,1048.55 1327.78,1017.01 1367.81,981.952 1404.35,945.912 1437.96,908.918 1469.08,874.146 1498.05,838.857 1525.16,805.971 1550.62,774.515 1574.62,744.887 1597.32,717.923 1618.86,692.759 1639.35,669.647 1658.89,648.333 1677.56,628.1 1695.43,609.615 1712.57,592.891 1729.04,577.709 1744.89,564.941 1760.16,553.004 1774.9,541.75 1789.14,531.6 1802.91,522.548 1816.24,514.5 1829.16,507.399 1841.7,501.176 1853.87,495.77 1865.7,491.127 1877.21,487.191 1888.41,483.914 1899.32,481.249 1909.95,479.152 1920.32,477.581 1930.44,476.496 1940.32,475.859 1949.97,475.636 1959.41,475.635 1968.64,475.635 1977.67,475.635 1986.51,475.635 1995.17,475.635 2003.66,475.635 2011.97,475.635 2020.13,475.635 2028.12,475.635 2035.97,475.635 2043.68,475.635 2051.25,475.635 2058.68,475.635 2065.98,475.635 2073.16,475.635 2080.22,475.635 2087.16,475.635 2093.99,475.635 2100.71,475.635 2107.32,475.635 2113.83,475.635 2120.25,475.635 2126.56,475.635 2132.78,475.635 2138.91,475.635 2144.95,475.635 2150.91,475.635 2156.79,475.635 2162.58,475.635 2168.29,475.635 2173.93,475.635 2179.49,475.635 2184.98,475.635 2190.4,475.635 2195.75,475.635 2201.03,475.635 2206.25,475.635 2211.4,475.635 2216.49,475.635 2221.52,475.635 2226.49,475.635 2231.4,475.635 2236.26,475.635 2241.06,475.635 2245.8,475.635 2250.49,475.635 2255.13,475.635 2259.72,475.635 2264.26,475.635 2268.75,475.635 2273.2,475.635 2277.6,475.635 2281.95,475.635 2286.25,475.635 2290.52,475.635 2294.74,475.635 "></polyline>
<polyline clip-path="url(#clip352)" style="stroke:#008000; stroke-linecap:round; stroke-linejoin:round; stroke-width:10; stroke-opacity:1; fill:none" points="360.823,1018.13 651.906,1019.82 822.179,1024.91 942.99,1020.57 1036.7,1013.45 1113.26,998.499 1178,980.044 1234.07,963.511 1283.54,948.425 1327.78,932.351 1367.81,917.398 1404.35,903.635 1437.96,889.908 1469.08,877.853 1498.05,866.326 1525.16,853.776 1550.62,843.681 1574.62,832.95 1597.32,823.371 1618.86,813.727 1639.35,805.58 1658.89,797.327 1677.56,789.994 1695.43,782.767 1712.57,775.956 1729.04,769.822 1744.89,764.227 1760.16,757.675 1774.9,751.64 1789.14,746.137 1802.91,741.568 1816.24,736.768 1829.16,732.485 1841.7,727.821 1853.87,723.593 1865.7,719.546 1877.21,716.297 1888.41,712.597 1899.32,709.27 1909.95,705.747 1920.32,702.881 1930.44,700.009 1940.32,697.129 1949.97,694.933 1959.41,692.819 1968.64,690.215 1977.67,687.645 1986.51,685.107 1995.17,682.303 2003.66,680.017 2011.97,677.158 2020.13,674.794 2028.12,672.5 2035.97,670.232 2043.68,667.99 2051.25,665.771 2058.68,663.576 2065.98,661.404 2073.16,660.355 2080.22,658.613 2087.16,657.196 2093.99,655.265 2100.71,653.019 2107.32,651.873 2113.83,649.93 2120.25,648.413 2126.56,647.583 2132.78,645.686 2138.91,644.464 2144.95,643.252 2150.91,642.051 2156.79,640.91 2162.58,639.808 2168.29,638.489 2173.93,636.863 2179.49,635.025 2184.98,633.648 2190.4,632.059 2195.75,630.527 2201.03,628.919 2206.25,627.113 2211.4,625.425 2216.49,623.749 2221.52,622.085 2226.49,620.756 2231.4,619.77 2236.26,618.283 2241.06,616.988 2245.8,616.15 2250.49,615.317 2255.13,614.49 2259.72,613.669 2264.26,612.735 2268.75,611.451 2273.2,610.175 2277.6,608.908 2281.95,607.881 2286.25,607.094 2290.52,605.915 2294.74,604.743 "></polyline>
<path clip-path="url(#clip352)" d="M360.823 1023.65 L651.906 1039.09 L822.179 1060.48 L942.99 1068.56 L1036.7 1065.72 L1113.26 1049.21 L1178 1035.66 L1234.07 1025.35 L1283.54 1019.59 L1327.78 1014.96 L1367.81 1012.43 L1404.35 1009.24 L1437.96 1005.49 L1469.08 1002.02 L1498.05 1000.09 L1525.16 997.871 L1550.62 995.011 L1574.62 992.088 L1597.32 989.958 L1618.86 987.565 L1639.35 985.021 L1658.89 982.185 L1677.56 981.074 L1695.43 979.347 L1712.57 978.331 L1729.04 977.645 L1744.89 976.893 L1760.16 976.015 L1774.9 975.138 L1789.14 974.271 L1802.91 973.689 L1816.24 972.569 L1829.16 971.32 L1841.7 970.091 L1853.87 968.492 L1865.7 967.123 L1877.21 966.592 L1888.41 965.506 L1899.32 964.476 L1909.95 963.696 L1920.32 963.1 L1930.44 962.712 L1940.32 962.867 L1949.97 963.125 L1959.41 963.442 L1968.64 963.754 L1977.67 964.063 L1986.51 964.367 L1995.17 964.59 L2003.66 964.058 L2011.97 963.692 L2020.13 963.208 L2028.12 962.731 L2035.97 964.024 L2043.68 965.332 L2051.25 965.551 L2058.68 965.734 L2065.98 965.915 L2073.16 966.094 L2080.22 966.294 L2087.16 966.558 L2093.99 966.819 L2100.71 967.077 L2107.32 967.333 L2113.83 967.586 L2120.25 967.837 L2126.56 968.086 L2132.78 968.332 L2138.91 968.259 L2144.95 968.017 L2150.91 967.777 L2156.79 967.539 L2162.58 967.302 L2168.29 967.068 L2173.93 966.836 L2179.49 966.605 L2184.98 966.376 L2190.4 966.225 L2195.75 966.225 L2201.03 966.225 L2206.25 966.225 L2211.4 966.225 L2216.49 966.166 L2221.52 966.022 L2226.49 966.149 L2231.4 966.225 L2236.26 966.225 L2241.06 966.184 L2245.8 966.044 L2250.49 965.972 L2255.13 966.179 L2259.72 966.384 L2264.26 966.588 L2268.75 966.791 L2273.2 966.992 L2277.6 967.12 L2281.95 967.054 L2286.25 966.988 L2290.52 966.956 L2294.74 966.956 L2294.74 85.9411 L2290.52 85.9411 L2286.25 86.1367 L2281.95 86.5321 L2277.6 86.93 L2273.2 87.3304 L2268.75 87.7333 L2264.26 88.1388 L2259.72 88.5469 L2255.13 88.9577 L2250.49 89.3712 L2245.8 89.7875 L2241.06 90.2066 L2236.26 91.28 L2231.4 92.6255 L2226.49 93.9804 L2221.52 95.3449 L2216.49 96.7192 L2211.4 98.1035 L2206.25 99.0584 L2201.03 99.7239 L2195.75 100.394 L2190.4 101.07 L2184.98 102.156 L2179.49 103.452 L2173.93 104.758 L2168.29 106.075 L2162.58 107.402 L2156.79 109.176 L2150.91 111.002 L2144.95 112.843 L2138.91 115.475 L2132.78 118.608 L2126.56 121.943 L2120.25 124.265 L2113.83 126.608 L2107.32 128.973 L2100.71 131.36 L2093.99 133.77 L2087.16 136.204 L2080.22 138.661 L2073.16 141.405 L2065.98 144.779 L2058.68 148.399 L2051.25 152.057 L2043.68 155.499 L2035.97 158.864 L2028.12 162.265 L2020.13 165.706 L2011.97 169.422 L2003.66 173.237 L1995.17 177.099 L1986.51 181.008 L1977.67 184.966 L1968.64 188.976 L1959.41 193.038 L1949.97 197.329 L1940.32 201.917 L1930.44 206.736 L1920.32 211.795 L1909.95 217.679 L1899.32 224.058 L1888.41 232.257 L1877.21 245.059 L1865.7 254.364 L1853.87 262.368 L1841.7 270.707 L1829.16 279.395 L1816.24 288.448 L1802.91 299.073 L1789.14 316.145 L1774.9 327.277 L1760.16 338.873 L1744.89 351.276 L1729.04 364.485 L1712.57 379.177 L1695.43 394.234 L1677.56 409.967 L1658.89 426.967 L1639.35 444.941 L1618.86 464.55 L1597.32 486.237 L1574.62 508.328 L1550.62 532.258 L1525.16 558.674 L1498.05 585.078 L1469.08 612.717 L1437.96 645.485 L1404.35 680.627 L1367.81 714.21 L1327.78 753.043 L1283.54 793.368 L1234.07 835.403 L1178 881.016 L1113.26 927.364 L1036.7 971.819 L942.99 1002.01 L822.179 1017.35 L651.906 1018.13 L360.823 1018.13  Z" fill="#0000ff" fill-rule="evenodd" fill-opacity="0.35"></path>
<polyline clip-path="url(#clip352)" style="stroke:#0000ff; stroke-linecap:round; stroke-linejoin:round; stroke-width:4; stroke-opacity:0.35; fill:none" points="360.823,1023.65 651.906,1039.09 822.179,1060.48 942.99,1068.56 1036.7,1065.72 1113.26,1049.21 1178,1035.66 1234.07,1025.35 1283.54,1019.59 1327.78,1014.96 1367.81,1012.43 1404.35,1009.24 1437.96,1005.49 1469.08,1002.02 1498.05,1000.09 1525.16,997.871 1550.62,995.011 1574.62,992.088 1597.32,989.958 1618.86,987.565 1639.35,985.021 1658.89,982.185 1677.56,981.074 1695.43,979.347 1712.57,978.331 1729.04,977.645 1744.89,976.893 1760.16,976.015 1774.9,975.138 1789.14,974.271 1802.91,973.689 1816.24,972.569 1829.16,971.32 1841.7,970.091 1853.87,968.492 1865.7,967.123 1877.21,966.592 1888.41,965.506 1899.32,964.476 1909.95,963.696 1920.32,963.1 1930.44,962.712 1940.32,962.867 1949.97,963.125 1959.41,963.442 1968.64,963.754 1977.67,964.063 1986.51,964.367 1995.17,964.59 2003.66,964.058 2011.97,963.692 2020.13,963.208 2028.12,962.731 2035.97,964.024 2043.68,965.332 2051.25,965.551 2058.68,965.734 2065.98,965.915 2073.16,966.094 2080.22,966.294 2087.16,966.558 2093.99,966.819 2100.71,967.077 2107.32,967.333 2113.83,967.586 2120.25,967.837 2126.56,968.086 2132.78,968.332 2138.91,968.259 2144.95,968.017 2150.91,967.777 2156.79,967.539 2162.58,967.302 2168.29,967.068 2173.93,966.836 2179.49,966.605 2184.98,966.376 2190.4,966.225 2195.75,966.225 2201.03,966.225 2206.25,966.225 2211.4,966.225 2216.49,966.166 2221.52,966.022 2226.49,966.149 2231.4,966.225 2236.26,966.225 2241.06,966.184 2245.8,966.044 2250.49,965.972 2255.13,966.179 2259.72,966.384 2264.26,966.588 2268.75,966.791 2273.2,966.992 2277.6,967.12 2281.95,967.054 2286.25,966.988 2290.52,966.956 2294.74,966.956 "></polyline>
<path clip-path="url(#clip352)" d="M360.823 1042.66 L651.906 1131.81 L822.179 1242.81 L942.99 1334.82 L1036.7 1375.84 L1113.26 1375.47 L1178 1351.18 L1234.07 1330.41 L1283.54 1308.24 L1327.78 1284.84 L1367.81 1255.24 L1404.35 1222.88 L1437.96 1191.36 L1469.08 1158.82 L1498.05 1123.3 L1525.16 1098.03 L1550.62 1071.58 L1574.62 1047.38 L1597.32 1024.38 L1618.86 1002.81 L1639.35 981.376 L1658.89 962.154 L1677.56 945.202 L1695.43 929.48 L1712.57 914.574 L1729.04 901.039 L1744.89 887.766 L1760.16 875.256 L1774.9 865.587 L1789.14 856.744 L1802.91 848.422 L1816.24 840.75 L1829.16 833.92 L1841.7 827.887 L1853.87 822.612 L1865.7 818.055 L1877.21 814.177 L1888.41 810.935 L1899.32 808.292 L1909.95 806.205 L1920.32 804.639 L1930.44 803.555 L1940.32 802.919 L1949.97 802.696 L1959.41 802.695 L1968.64 802.695 L1977.67 802.695 L1986.51 802.695 L1995.17 802.695 L2003.66 802.695 L2011.97 802.695 L2020.13 802.695 L2028.12 802.695 L2035.97 802.695 L2043.68 802.695 L2051.25 802.695 L2058.68 802.695 L2065.98 802.695 L2073.16 802.695 L2080.22 802.695 L2087.16 802.695 L2093.99 802.695 L2100.71 802.695 L2107.32 802.695 L2113.83 802.695 L2120.25 802.695 L2126.56 802.695 L2132.78 802.695 L2138.91 802.695 L2144.95 802.695 L2150.91 802.695 L2156.79 802.695 L2162.58 802.695 L2168.29 802.695 L2173.93 802.695 L2179.49 802.695 L2184.98 802.695 L2190.4 802.695 L2195.75 802.695 L2201.03 802.695 L2206.25 802.695 L2211.4 802.695 L2216.49 802.695 L2221.52 802.695 L2226.49 802.695 L2231.4 802.695 L2236.26 802.695 L2241.06 802.695 L2245.8 802.695 L2250.49 802.695 L2255.13 802.695 L2259.72 802.695 L2264.26 802.695 L2268.75 802.695 L2273.2 802.695 L2277.6 802.695 L2281.95 802.695 L2286.25 802.695 L2290.52 802.695 L2294.74 802.695 L2294.74 241.916 L2290.52 241.916 L2286.25 241.916 L2281.95 241.916 L2277.6 241.916 L2273.2 241.916 L2268.75 241.916 L2264.26 241.916 L2259.72 241.916 L2255.13 241.916 L2250.49 241.916 L2245.8 241.916 L2241.06 241.916 L2236.26 241.916 L2231.4 241.916 L2226.49 241.916 L2221.52 241.916 L2216.49 241.916 L2211.4 241.916 L2206.25 241.916 L2201.03 241.916 L2195.75 241.916 L2190.4 241.916 L2184.98 241.916 L2179.49 241.916 L2173.93 241.916 L2168.29 241.916 L2162.58 241.916 L2156.79 241.916 L2150.91 241.916 L2144.95 241.916 L2138.91 241.916 L2132.78 241.916 L2126.56 241.916 L2120.25 241.916 L2113.83 241.916 L2107.32 241.916 L2100.71 241.916 L2093.99 241.916 L2087.16 241.916 L2080.22 241.916 L2073.16 241.916 L2065.98 241.916 L2058.68 241.916 L2051.25 241.916 L2043.68 241.916 L2035.97 241.916 L2028.12 241.916 L2020.13 241.916 L2011.97 241.916 L2003.66 241.916 L1995.17 241.916 L1986.51 241.916 L1977.67 241.916 L1968.64 241.916 L1959.41 241.916 L1949.97 241.917 L1940.32 242.141 L1930.44 242.777 L1920.32 243.863 L1909.95 245.433 L1899.32 247.53 L1888.41 250.193 L1877.21 253.47 L1865.7 257.407 L1853.87 262.054 L1841.7 267.466 L1829.16 273.699 L1816.24 280.816 L1802.91 288.882 L1789.14 297.95 L1774.9 308.113 L1760.16 319.384 L1744.89 331.907 L1729.04 345.661 L1712.57 360.809 L1695.43 377.403 L1677.56 395.495 L1658.89 415.482 L1639.35 437.265 L1618.86 460.983 L1597.32 486.768 L1574.62 514.326 L1550.62 543.476 L1525.16 574.802 L1498.05 608.061 L1469.08 643.774 L1437.96 682.431 L1404.35 721.474 L1367.81 760.045 L1327.78 797.474 L1283.54 829.193 L1234.07 858.698 L1178 898.436 L1113.26 945.452 L1036.7 997.162 L942.99 1023.79 L822.179 1028.44 L651.906 1018.13 L360.823 1018.13  Z" fill="#ffa500" fill-rule="evenodd" fill-opacity="0.35"></path>
<polyline clip-path="url(#clip352)" style="stroke:#ffa500; stroke-linecap:round; stroke-linejoin:round; stroke-width:4; stroke-opacity:0.35; fill:none" points="360.823,1042.66 651.906,1131.81 822.179,1242.81 942.99,1334.82 1036.7,1375.84 1113.26,1375.47 1178,1351.18 1234.07,1330.41 1283.54,1308.24 1327.78,1284.84 1367.81,1255.24 1404.35,1222.88 1437.96,1191.36 1469.08,1158.82 1498.05,1123.3 1525.16,1098.03 1550.62,1071.58 1574.62,1047.38 1597.32,1024.38 1618.86,1002.81 1639.35,981.376 1658.89,962.154 1677.56,945.202 1695.43,929.48 1712.57,914.574 1729.04,901.039 1744.89,887.766 1760.16,875.256 1774.9,865.587 1789.14,856.744 1802.91,848.422 1816.24,840.75 1829.16,833.92 1841.7,827.887 1853.87,822.612 1865.7,818.055 1877.21,814.177 1888.41,810.935 1899.32,808.292 1909.95,806.205 1920.32,804.639 1930.44,803.555 1940.32,802.919 1949.97,802.696 1959.41,802.695 1968.64,802.695 1977.67,802.695 1986.51,802.695 1995.17,802.695 2003.66,802.695 2011.97,802.695 2020.13,802.695 2028.12,802.695 2035.97,802.695 2043.68,802.695 2051.25,802.695 2058.68,802.695 2065.98,802.695 2073.16,802.695 2080.22,802.695 2087.16,802.695 2093.99,802.695 2100.71,802.695 2107.32,802.695 2113.83,802.695 2120.25,802.695 2126.56,802.695 2132.78,802.695 2138.91,802.695 2144.95,802.695 2150.91,802.695 2156.79,802.695 2162.58,802.695 2168.29,802.695 2173.93,802.695 2179.49,802.695 2184.98,802.695 2190.4,802.695 2195.75,802.695 2201.03,802.695 2206.25,802.695 2211.4,802.695 2216.49,802.695 2221.52,802.695 2226.49,802.695 2231.4,802.695 2236.26,802.695 2241.06,802.695 2245.8,802.695 2250.49,802.695 2255.13,802.695 2259.72,802.695 2264.26,802.695 2268.75,802.695 2273.2,802.695 2277.6,802.695 2281.95,802.695 2286.25,802.695 2290.52,802.695 2294.74,802.695 "></polyline>
<path clip-path="url(#clip352)" d="M360.823 1022.92 L651.906 1032.17 L822.179 1045.5 L942.99 1047.28 L1036.7 1044.71 L1113.26 1033.75 L1178 1024.94 L1234.07 1019.08 L1283.54 1015.04 L1327.78 1010.95 L1367.81 1007.53 L1404.35 1005 L1437.96 1003.22 L1469.08 1000.49 L1498.05 998.495 L1525.16 996.701 L1550.62 994.398 L1574.62 992.452 L1597.32 990.414 L1618.86 989.262 L1639.35 987.571 L1658.89 985.856 L1677.56 984.519 L1695.43 982.459 L1712.57 981.163 L1729.04 980.248 L1744.89 979.376 L1760.16 978.547 L1774.9 977.763 L1789.14 977.022 L1802.91 975.399 L1816.24 972.821 L1829.16 972.335 L1841.7 971.947 L1853.87 971.353 L1865.7 970.646 L1877.21 969.996 L1888.41 969.404 L1899.32 968.717 L1909.95 968.209 L1920.32 967.977 L1930.44 967.618 L1940.32 967.317 L1949.97 967.072 L1959.41 966.956 L1968.64 966.956 L1977.67 966.956 L1986.51 966.956 L1995.17 966.956 L2003.66 966.956 L2011.97 966.956 L2020.13 967.047 L2028.12 966.956 L2035.97 966.956 L2043.68 966.956 L2051.25 966.956 L2058.68 966.956 L2065.98 967.4 L2073.16 967.848 L2080.22 968.291 L2087.16 968.73 L2093.99 969.164 L2100.71 969.595 L2107.32 970.021 L2113.83 970.443 L2120.25 970.862 L2126.56 971.276 L2132.78 971.558 L2138.91 971.639 L2144.95 971.382 L2150.91 970.821 L2156.79 970.364 L2162.58 969.971 L2168.29 969.58 L2173.93 969.193 L2179.49 968.809 L2184.98 968.427 L2190.4 968.049 L2195.75 967.674 L2201.03 967.301 L2206.25 966.932 L2211.4 966.565 L2216.49 966.2 L2221.52 966.326 L2226.49 966.829 L2231.4 967.328 L2236.26 967.823 L2241.06 968.336 L2245.8 968.895 L2250.49 969.45 L2255.13 970.001 L2259.72 970.549 L2264.26 971.093 L2268.75 971.634 L2273.2 972.171 L2277.6 972.705 L2281.95 973.095 L2286.25 973.227 L2290.52 973.358 L2294.74 972.897 L2294.74 190.321 L2290.52 192.931 L2286.25 195.355 L2281.95 197.793 L2277.6 200.247 L2273.2 202.716 L2268.75 205.2 L2264.26 207.701 L2259.72 210.218 L2255.13 212.751 L2250.49 215.301 L2245.8 217.868 L2241.06 220.452 L2236.26 223.355 L2231.4 226.4 L2226.49 229.467 L2221.52 232.555 L2216.49 235.665 L2211.4 238.798 L2206.25 241.954 L2201.03 245.133 L2195.75 248.336 L2190.4 251.564 L2184.98 254.817 L2179.49 258.095 L2173.93 261.399 L2168.29 264.73 L2162.58 268.088 L2156.79 271.473 L2150.91 275.157 L2144.95 279.321 L2138.91 283.52 L2132.78 287.341 L2126.56 291.122 L2120.25 294.936 L2113.83 298.786 L2107.32 302.671 L2100.71 305.941 L2093.99 309.212 L2087.16 312.514 L2080.22 315.849 L2073.16 320.347 L2065.98 325.631 L2058.68 330.95 L2051.25 335.248 L2043.68 339.593 L2035.97 343.985 L2028.12 348.426 L2020.13 352.918 L2011.97 357.462 L2003.66 362.386 L1995.17 367.634 L1986.51 372.644 L1977.67 377.414 L1968.64 382.246 L1959.41 387.141 L1949.97 392.51 L1940.32 398.344 L1930.44 404.361 L1920.32 410.569 L1909.95 416.976 L1899.32 423.59 L1888.41 430.421 L1877.21 437.478 L1865.7 444.772 L1853.87 452.315 L1841.7 460.732 L1829.16 470.094 L1816.24 479.766 L1802.91 489.674 L1789.14 499.265 L1774.9 509.214 L1760.16 519.453 L1744.89 530.882 L1729.04 542.653 L1712.57 554.234 L1695.43 567.003 L1677.56 580.207 L1658.89 594.172 L1639.35 608.724 L1618.86 623.759 L1597.32 640.637 L1574.62 657.638 L1550.62 675.96 L1525.16 695.715 L1498.05 716.225 L1469.08 737.016 L1437.96 757.493 L1404.35 780.801 L1367.81 806.555 L1327.78 835.058 L1283.54 864.526 L1234.07 892.52 L1178 921.767 L1113.26 955.592 L1036.7 986.398 L942.99 1005.75 L822.179 1017.23 L651.906 1018.13 L360.823 1018.13  Z" fill="#008000" fill-rule="evenodd" fill-opacity="0.35"></path>
<polyline clip-path="url(#clip352)" style="stroke:#008000; stroke-linecap:round; stroke-linejoin:round; stroke-width:4; stroke-opacity:0.35; fill:none" points="360.823,1022.92 651.906,1032.17 822.179,1045.5 942.99,1047.28 1036.7,1044.71 1113.26,1033.75 1178,1024.94 1234.07,1019.08 1283.54,1015.04 1327.78,1010.95 1367.81,1007.53 1404.35,1005 1437.96,1003.22 1469.08,1000.49 1498.05,998.495 1525.16,996.701 1550.62,994.398 1574.62,992.452 1597.32,990.414 1618.86,989.262 1639.35,987.571 1658.89,985.856 1677.56,984.519 1695.43,982.459 1712.57,981.163 1729.04,980.248 1744.89,979.376 1760.16,978.547 1774.9,977.763 1789.14,977.022 1802.91,975.399 1816.24,972.821 1829.16,972.335 1841.7,971.947 1853.87,971.353 1865.7,970.646 1877.21,969.996 1888.41,969.404 1899.32,968.717 1909.95,968.209 1920.32,967.977 1930.44,967.618 1940.32,967.317 1949.97,967.072 1959.41,966.956 1968.64,966.956 1977.67,966.956 1986.51,966.956 1995.17,966.956 2003.66,966.956 2011.97,966.956 2020.13,967.047 2028.12,966.956 2035.97,966.956 2043.68,966.956 2051.25,966.956 2058.68,966.956 2065.98,967.4 2073.16,967.848 2080.22,968.291 2087.16,968.73 2093.99,969.164 2100.71,969.595 2107.32,970.021 2113.83,970.443 2120.25,970.862 2126.56,971.276 2132.78,971.558 2138.91,971.639 2144.95,971.382 2150.91,970.821 2156.79,970.364 2162.58,969.971 2168.29,969.58 2173.93,969.193 2179.49,968.809 2184.98,968.427 2190.4,968.049 2195.75,967.674 2201.03,967.301 2206.25,966.932 2211.4,966.565 2216.49,966.2 2221.52,966.326 2226.49,966.829 2231.4,967.328 2236.26,967.823 2241.06,968.336 2245.8,968.895 2250.49,969.45 2255.13,970.001 2259.72,970.549 2264.26,971.093 2268.75,971.634 2273.2,972.171 2277.6,972.705 2281.95,973.095 2286.25,973.227 2290.52,973.358 2294.74,972.897 "></polyline>
<polyline clip-path="url(#clip352)" style="stroke:#000000; stroke-linecap:round; stroke-linejoin:round; stroke-width:8; stroke-opacity:1; fill:none" stroke-dasharray="32, 20" points="360.823,1018.13 651.906,1018.13 822.179,1018.13 942.99,1018.13 1036.7,1018.13 1113.26,1018.13 1178,1018.13 1234.07,1018.13 1283.54,1018.13 1327.78,1018.13 1367.81,1018.13 1404.35,1018.13 1437.96,1018.13 1469.08,1018.13 1498.05,1018.13 1525.16,1018.13 1550.62,1018.13 1574.62,1018.13 1597.32,1018.13 1618.86,1018.13 1639.35,1018.13 1658.89,1018.13 1677.56,1018.13 1695.43,1018.13 1712.57,1018.13 1729.04,1018.13 1744.89,1018.13 1760.16,1018.13 1774.9,1018.13 1789.14,1018.13 1802.91,1018.13 1816.24,1018.13 1829.16,1018.13 1841.7,1018.13 1853.87,1018.13 1865.7,1018.13 1877.21,1018.13 1888.41,1018.13 1899.32,1018.13 1909.95,1018.13 1920.32,1018.13 1930.44,1018.13 1940.32,1018.13 1949.97,1018.13 1959.41,1018.13 1968.64,1018.13 1977.67,1018.13 1986.51,1018.13 1995.17,1018.13 2003.66,1018.13 2011.97,1018.13 2020.13,1018.13 2028.12,1018.13 2035.97,1018.13 2043.68,1018.13 2051.25,1018.13 2058.68,1018.13 2065.98,1018.13 2073.16,1018.13 2080.22,1018.13 2087.16,1018.13 2093.99,1018.13 2100.71,1018.13 2107.32,1018.13 2113.83,1018.13 2120.25,1018.13 2126.56,1018.13 2132.78,1018.13 2138.91,1018.13 2144.95,1018.13 2150.91,1018.13 2156.79,1018.13 2162.58,1018.13 2168.29,1018.13 2173.93,1018.13 2179.49,1018.13 2184.98,1018.13 2190.4,1018.13 2195.75,1018.13 2201.03,1018.13 2206.25,1018.13 2211.4,1018.13 2216.49,1018.13 2221.52,1018.13 2226.49,1018.13 2231.4,1018.13 2236.26,1018.13 2241.06,1018.13 2245.8,1018.13 2250.49,1018.13 2255.13,1018.13 2259.72,1018.13 2264.26,1018.13 2268.75,1018.13 2273.2,1018.13 2277.6,1018.13 2281.95,1018.13 2286.25,1018.13 2290.52,1018.13 2294.74,1018.13 "></polyline>
<path clip-path="url(#clip350)" d="M1952.88 300.181 L2284.42 300.181 L2284.42 92.8206 L1952.88 92.8206  Z" fill="#ffffff" fill-rule="evenodd" fill-opacity="1"></path>
<polyline clip-path="url(#clip350)" style="stroke:#000000; stroke-linecap:round; stroke-linejoin:round; stroke-width:4; stroke-opacity:1; fill:none" points="1952.88,300.181 2284.42,300.181 2284.42,92.8206 1952.88,92.8206 1952.88,300.181 "></polyline>
<polyline clip-path="url(#clip350)" style="stroke:#0000ff; stroke-linecap:round; stroke-linejoin:round; stroke-width:10; stroke-opacity:1; fill:none" points="1975.66,144.661 2112.32,144.661 "></polyline>
<path clip-path="url(#clip350)" d="M2153.87 149.001 Q2153.87 144.302 2151.93 141.64 Q2150 138.955 2146.62 138.955 Q2143.24 138.955 2141.3 141.64 Q2139.38 144.302 2139.38 149.001 Q2139.38 153.7 2141.3 156.385 Q2143.24 159.047 2146.62 159.047 Q2150 159.047 2151.93 156.385 Q2153.87 153.7 2153.87 149.001 M2139.38 139.95 Q2140.72 137.635 2142.76 136.524 Q2144.82 135.39 2147.67 135.39 Q2152.39 135.39 2155.33 139.14 Q2158.29 142.89 2158.29 149.001 Q2158.29 155.112 2155.33 158.862 Q2152.39 162.612 2147.67 162.612 Q2144.82 162.612 2142.76 161.501 Q2140.72 160.367 2139.38 158.052 L2139.38 161.941 L2135.1 161.941 L2135.1 125.922 L2139.38 125.922 L2139.38 139.95 Z" fill="#000000" fill-rule="nonzero" fill-opacity="1"></path><path clip-path="url(#clip350)" d="M2177.13 148.908 Q2171.97 148.908 2169.98 150.089 Q2167.99 151.269 2167.99 154.117 Q2167.99 156.385 2169.47 157.728 Q2170.98 159.047 2173.55 159.047 Q2177.09 159.047 2179.22 156.547 Q2181.37 154.024 2181.37 149.857 L2181.37 148.908 L2177.13 148.908 M2185.63 147.149 L2185.63 161.941 L2181.37 161.941 L2181.37 158.005 Q2179.91 160.367 2177.74 161.501 Q2175.56 162.612 2172.41 162.612 Q2168.43 162.612 2166.07 160.39 Q2163.73 158.144 2163.73 154.394 Q2163.73 150.019 2166.65 147.797 Q2169.59 145.575 2175.4 145.575 L2181.37 145.575 L2181.37 145.158 Q2181.37 142.219 2179.43 140.621 Q2177.5 139.001 2174.01 139.001 Q2171.79 139.001 2169.68 139.533 Q2167.57 140.066 2165.63 141.131 L2165.63 137.195 Q2167.97 136.293 2170.17 135.853 Q2172.37 135.39 2174.45 135.39 Q2180.07 135.39 2182.85 138.306 Q2185.63 141.223 2185.63 147.149 Z" fill="#000000" fill-rule="nonzero" fill-opacity="1"></path><path clip-path="url(#clip350)" d="M2210.93 136.779 L2210.93 140.806 Q2209.12 139.881 2207.18 139.418 Q2205.24 138.955 2203.15 138.955 Q2199.98 138.955 2198.38 139.927 Q2196.81 140.899 2196.81 142.843 Q2196.81 144.325 2197.94 145.181 Q2199.08 146.015 2202.5 146.779 L2203.96 147.103 Q2208.5 148.075 2210.4 149.857 Q2212.32 151.617 2212.32 154.788 Q2212.32 158.399 2209.45 160.505 Q2206.6 162.612 2201.6 162.612 Q2199.52 162.612 2197.25 162.195 Q2195 161.802 2192.5 160.992 L2192.5 156.593 Q2194.86 157.82 2197.16 158.445 Q2199.45 159.047 2201.69 159.047 Q2204.7 159.047 2206.32 158.029 Q2207.94 156.987 2207.94 155.112 Q2207.94 153.376 2206.76 152.45 Q2205.61 151.524 2201.65 150.668 L2200.17 150.32 Q2196.21 149.487 2194.45 147.774 Q2192.69 146.038 2192.69 143.029 Q2192.69 139.371 2195.28 137.381 Q2197.87 135.39 2202.64 135.39 Q2205 135.39 2207.09 135.737 Q2209.17 136.084 2210.93 136.779 Z" fill="#000000" fill-rule="nonzero" fill-opacity="1"></path><path clip-path="url(#clip350)" d="M2241.28 147.913 L2241.28 149.996 L2221.69 149.996 Q2221.97 154.394 2224.33 156.709 Q2226.72 159.001 2230.95 159.001 Q2233.41 159.001 2235.7 158.399 Q2238.01 157.797 2240.28 156.593 L2240.28 160.621 Q2237.99 161.593 2235.58 162.103 Q2233.17 162.612 2230.7 162.612 Q2224.49 162.612 2220.86 159.001 Q2217.25 155.39 2217.25 149.232 Q2217.25 142.867 2220.68 139.14 Q2224.12 135.39 2229.96 135.39 Q2235.19 135.39 2238.22 138.769 Q2241.28 142.126 2241.28 147.913 M2237.02 146.663 Q2236.97 143.168 2235.05 141.084 Q2233.15 139.001 2230 139.001 Q2226.44 139.001 2224.29 141.015 Q2222.16 143.029 2221.83 146.686 L2237.02 146.663 Z" fill="#000000" fill-rule="nonzero" fill-opacity="1"></path><polyline clip-path="url(#clip350)" style="stroke:#ffa500; stroke-linecap:round; stroke-linejoin:round; stroke-width:10; stroke-opacity:1; fill:none" points="1975.66,196.501 2112.32,196.501 "></polyline>
<path clip-path="url(#clip350)" d="M2151.6 177.762 L2151.6 181.304 L2147.53 181.304 Q2145.24 181.304 2144.33 182.23 Q2143.45 183.156 2143.45 185.563 L2143.45 187.855 L2150.47 187.855 L2150.47 191.165 L2143.45 191.165 L2143.45 213.781 L2139.17 213.781 L2139.17 191.165 L2135.1 191.165 L2135.1 187.855 L2139.17 187.855 L2139.17 186.049 Q2139.17 181.721 2141.18 179.753 Q2143.2 177.762 2147.57 177.762 L2151.6 177.762 Z" fill="#000000" fill-rule="nonzero" fill-opacity="1"></path><path clip-path="url(#clip350)" d="M2155.17 177.762 L2159.43 177.762 L2159.43 213.781 L2155.17 213.781 L2155.17 177.762 Z" fill="#000000" fill-rule="nonzero" fill-opacity="1"></path><path clip-path="url(#clip350)" d="M2180.12 200.748 Q2174.96 200.748 2172.97 201.929 Q2170.98 203.109 2170.98 205.957 Q2170.98 208.225 2172.46 209.568 Q2173.96 210.887 2176.53 210.887 Q2180.07 210.887 2182.2 208.387 Q2184.36 205.864 2184.36 201.697 L2184.36 200.748 L2180.12 200.748 M2188.61 198.989 L2188.61 213.781 L2184.36 213.781 L2184.36 209.845 Q2182.9 212.207 2180.72 213.341 Q2178.55 214.452 2175.4 214.452 Q2171.42 214.452 2169.05 212.23 Q2166.72 209.984 2166.72 206.234 Q2166.72 201.859 2169.63 199.637 Q2172.57 197.415 2178.38 197.415 L2184.36 197.415 L2184.36 196.998 Q2184.36 194.059 2182.41 192.461 Q2180.49 190.841 2176.99 190.841 Q2174.77 190.841 2172.67 191.373 Q2170.56 191.906 2168.62 192.971 L2168.62 189.035 Q2170.95 188.133 2173.15 187.693 Q2175.35 187.23 2177.43 187.23 Q2183.06 187.23 2185.84 190.146 Q2188.61 193.063 2188.61 198.989 Z" fill="#000000" fill-rule="nonzero" fill-opacity="1"></path><path clip-path="url(#clip350)" d="M2201.6 180.494 L2201.6 187.855 L2210.37 187.855 L2210.37 191.165 L2201.6 191.165 L2201.6 205.239 Q2201.6 208.41 2202.46 209.313 Q2203.34 210.216 2206 210.216 L2210.37 210.216 L2210.37 213.781 L2206 213.781 Q2201.07 213.781 2199.19 211.952 Q2197.32 210.1 2197.32 205.239 L2197.32 191.165 L2194.19 191.165 L2194.19 187.855 L2197.32 187.855 L2197.32 180.494 L2201.6 180.494 Z" fill="#000000" fill-rule="nonzero" fill-opacity="1"></path><polyline clip-path="url(#clip350)" style="stroke:#008000; stroke-linecap:round; stroke-linejoin:round; stroke-width:10; stroke-opacity:1; fill:none" points="1975.66,248.341 2112.32,248.341 "></polyline>
<path clip-path="url(#clip350)" d="M2153.52 240.459 L2153.52 244.486 Q2151.72 243.561 2149.77 243.098 Q2147.83 242.635 2145.74 242.635 Q2142.57 242.635 2140.98 243.607 Q2139.4 244.579 2139.4 246.523 Q2139.4 248.005 2140.54 248.861 Q2141.67 249.695 2145.1 250.459 L2146.56 250.783 Q2151.09 251.755 2152.99 253.537 Q2154.91 255.297 2154.91 258.468 Q2154.91 262.079 2152.04 264.185 Q2149.19 266.292 2144.19 266.292 Q2142.11 266.292 2139.84 265.875 Q2137.6 265.482 2135.1 264.672 L2135.1 260.273 Q2137.46 261.5 2139.75 262.125 Q2142.04 262.727 2144.29 262.727 Q2147.3 262.727 2148.92 261.709 Q2150.54 260.667 2150.54 258.792 Q2150.54 257.056 2149.36 256.13 Q2148.2 255.204 2144.24 254.348 L2142.76 254 Q2138.8 253.167 2137.04 251.454 Q2135.28 249.718 2135.28 246.709 Q2135.28 243.051 2137.87 241.061 Q2140.47 239.07 2145.24 239.07 Q2147.6 239.07 2149.68 239.417 Q2151.76 239.764 2153.52 240.459 Z" fill="#000000" fill-rule="nonzero" fill-opacity="1"></path><path clip-path="url(#clip350)" d="M2165.91 232.334 L2165.91 239.695 L2174.68 239.695 L2174.68 243.005 L2165.91 243.005 L2165.91 257.079 Q2165.91 260.25 2166.76 261.153 Q2167.64 262.056 2170.3 262.056 L2174.68 262.056 L2174.68 265.621 L2170.3 265.621 Q2165.37 265.621 2163.5 263.792 Q2161.62 261.94 2161.62 257.079 L2161.62 243.005 L2158.5 243.005 L2158.5 239.695 L2161.62 239.695 L2161.62 232.334 L2165.91 232.334 Z" fill="#000000" fill-rule="nonzero" fill-opacity="1"></path><path clip-path="url(#clip350)" d="M2202.46 251.593 L2202.46 253.676 L2182.87 253.676 Q2183.15 258.074 2185.51 260.389 Q2187.9 262.681 2192.13 262.681 Q2194.59 262.681 2196.88 262.079 Q2199.19 261.477 2201.46 260.273 L2201.46 264.301 Q2199.17 265.273 2196.76 265.783 Q2194.36 266.292 2191.88 266.292 Q2185.68 266.292 2182.04 262.681 Q2178.43 259.07 2178.43 252.912 Q2178.43 246.547 2181.86 242.82 Q2185.3 239.07 2191.14 239.07 Q2196.37 239.07 2199.4 242.449 Q2202.46 245.806 2202.46 251.593 M2198.2 250.343 Q2198.15 246.848 2196.23 244.764 Q2194.33 242.681 2191.18 242.681 Q2187.62 242.681 2185.47 244.695 Q2183.34 246.709 2183.01 250.366 L2198.2 250.343 Z" fill="#000000" fill-rule="nonzero" fill-opacity="1"></path><path clip-path="url(#clip350)" d="M2231.62 251.593 L2231.62 253.676 L2212.04 253.676 Q2212.32 258.074 2214.68 260.389 Q2217.06 262.681 2221.3 262.681 Q2223.75 262.681 2226.05 262.079 Q2228.36 261.477 2230.63 260.273 L2230.63 264.301 Q2228.34 265.273 2225.93 265.783 Q2223.52 266.292 2221.05 266.292 Q2214.84 266.292 2211.21 262.681 Q2207.6 259.07 2207.6 252.912 Q2207.6 246.547 2211.02 242.82 Q2214.47 239.07 2220.3 239.07 Q2225.54 239.07 2228.57 242.449 Q2231.62 245.806 2231.62 251.593 M2227.36 250.343 Q2227.32 246.848 2225.4 244.764 Q2223.5 242.681 2220.35 242.681 Q2216.79 242.681 2214.63 244.695 Q2212.5 246.709 2212.18 250.366 L2227.36 250.343 Z" fill="#000000" fill-rule="nonzero" fill-opacity="1"></path><path clip-path="url(#clip350)" d="M2242.74 261.732 L2242.74 275.482 L2238.45 275.482 L2238.45 239.695 L2242.74 239.695 L2242.74 243.63 Q2244.08 241.315 2246.11 240.204 Q2248.17 239.07 2251.02 239.07 Q2255.74 239.07 2258.68 242.82 Q2261.65 246.57 2261.65 252.681 Q2261.65 258.792 2258.68 262.542 Q2255.74 266.292 2251.02 266.292 Q2248.17 266.292 2246.11 265.181 Q2244.08 264.047 2242.74 261.732 M2257.23 252.681 Q2257.23 247.982 2255.28 245.32 Q2253.36 242.635 2249.98 242.635 Q2246.6 242.635 2244.66 245.32 Q2242.74 247.982 2242.74 252.681 Q2242.74 257.38 2244.66 260.065 Q2246.6 262.727 2249.98 262.727 Q2253.36 262.727 2255.28 260.065 Q2257.23 257.38 2257.23 252.681 Z" fill="#000000" fill-rule="nonzero" fill-opacity="1"></path></svg>