<svg xmlns="http://www.w3.org/2000/svg" xmlns:xlink="http://www.w3.org/1999/xlink" width="600" height="400" viewBox="0 0 2400 1600">
<defs>
  <clipPath id="clip270">
    <rect x="0" y="0" width="2400" height="1600"></rect>
  </clipPath>
</defs>
<path clip-path="url(#clip270)" d="M0 1600 L2400 1600 L2400 0 L0 0  Z" fill="#ffffff" fill-rule="evenodd" fill-opacity="1"></path>
<defs>
  <clipPath id="clip271">
    <rect x="480" y="0" width="1681" height="1600"></rect>
  </clipPath>
</defs>
<path clip-path="url(#clip270)" d="M290.624 1414.54 L2352.76 1414.54 L2352.76 47.2441 L290.624 47.2441  Z" fill="#ffffff" fill-rule="evenodd" fill-opacity="1"></path>
<defs>
  <clipPath id="clip272">
    <rect x="290" y="47" width="2063" height="1368"></rect>
  </clipPath>
</defs>
<polyline clip-path="url(#clip272)" style="stroke:#000000; stroke-linecap:round; stroke-linejoin:round; stroke-width:2; stroke-opacity:0.1; fill:none" points="348.986,1414.54 348.986,47.2441 "></polyline>
<polyline clip-path="url(#clip272)" style="stroke:#000000; stroke-linecap:round; stroke-linejoin:round; stroke-width:2; stroke-opacity:0.1; fill:none" points="1321.69,1414.54 1321.69,47.2441 "></polyline>
<polyline clip-path="url(#clip272)" style="stroke:#000000; stroke-linecap:round; stroke-linejoin:round; stroke-width:2; stroke-opacity:0.1; fill:none" points="2294.39,1414.54 2294.39,47.2441 "></polyline>
<polyline clip-path="url(#clip270)" style="stroke:#000000; stroke-linecap:round; stroke-linejoin:round; stroke-width:4; stroke-opacity:1; fill:none" points="290.624,1414.54 2352.76,1414.54 "></polyline>
<polyline clip-path="url(#clip270)" style="stroke:#000000; stroke-linecap:round; stroke-linejoin:round; stroke-width:4; stroke-opacity:1; fill:none" points="348.986,1414.54 348.986,1395.64 "></polyline>
<polyline clip-path="url(#clip270)" style="stroke:#000000; stroke-linecap:round; stroke-linejoin:round; stroke-width:4; stroke-opacity:1; fill:none" points="1321.69,1414.54 1321.69,1395.64 "></polyline>
<polyline clip-path="url(#clip270)" style="stroke:#000000; stroke-linecap:round; stroke-linejoin:round; stroke-width:4; stroke-opacity:1; fill:none" points="2294.39,1414.54 2294.39,1395.64 "></polyline>
<path clip-path="url(#clip270)" d="M317.346 1482.82 L326.894 1482.82 L326.894 1449.86 L316.507 1451.95 L316.507 1446.62 L326.836 1444.54 L332.681 1444.54 L332.681 1482.82 L342.23 1482.82 L342.23 1487.74 L317.346 1487.74 L317.346 1482.82 Z" fill="#000000" fill-rule="nonzero" fill-opacity="1"></path><path clip-path="url(#clip270)" d="M366.535 1448.39 Q362.021 1448.39 359.736 1452.84 Q357.479 1457.27 357.479 1466.18 Q357.479 1475.07 359.736 1479.52 Q362.021 1483.95 366.535 1483.95 Q371.078 1483.95 373.335 1479.52 Q375.621 1475.07 375.621 1466.18 Q375.621 1457.27 373.335 1452.84 Q371.078 1448.39 366.535 1448.39 M366.535 1443.76 Q373.798 1443.76 377.617 1449.52 Q381.466 1455.25 381.466 1466.18 Q381.466 1477.09 377.617 1482.85 Q373.798 1488.58 366.535 1488.58 Q359.273 1488.58 355.424 1482.85 Q351.605 1477.09 351.605 1466.18 Q351.605 1455.25 355.424 1449.52 Q359.273 1443.76 366.535 1443.76 Z" fill="#000000" fill-rule="nonzero" fill-opacity="1"></path><path clip-path="url(#clip270)" d="M1271.2 1482.82 L1280.75 1482.82 L1280.75 1449.86 L1270.36 1451.95 L1270.36 1446.62 L1280.69 1444.54 L1286.53 1444.54 L1286.53 1482.82 L1296.08 1482.82 L1296.08 1487.74 L1271.2 1487.74 L1271.2 1482.82 Z" fill="#000000" fill-rule="nonzero" fill-opacity="1"></path><path clip-path="url(#clip270)" d="M1320.39 1448.39 Q1315.87 1448.39 1313.59 1452.84 Q1311.33 1457.27 1311.33 1466.18 Q1311.33 1475.07 1313.59 1479.52 Q1315.87 1483.95 1320.39 1483.95 Q1324.93 1483.95 1327.19 1479.52 Q1329.47 1475.07 1329.47 1466.18 Q1329.47 1457.27 1327.19 1452.84 Q1324.93 1448.39 1320.39 1448.39 M1320.39 1443.76 Q1327.65 1443.76 1331.47 1449.52 Q1335.32 1455.25 1335.32 1466.18 Q1335.32 1477.09 1331.47 1482.85 Q1327.65 1488.58 1320.39 1488.58 Q1313.13 1488.58 1309.28 1482.85 Q1305.46 1477.09 1305.46 1466.18 Q1305.46 1455.25 1309.28 1449.52 Q1313.13 1443.76 1320.39 1443.76 Z" fill="#000000" fill-rule="nonzero" fill-opacity="1"></path><path clip-path="url(#clip270)" d="M1358.09 1448.39 Q1353.58 1448.39 1351.29 1452.84 Q1349.03 1457.27 1349.03 1466.18 Q1349.03 1475.07 1351.29 1479.52 Q1353.58 1483.95 1358.09 1483.95 Q1362.63 1483.95 1364.89 1479.52 Q1367.18 1475.07 1367.18 1466.18 Q1367.18 1457.27 1364.89 1452.84 Q1362.63 1448.39 1358.09 1448.39 M1358.09 1443.76 Q1365.35 1443.76 1369.17 1449.52 Q1373.02 1455.25 1373.02 1466.18 Q1373.02 1477.09 1369.17 1482.85 Q1365.35 1488.58 1358.09 1488.58 Q1350.83 1488.58 1346.98 1482.85 Q1343.16 1477.09 1343.16 1466.18 Q1343.16 1455.25 1346.98 1449.52 Q1350.83 1443.76 1358.09 1443.76 Z" fill="#000000" fill-rule="nonzero" fill-opacity="1"></path><path clip-path="url(#clip270)" d="M2225.05 1482.82 L2234.6 1482.82 L2234.6 1449.86 L2224.21 1451.95 L2224.21 1446.62 L2234.54 1444.54 L2240.39 1444.54 L2240.39 1482.82 L2249.94 1482.82 L2249.94 1487.74 L2225.05 1487.74 L2225.05 1482.82 Z" fill="#000000" fill-rule="nonzero" fill-opacity="1"></path><path clip-path="url(#clip270)" d="M2274.24 1448.39 Q2269.73 1448.39 2267.44 1452.84 Q2265.18 1457.27 2265.18 1466.18 Q2265.18 1475.07 2267.44 1479.52 Q2269.73 1483.95 2274.24 1483.95 Q2278.78 1483.95 2281.04 1479.52 Q2283.33 1475.07 2283.33 1466.18 Q2283.33 1457.27 2281.04 1452.84 Q2278.78 1448.39 2274.24 1448.39 M2274.24 1443.76 Q2281.5 1443.76 2285.32 1449.52 Q2289.17 1455.25 2289.17 1466.18 Q2289.17 1477.09 2285.32 1482.85 Q2281.5 1488.58 2274.24 1488.58 Q2266.98 1488.58 2263.13 1482.85 Q2259.31 1477.09 2259.31 1466.18 Q2259.31 1455.25 2263.13 1449.52 Q2266.98 1443.76 2274.24 1443.76 Z" fill="#000000" fill-rule="nonzero" fill-opacity="1"></path><path clip-path="url(#clip270)" d="M2311.94 1448.39 Q2307.43 1448.39 2305.14 1452.84 Q2302.89 1457.27 2302.89 1466.18 Q2302.89 1475.07 2305.14 1479.52 Q2307.43 1483.95 2311.94 1483.95 Q2316.49 1483.95 2318.74 1479.52 Q2321.03 1475.07 2321.03 1466.18 Q2321.03 1457.27 2318.74 1452.84 Q2316.49 1448.39 2311.94 1448.39 M2311.94 1443.76 Q2319.21 1443.76 2323.02 1449.52 Q2326.87 1455.25 2326.87 1466.18 Q2326.87 1477.09 2323.02 1482.85 Q2319.21 1488.58 2311.94 1488.58 Q2304.68 1488.58 2300.83 1482.85 Q2297.01 1477.09 2297.01 1466.18 Q2297.01 1455.25 2300.83 1449.52 Q2304.68 1443.76 2311.94 1443.76 Z" fill="#000000" fill-rule="nonzero" fill-opacity="1"></path><path clip-path="url(#clip270)" d="M2349.65 1448.39 Q2345.13 1448.39 2342.85 1452.84 Q2340.59 1457.27 2340.59 1466.18 Q2340.59 1475.07 2342.85 1479.52 Q2345.13 1483.95 2349.65 1483.95 Q2354.19 1483.95 2356.44 1479.52 Q2358.73 1475.07 2358.73 1466.18 Q2358.73 1457.27 2356.44 1452.84 Q2354.19 1448.39 2349.65 1448.39 M2349.65 1443.76 Q2356.91 1443.76 2360.73 1449.52 Q2364.58 1455.25 2364.58 1466.18 Q2364.58 1477.09 2360.73 1482.85 Q2356.91 1488.58 2349.65 1488.58 Q2342.38 1488.58 2338.53 1482.85 Q2334.71 1477.09 2334.71 1466.18 Q2334.71 1455.25 2338.53 1449.52 Q2342.38 1443.76 2349.65 1443.76 Z" fill="#000000" fill-rule="nonzero" fill-opacity="1"></path><path clip-path="url(#clip270)" d="M1130.24 1550.08 Q1132.31 1550.78 1134.25 1553.08 Q1136.23 1555.37 1138.2 1559.38 L1144.72 1572.36 L1137.82 1572.36 L1131.74 1560.17 Q1129.38 1555.4 1127.15 1553.84 Q1124.96 1552.28 1121.14 1552.28 L1114.14 1552.28 L1114.14 1572.36 L1107.71 1572.36 L1107.71 1524.84 L1122.22 1524.84 Q1130.37 1524.84 1134.38 1528.25 Q1138.39 1531.66 1138.39 1538.53 Q1138.39 1543.02 1136.29 1545.98 Q1134.22 1548.94 1130.24 1550.08 M1114.14 1530.13 L1114.14 1547 L1122.22 1547 Q1126.87 1547 1129.22 1544.86 Q1131.61 1542.7 1131.61 1538.53 Q1131.61 1534.36 1129.22 1532.26 Q1126.87 1530.13 1122.22 1530.13 L1114.14 1530.13 Z" fill="#000000" fill-rule="nonzero" fill-opacity="1"></path><path clip-path="url(#clip270)" d="M1180.31 1553.08 L1180.31 1555.94 L1153.38 1555.94 Q1153.76 1561.99 1157.01 1565.17 Q1160.29 1568.32 1166.11 1568.32 Q1169.49 1568.32 1172.64 1567.49 Q1175.82 1566.67 1178.94 1565.01 L1178.94 1570.55 Q1175.79 1571.89 1172.48 1572.59 Q1169.17 1573.29 1165.76 1573.29 Q1157.23 1573.29 1152.23 1568.32 Q1147.27 1563.36 1147.27 1554.89 Q1147.27 1546.14 1151.98 1541.01 Q1156.72 1535.86 1164.74 1535.86 Q1171.94 1535.86 1176.11 1540.5 Q1180.31 1545.12 1180.31 1553.08 M1174.45 1551.36 Q1174.39 1546.55 1171.75 1543.69 Q1169.14 1540.82 1164.81 1540.82 Q1159.91 1540.82 1156.95 1543.59 Q1154.02 1546.36 1153.57 1551.39 L1174.45 1551.36 Z" fill="#000000" fill-rule="nonzero" fill-opacity="1"></path><path clip-path="url(#clip270)" d="M1195.71 1526.59 L1195.71 1536.72 L1207.78 1536.72 L1207.78 1541.27 L1195.71 1541.27 L1195.71 1560.62 Q1195.71 1564.98 1196.89 1566.22 Q1198.1 1567.46 1201.76 1567.46 L1207.78 1567.46 L1207.78 1572.36 L1201.76 1572.36 Q1194.98 1572.36 1192.4 1569.85 Q1189.82 1567.3 1189.82 1560.62 L1189.82 1541.27 L1185.53 1541.27 L1185.53 1536.72 L1189.82 1536.72 L1189.82 1526.59 L1195.71 1526.59 Z" fill="#000000" fill-rule="nonzero" fill-opacity="1"></path><path clip-path="url(#clip270)" d="M1214.87 1558.3 L1214.87 1536.72 L1220.73 1536.72 L1220.73 1558.07 Q1220.73 1563.13 1222.7 1565.68 Q1224.68 1568.19 1228.62 1568.19 Q1233.37 1568.19 1236.1 1565.17 Q1238.87 1562.15 1238.87 1556.93 L1238.87 1536.72 L1244.73 1536.72 L1244.73 1572.36 L1238.87 1572.36 L1238.87 1566.89 Q1236.74 1570.14 1233.91 1571.73 Q1231.11 1573.29 1227.38 1573.29 Q1221.24 1573.29 1218.06 1569.47 Q1214.87 1565.65 1214.87 1558.3 M1229.61 1535.86 L1229.61 1535.86 Z" fill="#000000" fill-rule="nonzero" fill-opacity="1"></path><path clip-path="url(#clip270)" d="M1277.45 1542.19 Q1276.46 1541.62 1275.28 1541.36 Q1274.14 1541.08 1272.74 1541.08 Q1267.77 1541.08 1265.1 1544.32 Q1262.46 1547.54 1262.46 1553.59 L1262.46 1572.36 L1256.57 1572.36 L1256.57 1536.72 L1262.46 1536.72 L1262.46 1542.25 Q1264.3 1539.01 1267.26 1537.45 Q1270.22 1535.86 1274.46 1535.86 Q1275.06 1535.86 1275.79 1535.95 Q1276.53 1536.02 1277.42 1536.17 L1277.45 1542.19 Z" fill="#000000" fill-rule="nonzero" fill-opacity="1"></path><path clip-path="url(#clip270)" d="M1312.08 1550.85 L1312.08 1572.36 L1306.22 1572.36 L1306.22 1551.04 Q1306.22 1545.98 1304.25 1543.46 Q1302.27 1540.95 1298.33 1540.95 Q1293.59 1540.95 1290.85 1543.97 Q1288.11 1547 1288.11 1552.22 L1288.11 1572.36 L1282.22 1572.36 L1282.22 1536.72 L1288.11 1536.72 L1288.11 1542.25 Q1290.21 1539.04 1293.04 1537.45 Q1295.91 1535.86 1299.63 1535.86 Q1305.78 1535.86 1308.93 1539.68 Q1312.08 1543.46 1312.08 1550.85 Z" fill="#000000" fill-rule="nonzero" fill-opacity="1"></path><path clip-path="url(#clip270)" d="M1351.16 1530.13 L1351.16 1547.98 L1359.25 1547.98 Q1363.74 1547.98 1366.19 1545.66 Q1368.64 1543.34 1368.64 1539.04 Q1368.64 1534.77 1366.19 1532.45 Q1363.74 1530.13 1359.25 1530.13 L1351.16 1530.13 M1344.73 1524.84 L1359.25 1524.84 Q1367.24 1524.84 1371.31 1528.47 Q1375.42 1532.07 1375.42 1539.04 Q1375.42 1546.07 1371.31 1549.67 Q1367.24 1553.27 1359.25 1553.27 L1351.16 1553.27 L1351.16 1572.36 L1344.73 1572.36 L1344.73 1524.84 Z" fill="#000000" fill-rule="nonzero" fill-opacity="1"></path><path clip-path="url(#clip270)" d="M1411.96 1553.08 L1411.96 1555.94 L1385.03 1555.94 Q1385.41 1561.99 1388.66 1565.17 Q1391.94 1568.32 1397.76 1568.32 Q1401.13 1568.32 1404.28 1567.49 Q1407.47 1566.67 1410.59 1565.01 L1410.59 1570.55 Q1407.44 1571.89 1404.13 1572.59 Q1400.82 1573.29 1397.41 1573.29 Q1388.88 1573.29 1383.88 1568.32 Q1378.92 1563.36 1378.92 1554.89 Q1378.92 1546.14 1383.63 1541.01 Q1388.37 1535.86 1396.39 1535.86 Q1403.58 1535.86 1407.75 1540.5 Q1411.96 1545.12 1411.96 1553.08 M1406.1 1551.36 Q1406.04 1546.55 1403.39 1543.69 Q1400.78 1540.82 1396.46 1540.82 Q1391.55 1540.82 1388.59 1543.59 Q1385.67 1546.36 1385.22 1551.39 L1406.1 1551.36 Z" fill="#000000" fill-rule="nonzero" fill-opacity="1"></path><path clip-path="url(#clip270)" d="M1442.22 1542.19 Q1441.24 1541.62 1440.06 1541.36 Q1438.91 1541.08 1437.51 1541.08 Q1432.55 1541.08 1429.88 1544.32 Q1427.23 1547.54 1427.23 1553.59 L1427.23 1572.36 L1421.35 1572.36 L1421.35 1536.72 L1427.23 1536.72 L1427.23 1542.25 Q1429.08 1539.01 1432.04 1537.45 Q1435 1535.86 1439.23 1535.86 Q1439.84 1535.86 1440.57 1535.95 Q1441.3 1536.02 1442.19 1536.17 L1442.22 1542.19 Z" fill="#000000" fill-rule="nonzero" fill-opacity="1"></path><path clip-path="url(#clip270)" d="M1448.37 1536.72 L1454.22 1536.72 L1454.22 1572.36 L1448.37 1572.36 L1448.37 1536.72 M1448.37 1522.84 L1454.22 1522.84 L1454.22 1530.25 L1448.37 1530.25 L1448.37 1522.84 Z" fill="#000000" fill-rule="nonzero" fill-opacity="1"></path><path clip-path="url(#clip270)" d="M1480.29 1540.82 Q1475.58 1540.82 1472.84 1544.51 Q1470.11 1548.17 1470.11 1554.57 Q1470.11 1560.97 1472.81 1564.66 Q1475.55 1568.32 1480.29 1568.32 Q1484.97 1568.32 1487.71 1564.63 Q1490.44 1560.94 1490.44 1554.57 Q1490.44 1548.24 1487.71 1544.55 Q1484.97 1540.82 1480.29 1540.82 M1480.29 1535.86 Q1487.93 1535.86 1492.29 1540.82 Q1496.65 1545.79 1496.65 1554.57 Q1496.65 1563.32 1492.29 1568.32 Q1487.93 1573.29 1480.29 1573.29 Q1472.62 1573.29 1468.26 1568.32 Q1463.93 1563.32 1463.93 1554.57 Q1463.93 1545.79 1468.26 1540.82 Q1472.62 1535.86 1480.29 1535.86 Z" fill="#000000" fill-rule="nonzero" fill-opacity="1"></path><path clip-path="url(#clip270)" d="M1529.82 1542.13 L1529.82 1522.84 L1535.67 1522.84 L1535.67 1572.36 L1529.82 1572.36 L1529.82 1567.02 Q1527.97 1570.2 1525.14 1571.76 Q1522.34 1573.29 1518.39 1573.29 Q1511.93 1573.29 1507.86 1568.13 Q1503.81 1562.97 1503.81 1554.57 Q1503.81 1546.17 1507.86 1541.01 Q1511.93 1535.86 1518.39 1535.86 Q1522.34 1535.86 1525.14 1537.42 Q1527.97 1538.94 1529.82 1542.13 M1509.86 1554.57 Q1509.86 1561.03 1512.5 1564.72 Q1515.18 1568.39 1519.82 1568.39 Q1524.47 1568.39 1527.14 1564.72 Q1529.82 1561.03 1529.82 1554.57 Q1529.82 1548.11 1527.14 1544.45 Q1524.47 1540.76 1519.82 1540.76 Q1515.18 1540.76 1512.5 1544.45 Q1509.86 1548.11 1509.86 1554.57 Z" fill="#000000" fill-rule="nonzero" fill-opacity="1"></path><polyline clip-path="url(#clip272)" style="stroke:#000000; stroke-linecap:round; stroke-linejoin:round; stroke-width:2; stroke-opacity:0.1; fill:none" points="290.624,1198.28 2352.76,1198.28 "></polyline>
<polyline clip-path="url(#clip272)" style="stroke:#000000; stroke-linecap:round; stroke-linejoin:round; stroke-width:2; stroke-opacity:0.1; fill:none" points="290.624,893.172 2352.76,893.172 "></polyline>
<polyline clip-path="url(#clip272)" style="stroke:#000000; stroke-linecap:round; stroke-linejoin:round; stroke-width:2; stroke-opacity:0.1; fill:none" points="290.624,588.063 2352.76,588.063 "></polyline>
<polyline clip-path="url(#clip272)" style="stroke:#000000; stroke-linecap:round; stroke-linejoin:round; stroke-width:2; stroke-opacity:0.1; fill:none" points="290.624,282.954 2352.76,282.954 "></polyline>
<polyline clip-path="url(#clip270)" style="stroke:#000000; stroke-linecap:round; stroke-linejoin:round; stroke-width:4; stroke-opacity:1; fill:none" points="290.624,1414.54 290.624,47.2441 "></polyline>
<polyline clip-path="url(#clip270)" style="stroke:#000000; stroke-linecap:round; stroke-linejoin:round; stroke-width:4; stroke-opacity:1; fill:none" points="290.624,1198.28 309.522,1198.28 "></polyline>
<polyline clip-path="url(#clip270)" style="stroke:#000000; stroke-linecap:round; stroke-linejoin:round; stroke-width:4; stroke-opacity:1; fill:none" points="290.624,893.172 309.522,893.172 "></polyline>
<polyline clip-path="url(#clip270)" style="stroke:#000000; stroke-linecap:round; stroke-linejoin:round; stroke-width:4; stroke-opacity:1; fill:none" points="290.624,588.063 309.522,588.063 "></polyline>
<polyline clip-path="url(#clip270)" style="stroke:#000000; stroke-linecap:round; stroke-linejoin:round; stroke-width:4; stroke-opacity:1; fill:none" points="290.624,282.954 309.522,282.954 "></polyline>
<path clip-path="url(#clip270)" d="M239.694 1180.53 Q235.18 1180.53 232.894 1184.99 Q230.637 1189.41 230.637 1198.32 Q230.637 1207.21 232.894 1211.66 Q235.18 1216.09 239.694 1216.09 Q244.236 1216.09 246.493 1211.66 Q248.779 1207.21 248.779 1198.32 Q248.779 1189.41 246.493 1184.99 Q244.236 1180.53 239.694 1180.53 M239.694 1175.9 Q246.956 1175.9 250.776 1181.66 Q254.624 1187.39 254.624 1198.32 Q254.624 1209.23 250.776 1214.99 Q246.956 1220.72 239.694 1220.72 Q232.431 1220.72 228.582 1214.99 Q224.763 1209.23 224.763 1198.32 Q224.763 1187.39 228.582 1181.66 Q232.431 1175.9 239.694 1175.9 Z" fill="#000000" fill-rule="nonzero" fill-opacity="1"></path><path clip-path="url(#clip270)" d="M151.847 871.572 L174.792 871.572 L174.792 876.491 L157.2 876.491 L157.2 887.081 Q158.473 886.647 159.746 886.445 Q161.019 886.213 162.292 886.213 Q169.526 886.213 173.751 890.177 Q177.975 894.141 177.975 900.912 Q177.975 907.885 173.635 911.763 Q169.295 915.611 161.395 915.611 Q158.675 915.611 155.84 915.148 Q153.033 914.685 150.024 913.759 L150.024 907.885 Q152.628 909.303 155.406 909.998 Q158.184 910.692 161.28 910.692 Q166.285 910.692 169.208 908.059 Q172.13 905.426 172.13 900.912 Q172.13 896.398 169.208 893.765 Q166.285 891.132 161.28 891.132 Q158.936 891.132 156.592 891.653 Q154.277 892.174 151.847 893.273 L151.847 871.572 Z" fill="#000000" fill-rule="nonzero" fill-opacity="1"></path><path clip-path="url(#clip270)" d="M201.991 875.42 Q197.477 875.42 195.191 879.876 Q192.935 884.303 192.935 893.215 Q192.935 902.098 195.191 906.554 Q197.477 910.981 201.991 910.981 Q206.534 910.981 208.791 906.554 Q211.077 902.098 211.077 893.215 Q211.077 884.303 208.791 879.876 Q206.534 875.42 201.991 875.42 M201.991 870.791 Q209.254 870.791 213.073 876.549 Q216.922 882.278 216.922 893.215 Q216.922 904.124 213.073 909.882 Q209.254 915.611 201.991 915.611 Q194.728 915.611 190.88 909.882 Q187.061 904.124 187.061 893.215 Q187.061 882.278 190.88 876.549 Q194.728 870.791 201.991 870.791 Z" fill="#000000" fill-rule="nonzero" fill-opacity="1"></path><path clip-path="url(#clip270)" d="M239.694 875.42 Q235.18 875.42 232.894 879.876 Q230.637 884.303 230.637 893.215 Q230.637 902.098 232.894 906.554 Q235.18 910.981 239.694 910.981 Q244.236 910.981 246.493 906.554 Q248.779 902.098 248.779 893.215 Q248.779 884.303 246.493 879.876 Q244.236 875.42 239.694 875.42 M239.694 870.791 Q246.956 870.791 250.776 876.549 Q254.624 882.278 254.624 893.215 Q254.624 904.124 250.776 909.882 Q246.956 915.611 239.694 915.611 Q232.431 915.611 228.582 909.882 Q224.763 904.124 224.763 893.215 Q224.763 882.278 228.582 876.549 Q232.431 870.791 239.694 870.791 Z" fill="#000000" fill-rule="nonzero" fill-opacity="1"></path><path clip-path="url(#clip270)" d="M115.099 604.744 L124.648 604.744 L124.648 571.787 L114.26 573.87 L114.26 568.546 L124.59 566.463 L130.435 566.463 L130.435 604.744 L139.983 604.744 L139.983 609.663 L115.099 609.663 L115.099 604.744 Z" fill="#000000" fill-rule="nonzero" fill-opacity="1"></path><path clip-path="url(#clip270)" d="M164.289 570.311 Q159.775 570.311 157.489 574.767 Q155.232 579.195 155.232 588.106 Q155.232 596.99 157.489 601.446 Q159.775 605.873 164.289 605.873 Q168.832 605.873 171.089 601.446 Q173.374 596.99 173.374 588.106 Q173.374 579.195 171.089 574.767 Q168.832 570.311 164.289 570.311 M164.289 565.682 Q171.552 565.682 175.371 571.44 Q179.219 577.169 179.219 588.106 Q179.219 599.015 175.371 604.773 Q171.552 610.502 164.289 610.502 Q157.026 610.502 153.178 604.773 Q149.358 599.015 149.358 588.106 Q149.358 577.169 153.178 571.44 Q157.026 565.682 164.289 565.682 Z" fill="#000000" fill-rule="nonzero" fill-opacity="1"></path><path clip-path="url(#clip270)" d="M201.991 570.311 Q197.477 570.311 195.191 574.767 Q192.935 579.195 192.935 588.106 Q192.935 596.99 195.191 601.446 Q197.477 605.873 201.991 605.873 Q206.534 605.873 208.791 601.446 Q211.077 596.99 211.077 588.106 Q211.077 579.195 208.791 574.767 Q206.534 570.311 201.991 570.311 M201.991 565.682 Q209.254 565.682 213.073 571.44 Q216.922 577.169 216.922 588.106 Q216.922 599.015 213.073 604.773 Q209.254 610.502 201.991 610.502 Q194.728 610.502 190.88 604.773 Q187.061 599.015 187.061 588.106 Q187.061 577.169 190.88 571.44 Q194.728 565.682 201.991 565.682 Z" fill="#000000" fill-rule="nonzero" fill-opacity="1"></path><path clip-path="url(#clip270)" d="M239.694 570.311 Q235.18 570.311 232.894 574.767 Q230.637 579.195 230.637 588.106 Q230.637 596.99 232.894 601.446 Q235.18 605.873 239.694 605.873 Q244.236 605.873 246.493 601.446 Q248.779 596.99 248.779 588.106 Q248.779 579.195 246.493 574.767 Q244.236 570.311 239.694 570.311 M239.694 565.682 Q246.956 565.682 250.776 571.44 Q254.624 577.169 254.624 588.106 Q254.624 599.015 250.776 604.773 Q246.956 610.502 239.694 610.502 Q232.431 610.502 228.582 604.773 Q224.763 599.015 224.763 588.106 Q224.763 577.169 228.582 571.44 Q232.431 565.682 239.694 565.682 Z" fill="#000000" fill-rule="nonzero" fill-opacity="1"></path><path clip-path="url(#clip270)" d="M115.099 299.635 L124.648 299.635 L124.648 266.678 L114.26 268.762 L114.26 263.438 L124.59 261.354 L130.435 261.354 L130.435 299.635 L139.983 299.635 L139.983 304.554 L115.099 304.554 L115.099 299.635 Z" fill="#000000" fill-rule="nonzero" fill-opacity="1"></path><path clip-path="url(#clip270)" d="M151.847 261.354 L174.792 261.354 L174.792 266.273 L157.2 266.273 L157.2 276.863 Q158.473 276.429 159.746 276.227 Q161.019 275.995 162.292 275.995 Q169.526 275.995 173.751 279.959 Q177.975 283.924 177.975 290.694 Q177.975 297.668 173.635 301.545 Q169.295 305.393 161.395 305.393 Q158.675 305.393 155.84 304.93 Q153.033 304.467 150.024 303.542 L150.024 297.668 Q152.628 299.086 155.406 299.78 Q158.184 300.474 161.28 300.474 Q166.285 300.474 169.208 297.841 Q172.13 295.208 172.13 290.694 Q172.13 286.181 169.208 283.547 Q166.285 280.914 161.28 280.914 Q158.936 280.914 156.592 281.435 Q154.277 281.956 151.847 283.056 L151.847 261.354 Z" fill="#000000" fill-rule="nonzero" fill-opacity="1"></path><path clip-path="url(#clip270)" d="M201.991 265.203 Q197.477 265.203 195.191 269.659 Q192.935 274.086 192.935 282.998 Q192.935 291.881 195.191 296.337 Q197.477 300.764 201.991 300.764 Q206.534 300.764 208.791 296.337 Q211.077 291.881 211.077 282.998 Q211.077 274.086 208.791 269.659 Q206.534 265.203 201.991 265.203 M201.991 260.573 Q209.254 260.573 213.073 266.331 Q216.922 272.06 216.922 282.998 Q216.922 293.906 213.073 299.664 Q209.254 305.393 201.991 305.393 Q194.728 305.393 190.88 299.664 Q187.061 293.906 187.061 282.998 Q187.061 272.06 190.88 266.331 Q194.728 260.573 201.991 260.573 Z" fill="#000000" fill-rule="nonzero" fill-opacity="1"></path><path clip-path="url(#clip270)" d="M239.694 265.203 Q235.18 265.203 232.894 269.659 Q230.637 274.086 230.637 282.998 Q230.637 291.881 232.894 296.337 Q235.18 300.764 239.694 300.764 Q244.236 300.764 246.493 296.337 Q248.779 291.881 248.779 282.998 Q248.779 274.086 246.493 269.659 Q244.236 265.203 239.694 265.203 M239.694 260.573 Q246.956 260.573 250.776 266.331 Q254.624 272.06 254.624 282.998 Q254.624 293.906 250.776 299.664 Q246.956 305.393 239.694 305.393 Q232.431 305.393 228.582 299.664 Q224.763 293.906 224.763 282.998 Q224.763 272.06 228.582 266.331 Q232.431 260.573 239.694 260.573 Z" fill="#000000" fill-rule="nonzero" fill-opacity="1"></path><path clip-path="url(#clip270)" d="M21.7677 1253.76 L58.7206 1253.76 L58.7206 1245.99 Q58.7206 1236.15 54.2646 1231.6 Q49.8086 1227.02 40.1964 1227.02 Q30.6479 1227.02 26.2237 1231.6 Q21.7677 1236.15 21.7677 1245.99 L21.7677 1253.76 M16.4842 1260.18 L16.4842 1246.98 Q16.4842 1233.16 22.2451 1226.7 Q27.9743 1220.24 40.1964 1220.24 Q52.4822 1220.24 58.2432 1226.73 Q64.0042 1233.23 64.0042 1246.98 L64.0042 1260.18 L16.4842 1260.18 Z" fill="#000000" fill-rule="nonzero" fill-opacity="1"></path><path clip-path="url(#clip270)" d="M28.3562 1210.25 L28.3562 1204.39 L64.0042 1204.39 L64.0042 1210.25 L28.3562 1210.25 M14.479 1210.25 L14.479 1204.39 L21.895 1204.39 L21.895 1210.25 L14.479 1210.25 Z" fill="#000000" fill-rule="nonzero" fill-opacity="1"></path><path clip-path="url(#clip270)" d="M14.479 1174.09 L19.3487 1174.09 L19.3487 1179.69 Q19.3487 1182.84 20.6219 1184.08 Q21.895 1185.29 25.2052 1185.29 L28.3562 1185.29 L28.3562 1175.65 L32.9077 1175.65 L32.9077 1185.29 L64.0042 1185.29 L64.0042 1191.18 L32.9077 1191.18 L32.9077 1196.78 L28.3562 1196.78 L28.3562 1191.18 L25.8736 1191.18 Q19.9216 1191.18 17.2162 1188.41 Q14.479 1185.64 14.479 1179.63 L14.479 1174.09 Z" fill="#000000" fill-rule="nonzero" fill-opacity="1"></path><path clip-path="url(#clip270)" d="M14.479 1151.14 L19.3487 1151.14 L19.3487 1156.74 Q19.3487 1159.89 20.6219 1161.13 Q21.895 1162.34 25.2052 1162.34 L28.3562 1162.34 L28.3562 1152.7 L32.9077 1152.7 L32.9077 1162.34 L64.0042 1162.34 L64.0042 1168.23 L32.9077 1168.23 L32.9077 1173.83 L28.3562 1173.83 L28.3562 1168.23 L25.8736 1168.23 Q19.9216 1168.23 17.2162 1165.46 Q14.479 1162.69 14.479 1156.68 L14.479 1151.14 Z" fill="#000000" fill-rule="nonzero" fill-opacity="1"></path><path clip-path="url(#clip270)" d="M44.7161 1115.75 L47.5806 1115.75 L47.5806 1142.67 Q53.6281 1142.29 56.8109 1139.05 Q59.9619 1135.77 59.9619 1129.94 Q59.9619 1126.57 59.1344 1123.42 Q58.3069 1120.23 56.6518 1117.12 L62.1899 1117.12 Q63.5267 1120.27 64.227 1123.58 Q64.9272 1126.89 64.9272 1130.29 Q64.9272 1138.82 59.9619 1143.82 Q54.9967 1148.78 46.5303 1148.78 Q37.7774 1148.78 32.6531 1144.07 Q27.4968 1139.33 27.4968 1131.31 Q27.4968 1124.12 32.1438 1119.95 Q36.7589 1115.75 44.7161 1115.75 M42.9973 1121.6 Q38.1912 1121.67 35.3266 1124.31 Q32.4621 1126.92 32.4621 1131.25 Q32.4621 1136.15 35.2312 1139.11 Q38.0002 1142.04 43.0292 1142.48 L42.9973 1121.6 Z" fill="#000000" fill-rule="nonzero" fill-opacity="1"></path><path clip-path="url(#clip270)" d="M33.8307 1085.48 Q33.2578 1086.46 33.0032 1087.64 Q32.7167 1088.79 32.7167 1090.19 Q32.7167 1095.15 35.9632 1097.83 Q39.1779 1100.47 45.2253 1100.47 L64.0042 1100.47 L64.0042 1106.36 L28.3562 1106.36 L28.3562 1100.47 L33.8944 1100.47 Q30.6479 1098.62 29.0883 1095.66 Q27.4968 1092.7 27.4968 1088.47 Q27.4968 1087.86 27.5923 1087.13 Q27.656 1086.4 27.8151 1085.51 L33.8307 1085.48 Z" fill="#000000" fill-rule="nonzero" fill-opacity="1"></path><path clip-path="url(#clip270)" d="M44.7161 1050.28 L47.5806 1050.28 L47.5806 1077.2 Q53.6281 1076.82 56.8109 1073.57 Q59.9619 1070.3 59.9619 1064.47 Q59.9619 1061.1 59.1344 1057.95 Q58.3069 1054.76 56.6518 1051.64 L62.1899 1051.64 Q63.5267 1054.8 64.227 1058.11 Q64.9272 1061.42 64.9272 1064.82 Q64.9272 1073.35 59.9619 1078.35 Q54.9967 1083.31 46.5303 1083.31 Q37.7774 1083.31 32.6531 1078.6 Q27.4968 1073.86 27.4968 1065.84 Q27.4968 1058.65 32.1438 1054.48 Q36.7589 1050.28 44.7161 1050.28 M42.9973 1056.13 Q38.1912 1056.2 35.3266 1058.84 Q32.4621 1061.45 32.4621 1065.78 Q32.4621 1070.68 35.2312 1073.64 Q38.0002 1076.57 43.0292 1077.01 L42.9973 1056.13 Z" fill="#000000" fill-rule="nonzero" fill-opacity="1"></path><path clip-path="url(#clip270)" d="M42.4881 1011.03 L64.0042 1011.03 L64.0042 1016.89 L42.679 1016.89 Q37.6183 1016.89 35.1038 1018.86 Q32.5894 1020.83 32.5894 1024.78 Q32.5894 1029.52 35.6131 1032.26 Q38.6368 1035 43.8567 1035 L64.0042 1035 L64.0042 1040.89 L28.3562 1040.89 L28.3562 1035 L33.8944 1035 Q30.6797 1032.9 29.0883 1030.06 Q27.4968 1027.2 27.4968 1023.48 Q27.4968 1017.33 31.3163 1014.18 Q35.1038 1011.03 42.4881 1011.03 Z" fill="#000000" fill-rule="nonzero" fill-opacity="1"></path><path clip-path="url(#clip270)" d="M29.7248 973.696 L35.1993 973.696 Q33.8307 976.179 33.1623 978.693 Q32.4621 981.176 32.4621 983.722 Q32.4621 989.419 36.0905 992.57 Q39.6872 995.721 46.212 995.721 Q52.7369 995.721 56.3653 992.57 Q59.9619 989.419 59.9619 983.722 Q59.9619 981.176 59.2935 978.693 Q58.5933 976.179 57.2247 973.696 L62.6355 973.696 Q63.7814 976.147 64.3543 978.788 Q64.9272 981.398 64.9272 984.358 Q64.9272 992.411 59.8664 997.154 Q54.8057 1001.9 46.212 1001.9 Q37.491 1001.9 32.4939 997.122 Q27.4968 992.316 27.4968 983.977 Q27.4968 981.271 28.0697 978.693 Q28.6108 976.115 29.7248 973.696 Z" fill="#000000" fill-rule="nonzero" fill-opacity="1"></path><path clip-path="url(#clip270)" d="M44.7161 933.019 L47.5806 933.019 L47.5806 959.946 Q53.6281 959.564 56.8109 956.318 Q59.9619 953.039 59.9619 947.215 Q59.9619 943.841 59.1344 940.69 Q58.3069 937.507 56.6518 934.388 L62.1899 934.388 Q63.5267 937.539 64.227 940.849 Q64.9272 944.159 64.9272 947.565 Q64.9272 956.095 59.9619 961.092 Q54.9967 966.057 46.5303 966.057 Q37.7774 966.057 32.6531 961.346 Q27.4968 956.604 27.4968 948.583 Q27.4968 941.39 32.1438 937.22 Q36.7589 933.019 44.7161 933.019 M42.9973 938.876 Q38.1912 938.939 35.3266 941.581 Q32.4621 944.191 32.4621 948.52 Q32.4621 953.421 35.2312 956.381 Q38.0002 959.309 43.0292 959.755 L42.9973 938.876 Z" fill="#000000" fill-rule="nonzero" fill-opacity="1"></path><path clip-path="url(#clip270)" d="M28.3562 902.686 L28.3562 896.83 L64.0042 896.83 L64.0042 902.686 L28.3562 902.686 M14.479 902.686 L14.479 896.83 L21.895 896.83 L21.895 902.686 L14.479 902.686 Z" fill="#000000" fill-rule="nonzero" fill-opacity="1"></path><path clip-path="url(#clip270)" d="M42.4881 854.944 L64.0042 854.944 L64.0042 860.8 L42.679 860.8 Q37.6183 860.8 35.1038 862.773 Q32.5894 864.747 32.5894 868.694 Q32.5894 873.436 35.6131 876.173 Q38.6368 878.911 43.8567 878.911 L64.0042 878.911 L64.0042 884.799 L28.3562 884.799 L28.3562 878.911 L33.8944 878.911 Q30.6797 876.81 29.0883 873.977 Q27.4968 871.113 27.4968 867.389 Q27.4968 861.246 31.3163 858.095 Q35.1038 854.944 42.4881 854.944 Z" fill="#000000" fill-rule="nonzero" fill-opacity="1"></path><path clip-path="url(#clip270)" d="M20.8447 803 Q20.8447 810.002 26.0645 814.139 Q31.2844 818.245 40.2919 818.245 Q49.2675 818.245 54.4874 814.139 Q59.7073 810.002 59.7073 803 Q59.7073 795.997 54.4874 791.923 Q49.2675 787.817 40.2919 787.817 Q31.2844 787.817 26.0645 791.923 Q20.8447 795.997 20.8447 803 M15.6248 803 Q15.6248 793.005 22.3406 787.022 Q29.0246 781.038 40.2919 781.038 Q51.5274 781.038 58.2432 787.022 Q64.9272 793.005 64.9272 803 Q64.9272 813.025 58.2432 819.041 Q51.5592 825.025 40.2919 825.025 Q29.0246 825.025 22.3406 819.041 Q15.6248 813.025 15.6248 803 Z" fill="#000000" fill-rule="nonzero" fill-opacity="1"></path><path clip-path="url(#clip270)" d="M29.7248 745.581 L35.1993 745.581 Q33.8307 748.063 33.1623 750.578 Q32.4621 753.061 32.4621 755.607 Q32.4621 761.304 36.0905 764.455 Q39.6872 767.606 46.212 767.606 Q52.7369 767.606 56.3653 764.455 Q59.9619 761.304 59.9619 755.607 Q59.9619 753.061 59.2935 750.578 Q58.5933 748.063 57.2247 745.581 L62.6355 745.581 Q63.7814 748.032 64.3543 750.673 Q64.9272 753.283 64.9272 756.243 Q64.9272 764.296 59.8664 769.038 Q54.8057 773.781 46.212 773.781 Q37.491 773.781 32.4939 769.007 Q27.4968 764.201 27.4968 755.861 Q27.4968 753.156 28.0697 750.578 Q28.6108 748 29.7248 745.581 Z" fill="#000000" fill-rule="nonzero" fill-opacity="1"></path><path clip-path="url(#clip270)" d="M29.7248 709.742 L35.1993 709.742 Q33.8307 712.225 33.1623 714.739 Q32.4621 717.222 32.4621 719.768 Q32.4621 725.465 36.0905 728.616 Q39.6872 731.767 46.212 731.767 Q52.7369 731.767 56.3653 728.616 Q59.9619 725.465 59.9619 719.768 Q59.9619 717.222 59.2935 714.739 Q58.5933 712.225 57.2247 709.742 L62.6355 709.742 Q63.7814 712.193 64.3543 714.834 Q64.9272 717.444 64.9272 720.404 Q64.9272 728.457 59.8664 733.2 Q54.8057 737.942 46.212 737.942 Q37.491 737.942 32.4939 733.168 Q27.4968 728.362 27.4968 720.023 Q27.4968 717.317 28.0697 714.739 Q28.6108 712.161 29.7248 709.742 Z" fill="#000000" fill-rule="nonzero" fill-opacity="1"></path><path clip-path="url(#clip270)" d="M49.9359 700.162 L28.3562 700.162 L28.3562 694.305 L49.7131 694.305 Q54.7739 694.305 57.3202 692.332 Q59.8346 690.358 59.8346 686.412 Q59.8346 681.669 56.8109 678.932 Q53.7872 676.163 48.5673 676.163 L28.3562 676.163 L28.3562 670.306 L64.0042 670.306 L64.0042 676.163 L58.5296 676.163 Q61.7762 678.295 63.3676 681.128 Q64.9272 683.929 64.9272 687.653 Q64.9272 693.796 61.1078 696.979 Q57.2883 700.162 49.9359 700.162 M27.4968 685.425 L27.4968 685.425 Z" fill="#000000" fill-rule="nonzero" fill-opacity="1"></path><path clip-path="url(#clip270)" d="M58.657 652.578 L77.5631 652.578 L77.5631 658.466 L28.3562 658.466 L28.3562 652.578 L33.7671 652.578 Q30.5842 650.732 29.0564 647.931 Q27.4968 645.098 27.4968 641.183 Q27.4968 634.69 32.6531 630.648 Q37.8093 626.574 46.212 626.574 Q54.6147 626.574 59.771 630.648 Q64.9272 634.69 64.9272 641.183 Q64.9272 645.098 63.3994 647.931 Q61.8398 650.732 58.657 652.578 M46.212 632.653 Q39.7508 632.653 36.0905 635.327 Q32.3984 637.969 32.3984 642.616 Q32.3984 647.262 36.0905 649.936 Q39.7508 652.578 46.212 652.578 Q52.6732 652.578 56.3653 649.936 Q60.0256 647.262 60.0256 642.616 Q60.0256 637.969 56.3653 635.327 Q52.6732 632.653 46.212 632.653 Z" fill="#000000" fill-rule="nonzero" fill-opacity="1"></path><path clip-path="url(#clip270)" d="M28.3562 616.866 L28.3562 611.01 L64.0042 611.01 L64.0042 616.866 L28.3562 616.866 M14.479 616.866 L14.479 611.01 L21.895 611.01 L21.895 616.866 L14.479 616.866 Z" fill="#000000" fill-rule="nonzero" fill-opacity="1"></path><path clip-path="url(#clip270)" d="M44.7161 568.264 L47.5806 568.264 L47.5806 595.191 Q53.6281 594.809 56.8109 591.563 Q59.9619 588.284 59.9619 582.46 Q59.9619 579.086 59.1344 575.935 Q58.3069 572.752 56.6518 569.633 L62.1899 569.633 Q63.5267 572.784 64.227 576.094 Q64.9272 579.404 64.9272 582.81 Q64.9272 591.34 59.9619 596.337 Q54.9967 601.302 46.5303 601.302 Q37.7774 601.302 32.6531 596.591 Q27.4968 591.849 27.4968 583.828 Q27.4968 576.635 32.1438 572.465 Q36.7589 568.264 44.7161 568.264 M42.9973 574.121 Q38.1912 574.184 35.3266 576.826 Q32.4621 579.436 32.4621 583.765 Q32.4621 588.666 35.2312 591.626 Q38.0002 594.554 43.0292 595 L42.9973 574.121 Z" fill="#000000" fill-rule="nonzero" fill-opacity="1"></path><path clip-path="url(#clip270)" d="M33.7671 535.194 L14.479 535.194 L14.479 529.338 L64.0042 529.338 L64.0042 535.194 L58.657 535.194 Q61.8398 537.04 63.3994 539.873 Q64.9272 542.674 64.9272 546.621 Q64.9272 553.082 59.771 557.156 Q54.6147 561.198 46.212 561.198 Q37.8093 561.198 32.6531 557.156 Q27.4968 553.082 27.4968 546.621 Q27.4968 542.674 29.0564 539.873 Q30.5842 537.04 33.7671 535.194 M46.212 555.151 Q52.6732 555.151 56.3653 552.509 Q60.0256 549.835 60.0256 545.188 Q60.0256 540.541 56.3653 537.868 Q52.6732 535.194 46.212 535.194 Q39.7508 535.194 36.0905 537.868 Q32.3984 540.541 32.3984 545.188 Q32.3984 549.835 36.0905 552.509 Q39.7508 555.151 46.212 555.151 Z" fill="#000000" fill-rule="nonzero" fill-opacity="1"></path><path clip-path="url(#clip270)" d="M43.5384 520.235 L43.5384 503.079 L48.7583 503.079 L48.7583 520.235 L43.5384 520.235 Z" fill="#000000" fill-rule="nonzero" fill-opacity="1"></path><path clip-path="url(#clip270)" d="M16.4842 493.499 L16.4842 463.453 L21.895 463.453 L21.895 487.069 L35.9632 487.069 L35.9632 464.439 L41.3741 464.439 L41.3741 487.069 L58.5933 487.069 L58.5933 462.88 L64.0042 462.88 L64.0042 493.499 L16.4842 493.499 Z" fill="#000000" fill-rule="nonzero" fill-opacity="1"></path><path clip-path="url(#clip270)" d="M28.3562 422.935 L45.7028 435.826 L64.0042 422.267 L64.0042 429.173 L49.9996 439.549 L64.0042 449.926 L64.0042 456.832 L45.3526 442.987 L28.3562 455.655 L28.3562 448.748 L41.0558 439.295 L28.3562 429.842 L28.3562 422.935 Z" fill="#000000" fill-rule="nonzero" fill-opacity="1"></path><path clip-path="url(#clip270)" d="M58.657 408.326 L77.5631 408.326 L77.5631 414.214 L28.3562 414.214 L28.3562 408.326 L33.7671 408.326 Q30.5842 406.48 29.0564 403.679 Q27.4968 400.846 27.4968 396.931 Q27.4968 390.438 32.6531 386.396 Q37.8093 382.322 46.212 382.322 Q54.6147 382.322 59.771 386.396 Q64.9272 390.438 64.9272 396.931 Q64.9272 400.846 63.3994 403.679 Q61.8398 406.48 58.657 408.326 M46.212 388.401 Q39.7508 388.401 36.0905 391.075 Q32.3984 393.716 32.3984 398.363 Q32.3984 403.01 36.0905 405.684 Q39.7508 408.326 46.212 408.326 Q52.6732 408.326 56.3653 405.684 Q60.0256 403.01 60.0256 398.363 Q60.0256 393.716 56.3653 391.075 Q52.6732 388.401 46.212 388.401 Z" fill="#000000" fill-rule="nonzero" fill-opacity="1"></path><path clip-path="url(#clip270)" d="M32.4621 358.801 Q32.4621 363.511 36.1542 366.248 Q39.8145 368.986 46.212 368.986 Q52.6095 368.986 56.3017 366.28 Q59.9619 363.543 59.9619 358.801 Q59.9619 354.122 56.2698 351.384 Q52.5777 348.647 46.212 348.647 Q39.8781 348.647 36.186 351.384 Q32.4621 354.122 32.4621 358.801 M27.4968 358.801 Q27.4968 351.162 32.4621 346.801 Q37.4273 342.441 46.212 342.441 Q54.9649 342.441 59.9619 346.801 Q64.9272 351.162 64.9272 358.801 Q64.9272 366.471 59.9619 370.832 Q54.9649 375.16 46.212 375.16 Q37.4273 375.16 32.4621 370.832 Q27.4968 366.471 27.4968 358.801 Z" fill="#000000" fill-rule="nonzero" fill-opacity="1"></path><path clip-path="url(#clip270)" d="M29.4065 310.007 L34.9447 310.007 Q33.6716 312.49 33.035 315.164 Q32.3984 317.837 32.3984 320.702 Q32.3984 325.062 33.7352 327.258 Q35.072 329.423 37.7456 329.423 Q39.7826 329.423 40.9603 327.863 Q42.1061 326.304 43.1565 321.593 L43.6021 319.588 Q44.9389 313.349 47.3897 310.739 Q49.8086 308.098 54.1691 308.098 Q59.1344 308.098 62.0308 312.044 Q64.9272 315.959 64.9272 322.834 Q64.9272 325.699 64.3543 328.818 Q63.8132 331.905 62.6992 335.343 L56.6518 335.343 Q58.3387 332.096 59.198 328.945 Q60.0256 325.794 60.0256 322.707 Q60.0256 318.569 58.6251 316.341 Q57.1929 314.113 54.6147 314.113 Q52.2276 314.113 50.9545 315.736 Q49.6813 317.328 48.5037 322.771 L48.0262 324.808 Q46.8804 330.25 44.5251 332.669 Q42.138 335.088 38.0002 335.088 Q32.9713 335.088 30.2341 331.523 Q27.4968 327.959 27.4968 321.402 Q27.4968 318.155 27.9743 315.291 Q28.4517 312.426 29.4065 310.007 Z" fill="#000000" fill-rule="nonzero" fill-opacity="1"></path><path clip-path="url(#clip270)" d="M49.9359 299.377 L28.3562 299.377 L28.3562 293.52 L49.7131 293.52 Q54.7739 293.52 57.3202 291.547 Q59.8346 289.573 59.8346 285.627 Q59.8346 280.884 56.8109 278.147 Q53.7872 275.378 48.5673 275.378 L28.3562 275.378 L28.3562 269.521 L64.0042 269.521 L64.0042 275.378 L58.5296 275.378 Q61.7762 277.51 63.3676 280.343 Q64.9272 283.144 64.9272 286.868 Q64.9272 293.011 61.1078 296.194 Q57.2883 299.377 49.9359 299.377 M27.4968 284.64 L27.4968 284.64 Z" fill="#000000" fill-rule="nonzero" fill-opacity="1"></path><path clip-path="url(#clip270)" d="M33.8307 236.802 Q33.2578 237.788 33.0032 238.966 Q32.7167 240.112 32.7167 241.512 Q32.7167 246.478 35.9632 249.151 Q39.1779 251.793 45.2253 251.793 L64.0042 251.793 L64.0042 257.681 L28.3562 257.681 L28.3562 251.793 L33.8944 251.793 Q30.6479 249.947 29.0883 246.987 Q27.4968 244.027 27.4968 239.794 Q27.4968 239.189 27.5923 238.457 Q27.656 237.725 27.8151 236.834 L33.8307 236.802 Z" fill="#000000" fill-rule="nonzero" fill-opacity="1"></path><path clip-path="url(#clip270)" d="M44.7161 201.599 L47.5806 201.599 L47.5806 228.526 Q53.6281 228.144 56.8109 224.898 Q59.9619 221.62 59.9619 215.795 Q59.9619 212.421 59.1344 209.27 Q58.3069 206.087 56.6518 202.968 L62.1899 202.968 Q63.5267 206.119 64.227 209.429 Q64.9272 212.739 64.9272 216.145 Q64.9272 224.675 59.9619 229.672 Q54.9967 234.637 46.5303 234.637 Q37.7774 234.637 32.6531 229.927 Q27.4968 225.184 27.4968 217.164 Q27.4968 209.97 32.1438 205.801 Q36.7589 201.599 44.7161 201.599 M42.9973 207.456 Q38.1912 207.519 35.3266 210.161 Q32.4621 212.771 32.4621 217.1 Q32.4621 222.001 35.2312 224.962 Q38.0002 227.89 43.0292 228.335 L42.9973 207.456 Z" fill="#000000" fill-rule="nonzero" fill-opacity="1"></path><polyline clip-path="url(#clip272)" style="stroke:#009af9; stroke-linecap:round; stroke-linejoin:round; stroke-width:10; stroke-opacity:1; fill:none" points="348.986,1198.62 641.799,1203.89 813.084,1213.29 934.612,1209.6 1028.88,1197.26 1105.9,1172.73 1171.02,1144.74 1227.43,1113.33 1277.18,1087.15 1321.69,1062.28 1361.95,1035.87 1398.71,1011.11 1432.52,989.642 1463.83,966.386 1492.97,947.152 1520.24,927.815 1545.85,909.064 1569.99,892.645 1592.83,877.107 1614.5,861.361 1635.11,846.186 1654.77,831.157 1673.54,818.041 1691.52,807.935 1708.77,798.567 1725.34,790.233 1741.28,780.908 1756.64,770.43 1771.47,761.369 1785.79,753.475 1799.64,745.556 1813.05,738.74 1826.05,732.394 1838.66,726.747 1850.91,721.695 1862.81,716.954 1874.38,712.505 1885.65,708.346 1896.62,705.159 1907.32,702.541 1917.75,699.978 1927.93,696.624 1937.87,692.552 1947.58,688.656 1957.07,685.556 1966.36,683.532 1975.44,682.061 1984.34,680.609 1993.05,677.994 2001.58,674.807 2009.95,672.56 2018.15,670.682 2026.2,669.656 2034.09,668.642 2041.84,667.639 2049.46,666.647 2056.93,665.105 2064.28,663.055 2071.5,661.026 2078.6,659.184 2085.58,657.824 2092.45,656.477 2099.21,655.237 2105.86,654.729 2112.41,653.714 2118.86,652.318 2125.22,650.933 2131.47,649.664 2137.64,649.022 2143.72,648.288 2149.71,647.811 2155.62,647.337 2161.45,646.868 2167.19,646.335 2172.87,645.455 2178.46,645.18 2183.98,644.639 2189.43,643.467 2194.82,642.303 2200.13,641.149 2205.38,640.316 2210.56,639.704 2215.68,639.357 2220.74,639.012 2225.74,638.301 2230.68,637.451 2235.56,636.606 2240.39,635.84 2245.17,635.257 2249.89,634.678 2254.55,634.103 2259.17,633.531 2263.74,633.394 2268.26,633.271 2272.73,633.394 2277.15,633.394 2281.53,633.394 2285.86,633.394 2290.15,633.394 2294.39,633.394 "></polyline>
<polyline clip-path="url(#clip272)" style="stroke:#e26f46; stroke-linecap:round; stroke-linejoin:round; stroke-width:10; stroke-opacity:1; fill:none" points="348.986,1210.7 641.799,1247.41 813.084,1288.27 934.612,1307.5 1028.88,1308.65 1105.9,1289.79 1171.02,1265.17 1227.43,1240.06 1277.18,1217.84 1321.69,1194.95 1361.95,1171.95 1398.71,1151.4 1432.52,1131.39 1463.83,1111.15 1492.97,1093.42 1520.24,1075.87 1545.85,1059.41 1569.99,1044.51 1592.83,1029.85 1614.5,1016.09 1635.11,1003.59 1654.77,992.217 1673.54,981.841 1691.52,971.694 1708.77,961.514 1725.34,951.84 1741.28,943.295 1756.64,935.474 1771.47,927.906 1785.79,921.379 1799.64,915.592 1813.05,908.553 1826.05,903.022 1838.66,897.849 1850.91,894.239 1862.81,889.272 1874.38,885.963 1885.65,881.979 1896.62,878.28 1907.32,875.541 1917.75,873.309 1927.93,870.167 1937.87,868.795 1947.58,868.17 1957.07,866.821 1966.36,865.514 1975.44,863.308 1984.34,861.86 1993.05,860.178 2001.58,858.355 2009.95,856.715 2018.15,855.556 2026.2,854.715 2034.09,853.202 2041.84,851.576 2049.46,850.653 2056.93,849.609 2064.28,848.632 2071.5,847.671 2078.6,846.692 2085.58,845.645 2092.45,844.99 2099.21,844.404 2105.86,843.896 2112.41,843.303 2118.86,842.588 2125.22,841.66 2131.47,841.072 2137.64,840.615 2143.72,840.23 2149.71,839.848 2155.62,839.47 2161.45,839.079 2167.19,838.52 2172.87,837.966 2178.46,837.683 2183.98,837.381 2189.43,836.963 2194.82,836.509 2200.13,836.34 2205.38,835.899 2210.56,835.462 2215.68,835.15 2220.74,834.499 2225.74,834.168 2230.68,833.31 2235.56,832.902 2240.39,832.853 2245.17,832.472 2249.89,832.261 2254.55,831.933 2259.17,831.606 2263.74,831.282 2268.26,830.763 2272.73,830.639 2277.15,830.321 2281.53,830.289 2285.86,830.368 2290.15,830.407 2294.39,830.407 "></polyline>
<path clip-path="url(#clip272)" d="M348.986 1205.15 L641.799 1223.59 L813.084 1248.82 L934.612 1257.79 L1028.88 1254.69 L1105.9 1234.63 L1171.02 1218.22 L1227.43 1203.42 L1277.18 1198.37 L1321.69 1192.62 L1361.95 1187.32 L1398.71 1185.72 L1432.52 1182.48 L1463.83 1174.71 L1492.97 1171.06 L1520.24 1168.09 L1545.85 1164.83 L1569.99 1162.04 L1592.83 1161.52 L1614.5 1159.87 L1635.11 1155.19 L1654.77 1152.51 L1673.54 1149.7 L1691.52 1146.82 L1708.77 1145.02 L1725.34 1144.43 L1741.28 1143.55 L1756.64 1142.27 L1771.47 1140.58 L1785.79 1138.9 L1799.64 1137.27 L1813.05 1135.37 L1826.05 1133.47 L1838.66 1133.7 L1850.91 1132.11 L1862.81 1131.55 L1874.38 1129.82 L1885.65 1128.14 L1896.62 1126.63 L1907.32 1125.14 L1917.75 1123.7 L1927.93 1122.34 L1937.87 1121.27 L1947.58 1120.31 L1957.07 1119.54 L1966.36 1118.92 L1975.44 1118.31 L1984.34 1117.7 L1993.05 1117.97 L2001.58 1118.32 L2009.95 1118.67 L2018.15 1118.97 L2026.2 1119.09 L2034.09 1119.2 L2041.84 1119.31 L2049.46 1119.42 L2056.93 1119.53 L2064.28 1119.64 L2071.5 1119.26 L2078.6 1118.87 L2085.58 1118.56 L2092.45 1118.24 L2099.21 1117.94 L2105.86 1117.63 L2112.41 1117.33 L2118.86 1117.03 L2125.22 1116.73 L2131.47 1116.44 L2137.64 1116.4 L2143.72 1116.5 L2149.71 1116.59 L2155.62 1116.69 L2161.45 1116.78 L2167.19 1116.87 L2172.87 1116.92 L2178.46 1116.37 L2183.98 1115.83 L2189.43 1115.38 L2194.82 1115.11 L2200.13 1115.01 L2205.38 1114.58 L2210.56 1114.31 L2215.68 1114.05 L2220.74 1113.79 L2225.74 1113.54 L2230.68 1113.28 L2235.56 1113.03 L2240.39 1112.87 L2245.17 1112.96 L2249.89 1113.04 L2254.55 1113.12 L2259.17 1113.2 L2263.74 1113.29 L2268.26 1113.37 L2272.73 1113.45 L2277.15 1113.53 L2281.53 1113.6 L2285.86 1113.68 L2290.15 1113.72 L2294.39 1113.72 L2294.39 85.9411 L2290.15 85.9411 L2285.86 86.2131 L2281.53 86.7632 L2277.15 87.3167 L2272.73 87.8736 L2268.26 88.4341 L2263.74 88.9964 L2259.17 89.402 L2254.55 89.8101 L2249.89 90.221 L2245.17 90.6346 L2240.39 91.051 L2235.56 91.6495 L2230.68 93.4717 L2225.74 95.3423 L2220.74 97.0806 L2215.68 98.4605 L2210.56 99.8504 L2205.38 101.251 L2200.13 102.661 L2194.82 104.082 L2189.43 105.514 L2183.98 107.138 L2178.46 108.865 L2172.87 110.606 L2167.19 112.361 L2161.45 114.13 L2155.62 115.914 L2149.71 117.712 L2143.72 119.526 L2137.64 121.596 L2131.47 124.72 L2125.22 128.443 L2118.86 132.2 L2112.41 135.992 L2105.86 139.001 L2099.21 141.644 L2092.45 144.312 L2085.58 147.006 L2078.6 149.727 L2071.5 152.787 L2064.28 155.991 L2056.93 159.228 L2049.46 162.499 L2041.84 165.805 L2034.09 169.148 L2026.2 172.528 L2018.15 175.947 L2009.95 180.059 L2001.58 184.375 L1993.05 189.194 L1984.34 195.05 L1975.44 200.979 L1966.36 206.985 L1957.07 213.07 L1947.58 220.142 L1937.87 228.164 L1927.93 236.499 L1917.75 245.157 L1907.32 254.153 L1896.62 262.438 L1885.65 268.964 L1874.38 277.398 L1862.81 286.296 L1850.91 295.568 L1838.66 305.233 L1826.05 318.764 L1813.05 336.628 L1799.64 353.462 L1785.79 367.169 L1771.47 381.492 L1756.64 396.285 L1741.28 411.544 L1725.34 427.039 L1708.77 443.501 L1691.52 461.129 L1673.54 478.804 L1654.77 497.229 L1635.11 518.082 L1614.5 541.1 L1592.83 566 L1569.99 592.084 L1545.85 620.267 L1520.24 650.482 L1492.97 682.747 L1463.83 718.497 L1432.52 758.931 L1398.71 800.217 L1361.95 840.444 L1321.69 884.125 L1277.18 929.325 L1227.43 978.192 L1171.02 1032.57 L1105.9 1088.91 L1028.88 1143.47 L934.612 1178.81 L813.084 1197.42 L641.799 1198.28 L348.986 1198.28  Z" fill="#0000ff" fill-rule="evenodd" fill-opacity="0.35"></path>
<polyline clip-path="url(#clip272)" style="stroke:#0000ff; stroke-linecap:round; stroke-linejoin:round; stroke-width:4; stroke-opacity:0.35; fill:none" points="348.986,1205.15 641.799,1223.59 813.084,1248.82 934.612,1257.79 1028.88,1254.69 1105.9,1234.63 1171.02,1218.22 1227.43,1203.42 1277.18,1198.37 1321.69,1192.62 1361.95,1187.32 1398.71,1185.72 1432.52,1182.48 1463.83,1174.71 1492.97,1171.06 1520.24,1168.09 1545.85,1164.83 1569.99,1162.04 1592.83,1161.52 1614.5,1159.87 1635.11,1155.19 1654.77,1152.51 1673.54,1149.7 1691.52,1146.82 1708.77,1145.02 1725.34,1144.43 1741.28,1143.55 1756.64,1142.27 1771.47,1140.58 1785.79,1138.9 1799.64,1137.27 1813.05,1135.37 1826.05,1133.47 1838.66,1133.7 1850.91,1132.11 1862.81,1131.55 1874.38,1129.82 1885.65,1128.14 1896.62,1126.63 1907.32,1125.14 1917.75,1123.7 1927.93,1122.34 1937.87,1121.27 1947.58,1120.31 1957.07,1119.54 1966.36,1118.92 1975.44,1118.31 1984.34,1117.7 1993.05,1117.97 2001.58,1118.32 2009.95,1118.67 2018.15,1118.97 2026.2,1119.09 2034.09,1119.2 2041.84,1119.31 2049.46,1119.42 2056.93,1119.53 2064.28,1119.64 2071.5,1119.26 2078.6,1118.87 2085.58,1118.56 2092.45,1118.24 2099.21,1117.94 2105.86,1117.63 2112.41,1117.33 2118.86,1117.03 2125.22,1116.73 2131.47,1116.44 2137.64,1116.4 2143.72,1116.5 2149.71,1116.59 2155.62,1116.69 2161.45,1116.78 2167.19,1116.87 2172.87,1116.92 2178.46,1116.37 2183.98,1115.83 2189.43,1115.38 2194.82,1115.11 2200.13,1115.01 2205.38,1114.58 2210.56,1114.31 2215.68,1114.05 2220.74,1113.79 2225.74,1113.54 2230.68,1113.28 2235.56,1113.03 2240.39,1112.87 2245.17,1112.96 2249.89,1113.04 2254.55,1113.12 2259.17,1113.2 2263.74,1113.29 2268.26,1113.37 2272.73,1113.45 2277.15,1113.53 2281.53,1113.6 2285.86,1113.68 2290.15,1113.72 2294.39,1113.72 "></polyline>
<path clip-path="url(#clip272)" d="M348.986 1230.3 L641.799 1285.54 L813.084 1338.98 L934.612 1368.01 L1028.88 1375.84 L1105.9 1362.4 L1171.02 1344.12 L1227.43 1324 L1277.18 1308.25 L1321.69 1291.53 L1361.95 1273.79 L1398.71 1257.47 L1432.52 1244.16 L1463.83 1229.22 L1492.97 1213.93 L1520.24 1200.01 L1545.85 1189.42 L1569.99 1179.91 L1592.83 1169.4 L1614.5 1159.59 L1635.11 1149.75 L1654.77 1140.46 L1673.54 1133.48 L1691.52 1126.2 L1708.77 1119.43 L1725.34 1113.98 L1741.28 1108.76 L1756.64 1103.13 L1771.47 1097.91 L1785.79 1093.06 L1799.64 1088.34 L1813.05 1084.38 L1826.05 1081.2 L1838.66 1078.18 L1850.91 1073.57 L1862.81 1071.8 L1874.38 1070.48 L1885.65 1069.35 L1896.62 1067.68 L1907.32 1065.26 L1917.75 1062.7 L1927.93 1062.15 L1937.87 1061.61 L1947.58 1060.62 L1957.07 1060.43 L1966.36 1060.18 L1975.44 1059.94 L1984.34 1060 L1993.05 1061.08 L2001.58 1060.97 L2009.95 1060.73 L2018.15 1060.5 L2026.2 1060.27 L2034.09 1060.05 L2041.84 1059.83 L2049.46 1059.61 L2056.93 1059.67 L2064.28 1059.54 L2071.5 1059.11 L2078.6 1058.86 L2085.58 1059.07 L2092.45 1058.97 L2099.21 1058.66 L2105.86 1058.35 L2112.41 1058.05 L2118.86 1057.75 L2125.22 1057.46 L2131.47 1057.16 L2137.64 1056.93 L2143.72 1056.66 L2149.71 1055.97 L2155.62 1056.36 L2161.45 1056.17 L2167.19 1055.99 L2172.87 1056.09 L2178.46 1056.45 L2183.98 1056.82 L2189.43 1057.12 L2194.82 1057.3 L2200.13 1057.48 L2205.38 1057.65 L2210.56 1058 L2215.68 1058 L2220.74 1058.17 L2225.74 1058.34 L2230.68 1058.51 L2235.56 1058.68 L2240.39 1058.73 L2245.17 1058.48 L2249.89 1058.23 L2254.55 1057.99 L2259.17 1057.74 L2263.74 1057.5 L2268.26 1057.26 L2272.73 1057.06 L2277.15 1057.06 L2281.53 1057.06 L2285.86 1057.06 L2290.15 1057.06 L2294.39 1057.06 L2294.39 569.757 L2290.15 569.757 L2285.86 570.145 L2281.53 570.931 L2277.15 571.722 L2272.73 572.517 L2268.26 572.531 L2263.74 572.37 L2259.17 572.208 L2254.55 572.045 L2249.89 571.88 L2245.17 571.715 L2240.39 571.548 L2235.56 572.038 L2230.68 572.798 L2225.74 573.563 L2220.74 574.334 L2215.68 575.11 L2210.56 575.892 L2205.38 577.22 L2200.13 578.631 L2194.82 580.052 L2189.43 581.484 L2183.98 582.565 L2178.46 583.474 L2172.87 584.39 L2167.19 585.313 L2161.45 586.244 L2155.62 587.701 L2149.71 589.216 L2143.72 590.744 L2137.64 592.284 L2131.47 593.94 L2125.22 595.802 L2118.86 597.681 L2112.41 599.577 L2105.86 601.49 L2099.21 603.421 L2092.45 605.371 L2085.58 607.34 L2078.6 609.328 L2071.5 610.48 L2064.28 611.334 L2056.93 612.197 L2049.46 613.129 L2041.84 615.223 L2034.09 617.34 L2026.2 619.481 L2018.15 621.646 L2009.95 624.49 L2001.58 627.523 L1993.05 630.592 L1984.34 633.7 L1975.44 636.846 L1966.36 639.703 L1957.07 642.559 L1947.58 645.802 L1937.87 649.494 L1927.93 653.873 L1917.75 658.616 L1907.32 663.531 L1896.62 667.239 L1885.65 672.164 L1874.38 677.771 L1862.81 683.958 L1850.91 690.924 L1838.66 697.791 L1826.05 704.974 L1813.05 712.459 L1799.64 720.796 L1785.79 729.733 L1771.47 738.704 L1756.64 748.791 L1741.28 759.53 L1725.34 771.411 L1708.77 784.068 L1691.52 796.692 L1673.54 809.374 L1654.77 822.71 L1635.11 838.038 L1614.5 854.377 L1592.83 871.522 L1569.99 889.943 L1545.85 910.61 L1520.24 932.679 L1492.97 955.971 L1463.83 980.716 L1432.52 1006.7 L1398.71 1032.51 L1361.95 1059.5 L1321.69 1090.18 L1277.18 1121.32 L1227.43 1152.65 L1171.02 1187.58 L1105.9 1221.49 L1028.88 1251.85 L934.612 1259.33 L813.084 1250.22 L641.799 1222.55 L348.986 1202.06  Z" fill="#ffa500" fill-rule="evenodd" fill-opacity="0.35"></path>
<polyline clip-path="url(#clip272)" style="stroke:#ffa500; stroke-linecap:round; stroke-linejoin:round; stroke-width:4; stroke-opacity:0.35; fill:none" points="348.986,1230.3 641.799,1285.54 813.084,1338.98 934.612,1368.01 1028.88,1375.84 1105.9,1362.4 1171.02,1344.12 1227.43,1324 1277.18,1308.25 1321.69,1291.53 1361.95,1273.79 1398.71,1257.47 1432.52,1244.16 1463.83,1229.22 1492.97,1213.93 1520.24,1200.01 1545.85,1189.42 1569.99,1179.91 1592.83,1169.4 1614.5,1159.59 1635.11,1149.75 1654.77,1140.46 1673.54,1133.48 1691.52,1126.2 1708.77,1119.43 1725.34,1113.98 1741.28,1108.76 1756.64,1103.13 1771.47,1097.91 1785.79,1093.06 1799.64,1088.34 1813.05,1084.38 1826.05,1081.2 1838.66,1078.18 1850.91,1073.57 1862.81,1071.8 1874.38,1070.48 1885.65,1069.35 1896.62,1067.68 1907.32,1065.26 1917.75,1062.7 1927.93,1062.15 1937.87,1061.61 1947.58,1060.62 1957.07,1060.43 1966.36,1060.18 1975.44,1059.94 1984.34,1060 1993.05,1061.08 2001.58,1060.97 2009.95,1060.73 2018.15,1060.5 2026.2,1060.27 2034.09,1060.05 2041.84,1059.83 2049.46,1059.61 2056.93,1059.67 2064.28,1059.54 2071.5,1059.11 2078.6,1058.86 2085.58,1059.07 2092.45,1058.97 2099.21,1058.66 2105.86,1058.35 2112.41,1058.05 2118.86,1057.75 2125.22,1057.46 2131.47,1057.16 2137.64,1056.93 2143.72,1056.66 2149.71,1055.97 2155.62,1056.36 2161.45,1056.17 2167.19,1055.99 2172.87,1056.09 2178.46,1056.45 2183.98,1056.82 2189.43,1057.12 2194.82,1057.3 2200.13,1057.48 2205.38,1057.65 2210.56,1058 2215.68,1058 2220.74,1058.17 2225.74,1058.34 2230.68,1058.51 2235.56,1058.68 2240.39,1058.73 2245.17,1058.48 2249.89,1058.23 2254.55,1057.99 2259.17,1057.74 2263.74,1057.5 2268.26,1057.26 2272.73,1057.06 2277.15,1057.06 2281.53,1057.06 2285.86,1057.06 2290.15,1057.06 2294.39,1057.06 "></polyline>
<polyline clip-path="url(#clip272)" style="stroke:#000000; stroke-linecap:round; stroke-linejoin:round; stroke-width:8; stroke-opacity:1; fill:none" stroke-dasharray="32, 20" points="348.986,1198.28 641.799,1198.28 813.084,1198.28 934.612,1198.28 1028.88,1198.28 1105.9,1198.28 1171.02,1198.28 1227.43,1198.28 1277.18,1198.28 1321.69,1198.28 1361.95,1198.28 1398.71,1198.28 1432.52,1198.28 1463.83,1198.28 1492.97,1198.28 1520.24,1198.28 1545.85,1198.28 1569.99,1198.28 1592.83,1198.28 1614.5,1198.28 1635.11,1198.28 1654.77,1198.28 1673.54,1198.28 1691.52,1198.28 1708.77,1198.28 1725.34,1198.28 1741.28,1198.28 1756.64,1198.28 1771.47,1198.28 1785.79,1198.28 1799.64,1198.28 1813.05,1198.28 1826.05,1198.28 1838.66,1198.28 1850.91,1198.28 1862.81,1198.28 1874.38,1198.28 1885.65,1198.28 1896.62,1198.28 1907.32,1198.28 1917.75,1198.28 1927.93,1198.28 1937.87,1198.28 1947.58,1198.28 1957.07,1198.28 1966.36,1198.28 1975.44,1198.28 1984.34,1198.28 1993.05,1198.28 2001.58,1198.28 2009.95,1198.28 2018.15,1198.28 2026.2,1198.28 2034.09,1198.28 2041.84,1198.28 2049.46,1198.28 2056.93,1198.28 2064.28,1198.28 2071.5,1198.28 2078.6,1198.28 2085.58,1198.28 2092.45,1198.28 2099.21,1198.28 2105.86,1198.28 2112.41,1198.28 2118.86,1198.28 2125.22,1198.28 2131.47,1198.28 2137.64,1198.28 2143.72,1198.28 2149.71,1198.28 2155.62,1198.28 2161.45,1198.28 2167.19,1198.28 2172.87,1198.28 2178.46,1198.28 2183.98,1198.28 2189.43,1198.28 2194.82,1198.28 2200.13,1198.28 2205.38,1198.28 2210.56,1198.28 2215.68,1198.28 2220.74,1198.28 2225.74,1198.28 2230.68,1198.28 2235.56,1198.28 2240.39,1198.28 2245.17,1198.28 2249.89,1198.28 2254.55,1198.28 2259.17,1198.28 2263.74,1198.28 2268.26,1198.28 2272.73,1198.28 2277.15,1198.28 2281.53,1198.28 2285.86,1198.28 2290.15,1198.28 2294.39,1198.28 "></polyline>
<path clip-path="url(#clip270)" d="M1982.78 248.341 L2284.02 248.341 L2284.02 92.8206 L1982.78 92.8206  Z" fill="#ffffff" fill-rule="evenodd" fill-opacity="1"></path>
<polyline clip-path="url(#clip270)" style="stroke:#000000; stroke-linecap:round; stroke-linejoin:round; stroke-width:4; stroke-opacity:1; fill:none" points="1982.78,248.341 2284.02,248.341 2284.02,92.8206 1982.78,92.8206 1982.78,248.341 "></polyline>
<polyline clip-path="url(#clip270)" style="stroke:#009af9; stroke-linecap:round; stroke-linejoin:round; stroke-width:10; stroke-opacity:1; fill:none" points="2005.69,144.661 2143.17,144.661 "></polyline>
<path clip-path="url(#clip270)" d="M2187.8 146.293 L2187.8 161.941 L2183.54 161.941 L2183.54 146.431 Q2183.54 142.751 2182.1 140.922 Q2180.67 139.094 2177.8 139.094 Q2174.35 139.094 2172.36 141.293 Q2170.37 143.492 2170.37 147.288 L2170.37 161.941 L2166.08 161.941 L2166.08 125.922 L2170.37 125.922 L2170.37 140.043 Q2171.89 137.705 2173.95 136.547 Q2176.04 135.39 2178.74 135.39 Q2183.21 135.39 2185.5 138.168 Q2187.8 140.922 2187.8 146.293 Z" fill="#000000" fill-rule="nonzero" fill-opacity="1"></path><path clip-path="url(#clip270)" d="M2196.29 136.015 L2200.55 136.015 L2200.55 161.941 L2196.29 161.941 L2196.29 136.015 M2196.29 125.922 L2200.55 125.922 L2200.55 131.316 L2196.29 131.316 L2196.29 125.922 Z" fill="#000000" fill-rule="nonzero" fill-opacity="1"></path><path clip-path="url(#clip270)" d="M2226.52 148.677 Q2226.52 144.047 2224.6 141.501 Q2222.7 138.955 2219.25 138.955 Q2215.83 138.955 2213.91 141.501 Q2212.01 144.047 2212.01 148.677 Q2212.01 153.283 2213.91 155.83 Q2215.83 158.376 2219.25 158.376 Q2222.7 158.376 2224.6 155.83 Q2226.52 153.283 2226.52 148.677 M2230.78 158.723 Q2230.78 165.343 2227.84 168.561 Q2224.9 171.802 2218.84 171.802 Q2216.59 171.802 2214.6 171.454 Q2212.61 171.13 2210.74 170.436 L2210.74 166.292 Q2212.61 167.311 2214.44 167.797 Q2216.27 168.283 2218.17 168.283 Q2222.36 168.283 2224.44 166.084 Q2226.52 163.908 2226.52 159.487 L2226.52 157.38 Q2225.2 159.672 2223.14 160.806 Q2221.08 161.941 2218.21 161.941 Q2213.44 161.941 2210.53 158.306 Q2207.61 154.672 2207.61 148.677 Q2207.61 142.658 2210.53 139.024 Q2213.44 135.39 2218.21 135.39 Q2221.08 135.39 2223.14 136.524 Q2225.2 137.658 2226.52 139.95 L2226.52 136.015 L2230.78 136.015 L2230.78 158.723 Z" fill="#000000" fill-rule="nonzero" fill-opacity="1"></path><path clip-path="url(#clip270)" d="M2261.11 146.293 L2261.11 161.941 L2256.85 161.941 L2256.85 146.431 Q2256.85 142.751 2255.41 140.922 Q2253.98 139.094 2251.11 139.094 Q2247.66 139.094 2245.67 141.293 Q2243.68 143.492 2243.68 147.288 L2243.68 161.941 L2239.39 161.941 L2239.39 125.922 L2243.68 125.922 L2243.68 140.043 Q2245.2 137.705 2247.26 136.547 Q2249.35 135.39 2252.05 135.39 Q2256.52 135.39 2258.81 138.168 Q2261.11 140.922 2261.11 146.293 Z" fill="#000000" fill-rule="nonzero" fill-opacity="1"></path><polyline clip-path="url(#clip270)" style="stroke:#e26f46; stroke-linecap:round; stroke-linejoin:round; stroke-width:10; stroke-opacity:1; fill:none" points="2005.69,196.501 2143.17,196.501 "></polyline>
<path clip-path="url(#clip270)" d="M2166.08 177.762 L2170.34 177.762 L2170.34 213.781 L2166.08 213.781 L2166.08 177.762 Z" fill="#000000" fill-rule="nonzero" fill-opacity="1"></path><path clip-path="url(#clip270)" d="M2189.3 190.841 Q2185.87 190.841 2183.88 193.526 Q2181.89 196.188 2181.89 200.841 Q2181.89 205.494 2183.86 208.179 Q2185.85 210.841 2189.3 210.841 Q2192.7 210.841 2194.69 208.156 Q2196.68 205.47 2196.68 200.841 Q2196.68 196.234 2194.69 193.549 Q2192.7 190.841 2189.3 190.841 M2189.3 187.23 Q2194.86 187.23 2198.03 190.841 Q2201.2 194.452 2201.2 200.841 Q2201.2 207.207 2198.03 210.841 Q2194.86 214.452 2189.3 214.452 Q2183.72 214.452 2180.55 210.841 Q2177.4 207.207 2177.4 200.841 Q2177.4 194.452 2180.55 190.841 Q2183.72 187.23 2189.3 187.23 Z" fill="#000000" fill-rule="nonzero" fill-opacity="1"></path><path clip-path="url(#clip270)" d="M2205.78 187.855 L2210.04 187.855 L2215.37 208.086 L2220.67 187.855 L2225.69 187.855 L2231.01 208.086 L2236.31 187.855 L2240.57 187.855 L2233.79 213.781 L2228.77 213.781 L2223.19 192.531 L2217.59 213.781 L2212.56 213.781 L2205.78 187.855 Z" fill="#000000" fill-rule="nonzero" fill-opacity="1"></path></svg>