<svg xmlns="http://www.w3.org/2000/svg" xmlns:xlink="http://www.w3.org/1999/xlink" width="600" height="400" viewBox="0 0 2400 1600">
<defs>
  <clipPath id="clip750">
    <rect x="0" y="0" width="2400" height="1600"></rect>
  </clipPath>
</defs>
<path clip-path="url(#clip750)" d="M0 1600 L2400 1600 L2400 0 L0 0  Z" fill="#ffffff" fill-rule="evenodd" fill-opacity="1"></path>
<defs>
  <clipPath id="clip751">
    <rect x="480" y="0" width="1681" height="1600"></rect>
  </clipPath>
</defs>
<path clip-path="url(#clip750)" d="M277.24 1477.81 L2352.76 1477.81 L2352.76 123.472 L277.24 123.472  Z" fill="#ffffff" fill-rule="evenodd" fill-opacity="1"></path>
<defs>
  <clipPath id="clip752">
    <rect x="277" y="123" width="2077" height="1355"></rect>
  </clipPath>
</defs>
<polyline clip-path="url(#clip752)" style="stroke:#000000; stroke-linecap:round; stroke-linejoin:round; stroke-width:2; stroke-opacity:0.1; fill:none" points="335.981,1477.81 335.981,123.472 "></polyline>
<polyline clip-path="url(#clip752)" style="stroke:#000000; stroke-linecap:round; stroke-linejoin:round; stroke-width:2; stroke-opacity:0.1; fill:none" points="1315,1477.81 1315,123.472 "></polyline>
<polyline clip-path="url(#clip752)" style="stroke:#000000; stroke-linecap:round; stroke-linejoin:round; stroke-width:2; stroke-opacity:0.1; fill:none" points="2294.01,1477.81 2294.01,123.472 "></polyline>
<polyline clip-path="url(#clip750)" style="stroke:#000000; stroke-linecap:round; stroke-linejoin:round; stroke-width:4; stroke-opacity:1; fill:none" points="277.24,1477.81 2352.76,1477.81 "></polyline>
<polyline clip-path="url(#clip750)" style="stroke:#000000; stroke-linecap:round; stroke-linejoin:round; stroke-width:4; stroke-opacity:1; fill:none" points="335.981,1477.81 335.981,1458.91 "></polyline>
<polyline clip-path="url(#clip750)" style="stroke:#000000; stroke-linecap:round; stroke-linejoin:round; stroke-width:4; stroke-opacity:1; fill:none" points="1315,1477.81 1315,1458.91 "></polyline>
<polyline clip-path="url(#clip750)" style="stroke:#000000; stroke-linecap:round; stroke-linejoin:round; stroke-width:4; stroke-opacity:1; fill:none" points="2294.01,1477.81 2294.01,1458.91 "></polyline>
<path clip-path="url(#clip750)" d="M304.341 1546.09 L313.889 1546.09 L313.889 1513.13 L303.501 1515.22 L303.501 1509.89 L313.831 1507.81 L319.676 1507.81 L319.676 1546.09 L329.225 1546.09 L329.225 1551.01 L304.341 1551.01 L304.341 1546.09 Z" fill="#000000" fill-rule="nonzero" fill-opacity="1"></path><path clip-path="url(#clip750)" d="M353.53 1511.66 Q349.016 1511.66 346.73 1516.11 Q344.473 1520.54 344.473 1529.45 Q344.473 1538.33 346.73 1542.79 Q349.016 1547.22 353.53 1547.22 Q358.073 1547.22 360.33 1542.79 Q362.616 1538.33 362.616 1529.45 Q362.616 1520.54 360.33 1516.11 Q358.073 1511.66 353.53 1511.66 M353.53 1507.03 Q360.793 1507.03 364.612 1512.78 Q368.461 1518.51 368.461 1529.45 Q368.461 1540.36 364.612 1546.12 Q360.793 1551.85 353.53 1551.85 Q346.267 1551.85 342.419 1546.12 Q338.6 1540.36 338.6 1529.45 Q338.6 1518.51 342.419 1512.78 Q346.267 1507.03 353.53 1507.03 Z" fill="#000000" fill-rule="nonzero" fill-opacity="1"></path><path clip-path="url(#clip750)" d="M1264.51 1546.09 L1274.05 1546.09 L1274.05 1513.13 L1263.67 1515.22 L1263.67 1509.89 L1274 1507.81 L1279.84 1507.81 L1279.84 1546.09 L1289.39 1546.09 L1289.39 1551.01 L1264.51 1551.01 L1264.51 1546.09 Z" fill="#000000" fill-rule="nonzero" fill-opacity="1"></path><path clip-path="url(#clip750)" d="M1313.7 1511.66 Q1309.18 1511.66 1306.9 1516.11 Q1304.64 1520.54 1304.64 1529.45 Q1304.64 1538.33 1306.9 1542.79 Q1309.18 1547.22 1313.7 1547.22 Q1318.24 1547.22 1320.5 1542.79 Q1322.78 1538.33 1322.78 1529.45 Q1322.78 1520.54 1320.5 1516.11 Q1318.24 1511.66 1313.7 1511.66 M1313.7 1507.03 Q1320.96 1507.03 1324.78 1512.78 Q1328.63 1518.51 1328.63 1529.45 Q1328.63 1540.36 1324.78 1546.12 Q1320.96 1551.85 1313.7 1551.85 Q1306.43 1551.85 1302.58 1546.12 Q1298.77 1540.36 1298.77 1529.45 Q1298.77 1518.51 1302.58 1512.78 Q1306.43 1507.03 1313.7 1507.03 Z" fill="#000000" fill-rule="nonzero" fill-opacity="1"></path><path clip-path="url(#clip750)" d="M1351.4 1511.66 Q1346.88 1511.66 1344.6 1516.11 Q1342.34 1520.54 1342.34 1529.45 Q1342.34 1538.33 1344.6 1542.79 Q1346.88 1547.22 1351.4 1547.22 Q1355.94 1547.22 1358.2 1542.79 Q1360.48 1538.33 1360.48 1529.45 Q1360.48 1520.54 1358.2 1516.11 Q1355.94 1511.66 1351.4 1511.66 M1351.4 1507.03 Q1358.66 1507.03 1362.48 1512.78 Q1366.33 1518.51 1366.33 1529.45 Q1366.33 1540.36 1362.48 1546.12 Q1358.66 1551.85 1351.4 1551.85 Q1344.14 1551.85 1340.29 1546.12 Q1336.47 1540.36 1336.47 1529.45 Q1336.47 1518.51 1340.29 1512.78 Q1344.14 1507.03 1351.4 1507.03 Z" fill="#000000" fill-rule="nonzero" fill-opacity="1"></path><path clip-path="url(#clip750)" d="M2224.67 1546.09 L2234.22 1546.09 L2234.22 1513.13 L2223.83 1515.22 L2223.83 1509.89 L2234.16 1507.81 L2240.01 1507.81 L2240.01 1546.09 L2249.56 1546.09 L2249.56 1551.01 L2224.67 1551.01 L2224.67 1546.09 Z" fill="#000000" fill-rule="nonzero" fill-opacity="1"></path><path clip-path="url(#clip750)" d="M2273.86 1511.66 Q2269.35 1511.66 2267.06 1516.11 Q2264.8 1520.54 2264.8 1529.45 Q2264.8 1538.33 2267.06 1542.79 Q2269.35 1547.22 2273.86 1547.22 Q2278.4 1547.22 2280.66 1542.79 Q2282.95 1538.33 2282.95 1529.45 Q2282.95 1520.54 2280.66 1516.11 Q2278.4 1511.66 2273.86 1511.66 M2273.86 1507.03 Q2281.12 1507.03 2284.94 1512.78 Q2288.79 1518.51 2288.79 1529.45 Q2288.79 1540.36 2284.94 1546.12 Q2281.12 1551.85 2273.86 1551.85 Q2266.6 1551.85 2262.75 1546.12 Q2258.93 1540.36 2258.93 1529.45 Q2258.93 1518.51 2262.75 1512.78 Q2266.6 1507.03 2273.86 1507.03 Z" fill="#000000" fill-rule="nonzero" fill-opacity="1"></path><path clip-path="url(#clip750)" d="M2311.56 1511.66 Q2307.05 1511.66 2304.76 1516.11 Q2302.51 1520.54 2302.51 1529.45 Q2302.51 1538.33 2304.76 1542.79 Q2307.05 1547.22 2311.56 1547.22 Q2316.11 1547.22 2318.36 1542.79 Q2320.65 1538.33 2320.65 1529.45 Q2320.65 1520.54 2318.36 1516.11 Q2316.11 1511.66 2311.56 1511.66 M2311.56 1507.03 Q2318.83 1507.03 2322.65 1512.78 Q2326.49 1518.51 2326.49 1529.45 Q2326.49 1540.36 2322.65 1546.12 Q2318.83 1551.85 2311.56 1551.85 Q2304.3 1551.85 2300.45 1546.12 Q2296.63 1540.36 2296.63 1529.45 Q2296.63 1518.51 2300.45 1512.78 Q2304.3 1507.03 2311.56 1507.03 Z" fill="#000000" fill-rule="nonzero" fill-opacity="1"></path><path clip-path="url(#clip750)" d="M2349.27 1511.66 Q2344.75 1511.66 2342.47 1516.11 Q2340.21 1520.54 2340.21 1529.45 Q2340.21 1538.33 2342.47 1542.79 Q2344.75 1547.22 2349.27 1547.22 Q2353.81 1547.22 2356.07 1542.79 Q2358.35 1538.33 2358.35 1529.45 Q2358.35 1520.54 2356.07 1516.11 Q2353.81 1511.66 2349.27 1511.66 M2349.27 1507.03 Q2356.53 1507.03 2360.35 1512.78 Q2364.2 1518.51 2364.2 1529.45 Q2364.2 1540.36 2360.35 1546.12 Q2356.53 1551.85 2349.27 1551.85 Q2342 1551.85 2338.16 1546.12 Q2334.34 1540.36 2334.34 1529.45 Q2334.34 1518.51 2338.16 1512.78 Q2342 1507.03 2349.27 1507.03 Z" fill="#000000" fill-rule="nonzero" fill-opacity="1"></path><polyline clip-path="url(#clip752)" style="stroke:#000000; stroke-linecap:round; stroke-linejoin:round; stroke-width:2; stroke-opacity:0.1; fill:none" points="277.24,1314.28 2352.76,1314.28 "></polyline>
<polyline clip-path="url(#clip752)" style="stroke:#000000; stroke-linecap:round; stroke-linejoin:round; stroke-width:2; stroke-opacity:0.1; fill:none" points="277.24,1026.16 2352.76,1026.16 "></polyline>
<polyline clip-path="url(#clip752)" style="stroke:#000000; stroke-linecap:round; stroke-linejoin:round; stroke-width:2; stroke-opacity:0.1; fill:none" points="277.24,738.039 2352.76,738.039 "></polyline>
<polyline clip-path="url(#clip752)" style="stroke:#000000; stroke-linecap:round; stroke-linejoin:round; stroke-width:2; stroke-opacity:0.1; fill:none" points="277.24,449.921 2352.76,449.921 "></polyline>
<polyline clip-path="url(#clip752)" style="stroke:#000000; stroke-linecap:round; stroke-linejoin:round; stroke-width:2; stroke-opacity:0.1; fill:none" points="277.24,161.802 2352.76,161.802 "></polyline>
<polyline clip-path="url(#clip750)" style="stroke:#000000; stroke-linecap:round; stroke-linejoin:round; stroke-width:4; stroke-opacity:1; fill:none" points="277.24,1477.81 277.24,123.472 "></polyline>
<polyline clip-path="url(#clip750)" style="stroke:#000000; stroke-linecap:round; stroke-linejoin:round; stroke-width:4; stroke-opacity:1; fill:none" points="277.24,1314.28 296.138,1314.28 "></polyline>
<polyline clip-path="url(#clip750)" style="stroke:#000000; stroke-linecap:round; stroke-linejoin:round; stroke-width:4; stroke-opacity:1; fill:none" points="277.24,1026.16 296.138,1026.16 "></polyline>
<polyline clip-path="url(#clip750)" style="stroke:#000000; stroke-linecap:round; stroke-linejoin:round; stroke-width:4; stroke-opacity:1; fill:none" points="277.24,738.039 296.138,738.039 "></polyline>
<polyline clip-path="url(#clip750)" style="stroke:#000000; stroke-linecap:round; stroke-linejoin:round; stroke-width:4; stroke-opacity:1; fill:none" points="277.24,449.921 296.138,449.921 "></polyline>
<polyline clip-path="url(#clip750)" style="stroke:#000000; stroke-linecap:round; stroke-linejoin:round; stroke-width:4; stroke-opacity:1; fill:none" points="277.24,161.802 296.138,161.802 "></polyline>
<path clip-path="url(#clip750)" d="M50.9921 1314.84 L88.0868 1314.84 L88.0868 1319.76 L50.9921 1319.76 L50.9921 1314.84 Z" fill="#000000" fill-rule="nonzero" fill-opacity="1"></path><path clip-path="url(#clip750)" d="M116.761 1297.77 L102.005 1320.83 L116.761 1320.83 L116.761 1297.77 M115.228 1292.68 L122.577 1292.68 L122.577 1320.83 L128.741 1320.83 L128.741 1325.69 L122.577 1325.69 L122.577 1335.88 L116.761 1335.88 L116.761 1325.69 L97.2592 1325.69 L97.2592 1320.05 L115.228 1292.68 Z" fill="#000000" fill-rule="nonzero" fill-opacity="1"></path><path clip-path="url(#clip750)" d="M150.905 1296.52 Q146.391 1296.52 144.105 1300.98 Q141.848 1305.41 141.848 1314.32 Q141.848 1323.2 144.105 1327.66 Q146.391 1332.09 150.905 1332.09 Q155.448 1332.09 157.705 1327.66 Q159.99 1323.2 159.99 1314.32 Q159.99 1305.41 157.705 1300.98 Q155.448 1296.52 150.905 1296.52 M150.905 1291.89 Q158.167 1291.89 161.987 1297.65 Q165.835 1303.38 165.835 1314.32 Q165.835 1325.23 161.987 1330.99 Q158.167 1336.72 150.905 1336.72 Q143.642 1336.72 139.794 1330.99 Q135.974 1325.23 135.974 1314.32 Q135.974 1303.38 139.794 1297.65 Q143.642 1291.89 150.905 1291.89 Z" fill="#000000" fill-rule="nonzero" fill-opacity="1"></path><path clip-path="url(#clip750)" d="M188.607 1296.52 Q184.093 1296.52 181.807 1300.98 Q179.55 1305.41 179.55 1314.32 Q179.55 1323.2 181.807 1327.66 Q184.093 1332.09 188.607 1332.09 Q193.15 1332.09 195.407 1327.66 Q197.693 1323.2 197.693 1314.32 Q197.693 1305.41 195.407 1300.98 Q193.15 1296.52 188.607 1296.52 M188.607 1291.89 Q195.87 1291.89 199.689 1297.65 Q203.538 1303.38 203.538 1314.32 Q203.538 1325.23 199.689 1330.99 Q195.87 1336.72 188.607 1336.72 Q181.344 1336.72 177.496 1330.99 Q173.677 1325.23 173.677 1314.32 Q173.677 1303.38 177.496 1297.65 Q181.344 1291.89 188.607 1291.89 Z" fill="#000000" fill-rule="nonzero" fill-opacity="1"></path><path clip-path="url(#clip750)" d="M226.309 1296.52 Q221.796 1296.52 219.51 1300.98 Q217.253 1305.41 217.253 1314.32 Q217.253 1323.2 219.51 1327.66 Q221.796 1332.09 226.309 1332.09 Q230.852 1332.09 233.109 1327.66 Q235.395 1323.2 235.395 1314.32 Q235.395 1305.41 233.109 1300.98 Q230.852 1296.52 226.309 1296.52 M226.309 1291.89 Q233.572 1291.89 237.392 1297.65 Q241.24 1303.38 241.24 1314.32 Q241.24 1325.23 237.392 1330.99 Q233.572 1336.72 226.309 1336.72 Q219.047 1336.72 215.198 1330.99 Q211.379 1325.23 211.379 1314.32 Q211.379 1303.38 215.198 1297.65 Q219.047 1291.89 226.309 1291.89 Z" fill="#000000" fill-rule="nonzero" fill-opacity="1"></path><path clip-path="url(#clip750)" d="M50.9921 1026.72 L88.0868 1026.72 L88.0868 1031.64 L50.9921 1031.64 L50.9921 1026.72 Z" fill="#000000" fill-rule="nonzero" fill-opacity="1"></path><path clip-path="url(#clip750)" d="M118.411 1024.46 Q122.606 1025.36 124.95 1028.2 Q127.323 1031.03 127.323 1035.2 Q127.323 1041.59 122.925 1045.1 Q118.526 1048.6 110.425 1048.6 Q107.705 1048.6 104.811 1048.05 Q101.947 1047.53 98.8796 1046.46 L98.8796 1040.81 Q101.31 1042.23 104.204 1042.95 Q107.097 1043.68 110.251 1043.68 Q115.749 1043.68 118.613 1041.51 Q121.507 1039.34 121.507 1035.2 Q121.507 1031.38 118.816 1029.24 Q116.154 1027.07 111.38 1027.07 L106.345 1027.07 L106.345 1022.27 L111.611 1022.27 Q115.922 1022.27 118.208 1020.56 Q120.494 1018.82 120.494 1015.58 Q120.494 1012.25 118.121 1010.49 Q115.778 1008.7 111.38 1008.7 Q108.978 1008.7 106.229 1009.22 Q103.48 1009.74 100.182 1010.84 L100.182 1005.63 Q103.509 1004.7 106.403 1004.24 Q109.325 1003.78 111.9 1003.78 Q118.555 1003.78 122.433 1006.81 Q126.31 1009.82 126.31 1014.97 Q126.31 1018.56 124.256 1021.05 Q122.201 1023.51 118.411 1024.46 Z" fill="#000000" fill-rule="nonzero" fill-opacity="1"></path><path clip-path="url(#clip750)" d="M150.905 1008.41 Q146.391 1008.41 144.105 1012.86 Q141.848 1017.29 141.848 1026.2 Q141.848 1035.08 144.105 1039.54 Q146.391 1043.97 150.905 1043.97 Q155.448 1043.97 157.705 1039.54 Q159.99 1035.08 159.99 1026.2 Q159.99 1017.29 157.705 1012.86 Q155.448 1008.41 150.905 1008.41 M150.905 1003.78 Q158.167 1003.78 161.987 1009.53 Q165.835 1015.26 165.835 1026.2 Q165.835 1037.11 161.987 1042.87 Q158.167 1048.6 150.905 1048.6 Q143.642 1048.6 139.794 1042.87 Q135.974 1037.11 135.974 1026.2 Q135.974 1015.26 139.794 1009.53 Q143.642 1003.78 150.905 1003.78 Z" fill="#000000" fill-rule="nonzero" fill-opacity="1"></path><path clip-path="url(#clip750)" d="M188.607 1008.41 Q184.093 1008.41 181.807 1012.86 Q179.55 1017.29 179.55 1026.2 Q179.55 1035.08 181.807 1039.54 Q184.093 1043.97 188.607 1043.97 Q193.15 1043.97 195.407 1039.54 Q197.693 1035.08 197.693 1026.2 Q197.693 1017.29 195.407 1012.86 Q193.15 1008.41 188.607 1008.41 M188.607 1003.78 Q195.87 1003.78 199.689 1009.53 Q203.538 1015.26 203.538 1026.2 Q203.538 1037.11 199.689 1042.87 Q195.87 1048.6 188.607 1048.6 Q181.344 1048.6 177.496 1042.87 Q173.677 1037.11 173.677 1026.2 Q173.677 1015.26 177.496 1009.53 Q181.344 1003.78 188.607 1003.78 Z" fill="#000000" fill-rule="nonzero" fill-opacity="1"></path><path clip-path="url(#clip750)" d="M226.309 1008.41 Q221.796 1008.41 219.51 1012.86 Q217.253 1017.29 217.253 1026.2 Q217.253 1035.08 219.51 1039.54 Q221.796 1043.97 226.309 1043.97 Q230.852 1043.97 233.109 1039.54 Q235.395 1035.08 235.395 1026.2 Q235.395 1017.29 233.109 1012.86 Q230.852 1008.41 226.309 1008.41 M226.309 1003.78 Q233.572 1003.78 237.392 1009.53 Q241.24 1015.26 241.24 1026.2 Q241.24 1037.11 237.392 1042.87 Q233.572 1048.6 226.309 1048.6 Q219.047 1048.6 215.198 1042.87 Q211.379 1037.11 211.379 1026.2 Q211.379 1015.26 215.198 1009.53 Q219.047 1003.78 226.309 1003.78 Z" fill="#000000" fill-rule="nonzero" fill-opacity="1"></path><path clip-path="url(#clip750)" d="M50.9921 738.603 L88.0868 738.603 L88.0868 743.522 L50.9921 743.522 L50.9921 738.603 Z" fill="#000000" fill-rule="nonzero" fill-opacity="1"></path><path clip-path="url(#clip750)" d="M105.737 754.72 L126.136 754.72 L126.136 759.639 L98.706 759.639 L98.706 754.72 Q102.034 751.277 107.763 745.49 Q113.521 739.674 114.996 737.996 Q117.803 734.842 118.903 732.672 Q120.031 730.473 120.031 728.36 Q120.031 724.917 117.601 722.747 Q115.199 720.577 111.322 720.577 Q108.573 720.577 105.506 721.532 Q102.468 722.487 98.9953 724.425 L98.9953 718.523 Q102.525 717.105 105.593 716.381 Q108.66 715.658 111.206 715.658 Q117.919 715.658 121.912 719.014 Q125.905 722.371 125.905 727.984 Q125.905 730.646 124.892 733.048 Q123.908 735.421 121.275 738.661 Q120.552 739.5 116.675 743.522 Q112.797 747.515 105.737 754.72 Z" fill="#000000" fill-rule="nonzero" fill-opacity="1"></path><path clip-path="url(#clip750)" d="M150.905 720.288 Q146.391 720.288 144.105 724.744 Q141.848 729.171 141.848 738.083 Q141.848 746.966 144.105 751.422 Q146.391 755.849 150.905 755.849 Q155.448 755.849 157.705 751.422 Q159.99 746.966 159.99 738.083 Q159.99 729.171 157.705 724.744 Q155.448 720.288 150.905 720.288 M150.905 715.658 Q158.167 715.658 161.987 721.416 Q165.835 727.145 165.835 738.083 Q165.835 748.991 161.987 754.749 Q158.167 760.478 150.905 760.478 Q143.642 760.478 139.794 754.749 Q135.974 748.991 135.974 738.083 Q135.974 727.145 139.794 721.416 Q143.642 715.658 150.905 715.658 Z" fill="#000000" fill-rule="nonzero" fill-opacity="1"></path><path clip-path="url(#clip750)" d="M188.607 720.288 Q184.093 720.288 181.807 724.744 Q179.55 729.171 179.55 738.083 Q179.55 746.966 181.807 751.422 Q184.093 755.849 188.607 755.849 Q193.15 755.849 195.407 751.422 Q197.693 746.966 197.693 738.083 Q197.693 729.171 195.407 724.744 Q193.15 720.288 188.607 720.288 M188.607 715.658 Q195.87 715.658 199.689 721.416 Q203.538 727.145 203.538 738.083 Q203.538 748.991 199.689 754.749 Q195.87 760.478 188.607 760.478 Q181.344 760.478 177.496 754.749 Q173.677 748.991 173.677 738.083 Q173.677 727.145 177.496 721.416 Q181.344 715.658 188.607 715.658 Z" fill="#000000" fill-rule="nonzero" fill-opacity="1"></path><path clip-path="url(#clip750)" d="M226.309 720.288 Q221.796 720.288 219.51 724.744 Q217.253 729.171 217.253 738.083 Q217.253 746.966 219.51 751.422 Q221.796 755.849 226.309 755.849 Q230.852 755.849 233.109 751.422 Q235.395 746.966 235.395 738.083 Q235.395 729.171 233.109 724.744 Q230.852 720.288 226.309 720.288 M226.309 715.658 Q233.572 715.658 237.392 721.416 Q241.24 727.145 241.24 738.083 Q241.24 748.991 237.392 754.749 Q233.572 760.478 226.309 760.478 Q219.047 760.478 215.198 754.749 Q211.379 748.991 211.379 738.083 Q211.379 727.145 215.198 721.416 Q219.047 715.658 226.309 715.658 Z" fill="#000000" fill-rule="nonzero" fill-opacity="1"></path><path clip-path="url(#clip750)" d="M50.9921 450.485 L88.0868 450.485 L88.0868 455.404 L50.9921 455.404 L50.9921 450.485 Z" fill="#000000" fill-rule="nonzero" fill-opacity="1"></path><path clip-path="url(#clip750)" d="M101.715 466.602 L111.264 466.602 L111.264 433.645 L100.876 435.728 L100.876 430.404 L111.206 428.321 L117.051 428.321 L117.051 466.602 L126.599 466.602 L126.599 471.521 L101.715 471.521 L101.715 466.602 Z" fill="#000000" fill-rule="nonzero" fill-opacity="1"></path><path clip-path="url(#clip750)" d="M150.905 432.169 Q146.391 432.169 144.105 436.625 Q141.848 441.052 141.848 449.964 Q141.848 458.847 144.105 463.303 Q146.391 467.73 150.905 467.73 Q155.448 467.73 157.705 463.303 Q159.99 458.847 159.99 449.964 Q159.99 441.052 157.705 436.625 Q155.448 432.169 150.905 432.169 M150.905 427.54 Q158.167 427.54 161.987 433.298 Q165.835 439.027 165.835 449.964 Q165.835 460.873 161.987 466.631 Q158.167 472.36 150.905 472.36 Q143.642 472.36 139.794 466.631 Q135.974 460.873 135.974 449.964 Q135.974 439.027 139.794 433.298 Q143.642 427.54 150.905 427.54 Z" fill="#000000" fill-rule="nonzero" fill-opacity="1"></path><path clip-path="url(#clip750)" d="M188.607 432.169 Q184.093 432.169 181.807 436.625 Q179.55 441.052 179.55 449.964 Q179.55 458.847 181.807 463.303 Q184.093 467.73 188.607 467.73 Q193.15 467.73 195.407 463.303 Q197.693 458.847 197.693 449.964 Q197.693 441.052 195.407 436.625 Q193.15 432.169 188.607 432.169 M188.607 427.54 Q195.87 427.54 199.689 433.298 Q203.538 439.027 203.538 449.964 Q203.538 460.873 199.689 466.631 Q195.87 472.36 188.607 472.36 Q181.344 472.36 177.496 466.631 Q173.677 460.873 173.677 449.964 Q173.677 439.027 177.496 433.298 Q181.344 427.54 188.607 427.54 Z" fill="#000000" fill-rule="nonzero" fill-opacity="1"></path><path clip-path="url(#clip750)" d="M226.309 432.169 Q221.796 432.169 219.51 436.625 Q217.253 441.052 217.253 449.964 Q217.253 458.847 219.51 463.303 Q221.796 467.73 226.309 467.73 Q230.852 467.73 233.109 463.303 Q235.395 458.847 235.395 449.964 Q235.395 441.052 233.109 436.625 Q230.852 432.169 226.309 432.169 M226.309 427.54 Q233.572 427.54 237.392 433.298 Q241.24 439.027 241.24 449.964 Q241.24 460.873 237.392 466.631 Q233.572 472.36 226.309 472.36 Q219.047 472.36 215.198 466.631 Q211.379 460.873 211.379 449.964 Q211.379 439.027 215.198 433.298 Q219.047 427.54 226.309 427.54 Z" fill="#000000" fill-rule="nonzero" fill-opacity="1"></path><path clip-path="url(#clip750)" d="M226.309 144.051 Q221.796 144.051 219.51 148.507 Q217.253 152.934 217.253 161.846 Q217.253 170.729 219.51 175.185 Q221.796 179.612 226.309 179.612 Q230.852 179.612 233.109 175.185 Q235.395 170.729 235.395 161.846 Q235.395 152.934 233.109 148.507 Q230.852 144.051 226.309 144.051 M226.309 139.421 Q233.572 139.421 237.392 145.179 Q241.24 150.908 241.24 161.846 Q241.24 172.754 237.392 178.512 Q233.572 184.241 226.309 184.241 Q219.047 184.241 215.198 178.512 Q211.379 172.754 211.379 161.846 Q211.379 150.908 215.198 145.179 Q219.047 139.421 226.309 139.421 Z" fill="#000000" fill-rule="nonzero" fill-opacity="1"></path><path clip-path="url(#clip750)" d="M614.455 44.2197 Q617.088 45.1109 619.559 48.0275 Q622.071 50.9442 624.582 56.0483 L632.886 72.576 L624.096 72.576 L616.359 57.061 Q613.361 50.9847 610.525 48.9997 Q607.73 47.0148 602.869 47.0148 L593.957 47.0148 L593.957 72.576 L585.774 72.576 L585.774 12.096 L604.247 12.096 Q614.617 12.096 619.721 16.4305 Q624.825 20.7649 624.825 29.5149 Q624.825 35.2267 622.152 38.994 Q619.518 42.7613 614.455 44.2197 M593.957 18.8205 L593.957 40.2903 L604.247 40.2903 Q610.161 40.2903 613.159 37.5762 Q616.197 34.8216 616.197 29.5149 Q616.197 24.2082 613.159 21.5346 Q610.161 18.8205 604.247 18.8205 L593.957 18.8205 Z" fill="#000000" fill-rule="nonzero" fill-opacity="1"></path><path clip-path="url(#clip750)" d="M643.095 27.2059 L650.548 27.2059 L650.548 72.576 L643.095 72.576 L643.095 27.2059 M643.095 9.54393 L650.548 9.54393 L650.548 18.9825 L643.095 18.9825 L643.095 9.54393 Z" fill="#000000" fill-rule="nonzero" fill-opacity="1"></path><path clip-path="url(#clip750)" d="M695.068 28.5427 L695.068 35.5912 Q691.908 33.9709 688.505 33.1607 Q685.103 32.3505 681.457 32.3505 Q675.907 32.3505 673.112 34.0519 Q670.357 35.7533 670.357 39.156 Q670.357 41.7486 672.342 43.2475 Q674.327 44.7058 680.323 46.0426 L682.875 46.6097 Q690.814 48.3111 694.136 51.4303 Q697.498 54.509 697.498 60.0587 Q697.498 66.3781 692.475 70.0644 Q687.493 73.7508 678.743 73.7508 Q675.097 73.7508 671.127 73.0216 Q667.198 72.3329 662.823 70.9151 L662.823 63.2184 Q666.955 65.3654 670.965 66.4591 Q674.975 67.5124 678.905 67.5124 Q684.171 67.5124 687.007 65.73 Q689.842 63.9071 689.842 60.6258 Q689.842 57.5877 687.776 55.9673 Q685.751 54.3469 678.824 52.8481 L676.231 52.2405 Q669.304 50.7821 666.225 47.7845 Q663.147 44.7463 663.147 39.4801 Q663.147 33.0797 667.684 29.5959 Q672.221 26.1121 680.566 26.1121 Q684.697 26.1121 688.343 26.7198 Q691.989 27.3274 695.068 28.5427 Z" fill="#000000" fill-rule="nonzero" fill-opacity="1"></path><path clip-path="url(#clip750)" d="M709.084 9.54393 L716.578 9.54393 L716.578 46.7717 L738.818 27.2059 L748.337 27.2059 L724.275 48.4326 L749.35 72.576 L739.628 72.576 L716.578 50.4176 L716.578 72.576 L709.084 72.576 L709.084 9.54393 Z" fill="#000000" fill-rule="nonzero" fill-opacity="1"></path><path clip-path="url(#clip750)" d="M812.706 28.5427 L812.706 35.5912 Q809.546 33.9709 806.144 33.1607 Q802.741 32.3505 799.095 32.3505 Q793.545 32.3505 790.75 34.0519 Q787.996 35.7533 787.996 39.156 Q787.996 41.7486 789.98 43.2475 Q791.965 44.7058 797.961 46.0426 L800.513 46.6097 Q808.453 48.3111 811.774 51.4303 Q815.137 54.509 815.137 60.0587 Q815.137 66.3781 810.113 70.0644 Q805.131 73.7508 796.381 73.7508 Q792.735 73.7508 788.765 73.0216 Q784.836 72.3329 780.461 70.9151 L780.461 63.2184 Q784.593 65.3654 788.603 66.4591 Q792.614 67.5124 796.543 67.5124 Q801.809 67.5124 804.645 65.73 Q807.48 63.9071 807.48 60.6258 Q807.48 57.5877 805.414 55.9673 Q803.389 54.3469 796.462 52.8481 L793.869 52.2405 Q786.942 50.7821 783.864 47.7845 Q780.785 44.7463 780.785 39.4801 Q780.785 33.0797 785.322 29.5959 Q789.859 26.1121 798.204 26.1121 Q802.336 26.1121 805.982 26.7198 Q809.627 27.3274 812.706 28.5427 Z" fill="#000000" fill-rule="nonzero" fill-opacity="1"></path><path clip-path="url(#clip750)" d="M864.72 45.1919 L864.72 72.576 L857.266 72.576 L857.266 45.4349 Q857.266 38.994 854.754 35.7938 Q852.243 32.5936 847.22 32.5936 Q841.184 32.5936 837.7 36.4419 Q834.216 40.2903 834.216 46.9338 L834.216 72.576 L826.722 72.576 L826.722 9.54393 L834.216 9.54393 L834.216 34.2544 Q836.89 30.163 840.495 28.1376 Q844.141 26.1121 848.881 26.1121 Q856.699 26.1121 860.709 30.9732 Q864.72 35.7938 864.72 45.1919 Z" fill="#000000" fill-rule="nonzero" fill-opacity="1"></path><path clip-path="url(#clip750)" d="M879.586 27.2059 L887.04 27.2059 L887.04 72.576 L879.586 72.576 L879.586 27.2059 M879.586 9.54393 L887.04 9.54393 L887.04 18.9825 L879.586 18.9825 L879.586 9.54393 Z" fill="#000000" fill-rule="nonzero" fill-opacity="1"></path><path clip-path="url(#clip750)" d="M925.605 9.54393 L925.605 15.7418 L918.475 15.7418 Q914.465 15.7418 912.885 17.3622 Q911.346 18.9825 911.346 23.1955 L911.346 27.2059 L923.62 27.2059 L923.62 32.9987 L911.346 32.9987 L911.346 72.576 L903.851 72.576 L903.851 32.9987 L896.722 32.9987 L896.722 27.2059 L903.851 27.2059 L903.851 24.0462 Q903.851 16.471 907.376 13.0277 Q910.9 9.54393 918.556 9.54393 L925.605 9.54393 Z" fill="#000000" fill-rule="nonzero" fill-opacity="1"></path><path clip-path="url(#clip750)" d="M937.757 14.324 L937.757 27.2059 L953.11 27.2059 L953.11 32.9987 L937.757 32.9987 L937.757 57.6282 Q937.757 63.1779 939.256 64.7578 Q940.796 66.3376 945.454 66.3376 L953.11 66.3376 L953.11 72.576 L945.454 72.576 Q936.826 72.576 933.545 69.3758 Q930.263 66.1351 930.263 57.6282 L930.263 32.9987 L924.795 32.9987 L924.795 27.2059 L930.263 27.2059 L930.263 14.324 L937.757 14.324 Z" fill="#000000" fill-rule="nonzero" fill-opacity="1"></path><path clip-path="url(#clip750)" d="M962.914 27.2059 L970.367 27.2059 L970.367 72.576 L962.914 72.576 L962.914 27.2059 M962.914 9.54393 L970.367 9.54393 L970.367 18.9825 L962.914 18.9825 L962.914 9.54393 Z" fill="#000000" fill-rule="nonzero" fill-opacity="1"></path><path clip-path="url(#clip750)" d="M1023.68 45.1919 L1023.68 72.576 L1016.22 72.576 L1016.22 45.4349 Q1016.22 38.994 1013.71 35.7938 Q1011.2 32.5936 1006.18 32.5936 Q1000.14 32.5936 996.658 36.4419 Q993.174 40.2903 993.174 46.9338 L993.174 72.576 L985.68 72.576 L985.68 27.2059 L993.174 27.2059 L993.174 34.2544 Q995.847 30.163 999.453 28.1376 Q1003.1 26.1121 1007.84 26.1121 Q1015.66 26.1121 1019.67 30.9732 Q1023.68 35.7938 1023.68 45.1919 Z" fill="#000000" fill-rule="nonzero" fill-opacity="1"></path><path clip-path="url(#clip750)" d="M1068.4 49.3643 Q1068.4 41.2625 1065.04 36.8065 Q1061.72 32.3505 1055.68 32.3505 Q1049.68 32.3505 1046.32 36.8065 Q1043 41.2625 1043 49.3643 Q1043 57.4256 1046.32 61.8816 Q1049.68 66.3376 1055.68 66.3376 Q1061.72 66.3376 1065.04 61.8816 Q1068.4 57.4256 1068.4 49.3643 M1075.85 66.9452 Q1075.85 78.5308 1070.71 84.1616 Q1065.56 89.8329 1054.95 89.8329 Q1051.02 89.8329 1047.54 89.2252 Q1044.05 88.6581 1040.77 87.4428 L1040.77 80.1917 Q1044.05 81.9741 1047.25 82.8248 Q1050.45 83.6755 1053.78 83.6755 Q1061.11 83.6755 1064.75 79.8271 Q1068.4 76.0193 1068.4 68.282 L1068.4 64.5957 Q1066.09 68.6061 1062.48 70.5911 Q1058.88 72.576 1053.86 72.576 Q1045.51 72.576 1040.41 66.2161 Q1035.3 59.8562 1035.3 49.3643 Q1035.3 38.832 1040.41 32.472 Q1045.51 26.1121 1053.86 26.1121 Q1058.88 26.1121 1062.48 28.0971 Q1066.09 30.082 1068.4 34.0924 L1068.4 27.2059 L1075.85 27.2059 L1075.85 66.9452 Z" fill="#000000" fill-rule="nonzero" fill-opacity="1"></path><path clip-path="url(#clip750)" d="M1093.11 62.2867 L1101.66 62.2867 L1101.66 72.576 L1093.11 72.576 L1093.11 62.2867 M1093.11 29.6769 L1101.66 29.6769 L1101.66 39.9662 L1093.11 39.9662 L1093.11 29.6769 Z" fill="#000000" fill-rule="nonzero" fill-opacity="1"></path><path clip-path="url(#clip750)" d="M1183.24 45.1919 L1183.24 72.576 L1175.79 72.576 L1175.79 45.4349 Q1175.79 38.994 1173.28 35.7938 Q1170.77 32.5936 1165.74 32.5936 Q1159.71 32.5936 1156.22 36.4419 Q1152.74 40.2903 1152.74 46.9338 L1152.74 72.576 L1145.24 72.576 L1145.24 9.54393 L1152.74 9.54393 L1152.74 34.2544 Q1155.41 30.163 1159.02 28.1376 Q1162.66 26.1121 1167.4 26.1121 Q1175.22 26.1121 1179.23 30.9732 Q1183.24 35.7938 1183.24 45.1919 Z" fill="#000000" fill-rule="nonzero" fill-opacity="1"></path><path clip-path="url(#clip750)" d="M1198.11 27.2059 L1205.56 27.2059 L1205.56 72.576 L1198.11 72.576 L1198.11 27.2059 M1198.11 9.54393 L1205.56 9.54393 L1205.56 18.9825 L1198.11 18.9825 L1198.11 9.54393 Z" fill="#000000" fill-rule="nonzero" fill-opacity="1"></path><path clip-path="url(#clip750)" d="M1251.01 49.3643 Q1251.01 41.2625 1247.65 36.8065 Q1244.33 32.3505 1238.29 32.3505 Q1232.3 32.3505 1228.94 36.8065 Q1225.61 41.2625 1225.61 49.3643 Q1225.61 57.4256 1228.94 61.8816 Q1232.3 66.3376 1238.29 66.3376 Q1244.33 66.3376 1247.65 61.8816 Q1251.01 57.4256 1251.01 49.3643 M1258.47 66.9452 Q1258.47 78.5308 1253.32 84.1616 Q1248.18 89.8329 1237.56 89.8329 Q1233.64 89.8329 1230.15 89.2252 Q1226.67 88.6581 1223.39 87.4428 L1223.39 80.1917 Q1226.67 81.9741 1229.87 82.8248 Q1233.07 83.6755 1236.39 83.6755 Q1243.72 83.6755 1247.37 79.8271 Q1251.01 76.0193 1251.01 68.282 L1251.01 64.5957 Q1248.7 68.6061 1245.1 70.5911 Q1241.49 72.576 1236.47 72.576 Q1228.13 72.576 1223.02 66.2161 Q1217.92 59.8562 1217.92 49.3643 Q1217.92 38.832 1223.02 32.472 Q1228.13 26.1121 1236.47 26.1121 Q1241.49 26.1121 1245.1 28.0971 Q1248.7 30.082 1251.01 34.0924 L1251.01 27.2059 L1258.47 27.2059 L1258.47 66.9452 Z" fill="#000000" fill-rule="nonzero" fill-opacity="1"></path><path clip-path="url(#clip750)" d="M1311.53 45.1919 L1311.53 72.576 L1304.08 72.576 L1304.08 45.4349 Q1304.08 38.994 1301.57 35.7938 Q1299.06 32.5936 1294.03 32.5936 Q1288 32.5936 1284.51 36.4419 Q1281.03 40.2903 1281.03 46.9338 L1281.03 72.576 L1273.54 72.576 L1273.54 9.54393 L1281.03 9.54393 L1281.03 34.2544 Q1283.7 30.163 1287.31 28.1376 Q1290.96 26.1121 1295.7 26.1121 Q1303.51 26.1121 1307.52 30.9732 Q1311.53 35.7938 1311.53 45.1919 Z" fill="#000000" fill-rule="nonzero" fill-opacity="1"></path><path clip-path="url(#clip750)" d="M1381.78 44.2197 Q1384.41 45.1109 1386.88 48.0275 Q1389.39 50.9442 1391.9 56.0483 L1400.21 72.576 L1391.42 72.576 L1383.68 57.061 Q1380.68 50.9847 1377.85 48.9997 Q1375.05 47.0148 1370.19 47.0148 L1361.28 47.0148 L1361.28 72.576 L1353.1 72.576 L1353.1 12.096 L1371.57 12.096 Q1381.94 12.096 1387.04 16.4305 Q1392.15 20.7649 1392.15 29.5149 Q1392.15 35.2267 1389.47 38.994 Q1386.84 42.7613 1381.78 44.2197 M1361.28 18.8205 L1361.28 40.2903 L1371.57 40.2903 Q1377.48 40.2903 1380.48 37.5762 Q1383.52 34.8216 1383.52 29.5149 Q1383.52 24.2082 1380.48 21.5346 Q1377.48 18.8205 1371.57 18.8205 L1361.28 18.8205 Z" fill="#000000" fill-rule="nonzero" fill-opacity="1"></path><path clip-path="url(#clip750)" d="M1427.59 20.1573 L1416.49 50.2555 L1438.73 50.2555 L1427.59 20.1573 M1422.97 12.096 L1432.25 12.096 L1455.3 72.576 L1446.79 72.576 L1441.28 57.061 L1414.02 57.061 L1408.51 72.576 L1399.88 72.576 L1422.97 12.096 Z" fill="#000000" fill-rule="nonzero" fill-opacity="1"></path><path clip-path="url(#clip750)" d="M1465.71 62.2867 L1474.26 62.2867 L1474.26 69.2543 L1467.62 82.2172 L1462.39 82.2172 L1465.71 69.2543 L1465.71 62.2867 Z" fill="#000000" fill-rule="nonzero" fill-opacity="1"></path><path clip-path="url(#clip750)" d="M1554.26 45.1919 L1554.26 72.576 L1546.81 72.576 L1546.81 45.4349 Q1546.81 38.994 1544.3 35.7938 Q1541.79 32.5936 1536.76 32.5936 Q1530.73 32.5936 1527.25 36.4419 Q1523.76 40.2903 1523.76 46.9338 L1523.76 72.576 L1516.27 72.576 L1516.27 27.2059 L1523.76 27.2059 L1523.76 34.2544 Q1526.43 30.163 1530.04 28.1376 Q1533.69 26.1121 1538.43 26.1121 Q1546.24 26.1121 1550.25 30.9732 Q1554.26 35.7938 1554.26 45.1919 Z" fill="#000000" fill-rule="nonzero" fill-opacity="1"></path><path clip-path="url(#clip750)" d="M1586.71 32.4315 Q1580.72 32.4315 1577.23 37.1306 Q1573.75 41.7891 1573.75 49.9314 Q1573.75 58.0738 1577.19 62.7728 Q1580.68 67.4314 1586.71 67.4314 Q1592.67 67.4314 1596.15 62.7323 Q1599.63 58.0333 1599.63 49.9314 Q1599.63 41.8701 1596.15 37.1711 Q1592.67 32.4315 1586.71 32.4315 M1586.71 26.1121 Q1596.43 26.1121 1601.98 32.4315 Q1607.53 38.7509 1607.53 49.9314 Q1607.53 61.0714 1601.98 67.4314 Q1596.43 73.7508 1586.71 73.7508 Q1576.95 73.7508 1571.4 67.4314 Q1565.89 61.0714 1565.89 49.9314 Q1565.89 38.7509 1571.4 32.4315 Q1576.95 26.1121 1586.71 26.1121 Z" fill="#000000" fill-rule="nonzero" fill-opacity="1"></path><path clip-path="url(#clip750)" d="M1678.83 49.9314 Q1678.83 41.7081 1675.43 37.0496 Q1672.06 32.3505 1666.15 32.3505 Q1660.24 32.3505 1656.83 37.0496 Q1653.47 41.7081 1653.47 49.9314 Q1653.47 58.1548 1656.83 62.8538 Q1660.24 67.5124 1666.15 67.5124 Q1672.06 67.5124 1675.43 62.8538 Q1678.83 58.1548 1678.83 49.9314 M1653.47 34.0924 Q1655.82 30.0415 1659.39 28.0971 Q1662.99 26.1121 1667.97 26.1121 Q1676.24 26.1121 1681.38 32.6746 Q1686.57 39.2371 1686.57 49.9314 Q1686.57 60.6258 1681.38 67.1883 Q1676.24 73.7508 1667.97 73.7508 Q1662.99 73.7508 1659.39 71.8063 Q1655.82 69.8214 1653.47 65.7705 L1653.47 72.576 L1645.98 72.576 L1645.98 9.54393 L1653.47 9.54393 L1653.47 34.0924 Z" fill="#000000" fill-rule="nonzero" fill-opacity="1"></path><path clip-path="url(#clip750)" d="M1725.21 34.1734 Q1723.96 33.4443 1722.46 33.1202 Q1721 32.7556 1719.22 32.7556 Q1712.9 32.7556 1709.5 36.8875 Q1706.13 40.9789 1706.13 48.6757 L1706.13 72.576 L1698.64 72.576 L1698.64 27.2059 L1706.13 27.2059 L1706.13 34.2544 Q1708.48 30.1225 1712.25 28.1376 Q1716.02 26.1121 1721.4 26.1121 Q1722.17 26.1121 1723.11 26.2337 Q1724.04 26.3147 1725.17 26.5172 L1725.21 34.1734 Z" fill="#000000" fill-rule="nonzero" fill-opacity="1"></path><path clip-path="url(#clip750)" d="M1770.02 48.0275 L1770.02 51.6733 L1735.75 51.6733 Q1736.23 59.3701 1740.36 63.421 Q1744.54 67.4314 1751.95 67.4314 Q1756.24 67.4314 1760.25 66.3781 Q1764.3 65.3249 1768.27 63.2184 L1768.27 70.267 Q1764.26 71.9684 1760.05 72.8596 Q1755.84 73.7508 1751.5 73.7508 Q1740.65 73.7508 1734.29 67.4314 Q1727.97 61.1119 1727.97 50.3365 Q1727.97 39.1965 1733.96 32.6746 Q1740 26.1121 1750.21 26.1121 Q1759.36 26.1121 1764.67 32.0264 Q1770.02 37.9003 1770.02 48.0275 M1762.56 45.84 Q1762.48 39.7232 1759.12 36.0774 Q1755.8 32.4315 1750.29 32.4315 Q1744.05 32.4315 1740.28 35.9558 Q1736.56 39.4801 1735.99 45.8805 L1762.56 45.84 Z" fill="#000000" fill-rule="nonzero" fill-opacity="1"></path><path clip-path="url(#clip750)" d="M1802.87 49.7694 Q1793.84 49.7694 1790.35 51.8354 Q1786.87 53.9013 1786.87 58.8839 Q1786.87 62.8538 1789.46 65.2034 Q1792.09 67.5124 1796.59 67.5124 Q1802.79 67.5124 1806.51 63.1374 Q1810.28 58.7219 1810.28 51.4303 L1810.28 49.7694 L1802.87 49.7694 M1817.74 46.6907 L1817.74 72.576 L1810.28 72.576 L1810.28 65.6895 Q1807.73 69.8214 1803.92 71.8063 Q1800.11 73.7508 1794.6 73.7508 Q1787.64 73.7508 1783.51 69.8619 Q1779.41 65.9325 1779.41 59.3701 Q1779.41 51.7138 1784.52 47.825 Q1789.66 43.9361 1799.83 43.9361 L1810.28 43.9361 L1810.28 43.2069 Q1810.28 38.0623 1806.88 35.2672 Q1803.52 32.4315 1797.4 32.4315 Q1793.51 32.4315 1789.82 33.3632 Q1786.14 34.295 1782.74 36.1584 L1782.74 29.2718 Q1786.83 27.692 1790.68 26.9223 Q1794.52 26.1121 1798.17 26.1121 Q1808.01 26.1121 1812.87 31.2163 Q1817.74 36.3204 1817.74 46.6907 Z" fill="#000000" fill-rule="nonzero" fill-opacity="1"></path><path clip-path="url(#clip750)" d="M1865.74 28.9478 L1865.74 35.9153 Q1862.58 34.1734 1859.38 33.3227 Q1856.22 32.4315 1852.98 32.4315 Q1845.73 32.4315 1841.72 37.0496 Q1837.71 41.6271 1837.71 49.9314 Q1837.71 58.2358 1841.72 62.8538 Q1845.73 67.4314 1852.98 67.4314 Q1856.22 67.4314 1859.38 66.5807 Q1862.58 65.6895 1865.74 63.9476 L1865.74 70.8341 Q1862.62 72.2924 1859.26 73.0216 Q1855.94 73.7508 1852.17 73.7508 Q1841.92 73.7508 1835.88 67.3098 Q1829.85 60.8689 1829.85 49.9314 Q1829.85 38.832 1835.92 32.472 Q1842.04 26.1121 1852.65 26.1121 Q1856.1 26.1121 1859.38 26.8413 Q1862.66 27.5299 1865.74 28.9478 Z" fill="#000000" fill-rule="nonzero" fill-opacity="1"></path><path clip-path="url(#clip750)" d="M1916.42 45.1919 L1916.42 72.576 L1908.96 72.576 L1908.96 45.4349 Q1908.96 38.994 1906.45 35.7938 Q1903.94 32.5936 1898.92 32.5936 Q1892.88 32.5936 1889.4 36.4419 Q1885.91 40.2903 1885.91 46.9338 L1885.91 72.576 L1878.42 72.576 L1878.42 9.54393 L1885.91 9.54393 L1885.91 34.2544 Q1888.59 30.163 1892.19 28.1376 Q1895.84 26.1121 1900.58 26.1121 Q1908.39 26.1121 1912.41 30.9732 Q1916.42 35.7938 1916.42 45.1919 Z" fill="#000000" fill-rule="nonzero" fill-opacity="1"></path><path clip-path="url(#clip750)" d="M1931.28 27.2059 L1938.74 27.2059 L1938.74 72.576 L1931.28 72.576 L1931.28 27.2059 M1931.28 9.54393 L1938.74 9.54393 L1938.74 18.9825 L1931.28 18.9825 L1931.28 9.54393 Z" fill="#000000" fill-rule="nonzero" fill-opacity="1"></path><path clip-path="url(#clip750)" d="M1992.05 45.1919 L1992.05 72.576 L1984.59 72.576 L1984.59 45.4349 Q1984.59 38.994 1982.08 35.7938 Q1979.57 32.5936 1974.55 32.5936 Q1968.51 32.5936 1965.03 36.4419 Q1961.54 40.2903 1961.54 46.9338 L1961.54 72.576 L1954.05 72.576 L1954.05 27.2059 L1961.54 27.2059 L1961.54 34.2544 Q1964.22 30.163 1967.82 28.1376 Q1971.47 26.1121 1976.21 26.1121 Q1984.03 26.1121 1988.04 30.9732 Q1992.05 35.7938 1992.05 45.1919 Z" fill="#000000" fill-rule="nonzero" fill-opacity="1"></path><path clip-path="url(#clip750)" d="M2036.77 49.3643 Q2036.77 41.2625 2033.41 36.8065 Q2030.08 32.3505 2024.05 32.3505 Q2018.05 32.3505 2014.69 36.8065 Q2011.37 41.2625 2011.37 49.3643 Q2011.37 57.4256 2014.69 61.8816 Q2018.05 66.3376 2024.05 66.3376 Q2030.08 66.3376 2033.41 61.8816 Q2036.77 57.4256 2036.77 49.3643 M2044.22 66.9452 Q2044.22 78.5308 2039.08 84.1616 Q2033.93 89.8329 2023.32 89.8329 Q2019.39 89.8329 2015.91 89.2252 Q2012.42 88.6581 2009.14 87.4428 L2009.14 80.1917 Q2012.42 81.9741 2015.62 82.8248 Q2018.82 83.6755 2022.14 83.6755 Q2029.48 83.6755 2033.12 79.8271 Q2036.77 76.0193 2036.77 68.282 L2036.77 64.5957 Q2034.46 68.6061 2030.85 70.5911 Q2027.25 72.576 2022.23 72.576 Q2013.88 72.576 2008.78 66.2161 Q2003.67 59.8562 2003.67 49.3643 Q2003.67 38.832 2008.78 32.472 Q2013.88 26.1121 2022.23 26.1121 Q2027.25 26.1121 2030.85 28.0971 Q2034.46 30.082 2036.77 34.0924 L2036.77 27.2059 L2044.22 27.2059 L2044.22 66.9452 Z" fill="#000000" fill-rule="nonzero" fill-opacity="1"></path><polyline clip-path="url(#clip752)" style="stroke:#0000ff; stroke-linecap:round; stroke-linejoin:round; stroke-width:10; stroke-opacity:1; fill:none" points="335.981,161.965 630.694,164.485 803.091,169.792 925.408,176.318 1020.28,185.455 1097.8,194.83 1163.35,205.718 1220.12,216.002 1270.2,228.727 1315,241.487 1355.52,251.315 1392.52,263.381 1426.55,274.966 1458.06,283.948 1487.39,294.406 1514.83,304.938 1540.61,314.578 1564.91,324.269 1587.9,334.749 1609.71,344.702 1630.46,353.482 1650.24,362.132 1669.14,372.647 1687.23,383.851 1704.59,394.332 1721.26,403.39 1737.31,412.958 1752.77,423.611 1767.69,434.364 1782.11,445.25 1796.05,455.255 1809.55,464.204 1822.63,475.518 1835.32,486.679 1847.65,497.138 1859.63,508.433 1871.28,519.152 1882.62,528.724 1893.66,540.611 1904.42,552.27 1914.92,563.256 1925.17,574.493 1935.17,585.652 1944.95,595.204 1954.5,605.515 1963.85,617.242 1972.99,628.907 1981.94,641.122 1990.71,652.97 1999.3,664.173 2007.72,674.458 2015.98,685.067 2024.08,697.029 2032.02,708.36 2039.83,720.345 2047.49,732.021 2055.01,743.192 2062.41,754.777 2069.68,764.76 2076.82,775.789 2083.85,787.738 2090.76,799.851 2097.57,811.626 2104.26,823.787 2110.85,834.742 2117.35,845.32 2123.74,855.099 2130.04,864.872 2136.25,876.436 2142.36,888.398 2148.39,900.14 2154.34,912.141 2160.21,923.954 2165.99,935.631 2171.7,947.138 2177.33,957.776 2182.89,967.684 2188.37,977.197 2193.79,987.939 2199.14,999.224 2204.42,1010.27 2209.64,1021.67 2214.79,1032.99 2219.88,1043.94 2224.91,1054.05 2229.89,1063.42 2234.8,1072.59 2239.66,1082.43 2244.47,1093.32 2249.22,1103.63 2253.92,1114.19 2258.56,1124.3 2263.16,1134.4 2267.71,1144.42 2272.21,1154.65 2276.66,1164.67 2281.06,1173.78 2285.43,1182.45 2289.74,1192.2 2294.01,1202.83 "></polyline>
<path clip-path="url(#clip752)" d="M335.981 164.908 L630.694 173.6 L803.091 186.516 L925.408 201.359 L1020.28 218.793 L1097.8 235.863 L1163.35 254.769 L1220.12 272.547 L1270.2 292.36 L1315 310.874 L1355.52 325.854 L1392.52 342.753 L1426.55 358.825 L1458.06 372.636 L1487.39 388.732 L1514.83 404.194 L1540.61 418.648 L1564.91 432.405 L1587.9 446.992 L1609.71 461.226 L1630.46 474.555 L1650.24 486.342 L1669.14 500.718 L1687.23 514.949 L1704.59 527.708 L1721.26 539.792 L1737.31 552.133 L1752.77 566.563 L1767.69 581.637 L1782.11 593.809 L1796.05 605.209 L1809.55 615.951 L1822.63 630.741 L1835.32 644.369 L1847.65 658.135 L1859.63 670.998 L1871.28 684.695 L1882.62 696.699 L1893.66 711.453 L1904.42 724.747 L1914.92 738.455 L1925.17 751.963 L1935.17 765.199 L1944.95 776.885 L1954.5 789.477 L1963.85 803.197 L1972.99 816.74 L1981.94 830.11 L1990.71 842.913 L1999.3 854.953 L2007.72 865.855 L2015.98 876.959 L2024.08 889.55 L2032.02 901.998 L2039.83 915.47 L2047.49 927.595 L2055.01 939.591 L2062.41 951.248 L2069.68 961.836 L2076.82 972.776 L2083.85 984.914 L2090.76 997.782 L2097.57 1010.53 L2104.26 1023.15 L2110.85 1035.58 L2117.35 1047.49 L2123.74 1059.4 L2130.04 1070.59 L2136.25 1082.91 L2142.36 1095.69 L2148.39 1108.36 L2154.34 1120.92 L2160.21 1133.82 L2165.99 1148.33 L2171.7 1160.06 L2177.33 1170.9 L2182.89 1181.07 L2188.37 1191.64 L2193.79 1203.7 L2199.14 1216.93 L2204.42 1228.21 L2209.64 1241.66 L2214.79 1254.98 L2219.88 1266.1 L2224.91 1277.14 L2229.89 1287.13 L2234.8 1296.66 L2239.66 1306.52 L2244.47 1317.29 L2249.22 1328 L2253.92 1338.63 L2258.56 1349.19 L2263.16 1360.15 L2267.71 1373.32 L2272.21 1385.77 L2276.66 1396.28 L2281.06 1405.58 L2285.43 1416.55 L2289.74 1427.74 L2294.01 1439.48 L2294.01 891.447 L2289.74 880.018 L2285.43 870.74 L2281.06 862.244 L2276.66 853.695 L2272.21 843.77 L2267.71 833.638 L2263.16 823.442 L2258.56 813.179 L2253.92 802.85 L2249.22 792.314 L2244.47 781.534 L2239.66 770.681 L2234.8 761.277 L2229.89 752.426 L2224.91 743.067 L2219.88 732.555 L2214.79 722.011 L2209.64 711.962 L2204.42 700.884 L2199.14 689.739 L2193.79 678.835 L2188.37 667.848 L2182.89 658.344 L2177.33 649.546 L2171.7 639.875 L2165.99 629.017 L2160.21 618.071 L2154.34 607.034 L2148.39 595.905 L2142.36 584.287 L2136.25 572.466 L2130.04 561.426 L2123.74 552.227 L2117.35 543.472 L2110.85 533.673 L2104.26 523.783 L2097.57 513.334 L2090.76 502.722 L2083.85 492.017 L2076.82 481.641 L2069.68 472.963 L2062.41 464.776 L2055.01 455.249 L2047.49 445.416 L2039.83 435.627 L2032.02 425.789 L2024.08 415.841 L2015.98 405.779 L2007.72 397.576 L1999.3 390.17 L1990.71 381.307 L1981.94 372.612 L1972.99 363.869 L1963.85 355.015 L1954.5 346.044 L1944.95 338.889 L1935.17 332.697 L1925.17 325.712 L1914.92 316.994 L1904.42 308.002 L1893.66 299.718 L1882.62 291.235 L1871.28 285.374 L1859.63 279.376 L1847.65 273.562 L1835.32 265.868 L1822.63 258.391 L1809.55 251.142 L1796.05 247.322 L1782.11 242.029 L1767.69 236.904 L1752.77 231.493 L1737.31 225.413 L1721.26 221.447 L1704.59 218.724 L1687.23 215.406 L1669.14 211.701 L1650.24 207.403 L1630.46 205.231 L1609.71 202.719 L1587.9 199.068 L1564.91 195.341 L1540.61 192.936 L1514.83 191.199 L1487.39 188.322 L1458.06 184.907 L1426.55 183.23 L1392.52 179.918 L1355.52 176.01 L1315 173.913 L1270.2 170.857 L1220.12 168.067 L1163.35 166.545 L1097.8 164.637 L1020.28 163.231 L925.408 162.234 L803.091 161.955 L630.694 161.802 L335.981 161.802  Z" fill="#0000ff" fill-rule="evenodd" fill-opacity="0.35"></path>
<polyline clip-path="url(#clip752)" style="stroke:#0000ff; stroke-linecap:round; stroke-linejoin:round; stroke-width:4; stroke-opacity:0.35; fill:none" points="335.981,164.908 630.694,173.6 803.091,186.516 925.408,201.359 1020.28,218.793 1097.8,235.863 1163.35,254.769 1220.12,272.547 1270.2,292.36 1315,310.874 1355.52,325.854 1392.52,342.753 1426.55,358.825 1458.06,372.636 1487.39,388.732 1514.83,404.194 1540.61,418.648 1564.91,432.405 1587.9,446.992 1609.71,461.226 1630.46,474.555 1650.24,486.342 1669.14,500.718 1687.23,514.949 1704.59,527.708 1721.26,539.792 1737.31,552.133 1752.77,566.563 1767.69,581.637 1782.11,593.809 1796.05,605.209 1809.55,615.951 1822.63,630.741 1835.32,644.369 1847.65,658.135 1859.63,670.998 1871.28,684.695 1882.62,696.699 1893.66,711.453 1904.42,724.747 1914.92,738.455 1925.17,751.963 1935.17,765.199 1944.95,776.885 1954.5,789.477 1963.85,803.197 1972.99,816.74 1981.94,830.11 1990.71,842.913 1999.3,854.953 2007.72,865.855 2015.98,876.959 2024.08,889.55 2032.02,901.998 2039.83,915.47 2047.49,927.595 2055.01,939.591 2062.41,951.248 2069.68,961.836 2076.82,972.776 2083.85,984.914 2090.76,997.782 2097.57,1010.53 2104.26,1023.15 2110.85,1035.58 2117.35,1047.49 2123.74,1059.4 2130.04,1070.59 2136.25,1082.91 2142.36,1095.69 2148.39,1108.36 2154.34,1120.92 2160.21,1133.82 2165.99,1148.33 2171.7,1160.06 2177.33,1170.9 2182.89,1181.07 2188.37,1191.64 2193.79,1203.7 2199.14,1216.93 2204.42,1228.21 2209.64,1241.66 2214.79,1254.98 2219.88,1266.1 2224.91,1277.14 2229.89,1287.13 2234.8,1296.66 2239.66,1306.52 2244.47,1317.29 2249.22,1328 2253.92,1338.63 2258.56,1349.19 2263.16,1360.15 2267.71,1373.32 2272.21,1385.77 2276.66,1396.28 2281.06,1405.58 2285.43,1416.55 2289.74,1427.74 2294.01,1439.48 "></polyline>
<polyline clip-path="url(#clip752)" style="stroke:#000000; stroke-linecap:round; stroke-linejoin:round; stroke-width:8; stroke-opacity:1; fill:none" stroke-dasharray="32, 20" points="335.981,161.802 630.694,161.802 803.091,161.802 925.408,161.802 1020.28,161.802 1097.8,161.802 1163.35,161.802 1220.12,161.802 1270.2,161.802 1315,161.802 1355.52,161.802 1392.52,161.802 1426.55,161.802 1458.06,161.802 1487.39,161.802 1514.83,161.802 1540.61,161.802 1564.91,161.802 1587.9,161.802 1609.71,161.802 1630.46,161.802 1650.24,161.802 1669.14,161.802 1687.23,161.802 1704.59,161.802 1721.26,161.802 1737.31,161.802 1752.77,161.802 1767.69,161.802 1782.11,161.802 1796.05,161.802 1809.55,161.802 1822.63,161.802 1835.32,161.802 1847.65,161.802 1859.63,161.802 1871.28,161.802 1882.62,161.802 1893.66,161.802 1904.42,161.802 1914.92,161.802 1925.17,161.802 1935.17,161.802 1944.95,161.802 1954.5,161.802 1963.85,161.802 1972.99,161.802 1981.94,161.802 1990.71,161.802 1999.3,161.802 2007.72,161.802 2015.98,161.802 2024.08,161.802 2032.02,161.802 2039.83,161.802 2047.49,161.802 2055.01,161.802 2062.41,161.802 2069.68,161.802 2076.82,161.802 2083.85,161.802 2090.76,161.802 2097.57,161.802 2104.26,161.802 2110.85,161.802 2117.35,161.802 2123.74,161.802 2130.04,161.802 2136.25,161.802 2142.36,161.802 2148.39,161.802 2154.34,161.802 2160.21,161.802 2165.99,161.802 2171.7,161.802 2177.33,161.802 2182.89,161.802 2188.37,161.802 2193.79,161.802 2199.14,161.802 2204.42,161.802 2209.64,161.802 2214.79,161.802 2219.88,161.802 2224.91,161.802 2229.89,161.802 2234.8,161.802 2239.66,161.802 2244.47,161.802 2249.22,161.802 2253.92,161.802 2258.56,161.802 2263.16,161.802 2267.71,161.802 2272.21,161.802 2276.66,161.802 2281.06,161.802 2285.43,161.802 2289.74,161.802 2294.01,161.802 "></polyline>
</svg>