<svg xmlns="http://www.w3.org/2000/svg" xmlns:xlink="http://www.w3.org/1999/xlink" width="600" height="400" viewBox="0 0 2400 1600">
<defs>
  <clipPath id="clip710">
    <rect x="0" y="0" width="2400" height="1600"></rect>
  </clipPath>
</defs>
<path clip-path="url(#clip710)" d="M0 1600 L2400 1600 L2400 0 L0 0  Z" fill="#ffffff" fill-rule="evenodd" fill-opacity="1"></path>
<defs>
  <clipPath id="clip711">
    <rect x="480" y="0" width="1681" height="1600"></rect>
  </clipPath>
</defs>
<path clip-path="url(#clip710)" d="M277.24 1477.81 L2352.76 1477.81 L2352.76 123.472 L277.24 123.472  Z" fill="#ffffff" fill-rule="evenodd" fill-opacity="1"></path>
<defs>
  <clipPath id="clip712">
    <rect x="277" y="123" width="2077" height="1355"></rect>
  </clipPath>
</defs>
<polyline clip-path="url(#clip712)" style="stroke:#000000; stroke-linecap:round; stroke-linejoin:round; stroke-width:2; stroke-opacity:0.1; fill:none" points="335.981,1477.81 335.981,123.472 "></polyline>
<polyline clip-path="url(#clip712)" style="stroke:#000000; stroke-linecap:round; stroke-linejoin:round; stroke-width:2; stroke-opacity:0.1; fill:none" points="1315,1477.81 1315,123.472 "></polyline>
<polyline clip-path="url(#clip712)" style="stroke:#000000; stroke-linecap:round; stroke-linejoin:round; stroke-width:2; stroke-opacity:0.1; fill:none" points="2294.01,1477.81 2294.01,123.472 "></polyline>
<polyline clip-path="url(#clip710)" style="stroke:#000000; stroke-linecap:round; stroke-linejoin:round; stroke-width:4; stroke-opacity:1; fill:none" points="277.24,1477.81 2352.76,1477.81 "></polyline>
<polyline clip-path="url(#clip710)" style="stroke:#000000; stroke-linecap:round; stroke-linejoin:round; stroke-width:4; stroke-opacity:1; fill:none" points="335.981,1477.81 335.981,1458.91 "></polyline>
<polyline clip-path="url(#clip710)" style="stroke:#000000; stroke-linecap:round; stroke-linejoin:round; stroke-width:4; stroke-opacity:1; fill:none" points="1315,1477.81 1315,1458.91 "></polyline>
<polyline clip-path="url(#clip710)" style="stroke:#000000; stroke-linecap:round; stroke-linejoin:round; stroke-width:4; stroke-opacity:1; fill:none" points="2294.01,1477.81 2294.01,1458.91 "></polyline>
<path clip-path="url(#clip710)" d="M304.341 1546.09 L313.889 1546.09 L313.889 1513.13 L303.501 1515.22 L303.501 1509.89 L313.831 1507.81 L319.676 1507.81 L319.676 1546.09 L329.225 1546.09 L329.225 1551.01 L304.341 1551.01 L304.341 1546.09 Z" fill="#000000" fill-rule="nonzero" fill-opacity="1"></path><path clip-path="url(#clip710)" d="M353.53 1511.66 Q349.016 1511.66 346.73 1516.11 Q344.473 1520.54 344.473 1529.45 Q344.473 1538.33 346.73 1542.79 Q349.016 1547.22 353.53 1547.22 Q358.073 1547.22 360.33 1542.79 Q362.616 1538.33 362.616 1529.45 Q362.616 1520.54 360.33 1516.11 Q358.073 1511.66 353.53 1511.66 M353.53 1507.03 Q360.793 1507.03 364.612 1512.78 Q368.461 1518.51 368.461 1529.45 Q368.461 1540.36 364.612 1546.12 Q360.793 1551.85 353.53 1551.85 Q346.267 1551.85 342.419 1546.12 Q338.6 1540.36 338.6 1529.45 Q338.6 1518.51 342.419 1512.78 Q346.267 1507.03 353.53 1507.03 Z" fill="#000000" fill-rule="nonzero" fill-opacity="1"></path><path clip-path="url(#clip710)" d="M1264.51 1546.09 L1274.05 1546.09 L1274.05 1513.13 L1263.67 1515.22 L1263.67 1509.89 L1274 1507.81 L1279.84 1507.81 L1279.84 1546.09 L1289.39 1546.09 L1289.39 1551.01 L1264.51 1551.01 L1264.51 1546.09 Z" fill="#000000" fill-rule="nonzero" fill-opacity="1"></path><path clip-path="url(#clip710)" d="M1313.7 1511.66 Q1309.18 1511.66 1306.9 1516.11 Q1304.64 1520.54 1304.64 1529.45 Q1304.64 1538.33 1306.9 1542.79 Q1309.18 1547.22 1313.7 1547.22 Q1318.24 1547.22 1320.5 1542.79 Q1322.78 1538.33 1322.78 1529.45 Q1322.78 1520.54 1320.5 1516.11 Q1318.24 1511.66 1313.7 1511.66 M1313.7 1507.03 Q1320.96 1507.03 1324.78 1512.78 Q1328.63 1518.51 1328.63 1529.45 Q1328.63 1540.36 1324.78 1546.12 Q1320.96 1551.85 1313.7 1551.85 Q1306.43 1551.85 1302.58 1546.12 Q1298.77 1540.36 1298.77 1529.45 Q1298.77 1518.51 1302.58 1512.78 Q1306.43 1507.03 1313.7 1507.03 Z" fill="#000000" fill-rule="nonzero" fill-opacity="1"></path><path clip-path="url(#clip710)" d="M1351.4 1511.66 Q1346.88 1511.66 1344.6 1516.11 Q1342.34 1520.54 1342.34 1529.45 Q1342.34 1538.33 1344.6 1542.79 Q1346.88 1547.22 1351.4 1547.22 Q1355.94 1547.22 1358.2 1542.79 Q1360.48 1538.33 1360.48 1529.45 Q1360.48 1520.54 1358.2 1516.11 Q1355.94 1511.66 1351.4 1511.66 M1351.4 1507.03 Q1358.66 1507.03 1362.48 1512.78 Q1366.33 1518.51 1366.33 1529.45 Q1366.33 1540.36 1362.48 1546.12 Q1358.66 1551.85 1351.4 1551.85 Q1344.14 1551.85 1340.29 1546.12 Q1336.47 1540.36 1336.47 1529.45 Q1336.47 1518.51 1340.29 1512.78 Q1344.14 1507.03 1351.4 1507.03 Z" fill="#000000" fill-rule="nonzero" fill-opacity="1"></path><path clip-path="url(#clip710)" d="M2224.67 1546.09 L2234.22 1546.09 L2234.22 1513.13 L2223.83 1515.22 L2223.83 1509.89 L2234.16 1507.81 L2240.01 1507.81 L2240.01 1546.09 L2249.56 1546.09 L2249.56 1551.01 L2224.67 1551.01 L2224.67 1546.09 Z" fill="#000000" fill-rule="nonzero" fill-opacity="1"></path><path clip-path="url(#clip710)" d="M2273.86 1511.66 Q2269.35 1511.66 2267.06 1516.11 Q2264.8 1520.54 2264.8 1529.45 Q2264.8 1538.33 2267.06 1542.79 Q2269.35 1547.22 2273.86 1547.22 Q2278.4 1547.22 2280.66 1542.79 Q2282.95 1538.33 2282.95 1529.45 Q2282.95 1520.54 2280.66 1516.11 Q2278.4 1511.66 2273.86 1511.66 M2273.86 1507.03 Q2281.12 1507.03 2284.94 1512.78 Q2288.79 1518.51 2288.79 1529.45 Q2288.79 1540.36 2284.94 1546.12 Q2281.12 1551.85 2273.86 1551.85 Q2266.6 1551.85 2262.75 1546.12 Q2258.93 1540.36 2258.93 1529.45 Q2258.93 1518.51 2262.75 1512.78 Q2266.6 1507.03 2273.86 1507.03 Z" fill="#000000" fill-rule="nonzero" fill-opacity="1"></path><path clip-path="url(#clip710)" d="M2311.56 1511.66 Q2307.05 1511.66 2304.76 1516.11 Q2302.51 1520.54 2302.51 1529.45 Q2302.51 1538.33 2304.76 1542.79 Q2307.05 1547.22 2311.56 1547.22 Q2316.11 1547.22 2318.36 1542.79 Q2320.65 1538.33 2320.65 1529.45 Q2320.65 1520.54 2318.36 1516.11 Q2316.11 1511.66 2311.56 1511.66 M2311.56 1507.03 Q2318.83 1507.03 2322.65 1512.78 Q2326.49 1518.51 2326.49 1529.45 Q2326.49 1540.36 2322.65 1546.12 Q2318.83 1551.85 2311.56 1551.85 Q2304.3 1551.85 2300.45 1546.12 Q2296.63 1540.36 2296.63 1529.45 Q2296.63 1518.51 2300.45 1512.78 Q2304.3 1507.03 2311.56 1507.03 Z" fill="#000000" fill-rule="nonzero" fill-opacity="1"></path><path clip-path="url(#clip710)" d="M2349.27 1511.66 Q2344.75 1511.66 2342.47 1516.11 Q2340.21 1520.54 2340.21 1529.45 Q2340.21 1538.33 2342.47 1542.79 Q2344.75 1547.22 2349.27 1547.22 Q2353.81 1547.22 2356.07 1542.79 Q2358.35 1538.33 2358.35 1529.45 Q2358.35 1520.54 2356.07 1516.11 Q2353.81 1511.66 2349.27 1511.66 M2349.27 1507.03 Q2356.53 1507.03 2360.35 1512.78 Q2364.2 1518.51 2364.2 1529.45 Q2364.2 1540.36 2360.35 1546.12 Q2356.53 1551.85 2349.27 1551.85 Q2342 1551.85 2338.16 1546.12 Q2334.34 1540.36 2334.34 1529.45 Q2334.34 1518.51 2338.16 1512.78 Q2342 1507.03 2349.27 1507.03 Z" fill="#000000" fill-rule="nonzero" fill-opacity="1"></path><polyline clip-path="url(#clip712)" style="stroke:#000000; stroke-linecap:round; stroke-linejoin:round; stroke-width:2; stroke-opacity:0.1; fill:none" points="277.24,1223.53 2352.76,1223.53 "></polyline>
<polyline clip-path="url(#clip712)" style="stroke:#000000; stroke-linecap:round; stroke-linejoin:round; stroke-width:2; stroke-opacity:0.1; fill:none" points="277.24,958.097 2352.76,958.097 "></polyline>
<polyline clip-path="url(#clip712)" style="stroke:#000000; stroke-linecap:round; stroke-linejoin:round; stroke-width:2; stroke-opacity:0.1; fill:none" points="277.24,692.666 2352.76,692.666 "></polyline>
<polyline clip-path="url(#clip712)" style="stroke:#000000; stroke-linecap:round; stroke-linejoin:round; stroke-width:2; stroke-opacity:0.1; fill:none" points="277.24,427.234 2352.76,427.234 "></polyline>
<polyline clip-path="url(#clip712)" style="stroke:#000000; stroke-linecap:round; stroke-linejoin:round; stroke-width:2; stroke-opacity:0.1; fill:none" points="277.24,161.802 2352.76,161.802 "></polyline>
<polyline clip-path="url(#clip710)" style="stroke:#000000; stroke-linecap:round; stroke-linejoin:round; stroke-width:4; stroke-opacity:1; fill:none" points="277.24,1477.81 277.24,123.472 "></polyline>
<polyline clip-path="url(#clip710)" style="stroke:#000000; stroke-linecap:round; stroke-linejoin:round; stroke-width:4; stroke-opacity:1; fill:none" points="277.24,1223.53 296.138,1223.53 "></polyline>
<polyline clip-path="url(#clip710)" style="stroke:#000000; stroke-linecap:round; stroke-linejoin:round; stroke-width:4; stroke-opacity:1; fill:none" points="277.24,958.097 296.138,958.097 "></polyline>
<polyline clip-path="url(#clip710)" style="stroke:#000000; stroke-linecap:round; stroke-linejoin:round; stroke-width:4; stroke-opacity:1; fill:none" points="277.24,692.666 296.138,692.666 "></polyline>
<polyline clip-path="url(#clip710)" style="stroke:#000000; stroke-linecap:round; stroke-linejoin:round; stroke-width:4; stroke-opacity:1; fill:none" points="277.24,427.234 296.138,427.234 "></polyline>
<polyline clip-path="url(#clip710)" style="stroke:#000000; stroke-linecap:round; stroke-linejoin:round; stroke-width:4; stroke-opacity:1; fill:none" points="277.24,161.802 296.138,161.802 "></polyline>
<path clip-path="url(#clip710)" d="M50.9921 1224.09 L88.0868 1224.09 L88.0868 1229.01 L50.9921 1229.01 L50.9921 1224.09 Z" fill="#000000" fill-rule="nonzero" fill-opacity="1"></path><path clip-path="url(#clip710)" d="M116.761 1207.02 L102.005 1230.08 L116.761 1230.08 L116.761 1207.02 M115.228 1201.93 L122.577 1201.93 L122.577 1230.08 L128.741 1230.08 L128.741 1234.94 L122.577 1234.94 L122.577 1245.13 L116.761 1245.13 L116.761 1234.94 L97.2592 1234.94 L97.2592 1229.3 L115.228 1201.93 Z" fill="#000000" fill-rule="nonzero" fill-opacity="1"></path><path clip-path="url(#clip710)" d="M150.905 1205.78 Q146.391 1205.78 144.105 1210.23 Q141.848 1214.66 141.848 1223.57 Q141.848 1232.46 144.105 1236.91 Q146.391 1241.34 150.905 1241.34 Q155.448 1241.34 157.705 1236.91 Q159.99 1232.46 159.99 1223.57 Q159.99 1214.66 157.705 1210.23 Q155.448 1205.78 150.905 1205.78 M150.905 1201.15 Q158.167 1201.15 161.987 1206.91 Q165.835 1212.63 165.835 1223.57 Q165.835 1234.48 161.987 1240.24 Q158.167 1245.97 150.905 1245.97 Q143.642 1245.97 139.794 1240.24 Q135.974 1234.48 135.974 1223.57 Q135.974 1212.63 139.794 1206.91 Q143.642 1201.15 150.905 1201.15 Z" fill="#000000" fill-rule="nonzero" fill-opacity="1"></path><path clip-path="url(#clip710)" d="M188.607 1205.78 Q184.093 1205.78 181.807 1210.23 Q179.55 1214.66 179.55 1223.57 Q179.55 1232.46 181.807 1236.91 Q184.093 1241.34 188.607 1241.34 Q193.15 1241.34 195.407 1236.91 Q197.693 1232.46 197.693 1223.57 Q197.693 1214.66 195.407 1210.23 Q193.15 1205.78 188.607 1205.78 M188.607 1201.15 Q195.87 1201.15 199.689 1206.91 Q203.538 1212.63 203.538 1223.57 Q203.538 1234.48 199.689 1240.24 Q195.87 1245.97 188.607 1245.97 Q181.344 1245.97 177.496 1240.24 Q173.677 1234.48 173.677 1223.57 Q173.677 1212.63 177.496 1206.91 Q181.344 1201.15 188.607 1201.15 Z" fill="#000000" fill-rule="nonzero" fill-opacity="1"></path><path clip-path="url(#clip710)" d="M226.309 1205.78 Q221.796 1205.78 219.51 1210.23 Q217.253 1214.66 217.253 1223.57 Q217.253 1232.46 219.51 1236.91 Q221.796 1241.34 226.309 1241.34 Q230.852 1241.34 233.109 1236.91 Q235.395 1232.46 235.395 1223.57 Q235.395 1214.66 233.109 1210.23 Q230.852 1205.78 226.309 1205.78 M226.309 1201.15 Q233.572 1201.15 237.392 1206.91 Q241.24 1212.63 241.24 1223.57 Q241.24 1234.48 237.392 1240.24 Q233.572 1245.97 226.309 1245.97 Q219.047 1245.97 215.198 1240.24 Q211.379 1234.48 211.379 1223.57 Q211.379 1212.63 215.198 1206.91 Q219.047 1201.15 226.309 1201.15 Z" fill="#000000" fill-rule="nonzero" fill-opacity="1"></path><path clip-path="url(#clip710)" d="M50.9921 958.661 L88.0868 958.661 L88.0868 963.58 L50.9921 963.58 L50.9921 958.661 Z" fill="#000000" fill-rule="nonzero" fill-opacity="1"></path><path clip-path="url(#clip710)" d="M118.411 956.404 Q122.606 957.301 124.95 960.137 Q127.323 962.973 127.323 967.139 Q127.323 973.534 122.925 977.035 Q118.526 980.536 110.425 980.536 Q107.705 980.536 104.811 979.986 Q101.947 979.466 98.8796 978.395 L98.8796 972.753 Q101.31 974.171 104.204 974.894 Q107.097 975.617 110.251 975.617 Q115.749 975.617 118.613 973.447 Q121.507 971.277 121.507 967.139 Q121.507 963.32 118.816 961.179 Q116.154 959.009 111.38 959.009 L106.345 959.009 L106.345 954.205 L111.611 954.205 Q115.922 954.205 118.208 952.498 Q120.494 950.762 120.494 947.521 Q120.494 944.194 118.121 942.429 Q115.778 940.635 111.38 940.635 Q108.978 940.635 106.229 941.156 Q103.48 941.676 100.182 942.776 L100.182 937.568 Q103.509 936.642 106.403 936.179 Q109.325 935.716 111.9 935.716 Q118.555 935.716 122.433 938.754 Q126.31 941.763 126.31 946.914 Q126.31 950.502 124.256 952.99 Q122.201 955.45 118.411 956.404 Z" fill="#000000" fill-rule="nonzero" fill-opacity="1"></path><path clip-path="url(#clip710)" d="M150.905 940.345 Q146.391 940.345 144.105 944.801 Q141.848 949.229 141.848 958.141 Q141.848 967.024 144.105 971.48 Q146.391 975.907 150.905 975.907 Q155.448 975.907 157.705 971.48 Q159.99 967.024 159.99 958.141 Q159.99 949.229 157.705 944.801 Q155.448 940.345 150.905 940.345 M150.905 935.716 Q158.167 935.716 161.987 941.474 Q165.835 947.203 165.835 958.141 Q165.835 969.049 161.987 974.807 Q158.167 980.536 150.905 980.536 Q143.642 980.536 139.794 974.807 Q135.974 969.049 135.974 958.141 Q135.974 947.203 139.794 941.474 Q143.642 935.716 150.905 935.716 Z" fill="#000000" fill-rule="nonzero" fill-opacity="1"></path><path clip-path="url(#clip710)" d="M188.607 940.345 Q184.093 940.345 181.807 944.801 Q179.55 949.229 179.55 958.141 Q179.55 967.024 181.807 971.48 Q184.093 975.907 188.607 975.907 Q193.15 975.907 195.407 971.48 Q197.693 967.024 197.693 958.141 Q197.693 949.229 195.407 944.801 Q193.15 940.345 188.607 940.345 M188.607 935.716 Q195.87 935.716 199.689 941.474 Q203.538 947.203 203.538 958.141 Q203.538 969.049 199.689 974.807 Q195.87 980.536 188.607 980.536 Q181.344 980.536 177.496 974.807 Q173.677 969.049 173.677 958.141 Q173.677 947.203 177.496 941.474 Q181.344 935.716 188.607 935.716 Z" fill="#000000" fill-rule="nonzero" fill-opacity="1"></path><path clip-path="url(#clip710)" d="M226.309 940.345 Q221.796 940.345 219.51 944.801 Q217.253 949.229 217.253 958.141 Q217.253 967.024 219.51 971.48 Q221.796 975.907 226.309 975.907 Q230.852 975.907 233.109 971.48 Q235.395 967.024 235.395 958.141 Q235.395 949.229 233.109 944.801 Q230.852 940.345 226.309 940.345 M226.309 935.716 Q233.572 935.716 237.392 941.474 Q241.24 947.203 241.24 958.141 Q241.24 969.049 237.392 974.807 Q233.572 980.536 226.309 980.536 Q219.047 980.536 215.198 974.807 Q211.379 969.049 211.379 958.141 Q211.379 947.203 215.198 941.474 Q219.047 935.716 226.309 935.716 Z" fill="#000000" fill-rule="nonzero" fill-opacity="1"></path><path clip-path="url(#clip710)" d="M50.9921 693.23 L88.0868 693.23 L88.0868 698.149 L50.9921 698.149 L50.9921 693.23 Z" fill="#000000" fill-rule="nonzero" fill-opacity="1"></path><path clip-path="url(#clip710)" d="M105.737 709.347 L126.136 709.347 L126.136 714.266 L98.706 714.266 L98.706 709.347 Q102.034 705.903 107.763 700.116 Q113.521 694.3 114.996 692.622 Q117.803 689.468 118.903 687.298 Q120.031 685.099 120.031 682.987 Q120.031 679.543 117.601 677.373 Q115.199 675.203 111.322 675.203 Q108.573 675.203 105.506 676.158 Q102.468 677.113 98.9953 679.052 L98.9953 673.149 Q102.525 671.731 105.593 671.008 Q108.66 670.284 111.206 670.284 Q117.919 670.284 121.912 673.641 Q125.905 676.997 125.905 682.611 Q125.905 685.273 124.892 687.674 Q123.908 690.047 121.275 693.288 Q120.552 694.127 116.675 698.149 Q112.797 702.142 105.737 709.347 Z" fill="#000000" fill-rule="nonzero" fill-opacity="1"></path><path clip-path="url(#clip710)" d="M150.905 674.914 Q146.391 674.914 144.105 679.37 Q141.848 683.797 141.848 692.709 Q141.848 701.592 144.105 706.048 Q146.391 710.475 150.905 710.475 Q155.448 710.475 157.705 706.048 Q159.99 701.592 159.99 692.709 Q159.99 683.797 157.705 679.37 Q155.448 674.914 150.905 674.914 M150.905 670.284 Q158.167 670.284 161.987 676.042 Q165.835 681.771 165.835 692.709 Q165.835 703.617 161.987 709.376 Q158.167 715.105 150.905 715.105 Q143.642 715.105 139.794 709.376 Q135.974 703.617 135.974 692.709 Q135.974 681.771 139.794 676.042 Q143.642 670.284 150.905 670.284 Z" fill="#000000" fill-rule="nonzero" fill-opacity="1"></path><path clip-path="url(#clip710)" d="M188.607 674.914 Q184.093 674.914 181.807 679.37 Q179.55 683.797 179.55 692.709 Q179.55 701.592 181.807 706.048 Q184.093 710.475 188.607 710.475 Q193.15 710.475 195.407 706.048 Q197.693 701.592 197.693 692.709 Q197.693 683.797 195.407 679.37 Q193.15 674.914 188.607 674.914 M188.607 670.284 Q195.87 670.284 199.689 676.042 Q203.538 681.771 203.538 692.709 Q203.538 703.617 199.689 709.376 Q195.87 715.105 188.607 715.105 Q181.344 715.105 177.496 709.376 Q173.677 703.617 173.677 692.709 Q173.677 681.771 177.496 676.042 Q181.344 670.284 188.607 670.284 Z" fill="#000000" fill-rule="nonzero" fill-opacity="1"></path><path clip-path="url(#clip710)" d="M226.309 674.914 Q221.796 674.914 219.51 679.37 Q217.253 683.797 217.253 692.709 Q217.253 701.592 219.51 706.048 Q221.796 710.475 226.309 710.475 Q230.852 710.475 233.109 706.048 Q235.395 701.592 235.395 692.709 Q235.395 683.797 233.109 679.37 Q230.852 674.914 226.309 674.914 M226.309 670.284 Q233.572 670.284 237.392 676.042 Q241.24 681.771 241.24 692.709 Q241.24 703.617 237.392 709.376 Q233.572 715.105 226.309 715.105 Q219.047 715.105 215.198 709.376 Q211.379 703.617 211.379 692.709 Q211.379 681.771 215.198 676.042 Q219.047 670.284 226.309 670.284 Z" fill="#000000" fill-rule="nonzero" fill-opacity="1"></path><path clip-path="url(#clip710)" d="M50.9921 427.798 L88.0868 427.798 L88.0868 432.717 L50.9921 432.717 L50.9921 427.798 Z" fill="#000000" fill-rule="nonzero" fill-opacity="1"></path><path clip-path="url(#clip710)" d="M101.715 443.915 L111.264 443.915 L111.264 410.958 L100.876 413.041 L100.876 407.717 L111.206 405.634 L117.051 405.634 L117.051 443.915 L126.599 443.915 L126.599 448.834 L101.715 448.834 L101.715 443.915 Z" fill="#000000" fill-rule="nonzero" fill-opacity="1"></path><path clip-path="url(#clip710)" d="M150.905 409.482 Q146.391 409.482 144.105 413.938 Q141.848 418.365 141.848 427.277 Q141.848 436.16 144.105 440.616 Q146.391 445.043 150.905 445.043 Q155.448 445.043 157.705 440.616 Q159.99 436.16 159.99 427.277 Q159.99 418.365 157.705 413.938 Q155.448 409.482 150.905 409.482 M150.905 404.853 Q158.167 404.853 161.987 410.611 Q165.835 416.34 165.835 427.277 Q165.835 438.186 161.987 443.944 Q158.167 449.673 150.905 449.673 Q143.642 449.673 139.794 443.944 Q135.974 438.186 135.974 427.277 Q135.974 416.34 139.794 410.611 Q143.642 404.853 150.905 404.853 Z" fill="#000000" fill-rule="nonzero" fill-opacity="1"></path><path clip-path="url(#clip710)" d="M188.607 409.482 Q184.093 409.482 181.807 413.938 Q179.55 418.365 179.55 427.277 Q179.55 436.16 181.807 440.616 Q184.093 445.043 188.607 445.043 Q193.15 445.043 195.407 440.616 Q197.693 436.16 197.693 427.277 Q197.693 418.365 195.407 413.938 Q193.15 409.482 188.607 409.482 M188.607 404.853 Q195.87 404.853 199.689 410.611 Q203.538 416.34 203.538 427.277 Q203.538 438.186 199.689 443.944 Q195.87 449.673 188.607 449.673 Q181.344 449.673 177.496 443.944 Q173.677 438.186 173.677 427.277 Q173.677 416.34 177.496 410.611 Q181.344 404.853 188.607 404.853 Z" fill="#000000" fill-rule="nonzero" fill-opacity="1"></path><path clip-path="url(#clip710)" d="M226.309 409.482 Q221.796 409.482 219.51 413.938 Q217.253 418.365 217.253 427.277 Q217.253 436.16 219.51 440.616 Q221.796 445.043 226.309 445.043 Q230.852 445.043 233.109 440.616 Q235.395 436.16 235.395 427.277 Q235.395 418.365 233.109 413.938 Q230.852 409.482 226.309 409.482 M226.309 404.853 Q233.572 404.853 237.392 410.611 Q241.24 416.34 241.24 427.277 Q241.24 438.186 237.392 443.944 Q233.572 449.673 226.309 449.673 Q219.047 449.673 215.198 443.944 Q211.379 438.186 211.379 427.277 Q211.379 416.34 215.198 410.611 Q219.047 404.853 226.309 404.853 Z" fill="#000000" fill-rule="nonzero" fill-opacity="1"></path><path clip-path="url(#clip710)" d="M226.309 144.051 Q221.796 144.051 219.51 148.507 Q217.253 152.934 217.253 161.846 Q217.253 170.729 219.51 175.185 Q221.796 179.612 226.309 179.612 Q230.852 179.612 233.109 175.185 Q235.395 170.729 235.395 161.846 Q235.395 152.934 233.109 148.507 Q230.852 144.051 226.309 144.051 M226.309 139.421 Q233.572 139.421 237.392 145.179 Q241.24 150.908 241.24 161.846 Q241.24 172.754 237.392 178.512 Q233.572 184.241 226.309 184.241 Q219.047 184.241 215.198 178.512 Q211.379 172.754 211.379 161.846 Q211.379 150.908 215.198 145.179 Q219.047 139.421 226.309 139.421 Z" fill="#000000" fill-rule="nonzero" fill-opacity="1"></path><path clip-path="url(#clip710)" d="M634.061 44.2197 Q636.694 45.1109 639.165 48.0275 Q641.677 50.9442 644.188 56.0483 L652.493 72.576 L643.702 72.576 L635.965 57.061 Q632.967 50.9847 630.132 48.9997 Q627.337 47.0148 622.476 47.0148 L613.564 47.0148 L613.564 72.576 L605.381 72.576 L605.381 12.096 L623.853 12.096 Q634.223 12.096 639.327 16.4305 Q644.431 20.7649 644.431 29.5149 Q644.431 35.2267 641.758 38.994 Q639.125 42.7613 634.061 44.2197 M613.564 18.8205 L613.564 40.2903 L623.853 40.2903 Q629.767 40.2903 632.765 37.5762 Q635.803 34.8216 635.803 29.5149 Q635.803 24.2082 632.765 21.5346 Q629.767 18.8205 623.853 18.8205 L613.564 18.8205 Z" fill="#000000" fill-rule="nonzero" fill-opacity="1"></path><path clip-path="url(#clip710)" d="M662.701 27.2059 L670.155 27.2059 L670.155 72.576 L662.701 72.576 L662.701 27.2059 M662.701 9.54393 L670.155 9.54393 L670.155 18.9825 L662.701 18.9825 L662.701 9.54393 Z" fill="#000000" fill-rule="nonzero" fill-opacity="1"></path><path clip-path="url(#clip710)" d="M714.674 28.5427 L714.674 35.5912 Q711.514 33.9709 708.112 33.1607 Q704.709 32.3505 701.063 32.3505 Q695.513 32.3505 692.718 34.0519 Q689.964 35.7533 689.964 39.156 Q689.964 41.7486 691.949 43.2475 Q693.934 44.7058 699.929 46.0426 L702.481 46.6097 Q710.421 48.3111 713.742 51.4303 Q717.105 54.509 717.105 60.0587 Q717.105 66.3781 712.082 70.0644 Q707.099 73.7508 698.349 73.7508 Q694.703 73.7508 690.733 73.0216 Q686.804 72.3329 682.429 70.9151 L682.429 63.2184 Q686.561 65.3654 690.571 66.4591 Q694.582 67.5124 698.511 67.5124 Q703.777 67.5124 706.613 65.73 Q709.449 63.9071 709.449 60.6258 Q709.449 57.5877 707.383 55.9673 Q705.357 54.3469 698.43 52.8481 L695.837 52.2405 Q688.91 50.7821 685.832 47.7845 Q682.753 44.7463 682.753 39.4801 Q682.753 33.0797 687.29 29.5959 Q691.827 26.1121 700.172 26.1121 Q704.304 26.1121 707.95 26.7198 Q711.595 27.3274 714.674 28.5427 Z" fill="#000000" fill-rule="nonzero" fill-opacity="1"></path><path clip-path="url(#clip710)" d="M728.69 9.54393 L736.184 9.54393 L736.184 46.7717 L758.424 27.2059 L767.944 27.2059 L743.881 48.4326 L768.956 72.576 L759.234 72.576 L736.184 50.4176 L736.184 72.576 L728.69 72.576 L728.69 9.54393 Z" fill="#000000" fill-rule="nonzero" fill-opacity="1"></path><path clip-path="url(#clip710)" d="M832.312 28.5427 L832.312 35.5912 Q829.153 33.9709 825.75 33.1607 Q822.347 32.3505 818.701 32.3505 Q813.152 32.3505 810.357 34.0519 Q807.602 35.7533 807.602 39.156 Q807.602 41.7486 809.587 43.2475 Q811.572 44.7058 817.567 46.0426 L820.119 46.6097 Q828.059 48.3111 831.381 51.4303 Q834.743 54.509 834.743 60.0587 Q834.743 66.3781 829.72 70.0644 Q824.737 73.7508 815.987 73.7508 Q812.341 73.7508 808.372 73.0216 Q804.442 72.3329 800.067 70.9151 L800.067 63.2184 Q804.199 65.3654 808.21 66.4591 Q812.22 67.5124 816.149 67.5124 Q821.416 67.5124 824.251 65.73 Q827.087 63.9071 827.087 60.6258 Q827.087 57.5877 825.021 55.9673 Q822.995 54.3469 816.068 52.8481 L813.476 52.2405 Q806.549 50.7821 803.47 47.7845 Q800.391 44.7463 800.391 39.4801 Q800.391 33.0797 804.928 29.5959 Q809.465 26.1121 817.81 26.1121 Q821.942 26.1121 825.588 26.7198 Q829.234 27.3274 832.312 28.5427 Z" fill="#000000" fill-rule="nonzero" fill-opacity="1"></path><path clip-path="url(#clip710)" d="M884.326 45.1919 L884.326 72.576 L876.872 72.576 L876.872 45.4349 Q876.872 38.994 874.361 35.7938 Q871.849 32.5936 866.826 32.5936 Q860.79 32.5936 857.307 36.4419 Q853.823 40.2903 853.823 46.9338 L853.823 72.576 L846.329 72.576 L846.329 9.54393 L853.823 9.54393 L853.823 34.2544 Q856.496 30.163 860.102 28.1376 Q863.747 26.1121 868.487 26.1121 Q876.305 26.1121 880.316 30.9732 Q884.326 35.7938 884.326 45.1919 Z" fill="#000000" fill-rule="nonzero" fill-opacity="1"></path><path clip-path="url(#clip710)" d="M899.193 27.2059 L906.647 27.2059 L906.647 72.576 L899.193 72.576 L899.193 27.2059 M899.193 9.54393 L906.647 9.54393 L906.647 18.9825 L899.193 18.9825 L899.193 9.54393 Z" fill="#000000" fill-rule="nonzero" fill-opacity="1"></path><path clip-path="url(#clip710)" d="M945.211 9.54393 L945.211 15.7418 L938.082 15.7418 Q934.071 15.7418 932.491 17.3622 Q930.952 18.9825 930.952 23.1955 L930.952 27.2059 L943.226 27.2059 L943.226 32.9987 L930.952 32.9987 L930.952 72.576 L923.458 72.576 L923.458 32.9987 L916.328 32.9987 L916.328 27.2059 L923.458 27.2059 L923.458 24.0462 Q923.458 16.471 926.982 13.0277 Q930.506 9.54393 938.163 9.54393 L945.211 9.54393 Z" fill="#000000" fill-rule="nonzero" fill-opacity="1"></path><path clip-path="url(#clip710)" d="M957.364 14.324 L957.364 27.2059 L972.717 27.2059 L972.717 32.9987 L957.364 32.9987 L957.364 57.6282 Q957.364 63.1779 958.863 64.7578 Q960.402 66.3376 965.061 66.3376 L972.717 66.3376 L972.717 72.576 L965.061 72.576 Q956.432 72.576 953.151 69.3758 Q949.87 66.1351 949.87 57.6282 L949.87 32.9987 L944.401 32.9987 L944.401 27.2059 L949.87 27.2059 L949.87 14.324 L957.364 14.324 Z" fill="#000000" fill-rule="nonzero" fill-opacity="1"></path><path clip-path="url(#clip710)" d="M982.52 27.2059 L989.974 27.2059 L989.974 72.576 L982.52 72.576 L982.52 27.2059 M982.52 9.54393 L989.974 9.54393 L989.974 18.9825 L982.52 18.9825 L982.52 9.54393 Z" fill="#000000" fill-rule="nonzero" fill-opacity="1"></path><path clip-path="url(#clip710)" d="M1043.28 45.1919 L1043.28 72.576 L1035.83 72.576 L1035.83 45.4349 Q1035.83 38.994 1033.32 35.7938 Q1030.81 32.5936 1025.78 32.5936 Q1019.75 32.5936 1016.26 36.4419 Q1012.78 40.2903 1012.78 46.9338 L1012.78 72.576 L1005.29 72.576 L1005.29 27.2059 L1012.78 27.2059 L1012.78 34.2544 Q1015.45 30.163 1019.06 28.1376 Q1022.7 26.1121 1027.44 26.1121 Q1035.26 26.1121 1039.27 30.9732 Q1043.28 35.7938 1043.28 45.1919 Z" fill="#000000" fill-rule="nonzero" fill-opacity="1"></path><path clip-path="url(#clip710)" d="M1088.01 49.3643 Q1088.01 41.2625 1084.64 36.8065 Q1081.32 32.3505 1075.29 32.3505 Q1069.29 32.3505 1065.93 36.8065 Q1062.61 41.2625 1062.61 49.3643 Q1062.61 57.4256 1065.93 61.8816 Q1069.29 66.3376 1075.29 66.3376 Q1081.32 66.3376 1084.64 61.8816 Q1088.01 57.4256 1088.01 49.3643 M1095.46 66.9452 Q1095.46 78.5308 1090.31 84.1616 Q1085.17 89.8329 1074.56 89.8329 Q1070.63 89.8329 1067.14 89.2252 Q1063.66 88.6581 1060.38 87.4428 L1060.38 80.1917 Q1063.66 81.9741 1066.86 82.8248 Q1070.06 83.6755 1073.38 83.6755 Q1080.71 83.6755 1084.36 79.8271 Q1088.01 76.0193 1088.01 68.282 L1088.01 64.5957 Q1085.7 68.6061 1082.09 70.5911 Q1078.49 72.576 1073.46 72.576 Q1065.12 72.576 1060.01 66.2161 Q1054.91 59.8562 1054.91 49.3643 Q1054.91 38.832 1060.01 32.472 Q1065.12 26.1121 1073.46 26.1121 Q1078.49 26.1121 1082.09 28.0971 Q1085.7 30.082 1088.01 34.0924 L1088.01 27.2059 L1095.46 27.2059 L1095.46 66.9452 Z" fill="#000000" fill-rule="nonzero" fill-opacity="1"></path><path clip-path="url(#clip710)" d="M1112.72 62.2867 L1121.26 62.2867 L1121.26 72.576 L1112.72 72.576 L1112.72 62.2867 M1112.72 29.6769 L1121.26 29.6769 L1121.26 39.9662 L1112.72 39.9662 L1112.72 29.6769 Z" fill="#000000" fill-rule="nonzero" fill-opacity="1"></path><path clip-path="url(#clip710)" d="M1165.13 9.54393 L1172.59 9.54393 L1172.59 72.576 L1165.13 72.576 L1165.13 9.54393 Z" fill="#000000" fill-rule="nonzero" fill-opacity="1"></path><path clip-path="url(#clip710)" d="M1205.77 32.4315 Q1199.77 32.4315 1196.29 37.1306 Q1192.8 41.7891 1192.8 49.9314 Q1192.8 58.0738 1196.25 62.7728 Q1199.73 67.4314 1205.77 67.4314 Q1211.72 67.4314 1215.2 62.7323 Q1218.69 58.0333 1218.69 49.9314 Q1218.69 41.8701 1215.2 37.1711 Q1211.72 32.4315 1205.77 32.4315 M1205.77 26.1121 Q1215.49 26.1121 1221.04 32.4315 Q1226.59 38.7509 1226.59 49.9314 Q1226.59 61.0714 1221.04 67.4314 Q1215.49 73.7508 1205.77 73.7508 Q1196 73.7508 1190.45 67.4314 Q1184.94 61.0714 1184.94 49.9314 Q1184.94 38.7509 1190.45 32.4315 Q1196 26.1121 1205.77 26.1121 Z" fill="#000000" fill-rule="nonzero" fill-opacity="1"></path><path clip-path="url(#clip710)" d="M1234.61 27.2059 L1242.06 27.2059 L1251.38 62.6108 L1260.66 27.2059 L1269.45 27.2059 L1278.76 62.6108 L1288.04 27.2059 L1295.49 27.2059 L1283.62 72.576 L1274.83 72.576 L1265.07 35.3887 L1255.27 72.576 L1246.48 72.576 L1234.61 27.2059 Z" fill="#000000" fill-rule="nonzero" fill-opacity="1"></path><path clip-path="url(#clip710)" d="M1362.17 44.2197 Q1364.8 45.1109 1367.27 48.0275 Q1369.79 50.9442 1372.3 56.0483 L1380.6 72.576 L1371.81 72.576 L1364.07 57.061 Q1361.08 50.9847 1358.24 48.9997 Q1355.45 47.0148 1350.59 47.0148 L1341.67 47.0148 L1341.67 72.576 L1333.49 72.576 L1333.49 12.096 L1351.96 12.096 Q1362.33 12.096 1367.44 16.4305 Q1372.54 20.7649 1372.54 29.5149 Q1372.54 35.2267 1369.87 38.994 Q1367.23 42.7613 1362.17 44.2197 M1341.67 18.8205 L1341.67 40.2903 L1351.96 40.2903 Q1357.88 40.2903 1360.87 37.5762 Q1363.91 34.8216 1363.91 29.5149 Q1363.91 24.2082 1360.87 21.5346 Q1357.88 18.8205 1351.96 18.8205 L1341.67 18.8205 Z" fill="#000000" fill-rule="nonzero" fill-opacity="1"></path><path clip-path="url(#clip710)" d="M1407.99 20.1573 L1396.89 50.2555 L1419.13 50.2555 L1407.99 20.1573 M1403.37 12.096 L1412.64 12.096 L1435.69 72.576 L1427.19 72.576 L1421.68 57.061 L1394.42 57.061 L1388.91 72.576 L1380.28 72.576 L1403.37 12.096 Z" fill="#000000" fill-rule="nonzero" fill-opacity="1"></path><path clip-path="url(#clip710)" d="M1446.11 62.2867 L1454.65 62.2867 L1454.65 69.2543 L1448.01 82.2172 L1442.78 82.2172 L1446.11 69.2543 L1446.11 62.2867 Z" fill="#000000" fill-rule="nonzero" fill-opacity="1"></path><path clip-path="url(#clip710)" d="M1534.66 45.1919 L1534.66 72.576 L1527.2 72.576 L1527.2 45.4349 Q1527.2 38.994 1524.69 35.7938 Q1522.18 32.5936 1517.16 32.5936 Q1511.12 32.5936 1507.64 36.4419 Q1504.15 40.2903 1504.15 46.9338 L1504.15 72.576 L1496.66 72.576 L1496.66 27.2059 L1504.15 27.2059 L1504.15 34.2544 Q1506.83 30.163 1510.43 28.1376 Q1514.08 26.1121 1518.82 26.1121 Q1526.64 26.1121 1530.65 30.9732 Q1534.66 35.7938 1534.66 45.1919 Z" fill="#000000" fill-rule="nonzero" fill-opacity="1"></path><path clip-path="url(#clip710)" d="M1567.11 32.4315 Q1561.11 32.4315 1557.63 37.1306 Q1554.14 41.7891 1554.14 49.9314 Q1554.14 58.0738 1557.59 62.7728 Q1561.07 67.4314 1567.11 67.4314 Q1573.06 67.4314 1576.54 62.7323 Q1580.03 58.0333 1580.03 49.9314 Q1580.03 41.8701 1576.54 37.1711 Q1573.06 32.4315 1567.11 32.4315 M1567.11 26.1121 Q1576.83 26.1121 1582.38 32.4315 Q1587.93 38.7509 1587.93 49.9314 Q1587.93 61.0714 1582.38 67.4314 Q1576.83 73.7508 1567.11 73.7508 Q1557.34 73.7508 1551.79 67.4314 Q1546.28 61.0714 1546.28 49.9314 Q1546.28 38.7509 1551.79 32.4315 Q1557.34 26.1121 1567.11 26.1121 Z" fill="#000000" fill-rule="nonzero" fill-opacity="1"></path><path clip-path="url(#clip710)" d="M1659.22 49.9314 Q1659.22 41.7081 1655.82 37.0496 Q1652.46 32.3505 1646.54 32.3505 Q1640.63 32.3505 1637.23 37.0496 Q1633.86 41.7081 1633.86 49.9314 Q1633.86 58.1548 1637.23 62.8538 Q1640.63 67.5124 1646.54 67.5124 Q1652.46 67.5124 1655.82 62.8538 Q1659.22 58.1548 1659.22 49.9314 M1633.86 34.0924 Q1636.21 30.0415 1639.78 28.0971 Q1643.38 26.1121 1648.37 26.1121 Q1656.63 26.1121 1661.78 32.6746 Q1666.96 39.2371 1666.96 49.9314 Q1666.96 60.6258 1661.78 67.1883 Q1656.63 73.7508 1648.37 73.7508 Q1643.38 73.7508 1639.78 71.8063 Q1636.21 69.8214 1633.86 65.7705 L1633.86 72.576 L1626.37 72.576 L1626.37 9.54393 L1633.86 9.54393 L1633.86 34.0924 Z" fill="#000000" fill-rule="nonzero" fill-opacity="1"></path><path clip-path="url(#clip710)" d="M1705.61 34.1734 Q1704.35 33.4443 1702.85 33.1202 Q1701.39 32.7556 1699.61 32.7556 Q1693.29 32.7556 1689.89 36.8875 Q1686.53 40.9789 1686.53 48.6757 L1686.53 72.576 L1679.03 72.576 L1679.03 27.2059 L1686.53 27.2059 L1686.53 34.2544 Q1688.88 30.1225 1692.64 28.1376 Q1696.41 26.1121 1701.8 26.1121 Q1702.57 26.1121 1703.5 26.2337 Q1704.43 26.3147 1705.57 26.5172 L1705.61 34.1734 Z" fill="#000000" fill-rule="nonzero" fill-opacity="1"></path><path clip-path="url(#clip710)" d="M1750.41 48.0275 L1750.41 51.6733 L1716.14 51.6733 Q1716.62 59.3701 1720.76 63.421 Q1724.93 67.4314 1732.34 67.4314 Q1736.64 67.4314 1740.65 66.3781 Q1744.7 65.3249 1748.67 63.2184 L1748.67 70.267 Q1744.66 71.9684 1740.44 72.8596 Q1736.23 73.7508 1731.9 73.7508 Q1721.04 73.7508 1714.68 67.4314 Q1708.36 61.1119 1708.36 50.3365 Q1708.36 39.1965 1714.36 32.6746 Q1720.39 26.1121 1730.6 26.1121 Q1739.76 26.1121 1745.06 32.0264 Q1750.41 37.9003 1750.41 48.0275 M1742.96 45.84 Q1742.87 39.7232 1739.51 36.0774 Q1736.19 32.4315 1730.68 32.4315 Q1724.44 32.4315 1720.68 35.9558 Q1716.95 39.4801 1716.38 45.8805 L1742.96 45.84 Z" fill="#000000" fill-rule="nonzero" fill-opacity="1"></path><path clip-path="url(#clip710)" d="M1783.26 49.7694 Q1774.23 49.7694 1770.74 51.8354 Q1767.26 53.9013 1767.26 58.8839 Q1767.26 62.8538 1769.85 65.2034 Q1772.49 67.5124 1776.98 67.5124 Q1783.18 67.5124 1786.91 63.1374 Q1790.68 58.7219 1790.68 51.4303 L1790.68 49.7694 L1783.26 49.7694 M1798.13 46.6907 L1798.13 72.576 L1790.68 72.576 L1790.68 65.6895 Q1788.12 69.8214 1784.32 71.8063 Q1780.51 73.7508 1775 73.7508 Q1768.03 73.7508 1763.9 69.8619 Q1759.81 65.9325 1759.81 59.3701 Q1759.81 51.7138 1764.91 47.825 Q1770.06 43.9361 1780.22 43.9361 L1790.68 43.9361 L1790.68 43.2069 Q1790.68 38.0623 1787.27 35.2672 Q1783.91 32.4315 1777.79 32.4315 Q1773.9 32.4315 1770.22 33.3632 Q1766.53 34.295 1763.13 36.1584 L1763.13 29.2718 Q1767.22 27.692 1771.07 26.9223 Q1774.92 26.1121 1778.56 26.1121 Q1788.41 26.1121 1793.27 31.2163 Q1798.13 36.3204 1798.13 46.6907 Z" fill="#000000" fill-rule="nonzero" fill-opacity="1"></path><path clip-path="url(#clip710)" d="M1846.13 28.9478 L1846.13 35.9153 Q1842.97 34.1734 1839.77 33.3227 Q1836.61 32.4315 1833.37 32.4315 Q1826.12 32.4315 1822.11 37.0496 Q1818.1 41.6271 1818.1 49.9314 Q1818.1 58.2358 1822.11 62.8538 Q1826.12 67.4314 1833.37 67.4314 Q1836.61 67.4314 1839.77 66.5807 Q1842.97 65.6895 1846.13 63.9476 L1846.13 70.8341 Q1843.01 72.2924 1839.65 73.0216 Q1836.33 73.7508 1832.56 73.7508 Q1822.31 73.7508 1816.28 67.3098 Q1810.24 60.8689 1810.24 49.9314 Q1810.24 38.832 1816.32 32.472 Q1822.43 26.1121 1833.05 26.1121 Q1836.49 26.1121 1839.77 26.8413 Q1843.05 27.5299 1846.13 28.9478 Z" fill="#000000" fill-rule="nonzero" fill-opacity="1"></path><path clip-path="url(#clip710)" d="M1896.81 45.1919 L1896.81 72.576 L1889.36 72.576 L1889.36 45.4349 Q1889.36 38.994 1886.84 35.7938 Q1884.33 32.5936 1879.31 32.5936 Q1873.27 32.5936 1869.79 36.4419 Q1866.31 40.2903 1866.31 46.9338 L1866.31 72.576 L1858.81 72.576 L1858.81 9.54393 L1866.31 9.54393 L1866.31 34.2544 Q1868.98 30.163 1872.58 28.1376 Q1876.23 26.1121 1880.97 26.1121 Q1888.79 26.1121 1892.8 30.9732 Q1896.81 35.7938 1896.81 45.1919 Z" fill="#000000" fill-rule="nonzero" fill-opacity="1"></path><path clip-path="url(#clip710)" d="M1911.68 27.2059 L1919.13 27.2059 L1919.13 72.576 L1911.68 72.576 L1911.68 27.2059 M1911.68 9.54393 L1919.13 9.54393 L1919.13 18.9825 L1911.68 18.9825 L1911.68 9.54393 Z" fill="#000000" fill-rule="nonzero" fill-opacity="1"></path><path clip-path="url(#clip710)" d="M1972.44 45.1919 L1972.44 72.576 L1964.99 72.576 L1964.99 45.4349 Q1964.99 38.994 1962.47 35.7938 Q1959.96 32.5936 1954.94 32.5936 Q1948.9 32.5936 1945.42 36.4419 Q1941.94 40.2903 1941.94 46.9338 L1941.94 72.576 L1934.44 72.576 L1934.44 27.2059 L1941.94 27.2059 L1941.94 34.2544 Q1944.61 30.163 1948.22 28.1376 Q1951.86 26.1121 1956.6 26.1121 Q1964.42 26.1121 1968.43 30.9732 Q1972.44 35.7938 1972.44 45.1919 Z" fill="#000000" fill-rule="nonzero" fill-opacity="1"></path><path clip-path="url(#clip710)" d="M2017.16 49.3643 Q2017.16 41.2625 2013.8 36.8065 Q2010.48 32.3505 2004.44 32.3505 Q1998.45 32.3505 1995.08 36.8065 Q1991.76 41.2625 1991.76 49.3643 Q1991.76 57.4256 1995.08 61.8816 Q1998.45 66.3376 2004.44 66.3376 Q2010.48 66.3376 2013.8 61.8816 Q2017.16 57.4256 2017.16 49.3643 M2024.62 66.9452 Q2024.62 78.5308 2019.47 84.1616 Q2014.33 89.8329 2003.71 89.8329 Q1999.78 89.8329 1996.3 89.2252 Q1992.82 88.6581 1989.53 87.4428 L1989.53 80.1917 Q1992.82 81.9741 1996.02 82.8248 Q1999.22 83.6755 2002.54 83.6755 Q2009.87 83.6755 2013.52 79.8271 Q2017.16 76.0193 2017.16 68.282 L2017.16 64.5957 Q2014.85 68.6061 2011.25 70.5911 Q2007.64 72.576 2002.62 72.576 Q1994.27 72.576 1989.17 66.2161 Q1984.07 59.8562 1984.07 49.3643 Q1984.07 38.832 1989.17 32.472 Q1994.27 26.1121 2002.62 26.1121 Q2007.64 26.1121 2011.25 28.0971 Q2014.85 30.082 2017.16 34.0924 L2017.16 27.2059 L2024.62 27.2059 L2024.62 66.9452 Z" fill="#000000" fill-rule="nonzero" fill-opacity="1"></path><polyline clip-path="url(#clip712)" style="stroke:#0000ff; stroke-linecap:round; stroke-linejoin:round; stroke-width:10; stroke-opacity:1; fill:none" points="335.981,167.054 630.694,182.955 803.091,201.733 925.408,220.256 1020.28,241.193 1097.8,260.997 1163.35,281.279 1220.12,300.273 1270.2,320.908 1315,340.16 1355.52,356.457 1392.52,374.179 1426.55,390.733 1458.06,404.603 1487.39,419.896 1514.83,434.513 1540.61,448.02 1564.91,460.865 1587.9,474.355 1609.71,487.497 1630.46,499.833 1650.24,510.913 1669.14,524.121 1687.23,537.011 1704.59,549.483 1721.26,560.829 1737.31,572.365 1752.77,585.3 1767.69,597.958 1782.11,610.121 1796.05,621.62 1809.55,632.078 1822.63,644.503 1835.32,656.47 1847.65,668.506 1859.63,680.156 1871.28,691.296 1882.62,701.568 1893.66,713.858 1904.42,725.973 1914.92,737.824 1925.17,749.405 1935.17,760.971 1944.95,771.004 1954.5,781.812 1963.85,793.454 1972.99,804.938 1981.94,816.539 1990.71,827.878 1999.3,838.839 2007.72,848.995 2015.98,859.321 2024.08,870.922 2032.02,882.452 2039.83,893.732 2047.49,904.868 2055.01,915.73 2062.41,926.462 2069.68,936.569 2076.82,947.035 2083.85,958.21 2090.76,969.604 2097.57,981.004 2104.26,991.898 2110.85,1002.85 2117.35,1013.7 2123.74,1023.78 2130.04,1033.83 2136.25,1044.73 2142.36,1055.53 2148.39,1066.66 2154.34,1077.52 2160.21,1088.88 2165.99,1099.63 2171.7,1110.31 2177.33,1120.1 2182.89,1129.31 2188.37,1138.88 2193.79,1149.29 2199.14,1159.67 2204.42,1169.71 2209.64,1179.99 2214.79,1189.97 2219.88,1200.08 2224.91,1209.92 2229.89,1218.78 2234.8,1227.42 2239.66,1236.49 2244.47,1246.48 2249.22,1256.22 2253.92,1266.07 2258.56,1275.87 2263.16,1285.59 2267.71,1294.96 2272.21,1304.27 2276.66,1313.44 2281.06,1321.28 2285.43,1329.38 2289.74,1338.07 2294.01,1347.2 "></polyline>
<path clip-path="url(#clip712)" d="M335.981 175.511 L630.694 199.109 L803.091 223.362 L925.408 246.611 L1020.28 271.238 L1097.8 294.093 L1163.35 317.606 L1220.12 338.624 L1270.2 361.481 L1315 382.813 L1355.52 401.286 L1392.52 419.897 L1426.55 438.815 L1458.06 454.542 L1487.39 471.841 L1514.83 488.475 L1540.61 503.719 L1564.91 518.035 L1587.9 532.358 L1609.71 546.651 L1630.46 559.7 L1650.24 571.973 L1669.14 586.286 L1687.23 600.91 L1704.59 615.172 L1721.26 627.912 L1737.31 640.363 L1752.77 653.814 L1767.69 666.979 L1782.11 680.052 L1796.05 692.106 L1809.55 703.415 L1822.63 716.99 L1835.32 729.456 L1847.65 742.168 L1859.63 754.771 L1871.28 766.498 L1882.62 777.546 L1893.66 790.385 L1904.42 803.029 L1914.92 815.484 L1925.17 827.758 L1935.17 839.801 L1944.95 850.734 L1954.5 862.424 L1963.85 875.064 L1972.99 887.54 L1981.94 899.465 L1990.71 911.493 L1999.3 922.585 L2007.72 933.11 L2015.98 943.823 L2024.08 955.818 L2032.02 967.678 L2039.83 979.408 L2047.49 991.009 L2055.01 1002.49 L2062.41 1013.68 L2069.68 1024.27 L2076.82 1035.13 L2083.85 1046.92 L2090.76 1058.6 L2097.57 1070.16 L2104.26 1081.61 L2110.85 1092.96 L2117.35 1104 L2123.74 1114.25 L2130.04 1124.34 L2136.25 1135.52 L2142.36 1146.78 L2148.39 1158.16 L2154.34 1169.28 L2160.21 1180.11 L2165.99 1190.84 L2171.7 1201.48 L2177.33 1211.42 L2182.89 1220.83 L2188.37 1230.62 L2193.79 1241.25 L2199.14 1251.8 L2204.42 1262.27 L2209.64 1272.66 L2214.79 1282.79 L2219.88 1292.81 L2224.91 1302.76 L2229.89 1311.79 L2234.8 1320.42 L2239.66 1329.36 L2244.47 1339.14 L2249.22 1348.86 L2253.92 1358.51 L2258.56 1368.1 L2263.16 1377.62 L2267.71 1387.09 L2272.21 1396.49 L2276.66 1405.62 L2281.06 1413.6 L2285.43 1421.79 L2289.74 1430.39 L2294.01 1439.48 L2294.01 1246.51 L2289.74 1237.74 L2285.43 1229.65 L2281.06 1222.2 L2276.66 1214.7 L2272.21 1205.91 L2267.71 1196.92 L2263.16 1187.6 L2258.56 1177.86 L2253.92 1168.06 L2249.22 1158.2 L2244.47 1148.27 L2239.66 1138.27 L2234.8 1129.58 L2229.89 1121.39 L2224.91 1112.77 L2219.88 1103.16 L2214.79 1093.48 L2209.64 1083.73 L2204.42 1073.91 L2199.14 1064.02 L2193.79 1054.05 L2188.37 1044.04 L2182.89 1034.96 L2177.33 1026.05 L2171.7 1016.49 L2165.99 1006.09 L2160.21 995.599 L2154.34 985.023 L2148.39 974.358 L2142.36 963.963 L2136.25 952.99 L2130.04 942.437 L2123.74 932.726 L2117.35 922.829 L2110.85 911.908 L2104.26 901.415 L2097.57 890.762 L2090.76 879.87 L2083.85 868.871 L2076.82 857.764 L2069.68 847.799 L2062.41 838.184 L2055.01 827.701 L2047.49 816.934 L2039.83 805.937 L2032.02 794.741 L2024.08 783.42 L2015.98 772.671 L2007.72 762.916 L1999.3 753.38 L1990.71 742.868 L1981.94 732.315 L1972.99 721.629 L1963.85 710.806 L1954.5 699.378 L1944.95 688.95 L1935.17 679.516 L1925.17 668.901 L1914.92 658.626 L1904.42 648.043 L1893.66 636.861 L1882.62 625.262 L1871.28 615.87 L1859.63 604.953 L1847.65 593.635 L1835.32 582.6 L1822.63 571.279 L1809.55 559.208 L1796.05 549.658 L1782.11 539.466 L1767.69 528.036 L1752.77 517.185 L1737.31 504.831 L1721.26 494.579 L1704.59 484.304 L1687.23 472.648 L1669.14 461.291 L1650.24 449.413 L1630.46 440.248 L1609.71 429.307 L1587.9 417.725 L1564.91 406.033 L1540.61 395.118 L1514.83 383.374 L1487.39 369.946 L1458.06 356.751 L1426.55 344.799 L1392.52 329.897 L1355.52 314.981 L1315 300.919 L1270.2 283.9 L1220.12 264.619 L1163.35 249.081 L1097.8 232.306 L1020.28 216.234 L925.408 199.509 L803.091 185.02 L630.694 171.978 L335.981 163.446  Z" fill="#0000ff" fill-rule="evenodd" fill-opacity="0.35"></path>
<polyline clip-path="url(#clip712)" style="stroke:#0000ff; stroke-linecap:round; stroke-linejoin:round; stroke-width:4; stroke-opacity:0.35; fill:none" points="335.981,175.511 630.694,199.109 803.091,223.362 925.408,246.611 1020.28,271.238 1097.8,294.093 1163.35,317.606 1220.12,338.624 1270.2,361.481 1315,382.813 1355.52,401.286 1392.52,419.897 1426.55,438.815 1458.06,454.542 1487.39,471.841 1514.83,488.475 1540.61,503.719 1564.91,518.035 1587.9,532.358 1609.71,546.651 1630.46,559.7 1650.24,571.973 1669.14,586.286 1687.23,600.91 1704.59,615.172 1721.26,627.912 1737.31,640.363 1752.77,653.814 1767.69,666.979 1782.11,680.052 1796.05,692.106 1809.55,703.415 1822.63,716.99 1835.32,729.456 1847.65,742.168 1859.63,754.771 1871.28,766.498 1882.62,777.546 1893.66,790.385 1904.42,803.029 1914.92,815.484 1925.17,827.758 1935.17,839.801 1944.95,850.734 1954.5,862.424 1963.85,875.064 1972.99,887.54 1981.94,899.465 1990.71,911.493 1999.3,922.585 2007.72,933.11 2015.98,943.823 2024.08,955.818 2032.02,967.678 2039.83,979.408 2047.49,991.009 2055.01,1002.49 2062.41,1013.68 2069.68,1024.27 2076.82,1035.13 2083.85,1046.92 2090.76,1058.6 2097.57,1070.16 2104.26,1081.61 2110.85,1092.96 2117.35,1104 2123.74,1114.25 2130.04,1124.34 2136.25,1135.52 2142.36,1146.78 2148.39,1158.16 2154.34,1169.28 2160.21,1180.11 2165.99,1190.84 2171.7,1201.48 2177.33,1211.42 2182.89,1220.83 2188.37,1230.62 2193.79,1241.25 2199.14,1251.8 2204.42,1262.27 2209.64,1272.66 2214.79,1282.79 2219.88,1292.81 2224.91,1302.76 2229.89,1311.79 2234.8,1320.42 2239.66,1329.36 2244.47,1339.14 2249.22,1348.86 2253.92,1358.51 2258.56,1368.1 2263.16,1377.62 2267.71,1387.09 2272.21,1396.49 2276.66,1405.62 2281.06,1413.6 2285.43,1421.79 2289.74,1430.39 2294.01,1439.48 "></polyline>
<polyline clip-path="url(#clip712)" style="stroke:#000000; stroke-linecap:round; stroke-linejoin:round; stroke-width:8; stroke-opacity:1; fill:none" stroke-dasharray="32, 20" points="335.981,161.802 630.694,161.802 803.091,161.802 925.408,161.802 1020.28,161.802 1097.8,161.802 1163.35,161.802 1220.12,161.802 1270.2,161.802 1315,161.802 1355.52,161.802 1392.52,161.802 1426.55,161.802 1458.06,161.802 1487.39,161.802 1514.83,161.802 1540.61,161.802 1564.91,161.802 1587.9,161.802 1609.71,161.802 1630.46,161.802 1650.24,161.802 1669.14,161.802 1687.23,161.802 1704.59,161.802 1721.26,161.802 1737.31,161.802 1752.77,161.802 1767.69,161.802 1782.11,161.802 1796.05,161.802 1809.55,161.802 1822.63,161.802 1835.32,161.802 1847.65,161.802 1859.63,161.802 1871.28,161.802 1882.62,161.802 1893.66,161.802 1904.42,161.802 1914.92,161.802 1925.17,161.802 1935.17,161.802 1944.95,161.802 1954.5,161.802 1963.85,161.802 1972.99,161.802 1981.94,161.802 1990.71,161.802 1999.3,161.802 2007.72,161.802 2015.98,161.802 2024.08,161.802 2032.02,161.802 2039.83,161.802 2047.49,161.802 2055.01,161.802 2062.41,161.802 2069.68,161.802 2076.82,161.802 2083.85,161.802 2090.76,161.802 2097.57,161.802 2104.26,161.802 2110.85,161.802 2117.35,161.802 2123.74,161.802 2130.04,161.802 2136.25,161.802 2142.36,161.802 2148.39,161.802 2154.34,161.802 2160.21,161.802 2165.99,161.802 2171.7,161.802 2177.33,161.802 2182.89,161.802 2188.37,161.802 2193.79,161.802 2199.14,161.802 2204.42,161.802 2209.64,161.802 2214.79,161.802 2219.88,161.802 2224.91,161.802 2229.89,161.802 2234.8,161.802 2239.66,161.802 2244.47,161.802 2249.22,161.802 2253.92,161.802 2258.56,161.802 2263.16,161.802 2267.71,161.802 2272.21,161.802 2276.66,161.802 2281.06,161.802 2285.43,161.802 2289.74,161.802 2294.01,161.802 "></polyline>
</svg>