<svg xmlns="http://www.w3.org/2000/svg" xmlns:xlink="http://www.w3.org/1999/xlink" width="600" height="400" viewBox="0 0 2400 1600">
<defs>
  <clipPath id="clip280">
    <rect x="0" y="0" width="2400" height="1600"></rect>
  </clipPath>
</defs>
<path clip-path="url(#clip280)" d="M0 1600 L2400 1600 L2400 0 L0 0  Z" fill="#ffffff" fill-rule="evenodd" fill-opacity="1"></path>
<defs>
  <clipPath id="clip281">
    <rect x="480" y="0" width="1681" height="1600"></rect>
  </clipPath>
</defs>
<path clip-path="url(#clip280)" d="M277.24 1477.81 L2352.76 1477.81 L2352.76 47.2441 L277.24 47.2441  Z" fill="#ffffff" fill-rule="evenodd" fill-opacity="1"></path>
<defs>
  <clipPath id="clip282">
    <rect x="277" y="47" width="2077" height="1432"></rect>
  </clipPath>
</defs>
<polyline clip-path="url(#clip282)" style="stroke:#000000; stroke-linecap:round; stroke-linejoin:round; stroke-width:2; stroke-opacity:0.1; fill:none" points="335.981,1477.81 335.981,47.2441 "></polyline>
<polyline clip-path="url(#clip282)" style="stroke:#000000; stroke-linecap:round; stroke-linejoin:round; stroke-width:2; stroke-opacity:0.1; fill:none" points="1315,1477.81 1315,47.2441 "></polyline>
<polyline clip-path="url(#clip282)" style="stroke:#000000; stroke-linecap:round; stroke-linejoin:round; stroke-width:2; stroke-opacity:0.1; fill:none" points="2294.01,1477.81 2294.01,47.2441 "></polyline>
<polyline clip-path="url(#clip280)" style="stroke:#000000; stroke-linecap:round; stroke-linejoin:round; stroke-width:4; stroke-opacity:1; fill:none" points="277.24,1477.81 2352.76,1477.81 "></polyline>
<polyline clip-path="url(#clip280)" style="stroke:#000000; stroke-linecap:round; stroke-linejoin:round; stroke-width:4; stroke-opacity:1; fill:none" points="335.981,1477.81 335.981,1458.91 "></polyline>
<polyline clip-path="url(#clip280)" style="stroke:#000000; stroke-linecap:round; stroke-linejoin:round; stroke-width:4; stroke-opacity:1; fill:none" points="1315,1477.81 1315,1458.91 "></polyline>
<polyline clip-path="url(#clip280)" style="stroke:#000000; stroke-linecap:round; stroke-linejoin:round; stroke-width:4; stroke-opacity:1; fill:none" points="2294.01,1477.81 2294.01,1458.91 "></polyline>
<path clip-path="url(#clip280)" d="M304.341 1546.09 L313.889 1546.09 L313.889 1513.13 L303.501 1515.22 L303.501 1509.89 L313.831 1507.81 L319.676 1507.81 L319.676 1546.09 L329.225 1546.09 L329.225 1551.01 L304.341 1551.01 L304.341 1546.09 Z" fill="#000000" fill-rule="nonzero" fill-opacity="1"></path><path clip-path="url(#clip280)" d="M353.53 1511.66 Q349.016 1511.66 346.73 1516.11 Q344.473 1520.54 344.473 1529.45 Q344.473 1538.33 346.73 1542.79 Q349.016 1547.22 353.53 1547.22 Q358.073 1547.22 360.33 1542.79 Q362.616 1538.33 362.616 1529.45 Q362.616 1520.54 360.33 1516.11 Q358.073 1511.66 353.53 1511.66 M353.53 1507.03 Q360.793 1507.03 364.612 1512.78 Q368.461 1518.51 368.461 1529.45 Q368.461 1540.36 364.612 1546.12 Q360.793 1551.85 353.53 1551.85 Q346.267 1551.85 342.419 1546.12 Q338.6 1540.36 338.6 1529.45 Q338.6 1518.51 342.419 1512.78 Q346.267 1507.03 353.53 1507.03 Z" fill="#000000" fill-rule="nonzero" fill-opacity="1"></path><path clip-path="url(#clip280)" d="M1264.51 1546.09 L1274.05 1546.09 L1274.05 1513.13 L1263.67 1515.22 L1263.67 1509.89 L1274 1507.81 L1279.84 1507.81 L1279.84 1546.09 L1289.39 1546.09 L1289.39 1551.01 L1264.51 1551.01 L1264.51 1546.09 Z" fill="#000000" fill-rule="nonzero" fill-opacity="1"></path><path clip-path="url(#clip280)" d="M1313.7 1511.66 Q1309.18 1511.66 1306.9 1516.11 Q1304.64 1520.54 1304.64 1529.45 Q1304.64 1538.33 1306.9 1542.79 Q1309.18 1547.22 1313.7 1547.22 Q1318.24 1547.22 1320.5 1542.79 Q1322.78 1538.33 1322.78 1529.45 Q1322.78 1520.54 1320.5 1516.11 Q1318.24 1511.66 1313.7 1511.66 M1313.7 1507.03 Q1320.96 1507.03 1324.78 1512.78 Q1328.63 1518.51 1328.63 1529.45 Q1328.63 1540.36 1324.78 1546.12 Q1320.96 1551.85 1313.7 1551.85 Q1306.43 1551.85 1302.58 1546.12 Q1298.77 1540.36 1298.77 1529.45 Q1298.77 1518.51 1302.58 1512.78 Q1306.43 1507.03 1313.7 1507.03 Z" fill="#000000" fill-rule="nonzero" fill-opacity="1"></path><path clip-path="url(#clip280)" d="M1351.4 1511.66 Q1346.88 1511.66 1344.6 1516.11 Q1342.34 1520.54 1342.34 1529.45 Q1342.34 1538.33 1344.6 1542.79 Q1346.88 1547.22 1351.4 1547.22 Q1355.94 1547.22 1358.2 1542.79 Q1360.48 1538.33 1360.48 1529.45 Q1360.48 1520.54 1358.2 1516.11 Q1355.94 1511.66 1351.4 1511.66 M1351.4 1507.03 Q1358.66 1507.03 1362.48 1512.78 Q1366.33 1518.51 1366.33 1529.45 Q1366.33 1540.36 1362.48 1546.12 Q1358.66 1551.85 1351.4 1551.85 Q1344.14 1551.85 1340.29 1546.12 Q1336.47 1540.36 1336.47 1529.45 Q1336.47 1518.51 1340.29 1512.78 Q1344.14 1507.03 1351.4 1507.03 Z" fill="#000000" fill-rule="nonzero" fill-opacity="1"></path><path clip-path="url(#clip280)" d="M2224.67 1546.09 L2234.22 1546.09 L2234.22 1513.13 L2223.83 1515.22 L2223.83 1509.89 L2234.16 1507.81 L2240.01 1507.81 L2240.01 1546.09 L2249.56 1546.09 L2249.56 1551.01 L2224.67 1551.01 L2224.67 1546.09 Z" fill="#000000" fill-rule="nonzero" fill-opacity="1"></path><path clip-path="url(#clip280)" d="M2273.86 1511.66 Q2269.35 1511.66 2267.06 1516.11 Q2264.8 1520.54 2264.8 1529.45 Q2264.8 1538.33 2267.06 1542.79 Q2269.35 1547.22 2273.86 1547.22 Q2278.4 1547.22 2280.66 1542.79 Q2282.95 1538.33 2282.95 1529.45 Q2282.95 1520.54 2280.66 1516.11 Q2278.4 1511.66 2273.86 1511.66 M2273.86 1507.03 Q2281.12 1507.03 2284.94 1512.78 Q2288.79 1518.51 2288.79 1529.45 Q2288.79 1540.36 2284.94 1546.12 Q2281.12 1551.85 2273.86 1551.85 Q2266.6 1551.85 2262.75 1546.12 Q2258.93 1540.36 2258.93 1529.45 Q2258.93 1518.51 2262.75 1512.78 Q2266.6 1507.03 2273.86 1507.03 Z" fill="#000000" fill-rule="nonzero" fill-opacity="1"></path><path clip-path="url(#clip280)" d="M2311.56 1511.66 Q2307.05 1511.66 2304.76 1516.11 Q2302.51 1520.54 2302.51 1529.45 Q2302.51 1538.33 2304.76 1542.79 Q2307.05 1547.22 2311.56 1547.22 Q2316.11 1547.22 2318.36 1542.79 Q2320.65 1538.33 2320.65 1529.45 Q2320.65 1520.54 2318.36 1516.11 Q2316.11 1511.66 2311.56 1511.66 M2311.56 1507.03 Q2318.83 1507.03 2322.65 1512.78 Q2326.49 1518.51 2326.49 1529.45 Q2326.49 1540.36 2322.65 1546.12 Q2318.83 1551.85 2311.56 1551.85 Q2304.3 1551.85 2300.45 1546.12 Q2296.63 1540.36 2296.63 1529.45 Q2296.63 1518.51 2300.45 1512.78 Q2304.3 1507.03 2311.56 1507.03 Z" fill="#000000" fill-rule="nonzero" fill-opacity="1"></path><path clip-path="url(#clip280)" d="M2349.27 1511.66 Q2344.75 1511.66 2342.47 1516.11 Q2340.21 1520.54 2340.21 1529.45 Q2340.21 1538.33 2342.47 1542.79 Q2344.75 1547.22 2349.27 1547.22 Q2353.81 1547.22 2356.07 1542.79 Q2358.35 1538.33 2358.35 1529.45 Q2358.35 1520.54 2356.07 1516.11 Q2353.81 1511.66 2349.27 1511.66 M2349.27 1507.03 Q2356.53 1507.03 2360.35 1512.78 Q2364.2 1518.51 2364.2 1529.45 Q2364.2 1540.36 2360.35 1546.12 Q2356.53 1551.85 2349.27 1551.85 Q2342 1551.85 2338.16 1546.12 Q2334.34 1540.36 2334.34 1529.45 Q2334.34 1518.51 2338.16 1512.78 Q2342 1507.03 2349.27 1507.03 Z" fill="#000000" fill-rule="nonzero" fill-opacity="1"></path><polyline clip-path="url(#clip282)" style="stroke:#000000; stroke-linecap:round; stroke-linejoin:round; stroke-width:2; stroke-opacity:0.1; fill:none" points="277.24,1327.32 2352.76,1327.32 "></polyline>
<polyline clip-path="url(#clip282)" style="stroke:#000000; stroke-linecap:round; stroke-linejoin:round; stroke-width:2; stroke-opacity:0.1; fill:none" points="277.24,1079.41 2352.76,1079.41 "></polyline>
<polyline clip-path="url(#clip282)" style="stroke:#000000; stroke-linecap:round; stroke-linejoin:round; stroke-width:2; stroke-opacity:0.1; fill:none" points="277.24,831.487 2352.76,831.487 "></polyline>
<polyline clip-path="url(#clip282)" style="stroke:#000000; stroke-linecap:round; stroke-linejoin:round; stroke-width:2; stroke-opacity:0.1; fill:none" points="277.24,583.569 2352.76,583.569 "></polyline>
<polyline clip-path="url(#clip282)" style="stroke:#000000; stroke-linecap:round; stroke-linejoin:round; stroke-width:2; stroke-opacity:0.1; fill:none" points="277.24,335.65 2352.76,335.65 "></polyline>
<polyline clip-path="url(#clip282)" style="stroke:#000000; stroke-linecap:round; stroke-linejoin:round; stroke-width:2; stroke-opacity:0.1; fill:none" points="277.24,87.7317 2352.76,87.7317 "></polyline>
<polyline clip-path="url(#clip280)" style="stroke:#000000; stroke-linecap:round; stroke-linejoin:round; stroke-width:4; stroke-opacity:1; fill:none" points="277.24,1477.81 277.24,47.2441 "></polyline>
<polyline clip-path="url(#clip280)" style="stroke:#000000; stroke-linecap:round; stroke-linejoin:round; stroke-width:4; stroke-opacity:1; fill:none" points="277.24,1327.32 296.138,1327.32 "></polyline>
<polyline clip-path="url(#clip280)" style="stroke:#000000; stroke-linecap:round; stroke-linejoin:round; stroke-width:4; stroke-opacity:1; fill:none" points="277.24,1079.41 296.138,1079.41 "></polyline>
<polyline clip-path="url(#clip280)" style="stroke:#000000; stroke-linecap:round; stroke-linejoin:round; stroke-width:4; stroke-opacity:1; fill:none" points="277.24,831.487 296.138,831.487 "></polyline>
<polyline clip-path="url(#clip280)" style="stroke:#000000; stroke-linecap:round; stroke-linejoin:round; stroke-width:4; stroke-opacity:1; fill:none" points="277.24,583.569 296.138,583.569 "></polyline>
<polyline clip-path="url(#clip280)" style="stroke:#000000; stroke-linecap:round; stroke-linejoin:round; stroke-width:4; stroke-opacity:1; fill:none" points="277.24,335.65 296.138,335.65 "></polyline>
<polyline clip-path="url(#clip280)" style="stroke:#000000; stroke-linecap:round; stroke-linejoin:round; stroke-width:4; stroke-opacity:1; fill:none" points="277.24,87.7317 296.138,87.7317 "></polyline>
<path clip-path="url(#clip280)" d="M50.9921 1327.89 L88.0868 1327.89 L88.0868 1332.81 L50.9921 1332.81 L50.9921 1327.89 Z" fill="#000000" fill-rule="nonzero" fill-opacity="1"></path><path clip-path="url(#clip280)" d="M101.715 1344 L111.264 1344 L111.264 1311.05 L100.876 1313.13 L100.876 1307.81 L111.206 1305.72 L117.051 1305.72 L117.051 1344 L126.599 1344 L126.599 1348.92 L101.715 1348.92 L101.715 1344 Z" fill="#000000" fill-rule="nonzero" fill-opacity="1"></path><path clip-path="url(#clip280)" d="M143.44 1344 L163.839 1344 L163.839 1348.92 L136.408 1348.92 L136.408 1344 Q139.736 1340.56 145.465 1334.77 Q151.223 1328.96 152.699 1327.28 Q155.505 1324.13 156.605 1321.96 Q157.733 1319.76 157.733 1317.65 Q157.733 1314.2 155.303 1312.03 Q152.901 1309.86 149.024 1309.86 Q146.275 1309.86 143.208 1310.82 Q140.17 1311.77 136.698 1313.71 L136.698 1307.81 Q140.228 1306.39 143.295 1305.67 Q146.362 1304.94 148.908 1304.94 Q155.621 1304.94 159.614 1308.3 Q163.607 1311.66 163.607 1317.27 Q163.607 1319.93 162.595 1322.33 Q161.611 1324.71 158.978 1327.95 Q158.254 1328.79 154.377 1332.81 Q150.5 1336.8 143.44 1344 Z" fill="#000000" fill-rule="nonzero" fill-opacity="1"></path><path clip-path="url(#clip280)" d="M176.165 1305.72 L199.111 1305.72 L199.111 1310.64 L181.518 1310.64 L181.518 1321.23 Q182.791 1320.8 184.064 1320.6 Q185.337 1320.36 186.611 1320.36 Q193.844 1320.36 198.069 1324.33 Q202.293 1328.29 202.293 1335.06 Q202.293 1342.04 197.953 1345.91 Q193.613 1349.76 185.714 1349.76 Q182.994 1349.76 180.158 1349.3 Q177.351 1348.84 174.342 1347.91 L174.342 1342.04 Q176.946 1343.46 179.724 1344.15 Q182.502 1344.84 185.598 1344.84 Q190.604 1344.84 193.526 1342.21 Q196.449 1339.58 196.449 1335.06 Q196.449 1330.55 193.526 1327.92 Q190.604 1325.28 185.598 1325.28 Q183.254 1325.28 180.91 1325.8 Q178.596 1326.33 176.165 1327.43 L176.165 1305.72 Z" fill="#000000" fill-rule="nonzero" fill-opacity="1"></path><path clip-path="url(#clip280)" d="M226.309 1309.57 Q221.796 1309.57 219.51 1314.03 Q217.253 1318.46 217.253 1327.37 Q217.253 1336.25 219.51 1340.71 Q221.796 1345.13 226.309 1345.13 Q230.852 1345.13 233.109 1340.71 Q235.395 1336.25 235.395 1327.37 Q235.395 1318.46 233.109 1314.03 Q230.852 1309.57 226.309 1309.57 M226.309 1304.94 Q233.572 1304.94 237.392 1310.7 Q241.24 1316.43 241.24 1327.37 Q241.24 1338.28 237.392 1344.03 Q233.572 1349.76 226.309 1349.76 Q219.047 1349.76 215.198 1344.03 Q211.379 1338.28 211.379 1327.37 Q211.379 1316.43 215.198 1310.7 Q219.047 1304.94 226.309 1304.94 Z" fill="#000000" fill-rule="nonzero" fill-opacity="1"></path><path clip-path="url(#clip280)" d="M50.9921 1079.97 L88.0868 1079.97 L88.0868 1084.89 L50.9921 1084.89 L50.9921 1079.97 Z" fill="#000000" fill-rule="nonzero" fill-opacity="1"></path><path clip-path="url(#clip280)" d="M101.715 1096.09 L111.264 1096.09 L111.264 1063.13 L100.876 1065.21 L100.876 1059.89 L111.206 1057.81 L117.051 1057.81 L117.051 1096.09 L126.599 1096.09 L126.599 1101.01 L101.715 1101.01 L101.715 1096.09 Z" fill="#000000" fill-rule="nonzero" fill-opacity="1"></path><path clip-path="url(#clip280)" d="M150.905 1061.65 Q146.391 1061.65 144.105 1066.11 Q141.848 1070.54 141.848 1079.45 Q141.848 1088.33 144.105 1092.79 Q146.391 1097.21 150.905 1097.21 Q155.448 1097.21 157.705 1092.79 Q159.99 1088.33 159.99 1079.45 Q159.99 1070.54 157.705 1066.11 Q155.448 1061.65 150.905 1061.65 M150.905 1057.02 Q158.167 1057.02 161.987 1062.78 Q165.835 1068.51 165.835 1079.45 Q165.835 1090.36 161.987 1096.12 Q158.167 1101.84 150.905 1101.84 Q143.642 1101.84 139.794 1096.12 Q135.974 1090.36 135.974 1079.45 Q135.974 1068.51 139.794 1062.78 Q143.642 1057.02 150.905 1057.02 Z" fill="#000000" fill-rule="nonzero" fill-opacity="1"></path><path clip-path="url(#clip280)" d="M188.607 1061.65 Q184.093 1061.65 181.807 1066.11 Q179.55 1070.54 179.55 1079.45 Q179.55 1088.33 181.807 1092.79 Q184.093 1097.21 188.607 1097.21 Q193.15 1097.21 195.407 1092.79 Q197.693 1088.33 197.693 1079.45 Q197.693 1070.54 195.407 1066.11 Q193.15 1061.65 188.607 1061.65 M188.607 1057.02 Q195.87 1057.02 199.689 1062.78 Q203.538 1068.51 203.538 1079.45 Q203.538 1090.36 199.689 1096.12 Q195.87 1101.84 188.607 1101.84 Q181.344 1101.84 177.496 1096.12 Q173.677 1090.36 173.677 1079.45 Q173.677 1068.51 177.496 1062.78 Q181.344 1057.02 188.607 1057.02 Z" fill="#000000" fill-rule="nonzero" fill-opacity="1"></path><path clip-path="url(#clip280)" d="M226.309 1061.65 Q221.796 1061.65 219.51 1066.11 Q217.253 1070.54 217.253 1079.45 Q217.253 1088.33 219.51 1092.79 Q221.796 1097.21 226.309 1097.21 Q230.852 1097.21 233.109 1092.79 Q235.395 1088.33 235.395 1079.45 Q235.395 1070.54 233.109 1066.11 Q230.852 1061.65 226.309 1061.65 M226.309 1057.02 Q233.572 1057.02 237.392 1062.78 Q241.24 1068.51 241.24 1079.45 Q241.24 1090.36 237.392 1096.12 Q233.572 1101.84 226.309 1101.84 Q219.047 1101.84 215.198 1096.12 Q211.379 1090.36 211.379 1079.45 Q211.379 1068.51 215.198 1062.78 Q219.047 1057.02 226.309 1057.02 Z" fill="#000000" fill-rule="nonzero" fill-opacity="1"></path><path clip-path="url(#clip280)" d="M88.6945 832.051 L125.789 832.051 L125.789 836.97 L88.6945 836.97 L88.6945 832.051 Z" fill="#000000" fill-rule="nonzero" fill-opacity="1"></path><path clip-path="url(#clip280)" d="M136.929 809.887 L164.707 809.887 L164.707 812.375 L149.024 853.087 L142.919 853.087 L157.676 814.806 L136.929 814.806 L136.929 809.887 Z" fill="#000000" fill-rule="nonzero" fill-opacity="1"></path><path clip-path="url(#clip280)" d="M176.165 809.887 L199.111 809.887 L199.111 814.806 L181.518 814.806 L181.518 825.396 Q182.791 824.962 184.064 824.76 Q185.337 824.528 186.611 824.528 Q193.844 824.528 198.069 828.492 Q202.293 832.456 202.293 839.227 Q202.293 846.2 197.953 850.078 Q193.613 853.926 185.714 853.926 Q182.994 853.926 180.158 853.463 Q177.351 853 174.342 852.074 L174.342 846.2 Q176.946 847.618 179.724 848.313 Q182.502 849.007 185.598 849.007 Q190.604 849.007 193.526 846.374 Q196.449 843.741 196.449 839.227 Q196.449 834.713 193.526 832.08 Q190.604 829.447 185.598 829.447 Q183.254 829.447 180.91 829.968 Q178.596 830.489 176.165 831.588 L176.165 809.887 Z" fill="#000000" fill-rule="nonzero" fill-opacity="1"></path><path clip-path="url(#clip280)" d="M226.309 813.735 Q221.796 813.735 219.51 818.191 Q217.253 822.618 217.253 831.53 Q217.253 840.413 219.51 844.869 Q221.796 849.297 226.309 849.297 Q230.852 849.297 233.109 844.869 Q235.395 840.413 235.395 831.53 Q235.395 822.618 233.109 818.191 Q230.852 813.735 226.309 813.735 M226.309 809.106 Q233.572 809.106 237.392 814.864 Q241.24 820.593 241.24 831.53 Q241.24 842.439 237.392 848.197 Q233.572 853.926 226.309 853.926 Q219.047 853.926 215.198 848.197 Q211.379 842.439 211.379 831.53 Q211.379 820.593 215.198 814.864 Q219.047 809.106 226.309 809.106 Z" fill="#000000" fill-rule="nonzero" fill-opacity="1"></path><path clip-path="url(#clip280)" d="M88.6945 584.133 L125.789 584.133 L125.789 589.052 L88.6945 589.052 L88.6945 584.133 Z" fill="#000000" fill-rule="nonzero" fill-opacity="1"></path><path clip-path="url(#clip280)" d="M138.463 561.969 L161.408 561.969 L161.408 566.888 L143.816 566.888 L143.816 577.478 Q145.089 577.044 146.362 576.841 Q147.635 576.61 148.908 576.61 Q156.142 576.61 160.367 580.574 Q164.591 584.538 164.591 591.309 Q164.591 598.282 160.251 602.159 Q155.911 606.008 148.011 606.008 Q145.291 606.008 142.456 605.545 Q139.649 605.082 136.64 604.156 L136.64 598.282 Q139.244 599.7 142.022 600.394 Q144.799 601.089 147.896 601.089 Q152.901 601.089 155.824 598.456 Q158.746 595.823 158.746 591.309 Q158.746 586.795 155.824 584.162 Q152.901 581.529 147.896 581.529 Q145.552 581.529 143.208 582.049 Q140.893 582.57 138.463 583.67 L138.463 561.969 Z" fill="#000000" fill-rule="nonzero" fill-opacity="1"></path><path clip-path="url(#clip280)" d="M188.607 565.817 Q184.093 565.817 181.807 570.273 Q179.55 574.7 179.55 583.612 Q179.55 592.495 181.807 596.951 Q184.093 601.378 188.607 601.378 Q193.15 601.378 195.407 596.951 Q197.693 592.495 197.693 583.612 Q197.693 574.7 195.407 570.273 Q193.15 565.817 188.607 565.817 M188.607 561.187 Q195.87 561.187 199.689 566.945 Q203.538 572.675 203.538 583.612 Q203.538 594.52 199.689 600.279 Q195.87 606.008 188.607 606.008 Q181.344 606.008 177.496 600.279 Q173.677 594.52 173.677 583.612 Q173.677 572.675 177.496 566.945 Q181.344 561.187 188.607 561.187 Z" fill="#000000" fill-rule="nonzero" fill-opacity="1"></path><path clip-path="url(#clip280)" d="M226.309 565.817 Q221.796 565.817 219.51 570.273 Q217.253 574.7 217.253 583.612 Q217.253 592.495 219.51 596.951 Q221.796 601.378 226.309 601.378 Q230.852 601.378 233.109 596.951 Q235.395 592.495 235.395 583.612 Q235.395 574.7 233.109 570.273 Q230.852 565.817 226.309 565.817 M226.309 561.187 Q233.572 561.187 237.392 566.945 Q241.24 572.675 241.24 583.612 Q241.24 594.52 237.392 600.279 Q233.572 606.008 226.309 606.008 Q219.047 606.008 215.198 600.279 Q211.379 594.52 211.379 583.612 Q211.379 572.675 215.198 566.945 Q219.047 561.187 226.309 561.187 Z" fill="#000000" fill-rule="nonzero" fill-opacity="1"></path><path clip-path="url(#clip280)" d="M88.6945 336.214 L125.789 336.214 L125.789 341.133 L88.6945 341.133 L88.6945 336.214 Z" fill="#000000" fill-rule="nonzero" fill-opacity="1"></path><path clip-path="url(#clip280)" d="M143.44 352.331 L163.839 352.331 L163.839 357.25 L136.408 357.25 L136.408 352.331 Q139.736 348.888 145.465 343.101 Q151.223 337.285 152.699 335.607 Q155.505 332.453 156.605 330.283 Q157.733 328.084 157.733 325.971 Q157.733 322.528 155.303 320.358 Q152.901 318.188 149.024 318.188 Q146.275 318.188 143.208 319.143 Q140.17 320.098 136.698 322.036 L136.698 316.133 Q140.228 314.716 143.295 313.992 Q146.362 313.269 148.908 313.269 Q155.621 313.269 159.614 316.625 Q163.607 319.982 163.607 325.595 Q163.607 328.257 162.595 330.659 Q161.611 333.032 158.978 336.272 Q158.254 337.111 154.377 341.133 Q150.5 345.126 143.44 352.331 Z" fill="#000000" fill-rule="nonzero" fill-opacity="1"></path><path clip-path="url(#clip280)" d="M176.165 314.05 L199.111 314.05 L199.111 318.969 L181.518 318.969 L181.518 329.559 Q182.791 329.125 184.064 328.923 Q185.337 328.691 186.611 328.691 Q193.844 328.691 198.069 332.655 Q202.293 336.619 202.293 343.39 Q202.293 350.364 197.953 354.241 Q193.613 358.089 185.714 358.089 Q182.994 358.089 180.158 357.626 Q177.351 357.163 174.342 356.237 L174.342 350.364 Q176.946 351.781 179.724 352.476 Q182.502 353.17 185.598 353.17 Q190.604 353.17 193.526 350.537 Q196.449 347.904 196.449 343.39 Q196.449 338.876 193.526 336.243 Q190.604 333.61 185.598 333.61 Q183.254 333.61 180.91 334.131 Q178.596 334.652 176.165 335.751 L176.165 314.05 Z" fill="#000000" fill-rule="nonzero" fill-opacity="1"></path><path clip-path="url(#clip280)" d="M226.309 317.899 Q221.796 317.899 219.51 322.355 Q217.253 326.782 217.253 335.694 Q217.253 344.577 219.51 349.033 Q221.796 353.46 226.309 353.46 Q230.852 353.46 233.109 349.033 Q235.395 344.577 235.395 335.694 Q235.395 326.782 233.109 322.355 Q230.852 317.899 226.309 317.899 M226.309 313.269 Q233.572 313.269 237.392 319.027 Q241.24 324.756 241.24 335.694 Q241.24 346.602 237.392 352.36 Q233.572 358.089 226.309 358.089 Q219.047 358.089 215.198 352.36 Q211.379 346.602 211.379 335.694 Q211.379 324.756 215.198 319.027 Q219.047 313.269 226.309 313.269 Z" fill="#000000" fill-rule="nonzero" fill-opacity="1"></path><path clip-path="url(#clip280)" d="M226.309 69.9801 Q221.796 69.9801 219.51 74.4361 Q217.253 78.8632 217.253 87.7752 Q217.253 96.6582 219.51 101.114 Q221.796 105.541 226.309 105.541 Q230.852 105.541 233.109 101.114 Q235.395 96.6582 235.395 87.7752 Q235.395 78.8632 233.109 74.4361 Q230.852 69.9801 226.309 69.9801 M226.309 65.3505 Q233.572 65.3505 237.392 71.1086 Q241.24 76.8377 241.24 87.7752 Q241.24 98.6837 237.392 104.442 Q233.572 110.171 226.309 110.171 Q219.047 110.171 215.198 104.442 Q211.379 98.6837 211.379 87.7752 Q211.379 76.8377 215.198 71.1086 Q219.047 65.3505 226.309 65.3505 Z" fill="#000000" fill-rule="nonzero" fill-opacity="1"></path><polyline clip-path="url(#clip282)" style="stroke:#0000ff; stroke-linecap:round; stroke-linejoin:round; stroke-width:10; stroke-opacity:1; fill:none" points="335.981,390.495 630.694,650.597 803.091,868.723 925.408,1013.7 1020.28,1056.16 1097.8,1022.28 1163.35,972.684 1220.12,915.689 1270.2,856.51 1315,805.678 1355.52,756.599 1392.52,707.619 1426.55,659.804 1458.06,614.46 1487.39,578.058 1514.83,541.913 1540.61,505.767 1564.91,469.568 1587.9,435.241 1609.71,403.488 1630.46,374.321 1650.24,346.694 1669.14,320.646 1687.23,296.192 1704.59,273.324 1721.26,252.02 1737.31,232.474 1752.77,214.785 1767.69,198.426 1782.11,183.287 1796.05,169.36 1809.55,156.63 1822.63,145.068 1835.32,134.612 1847.65,125.321 1859.63,117.202 1871.28,110.129 1882.62,104.078 1893.66,99.0227 1904.42,94.936 1914.92,91.791 1925.17,89.5604 1935.17,88.217 1944.95,87.734 1954.5,87.7317 1963.85,87.7317 1972.99,87.7317 1981.94,87.7317 1990.71,87.7317 1999.3,87.7317 2007.72,87.7317 2015.98,87.7317 2024.08,87.7317 2032.02,87.7317 2039.83,87.7317 2047.49,87.7317 2055.01,87.7317 2062.41,87.7317 2069.68,87.7317 2076.82,87.7317 2083.85,87.7317 2090.76,87.7317 2097.57,87.7317 2104.26,87.7317 2110.85,87.7317 2117.35,87.7317 2123.74,87.7317 2130.04,87.7317 2136.25,87.7317 2142.36,87.7317 2148.39,87.7317 2154.34,87.7317 2160.21,87.7317 2165.99,87.7317 2171.7,87.7317 2177.33,87.7317 2182.89,87.7317 2188.37,87.7317 2193.79,87.7317 2199.14,87.7317 2204.42,87.7317 2209.64,87.7317 2214.79,87.7317 2219.88,87.7317 2224.91,87.7317 2229.89,87.7317 2234.8,87.7317 2239.66,87.7317 2244.47,87.7317 2249.22,87.7317 2253.92,87.7317 2258.56,87.7317 2263.16,87.7317 2267.71,87.7317 2272.21,87.7317 2276.66,87.7317 2281.06,87.7317 2285.43,87.7317 2289.74,87.7317 2294.01,87.7317 "></polyline>
<polyline clip-path="url(#clip282)" style="stroke:#ffa500; stroke-linecap:round; stroke-linejoin:round; stroke-width:10; stroke-opacity:1; fill:none" points="335.981,570.693 630.694,912.778 803.091,1187 925.408,1369.31 1020.28,1437.32 1097.8,1425.11 1163.35,1405.72 1220.12,1383.6 1270.2,1349.57 1315,1318.58 1355.52,1278.57 1392.52,1240.67 1426.55,1205.25 1458.06,1172.94 1487.39,1144.39 1514.83,1114.87 1540.61,1087.99 1564.91,1063.63 1587.9,1041.64 1609.71,1022.54 1630.46,1005.81 1650.24,989.841 1669.14,975.765 1687.23,963.454 1704.59,952.794 1721.26,943.679 1737.31,935.881 1752.77,929.133 1767.69,923.198 1782.11,918.477 1796.05,914.897 1809.55,912.39 1822.63,910.891 1835.32,910.342 1847.65,910.366 1859.63,909.056 1871.28,908.52 1882.62,908.747 1893.66,909.726 1904.42,905.769 1914.92,900.284 1925.17,895.57 1935.17,891.593 1944.95,888.321 1954.5,884.449 1963.85,879.404 1972.99,874.424 1981.94,869.507 1990.71,864.652 1999.3,859.856 2007.72,855.117 2015.98,850.433 2024.08,845.803 2032.02,841.226 2039.83,836.699 2047.49,831.442 2055.01,824.531 2062.41,817.693 2069.68,810.925 2076.82,804.225 2083.85,797.593 2090.76,791.025 2097.57,784.52 2104.26,778.078 2110.85,771.695 2117.35,765.371 2123.74,759.105 2130.04,752.894 2136.25,746.43 2142.36,745.857 2148.39,754.389 2154.34,762.85 2160.21,771.241 2165.99,779.563 2171.7,787.818 2177.33,796.007 2182.89,804.132 2188.37,812.193 2193.79,820.193 2199.14,828.132 2204.42,829.028 2209.64,823.908 2214.79,818.374 2219.88,812.207 2224.91,806.084 2229.89,800.004 2234.8,793.967 2239.66,787.971 2244.47,782.016 2249.22,776.101 2253.92,770.225 2258.56,764.388 2263.16,758.588 2267.71,752.827 2272.21,747.101 2276.66,741.412 2281.06,735.758 2285.43,730.14 2289.74,724.3 2294.01,718.245 "></polyline>
<path clip-path="url(#clip280)" d="M1853.89 1430.12 L2283.57 1430.12 L2283.57 1274.6 L1853.89 1274.6  Z" fill="#ffffff" fill-rule="evenodd" fill-opacity="1"></path>
<polyline clip-path="url(#clip280)" style="stroke:#000000; stroke-linecap:round; stroke-linejoin:round; stroke-width:4; stroke-opacity:1; fill:none" points="1853.89,1430.12 2283.57,1430.12 2283.57,1274.6 1853.89,1274.6 1853.89,1430.12 "></polyline>
<polyline clip-path="url(#clip280)" style="stroke:#0000ff; stroke-linecap:round; stroke-linejoin:round; stroke-width:10; stroke-opacity:1; fill:none" points="1876.95,1326.44 2015.32,1326.44 "></polyline>
<path clip-path="url(#clip280)" d="M2051.79 1330.69 Q2046.62 1330.69 2044.63 1331.87 Q2042.64 1333.05 2042.64 1335.9 Q2042.64 1338.17 2044.12 1339.51 Q2045.63 1340.83 2048.2 1340.83 Q2051.74 1340.83 2053.87 1338.33 Q2056.02 1335.81 2056.02 1331.64 L2056.02 1330.69 L2051.79 1330.69 M2060.28 1328.93 L2060.28 1343.72 L2056.02 1343.72 L2056.02 1339.79 Q2054.56 1342.15 2052.39 1343.28 Q2050.21 1344.39 2047.06 1344.39 Q2043.08 1344.39 2040.72 1342.17 Q2038.38 1339.93 2038.38 1336.18 Q2038.38 1331.8 2041.3 1329.58 Q2044.24 1327.36 2050.05 1327.36 L2056.02 1327.36 L2056.02 1326.94 Q2056.02 1324 2054.08 1322.4 Q2052.16 1320.78 2048.66 1320.78 Q2046.44 1320.78 2044.33 1321.32 Q2042.22 1321.85 2040.28 1322.91 L2040.28 1318.98 Q2042.62 1318.07 2044.82 1317.63 Q2047.02 1317.17 2049.1 1317.17 Q2054.72 1317.17 2057.5 1320.09 Q2060.28 1323 2060.28 1328.93 Z" fill="#000000" fill-rule="nonzero" fill-opacity="1"></path><path clip-path="url(#clip280)" d="M2090.6 1328.07 L2090.6 1343.72 L2086.35 1343.72 L2086.35 1328.21 Q2086.35 1324.53 2084.91 1322.7 Q2083.47 1320.88 2080.6 1320.88 Q2077.16 1320.88 2075.16 1323.07 Q2073.17 1325.27 2073.17 1329.07 L2073.17 1343.72 L2068.89 1343.72 L2068.89 1317.8 L2073.17 1317.8 L2073.17 1321.82 Q2074.7 1319.49 2076.76 1318.33 Q2078.85 1317.17 2081.55 1317.17 Q2086.02 1317.17 2088.31 1319.95 Q2090.6 1322.7 2090.6 1328.07 Z" fill="#000000" fill-rule="nonzero" fill-opacity="1"></path><path clip-path="url(#clip280)" d="M2110.88 1330.69 Q2105.72 1330.69 2103.73 1331.87 Q2101.74 1333.05 2101.74 1335.9 Q2101.74 1338.17 2103.22 1339.51 Q2104.72 1340.83 2107.29 1340.83 Q2110.84 1340.83 2112.97 1338.33 Q2115.12 1335.81 2115.12 1331.64 L2115.12 1330.69 L2110.88 1330.69 M2119.38 1328.93 L2119.38 1343.72 L2115.12 1343.72 L2115.12 1339.79 Q2113.66 1342.15 2111.48 1343.28 Q2109.31 1344.39 2106.16 1344.39 Q2102.18 1344.39 2099.82 1342.17 Q2097.48 1339.93 2097.48 1336.18 Q2097.48 1331.8 2100.4 1329.58 Q2103.34 1327.36 2109.15 1327.36 L2115.12 1327.36 L2115.12 1326.94 Q2115.12 1324 2113.17 1322.4 Q2111.25 1320.78 2107.76 1320.78 Q2105.53 1320.78 2103.43 1321.32 Q2101.32 1321.85 2099.38 1322.91 L2099.38 1318.98 Q2101.72 1318.07 2103.91 1317.63 Q2106.11 1317.17 2108.2 1317.17 Q2113.82 1317.17 2116.6 1320.09 Q2119.38 1323 2119.38 1328.93 Z" fill="#000000" fill-rule="nonzero" fill-opacity="1"></path><path clip-path="url(#clip280)" d="M2128.15 1307.7 L2132.41 1307.7 L2132.41 1343.72 L2128.15 1343.72 L2128.15 1307.7 Z" fill="#000000" fill-rule="nonzero" fill-opacity="1"></path><path clip-path="url(#clip280)" d="M2152.11 1346.13 Q2150.3 1350.76 2148.59 1352.17 Q2146.88 1353.58 2144.01 1353.58 L2140.6 1353.58 L2140.6 1350.02 L2143.1 1350.02 Q2144.86 1350.02 2145.84 1349.19 Q2146.81 1348.35 2147.99 1345.25 L2148.75 1343.31 L2138.27 1317.8 L2142.78 1317.8 L2150.88 1338.07 L2158.98 1317.8 L2163.5 1317.8 L2152.11 1346.13 Z" fill="#000000" fill-rule="nonzero" fill-opacity="1"></path><path clip-path="url(#clip280)" d="M2173.59 1310.44 L2173.59 1317.8 L2182.36 1317.8 L2182.36 1321.11 L2173.59 1321.11 L2173.59 1335.18 Q2173.59 1338.35 2174.45 1339.25 Q2175.33 1340.16 2177.99 1340.16 L2182.36 1340.16 L2182.36 1343.72 L2177.99 1343.72 Q2173.06 1343.72 2171.18 1341.89 Q2169.31 1340.04 2169.31 1335.18 L2169.31 1321.11 L2166.18 1321.11 L2166.18 1317.8 L2169.31 1317.8 L2169.31 1310.44 L2173.59 1310.44 Z" fill="#000000" fill-rule="nonzero" fill-opacity="1"></path><path clip-path="url(#clip280)" d="M2187.96 1317.8 L2192.22 1317.8 L2192.22 1343.72 L2187.96 1343.72 L2187.96 1317.8 M2187.96 1307.7 L2192.22 1307.7 L2192.22 1313.1 L2187.96 1313.1 L2187.96 1307.7 Z" fill="#000000" fill-rule="nonzero" fill-opacity="1"></path><path clip-path="url(#clip280)" d="M2219.79 1318.79 L2219.79 1322.77 Q2217.99 1321.78 2216.16 1321.29 Q2214.35 1320.78 2212.5 1320.78 Q2208.36 1320.78 2206.07 1323.42 Q2203.77 1326.04 2203.77 1330.78 Q2203.77 1335.53 2206.07 1338.17 Q2208.36 1340.78 2212.5 1340.78 Q2214.35 1340.78 2216.16 1340.3 Q2217.99 1339.79 2219.79 1338.79 L2219.79 1342.73 Q2218.01 1343.56 2216.09 1343.98 Q2214.19 1344.39 2212.04 1344.39 Q2206.18 1344.39 2202.73 1340.71 Q2199.28 1337.03 2199.28 1330.78 Q2199.28 1324.44 2202.76 1320.81 Q2206.25 1317.17 2212.32 1317.17 Q2214.28 1317.17 2216.16 1317.59 Q2218.03 1317.98 2219.79 1318.79 Z" fill="#000000" fill-rule="nonzero" fill-opacity="1"></path><path clip-path="url(#clip280)" d="M2238.98 1330.69 Q2233.82 1330.69 2231.83 1331.87 Q2229.84 1333.05 2229.84 1335.9 Q2229.84 1338.17 2231.32 1339.51 Q2232.83 1340.83 2235.4 1340.83 Q2238.94 1340.83 2241.07 1338.33 Q2243.22 1335.81 2243.22 1331.64 L2243.22 1330.69 L2238.98 1330.69 M2247.48 1328.93 L2247.48 1343.72 L2243.22 1343.72 L2243.22 1339.79 Q2241.76 1342.15 2239.58 1343.28 Q2237.41 1344.39 2234.26 1344.39 Q2230.28 1344.39 2227.92 1342.17 Q2225.58 1339.93 2225.58 1336.18 Q2225.58 1331.8 2228.5 1329.58 Q2231.44 1327.36 2237.25 1327.36 L2243.22 1327.36 L2243.22 1326.94 Q2243.22 1324 2241.27 1322.4 Q2239.35 1320.78 2235.86 1320.78 Q2233.64 1320.78 2231.53 1321.32 Q2229.42 1321.85 2227.48 1322.91 L2227.48 1318.98 Q2229.82 1318.07 2232.02 1317.63 Q2234.21 1317.17 2236.3 1317.17 Q2241.92 1317.17 2244.7 1320.09 Q2247.48 1323 2247.48 1328.93 Z" fill="#000000" fill-rule="nonzero" fill-opacity="1"></path><path clip-path="url(#clip280)" d="M2256.25 1307.7 L2260.51 1307.7 L2260.51 1343.72 L2256.25 1343.72 L2256.25 1307.7 Z" fill="#000000" fill-rule="nonzero" fill-opacity="1"></path><polyline clip-path="url(#clip280)" style="stroke:#ffa500; stroke-linecap:round; stroke-linejoin:round; stroke-width:10; stroke-opacity:1; fill:none" points="1876.95,1378.28 2015.32,1378.28 "></polyline>
<path clip-path="url(#clip280)" d="M2050.28 1372.62 Q2046.85 1372.62 2044.86 1375.31 Q2042.87 1377.97 2042.87 1382.62 Q2042.87 1387.28 2044.84 1389.96 Q2046.83 1392.62 2050.28 1392.62 Q2053.68 1392.62 2055.67 1389.94 Q2057.66 1387.25 2057.66 1382.62 Q2057.66 1378.02 2055.67 1375.33 Q2053.68 1372.62 2050.28 1372.62 M2050.28 1369.01 Q2055.84 1369.01 2059.01 1372.62 Q2062.18 1376.23 2062.18 1382.62 Q2062.18 1388.99 2059.01 1392.62 Q2055.84 1396.23 2050.28 1396.23 Q2044.7 1396.23 2041.53 1392.62 Q2038.38 1388.99 2038.38 1382.62 Q2038.38 1376.23 2041.53 1372.62 Q2044.7 1369.01 2050.28 1369.01 Z" fill="#000000" fill-rule="nonzero" fill-opacity="1"></path><path clip-path="url(#clip280)" d="M2084.26 1373.62 Q2083.54 1373.2 2082.69 1373.02 Q2081.85 1372.81 2080.84 1372.81 Q2077.22 1372.81 2075.28 1375.17 Q2073.36 1377.51 2073.36 1381.91 L2073.36 1395.56 L2069.08 1395.56 L2069.08 1369.64 L2073.36 1369.64 L2073.36 1373.66 Q2074.7 1371.3 2076.85 1370.17 Q2079.01 1369.01 2082.09 1369.01 Q2082.53 1369.01 2083.06 1369.08 Q2083.59 1369.13 2084.24 1369.24 L2084.26 1373.62 Z" fill="#000000" fill-rule="nonzero" fill-opacity="1"></path><path clip-path="url(#clip280)" d="M2088.73 1369.64 L2092.99 1369.64 L2092.99 1395.56 L2088.73 1395.56 L2088.73 1369.64 M2088.73 1359.54 L2092.99 1359.54 L2092.99 1364.94 L2088.73 1364.94 L2088.73 1359.54 Z" fill="#000000" fill-rule="nonzero" fill-opacity="1"></path><path clip-path="url(#clip280)" d="M2118.96 1382.3 Q2118.96 1377.67 2117.04 1375.12 Q2115.14 1372.58 2111.69 1372.58 Q2108.27 1372.58 2106.34 1375.12 Q2104.45 1377.67 2104.45 1382.3 Q2104.45 1386.91 2106.34 1389.45 Q2108.27 1392 2111.69 1392 Q2115.14 1392 2117.04 1389.45 Q2118.96 1386.91 2118.96 1382.3 M2123.22 1392.34 Q2123.22 1398.97 2120.28 1402.18 Q2117.34 1405.42 2111.28 1405.42 Q2109.03 1405.42 2107.04 1405.08 Q2105.05 1404.75 2103.17 1404.06 L2103.17 1399.91 Q2105.05 1400.93 2106.88 1401.42 Q2108.71 1401.9 2110.6 1401.9 Q2114.79 1401.9 2116.88 1399.71 Q2118.96 1397.53 2118.96 1393.11 L2118.96 1391 Q2117.64 1393.29 2115.58 1394.43 Q2113.52 1395.56 2110.65 1395.56 Q2105.88 1395.56 2102.97 1391.93 Q2100.05 1388.29 2100.05 1382.3 Q2100.05 1376.28 2102.97 1372.65 Q2105.88 1369.01 2110.65 1369.01 Q2113.52 1369.01 2115.58 1370.15 Q2117.64 1371.28 2118.96 1373.57 L2118.96 1369.64 L2123.22 1369.64 L2123.22 1392.34 Z" fill="#000000" fill-rule="nonzero" fill-opacity="1"></path><path clip-path="url(#clip280)" d="M2131.99 1369.64 L2136.25 1369.64 L2136.25 1395.56 L2131.99 1395.56 L2131.99 1369.64 M2131.99 1359.54 L2136.25 1359.54 L2136.25 1364.94 L2131.99 1364.94 L2131.99 1359.54 Z" fill="#000000" fill-rule="nonzero" fill-opacity="1"></path><path clip-path="url(#clip280)" d="M2166.71 1379.91 L2166.71 1395.56 L2162.46 1395.56 L2162.46 1380.05 Q2162.46 1376.37 2161.02 1374.54 Q2159.59 1372.72 2156.72 1372.72 Q2153.27 1372.72 2151.28 1374.91 Q2149.28 1377.11 2149.28 1380.91 L2149.28 1395.56 L2145 1395.56 L2145 1369.64 L2149.28 1369.64 L2149.28 1373.66 Q2150.81 1371.33 2152.87 1370.17 Q2154.96 1369.01 2157.66 1369.01 Q2162.13 1369.01 2164.42 1371.79 Q2166.71 1374.54 2166.71 1379.91 Z" fill="#000000" fill-rule="nonzero" fill-opacity="1"></path><path clip-path="url(#clip280)" d="M2186.99 1382.53 Q2181.83 1382.53 2179.84 1383.71 Q2177.85 1384.89 2177.85 1387.74 Q2177.85 1390.01 2179.33 1391.35 Q2180.84 1392.67 2183.4 1392.67 Q2186.95 1392.67 2189.08 1390.17 Q2191.23 1387.65 2191.23 1383.48 L2191.23 1382.53 L2186.99 1382.53 M2195.49 1380.77 L2195.49 1395.56 L2191.23 1395.56 L2191.23 1391.63 Q2189.77 1393.99 2187.59 1395.12 Q2185.42 1396.23 2182.27 1396.23 Q2178.29 1396.23 2175.93 1394.01 Q2173.59 1391.77 2173.59 1388.02 Q2173.59 1383.64 2176.51 1381.42 Q2179.45 1379.2 2185.26 1379.2 L2191.23 1379.2 L2191.23 1378.78 Q2191.23 1375.84 2189.28 1374.24 Q2187.36 1372.62 2183.87 1372.62 Q2181.65 1372.62 2179.54 1373.16 Q2177.43 1373.69 2175.49 1374.75 L2175.49 1370.82 Q2177.83 1369.91 2180.03 1369.47 Q2182.22 1369.01 2184.31 1369.01 Q2189.93 1369.01 2192.71 1371.93 Q2195.49 1374.84 2195.49 1380.77 Z" fill="#000000" fill-rule="nonzero" fill-opacity="1"></path><path clip-path="url(#clip280)" d="M2204.26 1359.54 L2208.52 1359.54 L2208.52 1395.56 L2204.26 1395.56 L2204.26 1359.54 Z" fill="#000000" fill-rule="nonzero" fill-opacity="1"></path></svg>