<svg xmlns="http://www.w3.org/2000/svg" xmlns:xlink="http://www.w3.org/1999/xlink" width="600" height="400" viewBox="0 0 2400 1600">
<defs>
  <clipPath id="clip130">
    <rect x="0" y="0" width="2400" height="1600"></rect>
  </clipPath>
</defs>
<path clip-path="url(#clip130)" d="M0 1600 L2400 1600 L2400 0 L0 0  Z" fill="#ffffff" fill-rule="evenodd" fill-opacity="1"></path>
<defs>
  <clipPath id="clip131">
    <rect x="480" y="0" width="1681" height="1600"></rect>
  </clipPath>
</defs>
<path clip-path="url(#clip130)" d="M302.806 1414.54 L2352.76 1414.54 L2352.76 47.2441 L302.806 47.2441  Z" fill="#ffffff" fill-rule="evenodd" fill-opacity="1"></path>
<defs>
  <clipPath id="clip132">
    <rect x="302" y="47" width="2051" height="1368"></rect>
  </clipPath>
</defs>
<polyline clip-path="url(#clip132)" style="stroke:#000000; stroke-linecap:round; stroke-linejoin:round; stroke-width:2; stroke-opacity:0.1; fill:none" points="360.823,1414.54 360.823,47.2441 "></polyline>
<polyline clip-path="url(#clip132)" style="stroke:#000000; stroke-linecap:round; stroke-linejoin:round; stroke-width:2; stroke-opacity:0.1; fill:none" points="1327.78,1414.54 1327.78,47.2441 "></polyline>
<polyline clip-path="url(#clip132)" style="stroke:#000000; stroke-linecap:round; stroke-linejoin:round; stroke-width:2; stroke-opacity:0.1; fill:none" points="2294.74,1414.54 2294.74,47.2441 "></polyline>
<polyline clip-path="url(#clip130)" style="stroke:#000000; stroke-linecap:round; stroke-linejoin:round; stroke-width:4; stroke-opacity:1; fill:none" points="302.806,1414.54 2352.76,1414.54 "></polyline>
<polyline clip-path="url(#clip130)" style="stroke:#000000; stroke-linecap:round; stroke-linejoin:round; stroke-width:4; stroke-opacity:1; fill:none" points="360.823,1414.54 360.823,1395.64 "></polyline>
<polyline clip-path="url(#clip130)" style="stroke:#000000; stroke-linecap:round; stroke-linejoin:round; stroke-width:4; stroke-opacity:1; fill:none" points="1327.78,1414.54 1327.78,1395.64 "></polyline>
<polyline clip-path="url(#clip130)" style="stroke:#000000; stroke-linecap:round; stroke-linejoin:round; stroke-width:4; stroke-opacity:1; fill:none" points="2294.74,1414.54 2294.74,1395.64 "></polyline>
<path clip-path="url(#clip130)" d="M329.183 1482.82 L338.731 1482.82 L338.731 1449.86 L328.344 1451.95 L328.344 1446.62 L338.673 1444.54 L344.518 1444.54 L344.518 1482.82 L354.067 1482.82 L354.067 1487.74 L329.183 1487.74 L329.183 1482.82 Z" fill="#000000" fill-rule="nonzero" fill-opacity="1"></path><path clip-path="url(#clip130)" d="M378.372 1448.39 Q373.858 1448.39 371.572 1452.84 Q369.316 1457.27 369.316 1466.18 Q369.316 1475.07 371.572 1479.52 Q373.858 1483.95 378.372 1483.95 Q382.915 1483.95 385.172 1479.52 Q387.458 1475.07 387.458 1466.18 Q387.458 1457.27 385.172 1452.84 Q382.915 1448.39 378.372 1448.39 M378.372 1443.76 Q385.635 1443.76 389.454 1449.52 Q393.303 1455.25 393.303 1466.18 Q393.303 1477.09 389.454 1482.85 Q385.635 1488.58 378.372 1488.58 Q371.11 1488.58 367.261 1482.85 Q363.442 1477.09 363.442 1466.18 Q363.442 1455.25 367.261 1449.52 Q371.11 1443.76 378.372 1443.76 Z" fill="#000000" fill-rule="nonzero" fill-opacity="1"></path><path clip-path="url(#clip130)" d="M1277.29 1482.82 L1286.84 1482.82 L1286.84 1449.86 L1276.45 1451.95 L1276.45 1446.62 L1286.78 1444.54 L1292.62 1444.54 L1292.62 1482.82 L1302.17 1482.82 L1302.17 1487.74 L1277.29 1487.74 L1277.29 1482.82 Z" fill="#000000" fill-rule="nonzero" fill-opacity="1"></path><path clip-path="url(#clip130)" d="M1326.48 1448.39 Q1321.96 1448.39 1319.68 1452.84 Q1317.42 1457.27 1317.42 1466.18 Q1317.42 1475.07 1319.68 1479.52 Q1321.96 1483.95 1326.48 1483.95 Q1331.02 1483.95 1333.28 1479.52 Q1335.56 1475.07 1335.56 1466.18 Q1335.56 1457.27 1333.28 1452.84 Q1331.02 1448.39 1326.48 1448.39 M1326.48 1443.76 Q1333.74 1443.76 1337.56 1449.52 Q1341.41 1455.25 1341.41 1466.18 Q1341.41 1477.09 1337.56 1482.85 Q1333.74 1488.58 1326.48 1488.58 Q1319.22 1488.58 1315.37 1482.85 Q1311.55 1477.09 1311.55 1466.18 Q1311.55 1455.25 1315.37 1449.52 Q1319.22 1443.76 1326.48 1443.76 Z" fill="#000000" fill-rule="nonzero" fill-opacity="1"></path><path clip-path="url(#clip130)" d="M1364.18 1448.39 Q1359.67 1448.39 1357.38 1452.84 Q1355.12 1457.27 1355.12 1466.18 Q1355.12 1475.07 1357.38 1479.52 Q1359.67 1483.95 1364.18 1483.95 Q1368.72 1483.95 1370.98 1479.52 Q1373.27 1475.07 1373.27 1466.18 Q1373.27 1457.27 1370.98 1452.84 Q1368.72 1448.39 1364.18 1448.39 M1364.18 1443.76 Q1371.44 1443.76 1375.26 1449.52 Q1379.11 1455.25 1379.11 1466.18 Q1379.11 1477.09 1375.26 1482.85 Q1371.44 1488.58 1364.18 1488.58 Q1356.92 1488.58 1353.07 1482.85 Q1349.25 1477.09 1349.25 1466.18 Q1349.25 1455.25 1353.07 1449.52 Q1356.92 1443.76 1364.18 1443.76 Z" fill="#000000" fill-rule="nonzero" fill-opacity="1"></path><path clip-path="url(#clip130)" d="M2225.4 1482.82 L2234.94 1482.82 L2234.94 1449.86 L2224.56 1451.95 L2224.56 1446.62 L2234.89 1444.54 L2240.73 1444.54 L2240.73 1482.82 L2250.28 1482.82 L2250.28 1487.74 L2225.4 1487.74 L2225.4 1482.82 Z" fill="#000000" fill-rule="nonzero" fill-opacity="1"></path><path clip-path="url(#clip130)" d="M2274.59 1448.39 Q2270.07 1448.39 2267.79 1452.84 Q2265.53 1457.27 2265.53 1466.18 Q2265.53 1475.07 2267.79 1479.52 Q2270.07 1483.95 2274.59 1483.95 Q2279.13 1483.95 2281.38 1479.52 Q2283.67 1475.07 2283.67 1466.18 Q2283.67 1457.27 2281.38 1452.84 Q2279.13 1448.39 2274.59 1448.39 M2274.59 1443.76 Q2281.85 1443.76 2285.67 1449.52 Q2289.52 1455.25 2289.52 1466.18 Q2289.52 1477.09 2285.67 1482.85 Q2281.85 1488.58 2274.59 1488.58 Q2267.32 1488.58 2263.47 1482.85 Q2259.65 1477.09 2259.65 1466.18 Q2259.65 1455.25 2263.47 1449.52 Q2267.32 1443.76 2274.59 1443.76 Z" fill="#000000" fill-rule="nonzero" fill-opacity="1"></path><path clip-path="url(#clip130)" d="M2312.29 1448.39 Q2307.77 1448.39 2305.49 1452.84 Q2303.23 1457.27 2303.23 1466.18 Q2303.23 1475.07 2305.49 1479.52 Q2307.77 1483.95 2312.29 1483.95 Q2316.83 1483.95 2319.09 1479.52 Q2321.37 1475.07 2321.37 1466.18 Q2321.37 1457.27 2319.09 1452.84 Q2316.83 1448.39 2312.29 1448.39 M2312.29 1443.76 Q2319.55 1443.76 2323.37 1449.52 Q2327.22 1455.25 2327.22 1466.18 Q2327.22 1477.09 2323.37 1482.85 Q2319.55 1488.58 2312.29 1488.58 Q2305.02 1488.58 2301.18 1482.85 Q2297.36 1477.09 2297.36 1466.18 Q2297.36 1455.25 2301.18 1449.52 Q2305.02 1443.76 2312.29 1443.76 Z" fill="#000000" fill-rule="nonzero" fill-opacity="1"></path><path clip-path="url(#clip130)" d="M2349.99 1448.39 Q2345.48 1448.39 2343.19 1452.84 Q2340.93 1457.27 2340.93 1466.18 Q2340.93 1475.07 2343.19 1479.52 Q2345.48 1483.95 2349.99 1483.95 Q2354.53 1483.95 2356.79 1479.52 Q2359.08 1475.07 2359.08 1466.18 Q2359.08 1457.27 2356.79 1452.84 Q2354.53 1448.39 2349.99 1448.39 M2349.99 1443.76 Q2357.25 1443.76 2361.07 1449.52 Q2364.92 1455.25 2364.92 1466.18 Q2364.92 1477.09 2361.07 1482.85 Q2357.25 1488.58 2349.99 1488.58 Q2342.73 1488.58 2338.88 1482.85 Q2335.06 1477.09 2335.06 1466.18 Q2335.06 1455.25 2338.88 1449.52 Q2342.73 1443.76 2349.99 1443.76 Z" fill="#000000" fill-rule="nonzero" fill-opacity="1"></path><path clip-path="url(#clip130)" d="M1136.33 1550.08 Q1138.4 1550.78 1140.34 1553.08 Q1142.32 1555.37 1144.29 1559.38 L1150.81 1572.36 L1143.91 1572.36 L1137.83 1560.17 Q1135.47 1555.4 1133.24 1553.84 Q1131.05 1552.28 1127.23 1552.28 L1120.23 1552.28 L1120.23 1572.36 L1113.8 1572.36 L1113.8 1524.84 L1128.31 1524.84 Q1136.46 1524.84 1140.47 1528.25 Q1144.48 1531.66 1144.48 1538.53 Q1144.48 1543.02 1142.38 1545.98 Q1140.31 1548.94 1136.33 1550.08 M1120.23 1530.13 L1120.23 1547 L1128.31 1547 Q1132.96 1547 1135.31 1544.86 Q1137.7 1542.7 1137.7 1538.53 Q1137.7 1534.36 1135.31 1532.26 Q1132.96 1530.13 1128.31 1530.13 L1120.23 1530.13 Z" fill="#000000" fill-rule="nonzero" fill-opacity="1"></path><path clip-path="url(#clip130)" d="M1186.4 1553.08 L1186.4 1555.94 L1159.47 1555.94 Q1159.85 1561.99 1163.1 1565.17 Q1166.38 1568.32 1172.2 1568.32 Q1175.58 1568.32 1178.73 1567.49 Q1181.91 1566.67 1185.03 1565.01 L1185.03 1570.55 Q1181.88 1571.89 1178.57 1572.59 Q1175.26 1573.29 1171.85 1573.29 Q1163.32 1573.29 1158.33 1568.32 Q1153.36 1563.36 1153.36 1554.89 Q1153.36 1546.14 1158.07 1541.01 Q1162.81 1535.86 1170.83 1535.86 Q1178.03 1535.86 1182.2 1540.5 Q1186.4 1545.12 1186.4 1553.08 M1180.54 1551.36 Q1180.48 1546.55 1177.84 1543.69 Q1175.23 1540.82 1170.9 1540.82 Q1166 1540.82 1163.04 1543.59 Q1160.11 1546.36 1159.66 1551.39 L1180.54 1551.36 Z" fill="#000000" fill-rule="nonzero" fill-opacity="1"></path><path clip-path="url(#clip130)" d="M1201.8 1526.59 L1201.8 1536.72 L1213.87 1536.72 L1213.87 1541.27 L1201.8 1541.27 L1201.8 1560.62 Q1201.8 1564.98 1202.98 1566.22 Q1204.19 1567.46 1207.85 1567.46 L1213.87 1567.46 L1213.87 1572.36 L1207.85 1572.36 Q1201.07 1572.36 1198.49 1569.85 Q1195.92 1567.3 1195.92 1560.62 L1195.92 1541.27 L1191.62 1541.27 L1191.62 1536.72 L1195.92 1536.72 L1195.92 1526.59 L1201.8 1526.59 Z" fill="#000000" fill-rule="nonzero" fill-opacity="1"></path><path clip-path="url(#clip130)" d="M1220.96 1558.3 L1220.96 1536.72 L1226.82 1536.72 L1226.82 1558.07 Q1226.82 1563.13 1228.79 1565.68 Q1230.77 1568.19 1234.71 1568.19 Q1239.46 1568.19 1242.19 1565.17 Q1244.96 1562.15 1244.96 1556.93 L1244.96 1536.72 L1250.82 1536.72 L1250.82 1572.36 L1244.96 1572.36 L1244.96 1566.89 Q1242.83 1570.14 1240 1571.73 Q1237.2 1573.29 1233.47 1573.29 Q1227.33 1573.29 1224.15 1569.47 Q1220.96 1565.65 1220.96 1558.3 M1235.7 1535.86 L1235.7 1535.86 Z" fill="#000000" fill-rule="nonzero" fill-opacity="1"></path><path clip-path="url(#clip130)" d="M1283.54 1542.19 Q1282.55 1541.62 1281.37 1541.36 Q1280.23 1541.08 1278.83 1541.08 Q1273.86 1541.08 1271.19 1544.32 Q1268.55 1547.54 1268.55 1553.59 L1268.55 1572.36 L1262.66 1572.36 L1262.66 1536.72 L1268.55 1536.72 L1268.55 1542.25 Q1270.39 1539.01 1273.35 1537.45 Q1276.31 1535.86 1280.55 1535.86 Q1281.15 1535.86 1281.88 1535.95 Q1282.62 1536.02 1283.51 1536.17 L1283.54 1542.19 Z" fill="#000000" fill-rule="nonzero" fill-opacity="1"></path><path clip-path="url(#clip130)" d="M1318.17 1550.85 L1318.17 1572.36 L1312.31 1572.36 L1312.31 1551.04 Q1312.31 1545.98 1310.34 1543.46 Q1308.37 1540.95 1304.42 1540.95 Q1299.68 1540.95 1296.94 1543.97 Q1294.2 1547 1294.2 1552.22 L1294.2 1572.36 L1288.31 1572.36 L1288.31 1536.72 L1294.2 1536.72 L1294.2 1542.25 Q1296.3 1539.04 1299.14 1537.45 Q1302 1535.86 1305.72 1535.86 Q1311.87 1535.86 1315.02 1539.68 Q1318.17 1543.46 1318.17 1550.85 Z" fill="#000000" fill-rule="nonzero" fill-opacity="1"></path><path clip-path="url(#clip130)" d="M1357.25 1530.13 L1357.25 1547.98 L1365.34 1547.98 Q1369.83 1547.98 1372.28 1545.66 Q1374.73 1543.34 1374.73 1539.04 Q1374.73 1534.77 1372.28 1532.45 Q1369.83 1530.13 1365.34 1530.13 L1357.25 1530.13 M1350.82 1524.84 L1365.34 1524.84 Q1373.33 1524.84 1377.4 1528.47 Q1381.51 1532.07 1381.51 1539.04 Q1381.51 1546.07 1377.4 1549.67 Q1373.33 1553.27 1365.34 1553.27 L1357.25 1553.27 L1357.25 1572.36 L1350.82 1572.36 L1350.82 1524.84 Z" fill="#000000" fill-rule="nonzero" fill-opacity="1"></path><path clip-path="url(#clip130)" d="M1418.05 1553.08 L1418.05 1555.94 L1391.12 1555.94 Q1391.5 1561.99 1394.75 1565.17 Q1398.03 1568.32 1403.85 1568.32 Q1407.22 1568.32 1410.38 1567.49 Q1413.56 1566.67 1416.68 1565.01 L1416.68 1570.55 Q1413.53 1571.89 1410.22 1572.59 Q1406.91 1573.29 1403.5 1573.29 Q1394.97 1573.29 1389.97 1568.32 Q1385.01 1563.36 1385.01 1554.89 Q1385.01 1546.14 1389.72 1541.01 Q1394.46 1535.86 1402.48 1535.86 Q1409.68 1535.86 1413.85 1540.5 Q1418.05 1545.12 1418.05 1553.08 M1412.19 1551.36 Q1412.13 1546.55 1409.48 1543.69 Q1406.87 1540.82 1402.55 1540.82 Q1397.64 1540.82 1394.68 1543.59 Q1391.76 1546.36 1391.31 1551.39 L1412.19 1551.36 Z" fill="#000000" fill-rule="nonzero" fill-opacity="1"></path><path clip-path="url(#clip130)" d="M1448.32 1542.19 Q1447.33 1541.62 1446.15 1541.36 Q1445.01 1541.08 1443.6 1541.08 Q1438.64 1541.08 1435.97 1544.32 Q1433.32 1547.54 1433.32 1553.59 L1433.32 1572.36 L1427.44 1572.36 L1427.44 1536.72 L1433.32 1536.72 L1433.32 1542.25 Q1435.17 1539.01 1438.13 1537.45 Q1441.09 1535.86 1445.32 1535.86 Q1445.93 1535.86 1446.66 1535.95 Q1447.39 1536.02 1448.28 1536.17 L1448.32 1542.19 Z" fill="#000000" fill-rule="nonzero" fill-opacity="1"></path><path clip-path="url(#clip130)" d="M1454.46 1536.72 L1460.31 1536.72 L1460.31 1572.36 L1454.46 1572.36 L1454.46 1536.72 M1454.46 1522.84 L1460.31 1522.84 L1460.31 1530.25 L1454.46 1530.25 L1454.46 1522.84 Z" fill="#000000" fill-rule="nonzero" fill-opacity="1"></path><path clip-path="url(#clip130)" d="M1486.38 1540.82 Q1481.67 1540.82 1478.93 1544.51 Q1476.2 1548.17 1476.2 1554.57 Q1476.2 1560.97 1478.9 1564.66 Q1481.64 1568.32 1486.38 1568.32 Q1491.06 1568.32 1493.8 1564.63 Q1496.54 1560.94 1496.54 1554.57 Q1496.54 1548.24 1493.8 1544.55 Q1491.06 1540.82 1486.38 1540.82 M1486.38 1535.86 Q1494.02 1535.86 1498.38 1540.82 Q1502.74 1545.79 1502.74 1554.57 Q1502.74 1563.32 1498.38 1568.32 Q1494.02 1573.29 1486.38 1573.29 Q1478.71 1573.29 1474.35 1568.32 Q1470.02 1563.32 1470.02 1554.57 Q1470.02 1545.79 1474.35 1540.82 Q1478.71 1535.86 1486.38 1535.86 Z" fill="#000000" fill-rule="nonzero" fill-opacity="1"></path><path clip-path="url(#clip130)" d="M1535.91 1542.13 L1535.91 1522.84 L1541.76 1522.84 L1541.76 1572.36 L1535.91 1572.36 L1535.91 1567.02 Q1534.06 1570.2 1531.23 1571.76 Q1528.43 1573.29 1524.48 1573.29 Q1518.02 1573.29 1513.95 1568.13 Q1509.9 1562.97 1509.9 1554.57 Q1509.9 1546.17 1513.95 1541.01 Q1518.02 1535.86 1524.48 1535.86 Q1528.43 1535.86 1531.23 1537.42 Q1534.06 1538.94 1535.91 1542.13 M1515.95 1554.57 Q1515.95 1561.03 1518.59 1564.72 Q1521.27 1568.39 1525.91 1568.39 Q1530.56 1568.39 1533.23 1564.72 Q1535.91 1561.03 1535.91 1554.57 Q1535.91 1548.11 1533.23 1544.45 Q1530.56 1540.76 1525.91 1540.76 Q1521.27 1540.76 1518.59 1544.45 Q1515.95 1548.11 1515.95 1554.57 Z" fill="#000000" fill-rule="nonzero" fill-opacity="1"></path><polyline clip-path="url(#clip132)" style="stroke:#000000; stroke-linecap:round; stroke-linejoin:round; stroke-width:2; stroke-opacity:0.1; fill:none" points="302.806,1223.85 2352.76,1223.85 "></polyline>
<polyline clip-path="url(#clip132)" style="stroke:#000000; stroke-linecap:round; stroke-linejoin:round; stroke-width:2; stroke-opacity:0.1; fill:none" points="302.806,939.373 2352.76,939.373 "></polyline>
<polyline clip-path="url(#clip132)" style="stroke:#000000; stroke-linecap:round; stroke-linejoin:round; stroke-width:2; stroke-opacity:0.1; fill:none" points="302.806,654.896 2352.76,654.896 "></polyline>
<polyline clip-path="url(#clip132)" style="stroke:#000000; stroke-linecap:round; stroke-linejoin:round; stroke-width:2; stroke-opacity:0.1; fill:none" points="302.806,370.419 2352.76,370.419 "></polyline>
<polyline clip-path="url(#clip132)" style="stroke:#000000; stroke-linecap:round; stroke-linejoin:round; stroke-width:2; stroke-opacity:0.1; fill:none" points="302.806,85.9411 2352.76,85.9411 "></polyline>
<polyline clip-path="url(#clip130)" style="stroke:#000000; stroke-linecap:round; stroke-linejoin:round; stroke-width:4; stroke-opacity:1; fill:none" points="302.806,1414.54 302.806,47.2441 "></polyline>
<polyline clip-path="url(#clip130)" style="stroke:#000000; stroke-linecap:round; stroke-linejoin:round; stroke-width:4; stroke-opacity:1; fill:none" points="302.806,1223.85 321.703,1223.85 "></polyline>
<polyline clip-path="url(#clip130)" style="stroke:#000000; stroke-linecap:round; stroke-linejoin:round; stroke-width:4; stroke-opacity:1; fill:none" points="302.806,939.373 321.703,939.373 "></polyline>
<polyline clip-path="url(#clip130)" style="stroke:#000000; stroke-linecap:round; stroke-linejoin:round; stroke-width:4; stroke-opacity:1; fill:none" points="302.806,654.896 321.703,654.896 "></polyline>
<polyline clip-path="url(#clip130)" style="stroke:#000000; stroke-linecap:round; stroke-linejoin:round; stroke-width:4; stroke-opacity:1; fill:none" points="302.806,370.419 321.703,370.419 "></polyline>
<polyline clip-path="url(#clip130)" style="stroke:#000000; stroke-linecap:round; stroke-linejoin:round; stroke-width:4; stroke-opacity:1; fill:none" points="302.806,85.9411 321.703,85.9411 "></polyline>
<path clip-path="url(#clip130)" d="M114.26 1224.41 L151.355 1224.41 L151.355 1229.33 L114.26 1229.33 L114.26 1224.41 Z" fill="#000000" fill-rule="nonzero" fill-opacity="1"></path><path clip-path="url(#clip130)" d="M176.47 1224.94 Q172.304 1224.94 169.902 1227.16 Q167.53 1229.39 167.53 1233.3 Q167.53 1237.2 169.902 1239.43 Q172.304 1241.66 176.47 1241.66 Q180.637 1241.66 183.039 1239.43 Q185.44 1237.18 185.44 1233.3 Q185.44 1229.39 183.039 1227.16 Q180.666 1224.94 176.47 1224.94 M170.626 1222.45 Q166.864 1221.52 164.752 1218.95 Q162.668 1216.37 162.668 1212.67 Q162.668 1207.49 166.343 1204.48 Q170.047 1201.47 176.47 1201.47 Q182.923 1201.47 186.598 1204.48 Q190.272 1207.49 190.272 1212.67 Q190.272 1216.37 188.16 1218.95 Q186.077 1221.52 182.344 1222.45 Q186.569 1223.43 188.913 1226.3 Q191.285 1229.16 191.285 1233.3 Q191.285 1239.58 187.437 1242.93 Q183.617 1246.29 176.47 1246.29 Q169.324 1246.29 165.475 1242.93 Q161.656 1239.58 161.656 1233.3 Q161.656 1229.16 164.028 1226.3 Q166.401 1223.43 170.626 1222.45 M168.484 1213.22 Q168.484 1216.57 170.568 1218.45 Q172.68 1220.34 176.47 1220.34 Q180.232 1220.34 182.344 1218.45 Q184.485 1216.57 184.485 1213.22 Q184.485 1209.86 182.344 1207.98 Q180.232 1206.1 176.47 1206.1 Q172.68 1206.1 170.568 1207.98 Q168.484 1209.86 168.484 1213.22 Z" fill="#000000" fill-rule="nonzero" fill-opacity="1"></path><path clip-path="url(#clip130)" d="M214.173 1206.1 Q209.659 1206.1 207.373 1210.55 Q205.116 1214.98 205.116 1223.89 Q205.116 1232.78 207.373 1237.23 Q209.659 1241.66 214.173 1241.66 Q218.716 1241.66 220.973 1237.23 Q223.258 1232.78 223.258 1223.89 Q223.258 1214.98 220.973 1210.55 Q218.716 1206.1 214.173 1206.1 M214.173 1201.47 Q221.436 1201.47 225.255 1207.23 Q229.103 1212.96 229.103 1223.89 Q229.103 1234.8 225.255 1240.56 Q221.436 1246.29 214.173 1246.29 Q206.91 1246.29 203.062 1240.56 Q199.242 1234.8 199.242 1223.89 Q199.242 1212.96 203.062 1207.23 Q206.91 1201.47 214.173 1201.47 Z" fill="#000000" fill-rule="nonzero" fill-opacity="1"></path><path clip-path="url(#clip130)" d="M251.875 1206.1 Q247.361 1206.1 245.075 1210.55 Q242.818 1214.98 242.818 1223.89 Q242.818 1232.78 245.075 1237.23 Q247.361 1241.66 251.875 1241.66 Q256.418 1241.66 258.675 1237.23 Q260.961 1232.78 260.961 1223.89 Q260.961 1214.98 258.675 1210.55 Q256.418 1206.1 251.875 1206.1 M251.875 1201.47 Q259.138 1201.47 262.957 1207.23 Q266.806 1212.96 266.806 1223.89 Q266.806 1234.8 262.957 1240.56 Q259.138 1246.29 251.875 1246.29 Q244.612 1246.29 240.764 1240.56 Q236.945 1234.8 236.945 1223.89 Q236.945 1212.96 240.764 1207.23 Q244.612 1201.47 251.875 1201.47 Z" fill="#000000" fill-rule="nonzero" fill-opacity="1"></path><path clip-path="url(#clip130)" d="M114.26 939.937 L151.355 939.937 L151.355 944.856 L114.26 944.856 L114.26 939.937 Z" fill="#000000" fill-rule="nonzero" fill-opacity="1"></path><path clip-path="url(#clip130)" d="M177.194 937.044 Q173.259 937.044 170.944 939.735 Q168.658 942.426 168.658 947.113 Q168.658 951.772 170.944 954.492 Q173.259 957.183 177.194 957.183 Q181.129 957.183 183.415 954.492 Q185.73 951.772 185.73 947.113 Q185.73 942.426 183.415 939.735 Q181.129 937.044 177.194 937.044 M188.797 918.728 L188.797 924.052 Q186.598 923.01 184.341 922.461 Q182.113 921.911 179.914 921.911 Q174.127 921.911 171.06 925.817 Q168.021 929.723 167.587 937.623 Q169.295 935.105 171.87 933.774 Q174.445 932.414 177.541 932.414 Q184.051 932.414 187.813 936.378 Q191.603 940.314 191.603 947.113 Q191.603 953.768 187.668 957.79 Q183.733 961.812 177.194 961.812 Q169.7 961.812 165.736 956.083 Q161.771 950.325 161.771 939.417 Q161.771 929.174 166.633 923.097 Q171.494 916.992 179.682 916.992 Q181.881 916.992 184.109 917.426 Q186.366 917.86 188.797 918.728 Z" fill="#000000" fill-rule="nonzero" fill-opacity="1"></path><path clip-path="url(#clip130)" d="M214.173 921.622 Q209.659 921.622 207.373 926.078 Q205.116 930.505 205.116 939.417 Q205.116 948.3 207.373 952.756 Q209.659 957.183 214.173 957.183 Q218.716 957.183 220.973 952.756 Q223.258 948.3 223.258 939.417 Q223.258 930.505 220.973 926.078 Q218.716 921.622 214.173 921.622 M214.173 916.992 Q221.436 916.992 225.255 922.75 Q229.103 928.479 229.103 939.417 Q229.103 950.325 225.255 956.083 Q221.436 961.812 214.173 961.812 Q206.91 961.812 203.062 956.083 Q199.242 950.325 199.242 939.417 Q199.242 928.479 203.062 922.75 Q206.91 916.992 214.173 916.992 Z" fill="#000000" fill-rule="nonzero" fill-opacity="1"></path><path clip-path="url(#clip130)" d="M251.875 921.622 Q247.361 921.622 245.075 926.078 Q242.818 930.505 242.818 939.417 Q242.818 948.3 245.075 952.756 Q247.361 957.183 251.875 957.183 Q256.418 957.183 258.675 952.756 Q260.961 948.3 260.961 939.417 Q260.961 930.505 258.675 926.078 Q256.418 921.622 251.875 921.622 M251.875 916.992 Q259.138 916.992 262.957 922.75 Q266.806 928.479 266.806 939.417 Q266.806 950.325 262.957 956.083 Q259.138 961.812 251.875 961.812 Q244.612 961.812 240.764 956.083 Q236.945 950.325 236.945 939.417 Q236.945 928.479 240.764 922.75 Q244.612 916.992 251.875 916.992 Z" fill="#000000" fill-rule="nonzero" fill-opacity="1"></path><path clip-path="url(#clip130)" d="M114.26 655.46 L151.355 655.46 L151.355 660.379 L114.26 660.379 L114.26 655.46 Z" fill="#000000" fill-rule="nonzero" fill-opacity="1"></path><path clip-path="url(#clip130)" d="M180.029 638.388 L165.273 661.45 L180.029 661.45 L180.029 638.388 M178.496 633.296 L185.845 633.296 L185.845 661.45 L192.009 661.45 L192.009 666.311 L185.845 666.311 L185.845 676.496 L180.029 676.496 L180.029 666.311 L160.527 666.311 L160.527 660.668 L178.496 633.296 Z" fill="#000000" fill-rule="nonzero" fill-opacity="1"></path><path clip-path="url(#clip130)" d="M214.173 637.144 Q209.659 637.144 207.373 641.6 Q205.116 646.027 205.116 654.939 Q205.116 663.822 207.373 668.278 Q209.659 672.705 214.173 672.705 Q218.716 672.705 220.973 668.278 Q223.258 663.822 223.258 654.939 Q223.258 646.027 220.973 641.6 Q218.716 637.144 214.173 637.144 M214.173 632.515 Q221.436 632.515 225.255 638.273 Q229.103 644.002 229.103 654.939 Q229.103 665.848 225.255 671.606 Q221.436 677.335 214.173 677.335 Q206.91 677.335 203.062 671.606 Q199.242 665.848 199.242 654.939 Q199.242 644.002 203.062 638.273 Q206.91 632.515 214.173 632.515 Z" fill="#000000" fill-rule="nonzero" fill-opacity="1"></path><path clip-path="url(#clip130)" d="M251.875 637.144 Q247.361 637.144 245.075 641.6 Q242.818 646.027 242.818 654.939 Q242.818 663.822 245.075 668.278 Q247.361 672.705 251.875 672.705 Q256.418 672.705 258.675 668.278 Q260.961 663.822 260.961 654.939 Q260.961 646.027 258.675 641.6 Q256.418 637.144 251.875 637.144 M251.875 632.515 Q259.138 632.515 262.957 638.273 Q266.806 644.002 266.806 654.939 Q266.806 665.848 262.957 671.606 Q259.138 677.335 251.875 677.335 Q244.612 677.335 240.764 671.606 Q236.945 665.848 236.945 654.939 Q236.945 644.002 240.764 638.273 Q244.612 632.515 251.875 632.515 Z" fill="#000000" fill-rule="nonzero" fill-opacity="1"></path><path clip-path="url(#clip130)" d="M114.26 370.983 L151.355 370.983 L151.355 375.902 L114.26 375.902 L114.26 370.983 Z" fill="#000000" fill-rule="nonzero" fill-opacity="1"></path><path clip-path="url(#clip130)" d="M169.005 387.1 L189.404 387.1 L189.404 392.019 L161.974 392.019 L161.974 387.1 Q165.302 383.656 171.031 377.869 Q176.789 372.053 178.264 370.375 Q181.071 367.221 182.171 365.051 Q183.299 362.852 183.299 360.74 Q183.299 357.296 180.869 355.126 Q178.467 352.956 174.59 352.956 Q171.841 352.956 168.774 353.911 Q165.736 354.866 162.263 356.805 L162.263 350.902 Q165.793 349.484 168.861 348.761 Q171.928 348.037 174.474 348.037 Q181.187 348.037 185.18 351.394 Q189.173 354.75 189.173 360.364 Q189.173 363.026 188.16 365.427 Q187.176 367.8 184.543 371.041 Q183.82 371.88 179.943 375.902 Q176.065 379.895 169.005 387.1 Z" fill="#000000" fill-rule="nonzero" fill-opacity="1"></path><path clip-path="url(#clip130)" d="M214.173 352.667 Q209.659 352.667 207.373 357.123 Q205.116 361.55 205.116 370.462 Q205.116 379.345 207.373 383.801 Q209.659 388.228 214.173 388.228 Q218.716 388.228 220.973 383.801 Q223.258 379.345 223.258 370.462 Q223.258 361.55 220.973 357.123 Q218.716 352.667 214.173 352.667 M214.173 348.037 Q221.436 348.037 225.255 353.795 Q229.103 359.524 229.103 370.462 Q229.103 381.37 225.255 387.128 Q221.436 392.858 214.173 392.858 Q206.91 392.858 203.062 387.128 Q199.242 381.37 199.242 370.462 Q199.242 359.524 203.062 353.795 Q206.91 348.037 214.173 348.037 Z" fill="#000000" fill-rule="nonzero" fill-opacity="1"></path><path clip-path="url(#clip130)" d="M251.875 352.667 Q247.361 352.667 245.075 357.123 Q242.818 361.55 242.818 370.462 Q242.818 379.345 245.075 383.801 Q247.361 388.228 251.875 388.228 Q256.418 388.228 258.675 383.801 Q260.961 379.345 260.961 370.462 Q260.961 361.55 258.675 357.123 Q256.418 352.667 251.875 352.667 M251.875 348.037 Q259.138 348.037 262.957 353.795 Q266.806 359.524 266.806 370.462 Q266.806 381.37 262.957 387.128 Q259.138 392.858 251.875 392.858 Q244.612 392.858 240.764 387.128 Q236.945 381.37 236.945 370.462 Q236.945 359.524 240.764 353.795 Q244.612 348.037 251.875 348.037 Z" fill="#000000" fill-rule="nonzero" fill-opacity="1"></path><path clip-path="url(#clip130)" d="M251.875 68.1895 Q247.361 68.1895 245.075 72.6455 Q242.818 77.0726 242.818 85.9845 Q242.818 94.8676 245.075 99.3236 Q247.361 103.751 251.875 103.751 Q256.418 103.751 258.675 99.3236 Q260.961 94.8676 260.961 85.9845 Q260.961 77.0726 258.675 72.6455 Q256.418 68.1895 251.875 68.1895 M251.875 63.5599 Q259.138 63.5599 262.957 69.318 Q266.806 75.0471 266.806 85.9845 Q266.806 96.8931 262.957 102.651 Q259.138 108.38 251.875 108.38 Q244.612 108.38 240.764 102.651 Q236.945 96.8931 236.945 85.9845 Q236.945 75.0471 240.764 69.318 Q244.612 63.5599 251.875 63.5599 Z" fill="#000000" fill-rule="nonzero" fill-opacity="1"></path><path clip-path="url(#clip130)" d="M21.7677 1253.76 L58.7206 1253.76 L58.7206 1245.99 Q58.7206 1236.15 54.2646 1231.6 Q49.8086 1227.02 40.1964 1227.02 Q30.6479 1227.02 26.2237 1231.6 Q21.7677 1236.15 21.7677 1245.99 L21.7677 1253.76 M16.4842 1260.18 L16.4842 1246.98 Q16.4842 1233.16 22.2451 1226.7 Q27.9743 1220.24 40.1964 1220.24 Q52.4822 1220.24 58.2432 1226.73 Q64.0042 1233.23 64.0042 1246.98 L64.0042 1260.18 L16.4842 1260.18 Z" fill="#000000" fill-rule="nonzero" fill-opacity="1"></path><path clip-path="url(#clip130)" d="M28.3562 1210.25 L28.3562 1204.39 L64.0042 1204.39 L64.0042 1210.25 L28.3562 1210.25 M14.479 1210.25 L14.479 1204.39 L21.895 1204.39 L21.895 1210.25 L14.479 1210.25 Z" fill="#000000" fill-rule="nonzero" fill-opacity="1"></path><path clip-path="url(#clip130)" d="M14.479 1174.09 L19.3487 1174.09 L19.3487 1179.69 Q19.3487 1182.84 20.6219 1184.08 Q21.895 1185.29 25.2052 1185.29 L28.3562 1185.29 L28.3562 1175.65 L32.9077 1175.65 L32.9077 1185.29 L64.0042 1185.29 L64.0042 1191.18 L32.9077 1191.18 L32.9077 1196.78 L28.3562 1196.78 L28.3562 1191.18 L25.8736 1191.18 Q19.9216 1191.18 17.2162 1188.41 Q14.479 1185.64 14.479 1179.63 L14.479 1174.09 Z" fill="#000000" fill-rule="nonzero" fill-opacity="1"></path><path clip-path="url(#clip130)" d="M14.479 1151.14 L19.3487 1151.14 L19.3487 1156.74 Q19.3487 1159.89 20.6219 1161.13 Q21.895 1162.34 25.2052 1162.34 L28.3562 1162.34 L28.3562 1152.7 L32.9077 1152.7 L32.9077 1162.34 L64.0042 1162.34 L64.0042 1168.23 L32.9077 1168.23 L32.9077 1173.83 L28.3562 1173.83 L28.3562 1168.23 L25.8736 1168.23 Q19.9216 1168.23 17.2162 1165.46 Q14.479 1162.69 14.479 1156.68 L14.479 1151.14 Z" fill="#000000" fill-rule="nonzero" fill-opacity="1"></path><path clip-path="url(#clip130)" d="M44.7161 1115.75 L47.5806 1115.75 L47.5806 1142.67 Q53.6281 1142.29 56.8109 1139.05 Q59.9619 1135.77 59.9619 1129.94 Q59.9619 1126.57 59.1344 1123.42 Q58.3069 1120.23 56.6518 1117.12 L62.1899 1117.12 Q63.5267 1120.27 64.227 1123.58 Q64.9272 1126.89 64.9272 1130.29 Q64.9272 1138.82 59.9619 1143.82 Q54.9967 1148.78 46.5303 1148.78 Q37.7774 1148.78 32.6531 1144.07 Q27.4968 1139.33 27.4968 1131.31 Q27.4968 1124.12 32.1438 1119.95 Q36.7589 1115.75 44.7161 1115.75 M42.9973 1121.6 Q38.1912 1121.67 35.3266 1124.31 Q32.4621 1126.92 32.4621 1131.25 Q32.4621 1136.15 35.2312 1139.11 Q38.0002 1142.04 43.0292 1142.48 L42.9973 1121.6 Z" fill="#000000" fill-rule="nonzero" fill-opacity="1"></path><path clip-path="url(#clip130)" d="M33.8307 1085.48 Q33.2578 1086.46 33.0032 1087.64 Q32.7167 1088.79 32.7167 1090.19 Q32.7167 1095.15 35.9632 1097.83 Q39.1779 1100.47 45.2253 1100.47 L64.0042 1100.47 L64.0042 1106.36 L28.3562 1106.36 L28.3562 1100.47 L33.8944 1100.47 Q30.6479 1098.62 29.0883 1095.66 Q27.4968 1092.7 27.4968 1088.47 Q27.4968 1087.86 27.5923 1087.13 Q27.656 1086.4 27.8151 1085.51 L33.8307 1085.48 Z" fill="#000000" fill-rule="nonzero" fill-opacity="1"></path><path clip-path="url(#clip130)" d="M44.7161 1050.28 L47.5806 1050.28 L47.5806 1077.2 Q53.6281 1076.82 56.8109 1073.57 Q59.9619 1070.3 59.9619 1064.47 Q59.9619 1061.1 59.1344 1057.95 Q58.3069 1054.76 56.6518 1051.64 L62.1899 1051.64 Q63.5267 1054.8 64.227 1058.11 Q64.9272 1061.42 64.9272 1064.82 Q64.9272 1073.35 59.9619 1078.35 Q54.9967 1083.31 46.5303 1083.31 Q37.7774 1083.31 32.6531 1078.6 Q27.4968 1073.86 27.4968 1065.84 Q27.4968 1058.65 32.1438 1054.48 Q36.7589 1050.28 44.7161 1050.28 M42.9973 1056.13 Q38.1912 1056.2 35.3266 1058.84 Q32.4621 1061.45 32.4621 1065.78 Q32.4621 1070.68 35.2312 1073.64 Q38.0002 1076.57 43.0292 1077.01 L42.9973 1056.13 Z" fill="#000000" fill-rule="nonzero" fill-opacity="1"></path><path clip-path="url(#clip130)" d="M42.4881 1011.03 L64.0042 1011.03 L64.0042 1016.89 L42.679 1016.89 Q37.6183 1016.89 35.1038 1018.86 Q32.5894 1020.83 32.5894 1024.78 Q32.5894 1029.52 35.6131 1032.26 Q38.6368 1035 43.8567 1035 L64.0042 1035 L64.0042 1040.89 L28.3562 1040.89 L28.3562 1035 L33.8944 1035 Q30.6797 1032.9 29.0883 1030.06 Q27.4968 1027.2 27.4968 1023.48 Q27.4968 1017.33 31.3163 1014.18 Q35.1038 1011.03 42.4881 1011.03 Z" fill="#000000" fill-rule="nonzero" fill-opacity="1"></path><path clip-path="url(#clip130)" d="M29.7248 973.696 L35.1993 973.696 Q33.8307 976.179 33.1623 978.693 Q32.4621 981.176 32.4621 983.722 Q32.4621 989.419 36.0905 992.57 Q39.6872 995.721 46.212 995.721 Q52.7369 995.721 56.3653 992.57 Q59.9619 989.419 59.9619 983.722 Q59.9619 981.176 59.2935 978.693 Q58.5933 976.179 57.2247 973.696 L62.6355 973.696 Q63.7814 976.147 64.3543 978.788 Q64.9272 981.398 64.9272 984.358 Q64.9272 992.411 59.8664 997.154 Q54.8057 1001.9 46.212 1001.9 Q37.491 1001.9 32.4939 997.122 Q27.4968 992.316 27.4968 983.977 Q27.4968 981.271 28.0697 978.693 Q28.6108 976.115 29.7248 973.696 Z" fill="#000000" fill-rule="nonzero" fill-opacity="1"></path><path clip-path="url(#clip130)" d="M44.7161 933.019 L47.5806 933.019 L47.5806 959.946 Q53.6281 959.564 56.8109 956.318 Q59.9619 953.039 59.9619 947.215 Q59.9619 943.841 59.1344 940.69 Q58.3069 937.507 56.6518 934.388 L62.1899 934.388 Q63.5267 937.539 64.227 940.849 Q64.9272 944.159 64.9272 947.565 Q64.9272 956.095 59.9619 961.092 Q54.9967 966.057 46.5303 966.057 Q37.7774 966.057 32.6531 961.346 Q27.4968 956.604 27.4968 948.583 Q27.4968 941.39 32.1438 937.22 Q36.7589 933.019 44.7161 933.019 M42.9973 938.876 Q38.1912 938.939 35.3266 941.581 Q32.4621 944.191 32.4621 948.52 Q32.4621 953.421 35.2312 956.381 Q38.0002 959.309 43.0292 959.755 L42.9973 938.876 Z" fill="#000000" fill-rule="nonzero" fill-opacity="1"></path><path clip-path="url(#clip130)" d="M28.3562 902.686 L28.3562 896.83 L64.0042 896.83 L64.0042 902.686 L28.3562 902.686 M14.479 902.686 L14.479 896.83 L21.895 896.83 L21.895 902.686 L14.479 902.686 Z" fill="#000000" fill-rule="nonzero" fill-opacity="1"></path><path clip-path="url(#clip130)" d="M42.4881 854.944 L64.0042 854.944 L64.0042 860.8 L42.679 860.8 Q37.6183 860.8 35.1038 862.773 Q32.5894 864.747 32.5894 868.694 Q32.5894 873.436 35.6131 876.173 Q38.6368 878.911 43.8567 878.911 L64.0042 878.911 L64.0042 884.799 L28.3562 884.799 L28.3562 878.911 L33.8944 878.911 Q30.6797 876.81 29.0883 873.977 Q27.4968 871.113 27.4968 867.389 Q27.4968 861.246 31.3163 858.095 Q35.1038 854.944 42.4881 854.944 Z" fill="#000000" fill-rule="nonzero" fill-opacity="1"></path><path clip-path="url(#clip130)" d="M20.8447 803 Q20.8447 810.002 26.0645 814.139 Q31.2844 818.245 40.2919 818.245 Q49.2675 818.245 54.4874 814.139 Q59.7073 810.002 59.7073 803 Q59.7073 795.997 54.4874 791.923 Q49.2675 787.817 40.2919 787.817 Q31.2844 787.817 26.0645 791.923 Q20.8447 795.997 20.8447 803 M15.6248 803 Q15.6248 793.005 22.3406 787.022 Q29.0246 781.038 40.2919 781.038 Q51.5274 781.038 58.2432 787.022 Q64.9272 793.005 64.9272 803 Q64.9272 813.025 58.2432 819.041 Q51.5592 825.025 40.2919 825.025 Q29.0246 825.025 22.3406 819.041 Q15.6248 813.025 15.6248 803 Z" fill="#000000" fill-rule="nonzero" fill-opacity="1"></path><path clip-path="url(#clip130)" d="M29.7248 745.581 L35.1993 745.581 Q33.8307 748.063 33.1623 750.578 Q32.4621 753.061 32.4621 755.607 Q32.4621 761.304 36.0905 764.455 Q39.6872 767.606 46.212 767.606 Q52.7369 767.606 56.3653 764.455 Q59.9619 761.304 59.9619 755.607 Q59.9619 753.061 59.2935 750.578 Q58.5933 748.063 57.2247 745.581 L62.6355 745.581 Q63.7814 748.032 64.3543 750.673 Q64.9272 753.283 64.9272 756.243 Q64.9272 764.296 59.8664 769.038 Q54.8057 773.781 46.212 773.781 Q37.491 773.781 32.4939 769.007 Q27.4968 764.201 27.4968 755.861 Q27.4968 753.156 28.0697 750.578 Q28.6108 748 29.7248 745.581 Z" fill="#000000" fill-rule="nonzero" fill-opacity="1"></path><path clip-path="url(#clip130)" d="M29.7248 709.742 L35.1993 709.742 Q33.8307 712.225 33.1623 714.739 Q32.4621 717.222 32.4621 719.768 Q32.4621 725.465 36.0905 728.616 Q39.6872 731.767 46.212 731.767 Q52.7369 731.767 56.3653 728.616 Q59.9619 725.465 59.9619 719.768 Q59.9619 717.222 59.2935 714.739 Q58.5933 712.225 57.2247 709.742 L62.6355 709.742 Q63.7814 712.193 64.3543 714.834 Q64.9272 717.444 64.9272 720.404 Q64.9272 728.457 59.8664 733.2 Q54.8057 737.942 46.212 737.942 Q37.491 737.942 32.4939 733.168 Q27.4968 728.362 27.4968 720.023 Q27.4968 717.317 28.0697 714.739 Q28.6108 712.161 29.7248 709.742 Z" fill="#000000" fill-rule="nonzero" fill-opacity="1"></path><path clip-path="url(#clip130)" d="M49.9359 700.162 L28.3562 700.162 L28.3562 694.305 L49.7131 694.305 Q54.7739 694.305 57.3202 692.332 Q59.8346 690.358 59.8346 686.412 Q59.8346 681.669 56.8109 678.932 Q53.7872 676.163 48.5673 676.163 L28.3562 676.163 L28.3562 670.306 L64.0042 670.306 L64.0042 676.163 L58.5296 676.163 Q61.7762 678.295 63.3676 681.128 Q64.9272 683.929 64.9272 687.653 Q64.9272 693.796 61.1078 696.979 Q57.2883 700.162 49.9359 700.162 M27.4968 685.425 L27.4968 685.425 Z" fill="#000000" fill-rule="nonzero" fill-opacity="1"></path><path clip-path="url(#clip130)" d="M58.657 652.578 L77.5631 652.578 L77.5631 658.466 L28.3562 658.466 L28.3562 652.578 L33.7671 652.578 Q30.5842 650.732 29.0564 647.931 Q27.4968 645.098 27.4968 641.183 Q27.4968 634.69 32.6531 630.648 Q37.8093 626.574 46.212 626.574 Q54.6147 626.574 59.771 630.648 Q64.9272 634.69 64.9272 641.183 Q64.9272 645.098 63.3994 647.931 Q61.8398 650.732 58.657 652.578 M46.212 632.653 Q39.7508 632.653 36.0905 635.327 Q32.3984 637.969 32.3984 642.616 Q32.3984 647.262 36.0905 649.936 Q39.7508 652.578 46.212 652.578 Q52.6732 652.578 56.3653 649.936 Q60.0256 647.262 60.0256 642.616 Q60.0256 637.969 56.3653 635.327 Q52.6732 632.653 46.212 632.653 Z" fill="#000000" fill-rule="nonzero" fill-opacity="1"></path><path clip-path="url(#clip130)" d="M28.3562 616.866 L28.3562 611.01 L64.0042 611.01 L64.0042 616.866 L28.3562 616.866 M14.479 616.866 L14.479 611.01 L21.895 611.01 L21.895 616.866 L14.479 616.866 Z" fill="#000000" fill-rule="nonzero" fill-opacity="1"></path><path clip-path="url(#clip130)" d="M44.7161 568.264 L47.5806 568.264 L47.5806 595.191 Q53.6281 594.809 56.8109 591.563 Q59.9619 588.284 59.9619 582.46 Q59.9619 579.086 59.1344 575.935 Q58.3069 572.752 56.6518 569.633 L62.1899 569.633 Q63.5267 572.784 64.227 576.094 Q64.9272 579.404 64.9272 582.81 Q64.9272 591.34 59.9619 596.337 Q54.9967 601.302 46.5303 601.302 Q37.7774 601.302 32.6531 596.591 Q27.4968 591.849 27.4968 583.828 Q27.4968 576.635 32.1438 572.465 Q36.7589 568.264 44.7161 568.264 M42.9973 574.121 Q38.1912 574.184 35.3266 576.826 Q32.4621 579.436 32.4621 583.765 Q32.4621 588.666 35.2312 591.626 Q38.0002 594.554 43.0292 595 L42.9973 574.121 Z" fill="#000000" fill-rule="nonzero" fill-opacity="1"></path><path clip-path="url(#clip130)" d="M33.7671 535.194 L14.479 535.194 L14.479 529.338 L64.0042 529.338 L64.0042 535.194 L58.657 535.194 Q61.8398 537.04 63.3994 539.873 Q64.9272 542.674 64.9272 546.621 Q64.9272 553.082 59.771 557.156 Q54.6147 561.198 46.212 561.198 Q37.8093 561.198 32.6531 557.156 Q27.4968 553.082 27.4968 546.621 Q27.4968 542.674 29.0564 539.873 Q30.5842 537.04 33.7671 535.194 M46.212 555.151 Q52.6732 555.151 56.3653 552.509 Q60.0256 549.835 60.0256 545.188 Q60.0256 540.541 56.3653 537.868 Q52.6732 535.194 46.212 535.194 Q39.7508 535.194 36.0905 537.868 Q32.3984 540.541 32.3984 545.188 Q32.3984 549.835 36.0905 552.509 Q39.7508 555.151 46.212 555.151 Z" fill="#000000" fill-rule="nonzero" fill-opacity="1"></path><path clip-path="url(#clip130)" d="M43.5384 520.235 L43.5384 503.079 L48.7583 503.079 L48.7583 520.235 L43.5384 520.235 Z" fill="#000000" fill-rule="nonzero" fill-opacity="1"></path><path clip-path="url(#clip130)" d="M16.4842 493.499 L16.4842 463.453 L21.895 463.453 L21.895 487.069 L35.9632 487.069 L35.9632 464.439 L41.3741 464.439 L41.3741 487.069 L58.5933 487.069 L58.5933 462.88 L64.0042 462.88 L64.0042 493.499 L16.4842 493.499 Z" fill="#000000" fill-rule="nonzero" fill-opacity="1"></path><path clip-path="url(#clip130)" d="M28.3562 422.935 L45.7028 435.826 L64.0042 422.267 L64.0042 429.173 L49.9996 439.549 L64.0042 449.926 L64.0042 456.832 L45.3526 442.987 L28.3562 455.655 L28.3562 448.748 L41.0558 439.295 L28.3562 429.842 L28.3562 422.935 Z" fill="#000000" fill-rule="nonzero" fill-opacity="1"></path><path clip-path="url(#clip130)" d="M58.657 408.326 L77.5631 408.326 L77.5631 414.214 L28.3562 414.214 L28.3562 408.326 L33.7671 408.326 Q30.5842 406.48 29.0564 403.679 Q27.4968 400.846 27.4968 396.931 Q27.4968 390.438 32.6531 386.396 Q37.8093 382.322 46.212 382.322 Q54.6147 382.322 59.771 386.396 Q64.9272 390.438 64.9272 396.931 Q64.9272 400.846 63.3994 403.679 Q61.8398 406.48 58.657 408.326 M46.212 388.401 Q39.7508 388.401 36.0905 391.075 Q32.3984 393.716 32.3984 398.363 Q32.3984 403.01 36.0905 405.684 Q39.7508 408.326 46.212 408.326 Q52.6732 408.326 56.3653 405.684 Q60.0256 403.01 60.0256 398.363 Q60.0256 393.716 56.3653 391.075 Q52.6732 388.401 46.212 388.401 Z" fill="#000000" fill-rule="nonzero" fill-opacity="1"></path><path clip-path="url(#clip130)" d="M32.4621 358.801 Q32.4621 363.511 36.1542 366.248 Q39.8145 368.986 46.212 368.986 Q52.6095 368.986 56.3017 366.28 Q59.9619 363.543 59.9619 358.801 Q59.9619 354.122 56.2698 351.384 Q52.5777 348.647 46.212 348.647 Q39.8781 348.647 36.186 351.384 Q32.4621 354.122 32.4621 358.801 M27.4968 358.801 Q27.4968 351.162 32.4621 346.801 Q37.4273 342.441 46.212 342.441 Q54.9649 342.441 59.9619 346.801 Q64.9272 351.162 64.9272 358.801 Q64.9272 366.471 59.9619 370.832 Q54.9649 375.16 46.212 375.16 Q37.4273 375.16 32.4621 370.832 Q27.4968 366.471 27.4968 358.801 Z" fill="#000000" fill-rule="nonzero" fill-opacity="1"></path><path clip-path="url(#clip130)" d="M29.4065 310.007 L34.9447 310.007 Q33.6716 312.49 33.035 315.164 Q32.3984 317.837 32.3984 320.702 Q32.3984 325.062 33.7352 327.258 Q35.072 329.423 37.7456 329.423 Q39.7826 329.423 40.9603 327.863 Q42.1061 326.304 43.1565 321.593 L43.6021 319.588 Q44.9389 313.349 47.3897 310.739 Q49.8086 308.098 54.1691 308.098 Q59.1344 308.098 62.0308 312.044 Q64.9272 315.959 64.9272 322.834 Q64.9272 325.699 64.3543 328.818 Q63.8132 331.905 62.6992 335.343 L56.6518 335.343 Q58.3387 332.096 59.198 328.945 Q60.0256 325.794 60.0256 322.707 Q60.0256 318.569 58.6251 316.341 Q57.1929 314.113 54.6147 314.113 Q52.2276 314.113 50.9545 315.736 Q49.6813 317.328 48.5037 322.771 L48.0262 324.808 Q46.8804 330.25 44.5251 332.669 Q42.138 335.088 38.0002 335.088 Q32.9713 335.088 30.2341 331.523 Q27.4968 327.959 27.4968 321.402 Q27.4968 318.155 27.9743 315.291 Q28.4517 312.426 29.4065 310.007 Z" fill="#000000" fill-rule="nonzero" fill-opacity="1"></path><path clip-path="url(#clip130)" d="M49.9359 299.377 L28.3562 299.377 L28.3562 293.52 L49.7131 293.52 Q54.7739 293.52 57.3202 291.547 Q59.8346 289.573 59.8346 285.627 Q59.8346 280.884 56.8109 278.147 Q53.7872 275.378 48.5673 275.378 L28.3562 275.378 L28.3562 269.521 L64.0042 269.521 L64.0042 275.378 L58.5296 275.378 Q61.7762 277.51 63.3676 280.343 Q64.9272 283.144 64.9272 286.868 Q64.9272 293.011 61.1078 296.194 Q57.2883 299.377 49.9359 299.377 M27.4968 284.64 L27.4968 284.64 Z" fill="#000000" fill-rule="nonzero" fill-opacity="1"></path><path clip-path="url(#clip130)" d="M33.8307 236.802 Q33.2578 237.788 33.0032 238.966 Q32.7167 240.112 32.7167 241.512 Q32.7167 246.478 35.9632 249.151 Q39.1779 251.793 45.2253 251.793 L64.0042 251.793 L64.0042 257.681 L28.3562 257.681 L28.3562 251.793 L33.8944 251.793 Q30.6479 249.947 29.0883 246.987 Q27.4968 244.027 27.4968 239.794 Q27.4968 239.189 27.5923 238.457 Q27.656 237.725 27.8151 236.834 L33.8307 236.802 Z" fill="#000000" fill-rule="nonzero" fill-opacity="1"></path><path clip-path="url(#clip130)" d="M44.7161 201.599 L47.5806 201.599 L47.5806 228.526 Q53.6281 228.144 56.8109 224.898 Q59.9619 221.62 59.9619 215.795 Q59.9619 212.421 59.1344 209.27 Q58.3069 206.087 56.6518 202.968 L62.1899 202.968 Q63.5267 206.119 64.227 209.429 Q64.9272 212.739 64.9272 216.145 Q64.9272 224.675 59.9619 229.672 Q54.9967 234.637 46.5303 234.637 Q37.7774 234.637 32.6531 229.927 Q27.4968 225.184 27.4968 217.164 Q27.4968 209.97 32.1438 205.801 Q36.7589 201.599 44.7161 201.599 M42.9973 207.456 Q38.1912 207.519 35.3266 210.161 Q32.4621 212.771 32.4621 217.1 Q32.4621 222.001 35.2312 224.962 Q38.0002 227.89 43.0292 228.335 L42.9973 207.456 Z" fill="#000000" fill-rule="nonzero" fill-opacity="1"></path><polyline clip-path="url(#clip132)" style="stroke:#0000ff; stroke-linecap:round; stroke-linejoin:round; stroke-width:10; stroke-opacity:1; fill:none" points="360.823,486.798 651.906,833.21 822.179,1125.06 942.99,1318.86 1036.7,1375.84 1113.26,1334.21 1178,1271.81 1234.07,1198.03 1283.54,1120.37 1327.78,1053.46 1367.81,988.466 1404.35,923.24 1437.96,859.317 1469.08,798.544 1498.05,744.994 1525.16,692.881 1550.62,642.7 1574.62,594.758 1597.32,549.233 1618.86,507.142 1639.35,468.515 1658.89,431.86 1677.56,397.25 1695.43,364.714 1712.57,334.254 1729.04,305.849 1744.89,279.757 1760.16,255.886 1774.9,233.751 1789.14,213.335 1802.91,194.609 1816.24,177.537 1829.16,162.082 1841.7,148.2 1853.87,135.863 1865.7,125.083 1877.21,115.691 1888.41,107.655 1899.32,100.941 1909.95,95.5122 1920.32,91.3343 1930.44,88.3708 1940.32,86.5859 1949.97,85.9442 1959.41,85.9411 1968.64,85.9411 1977.67,85.9411 1986.51,85.9411 1995.17,85.9411 2003.66,85.9411 2011.97,85.9411 2020.13,85.9411 2028.12,85.9411 2035.97,85.9411 2043.68,85.9411 2051.25,85.9411 2058.68,85.9411 2065.98,85.9411 2073.16,85.9411 2080.22,85.9411 2087.16,85.9411 2093.99,85.9411 2100.71,85.9411 2107.32,85.9411 2113.83,85.9411 2120.25,85.9411 2126.56,85.9411 2132.78,85.9411 2138.91,85.9411 2144.95,85.9411 2150.91,85.9411 2156.79,85.9411 2162.58,85.9411 2168.29,85.9411 2173.93,85.9411 2179.49,85.9411 2184.98,85.9411 2190.4,85.9411 2195.75,85.9411 2201.03,85.9411 2206.25,85.9411 2211.4,85.9411 2216.49,85.9411 2221.52,85.9411 2226.49,85.9411 2231.4,85.9411 2236.26,85.9411 2241.06,85.9411 2245.8,85.9411 2250.49,85.9411 2255.13,85.9411 2259.72,85.9411 2264.26,85.9411 2268.75,85.9411 2273.2,85.9411 2277.6,85.9411 2281.95,85.9411 2286.25,85.9411 2290.52,85.9411 2294.74,85.9411 "></polyline>
<polyline clip-path="url(#clip132)" style="stroke:#ffa500; stroke-linecap:round; stroke-linejoin:round; stroke-width:10; stroke-opacity:1; fill:none" points="360.823,486.798 651.906,833.21 822.179,1125.06 942.99,1318.86 1036.7,1375.84 1113.26,1334.21 1178,1271.81 1234.07,1198.03 1283.54,1120.37 1327.78,1053.46 1367.81,976.589 1404.35,903.282 1437.96,834.032 1469.08,769.945 1498.05,713.413 1525.16,656.089 1550.62,602.82 1574.62,553.401 1597.32,507.619 1618.86,466.189 1639.35,428.404 1658.89,391.989 1677.56,358.444 1695.43,327.589 1712.57,299.256 1729.04,273.29 1744.89,249.838 1760.16,228.687 1774.9,208.868 1789.14,190.911 1802.91,174.707 1816.24,160.156 1829.16,147.162 1841.7,135.64 1853.87,125.524 1865.7,116.797 1877.21,109.23 1888.41,102.804 1899.32,97.5013 1909.95,93.2646 1920.32,90.0395 1930.44,87.7754 1940.32,86.4249 1949.97,85.9434 1959.41,85.9411 1968.64,85.9411 1977.67,85.9411 1986.51,85.9411 1995.17,85.9411 2003.66,85.9411 2011.97,85.9411 2020.13,85.9411 2028.12,85.9411 2035.97,85.9411 2043.68,85.9411 2051.25,85.9411 2058.68,85.9411 2065.98,85.9411 2073.16,85.9411 2080.22,85.9411 2087.16,85.9411 2093.99,85.9411 2100.71,85.9411 2107.32,85.9411 2113.83,85.9411 2120.25,85.9411 2126.56,85.9411 2132.78,85.9411 2138.91,85.9411 2144.95,85.9411 2150.91,85.9411 2156.79,85.9411 2162.58,85.9411 2168.29,85.9411 2173.93,85.9411 2179.49,85.9411 2184.98,85.9411 2190.4,85.9411 2195.75,85.9411 2201.03,85.9411 2206.25,85.9411 2211.4,85.9411 2216.49,85.9411 2221.52,85.9411 2226.49,85.9411 2231.4,85.9411 2236.26,85.9411 2241.06,85.9411 2245.8,85.9411 2250.49,85.9411 2255.13,85.9411 2259.72,85.9411 2264.26,85.9411 2268.75,85.9411 2273.2,85.9411 2277.6,85.9411 2281.95,85.9411 2286.25,85.9411 2290.52,85.9411 2294.74,85.9411 "></polyline>
<polyline clip-path="url(#clip132)" style="stroke:#000000; stroke-linecap:round; stroke-linejoin:round; stroke-width:8; stroke-opacity:1; fill:none" stroke-dasharray="32, 20" points="360.823,85.9411 651.906,85.9411 822.179,85.9411 942.99,85.9411 1036.7,85.9411 1113.26,85.9411 1178,85.9411 1234.07,85.9411 1283.54,85.9411 1327.78,85.9411 1367.81,85.9411 1404.35,85.9411 1437.96,85.9411 1469.08,85.9411 1498.05,85.9411 1525.16,85.9411 1550.62,85.9411 1574.62,85.9411 1597.32,85.9411 1618.86,85.9411 1639.35,85.9411 1658.89,85.9411 1677.56,85.9411 1695.43,85.9411 1712.57,85.9411 1729.04,85.9411 1744.89,85.9411 1760.16,85.9411 1774.9,85.9411 1789.14,85.9411 1802.91,85.9411 1816.24,85.9411 1829.16,85.9411 1841.7,85.9411 1853.87,85.9411 1865.7,85.9411 1877.21,85.9411 1888.41,85.9411 1899.32,85.9411 1909.95,85.9411 1920.32,85.9411 1930.44,85.9411 1940.32,85.9411 1949.97,85.9411 1959.41,85.9411 1968.64,85.9411 1977.67,85.9411 1986.51,85.9411 1995.17,85.9411 2003.66,85.9411 2011.97,85.9411 2020.13,85.9411 2028.12,85.9411 2035.97,85.9411 2043.68,85.9411 2051.25,85.9411 2058.68,85.9411 2065.98,85.9411 2073.16,85.9411 2080.22,85.9411 2087.16,85.9411 2093.99,85.9411 2100.71,85.9411 2107.32,85.9411 2113.83,85.9411 2120.25,85.9411 2126.56,85.9411 2132.78,85.9411 2138.91,85.9411 2144.95,85.9411 2150.91,85.9411 2156.79,85.9411 2162.58,85.9411 2168.29,85.9411 2173.93,85.9411 2179.49,85.9411 2184.98,85.9411 2190.4,85.9411 2195.75,85.9411 2201.03,85.9411 2206.25,85.9411 2211.4,85.9411 2216.49,85.9411 2221.52,85.9411 2226.49,85.9411 2231.4,85.9411 2236.26,85.9411 2241.06,85.9411 2245.8,85.9411 2250.49,85.9411 2255.13,85.9411 2259.72,85.9411 2264.26,85.9411 2268.75,85.9411 2273.2,85.9411 2277.6,85.9411 2281.95,85.9411 2286.25,85.9411 2290.52,85.9411 2294.74,85.9411 "></polyline>
<path clip-path="url(#clip130)" d="M1857.3 1368.96 L2284.42 1368.96 L2284.42 1213.44 L1857.3 1213.44  Z" fill="#ffffff" fill-rule="evenodd" fill-opacity="1"></path>
<polyline clip-path="url(#clip130)" style="stroke:#000000; stroke-linecap:round; stroke-linejoin:round; stroke-width:4; stroke-opacity:1; fill:none" points="1857.3,1368.96 2284.42,1368.96 2284.42,1213.44 1857.3,1213.44 1857.3,1368.96 "></polyline>
<polyline clip-path="url(#clip130)" style="stroke:#0000ff; stroke-linecap:round; stroke-linejoin:round; stroke-width:10; stroke-opacity:1; fill:none" points="1880.08,1265.28 2016.74,1265.28 "></polyline>
<path clip-path="url(#clip130)" d="M2052.92 1269.53 Q2047.76 1269.53 2045.77 1270.71 Q2043.78 1271.89 2043.78 1274.74 Q2043.78 1277.01 2045.26 1278.35 Q2046.76 1279.67 2049.33 1279.67 Q2052.87 1279.67 2055 1277.17 Q2057.16 1274.65 2057.16 1270.48 L2057.16 1269.53 L2052.92 1269.53 M2061.42 1267.77 L2061.42 1282.56 L2057.16 1282.56 L2057.16 1278.63 Q2055.7 1280.99 2053.52 1282.12 Q2051.35 1283.23 2048.2 1283.23 Q2044.22 1283.23 2041.86 1281.01 Q2039.52 1278.77 2039.52 1275.02 Q2039.52 1270.64 2042.44 1268.42 Q2045.38 1266.2 2051.19 1266.2 L2057.16 1266.2 L2057.16 1265.78 Q2057.16 1262.84 2055.21 1261.24 Q2053.29 1259.62 2049.8 1259.62 Q2047.57 1259.62 2045.47 1260.16 Q2043.36 1260.69 2041.42 1261.75 L2041.42 1257.82 Q2043.75 1256.92 2045.95 1256.48 Q2048.15 1256.01 2050.24 1256.01 Q2055.86 1256.01 2058.64 1258.93 Q2061.42 1261.85 2061.42 1267.77 Z" fill="#000000" fill-rule="nonzero" fill-opacity="1"></path><path clip-path="url(#clip130)" d="M2091.74 1266.92 L2091.74 1282.56 L2087.48 1282.56 L2087.48 1267.05 Q2087.48 1263.37 2086.05 1261.54 Q2084.61 1259.72 2081.74 1259.72 Q2078.29 1259.72 2076.3 1261.92 Q2074.31 1264.11 2074.31 1267.91 L2074.31 1282.56 L2070.03 1282.56 L2070.03 1256.64 L2074.31 1256.64 L2074.31 1260.67 Q2075.84 1258.33 2077.9 1257.17 Q2079.98 1256.01 2082.69 1256.01 Q2087.16 1256.01 2089.45 1258.79 Q2091.74 1261.54 2091.74 1266.92 Z" fill="#000000" fill-rule="nonzero" fill-opacity="1"></path><path clip-path="url(#clip130)" d="M2112.02 1269.53 Q2106.86 1269.53 2104.87 1270.71 Q2102.87 1271.89 2102.87 1274.74 Q2102.87 1277.01 2104.36 1278.35 Q2105.86 1279.67 2108.43 1279.67 Q2111.97 1279.67 2114.1 1277.17 Q2116.25 1274.65 2116.25 1270.48 L2116.25 1269.53 L2112.02 1269.53 M2120.51 1267.77 L2120.51 1282.56 L2116.25 1282.56 L2116.25 1278.63 Q2114.8 1280.99 2112.62 1282.12 Q2110.44 1283.23 2107.3 1283.23 Q2103.31 1283.23 2100.95 1281.01 Q2098.62 1278.77 2098.62 1275.02 Q2098.62 1270.64 2101.53 1268.42 Q2104.47 1266.2 2110.28 1266.2 L2116.25 1266.2 L2116.25 1265.78 Q2116.25 1262.84 2114.31 1261.24 Q2112.39 1259.62 2108.89 1259.62 Q2106.67 1259.62 2104.56 1260.16 Q2102.46 1260.69 2100.51 1261.75 L2100.51 1257.82 Q2102.85 1256.92 2105.05 1256.48 Q2107.25 1256.01 2109.33 1256.01 Q2114.96 1256.01 2117.74 1258.93 Q2120.51 1261.85 2120.51 1267.77 Z" fill="#000000" fill-rule="nonzero" fill-opacity="1"></path><path clip-path="url(#clip130)" d="M2129.29 1246.54 L2133.55 1246.54 L2133.55 1282.56 L2129.29 1282.56 L2129.29 1246.54 Z" fill="#000000" fill-rule="nonzero" fill-opacity="1"></path><path clip-path="url(#clip130)" d="M2153.24 1284.97 Q2151.44 1289.6 2149.73 1291.01 Q2148.01 1292.42 2145.14 1292.42 L2141.74 1292.42 L2141.74 1288.86 L2144.24 1288.86 Q2146 1288.86 2146.97 1288.03 Q2147.94 1287.19 2149.12 1284.09 L2149.89 1282.15 L2139.4 1256.64 L2143.92 1256.64 L2152.02 1276.92 L2160.12 1256.64 L2164.63 1256.64 L2153.24 1284.97 Z" fill="#000000" fill-rule="nonzero" fill-opacity="1"></path><path clip-path="url(#clip130)" d="M2174.73 1249.28 L2174.73 1256.64 L2183.5 1256.64 L2183.5 1259.95 L2174.73 1259.95 L2174.73 1274.02 Q2174.73 1277.19 2175.58 1278.1 Q2176.46 1279 2179.12 1279 L2183.5 1279 L2183.5 1282.56 L2179.12 1282.56 Q2174.19 1282.56 2172.32 1280.73 Q2170.44 1278.88 2170.44 1274.02 L2170.44 1259.95 L2167.32 1259.95 L2167.32 1256.64 L2170.44 1256.64 L2170.44 1249.28 L2174.73 1249.28 Z" fill="#000000" fill-rule="nonzero" fill-opacity="1"></path><path clip-path="url(#clip130)" d="M2189.1 1256.64 L2193.36 1256.64 L2193.36 1282.56 L2189.1 1282.56 L2189.1 1256.64 M2189.1 1246.54 L2193.36 1246.54 L2193.36 1251.94 L2189.1 1251.94 L2189.1 1246.54 Z" fill="#000000" fill-rule="nonzero" fill-opacity="1"></path><path clip-path="url(#clip130)" d="M2220.93 1257.63 L2220.93 1261.61 Q2219.12 1260.62 2217.3 1260.13 Q2215.49 1259.62 2213.64 1259.62 Q2209.49 1259.62 2207.2 1262.26 Q2204.91 1264.88 2204.91 1269.62 Q2204.91 1274.37 2207.2 1277.01 Q2209.49 1279.62 2213.64 1279.62 Q2215.49 1279.62 2217.3 1279.14 Q2219.12 1278.63 2220.93 1277.63 L2220.93 1281.57 Q2219.15 1282.4 2217.23 1282.82 Q2215.33 1283.23 2213.18 1283.23 Q2207.32 1283.23 2203.87 1279.55 Q2200.42 1275.87 2200.42 1269.62 Q2200.42 1263.28 2203.89 1259.65 Q2207.39 1256.01 2213.45 1256.01 Q2215.42 1256.01 2217.3 1256.43 Q2219.17 1256.82 2220.93 1257.63 Z" fill="#000000" fill-rule="nonzero" fill-opacity="1"></path><path clip-path="url(#clip130)" d="M2240.12 1269.53 Q2234.96 1269.53 2232.97 1270.71 Q2230.98 1271.89 2230.98 1274.74 Q2230.98 1277.01 2232.46 1278.35 Q2233.96 1279.67 2236.53 1279.67 Q2240.07 1279.67 2242.2 1277.17 Q2244.36 1274.65 2244.36 1270.48 L2244.36 1269.53 L2240.12 1269.53 M2248.61 1267.77 L2248.61 1282.56 L2244.36 1282.56 L2244.36 1278.63 Q2242.9 1280.99 2240.72 1282.12 Q2238.55 1283.23 2235.4 1283.23 Q2231.42 1283.23 2229.05 1281.01 Q2226.72 1278.77 2226.72 1275.02 Q2226.72 1270.64 2229.63 1268.42 Q2232.57 1266.2 2238.38 1266.2 L2244.36 1266.2 L2244.36 1265.78 Q2244.36 1262.84 2242.41 1261.24 Q2240.49 1259.62 2236.99 1259.62 Q2234.77 1259.62 2232.67 1260.16 Q2230.56 1260.69 2228.61 1261.75 L2228.61 1257.82 Q2230.95 1256.92 2233.15 1256.48 Q2235.35 1256.01 2237.43 1256.01 Q2243.06 1256.01 2245.84 1258.93 Q2248.61 1261.85 2248.61 1267.77 Z" fill="#000000" fill-rule="nonzero" fill-opacity="1"></path><path clip-path="url(#clip130)" d="M2257.39 1246.54 L2261.65 1246.54 L2261.65 1282.56 L2257.39 1282.56 L2257.39 1246.54 Z" fill="#000000" fill-rule="nonzero" fill-opacity="1"></path><polyline clip-path="url(#clip130)" style="stroke:#ffa500; stroke-linecap:round; stroke-linejoin:round; stroke-width:10; stroke-opacity:1; fill:none" points="1880.08,1317.12 2016.74,1317.12 "></polyline>
<path clip-path="url(#clip130)" d="M2051.42 1311.46 Q2047.99 1311.46 2046 1314.15 Q2044.01 1316.81 2044.01 1321.46 Q2044.01 1326.12 2045.98 1328.8 Q2047.97 1331.46 2051.42 1331.46 Q2054.82 1331.46 2056.81 1328.78 Q2058.8 1326.09 2058.8 1321.46 Q2058.8 1316.86 2056.81 1314.17 Q2054.82 1311.46 2051.42 1311.46 M2051.42 1307.85 Q2056.97 1307.85 2060.14 1311.46 Q2063.31 1315.07 2063.31 1321.46 Q2063.31 1327.83 2060.14 1331.46 Q2056.97 1335.07 2051.42 1335.07 Q2045.84 1335.07 2042.67 1331.46 Q2039.52 1327.83 2039.52 1321.46 Q2039.52 1315.07 2042.67 1311.46 Q2045.84 1307.85 2051.42 1307.85 Z" fill="#000000" fill-rule="nonzero" fill-opacity="1"></path><path clip-path="url(#clip130)" d="M2085.4 1312.46 Q2084.68 1312.04 2083.82 1311.86 Q2082.99 1311.65 2081.97 1311.65 Q2078.36 1311.65 2076.42 1314.01 Q2074.5 1316.35 2074.5 1320.75 L2074.5 1334.4 L2070.21 1334.4 L2070.21 1308.48 L2074.5 1308.48 L2074.5 1312.51 Q2075.84 1310.14 2077.99 1309.01 Q2080.14 1307.85 2083.22 1307.85 Q2083.66 1307.85 2084.19 1307.92 Q2084.73 1307.97 2085.37 1308.08 L2085.4 1312.46 Z" fill="#000000" fill-rule="nonzero" fill-opacity="1"></path><path clip-path="url(#clip130)" d="M2089.87 1308.48 L2094.12 1308.48 L2094.12 1334.4 L2089.87 1334.4 L2089.87 1308.48 M2089.87 1298.38 L2094.12 1298.38 L2094.12 1303.78 L2089.87 1303.78 L2089.87 1298.38 Z" fill="#000000" fill-rule="nonzero" fill-opacity="1"></path><path clip-path="url(#clip130)" d="M2120.1 1321.14 Q2120.1 1316.51 2118.18 1313.96 Q2116.28 1311.42 2112.83 1311.42 Q2109.4 1311.42 2107.48 1313.96 Q2105.58 1316.51 2105.58 1321.14 Q2105.58 1325.75 2107.48 1328.29 Q2109.4 1330.84 2112.83 1330.84 Q2116.28 1330.84 2118.18 1328.29 Q2120.1 1325.75 2120.1 1321.14 M2124.36 1331.19 Q2124.36 1337.81 2121.42 1341.02 Q2118.48 1344.26 2112.41 1344.26 Q2110.17 1344.26 2108.18 1343.92 Q2106.18 1343.59 2104.31 1342.9 L2104.31 1338.76 Q2106.18 1339.77 2108.01 1340.26 Q2109.84 1340.75 2111.74 1340.75 Q2115.93 1340.75 2118.01 1338.55 Q2120.1 1336.37 2120.1 1331.95 L2120.1 1329.84 Q2118.78 1332.13 2116.72 1333.27 Q2114.66 1334.4 2111.79 1334.4 Q2107.02 1334.4 2104.1 1330.77 Q2101.18 1327.13 2101.18 1321.14 Q2101.18 1315.12 2104.1 1311.49 Q2107.02 1307.85 2111.79 1307.85 Q2114.66 1307.85 2116.72 1308.99 Q2118.78 1310.12 2120.1 1312.41 L2120.1 1308.48 L2124.36 1308.48 L2124.36 1331.19 Z" fill="#000000" fill-rule="nonzero" fill-opacity="1"></path><path clip-path="url(#clip130)" d="M2133.13 1308.48 L2137.39 1308.48 L2137.39 1334.4 L2133.13 1334.4 L2133.13 1308.48 M2133.13 1298.38 L2137.39 1298.38 L2137.39 1303.78 L2133.13 1303.78 L2133.13 1298.38 Z" fill="#000000" fill-rule="nonzero" fill-opacity="1"></path><path clip-path="url(#clip130)" d="M2167.85 1318.76 L2167.85 1334.4 L2163.59 1334.4 L2163.59 1318.89 Q2163.59 1315.21 2162.16 1313.38 Q2160.72 1311.56 2157.85 1311.56 Q2154.4 1311.56 2152.41 1313.76 Q2150.42 1315.95 2150.42 1319.75 L2150.42 1334.4 L2146.14 1334.4 L2146.14 1308.48 L2150.42 1308.48 L2150.42 1312.51 Q2151.95 1310.17 2154.01 1309.01 Q2156.09 1307.85 2158.8 1307.85 Q2163.27 1307.85 2165.56 1310.63 Q2167.85 1313.38 2167.85 1318.76 Z" fill="#000000" fill-rule="nonzero" fill-opacity="1"></path><path clip-path="url(#clip130)" d="M2188.13 1321.37 Q2182.97 1321.37 2180.98 1322.55 Q2178.99 1323.73 2178.99 1326.58 Q2178.99 1328.85 2180.47 1330.19 Q2181.97 1331.51 2184.54 1331.51 Q2188.08 1331.51 2190.21 1329.01 Q2192.36 1326.49 2192.36 1322.32 L2192.36 1321.37 L2188.13 1321.37 M2196.62 1319.61 L2196.62 1334.4 L2192.36 1334.4 L2192.36 1330.47 Q2190.91 1332.83 2188.73 1333.96 Q2186.55 1335.07 2183.41 1335.07 Q2179.43 1335.07 2177.06 1332.85 Q2174.73 1330.61 2174.73 1326.86 Q2174.73 1322.48 2177.64 1320.26 Q2180.58 1318.04 2186.39 1318.04 L2192.36 1318.04 L2192.36 1317.62 Q2192.36 1314.68 2190.42 1313.08 Q2188.5 1311.46 2185 1311.46 Q2182.78 1311.46 2180.68 1312 Q2178.57 1312.53 2176.62 1313.59 L2176.62 1309.66 Q2178.96 1308.76 2181.16 1308.32 Q2183.36 1307.85 2185.44 1307.85 Q2191.07 1307.85 2193.85 1310.77 Q2196.62 1313.69 2196.62 1319.61 Z" fill="#000000" fill-rule="nonzero" fill-opacity="1"></path><path clip-path="url(#clip130)" d="M2205.4 1298.38 L2209.66 1298.38 L2209.66 1334.4 L2205.4 1334.4 L2205.4 1298.38 Z" fill="#000000" fill-rule="nonzero" fill-opacity="1"></path></svg>